$MeshFormat
2.2 0 8
$EndMeshFormat
$PhysicalNames
3
2 1 "Fixed"
2 2 "Load"
3 3 "Volume"
$EndPhysicalNames
$Nodes
241
1 0 -20 -20
2 0 -20 20
3 0 20 -20
4 0 20 20
5 100 -20 -20
6 100 -20 20
7 100 20 -20
8 100 20 20
9 0 -20 -10.00000000000003
10 0 -20 -2.131628207280301e-14
11 0 -20 9.999999999999989
12 0 -10.00000000000003 -20
13 0 -2.131628207280301e-14 -20
14 0 9.999999999999989 -20
15 0 20 -10.00000000000003
16 0 20 -2.131628207280301e-14
17 0 20 9.999999999999989
18 0 -10.00000000000003 20
19 0 -2.131628207280301e-14 20
20 0 9.999999999999989 20
21 100 -20 -10.00000000000003
22 100 -20 -2.131628207280301e-14
23 100 -20 9.999999999999989
24 100 -10.00000000000003 -20
25 100 -2.131628207280301e-14 -20
26 100 9.999999999999989 -20
27 100 20 -10.00000000000003
28 100 20 -2.131628207280301e-14
29 100 20 9.999999999999989
30 100 -10.00000000000003 20
31 100 -2.131628207280301e-14 20
32 100 9.999999999999989 20
33 11.11111111111115 -20 -20
34 22.2222222222223 -20 -20
35 33.33333333333345 -20 -20
36 44.4444444444446 -20 -20
37 55.55555555555569 -20 -20
38 66.66666666666677 -20 -20
39 77.77777777777786 -20 -20
40 88.88888888888893 -20 -20
41 11.11111111111115 -20 20
42 22.2222222222223 -20 20
43 33.33333333333345 -20 20
44 44.4444444444446 -20 20
45 55.55555555555569 -20 20
46 66.66666666666677 -20 20
47 77.77777777777786 -20 20
48 88.88888888888893 -20 20
49 11.11111111111115 20 -20
50 22.2222222222223 20 -20
51 33.33333333333345 20 -20
52 44.4444444444446 20 -20
53 55.55555555555569 20 -20
54 66.66666666666677 20 -20
55 77.77777777777786 20 -20
56 88.88888888888893 20 -20
57 11.11111111111115 20 20
58 22.2222222222223 20 20
59 33.33333333333345 20 20
60 44.4444444444446 20 20
61 55.55555555555569 20 20
62 66.66666666666677 20 20
63 77.77777777777786 20 20
64 88.88888888888893 20 20
65 0 11.5630369558482 4.613248654051851
66 0 -5.632393063328138 -12.0929376321667
67 0 -10.97180902690372 4.683669515540611
68 0 11.5458419275814 -4.981117035200741
69 0 3.809646141816589 -0.1227305511007408
70 0 4.230525703358126 10.78161145949775
71 0 4.278834433476948 -11.05886258926435
72 0 -12.21421863602479 -5.639067894851271
73 0 -5.24825349600178 12.73981972414309
74 0 -2.722642668039217 4.905246117130062
75 0 12.67949192431121 12.67949192431121
76 0 -12.67949192431124 -12.67949192431124
77 0 12.67949192431123 -12.67949192431124
78 0 -12.73968269096608 12.73968269096606
79 0 -4.001617801605637 -3.745647328170243
80 100 -9.820520083573834 -4.584014933466021
81 100 11.47075132890848 5.436271484670698
82 100 -4.986650332224396 11.5583071272162
83 100 4.974758158259185 -12.32203845839835
84 100 4.862687071602714 12.08315981097654
85 100 0.226010907986435 2.767638743405318
86 100 -11.32803972209616 5.148155753003195
87 100 9.915260098665343 -4.559696062884822
88 100 -4.578240913072307 -12.45096626695596
89 100 0.1434536336529639 -6.229815395659966
90 100 12.67949192431121 -12.67949192431122
91 100 12.67949192431121 12.67949192431121
92 100 -12.87975219932923 -13.4069962400844
93 100 -12.67949192431124 12.67949192431123
94 72.11793469607034 -20 9.636119430831315
95 50.00000000000014 -20 10.37749551350626
96 27.91295144994383 -20 -9.66396861885309
97 16.24447479451942 -20 9.906343483415423
98 83.7552403335625 -20 -9.911116525912007
99 61.12706116292589 -20 -10.39800883881678
100 7.957676062224287 -20 -4.75782344509239
101 92.04199158720454 -20 4.757816485772274
102 72.29519839756293 -20 -10.34851708201429
103 77.16413013536834 -20 -0.133012219579264
104 66.5745437170964 -20 -0.5303896553429688
105 55.57272645524049 -20 -0.7647332338452344
106 27.67438712379907 -20 10.33272332486121
107 22.81431885749057 -20 0.1258361648308686
108 33.46786246260865 -20 0.4904986776399483
109 39.07130761674255 -20 -9.27041377846863
110 61.12481675797568 -20 9.315916731345254
111 38.89411749683529 -20 10.32967870986714
112 44.46997388393443 -20 0.5389900043302305
113 50.06854627273772 -20 -10.30817562000978
114 16.58634335767868 -20 -9.921844901166311
115 83.41437181424735 -20 9.918265925859092
116 7.688214001963216 -20 4.698301853044796
117 92.31135077705071 -20 -4.699105479334353
118 92.86905045806816 -20 12.93521648232627
119 7.131026106202824 -20 -12.93593366925175
120 7.12921717099568 -20 12.919773273738
121 92.87067995858946 -20 -12.92056994070745
122 85.73741692948668 -20 -0.01343036263885011
123 14.25820541477523 -20 0.01016263100648018
124 72.13086365084322 20 -9.593209929480476
125 50.2237646059181 20 10.30767617259264
126 27.87066557216676 20 -9.643485621573141
127 16.24447479451942 20 9.906343483415423
128 83.77214499055771 20 9.921115781608869
129 7.957676062224287 20 -4.75782344509239
130 92.04201197252394 20 -4.757816912634709
131 50.23986800897556 20 -9.705784066445871
132 72.30859289943638 20 10.37699550138951
133 77.19406205754321 20 0.1709639828473328
134 66.67534227358813 20 0.6108562221543572
135 61.18383253690391 20 -9.17344470472087
136 27.67316152347266 20 10.33202664923594
137 22.80706694447333 20 0.1291338851066506
138 33.6353302826864 20 0.3711755287096601
139 39.12122521094932 20 -9.557069470479405
140 44.71410742616201 20 0.4607198919488766
141 38.94884027907331 20 10.26999238441904
142 61.2805827465875 20 10.38534027872596
143 16.58128848106701 20 -9.919418297334092
144 83.41875993406201 20 -9.910015081309904
145 7.688214001963216 20 4.698301853044796
146 92.31419200275589 20 4.700771523944322
147 55.87215194597607 20 0.6339281972834954
148 92.86993215909497 20 -12.93356639878893
149 7.130015130880491 20 -12.9354483484853
150 92.87350079897523 20 12.92223641217985
151 7.12921717099568 20 12.919773273738
152 85.74823419148855 20 0.02500385889118206
153 14.25574405684945 20 0.01130749582807766
154 72.12933442783341 -9.643485621573081 -20
155 49.77532502485118 10.3083202523005 -20
156 27.86913634915698 -9.593209929480516 -20
157 16.22785500944241 9.921115781608847 -20
158 83.75552520548068 9.906343483415451 -20
159 7.957988027476106 -4.757816912634709 -20
160 92.04232393777573 -4.757823445092384 -20
161 49.7600970505983 -9.705637612184637 -20
162 72.32561287620109 10.33272332486127 -20
163 77.19272878880574 0.1292499977109038 -20
164 66.36317936286943 0.372199020113797 -20
165 60.8785743185115 -9.556793511894991 -20
166 27.69140710056384 10.37699550138948 -20
167 22.80593794245695 0.1709639828473186 -20
168 33.3246352527585 0.6108699070461689 -20
169 38.81615111479688 -9.173424105358333 -20
170 55.28420514408472 0.4617785831256178 -20
171 61.04842610206317 10.27159417809978 -20
172 38.71923930594505 10.38546359105108 -20
173 16.58124006593809 -9.910015081309902 -20
174 83.41869067539011 -9.919406449109166 -20
175 7.685807997244172 4.700771523944322 -20
176 92.31178599803681 4.698301853044796 -20
177 44.12747030051901 0.6341905644463246 -20
178 92.86998070041096 -12.93544597884032 -20
179 7.13006784090507 -12.93356639878893 -20
180 92.87078282900436 12.91977327373799 -20
181 7.126499201024817 12.92223641217984 -20
182 14.25176580851155 0.0250038588911714 -20
183 85.74421092109782 0.01133308799392196 -20
184 72.12933442783341 -9.643485621573081 20
185 49.77532502485118 10.3083202523005 20
186 27.86913634915698 -9.593209929480516 20
187 16.22785500944241 9.921115781608847 20
188 83.75552520548068 9.906343483415451 20
189 7.957988027476106 -4.757816912634709 20
190 92.04232393777573 -4.757823445092384 20
191 49.7600970505983 -9.705637612184637 20
192 72.32561287620109 10.33272332486127 20
193 77.19272878880574 0.1292499977109038 20
194 66.36317936286943 0.372199020113797 20
195 60.8785743185115 -9.556793511894991 20
196 27.69140710056384 10.37699550138948 20
197 22.80593794245695 0.1709639828473186 20
198 33.3246352527585 0.6108699070461689 20
199 38.81615111479688 -9.173424105358333 20
200 55.28420514408472 0.4617785831256178 20
201 61.04842610206317 10.27159417809978 20
202 38.71923930594505 10.38546359105108 20
203 16.58124006593809 -9.910015081309902 20
204 83.41869067539011 -9.919406449109166 20
205 7.685807997244172 4.700771523944322 20
206 92.31178599803681 4.698301853044796 20
207 44.12747030051901 0.6341905644463246 20
208 92.86998070041096 -12.93544597884032 20
209 7.13006784090507 -12.93356639878893 20
210 92.87078282900436 12.91977327373799 20
211 7.126499201024817 12.92223641217984 20
212 14.25176580851155 0.0250038588911714 20
213 85.74421092109782 0.01133308799392196 20
214 18.51313384519567 -1.774241452362073 1.778747521992841
215 71.77210530845205 -0.009986626518063701 -0.06435545844293877
216 50.30162589434895 0.1636098259669367 0
217 33.92123669087517 3.384595495667657 -3.233939694380968
218 85.3683117267019 5.029228481259206 -5.394004553969707
219 85.95920041996361 -5.276669715776651 5.756343417443954
220 12.85050924787425 7.461827306978755 -6.367883804217076
221 32.72675729993703 -7.006472206379653 6.680491179759898
222 61.10808609555347 6.486245588679184 6.439427954752668
223 60.96459303219919 -6.555196880311692 -6.254393745465695
224 12.19290102493878 -7.46231084897202 -8.030428657218259
225 12.18304712693003 8.159537367341668 6.946303036914833
226 87.97481670968287 7.205656600430196 8.147116586986352
227 41.41820662054758 7.151337810499003 7.250012843744149
228 10.86500623209182 -9.18199170705917 9.298425335950419
229 62.52920932042926 6.778451219493711 -7.094744537097258
230 62.66543160221228 -6.797557350783368 7.022390521711666
231 26.66093248431443 7.168248142831402 7.184995990013862
232 90.04401909605347 -7.592454048235507 -7.736900660822089
233 26.79782654135708 -7.081471179069887 -7.059399829012504
234 41.45673658755671 -7.009486672633082 -7.049248415601612
235 44.7248800338929 8.399716579787897 -8.255405343324382
236 45.33508009209772 -8.342439222680978 8.110490932707496
237 75.65034134738971 8.27758461505579 8.262132360231174
238 76.10522111750765 -8.323348898236368 -8.268064991570492
239 24.55577933729691 8.550505737498113 -8.598067615667286
240 74.55875518611133 -8.232617965453835 8.286122326500603
241 74.29436599990429 8.321205824470386 -8.399205603841045
$EndNodes
$Elements
789
1 2 2 1 1 1 9 76
2 2 2 1 1 12 1 76
3 2 2 1 1 11 2 78
4 2 2 1 1 2 18 78
5 2 2 1 1 3 14 77
6 2 2 1 1 15 3 77
7 2 2 1 1 4 17 75
8 2 2 1 1 20 4 75
9 2 2 1 1 9 10 72
10 2 2 1 1 9 72 76
11 2 2 1 1 10 11 67
12 2 2 1 1 10 67 72
13 2 2 1 1 67 11 78
14 2 2 1 1 13 12 66
15 2 2 1 1 66 12 76
16 2 2 1 1 14 13 71
17 2 2 1 1 13 66 71
18 2 2 1 1 14 71 77
19 2 2 1 1 16 15 68
20 2 2 1 1 68 15 77
21 2 2 1 1 17 16 65
22 2 2 1 1 65 16 68
23 2 2 1 1 17 65 75
24 2 2 1 1 18 19 73
25 2 2 1 1 18 73 78
26 2 2 1 1 19 20 70
27 2 2 1 1 19 70 73
28 2 2 1 1 70 20 75
29 2 2 1 1 65 68 69
30 2 2 1 1 65 69 70
31 2 2 1 1 65 70 75
32 2 2 1 1 71 66 79
33 2 2 1 1 72 66 76
34 2 2 1 1 66 72 79
35 2 2 1 1 72 67 79
36 2 2 1 1 67 73 74
37 2 2 1 1 73 67 78
38 2 2 1 1 67 74 79
39 2 2 1 1 69 68 71
40 2 2 1 1 71 68 77
41 2 2 1 1 70 69 74
42 2 2 1 1 69 71 79
43 2 2 1 1 74 69 79
44 2 2 1 1 73 70 74
45 2 2 2 2 5 92 21
46 2 2 2 2 24 92 5
47 2 2 2 2 23 93 6
48 2 2 2 2 6 93 30
49 2 2 2 2 7 90 26
50 2 2 2 2 27 90 7
51 2 2 2 2 8 91 29
52 2 2 2 2 32 91 8
53 2 2 2 2 21 80 22
54 2 2 2 2 21 92 80
55 2 2 2 2 22 86 23
56 2 2 2 2 80 86 22
57 2 2 2 2 86 93 23
58 2 2 2 2 25 88 24
59 2 2 2 2 88 92 24
60 2 2 2 2 26 83 25
61 2 2 2 2 83 88 25
62 2 2 2 2 26 90 83
63 2 2 2 2 28 87 27
64 2 2 2 2 87 90 27
65 2 2 2 2 29 81 28
66 2 2 2 2 81 87 28
67 2 2 2 2 29 91 81
68 2 2 2 2 30 82 31
69 2 2 2 2 30 93 82
70 2 2 2 2 31 84 32
71 2 2 2 2 82 84 31
72 2 2 2 2 84 91 32
73 2 2 2 2 85 86 80
74 2 2 2 2 80 89 85
75 2 2 2 2 88 89 80
76 2 2 2 2 80 92 88
77 2 2 2 2 84 85 81
78 2 2 2 2 81 91 84
79 2 2 2 2 85 87 81
80 2 2 2 2 82 85 84
81 2 2 2 2 82 86 85
82 2 2 2 2 82 93 86
83 2 2 2 2 87 89 83
84 2 2 2 2 83 90 87
85 2 2 2 2 83 89 88
86 2 2 2 2 85 89 87
87 4 2 3 1 106 186 221 228
88 4 2 3 1 106 203 186 228
89 4 2 3 1 106 221 214 228
90 4 2 3 1 203 106 97 228
91 4 2 3 1 106 107 214 221
92 4 2 3 1 125 147 222 227
93 4 2 3 1 216 222 147 227
94 4 2 3 1 200 185 222 227
95 4 2 3 1 200 222 216 227
96 4 2 3 1 170 223 216 234
97 4 2 3 1 170 161 223 234
98 4 2 3 1 140 216 147 227
99 4 2 3 1 69 74 79 214
100 4 2 3 1 186 214 197 221
101 4 2 3 1 205 212 189 228
102 4 2 3 1 177 216 170 235
103 4 2 3 1 185 125 222 227
104 4 2 3 1 200 227 216 236
105 4 2 3 1 170 216 177 234
106 4 2 3 1 200 207 227 236
107 4 2 3 1 123 100 116 224
108 4 2 3 1 177 234 216 235
109 4 2 3 1 152 130 146 226
110 4 2 3 1 100 67 116 224
111 4 2 3 1 147 216 140 235
112 4 2 3 1 216 223 105 234
113 4 2 3 1 125 140 147 227
114 4 2 3 1 90 148 180 218
115 4 2 3 1 69 74 214 225
116 4 2 3 1 205 225 212 228
117 4 2 3 1 147 229 216 235
118 4 2 3 1 216 234 105 236
119 4 2 3 1 83 90 176 218
120 4 2 3 1 123 224 116 228
121 4 2 3 1 140 216 227 235
122 4 2 3 1 216 230 200 236
123 4 2 3 1 216 222 200 230
124 4 2 3 1 67 116 224 228
125 4 2 3 1 216 229 170 235
126 4 2 3 1 130 148 90 218
127 4 2 3 1 205 70 225 228
128 4 2 3 1 224 233 167 239
129 4 2 3 1 172 217 139 239
130 4 2 3 1 180 176 90 218
131 4 2 3 1 69 214 79 220
132 4 2 3 1 113 105 223 234
133 4 2 3 1 147 222 216 229
134 4 2 3 1 72 67 100 224
135 4 2 3 1 214 224 220 239
136 4 2 3 1 129 65 68 220
137 4 2 3 1 105 223 216 230
138 4 2 3 1 87 146 130 226
139 4 2 3 1 105 230 216 236
140 4 2 3 1 112 105 234 236
141 4 2 3 1 170 216 223 229
142 4 2 3 1 215 223 164 238
143 4 2 3 1 152 218 130 226
144 4 2 3 1 212 214 197 228
145 4 2 3 1 134 222 215 237
146 4 2 3 1 107 214 123 228
147 4 2 3 1 214 225 74 228
148 4 2 3 1 79 220 214 224
149 4 2 3 1 70 74 225 228
150 4 2 3 1 113 223 161 234
151 4 2 3 1 164 223 215 229
152 4 2 3 1 104 223 215 238
153 4 2 3 1 139 217 172 235
154 4 2 3 1 215 222 134 229
155 4 2 3 1 215 238 164 241
156 4 2 3 1 185 200 207 227
157 4 2 3 1 104 215 223 230
158 4 2 3 1 134 237 215 241
159 4 2 3 1 214 233 224 239
160 4 2 3 1 123 214 107 224
161 4 2 3 1 104 238 215 240
162 4 2 3 1 212 197 214 225
163 4 2 3 1 118 208 93 219
164 4 2 3 1 215 230 104 240
165 4 2 3 1 194 230 222 237
166 4 2 3 1 164 229 215 241
167 4 2 3 1 161 170 177 234
168 4 2 3 1 159 175 71 224
169 4 2 3 1 129 145 65 225
170 4 2 3 1 137 225 220 231
171 4 2 3 1 148 158 180 218
172 4 2 3 1 215 229 134 241
173 4 2 3 1 70 73 74 228
174 4 2 3 1 159 182 175 224
175 4 2 3 1 194 230 237 240
176 4 2 3 1 137 231 220 239
177 4 2 3 1 67 79 74 228
178 4 2 3 1 190 206 84 226
179 4 2 3 1 197 221 214 231
180 4 2 3 1 84 82 190 226
181 4 2 3 1 182 220 175 224
182 4 2 3 1 222 230 215 237
183 4 2 3 1 176 88 83 232
184 4 2 3 1 175 220 71 224
185 4 2 3 1 215 237 230 240
186 4 2 3 1 147 131 229 235
187 4 2 3 1 208 190 93 219
188 4 2 3 1 87 130 218 226
189 4 2 3 1 123 214 224 228
190 4 2 3 1 137 153 220 225
191 4 2 3 1 131 155 229 235
192 4 2 3 1 126 172 139 239
193 4 2 3 1 203 212 197 228
194 4 2 3 1 212 225 214 228
195 4 2 3 1 107 214 221 233
196 4 2 3 1 155 170 229 235
197 4 2 3 1 208 118 204 219
198 4 2 3 1 93 190 82 219
199 4 2 3 1 97 107 123 228
200 4 2 3 1 172 126 166 239
201 4 2 3 1 129 65 220 225
202 4 2 3 1 67 224 79 228
203 4 2 3 1 66 159 71 224
204 4 2 3 1 69 214 220 225
205 4 2 3 1 217 216 227 236
206 4 2 3 1 103 219 122 238
207 4 2 3 1 218 226 152 237
208 4 2 3 1 201 185 125 222
209 4 2 3 1 133 218 152 237
210 4 2 3 1 171 131 155 229
211 4 2 3 1 172 168 217 239
212 4 2 3 1 214 225 197 231
213 4 2 3 1 107 224 214 233
214 4 2 3 1 176 83 218 232
215 4 2 3 1 192 142 132 222
216 4 2 3 1 217 227 221 236
217 4 2 3 1 201 142 192 222
218 4 2 3 1 82 219 190 226
219 4 2 3 1 201 125 142 222
220 4 2 3 1 99 102 154 223
221 4 2 3 1 219 232 122 238
222 4 2 3 1 160 88 176 232
223 4 2 3 1 130 90 87 218
224 4 2 3 1 138 227 217 235
225 4 2 3 1 141 227 202 231
226 4 2 3 1 216 217 234 236
227 4 2 3 1 141 202 136 231
228 4 2 3 1 191 200 230 236
229 4 2 3 1 146 87 81 226
230 4 2 3 1 172 166 168 239
231 4 2 3 1 138 140 227 235
232 4 2 3 1 207 221 198 227
233 4 2 3 1 217 234 168 235
234 4 2 3 1 190 213 206 226
235 4 2 3 1 136 202 196 231
236 4 2 3 1 221 234 217 236
237 4 2 3 1 177 168 234 235
238 4 2 3 1 83 88 89 232
239 4 2 3 1 144 158 148 218
240 4 2 3 1 220 225 214 231
241 4 2 3 1 129 153 145 225
242 4 2 3 1 207 221 227 236
243 4 2 3 1 220 231 214 239
244 4 2 3 1 86 101 118 219
245 4 2 3 1 154 165 99 223
246 4 2 3 1 192 222 132 237
247 4 2 3 1 130 144 148 218
248 4 2 3 1 95 191 230 236
249 4 2 3 1 102 154 223 238
250 4 2 3 1 112 105 113 234
251 4 2 3 1 183 218 163 238
252 4 2 3 1 118 93 86 219
253 4 2 3 1 95 191 195 230
254 4 2 3 1 183 232 218 238
255 4 2 3 1 158 176 180 218
256 4 2 3 1 198 227 221 231
257 4 2 3 1 171 135 131 229
258 4 2 3 1 68 65 69 220
259 4 2 3 1 168 172 217 235
260 4 2 3 1 83 89 218 232
261 4 2 3 1 79 67 72 224
262 4 2 3 1 96 169 156 233
263 4 2 3 1 113 99 165 223
264 4 2 3 1 95 230 105 236
265 4 2 3 1 212 187 197 225
266 4 2 3 1 163 164 238 241
267 4 2 3 1 96 109 169 233
268 4 2 3 1 115 204 118 219
269 4 2 3 1 104 103 238 240
270 4 2 3 1 190 219 213 226
271 4 2 3 1 219 238 103 240
272 4 2 3 1 217 231 138 239
273 4 2 3 1 113 165 161 223
274 4 2 3 1 193 194 237 240
275 4 2 3 1 215 219 218 237
276 4 2 3 1 83 87 90 218
277 4 2 3 1 95 195 110 230
278 4 2 3 1 123 107 114 224
279 4 2 3 1 109 169 233 234
280 4 2 3 1 71 220 79 224
281 4 2 3 1 129 220 153 225
282 4 2 3 1 134 133 237 241
283 4 2 3 1 218 237 133 241
284 4 2 3 1 218 219 215 238
285 4 2 3 1 108 233 221 234
286 4 2 3 1 127 136 196 231
287 4 2 3 1 154 164 223 238
288 4 2 3 1 193 237 219 240
289 4 2 3 1 197 225 187 231
290 4 2 3 1 168 233 217 239
291 4 2 3 1 219 226 218 237
292 4 2 3 1 137 138 231 239
293 4 2 3 1 171 155 170 229
294 4 2 3 1 138 217 139 235
295 4 2 3 1 217 227 138 231
296 4 2 3 1 115 118 101 219
297 4 2 3 1 196 187 127 231
298 4 2 3 1 168 217 233 234
299 4 2 3 1 141 138 227 231
300 4 2 3 1 183 176 218 232
301 4 2 3 1 114 224 107 233
302 4 2 3 1 202 227 198 231
303 4 2 3 1 85 218 89 232
304 4 2 3 1 198 221 197 231
305 4 2 3 1 183 160 176 232
306 4 2 3 1 191 200 195 230
307 4 2 3 1 207 199 198 221
308 4 2 3 1 171 162 124 229
309 4 2 3 1 114 96 156 233
310 4 2 3 1 104 102 223 238
311 4 2 3 1 173 114 156 233
312 4 2 3 1 181 77 175 220
313 4 2 3 1 204 190 208 219
314 4 2 3 1 199 221 207 236
315 4 2 3 1 163 238 218 241
316 4 2 3 1 185 141 125 227
317 4 2 3 1 184 94 110 230
318 4 2 3 1 168 167 233 239
319 4 2 3 1 192 194 222 237
320 4 2 3 1 115 122 103 219
321 4 2 3 1 218 232 219 238
322 4 2 3 1 182 157 220 239
323 4 2 3 1 185 202 141 227
324 4 2 3 1 69 220 65 225
325 4 2 3 1 157 149 181 220
326 4 2 3 1 134 132 222 237
327 4 2 3 1 110 195 184 230
328 4 2 3 1 71 79 66 224
329 4 2 3 1 77 181 149 220
330 4 2 3 1 106 186 111 221
331 4 2 3 1 136 58 127 196
332 4 2 3 1 95 110 105 230
333 4 2 3 1 201 200 185 222
334 4 2 3 1 144 152 133 218
335 4 2 3 1 167 224 173 233
336 4 2 3 1 187 225 127 231
337 4 2 3 1 171 124 135 229
338 4 2 3 1 96 34 114 156
339 4 2 3 1 85 219 218 232
340 4 2 3 1 196 58 127 187
341 4 2 3 1 59 136 141 202
342 4 2 3 1 201 192 142 62
343 4 2 3 1 141 60 202 185
344 4 2 3 1 156 34 114 173
345 4 2 3 1 125 61 201 142
346 4 2 3 1 173 224 114 233
347 4 2 3 1 141 136 138 231
348 4 2 3 1 147 131 135 229
349 4 2 3 1 108 109 233 234
350 4 2 3 1 107 221 108 233
351 4 2 3 1 141 60 185 125
352 4 2 3 1 61 201 185 125
353 4 2 3 1 202 198 196 231
354 4 2 3 1 59 136 202 196
355 4 2 3 1 132 142 192 62
356 4 2 3 1 142 134 132 222
357 4 2 3 1 167 182 173 224
358 4 2 3 1 168 233 169 234
359 4 2 3 1 216 223 222 230
360 4 2 3 1 94 46 184 110
361 4 2 3 1 84 85 82 226
362 4 2 3 1 222 223 216 229
363 4 2 3 1 99 104 102 223
364 4 2 3 1 46 195 184 110
365 4 2 3 1 214 221 217 231
366 4 2 3 1 38 102 154 99
367 4 2 3 1 201 192 194 222
368 4 2 3 1 43 111 106 186
369 4 2 3 1 111 108 221 236
370 4 2 3 1 222 223 215 230
371 4 2 3 1 128 152 226 237
372 4 2 3 1 215 223 222 229
373 4 2 3 1 171 54 124 162
374 4 2 3 1 131 147 140 235
375 4 2 3 1 162 124 229 241
376 4 2 3 1 68 77 129 220
377 4 2 3 1 169 35 96 156
378 4 2 3 1 71 69 79 220
379 4 2 3 1 168 177 172 235
380 4 2 3 1 166 172 51 126
381 4 2 3 1 199 111 186 221
382 4 2 3 1 217 221 214 233
383 4 2 3 1 127 225 137 231
384 4 2 3 1 149 129 77 220
385 4 2 3 1 165 170 161 223
386 4 2 3 1 71 175 77 220
387 4 2 3 1 125 147 142 222
388 4 2 3 1 138 139 140 235
389 4 2 3 1 98 122 232 238
390 4 2 3 1 94 230 184 240
391 4 2 3 1 221 227 217 231
392 4 2 3 1 218 219 85 226
393 4 2 3 1 204 193 213 219
394 4 2 3 1 93 82 86 219
395 4 2 3 1 85 87 218 226
396 4 2 3 1 203 42 97 106
397 4 2 3 1 38 154 165 99
398 4 2 3 1 96 109 35 169
399 4 2 3 1 53 131 155 171
400 4 2 3 1 182 167 157 239
401 4 2 3 1 111 112 108 236
402 4 2 3 1 163 183 158 218
403 4 2 3 1 165 154 164 223
404 4 2 3 1 203 42 106 186
405 4 2 3 1 194 200 222 230
406 4 2 3 1 215 238 219 240
407 4 2 3 1 170 223 164 229
408 4 2 3 1 96 108 109 233
409 4 2 3 1 126 172 51 139
410 4 2 3 1 134 222 147 229
411 4 2 3 1 54 124 135 171
412 4 2 3 1 85 219 82 226
413 4 2 3 1 188 226 213 237
414 4 2 3 1 111 43 199 186
415 4 2 3 1 217 214 231 239
416 4 2 3 1 109 113 161 234
417 4 2 3 1 109 161 169 234
418 4 2 3 1 69 70 74 225
419 4 2 3 1 219 237 215 240
420 4 2 3 1 115 219 103 240
421 4 2 3 1 179 119 114 224
422 4 2 3 1 188 213 193 237
423 4 2 3 1 130 152 144 218
424 4 2 3 1 165 37 99 113
425 4 2 3 1 128 133 152 237
426 4 2 3 1 137 153 143 220
427 4 2 3 1 144 218 133 241
428 4 2 3 1 211 151 187 225
429 4 2 3 1 214 217 233 239
430 4 2 3 1 168 156 169 233
431 4 2 3 1 127 153 137 225
432 4 2 3 1 117 92 121 232
433 4 2 3 1 36 109 161 169
434 4 2 3 1 109 36 161 113
435 4 2 3 1 215 237 218 241
436 4 2 3 1 143 149 157 220
437 4 2 3 1 16 68 129 65
438 4 2 3 1 198 186 197 221
439 4 2 3 1 121 178 98 232
440 4 2 3 1 85 87 89 218
441 4 2 3 1 211 205 75 225
442 4 2 3 1 53 135 131 171
443 4 2 3 1 37 165 161 113
444 4 2 3 1 145 16 129 65
445 4 2 3 1 104 223 105 230
446 4 2 3 1 183 176 158 218
447 4 2 3 1 177 170 155 235
448 4 2 3 1 101 122 115 219
449 4 2 3 1 128 150 210 226
450 4 2 3 1 183 174 232 238
451 4 2 3 1 83 89 87 218
452 4 2 3 1 116 100 10 67
453 4 2 3 1 221 233 217 234
454 4 2 3 1 191 207 200 236
455 4 2 3 1 204 193 219 240
456 4 2 3 1 163 218 158 241
457 4 2 3 1 183 163 174 238
458 4 2 3 1 19 205 189 73
459 4 2 3 1 218 238 215 241
460 4 2 3 1 158 218 144 241
461 4 2 3 1 195 191 95 45
462 4 2 3 1 85 81 87 226
463 4 2 3 1 45 95 195 110
464 4 2 3 1 217 227 216 235
465 4 2 3 1 98 103 122 238
466 4 2 3 1 31 190 206 84
467 4 2 3 1 106 108 107 221
468 4 2 3 1 100 72 10 67
469 4 2 3 1 137 220 143 239
470 4 2 3 1 190 31 82 84
471 4 2 3 1 25 83 176 88
472 4 2 3 1 113 105 99 223
473 4 2 3 1 70 75 205 225
474 4 2 3 1 211 75 151 225
475 4 2 3 1 204 219 115 240
476 4 2 3 1 94 104 230 240
477 4 2 3 1 154 163 164 238
478 4 2 3 1 119 72 100 224
479 4 2 3 1 216 234 217 235
480 4 2 3 1 80 85 89 232
481 4 2 3 1 134 229 124 241
482 4 2 3 1 92 178 121 232
483 4 2 3 1 13 66 159 71
484 4 2 3 1 175 13 159 71
485 4 2 3 1 181 175 157 220
486 4 2 3 1 179 159 66 224
487 4 2 3 1 179 76 119 224
488 4 2 3 1 119 33 179 114
489 4 2 3 1 118 48 208 204
490 4 2 3 1 55 158 144 241
491 4 2 3 1 205 19 70 73
492 4 2 3 1 190 204 213 219
493 4 2 3 1 114 173 179 224
494 4 2 3 1 151 75 145 225
495 4 2 3 1 160 25 176 88
496 4 2 3 1 127 187 151 225
497 4 2 3 1 72 119 76 224
498 4 2 3 1 165 164 170 223
499 4 2 3 1 145 75 65 225
500 4 2 3 1 87 146 28 130
501 4 2 3 1 47 204 115 240
502 4 2 3 1 157 175 182 220
503 4 2 3 1 194 184 230 240
504 4 2 3 1 160 92 88 232
505 4 2 3 1 179 66 76 224
506 4 2 3 1 98 178 174 232
507 4 2 3 1 138 137 126 239
508 4 2 3 1 162 158 55 241
509 4 2 3 1 57 211 151 187
510 4 2 3 1 150 210 64 128
511 4 2 3 1 188 63 128 237
512 4 2 3 1 196 197 187 231
513 4 2 3 1 150 91 210 226
514 4 2 3 1 56 180 148 158
515 4 2 3 1 178 121 98 40
516 4 2 3 1 136 127 137 231
517 4 2 3 1 194 200 201 222
518 4 2 3 1 157 49 181 149
519 4 2 3 1 164 162 229 241
520 4 2 3 1 210 188 128 226
521 4 2 3 1 138 140 141 227
522 4 2 3 1 160 178 92 232
523 4 2 3 1 91 206 210 226
524 4 2 3 1 162 171 164 229
525 4 2 3 1 167 173 156 233
526 4 2 3 1 114 107 96 233
527 4 2 3 1 111 221 199 236
528 4 2 3 1 22 101 86 117
529 4 2 3 1 80 92 117 232
530 4 2 3 1 122 117 98 232
531 4 2 3 1 132 128 63 237
532 4 2 3 1 47 184 204 240
533 4 2 3 1 115 94 47 240
534 4 2 3 1 177 168 169 234
535 4 2 3 1 134 135 124 229
536 4 2 3 1 94 104 110 230
537 4 2 3 1 193 194 192 237
538 4 2 3 1 104 103 102 238
539 4 2 3 1 192 63 188 237
540 4 2 3 1 142 147 134 222
541 4 2 3 1 194 195 200 230
542 4 2 3 1 157 143 220 239
543 4 2 3 1 202 207 198 227
544 4 2 3 1 212 205 187 225
545 4 2 3 1 135 134 147 229
546 4 2 3 1 95 105 112 236
547 4 2 3 1 144 124 55 241
548 4 2 3 1 157 50 143 239
549 4 2 3 1 91 84 206 226
550 4 2 3 1 140 125 141 227
551 4 2 3 1 174 39 98 238
552 4 2 3 1 71 77 68 220
553 4 2 3 1 104 105 110 230
554 4 2 3 1 209 41 120 228
555 4 2 3 1 108 112 109 234
556 4 2 3 1 68 69 71 220
557 4 2 3 1 172 155 52 235
558 4 2 3 1 102 98 39 238
559 4 2 3 1 195 194 184 230
560 4 2 3 1 86 82 85 219
561 4 2 3 1 94 103 104 240
562 4 2 3 1 132 134 133 237
563 4 2 3 1 107 108 96 233
564 4 2 3 1 194 193 184 240
565 4 2 3 1 143 129 149 220
566 4 2 3 1 132 63 192 237
567 4 2 3 1 168 167 156 233
568 4 2 3 1 170 164 171 229
569 4 2 3 1 157 166 50 239
570 4 2 3 1 172 52 139 235
571 4 2 3 1 81 146 28 87
572 4 2 3 1 136 137 138 231
573 4 2 3 1 48 118 115 204
574 4 2 3 1 114 33 179 173
575 4 2 3 1 128 226 188 237
576 4 2 3 1 155 131 52 235
577 4 2 3 1 133 134 124 241
578 4 2 3 1 124 162 55 241
579 4 2 3 1 111 199 44 236
580 4 2 3 1 184 47 94 240
581 4 2 3 1 167 168 166 239
582 4 2 3 1 185 207 202 227
583 4 2 3 1 146 128 152 226
584 4 2 3 1 154 39 174 238
585 4 2 3 1 99 105 104 223
586 4 2 3 1 211 187 205 225
587 4 2 3 1 102 39 154 238
588 4 2 3 1 198 197 196 231
589 4 2 3 1 151 127 57 187
590 4 2 3 1 210 188 64 128
591 4 2 3 1 100 123 114 224
592 4 2 3 1 98 174 178 40
593 4 2 3 1 148 144 56 158
594 4 2 3 1 174 98 232 238
595 4 2 3 1 149 157 49 143
596 4 2 3 1 143 50 126 239
597 4 2 3 1 117 121 98 232
598 4 2 3 1 65 70 69 225
599 4 2 3 1 108 106 111 221
600 4 2 3 1 52 131 139 235
601 4 2 3 1 164 163 162 241
602 4 2 3 1 41 209 203 228
603 4 2 3 1 41 97 120 228
604 4 2 3 1 191 44 199 236
605 4 2 3 1 166 126 50 239
606 4 2 3 1 161 177 169 234
607 4 2 3 1 112 113 109 234
608 4 2 3 1 44 95 111 236
609 4 2 3 1 199 186 198 221
610 4 2 3 1 114 119 100 224
611 4 2 3 1 78 120 116 228
612 4 2 3 1 128 146 150 226
613 4 2 3 1 80 22 86 117
614 4 2 3 1 129 143 153 220
615 4 2 3 1 209 73 189 228
616 4 2 3 1 44 191 95 236
617 4 2 3 1 123 116 97 228
618 4 2 3 1 78 116 67 228
619 4 2 3 1 88 160 24 92
620 4 2 3 1 162 163 158 241
621 4 2 3 1 209 78 73 228
622 4 2 3 1 75 70 65 225
623 4 2 3 1 173 182 159 224
624 4 2 3 1 144 133 124 241
625 4 2 3 1 41 203 97 228
626 4 2 3 1 72 76 66 224
627 4 2 3 1 203 189 212 228
628 4 2 3 1 179 173 159 224
629 4 2 3 1 115 103 94 240
630 4 2 3 1 121 117 21 92
631 4 2 3 1 204 184 193 240
632 4 2 3 1 77 15 68 129
633 4 2 3 1 92 160 24 178
634 4 2 3 1 132 133 128 237
635 4 2 3 1 151 145 127 225
636 4 2 3 1 188 193 192 237
637 4 2 3 1 15 77 149 129
638 4 2 3 1 93 208 30 190
639 4 2 3 1 157 167 166 239
640 4 2 3 1 82 93 30 190
641 4 2 3 1 81 85 84 226
642 4 2 3 1 65 145 17 75
643 4 2 3 1 102 103 98 238
644 4 2 3 1 79 72 66 224
645 4 2 3 1 153 127 145 225
646 4 2 3 1 29 91 150 146
647 4 2 3 1 32 206 210 91
648 4 2 3 1 151 17 145 75
649 4 2 3 1 188 206 213 226
650 4 2 3 1 155 172 177 235
651 4 2 3 1 174 178 160 232
652 4 2 3 1 126 137 143 239
653 4 2 3 1 67 74 73 228
654 4 2 3 1 206 188 210 226
655 4 2 3 1 154 174 163 238
656 4 2 3 1 174 160 183 232
657 4 2 3 1 78 120 11 116
658 4 2 3 1 206 32 84 91
659 4 2 3 1 191 199 207 236
660 4 2 3 1 140 139 131 235
661 4 2 3 1 209 120 78 228
662 4 2 3 1 66 179 12 159
663 4 2 3 1 181 14 175 77
664 4 2 3 1 80 88 92 232
665 4 2 3 1 20 75 211 205
666 4 2 3 1 117 80 21 92
667 4 2 3 1 73 189 18 209
668 4 2 3 1 116 11 78 67
669 4 2 3 1 76 179 12 66
670 4 2 3 1 148 27 130 90
671 4 2 3 1 9 119 72 100
672 4 2 3 1 75 20 70 205
673 4 2 3 1 71 175 14 77
674 4 2 3 1 18 73 209 78
675 4 2 3 1 91 81 84 226
676 4 2 3 1 109 36 35 169
677 4 2 3 1 91 29 81 146
678 4 2 3 1 88 80 89 232
679 4 2 3 1 195 46 45 110
680 4 2 3 1 184 46 94 47
681 4 2 3 1 112 111 95 236
682 4 2 3 1 119 76 9 72
683 4 2 3 1 58 57 127 187
684 4 2 3 1 64 188 63 128
685 4 2 3 1 34 96 35 156
686 4 2 3 1 61 185 60 125
687 4 2 3 1 59 141 60 202
688 4 2 3 1 142 61 201 62
689 4 2 3 1 157 50 49 143
690 4 2 3 1 174 98 39 40
691 4 2 3 1 55 56 144 158
692 4 2 3 1 203 42 41 97
693 4 2 3 1 47 48 115 204
694 4 2 3 1 87 130 27 90
695 4 2 3 1 34 33 114 173
696 4 2 3 1 172 52 51 139
697 4 2 3 1 43 44 111 199
698 4 2 3 1 53 54 135 171
699 4 2 3 1 37 38 165 99
700 4 2 3 1 154 102 38 39
701 4 2 3 1 116 120 97 228
702 4 2 3 1 166 51 50 126
703 4 2 3 1 43 106 42 186
704 4 2 3 1 155 52 131 53
705 4 2 3 1 209 189 203 228
706 4 2 3 1 78 67 73 228
707 4 2 3 1 54 55 124 162
708 4 2 3 1 136 59 58 196
709 4 2 3 1 192 132 62 63
710 4 2 3 1 68 15 16 129
711 4 2 3 1 37 161 36 113
712 4 2 3 1 31 82 30 190
713 4 2 3 1 145 17 16 65
714 4 2 3 1 70 20 19 205
715 4 2 3 1 191 44 95 45
716 4 2 3 1 10 11 116 67
717 4 2 3 1 66 12 13 159
718 4 2 3 1 175 14 13 71
719 4 2 3 1 130 28 87 27
720 4 2 3 1 160 24 25 88
721 4 2 3 1 91 210 8 150
722 4 2 3 1 75 151 4 211
723 4 2 3 1 90 148 7 180
724 4 2 3 1 77 181 3 149
725 4 2 3 1 1 179 76 119
726 4 2 3 1 6 93 118 208
727 4 2 3 1 2 209 120 78
728 4 2 3 1 26 25 83 176
729 4 2 3 1 5 121 92 178
730 4 2 3 1 80 21 22 117
731 4 2 3 1 72 10 9 100
732 4 2 3 1 31 206 32 84
733 4 2 3 1 18 19 189 73
734 4 2 3 1 23 22 101 86
735 4 2 3 1 29 81 146 28
736 4 2 3 1 76 9 1 119
737 4 2 3 1 23 6 93 118
738 4 2 3 1 179 12 1 76
739 4 2 3 1 6 93 208 30
740 4 2 3 1 77 3 15 149
741 4 2 3 1 210 8 32 91
742 4 2 3 1 90 7 26 180
743 4 2 3 1 150 8 91 29
744 4 2 3 1 4 17 151 75
745 4 2 3 1 2 18 209 78
746 4 2 3 1 120 11 2 78
747 4 2 3 1 210 64 8 150
748 4 2 3 1 211 151 4 57
749 4 2 3 1 3 14 181 77
750 4 2 3 1 178 5 121 40
751 4 2 3 1 181 49 3 149
752 4 2 3 1 180 148 7 56
753 4 2 3 1 2 209 41 120
754 4 2 3 1 48 6 118 208
755 4 2 3 1 1 33 179 119
756 4 2 3 1 92 24 5 178
757 4 2 3 1 75 4 20 211
758 4 2 3 1 7 27 148 90
759 4 2 3 1 21 5 121 92
760 4 2 3 1 228 214 186 221
761 4 2 3 1 228 79 214 224
762 4 2 3 1 228 214 79 74
763 4 2 3 1 228 107 106 97
764 4 2 3 1 228 106 107 214
765 4 2 3 1 232 101 122 117
766 4 2 3 1 232 122 101 219
767 4 2 3 1 176 90 26 180
768 4 2 3 1 176 26 90 83
769 4 2 3 1 239 182 224 220
770 4 2 3 1 239 224 182 167
771 4 2 3 1 86 118 23 93
772 4 2 3 1 23 118 86 101
773 4 2 3 1 139 239 138 126
774 4 2 3 1 138 239 139 217
775 4 2 3 1 86 117 232 80
776 4 2 3 1 232 117 86 101
777 4 2 3 1 86 219 232 101
778 4 2 3 1 236 108 234 112
779 4 2 3 1 236 234 108 221
780 4 2 3 1 205 73 228 189
781 4 2 3 1 228 73 205 70
782 4 2 3 1 237 213 219 226
783 4 2 3 1 237 219 213 193
784 4 2 3 1 146 91 226 81
785 4 2 3 1 146 226 91 150
786 4 2 3 1 186 228 197 214
787 4 2 3 1 197 228 186 203
788 4 2 3 1 232 86 85 219
789 4 2 3 1 85 86 232 80
$EndElements
