$MeshFormat
2.2 0 8
$EndMeshFormat
$PhysicalNames
3
2 1 "Fixed"
2 2 "Load"
3 3 "Volume"
$EndPhysicalNames
$Nodes
287
1 59.546558861732 -72.47515106744 8.313212576564
2 61.512264674219 -36.14697056331 72.17751639268999
3 68.319496763066 34.049511925457 -52.55165195815
4 68.51563475337301 36.770142185284 -51.80352036673
5 70.46796841747501 72.85119220979 11.62633240302
6 61.659368166949 -34.10649786844 72.73861508624999
7 62.16418846759 -37.5 10
8 62.285450830862 -37.5 0
9 67.821241921843 37.5 10
10 67.94250428511501 37.5 0
11 64.53203158252499 -72.85119220979 8.373667596980001
12 66.497737395012 -36.52301170566 72.237971413105
13 66.64484088774201 -34.48253901079 72.799070106665
14 73.304969483859 33.673470783107 -52.49119693773
15 70 6.257199232028 49.521656410511
16 70 7.5 48.814709212596
17 70.10235201553201 7.5 48.811558877592
18 75.453441138268 72.47515106744 11.686787423436
19 73.501107474165 36.394101042934 -51.74306534632
20 0 -37.5 0
21 0 -37.5 10
22 0 37.5 0
23 0 37.5 10
24 19 -32.5 10
25 21 -32.5 10
26 19 32.5 10
27 21 32.5 10
28 39 -32.5 10
29 41 -32.5 10
30 39 32.5 10
31 41 32.5 10
32 59 -32.5 10
33 61 -32.5 10
34 59 32.5 10
35 61 32.5 10
36 70.572990150709 7.5 10
37 72.83581153241001 37.5 10
38 72.957073895683 37.5 0
39 70.694252513981 7.5 4.470695382165e-15
40 70.87614605889 7.5 -15
41 70 -4.115756320513 -15
42 70 -1.70425075875 4.470695382165e-15
43 67.300020441429 -37.5 0
44 67.178758078157 -37.5 10
45 70 -0.09658038424121999 10
46 70 7.5 50
47 70 -7.5 50
48 70 -7.5 10
49 74 7.5 10
50 74 7.5 50
51 19 -32.5 8
52 21 -32.5 8
53 21 32.5 8
54 19 32.5 8
55 39 -32.5 8
56 41 -32.5 8
57 41 32.5 8
58 39 32.5 8
59 59 -32.5 8
60 61 -32.5 8
61 61 32.5 8
62 59 32.5 8
63 80 37.5 10
64 74 -7.5 10
65 80 -37.5 10
66 80 -37.5 0
67 80 37.5 0
68 74 7.5 0
69 74 -7.5 0
70 70 -7.5 0
71 70 -7.5 -15
72 74 7.5 -15
73 74 -7.5 -15
74 74 -7.5 50
75 60.03798531485388 -63.39310594140239 24.27928853059258
76 60.52941176797576 -54.31106081536478 40.24536448462117
77 61.02083822109764 -45.22901568932716 56.21144043864977
78 66.85734044617723 16.2954014266389 -42.40750786903437
79 65.39518412928813 -1.458709072179204 -32.26336377991875
80 63.93302781239902 -19.21281957099729 -22.11921969080312
81 62.47087149550992 -36.96693006981538 -11.9750756016875
82 61.00871517862081 -54.72104056863348 -1.830931512571873
83 68.43603156518489 35.56382884594693 -52.74246509900637
84 69.00371816939898 45.7904046914197 -35.94605717429774
85 69.49180158542474 54.81066719755122 -20.08859398186307
86 69.97988500145048 63.83092970368271 -4.231130789428448
87 68.99986837572054 55.02491053008283 21.81171285022122
88 67.53176833396606 37.19862885037566 31.99709329742243
89 66.06366829221159 19.37234717066843 42.18247374462368
90 64.59556825045712 1.546065490961269 52.36785419182489
91 63.12746820870264 -16.28021618874584 62.55323463902607
92 61.57196706535967 -35.24223555880619 72.88172494189762
93 63.57845183115288 -18.75000000000002 10
94 64.99271519471604 -1.554312234475219e-14 10
95 66.40697855827921 18.75000000000001 10
96 63.69971419442567 -18.75000000000007 2.715130968373e-15
97 65.11397755798883 -7.549516567451064e-14 2.715130968373e-15
98 66.528240921552 18.74999999999995 2.715130968373e-15
99 65.02345803564687 -63.76914708375251 24.33974355100838
100 65.51488448876874 -54.68710195771503 40.30581950503674
101 66.00631094189062 -45.6050568316775 56.27189545906518
102 66.55743978615267 -35.61827670115618 72.94217996231262
103 71.84281316696926 15.91936028428924 -42.34705284861457
104 70.38065685008019 -1.834750214528562 -32.20290875949911
105 68.91850053319111 -19.58886071334629 -22.0587646703837
106 67.45634421630203 -37.34297121216402 -11.91462058126828
107 65.99418789941295 -55.0970817109819 -1.770476492152781
108 68.88161362924684 -7.322713515586983 57.28079430921324
109 67.76322725849403 -20.90262626319473 65.03993220792812
110 74.11566885758383 56.23136330057825 20.96798028697195
111 72.77789657689964 39.98757553371653 30.24917315050789
112 71.44012429621546 23.74378776685481 39.53036601404384
113 73.42150428597772 35.18778770359454 -52.68201007859702
114 73.98919089019078 45.41436354906605 -35.88560215388416
115 74.47727430621657 54.43462605519819 -20.0281389614484
116 74.96535772224236 63.45488856133035 -4.170675769012604
117 20.76181694362066 -37.5 0
118 41.52363388724133 -37.5 0
119 20.72139615586335 -37.5 10
120 41.44279231172676 -37.5 10
121 16.98562607127874 37.5 0
122 33.9712521425575 37.5 0
123 50.95687821383623 37.5 0
124 0 -18.74999999999998 0
125 0 9.947598300641403e-14 0
126 0 18.75000000000006 0
127 16.95531048046077 37.5 10
128 33.91062096092158 37.5 10
129 50.86593144138231 37.5 10
130 0 -18.74999999999998 10
131 0 9.947598300641403e-14 10
132 0 18.75000000000006 10
133 19 16.24999999999996 10
134 19 -9.237055564881302e-14 10
135 19 -16.25000000000009 10
136 21 -16.24999999999996 10
137 21 9.237055564881302e-14 10
138 21 16.25000000000009 10
139 39 16.24999999999996 10
140 39 -9.237055564881302e-14 10
141 39 -16.25000000000009 10
142 41 -16.24999999999996 10
143 41 9.237055564881302e-14 10
144 41 16.25000000000009 10
145 59 16.24999999999996 10
146 59 -9.237055564881302e-14 10
147 59 -16.25000000000009 10
148 61 -16.24999999999996 10
149 61 9.237055564881302e-14 10
150 61 16.25000000000009 10
151 70.33767108312074 7.5 29.40577943879599
152 71.70440084155958 22.50000000000001 10
153 71.82566320483137 22.50000000000007 4.470695382165e-15
154 68.65001022071441 -19.60212537937498 4.470695382165e-15
155 68.58937903907872 -18.7982901921206 10
156 70 3.080309423901362 29.76082820525428
157 70 -7.5 29.99999999999999
158 74 7.5 29.99999999999999
159 21 -16.24999999999996 8
160 21 9.237055564881302e-14 8
161 21 16.25000000000009 8
162 19 16.24999999999996 8
163 19 -9.237055564881302e-14 8
164 19 -16.25000000000009 8
165 41 -16.24999999999996 8
166 41 9.237055564881302e-14 8
167 41 16.25000000000009 8
168 39 16.24999999999996 8
169 39 -9.237055564881302e-14 8
170 39 -16.25000000000009 8
171 61 -16.24999999999996 8
172 61 9.237055564881302e-14 8
173 61 16.25000000000009 8
174 59 16.24999999999996 8
175 59 -9.237055564881302e-14 8
176 59 -16.25000000000009 8
177 80 -18.74999999999998 10
178 80 9.947598300641403e-14 10
179 80 18.75000000000006 10
180 80 -18.74999999999998 0
181 80 9.947598300641403e-14 0
182 80 18.75000000000006 0
183 74 -7.5 29.99999999999999
184 62.72094230916765 -28.11365739359513 22.47158468645705
185 67.29748024220265 26.95943608190069 -12.37177527090994
186 68.47761340022738 45.50574564231908 5.668972374961776
187 67.96618919185099 31.64542078955491 -38.36973496601738
188 61.85170518651606 -32.909265673989 64.32438581827802
189 62.3177670109241 -28.72589532940793 51.91153501801956
190 61.331163860435 -46.13332355586457 24.99522448730299
191 64.8299904167238 1.455937596700586 32.47542667933962
192 61.08297686593704 -51.49232636700376 12.12820297463639
193 68.96497942241174 50.28562242934356 -4.790368751954972
194 66.05248873529301 10.13576135055445 -14.34882644646169
195 63.35425952425618 -16.88075206137631 40.1152616925372
196 67.02061001975706 28.85589451590264 22.25686802065975
197 61.91628961790545 -36.29456546035929 37.94120194392022
198 68.35437986276669 39.87852128009921 -19.17082468103971
199 63.8905445442661 -12.44994260251863 23.45051357953362
200 67.07669767376474 21.75421885606025 -26.54215109290453
201 64.6847823826333 -7.900248745376238 -13.74704232524021
202 69.22008706081652 55.66182863704178 7.612944431430201
203 61.63533283575461 -45.30334173390946 5.07431786551615
204 65.86279249633854 13.68683585665426 23.38295368892463
205 68.30180150838223 44.84940636939542 16.08489509735732
206 63.402507651503 -24.33706050731556 -10.24314439237853
207 10.370803274871 -37.5 5
208 31.11240982461302 -37.5 5
209 51.85401637435496 -37.5 5.000000000000002
210 48.97595260790028 -8.925900290961124 0
211 26.37549095898753 21.90405759605645 0
212 15.58038916493889 -8.49818800461551 0
213 44.66577741123766 20.20659494721547 0
214 33.48911405258841 2.403168031353466 0
215 14.58910444975651 9.90427977409577 0
216 31.67270800594259 -20.19035096327464 0
217 49.27721683911475 -24.1674728388206 0
218 13.60298282290043 -24.48770779357802 0
219 12.08963252202426 24.86664102178014 0
220 51.86597918303652 6.14045624304562 0
221 8.485234137934878 37.5 5
222 25.45570241380465 37.5 5
223 42.42617068967441 37.5 5
224 59.39663896554428 37.5 5.000000000000005
225 30 -24.37500000000005 10
226 30 24.37500000000004 10
227 49.99999999999999 -24.37500000000005 10
228 49.99999999999999 24.37500000000004 10
229 30.43283769351802 -32.87500000000001 10
230 50.7213961558633 -32.87500000000001 10
231 9.760005676894554 29.78086036549001 10
232 10.40460526315785 -24.37500000000005 10
233 28.30852307040652 32.60307376638542 10
234 29.99999999999999 -8.125 10
235 49.99999999999999 -8.125 10
236 30 8.125000000000014 10
237 50 8.125000000000014 10
238 9.650767543859654 -8.541666666666696 10
239 9.500000000000082 8.124999999999936 10
240 49.08548996967495 31.41771058536619 10
241 67.63282958901517 -29.24699849298291 23.88978083352784
242 72.58222494685752 30.78421399657692 -10.8611762465536
243 68.10656922519087 -18.69164580041644 50.47865369247382
244 73.48846119580467 45.44432517942866 5.593848524297997
245 72.99599394032917 31.83395086680612 -38.45342195845945
246 66.32674140354479 -46.38666774035315 24.98557429912893
247 66.80371433620097 -33.56438749115777 65.40850942243333
248 66.77232543896172 -38.16262828727523 39.39513253416172
249 66.09070096697748 -51.5965827119837 12.04423022888864
250 73.7616946939237 47.16903878190021 -6.210545437991811
251 69.07763366158677 -7.244554896061103 41.6020026907461
252 72.05911515483928 21.77652290036308 -23.7519642458811
253 72.18666936935233 30.64293296692881 20.87984456939851
254 73.3919535088589 39.70933398789121 -22.12024679664026
255 68.85632261202012 -12.66682561540712 26.12509657804078
256 71.64652930727686 18.37390694980137 -10.89262032967276
257 67.86805978726721 -23.93836176695387 37.51200900626706
258 68.28732629791411 -25.85729113441722 -8.999233958982764
259 74.3352674977525 57.0086251426608 7.693307752354137
260 67.10249104055423 -31.69009517054238 52.42808069327038
261 73.3701617462396 45.5308371163045 15.88762928868955
262 71.078145154692 8.314894217176846 -26.58923154122706
263 66.64091684649628 -45.42341610574157 5.068438434183996
264 69.11175607792447 -15.25249836720014 -11.02278454326203
265 71.18358475599976 17.4149117591758 21.31935762130221
266 70 -0.9418994286045557 40.54325049048582
267 0 -9.374999999999936 5
268 0 -28.12499999999999 5
269 0 9.375000000000078 4.999999999999999
270 0 28.12500000000003 4.999999999999999
271 20 -32.5 9
272 20 32.5 9
273 40 -32.5 9
274 40 32.5 9
275 60 -32.5 9
276 60 32.5 9
277 74.13414615957583 -28.13115946328069 10
278 73.61969462989663 -37.5 5.000000000000004
279 73.9875076655359 -28.33803134484375 0
280 76.46306980966895 37.5 5.000000000000004
281 74 0 40
282 74 0 19.99999999999999
283 80 -9.374999999999936 5
284 80 -28.12499999999999 5
285 80 9.375000000000078 5
286 80 28.12500000000003 4.999999999999999
287 74 0 -7.5
$EndNodes
$Elements
817
1 2 2 1 15 20 21 268
2 2 2 1 15 124 20 268
3 2 2 1 15 21 130 268
4 2 2 1 15 23 22 270
5 2 2 1 15 22 126 270
6 2 2 1 15 132 23 270
7 2 2 1 15 125 124 267
8 2 2 1 15 124 130 267
9 2 2 1 15 130 124 268
10 2 2 1 15 126 125 269
11 2 2 1 15 131 125 267
12 2 2 1 15 125 131 269
13 2 2 1 15 132 126 269
14 2 2 1 15 126 132 270
15 2 2 1 15 130 131 267
16 2 2 1 15 131 132 269
17 2 2 2 41 63 286 67
18 2 2 2 41 179 286 63
19 2 2 2 41 66 284 65
20 2 2 2 41 65 284 177
21 2 2 2 41 180 284 66
22 2 2 2 41 67 286 182
23 2 2 2 41 177 283 178
24 2 2 2 41 180 283 177
25 2 2 2 41 177 284 180
26 2 2 2 41 178 285 179
27 2 2 2 41 178 283 181
28 2 2 2 41 181 285 178
29 2 2 2 41 179 285 182
30 2 2 2 41 182 286 179
31 2 2 2 41 181 283 180
32 2 2 2 41 182 285 181
33 4 2 3 1 119 208 229 120
34 4 2 3 1 120 7 209 230
35 4 2 3 1 157 45 156 282
36 4 2 3 1 177 277 284 65
37 4 2 3 1 284 279 180 66
38 4 2 3 1 262 194 200 79
39 4 2 3 1 45 157 48 282
40 4 2 3 1 251 195 90 191
41 4 2 3 1 189 243 195 91
42 4 2 3 1 243 108 195 91
43 4 2 3 1 38 286 280 37
44 4 2 3 1 216 208 117 118
45 4 2 3 1 118 8 217 209
46 4 2 3 1 182 285 68 181
47 4 2 3 1 117 20 207 218
48 4 2 3 1 180 283 181 69
49 4 2 3 1 222 128 127 233
50 4 2 3 1 207 24 21 119
51 4 2 3 1 90 195 108 91
52 4 2 3 1 262 200 78 79
53 4 2 3 1 124 267 212 125
54 4 2 3 1 129 31 128 223
55 4 2 3 1 126 219 22 270
56 4 2 3 1 269 126 215 125
57 4 2 3 1 283 177 178 64
58 4 2 3 1 285 49 178 179
59 4 2 3 1 238 131 267 130
60 4 2 3 1 270 231 23 132
61 4 2 3 1 268 218 20 124
62 4 2 3 1 129 9 34 224
63 4 2 3 1 182 67 153 286
64 4 2 3 1 63 179 152 286
65 4 2 3 1 269 132 131 239
66 4 2 3 1 243 108 251 195
67 4 2 3 1 98 224 123 62
68 4 2 3 1 89 16 90 191
69 4 2 3 1 257 195 184 197
70 4 2 3 1 130 232 21 268
71 4 2 3 1 207 21 24 232
72 4 2 3 1 98 224 10 123
73 4 2 3 1 221 22 121 219
74 4 2 3 1 121 122 222 211
75 4 2 3 1 228 174 98 62
76 4 2 3 1 44 279 277 278
77 4 2 3 1 195 90 108 251
78 4 2 3 1 229 216 208 52
79 4 2 3 1 38 153 286 37
80 4 2 3 1 221 127 23 231
81 4 2 3 1 109 188 6 91
82 4 2 3 1 221 22 219 270
83 4 2 3 1 123 122 213 223
84 4 2 3 1 214 234 170 169
85 4 2 3 1 218 20 207 268
86 4 2 3 1 98 213 228 62
87 4 2 3 1 212 160 214 215
88 4 2 3 1 127 27 222 233
89 4 2 3 1 152 286 153 37
90 4 2 3 1 35 34 9 224
91 4 2 3 1 234 216 212 214
92 4 2 3 1 213 174 98 228
93 4 2 3 1 194 79 41 201
94 4 2 3 1 180 279 284 277
95 4 2 3 1 239 163 238 125
96 4 2 3 1 97 98 173 39
97 4 2 3 1 152 63 286 37
98 4 2 3 1 98 97 194 39
99 4 2 3 1 153 67 38 286
100 4 2 3 1 196 88 89 112
101 4 2 3 1 234 170 216 214
102 4 2 3 1 62 98 213 123
103 4 2 3 1 170 214 169 210
104 4 2 3 1 214 170 216 210
105 4 2 3 1 69 68 287 42
106 4 2 3 1 17 112 151 89
107 4 2 3 1 94 95 204 36
108 4 2 3 1 96 97 176 171
109 4 2 3 1 262 40 194 41
110 4 2 3 1 211 168 214 213
111 4 2 3 1 93 94 171 148
112 4 2 3 1 82 8 203 263
113 4 2 3 1 55 216 208 229
114 4 2 3 1 197 257 195 189
115 4 2 3 1 171 175 97 176
116 4 2 3 1 175 171 97 172
117 4 2 3 1 214 236 161 215
118 4 2 3 1 160 212 163 215
119 4 2 3 1 236 211 214 161
120 4 2 3 1 279 284 277 278
121 4 2 3 1 10 242 185 198
122 4 2 3 1 239 215 163 125
123 4 2 3 1 183 48 282 64
124 4 2 3 1 232 218 207 268
125 4 2 3 1 216 229 225 52
126 4 2 3 1 264 206 96 201
127 4 2 3 1 132 219 162 239
128 4 2 3 1 62 213 228 123
129 4 2 3 1 158 151 49 282
130 4 2 3 1 117 208 216 52
131 4 2 3 1 208 216 55 118
132 4 2 3 1 68 69 45 42
133 4 2 3 1 60 148 33 93
134 4 2 3 1 251 257 243 195
135 4 2 3 1 162 231 219 132
136 4 2 3 1 99 246 190 100
137 4 2 3 1 93 171 60 148
138 4 2 3 1 212 238 267 124
139 4 2 3 1 53 121 222 211
140 4 2 3 1 44 43 279 278
141 4 2 3 1 219 231 221 270
142 4 2 3 1 212 160 234 214
143 4 2 3 1 191 204 89 151
144 4 2 3 1 185 194 256 98
145 4 2 3 1 228 240 62 123
146 4 2 3 1 218 232 164 238
147 4 2 3 1 220 174 98 213
148 4 2 3 1 234 216 159 212
149 4 2 3 1 97 194 287 41
150 4 2 3 1 175 97 176 210
151 4 2 3 1 163 212 238 125
152 4 2 3 1 197 76 248 77
153 4 2 3 1 232 207 21 268
154 4 2 3 1 183 48 157 282
155 4 2 3 1 79 262 194 41
156 4 2 3 1 97 96 176 210
157 4 2 3 1 153 285 68 182
158 4 2 3 1 101 76 248 100
159 4 2 3 1 45 155 255 199
160 4 2 3 1 218 232 238 124
161 4 2 3 1 111 88 87 205
162 4 2 3 1 126 132 269 239
163 4 2 3 1 190 99 100 76
164 4 2 3 1 161 211 214 215
165 4 2 3 1 75 11 192 99
166 4 2 3 1 220 237 167 166
167 4 2 3 1 269 215 126 239
168 4 2 3 1 222 122 233 211
169 4 2 3 1 132 126 219 239
170 4 2 3 1 219 215 162 239
171 4 2 3 1 214 168 211 236
172 4 2 3 1 97 39 173 172
173 4 2 3 1 218 159 216 212
174 4 2 3 1 231 162 133 132
175 4 2 3 1 195 184 199 257
176 4 2 3 1 99 190 75 76
177 4 2 3 1 89 204 196 112
178 4 2 3 1 152 179 285 153
179 4 2 3 1 95 9 61 35
180 4 2 3 1 287 194 40 41
181 4 2 3 1 59 96 8 217
182 4 2 3 1 217 8 59 209
183 4 2 3 1 72 73 287 41
184 4 2 3 1 130 267 238 124
185 4 2 3 1 233 53 222 211
186 4 2 3 1 84 254 198 187
187 4 2 3 1 10 153 38 37
188 4 2 3 1 100 246 190 248
189 4 2 3 1 238 131 239 125
190 4 2 3 1 171 96 42 154
191 4 2 3 1 199 156 94 191
192 4 2 3 1 212 163 215 125
193 4 2 3 1 76 101 248 77
194 4 2 3 1 156 199 45 255
195 4 2 3 1 167 214 220 166
196 4 2 3 1 216 225 159 52
197 4 2 3 1 198 193 10 250
198 4 2 3 1 215 219 126 239
199 4 2 3 1 58 211 122 213
200 4 2 3 1 167 214 168 213
201 4 2 3 1 8 60 96 59
202 4 2 3 1 5 110 202 259
203 4 2 3 1 122 233 226 58
204 4 2 3 1 210 169 170 165
205 4 2 3 1 169 210 166 165
206 4 2 3 1 75 11 1 192
207 4 2 3 1 206 80 105 81
208 4 2 3 1 236 214 160 215
209 4 2 3 1 8 107 43 263
210 4 2 3 1 159 218 164 212
211 4 2 3 1 104 41 80 105
212 4 2 3 1 230 56 217 209
213 4 2 3 1 167 220 214 213
214 4 2 3 1 42 96 201 264
215 4 2 3 1 190 7 241 246
216 4 2 3 1 238 212 267 125
217 4 2 3 1 249 192 11 99
218 4 2 3 1 88 111 112 253
219 4 2 3 1 179 285 153 182
220 4 2 3 1 239 269 215 125
221 4 2 3 1 70 41 42 287
222 4 2 3 1 76 100 190 248
223 4 2 3 1 130 238 232 124
224 4 2 3 1 216 117 52 218
225 4 2 3 1 58 226 211 213
226 4 2 3 1 161 236 160 215
227 4 2 3 1 2 77 188 247
228 4 2 3 1 212 218 164 238
229 4 2 3 1 132 162 133 239
230 4 2 3 1 95 9 196 152
231 4 2 3 1 238 212 218 124
232 4 2 3 1 219 231 270 132
233 4 2 3 1 246 7 241 44
234 4 2 3 1 96 42 201 97
235 4 2 3 1 82 192 1 107
236 4 2 3 1 89 17 16 151
237 4 2 3 1 153 10 152 37
238 4 2 3 1 210 220 214 166
239 4 2 3 1 199 156 45 94
240 4 2 3 1 96 171 42 97
241 4 2 3 1 193 259 244 250
242 4 2 3 1 87 5 110 202
243 4 2 3 1 227 176 59 217
244 4 2 3 1 77 2 12 247
245 4 2 3 1 180 279 277 154
246 4 2 3 1 185 153 10 98
247 4 2 3 1 80 41 79 201
248 4 2 3 1 97 194 39 287
249 4 2 3 1 192 11 1 107
250 4 2 3 1 154 8 258 43
251 4 2 3 1 226 58 168 213
252 4 2 3 1 52 159 216 218
253 4 2 3 1 191 89 16 151
254 4 2 3 1 155 69 283 154
255 4 2 3 1 260 243 189 109
256 4 2 3 1 176 235 210 227
257 4 2 3 1 11 192 249 107
258 4 2 3 1 165 210 235 227
259 4 2 3 1 254 242 185 252
260 4 2 3 1 59 230 217 209
261 4 2 3 1 250 242 198 254
262 4 2 3 1 257 251 255 195
263 4 2 3 1 12 101 77 247
264 4 2 3 1 40 72 68 287
265 4 2 3 1 240 228 213 123
266 4 2 3 1 42 96 264 154
267 4 2 3 1 97 194 41 201
268 4 2 3 1 5 202 86 259
269 4 2 3 1 116 259 193 250
270 4 2 3 1 153 152 10 61
271 4 2 3 1 179 285 49 152
272 4 2 3 1 252 200 254 245
273 4 2 3 1 229 55 216 225
274 4 2 3 1 259 86 18 116
275 4 2 3 1 190 197 76 248
276 4 2 3 1 68 39 40 287
277 4 2 3 1 187 254 198 200
278 4 2 3 1 235 175 176 210
279 4 2 3 1 41 104 80 79
280 4 2 3 1 277 284 180 177
281 4 2 3 1 235 237 220 166
282 4 2 3 1 257 260 243 189
283 4 2 3 1 176 96 59 217
284 4 2 3 1 10 9 152 37
285 4 2 3 1 194 40 39 287
286 4 2 3 1 237 220 175 235
287 4 2 3 1 98 153 10 61
288 4 2 3 1 122 233 211 226
289 4 2 3 1 116 85 193 86
290 4 2 3 1 253 112 196 265
291 4 2 3 1 112 204 196 265
292 4 2 3 1 154 43 60 8
293 4 2 3 1 77 101 248 260
294 4 2 3 1 115 84 254 85
295 4 2 3 1 84 115 254 114
296 4 2 3 1 168 166 214 167
297 4 2 3 1 166 168 214 169
298 4 2 3 1 168 226 211 236
299 4 2 3 1 260 188 247 109
300 4 2 3 1 260 257 248 189
301 4 2 3 1 110 5 18 259
302 4 2 3 1 41 42 287 97
303 4 2 3 1 200 187 254 245
304 4 2 3 1 184 7 241 190
305 4 2 3 1 63 280 286 37
306 4 2 3 1 242 10 38 250
307 4 2 3 1 112 151 204 265
308 4 2 3 1 10 242 198 250
309 4 2 3 1 197 184 241 190
310 4 2 3 1 162 231 54 219
311 4 2 3 1 198 85 254 84
312 4 2 3 1 69 180 283 154
313 4 2 3 1 114 254 84 245
314 4 2 3 1 255 199 184 257
315 4 2 3 1 107 106 8 43
316 4 2 3 1 236 226 211 161
317 4 2 3 1 245 187 14 103
318 4 2 3 1 245 252 200 103
319 4 2 3 1 210 214 169 166
320 4 2 3 1 154 8 60 96
321 4 2 3 1 168 211 226 213
322 4 2 3 1 86 18 5 259
323 4 2 3 1 286 280 67 38
324 4 2 3 1 8 82 107 263
325 4 2 3 1 9 10 152 61
326 4 2 3 1 114 4 19 245
327 4 2 3 1 227 210 176 217
328 4 2 3 1 36 151 265 204
329 4 2 3 1 15 191 90 16
330 4 2 3 1 16 156 191 151
331 4 2 3 1 198 242 185 254
332 4 2 3 1 226 211 122 58
333 4 2 3 1 227 165 210 217
334 4 2 3 1 91 109 243 108
335 4 2 3 1 163 238 134 239
336 4 2 3 1 108 15 251 90
337 4 2 3 1 213 237 174 228
338 4 2 3 1 165 227 56 217
339 4 2 3 1 270 126 219 132
340 4 2 3 1 114 4 245 84
341 4 2 3 1 64 69 283 155
342 4 2 3 1 242 153 10 185
343 4 2 3 1 195 191 255 199
344 4 2 3 1 187 84 254 245
345 4 2 3 1 267 131 238 125
346 4 2 3 1 191 255 251 195
347 4 2 3 1 62 173 98 61
348 4 2 3 1 213 228 240 57
349 4 2 3 1 176 96 60 59
350 4 2 3 1 173 62 98 174
351 4 2 3 1 185 198 254 252
352 4 2 3 1 97 175 220 210
353 4 2 3 1 188 260 189 109
354 4 2 3 1 213 167 237 228
355 4 2 3 1 78 14 3 187
356 4 2 3 1 96 176 60 171
357 4 2 3 1 54 231 221 219
358 4 2 3 1 264 80 206 201
359 4 2 3 1 261 87 111 110
360 4 2 3 1 176 147 235 227
361 4 2 3 1 237 167 144 228
362 4 2 3 1 161 236 226 138
363 4 2 3 1 140 234 236 169
364 4 2 3 1 103 262 78 79
365 4 2 3 1 103 262 79 104
366 4 2 3 1 210 96 176 217
367 4 2 3 1 231 26 133 54
368 4 2 3 1 225 141 170 234
369 4 2 3 1 226 168 139 236
370 4 2 3 1 145 174 237 228
371 4 2 3 1 160 234 236 137
372 4 2 3 1 166 235 237 143
373 4 2 3 1 140 236 139 169
374 4 2 3 1 225 234 159 136
375 4 2 3 1 145 62 228 34
376 4 2 3 1 227 29 142 56
377 4 2 3 1 176 146 235 147
378 4 2 3 1 235 142 165 227
379 4 2 3 1 58 139 30 226
380 4 2 3 1 136 52 225 25
381 4 2 3 1 138 161 236 137
382 4 2 3 1 175 146 237 235
383 4 2 3 1 144 167 237 143
384 4 2 3 1 170 28 225 55
385 4 2 3 1 169 141 140 234
386 4 2 3 1 167 31 228 57
387 4 2 3 1 27 161 53 226
388 4 2 3 1 176 32 227 59
389 4 2 3 1 31 167 228 144
390 4 2 3 1 32 176 227 147
391 4 2 3 1 27 161 226 138
392 4 2 3 1 193 198 85 250
393 4 2 3 1 163 135 134 238
394 4 2 3 1 133 162 231 54
395 4 2 3 1 236 168 139 169
396 4 2 3 1 145 175 237 174
397 4 2 3 1 159 137 234 160
398 4 2 3 1 143 166 235 165
399 4 2 3 1 62 145 228 174
400 4 2 3 1 58 139 226 168
401 4 2 3 1 175 145 237 146
402 4 2 3 1 161 160 236 137
403 4 2 3 1 166 237 167 143
404 4 2 3 1 137 159 234 136
405 4 2 3 1 142 143 235 165
406 4 2 3 1 169 141 234 170
407 4 2 3 1 52 136 225 159
408 4 2 3 1 142 165 227 56
409 4 2 3 1 146 176 235 175
410 4 2 3 1 28 170 225 141
411 4 2 3 1 232 218 268 124
412 4 2 3 1 49 64 282 45
413 4 2 3 1 187 78 14 103
414 4 2 3 1 106 82 8 81
415 4 2 3 1 82 106 8 107
416 4 2 3 1 163 135 238 164
417 4 2 3 1 52 218 51 164
418 4 2 3 1 255 184 241 257
419 4 2 3 1 77 260 189 188
420 4 2 3 1 159 160 234 212
421 4 2 3 1 218 52 159 164
422 4 2 3 1 241 257 197 248
423 4 2 3 1 190 75 192 99
424 4 2 3 1 278 279 284 66
425 4 2 3 1 189 188 109 91
426 4 2 3 1 174 220 237 213
427 4 2 3 1 185 256 194 200
428 4 2 3 1 284 277 278 65
429 4 2 3 1 151 204 89 112
430 4 2 3 1 199 255 195 257
431 4 2 3 1 252 262 200 103
432 4 2 3 1 131 269 239 125
433 4 2 3 1 220 175 174 237
434 4 2 3 1 186 244 38 250
435 4 2 3 1 257 197 248 189
436 4 2 3 1 278 43 279 66
437 4 2 3 1 53 211 161 54
438 4 2 3 1 205 87 111 261
439 4 2 3 1 162 161 211 54
440 4 2 3 1 54 211 162 219
441 4 2 3 1 166 210 235 165
442 4 2 3 1 210 235 220 166
443 4 2 3 1 277 44 278 65
444 4 2 3 1 261 202 244 186
445 4 2 3 1 221 121 54 219
446 4 2 3 1 186 202 244 193
447 4 2 3 1 264 41 201 42
448 4 2 3 1 257 184 241 197
449 4 2 3 1 187 4 84 245
450 4 2 3 1 200 185 256 252
451 4 2 3 1 242 256 185 252
452 4 2 3 1 225 55 216 170
453 4 2 3 1 6 13 247 109
454 4 2 3 1 112 196 88 253
455 4 2 3 1 23 221 231 270
456 4 2 3 1 118 217 56 209
457 4 2 3 1 232 135 164 238
458 4 2 3 1 236 214 168 169
459 4 2 3 1 198 185 200 252
460 4 2 3 1 244 202 259 193
461 4 2 3 1 51 218 207 232
462 4 2 3 1 191 251 15 90
463 4 2 3 1 235 220 175 210
464 4 2 3 1 93 155 60 154
465 4 2 3 1 93 199 184 155
466 4 2 3 1 133 163 134 239
467 4 2 3 1 111 88 205 253
468 4 2 3 1 35 173 61 95
469 4 2 3 1 232 51 218 164
470 4 2 3 1 242 10 153 38
471 4 2 3 1 162 211 215 219
472 4 2 3 1 162 163 133 239
473 4 2 3 1 162 160 215 161
474 4 2 3 1 162 160 163 215
475 4 2 3 1 156 183 282 158
476 4 2 3 1 111 205 261 253
477 4 2 3 1 35 173 95 150
478 4 2 3 1 247 188 6 109
479 4 2 3 1 200 254 198 252
480 4 2 3 1 160 234 214 236
481 4 2 3 1 216 225 234 159
482 4 2 3 1 58 167 213 57
483 4 2 3 1 268 130 232 124
484 4 2 3 1 180 277 177 154
485 4 2 3 1 243 189 109 91
486 4 2 3 1 59 230 227 217
487 4 2 3 1 243 195 257 189
488 4 2 3 1 39 256 40 194
489 4 2 3 1 58 167 168 213
490 4 2 3 1 53 211 226 161
491 4 2 3 1 170 216 225 234
492 4 2 3 1 155 177 277 154
493 4 2 3 1 215 163 162 239
494 4 2 3 1 232 24 51 164
495 4 2 3 1 234 214 236 169
496 4 2 3 1 230 32 7 209
497 4 2 3 1 281 183 156 158
498 4 2 3 1 24 232 135 164
499 4 2 3 1 262 79 104 41
500 4 2 3 1 49 64 181 178
501 4 2 3 1 204 196 265 95
502 4 2 3 1 246 190 7 249
503 4 2 3 1 207 117 218 51
504 4 2 3 1 163 159 212 160
505 4 2 3 1 159 163 212 164
506 4 2 3 1 94 171 149 172
507 4 2 3 1 228 213 167 57
508 4 2 3 1 196 205 88 253
509 4 2 3 1 153 39 98 256
510 4 2 3 1 255 191 251 156
511 4 2 3 1 238 164 212 163
512 4 2 3 1 150 172 94 149
513 4 2 3 1 171 148 94 149
514 4 2 3 1 7 246 249 44
515 4 2 3 1 202 86 259 193
516 4 2 3 1 152 9 253 37
517 4 2 3 1 167 237 220 213
518 4 2 3 1 56 227 230 217
519 4 2 3 1 205 261 253 37
520 4 2 3 1 245 200 187 103
521 4 2 3 1 200 256 194 252
522 4 2 3 1 283 177 64 155
523 4 2 3 1 152 153 98 61
524 4 2 3 1 261 202 259 244
525 4 2 3 1 286 280 63 67
526 4 2 3 1 256 40 194 252
527 4 2 3 1 95 61 98 173
528 4 2 3 1 116 259 86 193
529 4 2 3 1 211 233 53 226
530 4 2 3 1 262 78 200 103
531 4 2 3 1 34 35 276 224
532 4 2 3 1 215 161 211 162
533 4 2 3 1 51 207 24 232
534 4 2 3 1 221 23 22 270
535 4 2 3 1 206 258 8 81
536 4 2 3 1 36 152 95 265
537 4 2 3 1 194 39 256 98
538 4 2 3 1 49 64 45 181
539 4 2 3 1 20 21 207 268
540 4 2 3 1 262 194 40 252
541 4 2 3 1 68 69 181 45
542 4 2 3 1 203 7 249 263
543 4 2 3 1 61 98 152 95
544 4 2 3 1 152 9 196 253
545 4 2 3 1 202 261 205 186
546 4 2 3 1 244 37 261 186
547 4 2 3 1 218 117 52 51
548 4 2 3 1 190 192 7 249
549 4 2 3 1 244 186 193 250
550 4 2 3 1 41 42 97 201
551 4 2 3 1 38 37 244 186
552 4 2 3 1 199 156 191 255
553 4 2 3 1 196 9 205 253
554 4 2 3 1 202 110 261 259
555 4 2 3 1 186 38 10 250
556 4 2 3 1 78 187 200 103
557 4 2 3 1 153 242 256 185
558 4 2 3 1 253 9 205 37
559 4 2 3 1 65 278 284 66
560 4 2 3 1 179 152 286 153
561 4 2 3 1 261 205 87 202
562 4 2 3 1 240 228 31 57
563 4 2 3 1 69 64 48 155
564 4 2 3 1 285 49 68 181
565 4 2 3 1 283 181 69 64
566 4 2 3 1 193 186 10 250
567 4 2 3 1 287 40 72 41
568 4 2 3 1 153 286 179 182
569 4 2 3 1 110 261 87 202
570 4 2 3 1 240 31 129 223
571 4 2 3 1 204 265 36 95
572 4 2 3 1 262 200 194 252
573 4 2 3 1 287 39 97 42
574 4 2 3 1 206 258 105 264
575 4 2 3 1 222 122 128 233
576 4 2 3 1 39 36 98 173
577 4 2 3 1 34 228 240 62
578 4 2 3 1 152 265 196 95
579 4 2 3 1 31 240 57 223
580 4 2 3 1 157 266 281 156
581 4 2 3 1 231 221 127 54
582 4 2 3 1 233 122 128 58
583 4 2 3 1 44 249 7 263
584 4 2 3 1 226 233 30 58
585 4 2 3 1 181 283 178 64
586 4 2 3 1 285 178 49 181
587 4 2 3 1 27 53 233 226
588 4 2 3 1 240 129 123 223
589 4 2 3 1 37 205 261 186
590 4 2 3 1 225 229 25 52
591 4 2 3 1 56 230 120 209
592 4 2 3 1 206 154 258 264
593 4 2 3 1 256 153 185 98
594 4 2 3 1 121 127 221 54
595 4 2 3 1 227 230 29 56
596 4 2 3 1 229 28 55 225
597 4 2 3 1 230 32 59 227
598 4 2 3 1 95 98 36 173
599 4 2 3 1 192 249 82 203
600 4 2 3 1 35 61 276 224
601 4 2 3 1 249 192 7 203
602 4 2 3 1 62 240 129 123
603 4 2 3 1 37 38 10 186
604 4 2 3 1 229 208 119 52
605 4 2 3 1 274 31 57 223
606 4 2 3 1 181 49 68 45
607 4 2 3 1 196 253 265 152
608 4 2 3 1 64 45 181 69
609 4 2 3 1 70 69 287 42
610 4 2 3 1 68 39 287 42
611 4 2 3 1 206 96 154 264
612 4 2 3 1 45 39 68 42
613 4 2 3 1 37 9 205 186
614 4 2 3 1 129 224 62 123
615 4 2 3 1 230 59 32 209
616 4 2 3 1 276 62 34 224
617 4 2 3 1 206 105 80 264
618 4 2 3 1 120 118 56 209
619 4 2 3 1 9 10 61 224
620 4 2 3 1 10 9 37 186
621 4 2 3 1 8 7 59 209
622 4 2 3 1 117 119 208 52
623 4 2 3 1 281 183 157 156
624 4 2 3 1 118 55 208 120
625 4 2 3 1 119 117 207 51
626 4 2 3 1 59 7 32 209
627 4 2 3 1 282 157 183 156
628 4 2 3 1 49 39 68 45
629 4 2 3 1 274 57 58 223
630 4 2 3 1 82 249 192 107
631 4 2 3 1 8 7 203 263
632 4 2 3 1 58 122 128 223
633 4 2 3 1 224 62 34 129
634 4 2 3 1 282 156 158 151
635 4 2 3 1 45 97 39 42
636 4 2 3 1 207 24 119 51
637 4 2 3 1 45 64 282 48
638 4 2 3 1 62 240 34 129
639 4 2 3 1 70 48 69 42
640 4 2 3 1 233 128 30 58
641 4 2 3 1 27 127 222 53
642 4 2 3 1 44 8 43 263
643 4 2 3 1 39 49 36 45
644 4 2 3 1 53 222 27 233
645 4 2 3 1 61 35 9 224
646 4 2 3 1 119 25 229 52
647 4 2 3 1 127 27 272 53
648 4 2 3 1 7 8 44 263
649 4 2 3 1 127 26 231 54
650 4 2 3 1 56 230 29 120
651 4 2 3 1 61 62 276 224
652 4 2 3 1 43 60 8 44
653 4 2 3 1 7 8 60 44
654 4 2 3 1 53 272 127 54
655 4 2 3 1 8 7 60 59
656 4 2 3 1 118 56 55 120
657 4 2 3 1 117 119 52 51
658 4 2 3 1 127 27 26 272
659 4 2 3 1 7 275 59 32
660 4 2 3 1 6 2 188 247
661 4 2 3 1 83 19 14 113
662 4 2 3 1 6 13 12 247
663 4 2 3 1 7 275 60 59
664 4 2 3 1 2 6 12 247
665 4 2 3 1 272 26 127 54
666 4 2 3 1 55 273 28 120
667 4 2 3 1 12 92 102 6
668 4 2 3 1 273 55 56 120
669 4 2 3 1 7 275 32 33
670 4 2 3 1 52 119 271 51
671 4 2 3 1 275 7 60 33
672 4 2 3 1 271 119 24 51
673 4 2 3 1 29 28 273 120
674 4 2 3 1 56 29 273 120
675 4 2 3 1 271 25 119 52
676 4 2 3 1 12 13 6 102
677 4 2 3 1 12 92 6 2
678 4 2 3 1 119 24 25 271
679 4 2 3 1 50 17 15 46
680 4 2 3 1 17 16 15 46
681 4 2 3 1 9 95 61 152
682 4 2 3 1 7 93 60 33
683 4 2 3 1 46 47 15 50
684 4 2 3 1 15 156 191 16
685 4 2 3 1 15 191 156 251
686 4 2 3 1 50 47 281 74
687 4 2 3 1 50 281 47 15
688 4 2 3 1 266 47 281 15
689 4 2 3 1 60 7 155 93
690 4 2 3 1 60 155 7 44
691 4 2 3 1 184 155 7 93
692 4 2 3 1 61 224 98 62
693 4 2 3 1 61 98 224 10
694 4 2 3 1 94 204 45 36
695 4 2 3 1 150 94 173 95
696 4 2 3 1 150 173 94 172
697 4 2 3 1 36 173 94 95
698 4 2 3 1 170 216 56 55
699 4 2 3 1 118 216 56 217
700 4 2 3 1 118 56 216 55
701 4 2 3 1 56 170 217 216
702 4 2 3 1 56 217 170 165
703 4 2 3 1 210 217 170 216
704 4 2 3 1 210 170 217 165
705 4 2 3 1 58 223 213 122
706 4 2 3 1 213 223 58 57
707 4 2 3 1 80 41 264 105
708 4 2 3 1 80 264 41 201
709 4 2 3 1 174 172 97 173
710 4 2 3 1 97 98 174 173
711 4 2 3 1 174 98 97 220
712 4 2 3 1 174 175 97 172
713 4 2 3 1 174 97 175 220
714 4 2 3 1 223 213 240 57
715 4 2 3 1 223 240 213 123
716 4 2 3 1 152 98 36 95
717 4 2 3 1 73 41 69 287
718 4 2 3 1 73 69 41 71
719 4 2 3 1 70 69 41 287
720 4 2 3 1 70 41 69 71
721 4 2 3 1 121 54 211 53
722 4 2 3 1 121 211 54 219
723 4 2 3 1 39 36 153 98
724 4 2 3 1 152 153 36 98
725 4 2 3 1 263 82 249 203
726 4 2 3 1 263 249 82 107
727 4 2 3 1 248 189 77 260
728 4 2 3 1 77 189 248 197
729 4 2 3 1 45 69 48 42
730 4 2 3 1 45 48 69 64
731 4 2 3 1 7 241 155 184
732 4 2 3 1 7 155 241 44
733 4 2 3 1 77 247 260 188
734 4 2 3 1 260 247 77 101
735 4 2 3 1 190 248 241 197
736 4 2 3 1 241 248 190 246
737 4 2 3 1 250 85 116 115
738 4 2 3 1 250 116 85 193
739 4 2 3 1 184 255 155 199
740 4 2 3 1 155 255 184 241
741 4 2 3 1 94 45 39 36
742 4 2 3 1 81 258 105 206
743 4 2 3 1 105 258 81 106
744 4 2 3 1 85 254 250 198
745 4 2 3 1 250 254 85 115
746 4 2 3 1 154 177 283 155
747 4 2 3 1 154 283 177 180
748 4 2 3 1 30 31 223 128
749 4 2 3 1 223 31 30 274
750 4 2 3 1 223 58 30 128
751 4 2 3 1 30 58 223 274
752 4 2 3 1 229 55 120 208
753 4 2 3 1 229 120 55 28
754 4 2 3 1 93 154 171 155
755 4 2 3 1 281 74 157 183
756 4 2 3 1 190 249 99 192
757 4 2 3 1 99 249 190 246
758 4 2 3 1 127 53 121 222
759 4 2 3 1 121 53 127 54
760 4 2 3 1 206 154 8 258
761 4 2 3 1 206 8 154 96
762 4 2 3 1 106 8 258 81
763 4 2 3 1 258 8 106 43
764 4 2 3 1 83 4 14 19
765 4 2 3 1 83 14 4 3
766 4 2 3 1 245 14 4 19
767 4 2 3 1 156 281 15 266
768 4 2 3 1 279 154 44 277
769 4 2 3 1 155 154 44 60
770 4 2 3 1 155 44 154 277
771 4 2 3 1 156 45 151 282
772 4 2 3 1 36 45 151 204
773 4 2 3 1 154 155 42 171
774 4 2 3 1 39 49 153 36
775 4 2 3 1 152 153 49 36
776 4 2 3 1 152 49 153 285
777 4 2 3 1 153 68 49 39
778 4 2 3 1 49 68 153 285
779 4 2 3 1 151 156 17 16
780 4 2 3 1 15 17 156 16
781 4 2 3 1 199 93 45 155
782 4 2 3 1 199 45 93 94
783 4 2 3 1 171 45 93 155
784 4 2 3 1 171 93 45 94
785 4 2 3 1 151 45 94 204
786 4 2 3 1 94 45 151 156
787 4 2 3 1 94 191 151 204
788 4 2 3 1 151 191 94 156
789 4 2 3 1 14 187 4 3
790 4 2 3 1 14 4 187 245
791 4 2 3 1 47 281 157 266
792 4 2 3 1 47 157 281 74
793 4 2 3 1 173 94 39 36
794 4 2 3 1 173 39 94 172
795 4 2 3 1 154 171 60 93
796 4 2 3 1 154 60 171 96
797 4 2 3 1 154 44 43 279
798 4 2 3 1 154 43 44 60
799 4 2 3 1 45 151 49 36
800 4 2 3 1 45 49 151 282
801 4 2 3 1 94 171 97 45
802 4 2 3 1 97 171 94 172
803 4 2 3 1 97 39 94 45
804 4 2 3 1 94 39 97 172
805 4 2 3 1 48 42 154 155
806 4 2 3 1 154 42 48 70
807 4 2 3 1 154 69 48 155
808 4 2 3 1 48 69 154 70
809 4 2 3 1 97 42 155 171
810 4 2 3 1 155 45 97 171
811 4 2 3 1 156 17 158 151
812 4 2 3 1 156 15 50 17
813 4 2 3 1 50 15 156 281
814 4 2 3 1 50 158 156 17
815 4 2 3 1 156 158 50 281
816 4 2 3 1 155 45 42 97
817 4 2 3 1 155 42 45 48
$EndElements
