$MeshFormat
2.2 0 8
$EndMeshFormat
$PhysicalNames
3
2 1 "Fixed"
2 2 "Load"
3 3 "Volume"
$EndPhysicalNames
$Nodes
367
1 0 -45 80
2 1.028425871376e-35 -54.5 80
3 100 -54.5 80
4 100 -45 80
5 87 -45 80
6 87 -41 80
7 77 -41 80
8 77 -45 80
9 40.296 54.2 80
10 25 54.2 80
11 25 -45 80
12 1.665334536938e-16 -54.5 -80
13 0 -45 -80
14 0.5 -55 79.5
15 99.5 -55 79.5
16 25 -45 -80
17 100 -45 -80
18 100 -54.5 -80
19 25 54.2 -80
20 87 -45 -80
21 39.2 55 79.2
22 40.277607105434 54.249710525855 79.95028947414499
23 25.8 55 79.2
24 87 -41 -80
25 40.277607105434 54.249710525855 -79.95028947414001
26 40.296 54.2 -80
27 77 -45 -80
28 77 -41 -80
29 0.5 -55 -79.5
30 99.5 -55 -79.5
31 25.8 55 -79.2
32 39.2 55 -79.2
33 19.99999999999997 -54.5 80
34 39.99999999999989 -54.5 80
35 59.99999999999991 -54.5 80
36 79.99999999999996 -54.5 80
37 69.65919999999944 -25.16000000000022 80
38 62.3183999999989 -5.320000000000462 80
39 54.97759999999835 14.51999999999931 80
40 47.63679999999782 34.35999999999905 80
41 25 34.35999999999998 80
42 25 14.51999999999996 80
43 25 -5.320000000000036 80
44 25 -25.16000000000001 80
45 12.50000000000003 -45 80
46 0 -54.5 59.99999999999997
47 0 -54.5 39.99999999999991
48 0 -54.5 19.99999999999992
49 0 -54.5 -5.684341886080801e-14
50 0 -54.5 -20.00000000000006
51 0 -54.5 -40.00000000000004
52 0 -54.5 -60.00000000000003
53 0 -45 59.99999999999997
54 0 -45 39.99999999999991
55 0 -45 19.99999999999992
56 0 -45 -5.684341886080801e-14
57 0 -45 -20.00000000000006
58 0 -45 -40.00000000000004
59 0 -45 -60.00000000000003
60 20.29999999999996 -55 79.5
61 40.09999999999997 -55 79.5
62 59.89999999999998 -55 79.5
63 79.7 -55 79.5
64 25 -45 59.99999999999997
65 25 -45 39.99999999999991
66 25 -45 19.99999999999992
67 25 -45 -5.684341886080801e-14
68 25 -45 -20.00000000000006
69 25 -45 -40.00000000000004
70 25 -45 -60.00000000000003
71 12.50000000000003 -45 -80
72 100 -45 -59.99999999999997
73 100 -45 -39.99999999999991
74 100 -45 -19.99999999999992
75 100 -45 5.684341886080801e-14
76 100 -45 20.00000000000006
77 100 -45 40.00000000000004
78 100 -45 60.00000000000003
79 100 -54.5 -59.99999999999997
80 100 -54.5 -39.99999999999991
81 100 -54.5 -19.99999999999992
82 100 -54.5 5.684341886080801e-14
83 100 -54.5 20.00000000000006
84 100 -54.5 40.00000000000004
85 100 -54.5 60.00000000000003
86 25 34.35999999999998 -80
87 25 14.51999999999996 -80
88 25 -5.320000000000036 -80
89 25 -25.16000000000001 -80
90 25 54.2 -59.99999999999997
91 25 54.2 -39.99999999999991
92 25 54.2 -19.99999999999992
93 25 54.2 5.684341886080801e-14
94 25 54.2 20.00000000000006
95 25 54.2 40.00000000000004
96 25 54.2 60.00000000000003
97 87 -45 -59.99999999999997
98 87 -45 -39.99999999999991
99 87 -45 -19.99999999999992
100 87 -45 5.684341886080801e-14
101 87 -45 20.00000000000006
102 87 -45 40.00000000000004
103 87 -45 60.00000000000003
104 87 -41 -59.99999999999997
105 87 -41 -39.99999999999991
106 87 -41 -19.99999999999992
107 87 -41 5.684341886080801e-14
108 87 -41 20.00000000000006
109 87 -41 40.00000000000004
110 87 -41 60.00000000000003
111 40.277607105434 54.249710525855 -59.9627171056044
112 40.277607105434 54.249710525855 -39.9751447370688
113 40.277607105434 54.249710525855 -19.98757236853319
114 40.277607105434 54.249710525855 2.415845301584341e-12
115 40.277607105434 54.249710525855 19.98757236853811
116 40.277607105434 54.249710525855 39.9751447370738
117 40.277607105434 54.249710525855 59.96271710560941
118 69.65919999999944 -25.16000000000022 -80
119 62.3183999999989 -5.320000000000462 -80
120 54.97759999999835 14.51999999999931 -80
121 47.63679999999782 34.35999999999905 -80
122 77 -45 -59.99999999999997
123 77 -45 -39.99999999999991
124 77 -45 -19.99999999999992
125 77 -45 5.684341886080801e-14
126 77 -45 20.00000000000006
127 77 -45 40.00000000000004
128 77 -45 60.00000000000003
129 77 -41 -59.99999999999997
130 77 -41 -39.99999999999991
131 77 -41 -19.99999999999992
132 77 -41 5.684341886080801e-14
133 77 -41 20.00000000000006
134 77 -41 40.00000000000004
135 77 -41 60.00000000000003
136 0.5 -55 59.62499999999996
137 0.5 -55 39.7499999999999
138 0.5 -55 19.8749999999999
139 0.5 -55 -7.105427357601002e-14
140 0.5 -55 -19.87500000000006
141 0.5 -55 -39.75000000000004
142 0.5 -55 -59.62500000000003
143 19.99999999999997 -54.5 -80
144 39.99999999999989 -54.5 -80
145 59.99999999999991 -54.5 -80
146 79.99999999999996 -54.5 -80
147 99.5 -55 -59.62499999999996
148 99.5 -55 -39.7499999999999
149 99.5 -55 -19.8749999999999
150 99.5 -55 7.105427357601002e-14
151 99.5 -55 19.87500000000006
152 99.5 -55 39.75000000000004
153 99.5 -55 59.62500000000003
154 20.29999999999996 -55 -79.5
155 40.09999999999997 -55 -79.5
156 59.89999999999998 -55 -79.5
157 79.7 -55 -79.5
158 25.8 55 -59.40000000000003
159 25.8 55 -39.60000000000004
160 25.8 55 -19.8000000000001
161 25.8 55 -1.4210854715202e-13
162 25.8 55 19.79999999999993
163 25.8 55 39.60000000000001
164 25.8 55 59.40000000000001
165 39.2 55 -59.40000000000003
166 39.2 55 -39.60000000000004
167 39.2 55 -19.8000000000001
168 39.2 55 -1.4210854715202e-13
169 39.2 55 19.79999999999993
170 39.2 55 39.60000000000001
171 39.2 55 59.40000000000001
172 38.23956050098839 -35.08 80
173 40.71510873873073 -16.1995778498998 80
174 91.74999999999999 -49.75 80
175 61.55906867944041 -39.32200305938925 80
176 41.59452532035152 2.772589548148016 80
177 39.16950361719233 20.1481390783064 80
178 53.62690092262721 -27.49190812266381 80
179 8.125 -49.75 80
180 33.31680466472127 44.27999999999982 80
181 49.63841372343735 -43.42966437232971 80
182 0 -49.75 -70
183 0 -49.75 -10.00000000000006
184 0 -49.75 -50.00000000000003
185 0 -49.75 9.999999999999932
186 0 -49.75 69.99999999999999
187 0 -49.75 49.99999999999995
188 0 -49.75 -30.00000000000005
189 0 -49.75 29.99999999999992
190 12.5 -45 -10.00000000000006
191 12.5 -45 -50.00000000000004
192 12.5 -45 49.99999999999995
193 12.5 -45 29.99999999999991
194 12.5 -45 9.999999999999931
195 12.5 -45 -30.00000000000005
196 12.5 -45 -67.69345238095238
197 12.5 -45 67.69345238095237
198 100 -49.75 70.00000000000001
199 100 -49.75 10.00000000000006
200 100 -49.75 30.00000000000005
201 100 -49.75 50.00000000000004
202 100 -49.75 -69.99999999999999
203 100 -49.75 -49.99999999999995
204 100 -49.75 -9.999999999999932
205 100 -49.75 -29.99999999999991
206 25 5.567454390800343 -63.82675140300411
207 25 5.560896906716195 63.82843759837328
208 25 -27.6798029068528 10.00518488002839
209 25 36.87949192431125 -9.999999999999932
210 25 37.82297117481943 29.14152096349536
211 25 -27.64693858657239 -29.98091050615111
212 25 35.10033821080977 -48.63528513104144
213 25 -28.24643672596973 49.88985830011623
214 25 -27.77978541653744 29.9844988387363
215 25 -10.386121405921 20.00766330127026
216 25 -10.35746224620274 0.01735376710205355
217 25 6.946727867550059 10.02687743902649
218 25 6.559364805955582 31.58890959253192
219 25 6.962039949970446 -9.957135345495242
220 25 -10.33926300517922 -19.96726208642299
221 25 6.575909596863873 -31.53581246286251
222 25 -12.13192474683603 -40.67471428386823
223 25 -28.11809594040302 -49.94300874568214
224 25 -27.67057779080118 -9.987605657573964
225 25 -12.28312124563168 40.67391469462172
226 25 37.51931297403003 -28.88364153476962
227 25 37.12867984127038 9.97389148225481
228 25 35.23979750565145 48.5258833751104
229 25 23.81363222684445 -63.91295541688652
230 25 -13.62409876441357 61.27660764163929
231 25 23.7353138229823 63.74840111910063
232 25 -13.57788679893564 -61.28088100419851
233 25 15.72555134475458 -48.64312319865057
234 25 15.73663732473695 48.61883453655561
235 25 22.20641795449071 19.26449904615753
236 25 21.9107700273174 0.04633087815322871
237 25 22.11284486299321 -19.17723638637173
238 25 -30.34907023385341 -65.30691767198259
239 25 -30.37448718309463 65.33213128562986
240 25 39.57448718309463 -65.33213128562986
241 25 39.57448718309466 65.33213128562991
242 25 22.82954470546625 -34.7331598532563
243 25 23.51303775313083 35.42792950277017
244 25 0.4544568970848175 49.2119116127341
245 25 0.4664289377427266 -49.21477492485258
246 93.5 -45 -49.99999999999994
247 93.5 -45 -69.99999999999999
248 93.5 -45 -29.99999999999992
249 93.5 -45 10.00000000000006
250 93.5 -45 -9.999999999999931
251 93.5 -45 30.00000000000005
252 93.5 -45 50.00000000000004
253 93.5 -45 70.00000000000001
254 46.73044948489999 36.80959598674971 9.626730489940112
255 58.64799999999863 4.599999999999426 -61.67966407294892
256 71.27466981771414 -29.52613464247198 30.49446124520681
257 71.27434049190505 -29.5252445727177 -8.614553352673429
258 58.73839150724908 4.355698629052263 61.92391631739542
259 46.71376666816502 36.85468468062801 -28.50075930500761
260 45.25499039388592 40.79732325976036 50.39238285436998
261 70.98962986058453 -28.7557563799596 -49.99999999999995
262 43.54733423745005 45.41261016904612 69.95650328987719
263 66.16346954079432 -15.71207983998719 60.02626772838364
264 61.84213178158276 -4.032788598875854 42.74620533208019
265 55.48892248148664 13.1380473473284 43.19868750211909
266 58.60590478284708 4.71377085716577 25.65927078221032
267 51.96962391011465 22.6496651077924 26.18764389474171
268 55.2850326042368 13.6891010696252 8.547652744367443
269 61.56238404644238 -3.276713639037048 6.41858315265445
270 58.41524658569936 5.229063281889282 -9.448524563003955
271 51.0626683632883 25.10089631543097 -9.305011286074214
272 54.48883897825814 15.8409757344322 -27.29005312654071
273 61.56837685968871 -3.292910431594727 -27.93126385690071
274 51.36775985796687 24.27632470819167 -45.40427808104351
275 71.39120387290339 -29.84109154838883 11.31201705004326
276 69.54469897554252 -24.85053777173826 -29.14013521082967
277 50.82740073647221 25.73675476628522 60.79766475153844
278 66.26762478615906 -15.9935805031351 -63.64710069627102
279 71.73914629588066 -30.78147647535435 49.27495883495272
280 45.67021511476221 39.67509428441913 30.52502235593821
281 50.61040748589679 26.3232230110836 -64.44891772697869
282 58.0373360965182 6.250442982378821 -41.3872933325146
283 65.37777909154634 -13.58859213931716 23.19339251358236
284 64.17594442974861 -10.34039035067492 -45.63090952824414
285 64.86684082994063 -12.20767791876131 -12.80392174109462
286 45.5355913704816 40.03894224193427 -51.37418761278958
287 43.9663999999991 44.27999999999473 -69.95330872103452
288 44.94962202619833 41.62264317242946 -9.736312119743326
289 71.96539644559792 -31.39296336648204 65.46306394188591
290 71.87681406969421 -31.15355153971528 -65.57173257953809
291 66.83421143923222 -17.52489578171108 2.130392215617367
292 49.84223052734433 28.3993769531171 42.22028027174149
293 67.25536655807964 -18.66315285967697 40.53316875945438
294 82 -41 10.00000000000006
295 82 -41 -49.99999999999994
296 82 -41 30.00000000000005
297 82 -41 50.00000000000003
298 82 -41 -69.99999999999999
299 82 -41 -9.999999999999932
300 82 -41 70.00000000000001
301 82 -41 -29.99999999999992
302 38.23956050098839 -35.08 -80
303 40.71510873873073 -16.1995778498998 -80
304 91.74999999999999 -49.75 -80
305 61.55906867944041 -39.32200305938925 -80
306 41.59452532035152 2.772589548148016 -80
307 39.16950361719233 20.1481390783064 -80
308 53.62690092262721 -27.49190812266381 -80
309 8.125 -49.75 -80
310 33.31680466472127 44.2799999999998 -80
311 49.63841372343735 -43.42966437232971 -80
312 49.04043862854188 -55 -63.37398908805694
313 49.04171933395753 -55 63.37453035854006
314 82.28834627415952 -55 9.936766055034138
315 17.7122549002157 -55 -9.937500000000064
316 82.27954768755184 -55 -29.80535917706544
317 16.81279100766304 -55 28.95080294510819
318 82.83608961265159 -55 49.57311010748226
319 19.52744595225986 -55 -48.32007081220777
320 82.38137645457138 -55 29.79331269375276
321 65.09580532475066 -55 19.87192941306311
322 65.08053007722242 -55 0.002108504027794685
323 47.87102220659863 -55 9.940280219796065
324 47.86902401211535 -55 -9.927245465150399
325 48.10819491150791 -55 31.35004935637933
326 66.90098320663816 -55 40.37889827389674
327 65.07428764607653 -55 -19.86553675369374
328 48.10327485065605 -55 -31.33803852856127
329 66.78132668726748 -55 -40.39501806904363
330 82.75933908418824 -55 -49.63477163231159
331 82.28711861416838 -55 -9.934503561949512
332 17.11761587920893 -55 -28.71660541326695
333 19.39788199719009 -55 48.20005313608281
334 17.70939233098028 -55 9.942458115355867
335 68.21095694192007 -55 60.86355654741075
336 30.82067956324773 -55 -63.48258922396306
337 30.80543061569519 -55 63.46914685786891
338 68.18093518653055 -55 -60.87287464399959
339 38.88383680817679 -55 -48.30904502456295
340 38.85960553396898 -55 48.29147797441954
341 32.4925324318885 -55 19.12769628993675
342 32.78949000760719 -55 0.008034115668952398
343 32.54393994332094 -55 -19.07848258117591
344 84.94624006148349 -55 -64.92630141974203
345 15.04219577829591 -55 -64.93782194162219
346 84.95780422170408 -55 64.93782194162219
347 15.04219577829595 -55 64.93782194162213
348 31.55828849528542 -55 -34.71387908480478
349 31.66430412697394 -55 34.5745529873121
350 54.13920184423277 -55 -48.78004229884293
351 54.14010221848926 -55 48.78053515033406
352 32.5 55 29.69999999999997
353 32.5 55 9.899999999999892
354 32.5 55 69.3
355 32.5 55 49.50000000000001
356 32.5 55 -49.50000000000003
357 32.5 55 -69.30000000000001
358 32.5 55 -9.900000000000119
359 32.5 55 -29.70000000000007
360 48.28534947244384 -32.36216069391598 54.92274155884424
361 48.11228981311134 -32.07267700005075 20.8013989458516
362 47.95474648934658 -32.11475549595737 -41.15482699493186
363 48.24105008223381 -31.47053254220911 -16.68224502402031
364 47.15614202271875 -24.10207059156604 3.484099210195611
365 47.36633190170367 -34.57586564858771 -61.57044309119166
366 45.6025221883658 -18.89361955200873 37.98827680400849
367 43.51918244336866 -10.05553841301851 -51.1742329649347
$EndNodes
$Elements
1135
1 2 2 1 2 2 1 186
2 2 2 1 2 1 53 186
3 2 2 1 2 46 2 186
4 2 2 1 2 13 12 182
5 2 2 1 2 12 52 182
6 2 2 1 2 59 13 182
7 2 2 1 2 47 46 187
8 2 2 1 2 53 46 186
9 2 2 1 2 46 53 187
10 2 2 1 2 48 47 189
11 2 2 1 2 54 47 187
12 2 2 1 2 47 54 189
13 2 2 1 2 49 48 185
14 2 2 1 2 48 55 185
15 2 2 1 2 55 48 189
16 2 2 1 2 50 49 183
17 2 2 1 2 49 56 183
18 2 2 1 2 56 49 185
19 2 2 1 2 51 50 188
20 2 2 1 2 57 50 183
21 2 2 1 2 50 57 188
22 2 2 1 2 52 51 184
23 2 2 1 2 51 58 184
24 2 2 1 2 58 51 188
25 2 2 1 2 52 59 182
26 2 2 1 2 59 52 184
27 2 2 1 2 53 54 187
28 2 2 1 2 54 55 189
29 2 2 1 2 55 56 185
30 2 2 1 2 56 57 183
31 2 2 1 2 57 58 188
32 2 2 1 2 58 59 184
33 2 2 2 5 4 3 198
34 2 2 2 5 3 85 198
35 2 2 2 5 78 4 198
36 2 2 2 5 18 17 202
37 2 2 2 5 17 72 202
38 2 2 2 5 79 18 202
39 2 2 2 5 72 73 203
40 2 2 2 5 72 79 202
41 2 2 2 5 79 72 203
42 2 2 2 5 73 74 205
43 2 2 2 5 73 80 203
44 2 2 2 5 80 73 205
45 2 2 2 5 74 75 204
46 2 2 2 5 81 74 204
47 2 2 2 5 74 81 205
48 2 2 2 5 75 76 199
49 2 2 2 5 82 75 199
50 2 2 2 5 75 82 204
51 2 2 2 5 76 77 200
52 2 2 2 5 76 83 199
53 2 2 2 5 83 76 200
54 2 2 2 5 77 78 201
55 2 2 2 5 77 84 200
56 2 2 2 5 84 77 201
57 2 2 2 5 85 78 198
58 2 2 2 5 78 85 201
59 2 2 2 5 80 79 203
60 2 2 2 5 81 80 205
61 2 2 2 5 82 81 204
62 2 2 2 5 83 82 199
63 2 2 2 5 84 83 200
64 2 2 2 5 85 84 201
65 4 2 3 1 222 273 220 362
66 4 2 3 1 220 362 273 363
67 4 2 3 1 215 364 266 366
68 4 2 3 1 222 220 211 362
69 4 2 3 1 211 362 220 363
70 4 2 3 1 263 360 230 366
71 4 2 3 1 244 258 230 366
72 4 2 3 1 273 362 222 367
73 4 2 3 1 257 363 322 364
74 4 2 3 1 270 220 285 364
75 4 2 3 1 283 266 364 366
76 4 2 3 1 275 257 322 364
77 4 2 3 1 275 322 323 364
78 4 2 3 1 220 363 285 364
79 4 2 3 1 270 216 220 364
80 4 2 3 1 269 266 215 364
81 4 2 3 1 269 216 270 364
82 4 2 3 1 275 323 361 364
83 4 2 3 1 263 230 258 366
84 4 2 3 1 216 220 219 270
85 4 2 3 1 325 360 256 361
86 4 2 3 1 270 220 219 272
87 4 2 3 1 244 264 258 366
88 4 2 3 1 245 206 233 367
89 4 2 3 1 285 220 273 363
90 4 2 3 1 216 219 217 270
91 4 2 3 1 285 220 270 273
92 4 2 3 1 207 244 234 265
93 4 2 3 1 221 220 222 273
94 4 2 3 1 256 326 279 360
95 4 2 3 1 220 221 219 272
96 4 2 3 1 218 265 244 366
97 4 2 3 1 272 270 220 273
98 4 2 3 1 244 207 230 258
99 4 2 3 1 221 273 222 367
100 4 2 3 1 230 263 173 360
101 4 2 3 1 220 221 272 273
102 4 2 3 1 360 361 65 366
103 4 2 3 1 283 266 269 364
104 4 2 3 1 81 149 82 204
105 4 2 3 1 138 49 48 185
106 4 2 3 1 50 183 49 140
107 4 2 3 1 151 199 83 82
108 4 2 3 1 268 269 216 270
109 4 2 3 1 268 216 217 270
110 4 2 3 1 67 323 342 364
111 4 2 3 1 361 364 215 366
112 4 2 3 1 215 266 218 366
113 4 2 3 1 65 360 325 361
114 4 2 3 1 256 361 360 366
115 4 2 3 1 324 342 323 364
116 4 2 3 1 283 364 361 366
117 4 2 3 1 265 218 266 366
118 4 2 3 1 207 244 265 258
119 4 2 3 1 282 273 221 367
120 4 2 3 1 215 217 218 266
121 4 2 3 1 264 244 265 366
122 4 2 3 1 263 230 173 258
123 4 2 3 1 234 207 265 277
124 4 2 3 1 265 244 264 258
125 4 2 3 1 65 340 325 360
126 4 2 3 1 225 218 244 366
127 4 2 3 1 67 361 323 364
128 4 2 3 1 21 354 171 117
129 4 2 3 1 111 165 32 357
130 4 2 3 1 230 207 176 258
131 4 2 3 1 268 217 219 270
132 4 2 3 1 214 65 361 366
133 4 2 3 1 267 218 217 266
134 4 2 3 1 279 293 256 360
135 4 2 3 1 256 360 293 366
136 4 2 3 1 263 258 264 366
137 4 2 3 1 282 272 221 273
138 4 2 3 1 206 255 233 367
139 4 2 3 1 327 329 328 362
140 4 2 3 1 258 265 207 277
141 4 2 3 1 327 362 328 363
142 4 2 3 1 208 361 67 364
143 4 2 3 1 72 203 73 246
144 4 2 3 1 247 17 72 202
145 4 2 3 1 199 75 249 76
146 4 2 3 1 252 201 77 78
147 4 2 3 1 251 200 76 77
148 4 2 3 1 248 73 74 205
149 4 2 3 1 75 250 74 204
150 4 2 3 1 4 78 198 253
151 4 2 3 1 265 266 264 366
152 4 2 3 1 243 292 234 265
153 4 2 3 1 274 282 233 367
154 4 2 3 1 175 313 181 360
155 4 2 3 1 281 233 206 255
156 4 2 3 1 213 360 65 366
157 4 2 3 1 235 218 217 267
158 4 2 3 1 68 348 69 362
159 4 2 3 1 234 218 243 265
160 4 2 3 1 229 233 206 281
161 4 2 3 1 348 68 328 362
162 4 2 3 1 175 335 313 360
163 4 2 3 1 244 218 234 265
164 4 2 3 1 325 349 65 361
165 4 2 3 1 327 276 329 362
166 4 2 3 1 230 176 173 258
167 4 2 3 1 276 362 327 363
168 4 2 3 1 244 230 225 366
169 4 2 3 1 268 267 217 266
170 4 2 3 1 243 292 265 267
171 4 2 3 1 325 256 321 361
172 4 2 3 1 214 213 65 366
173 4 2 3 1 289 335 175 360
174 4 2 3 1 208 66 67 361
175 4 2 3 1 150 199 151 82
176 4 2 3 1 82 149 150 204
177 4 2 3 1 183 139 49 140
178 4 2 3 1 138 139 49 185
179 4 2 3 1 325 256 326 321
180 4 2 3 1 219 221 237 272
181 4 2 3 1 65 349 66 361
182 4 2 3 1 66 323 67 361
183 4 2 3 1 322 323 321 275
184 4 2 3 1 236 217 219 268
185 4 2 3 1 325 340 351 360
186 4 2 3 1 265 218 243 267
187 4 2 3 1 67 363 224 364
188 4 2 3 1 68 69 211 362
189 4 2 3 1 327 322 257 363
190 4 2 3 1 68 362 211 363
191 4 2 3 1 256 127 279 326
192 4 2 3 1 207 234 231 277
193 4 2 3 1 274 221 233 282
194 4 2 3 1 68 328 362 363
195 4 2 3 1 225 215 218 366
196 4 2 3 1 321 275 323 361
197 4 2 3 1 177 176 207 277
198 4 2 3 1 271 270 219 272
199 4 2 3 1 219 236 268 271
200 4 2 3 1 172 181 313 360
201 4 2 3 1 271 219 237 272
202 4 2 3 1 327 324 322 363
203 4 2 3 1 65 349 325 340
204 4 2 3 1 224 363 220 364
205 4 2 3 1 291 257 275 364
206 4 2 3 1 307 206 306 281
207 4 2 3 1 273 362 276 363
208 4 2 3 1 258 207 176 277
209 4 2 3 1 207 231 177 277
210 4 2 3 1 267 265 218 266
211 4 2 3 1 270 219 268 271
212 4 2 3 1 65 66 214 361
213 4 2 3 1 221 233 242 274
214 4 2 3 1 255 274 233 367
215 4 2 3 1 273 284 362 367
216 4 2 3 1 70 223 339 365
217 4 2 3 1 230 360 213 366
218 4 2 3 1 23 354 96 164
219 4 2 3 1 257 125 275 322
220 4 2 3 1 229 206 307 281
221 4 2 3 1 217 236 235 268
222 4 2 3 1 31 158 90 357
223 4 2 3 1 267 217 235 268
224 4 2 3 1 221 242 237 272
225 4 2 3 1 279 128 289 360
226 4 2 3 1 350 362 261 365
227 4 2 3 1 70 69 339 223
228 4 2 3 1 214 361 215 366
229 4 2 3 1 255 282 274 367
230 4 2 3 1 341 67 66 323
231 4 2 3 1 116 170 355 171
232 4 2 3 1 223 362 339 365
233 4 2 3 1 215 361 208 364
234 4 2 3 1 274 272 221 282
235 4 2 3 1 343 328 68 363
236 4 2 3 1 281 274 233 255
237 4 2 3 1 235 243 218 267
238 4 2 3 1 221 222 245 367
239 4 2 3 1 261 350 329 362
240 4 2 3 1 265 292 234 277
241 4 2 3 1 69 339 223 362
242 4 2 3 1 126 321 256 361
243 4 2 3 1 68 224 67 363
244 4 2 3 1 66 341 323 361
245 4 2 3 1 279 335 128 360
246 4 2 3 1 272 221 242 274
247 4 2 3 1 254 235 236 268
248 4 2 3 1 122 261 290 365
249 4 2 3 1 66 341 325 349
250 4 2 3 1 348 68 343 328
251 4 2 3 1 349 325 66 361
252 4 2 3 1 312 338 305 365
253 4 2 3 1 329 350 261 122
254 4 2 3 1 259 237 242 272
255 4 2 3 1 126 256 275 361
256 4 2 3 1 208 215 214 361
257 4 2 3 1 67 341 342 323
258 4 2 3 1 220 224 211 363
259 4 2 3 1 284 365 362 367
260 4 2 3 1 343 324 67 342
261 4 2 3 1 208 67 224 364
262 4 2 3 1 311 312 305 365
263 4 2 3 1 281 206 306 255
264 4 2 3 1 65 64 340 360
265 4 2 3 1 303 365 278 367
266 4 2 3 1 128 335 289 360
267 4 2 3 1 112 165 356 166
268 4 2 3 1 278 365 284 367
269 4 2 3 1 234 292 228 277
270 4 2 3 1 123 329 276 362
271 4 2 3 1 65 213 64 360
272 4 2 3 1 126 275 321 361
273 4 2 3 1 216 224 220 364
274 4 2 3 1 206 232 306 367
275 4 2 3 1 243 235 210 280
276 4 2 3 1 239 172 64 360
277 4 2 3 1 230 173 239 360
278 4 2 3 1 335 351 313 360
279 4 2 3 1 312 311 155 365
280 4 2 3 1 66 325 341 361
281 4 2 3 1 236 219 237 271
282 4 2 3 1 1 197 186 53
283 4 2 3 1 13 182 196 59
284 4 2 3 1 340 337 313 360
285 4 2 3 1 263 178 173 360
286 4 2 3 1 124 276 327 363
287 4 2 3 1 225 230 213 366
288 4 2 3 1 181 178 175 360
289 4 2 3 1 228 231 234 277
290 4 2 3 1 243 235 280 267
291 4 2 3 1 206 306 255 367
292 4 2 3 1 243 292 228 234
293 4 2 3 1 338 350 329 122
294 4 2 3 1 273 284 276 362
295 4 2 3 1 64 337 340 360
296 4 2 3 1 173 172 239 360
297 4 2 3 1 200 151 83 152
298 4 2 3 1 81 149 205 148
299 4 2 3 1 126 256 321 127
300 4 2 3 1 232 223 238 365
301 4 2 3 1 256 326 321 127
302 4 2 3 1 232 223 365 367
303 4 2 3 1 285 273 276 363
304 4 2 3 1 269 270 285 364
305 4 2 3 1 303 232 365 367
306 4 2 3 1 48 189 137 138
307 4 2 3 1 124 327 257 363
308 4 2 3 1 141 188 50 140
309 4 2 3 1 292 260 228 277
310 4 2 3 1 233 229 212 274
311 4 2 3 1 312 155 336 365
312 4 2 3 1 223 222 211 362
313 4 2 3 1 312 350 338 365
314 4 2 3 1 278 303 308 365
315 4 2 3 1 283 291 361 364
316 4 2 3 1 263 173 38 258
317 4 2 3 1 235 254 267 268
318 4 2 3 1 236 237 209 271
319 4 2 3 1 292 280 243 228
320 4 2 3 1 257 322 327 125
321 4 2 3 1 209 288 236 271
322 4 2 3 1 292 243 280 267
323 4 2 3 1 238 303 232 365
324 4 2 3 1 178 289 175 360
325 4 2 3 1 293 360 263 366
326 4 2 3 1 150 199 314 151
327 4 2 3 1 331 150 149 204
328 4 2 3 1 140 183 139 315
329 4 2 3 1 185 138 139 334
330 4 2 3 1 205 149 316 148
331 4 2 3 1 164 95 163 355
332 4 2 3 1 239 213 230 360
333 4 2 3 1 192 187 53 54
334 4 2 3 1 56 183 57 190
335 4 2 3 1 191 59 184 58
336 4 2 3 1 188 58 57 195
337 4 2 3 1 56 55 185 194
338 4 2 3 1 189 54 193 55
339 4 2 3 1 312 311 305 156
340 4 2 3 1 362 365 223 367
341 4 2 3 1 175 181 313 62
342 4 2 3 1 209 259 288 237
343 4 2 3 1 237 259 271 272
344 4 2 3 1 200 151 152 320
345 4 2 3 1 356 158 91 159
346 4 2 3 1 288 209 236 254
347 4 2 3 1 255 303 278 367
348 4 2 3 1 40 241 231 177
349 4 2 3 1 321 322 275 125
350 4 2 3 1 236 254 268 271
351 4 2 3 1 326 279 335 128
352 4 2 3 1 350 328 329 362
353 4 2 3 1 176 177 39 277
354 4 2 3 1 261 329 123 362
355 4 2 3 1 348 339 69 362
356 4 2 3 1 70 336 302 365
357 4 2 3 1 222 362 223 367
358 4 2 3 1 306 232 303 367
359 4 2 3 1 126 321 275 125
360 4 2 3 1 288 209 237 271
361 4 2 3 1 148 203 147 330
362 4 2 3 1 260 241 231 277
363 4 2 3 1 201 318 152 153
364 4 2 3 1 233 229 274 281
365 4 2 3 1 291 275 361 364
366 4 2 3 1 283 361 256 366
367 4 2 3 1 293 283 256 366
368 4 2 3 1 177 231 40 277
369 4 2 3 1 235 227 210 254
370 4 2 3 1 68 211 224 363
371 4 2 3 1 324 327 328 363
372 4 2 3 1 237 259 288 271
373 4 2 3 1 227 236 209 254
374 4 2 3 1 280 235 210 254
375 4 2 3 1 124 257 276 363
376 4 2 3 1 212 259 226 242
377 4 2 3 1 335 175 313 62
378 4 2 3 1 338 312 305 156
379 4 2 3 1 241 228 260 231
380 4 2 3 1 328 339 348 362
381 4 2 3 1 176 43 207 230
382 4 2 3 1 206 232 88 306
383 4 2 3 1 280 210 243 228
384 4 2 3 1 275 283 291 361
385 4 2 3 1 254 236 288 271
386 4 2 3 1 317 137 189 138
387 4 2 3 1 324 328 343 363
388 4 2 3 1 227 235 236 254
389 4 2 3 1 141 188 140 332
390 4 2 3 1 306 307 281 120
391 4 2 3 1 231 228 260 277
392 4 2 3 1 306 303 255 367
393 4 2 3 1 209 226 259 237
394 4 2 3 1 307 229 240 86
395 4 2 3 1 208 214 66 361
396 4 2 3 1 293 263 264 366
397 4 2 3 1 279 326 127 128
398 4 2 3 1 172 178 181 360
399 4 2 3 1 339 362 350 365
400 4 2 3 1 170 116 210 352
401 4 2 3 1 258 176 39 277
402 4 2 3 1 286 212 229 274
403 4 2 3 1 231 241 41 177
404 4 2 3 1 283 269 291 364
405 4 2 3 1 136 187 333 137
406 4 2 3 1 184 142 319 141
407 4 2 3 1 261 123 276 362
408 4 2 3 1 272 242 259 274
409 4 2 3 1 254 280 235 267
410 4 2 3 1 119 255 303 278
411 4 2 3 1 123 329 261 122
412 4 2 3 1 228 260 355 241
413 4 2 3 1 173 178 172 360
414 4 2 3 1 288 358 113 209
415 4 2 3 1 321 323 325 361
416 4 2 3 1 167 359 166 113
417 4 2 3 1 125 327 257 124
418 4 2 3 1 336 70 339 365
419 4 2 3 1 225 214 215 366
420 4 2 3 1 280 210 116 352
421 4 2 3 1 336 339 312 365
422 4 2 3 1 223 211 69 362
423 4 2 3 1 176 38 173 258
424 4 2 3 1 260 355 116 228
425 4 2 3 1 242 212 259 274
426 4 2 3 1 210 170 352 95
427 4 2 3 1 209 288 358 114
428 4 2 3 1 229 286 274 281
429 4 2 3 1 242 233 212 274
430 4 2 3 1 104 98 105 295
431 4 2 3 1 98 104 97 295
432 4 2 3 1 20 104 24 298
433 4 2 3 1 125 133 126 294
434 4 2 3 1 20 104 298 97
435 4 2 3 1 125 133 294 132
436 4 2 3 1 127 133 296 126
437 4 2 3 1 127 135 128 297
438 4 2 3 1 135 134 297 127
439 4 2 3 1 110 102 103 297
440 4 2 3 1 133 127 296 134
441 4 2 3 1 110 5 6 300
442 4 2 3 1 110 5 300 103
443 4 2 3 1 131 125 299 132
444 4 2 3 1 98 106 105 301
445 4 2 3 1 152 84 201 153
446 4 2 3 1 80 148 203 147
447 4 2 3 1 198 153 15 346
448 4 2 3 1 216 215 208 364
449 4 2 3 1 344 147 30 202
450 4 2 3 1 259 112 212 226
451 4 2 3 1 264 266 283 366
452 4 2 3 1 237 226 259 242
453 4 2 3 1 170 169 115 352
454 4 2 3 1 341 325 323 361
455 4 2 3 1 100 108 107 294
456 4 2 3 1 28 122 298 129
457 4 2 3 1 108 100 101 294
458 4 2 3 1 109 101 102 296
459 4 2 3 1 101 109 108 296
460 4 2 3 1 102 110 109 297
461 4 2 3 1 99 107 106 299
462 4 2 3 1 106 98 99 301
463 4 2 3 1 107 99 100 299
464 4 2 3 1 359 112 259 226
465 4 2 3 1 280 292 260 228
466 4 2 3 1 287 307 121 281
467 4 2 3 1 8 135 7 300
468 4 2 3 1 8 135 300 128
469 4 2 3 1 229 240 286 281
470 4 2 3 1 210 280 116 228
471 4 2 3 1 241 40 41 177
472 4 2 3 1 238 302 303 365
473 4 2 3 1 335 289 175 128
474 4 2 3 1 293 279 263 360
475 4 2 3 1 273 282 284 367
476 4 2 3 1 122 28 298 27
477 4 2 3 1 213 239 64 360
478 4 2 3 1 241 260 262 277
479 4 2 3 1 289 178 263 360
480 4 2 3 1 238 70 302 365
481 4 2 3 1 313 351 340 360
482 4 2 3 1 337 64 11 172
483 4 2 3 1 70 336 16 302
484 4 2 3 1 339 350 312 365
485 4 2 3 1 43 176 173 230
486 4 2 3 1 260 116 280 228
487 4 2 3 1 303 88 232 306
488 4 2 3 1 303 306 255 119
489 4 2 3 1 259 113 359 226
490 4 2 3 1 240 212 286 356
491 4 2 3 1 263 38 173 178
492 4 2 3 1 328 350 339 362
493 4 2 3 1 229 240 212 286
494 4 2 3 1 223 70 238 365
495 4 2 3 1 210 280 115 352
496 4 2 3 1 278 290 261 365
497 4 2 3 1 114 227 254 353
498 4 2 3 1 115 254 227 353
499 4 2 3 1 11 34 337 172
500 4 2 3 1 256 283 275 361
501 4 2 3 1 336 144 16 302
502 4 2 3 1 120 281 306 255
503 4 2 3 1 344 304 247 202
504 4 2 3 1 174 253 198 346
505 4 2 3 1 87 206 307 229
506 4 2 3 1 212 286 112 259
507 4 2 3 1 177 42 231 207
508 4 2 3 1 262 41 180 241
509 4 2 3 1 287 286 240 281
510 4 2 3 1 269 285 291 364
511 4 2 3 1 162 352 163 94
512 4 2 3 1 160 92 159 359
513 4 2 3 1 96 355 171 241
514 4 2 3 1 137 136 187 47
515 4 2 3 1 232 206 245 367
516 4 2 3 1 356 165 240 90
517 4 2 3 1 130 301 131 124
518 4 2 3 1 131 125 124 299
519 4 2 3 1 175 8 335 128
520 4 2 3 1 85 153 15 198
521 4 2 3 1 147 79 30 202
522 4 2 3 1 141 184 142 51
523 4 2 3 1 212 286 356 112
524 4 2 3 1 338 27 305 122
525 4 2 3 1 225 213 214 366
526 4 2 3 1 212 286 259 274
527 4 2 3 1 305 290 308 365
528 4 2 3 1 123 130 295 129
529 4 2 3 1 295 122 123 129
530 4 2 3 1 284 261 276 362
531 4 2 3 1 287 86 240 310
532 4 2 3 1 8 175 289 128
533 4 2 3 1 180 40 41 262
534 4 2 3 1 289 263 279 360
535 4 2 3 1 117 22 21 262
536 4 2 3 1 290 305 27 122
537 4 2 3 1 287 121 86 310
538 4 2 3 1 355 164 96 171
539 4 2 3 1 165 356 158 90
540 4 2 3 1 216 208 224 364
541 4 2 3 1 42 177 176 207
542 4 2 3 1 276 257 285 363
543 4 2 3 1 307 306 206 87
544 4 2 3 1 92 358 93 209
545 4 2 3 1 278 308 290 365
546 4 2 3 1 227 93 94 353
547 4 2 3 1 278 303 119 308
548 4 2 3 1 262 40 41 241
549 4 2 3 1 355 96 228 241
550 4 2 3 1 149 316 248 205
551 4 2 3 1 314 199 150 249
552 4 2 3 1 150 331 250 204
553 4 2 3 1 240 212 356 90
554 4 2 3 1 149 250 331 204
555 4 2 3 1 314 199 249 151
556 4 2 3 1 205 316 248 148
557 4 2 3 1 264 283 293 366
558 4 2 3 1 239 11 64 172
559 4 2 3 1 238 70 16 302
560 4 2 3 1 304 344 30 202
561 4 2 3 1 301 130 123 124
562 4 2 3 1 151 200 251 320
563 4 2 3 1 174 198 15 346
564 4 2 3 1 355 96 95 228
565 4 2 3 1 212 356 90 91
566 4 2 3 1 152 251 200 320
567 4 2 3 1 114 169 168 353
568 4 2 3 1 167 168 358 114
569 4 2 3 1 163 352 170 95
570 4 2 3 1 92 91 359 226
571 4 2 3 1 95 352 210 94
572 4 2 3 1 91 159 359 166
573 4 2 3 1 203 148 246 330
574 4 2 3 1 246 147 203 330
575 4 2 3 1 25 32 287 111
576 4 2 3 1 152 318 201 252
577 4 2 3 1 318 201 252 153
578 4 2 3 1 145 305 311 156
579 4 2 3 1 35 181 175 62
580 4 2 3 1 232 222 223 367
581 4 2 3 1 322 321 314 125
582 4 2 3 1 322 327 125 331
583 4 2 3 1 314 321 126 125
584 4 2 3 1 162 93 161 353
585 4 2 3 1 93 161 358 160
586 4 2 3 1 359 112 113 259
587 4 2 3 1 305 308 311 365
588 4 2 3 1 111 287 240 357
589 4 2 3 1 128 127 297 318
590 4 2 3 1 103 102 318 297
591 4 2 3 1 98 97 330 295
592 4 2 3 1 260 262 117 241
593 4 2 3 1 314 126 294 125
594 4 2 3 1 127 320 126 296
595 4 2 3 1 172 239 44 173
596 4 2 3 1 303 302 238 89
597 4 2 3 1 302 308 303 365
598 4 2 3 1 101 100 314 294
599 4 2 3 1 100 99 331 299
600 4 2 3 1 99 98 316 301
601 4 2 3 1 102 101 320 296
602 4 2 3 1 103 5 300 346
603 4 2 3 1 97 20 344 298
604 4 2 3 1 240 286 287 111
605 4 2 3 1 94 162 169 353
606 4 2 3 1 92 160 358 167
607 4 2 3 1 103 102 252 318
608 4 2 3 1 98 97 246 330
609 4 2 3 1 254 115 114 353
610 4 2 3 1 255 278 284 367
611 4 2 3 1 37 38 263 178
612 4 2 3 1 173 239 44 230
613 4 2 3 1 101 100 249 314
614 4 2 3 1 100 99 250 331
615 4 2 3 1 238 303 89 232
616 4 2 3 1 99 98 248 316
617 4 2 3 1 102 101 251 320
618 4 2 3 1 240 165 111 357
619 4 2 3 1 117 354 171 241
620 4 2 3 1 357 287 240 310
621 4 2 3 1 178 263 37 289
622 4 2 3 1 194 139 315 334
623 4 2 3 1 103 5 346 253
624 4 2 3 1 97 20 247 344
625 4 2 3 1 88 206 306 87
626 4 2 3 1 315 190 139 194
627 4 2 3 1 176 43 42 207
628 4 2 3 1 96 354 23 241
629 4 2 3 1 124 125 327 331
630 4 2 3 1 90 240 31 357
631 4 2 3 1 326 127 128 318
632 4 2 3 1 357 240 31 310
633 4 2 3 1 354 180 23 241
634 4 2 3 1 309 182 345 196
635 4 2 3 1 197 347 179 186
636 4 2 3 1 222 232 245 367
637 4 2 3 1 142 319 191 184
638 4 2 3 1 262 354 117 241
639 4 2 3 1 164 96 95 355
640 4 2 3 1 116 115 280 352
641 4 2 3 1 333 187 136 192
642 4 2 3 1 316 329 327 124
643 4 2 3 1 155 311 312 156
644 4 2 3 1 313 181 61 62
645 4 2 3 1 356 158 90 91
646 4 2 3 1 299 125 124 331
647 4 2 3 1 282 255 284 367
648 4 2 3 1 128 335 326 318
649 4 2 3 1 160 358 93 92
650 4 2 3 1 94 93 162 353
651 4 2 3 1 338 329 330 122
652 4 2 3 1 354 96 171 241
653 4 2 3 1 165 240 90 357
654 4 2 3 1 122 123 330 295
655 4 2 3 1 113 167 358 114
656 4 2 3 1 44 43 173 230
657 4 2 3 1 88 89 303 232
658 4 2 3 1 358 161 93 168
659 4 2 3 1 168 161 93 353
660 4 2 3 1 184 319 191 141
661 4 2 3 1 334 67 341 342
662 4 2 3 1 317 138 194 334
663 4 2 3 1 67 315 343 342
664 4 2 3 1 193 317 138 194
665 4 2 3 1 39 38 176 258
666 4 2 3 1 62 335 8 63
667 4 2 3 1 41 42 231 177
668 4 2 3 1 156 27 338 157
669 4 2 3 1 125 314 322 331
670 4 2 3 1 150 314 100 331
671 4 2 3 1 192 333 187 137
672 4 2 3 1 316 99 331 149
673 4 2 3 1 229 307 87 86
674 4 2 3 1 115 169 114 353
675 4 2 3 1 140 190 315 332
676 4 2 3 1 101 314 151 320
677 4 2 3 1 305 118 308 290
678 4 2 3 1 118 278 308 290
679 4 2 3 1 311 308 302 365
680 4 2 3 1 314 126 321 320
681 4 2 3 1 177 40 39 277
682 4 2 3 1 95 163 352 94
683 4 2 3 1 332 140 190 195
684 4 2 3 1 118 27 290 305
685 4 2 3 1 319 141 332 195
686 4 2 3 1 67 66 334 341
687 4 2 3 1 333 193 317 137
688 4 2 3 1 92 91 159 359
689 4 2 3 1 343 68 315 67
690 4 2 3 1 315 194 334 67
691 4 2 3 1 288 113 358 114
692 4 2 3 1 315 190 194 67
693 4 2 3 1 316 98 148 330
694 4 2 3 1 119 118 278 308
695 4 2 3 1 175 178 37 289
696 4 2 3 1 182 309 13 196
697 4 2 3 1 1 197 179 186
698 4 2 3 1 141 319 191 195
699 4 2 3 1 262 180 354 241
700 4 2 3 1 190 139 183 315
701 4 2 3 1 194 185 139 334
702 4 2 3 1 333 192 193 137
703 4 2 3 1 183 140 190 315
704 4 2 3 1 138 185 194 334
705 4 2 3 1 102 320 152 318
706 4 2 3 1 330 329 123 122
707 4 2 3 1 255 306 120 119
708 4 2 3 1 8 37 289 175
709 4 2 3 1 329 316 123 124
710 4 2 3 1 196 143 309 71
711 4 2 3 1 197 33 45 179
712 4 2 3 1 64 333 65 340
713 4 2 3 1 319 69 339 70
714 4 2 3 1 23 10 96 241
715 4 2 3 1 240 31 19 90
716 4 2 3 1 115 116 170 352
717 4 2 3 1 196 309 13 71
718 4 2 3 1 197 45 1 179
719 4 2 3 1 332 141 188 195
720 4 2 3 1 316 98 248 148
721 4 2 3 1 301 123 316 124
722 4 2 3 1 250 331 99 149
723 4 2 3 1 249 101 314 151
724 4 2 3 1 150 100 314 249
725 4 2 3 1 331 100 150 250
726 4 2 3 1 316 99 149 248
727 4 2 3 1 55 193 138 194
728 4 2 3 1 140 57 190 195
729 4 2 3 1 32 287 111 357
730 4 2 3 1 320 152 251 102
731 4 2 3 1 101 151 251 320
732 4 2 3 1 193 317 137 189
733 4 2 3 1 330 246 147 97
734 4 2 3 1 252 103 318 153
735 4 2 3 1 359 112 166 113
736 4 2 3 1 304 20 344 247
737 4 2 3 1 5 253 174 346
738 4 2 3 1 169 352 162 94
739 4 2 3 1 160 92 359 167
740 4 2 3 1 347 197 11 64
741 4 2 3 1 128 8 335 63
742 4 2 3 1 196 345 16 70
743 4 2 3 1 79 147 247 202
744 4 2 3 1 198 85 153 253
745 4 2 3 1 192 193 137 54
746 4 2 3 1 347 11 60 337
747 4 2 3 1 11 347 64 337
748 4 2 3 1 154 16 345 336
749 4 2 3 1 336 16 345 70
750 4 2 3 1 58 141 191 195
751 4 2 3 1 332 188 140 195
752 4 2 3 1 327 316 124 331
753 4 2 3 1 193 317 189 138
754 4 2 3 1 122 338 27 157
755 4 2 3 1 193 317 194 66
756 4 2 3 1 246 148 98 330
757 4 2 3 1 334 194 317 66
758 4 2 3 1 247 147 344 202
759 4 2 3 1 153 198 253 346
760 4 2 3 1 63 335 128 346
761 4 2 3 1 318 152 102 252
762 4 2 3 1 340 64 333 337
763 4 2 3 1 67 334 315 342
764 4 2 3 1 11 34 33 60
765 4 2 3 1 239 44 11 172
766 4 2 3 1 122 338 157 344
767 4 2 3 1 302 16 238 89
768 4 2 3 1 143 16 154 144
769 4 2 3 1 336 319 339 70
770 4 2 3 1 195 190 332 68
771 4 2 3 1 86 19 240 310
772 4 2 3 1 180 41 10 241
773 4 2 3 1 190 315 332 68
774 4 2 3 1 326 320 127 318
775 4 2 3 1 195 319 191 69
776 4 2 3 1 349 66 317 65
777 4 2 3 1 21 354 117 262
778 4 2 3 1 193 192 333 65
779 4 2 3 1 195 332 319 69
780 4 2 3 1 156 145 27 157
781 4 2 3 1 348 69 332 68
782 4 2 3 1 62 8 35 63
783 4 2 3 1 317 193 333 65
784 4 2 3 1 317 334 66 341
785 4 2 3 1 281 307 121 120
786 4 2 3 1 19 31 240 310
787 4 2 3 1 10 23 180 241
788 4 2 3 1 21 9 10 180
789 4 2 3 1 19 26 32 310
790 4 2 3 1 138 189 193 55
791 4 2 3 1 57 140 188 195
792 4 2 3 1 170 163 95 355
793 4 2 3 1 181 35 34 61
794 4 2 3 1 311 155 144 145
795 4 2 3 1 84 152 201 252
796 4 2 3 1 203 148 80 246
797 4 2 3 1 159 91 356 166
798 4 2 3 1 68 315 332 343
799 4 2 3 1 183 140 57 190
800 4 2 3 1 185 55 138 194
801 4 2 3 1 333 349 65 340
802 4 2 3 1 311 155 145 156
803 4 2 3 1 319 69 348 339
804 4 2 3 1 61 181 35 62
805 4 2 3 1 319 191 345 142
806 4 2 3 1 136 347 333 192
807 4 2 3 1 316 329 123 330
808 4 2 3 1 26 121 287 310
809 4 2 3 1 193 317 66 65
810 4 2 3 1 349 317 333 65
811 4 2 3 1 69 332 319 348
812 4 2 3 1 45 11 33 197
813 4 2 3 1 54 193 137 189
814 4 2 3 1 16 143 196 71
815 4 2 3 1 58 188 141 195
816 4 2 3 1 8 36 35 63
817 4 2 3 1 157 145 27 146
818 4 2 3 1 69 195 332 68
819 4 2 3 1 341 66 317 349
820 4 2 3 1 334 194 66 67
821 4 2 3 1 190 315 68 67
822 4 2 3 1 182 345 196 52
823 4 2 3 1 197 347 186 46
824 4 2 3 1 33 197 347 179
825 4 2 3 1 309 345 143 196
826 4 2 3 1 332 348 68 343
827 4 2 3 1 248 81 149 205
828 4 2 3 1 83 151 200 251
829 4 2 3 1 357 32 287 310
830 4 2 3 1 52 196 182 59
831 4 2 3 1 46 186 197 53
832 4 2 3 1 9 40 180 262
833 4 2 3 1 344 146 20 304
834 4 2 3 1 201 77 84 252
835 4 2 3 1 248 74 81 205
836 4 2 3 1 78 85 198 253
837 4 2 3 1 200 76 83 251
838 4 2 3 1 203 80 73 246
839 4 2 3 1 72 79 247 202
840 4 2 3 1 174 36 5 346
841 4 2 3 1 65 192 333 64
842 4 2 3 1 101 126 314 320
843 4 2 3 1 103 318 153 346
844 4 2 3 1 147 330 97 344
845 4 2 3 1 354 96 164 171
846 4 2 3 1 69 319 191 70
847 4 2 3 1 90 158 165 357
848 4 2 3 1 100 314 125 331
849 4 2 3 1 102 127 320 318
850 4 2 3 1 345 196 191 70
851 4 2 3 1 197 347 192 64
852 4 2 3 1 78 252 201 153
853 4 2 3 1 203 72 147 246
854 4 2 3 1 347 333 64 337
855 4 2 3 1 345 319 336 70
856 4 2 3 1 138 48 189 55
857 4 2 3 1 140 188 50 57
858 4 2 3 1 103 153 253 346
859 4 2 3 1 344 97 147 247
860 4 2 3 1 318 128 335 346
861 4 2 3 1 253 198 4 174
862 4 2 3 1 247 304 17 202
863 4 2 3 1 99 124 316 331
864 4 2 3 1 122 330 338 344
865 4 2 3 1 123 98 316 330
866 4 2 3 1 192 347 333 64
867 4 2 3 1 354 21 180 262
868 4 2 3 1 319 345 191 70
869 4 2 3 1 78 103 252 153
870 4 2 3 1 72 147 246 97
871 4 2 3 1 297 103 128 318
872 4 2 3 1 357 31 32 310
873 4 2 3 1 23 21 180 354
874 4 2 3 1 97 122 330 295
875 4 2 3 1 126 294 101 314
876 4 2 3 1 320 127 102 296
877 4 2 3 1 320 101 126 296
878 4 2 3 1 294 100 314 125
879 4 2 3 1 125 299 100 331
880 4 2 3 1 10 23 21 180
881 4 2 3 1 31 19 32 310
882 4 2 3 1 127 102 297 318
883 4 2 3 1 253 4 5 174
884 4 2 3 1 304 17 20 247
885 4 2 3 1 103 128 346 300
886 4 2 3 1 298 97 122 344
887 4 2 3 1 99 299 124 331
888 4 2 3 1 316 301 124 99
889 4 2 3 1 316 98 123 301
890 4 2 3 1 103 128 318 346
891 4 2 3 1 123 98 330 295
892 4 2 3 1 330 122 97 344
893 4 2 3 1 140 50 183 57
894 4 2 3 1 55 138 48 185
895 4 2 3 1 287 32 26 310
896 4 2 3 1 26 25 32 287
897 4 2 3 1 180 21 9 262
898 4 2 3 1 137 47 54 189
899 4 2 3 1 141 51 188 58
900 4 2 3 1 201 78 153 85
901 4 2 3 1 203 72 79 147
902 4 2 3 1 103 135 297 128
903 4 2 3 1 128 103 135 300
904 4 2 3 1 297 110 135 103
905 4 2 3 1 108 294 101 126
906 4 2 3 1 132 107 294 125
907 4 2 3 1 103 110 135 300
908 4 2 3 1 294 108 133 126
909 4 2 3 1 127 109 134 297
910 4 2 3 1 127 109 296 134
911 4 2 3 1 126 101 108 296
912 4 2 3 1 107 132 299 125
913 4 2 3 1 126 108 133 296
914 4 2 3 1 130 98 295 105
915 4 2 3 1 295 97 122 104
916 4 2 3 1 104 97 122 298
917 4 2 3 1 105 130 98 301
918 4 2 3 1 21 22 9 262
919 4 2 3 1 6 8 7 300
920 4 2 3 1 109 102 127 296
921 4 2 3 1 100 294 107 125
922 4 2 3 1 299 100 107 125
923 4 2 3 1 127 102 109 297
924 4 2 3 1 122 295 104 129
925 4 2 3 1 129 104 122 298
926 4 2 3 1 24 28 27 298
927 4 2 3 1 24 27 20 298
928 4 2 3 1 5 8 6 300
929 4 2 3 1 106 131 301 124
930 4 2 3 1 124 301 106 99
931 4 2 3 1 106 299 124 99
932 4 2 3 1 131 106 299 124
933 4 2 3 1 98 130 295 123
934 4 2 3 1 130 123 98 301
935 4 2 3 1 184 52 142 51
936 4 2 3 1 188 51 141 50
937 4 2 3 1 136 46 187 47
938 4 2 3 1 137 47 189 48
939 4 2 3 1 152 83 200 84
940 4 2 3 1 84 201 153 85
941 4 2 3 1 85 15 3 198
942 4 2 3 1 3 15 36 174
943 4 2 3 1 80 81 205 148
944 4 2 3 1 79 18 30 202
945 4 2 3 1 79 80 203 147
946 4 2 3 1 30 18 146 304
947 4 2 3 1 360 326 325 256
948 4 2 3 1 360 325 326 351
949 4 2 3 1 269 215 216 364
950 4 2 3 1 326 360 335 279
951 4 2 3 1 335 360 326 351
952 4 2 3 1 268 266 215 269
953 4 2 3 1 215 266 268 217
954 4 2 3 1 215 216 268 269
955 4 2 3 1 268 216 215 217
956 4 2 3 1 367 233 221 282
957 4 2 3 1 367 221 233 245
958 4 2 3 1 364 324 322 323
959 4 2 3 1 364 322 324 363
960 4 2 3 1 67 324 364 342
961 4 2 3 1 67 364 324 363
962 4 2 3 1 343 363 67 324
963 4 2 3 1 67 363 343 68
964 4 2 3 1 365 284 261 278
965 4 2 3 1 365 261 284 362
966 4 2 3 1 350 122 365 261
967 4 2 3 1 350 365 122 338
968 4 2 3 1 365 122 305 290
969 4 2 3 1 365 305 122 338
970 4 2 3 1 360 337 172 64
971 4 2 3 1 360 172 337 313
972 4 2 3 1 144 311 365 155
973 4 2 3 1 365 311 144 302
974 4 2 3 1 365 336 144 155
975 4 2 3 1 144 336 365 302
976 4 2 3 1 313 181 337 61
977 4 2 3 1 313 337 181 172
978 4 2 3 1 34 337 181 61
979 4 2 3 1 34 181 337 172
980 4 2 3 1 364 257 285 291
981 4 2 3 1 364 285 257 363
982 4 2 3 1 287 307 86 121
983 4 2 3 1 287 86 307 240
984 4 2 3 1 241 277 40 231
985 4 2 3 1 40 277 241 262
986 4 2 3 1 281 240 307 229
987 4 2 3 1 281 307 240 287
988 4 2 3 1 168 358 209 93
989 4 2 3 1 168 209 358 114
990 4 2 3 1 227 168 209 93
991 4 2 3 1 227 209 168 114
992 4 2 3 1 353 168 227 93
993 4 2 3 1 353 227 168 114
994 4 2 3 1 254 209 114 288
995 4 2 3 1 254 114 209 227
996 4 2 3 1 210 254 115 280
997 4 2 3 1 115 254 210 227
998 4 2 3 1 259 209 113 226
999 4 2 3 1 113 209 259 288
1000 4 2 3 1 321 127 320 126
1001 4 2 3 1 320 127 321 326
1002 4 2 3 1 167 359 226 92
1003 4 2 3 1 167 226 359 113
1004 4 2 3 1 209 358 226 92
1005 4 2 3 1 209 226 358 113
1006 4 2 3 1 358 167 226 92
1007 4 2 3 1 358 226 167 113
1008 4 2 3 1 169 352 210 115
1009 4 2 3 1 169 210 352 94
1010 4 2 3 1 227 169 210 115
1011 4 2 3 1 227 210 169 94
1012 4 2 3 1 353 169 227 115
1013 4 2 3 1 353 227 169 94
1014 4 2 3 1 170 355 228 116
1015 4 2 3 1 228 355 170 95
1016 4 2 3 1 228 210 170 116
1017 4 2 3 1 170 210 228 95
1018 4 2 3 1 62 175 8 335
1019 4 2 3 1 62 8 175 35
1020 4 2 3 1 156 305 27 145
1021 4 2 3 1 156 27 305 338
1022 4 2 3 1 14 46 347 136
1023 4 2 3 1 52 29 345 142
1024 4 2 3 1 356 212 166 91
1025 4 2 3 1 356 166 212 112
1026 4 2 3 1 143 345 29 154
1027 4 2 3 1 33 14 347 60
1028 4 2 3 1 36 15 346 174
1029 4 2 3 1 36 346 15 63
1030 4 2 3 1 146 30 344 157
1031 4 2 3 1 344 30 146 304
1032 4 2 3 1 124 329 276 123
1033 4 2 3 1 124 276 329 327
1034 4 2 3 1 171 116 260 355
1035 4 2 3 1 260 116 171 117
1036 4 2 3 1 260 241 171 355
1037 4 2 3 1 171 241 260 117
1038 4 2 3 1 112 165 286 356
1039 4 2 3 1 112 286 165 111
1040 4 2 3 1 240 286 165 356
1041 4 2 3 1 240 165 286 111
1042 4 2 3 1 34 337 60 11
1043 4 2 3 1 60 337 34 61
1044 4 2 3 1 336 144 154 16
1045 4 2 3 1 336 154 144 155
1046 4 2 3 1 187 137 54 192
1047 4 2 3 1 187 54 137 47
1048 4 2 3 1 141 184 58 191
1049 4 2 3 1 141 58 184 51
1050 4 2 3 1 122 344 27 298
1051 4 2 3 1 122 27 344 157
1052 4 2 3 1 146 344 27 157
1053 4 2 3 1 346 36 8 63
1054 4 2 3 1 8 128 346 63
1055 4 2 3 1 346 128 8 300
1056 4 2 3 1 153 253 78 103
1057 4 2 3 1 78 253 153 85
1058 4 2 3 1 147 247 72 79
1059 4 2 3 1 72 247 147 97
1060 4 2 3 1 33 11 347 197
1061 4 2 3 1 33 347 11 60
1062 4 2 3 1 143 16 345 154
1063 4 2 3 1 345 16 143 196
1064 4 2 3 1 81 248 99 74
1065 4 2 3 1 99 248 81 149
1066 4 2 3 1 81 99 250 74
1067 4 2 3 1 250 99 81 149
1068 4 2 3 1 81 250 204 74
1069 4 2 3 1 204 250 81 149
1070 4 2 3 1 83 251 101 151
1071 4 2 3 1 101 251 83 76
1072 4 2 3 1 83 101 249 151
1073 4 2 3 1 249 101 83 76
1074 4 2 3 1 83 249 199 151
1075 4 2 3 1 199 249 83 76
1076 4 2 3 1 49 185 194 56
1077 4 2 3 1 194 185 49 139
1078 4 2 3 1 49 194 190 56
1079 4 2 3 1 190 194 49 139
1080 4 2 3 1 49 190 183 56
1081 4 2 3 1 183 190 49 139
1082 4 2 3 1 84 200 251 77
1083 4 2 3 1 84 251 200 152
1084 4 2 3 1 102 84 251 77
1085 4 2 3 1 102 251 84 152
1086 4 2 3 1 252 84 102 77
1087 4 2 3 1 252 102 84 152
1088 4 2 3 1 205 80 248 73
1089 4 2 3 1 205 248 80 148
1090 4 2 3 1 248 80 98 73
1091 4 2 3 1 248 98 80 148
1092 4 2 3 1 98 80 246 73
1093 4 2 3 1 98 246 80 148
1094 4 2 3 1 46 187 192 136
1095 4 2 3 1 192 187 46 53
1096 4 2 3 1 192 347 46 136
1097 4 2 3 1 52 184 191 59
1098 4 2 3 1 191 184 52 142
1099 4 2 3 1 52 345 191 142
1100 4 2 3 1 182 309 12 13
1101 4 2 3 1 3 198 174 4
1102 4 2 3 1 174 198 3 15
1103 4 2 3 1 179 186 2 1
1104 4 2 3 1 202 18 304 17
1105 4 2 3 1 202 304 18 30
1106 4 2 3 1 143 12 345 309
1107 4 2 3 1 143 345 12 29
1108 4 2 3 1 52 12 345 29
1109 4 2 3 1 91 359 212 166
1110 4 2 3 1 91 212 359 226
1111 4 2 3 1 112 212 359 166
1112 4 2 3 1 112 359 212 226
1113 4 2 3 1 2 46 347 14
1114 4 2 3 1 347 33 2 14
1115 4 2 3 1 2 33 347 179
1116 4 2 3 1 344 27 20 146
1117 4 2 3 1 344 20 27 298
1118 4 2 3 1 8 346 5 36
1119 4 2 3 1 5 346 8 300
1120 4 2 3 1 82 199 249 150
1121 4 2 3 1 249 199 82 75
1122 4 2 3 1 204 82 250 150
1123 4 2 3 1 250 82 204 75
1124 4 2 3 1 82 100 250 150
1125 4 2 3 1 250 100 82 75
1126 4 2 3 1 82 249 100 150
1127 4 2 3 1 100 249 82 75
1128 4 2 3 1 197 46 192 347
1129 4 2 3 1 197 192 46 53
1130 4 2 3 1 196 52 191 59
1131 4 2 3 1 196 191 52 345
1132 4 2 3 1 182 345 12 309
1133 4 2 3 1 182 12 345 52
1134 4 2 3 1 347 186 2 179
1135 4 2 3 1 2 186 347 46
$EndElements
