$MeshFormat
2.2 0 8
$EndMeshFormat
$PhysicalNames
3
2 1 "Fixed"
2 2 "Load"
3 3 "Volume"
$EndPhysicalNames
$Nodes
86
1 0 -5 -5
2 0 -5 5
3 0 5 -5
4 0 5 5
5 100 -5 -5
6 100 -5 5
7 100 5 -5
8 100 5 5
9 9.999999999999991 -5 -5
10 19.99999999999998 -5 -5
11 29.99999999999997 -5 -5
12 39.99999999999996 -5 -5
13 50 -5 -5
14 60.00000000000005 -5 -5
15 70.00000000000009 -5 -5
16 80.00000000000014 -5 -5
17 90.00000000000007 -5 -5
18 9.999999999999991 -5 5
19 19.99999999999998 -5 5
20 29.99999999999997 -5 5
21 39.99999999999996 -5 5
22 50 -5 5
23 60.00000000000005 -5 5
24 70.00000000000009 -5 5
25 80.00000000000014 -5 5
26 90.00000000000007 -5 5
27 9.999999999999991 5 -5
28 19.99999999999998 5 -5
29 29.99999999999997 5 -5
30 39.99999999999996 5 -5
31 50 5 -5
32 60.00000000000005 5 -5
33 70.00000000000009 5 -5
34 80.00000000000014 5 -5
35 90.00000000000007 5 -5
36 9.999999999999991 5 5
37 19.99999999999998 5 5
38 29.99999999999997 5 5
39 39.99999999999996 5 5
40 50 5 5
41 60.00000000000005 5 5
42 70.00000000000009 5 5
43 80.00000000000014 5 5
44 90.00000000000007 5 5
45 0 0 0
46 100 0 0
47 75.00000000000011 -5 0
48 95.00000000000004 -5 -8.881784197001252e-16
49 85.0000000000001 -5 -9.769962616701378e-15
50 44.99999999999998 -5 0
51 55.00000000000002 -5 0
52 65.00000000000007 -5 0
53 24.99999999999997 -5 -3.552713678800501e-15
54 4.999999999999996 -5 0
55 14.99999999999999 -5 0
56 34.99999999999996 -5 -1.77635683940025e-15
57 75.00000000000011 5 0
58 95.00000000000004 5 0
59 85.0000000000001 5 -9.769962616701378e-15
60 44.99999999999998 5 0
61 55.00000000000002 5 0
62 65.00000000000007 5 0
63 24.99999999999997 5 -1.77635683940025e-15
64 4.999999999999996 5 0
65 34.99999999999996 5 8.881784197001252e-16
66 14.99999999999999 5 0
67 75.00000000000011 -8.881784197001252e-16 -5
68 95.00000000000004 -8.881784197001252e-16 -5
69 85.0000000000001 0 -5
70 44.99999999999998 0 -5
71 55.00000000000002 0 -5
72 65.00000000000007 0 -5
73 24.99999999999997 0 -5
74 4.999999999999996 0 -5
75 14.99999999999998 0 -5
76 34.99999999999996 -3.552713678800501e-15 -5
77 75.00000000000011 0 5
78 95.00000000000004 -8.881784197001252e-16 5
79 44.99999999999998 0 5
80 85.0000000000001 -8.881784197001252e-16 5
81 55.00000000000002 0 5
82 65.00000000000007 0 5
83 4.999999999999996 8.881784197001252e-16 5
84 14.99999999999998 0 5
85 34.99999999999996 0 5
86 24.99999999999997 0 5
$EndNodes
$Elements
206
1 2 2 1 1 1 2 45
2 2 2 1 1 3 1 45
3 2 2 1 1 2 4 45
4 2 2 1 1 4 3 45
5 2 2 2 2 5 46 6
6 2 2 2 2 7 46 5
7 2 2 2 2 6 46 8
8 2 2 2 2 8 46 7
9 4 2 3 1 67 47 82 15
10 4 2 3 1 42 47 82 67
11 4 2 3 1 60 12 70 79
12 4 2 3 1 70 12 50 79
13 4 2 3 1 41 82 52 72
14 4 2 3 1 82 52 72 15
15 4 2 3 1 60 70 31 79
16 4 2 3 1 33 82 62 72
17 4 2 3 1 82 41 62 72
18 4 2 3 1 50 70 79 13
19 4 2 3 1 81 71 13 61
20 4 2 3 1 71 81 13 51
21 4 2 3 1 47 57 42 77
22 4 2 3 1 61 41 81 71
23 4 2 3 1 71 41 81 51
24 4 2 3 1 43 47 77 57
25 4 2 3 1 57 47 42 67
26 4 2 3 1 57 47 67 16
27 4 2 3 1 24 42 47 82
28 4 2 3 1 47 24 82 15
29 4 2 3 1 39 56 76 79
30 4 2 3 1 79 76 39 60
31 4 2 3 1 79 76 12 56
32 4 2 3 1 39 21 56 79
33 4 2 3 1 56 12 79 21
34 4 2 3 1 76 79 12 60
35 4 2 3 1 15 33 82 67
36 4 2 3 1 82 67 33 42
37 4 2 3 1 79 12 50 21
38 4 2 3 1 30 12 70 60
39 4 2 3 1 79 70 31 13
40 4 2 3 1 40 60 31 79
41 4 2 3 1 22 50 79 13
42 4 2 3 1 72 52 41 14
43 4 2 3 1 41 23 52 82
44 4 2 3 1 32 62 41 72
45 4 2 3 1 41 51 23 81
46 4 2 3 1 41 61 32 71
47 4 2 3 1 33 15 82 72
48 4 2 3 1 33 82 42 62
49 4 2 3 1 52 82 24 15
50 4 2 3 1 71 32 41 51
51 4 2 3 1 32 71 14 51
52 4 2 3 1 81 13 22 61
53 4 2 3 1 81 13 51 22
54 4 2 3 1 71 61 31 13
55 4 2 3 1 81 22 40 61
56 4 2 3 1 42 24 47 77
57 4 2 3 1 67 34 57 16
58 4 2 3 1 33 42 67 57
59 4 2 3 1 57 43 47 16
60 4 2 3 1 25 47 77 43
61 4 2 3 1 85 76 56 20
62 4 2 3 1 76 11 56 20
63 4 2 3 1 39 56 85 76
64 4 2 3 1 30 12 60 76
65 4 2 3 1 60 76 39 30
66 4 2 3 1 21 39 56 85
67 4 2 3 1 22 79 40 13
68 4 2 3 1 31 40 79 13
69 4 2 3 1 41 32 72 14
70 4 2 3 1 23 14 41 52
71 4 2 3 1 40 31 61 13
72 4 2 3 1 61 22 40 13
73 4 2 3 1 14 23 41 51
74 4 2 3 1 14 41 32 51
75 4 2 3 1 25 47 43 16
76 4 2 3 1 43 34 16 57
77 4 2 3 1 58 78 26 68
78 4 2 3 1 78 80 58 26
79 4 2 3 1 26 80 59 69
80 4 2 3 1 49 48 69 26
81 4 2 3 1 58 80 59 26
82 4 2 3 1 48 69 26 68
83 4 2 3 1 68 78 26 48
84 4 2 3 1 26 80 69 49
85 4 2 3 1 58 26 59 69
86 4 2 3 1 68 26 58 69
87 4 2 3 1 80 69 16 59
88 4 2 3 1 69 80 16 49
89 4 2 3 1 66 86 84 28
90 4 2 3 1 27 75 66 84
91 4 2 3 1 75 55 10 84
92 4 2 3 1 75 28 66 84
93 4 2 3 1 84 55 10 53
94 4 2 3 1 63 53 28 73
95 4 2 3 1 63 53 86 28
96 4 2 3 1 64 66 84 27
97 4 2 3 1 66 63 86 28
98 4 2 3 1 28 53 86 84
99 4 2 3 1 63 65 20 29
100 4 2 3 1 73 76 29 20
101 4 2 3 1 63 73 29 20
102 4 2 3 1 85 86 63 20
103 4 2 3 1 85 63 38 65
104 4 2 3 1 63 53 20 86
105 4 2 3 1 65 29 76 20
106 4 2 3 1 28 53 75 73
107 4 2 3 1 53 63 20 73
108 4 2 3 1 28 53 84 75
109 4 2 3 1 54 75 74 64
110 4 2 3 1 83 75 64 84
111 4 2 3 1 54 75 64 83
112 4 2 3 1 75 54 55 84
113 4 2 3 1 53 11 73 20
114 4 2 3 1 48 49 69 17
115 4 2 3 1 59 80 25 16
116 4 2 3 1 54 75 83 84
117 4 2 3 1 85 65 76 20
118 4 2 3 1 85 63 65 20
119 4 2 3 1 75 27 64 84
120 4 2 3 1 78 80 44 58
121 4 2 3 1 35 58 59 69
122 4 2 3 1 58 35 68 69
123 4 2 3 1 48 69 68 17
124 4 2 3 1 58 80 44 59
125 4 2 3 1 76 73 11 20
126 4 2 3 1 84 54 55 18
127 4 2 3 1 49 25 80 16
128 4 2 3 1 54 55 9 75
129 4 2 3 1 9 54 75 74
130 4 2 3 1 27 74 75 64
131 4 2 3 1 84 83 54 18
132 4 2 3 1 64 36 83 84
133 4 2 3 1 66 86 37 84
134 4 2 3 1 55 84 19 53
135 4 2 3 1 19 84 86 53
136 4 2 3 1 75 53 84 10
137 4 2 3 1 86 85 63 38
138 4 2 3 1 43 80 25 59
139 4 2 3 1 69 59 34 16
140 4 2 3 1 75 53 10 73
141 4 2 3 1 64 66 36 84
142 4 2 3 1 39 76 85 65
143 4 2 3 1 63 66 86 37
144 4 2 3 1 39 76 65 30
145 4 2 3 1 34 43 16 59
146 4 2 3 1 59 25 43 16
147 4 2 3 1 22 81 23 51
148 4 2 3 1 77 42 43 57
149 4 2 3 1 25 47 24 77
150 4 2 3 1 33 34 57 67
151 4 2 3 1 15 67 47 16
152 4 2 3 1 40 39 60 79
153 4 2 3 1 31 30 70 60
154 4 2 3 1 50 79 21 22
155 4 2 3 1 50 12 70 13
156 4 2 3 1 71 13 14 51
157 4 2 3 1 41 42 82 62
158 4 2 3 1 32 33 62 72
159 4 2 3 1 32 61 31 71
160 4 2 3 1 41 81 40 61
161 4 2 3 1 24 23 82 52
162 4 2 3 1 15 52 72 14
163 4 2 3 1 68 58 78 46
164 4 2 3 1 46 78 68 48
165 4 2 3 1 68 5 7 46
166 4 2 3 1 58 7 8 46
167 4 2 3 1 8 6 78 46
168 4 2 3 1 46 5 6 48
169 4 2 3 1 54 64 45 83
170 4 2 3 1 64 54 45 74
171 4 2 3 1 1 2 54 45
172 4 2 3 1 74 3 1 45
173 4 2 3 1 3 4 45 64
174 4 2 3 1 45 4 2 83
175 4 2 3 1 85 56 21 20
176 4 2 3 1 56 12 11 76
177 4 2 3 1 38 37 63 86
178 4 2 3 1 10 9 55 75
179 4 2 3 1 9 1 54 74
180 4 2 3 1 73 29 28 63
181 4 2 3 1 27 3 74 64
182 4 2 3 1 83 2 54 18
183 4 2 3 1 4 64 36 83
184 4 2 3 1 75 28 27 66
185 4 2 3 1 66 37 36 84
186 4 2 3 1 55 84 18 19
187 4 2 3 1 86 19 53 20
188 4 2 3 1 73 10 11 53
189 4 2 3 1 8 78 44 58
190 4 2 3 1 7 58 35 68
191 4 2 3 1 76 30 29 65
192 4 2 3 1 39 38 65 85
193 4 2 3 1 43 44 80 59
194 4 2 3 1 68 5 48 17
195 4 2 3 1 80 26 25 49
196 4 2 3 1 59 34 35 69
197 4 2 3 1 6 26 78 48
198 4 2 3 1 69 49 16 17
199 4 2 3 1 68 7 58 46
200 4 2 3 1 2 54 45 83
201 4 2 3 1 4 45 64 83
202 4 2 3 1 74 1 54 45
203 4 2 3 1 45 74 3 64
204 4 2 3 1 58 8 78 46
205 4 2 3 1 6 78 46 48
206 4 2 3 1 46 68 5 48
$EndElements
