$MeshFormat
2.2 0 8
$EndMeshFormat
$PhysicalNames
3
2 1 "Fixed"
2 2 "Load"
3 3 "Volume"
$EndPhysicalNames
$Nodes
337
1 0 -10 -10
2 0 -10 10
3 0 10 -10
4 0 10 10
5 20 -10 -10
6 20 -10 10
7 20 10 -10
8 20 10 10
9 0 -10 -6.666666666666673
10 0 -10 -3.333333333333339
11 0 -10 -5.329070518200751e-15
12 0 -10 3.33333333333333
13 0 -10 6.666666666666664
14 0 -6.666666666666673 -10
15 0 -3.333333333333339 -10
16 0 -5.329070518200751e-15 -10
17 0 3.33333333333333 -10
18 0 6.666666666666664 -10
19 0 10 -6.666666666666673
20 0 10 -3.333333333333339
21 0 10 -5.329070518200751e-15
22 0 10 3.33333333333333
23 0 10 6.666666666666664
24 0 -6.666666666666673 10
25 0 -3.333333333333339 10
26 0 -5.329070518200751e-15 10
27 0 3.33333333333333 10
28 0 6.666666666666664 10
29 20 -10 -6.666666666666673
30 20 -10 -3.333333333333339
31 20 -10 -5.329070518200751e-15
32 20 -10 3.33333333333333
33 20 -10 6.666666666666664
34 20 -6.666666666666673 -10
35 20 -3.333333333333339 -10
36 20 -5.329070518200751e-15 -10
37 20 3.33333333333333 -10
38 20 6.666666666666664 -10
39 20 10 -6.666666666666673
40 20 10 -3.333333333333339
41 20 10 -5.329070518200751e-15
42 20 10 3.33333333333333
43 20 10 6.666666666666664
44 20 -6.666666666666673 10
45 20 -3.333333333333339 10
46 20 -5.329070518200751e-15 10
47 20 3.33333333333333 10
48 20 6.666666666666664 10
49 3.333333333333327 -10 -10
50 6.666666666666661 -10 -10
51 9.999999999999995 -10 -10
52 13.33333333333333 -10 -10
53 16.66666666666666 -10 -10
54 3.333333333333327 -10 10
55 6.666666666666661 -10 10
56 9.999999999999995 -10 10
57 13.33333333333333 -10 10
58 16.66666666666666 -10 10
59 3.333333333333327 10 -10
60 6.666666666666661 10 -10
61 9.999999999999995 10 -10
62 13.33333333333333 10 -10
63 16.66666666666666 10 -10
64 3.333333333333327 10 10
65 6.666666666666661 10 10
66 9.999999999999995 10 10
67 13.33333333333333 10 10
68 16.66666666666666 10 10
69 0 1.63021913668107 -6.983147047824946
70 0 1.666666666666661 7.113248654051873
71 0 -7.012346250148576 1.955752182355262
72 0 7.012346250148568 1.955752182355262
73 0 -7.287394794033805 -5.082403410532834
74 0 7.22324042405311 -5.04587450004481
75 0 -4.985875435730417 7.177426516480558
76 0 4.985875435730406 7.177426516480555
77 0 3.851292933245499 3.950574248929748
78 0 0.08632659998535352 4.180510131574744
79 0 1.666666666666654 1.339745962155613
80 0 -1.55559106351542 1.276258684310962
81 0 0.01851260052519343 -1.498728315579804
82 0 3.333333333333314 -1.54700538379252
83 0 -3.198189193235175 -1.572601215998805
84 0 -1.190681648887312 -4.328574030298451
85 0 6.636024169272162 -1.581573691884779
86 0 -1.649924805957514 7.116280435035154
87 0 -6.624295944731402 -1.592185720832342
88 0 -3.82070092412469 3.935368152731121
89 0 -7.223458015389166 5.028103886617941
90 0 7.227099921236878 5.029914136165401
91 0 5.057662089648847 -7.261013160372596
92 0 -5.163855384468014 -7.373854657187026
93 0 -1.880095206176197 -7.296730775544139
94 0 1.650951923588927 -3.692563811498093
95 0 -4.335848479980331 -4.33361280207567
96 0 4.255238512762904 -4.351862932569624
97 0 4.4198729810778 1.00480947161671
98 0 -4.442224675151052 0.8005184165132402
99 0 7.559830641437074 7.559830641437074
100 0 -7.559830641437082 7.55983064143707
101 0 7.55983064143707 -7.559830641437083
102 0 -7.576802451483147 -7.576802451483147
103 20 1.955752182355257 -7.012346250148574
104 20 1.955752182355262 7.012346250148571
105 20 -6.983147047824946 1.630219136681076
106 20 7.113248654051873 1.666666666666663
107 20 -6.973838197128716 -4.752515494304868
108 20 7.177426516480558 -4.985875435730417
109 20 -5.04587450004481 7.22324042405311
110 20 7.177426516480562 4.98587543573041
111 20 3.950574248929746 3.851292933245505
112 20 4.180510131574742 0.08632659998535885
113 20 1.339745962155613 1.666666666666668
114 20 1.27625868431096 -1.555591063515406
115 20 -1.498728315579807 0.01851260052521297
116 20 -1.574679382746774 -3.201788683629228
117 20 -1.547005383792516 3.333333333333336
118 20 -4.555556581002266 -1.601999838025989
119 20 3.934935041162078 -3.823092618511707
120 20 -1.581573691884778 6.636024169272169
121 20 7.067686723878211 -1.731551353487241
122 20 -1.55914049289626 -6.616499397753268
123 20 5.029914136165402 7.227099921236881
124 20 -7.261013160372596 5.057662089648851
125 20 5.028052325716864 -7.22374274091143
126 20 -4.888755919845353 -7.214432875163813
127 20 -3.737960321638855 1.568688285761201
128 20 -7.702508365191186 -1.611525905796626
129 20 -3.910394114723874 -4.677447257775433
130 20 -4.359429017593085 4.241527906458288
131 20 0.8066252064370527 -4.441863602711636
132 20 1.004809471616714 4.419872981077807
133 20 -7.559830641437082 7.55983064143707
134 20 7.559830641437081 7.559830641437081
135 20 7.55983064143707 -7.559830641437083
136 20 -7.559830641437078 -7.559830641437078
137 17.11324865405187 -10 1.666666666666661
138 3.016852952175054 -10 1.63021913668107
139 11.95575218235526 -10 -7.012346250148576
140 11.95575218235526 -10 7.012346250148571
141 3.02616180287129 -10 -4.752515494304877
142 17.17742651648056 -10 -4.985875435730418
143 4.954125499955189 -10 7.22324042405311
144 17.12394496445665 -10 -1.664312572621743
145 14.22828002650454 -10 0.0003923490074804192
146 13.94166065692576 -10 3.853366777999369
147 11.33974596215561 -10 1.666666666666654
148 11.28422033346594 -10 -1.569913438678402
149 8.502598625946026 -10 0.01612553799802185
150 8.42686871570004 -10 -3.20457358991094
151 8.452994616207478 -10 3.333333333333311
152 5.444652970016159 -10 -1.602376803682645
153 17.17887685778043 -10 5.024446141031591
154 8.441080664024724 -10 -6.616897241507804
155 8.418426308115219 -10 6.636024169272162
156 13.94442473466059 -10 -3.837078694525415
157 15.02918205113336 -10 -7.225407749960682
158 2.738986839627402 -10 5.057662089648847
159 15.02902565393872 -10 7.231938558148194
160 5.1112536749815 -10 -7.214450135496079
161 2.297533545012501 -10 -1.61160129892796
162 6.262346976869993 -10 1.568135480124424
163 6.090003565518742 -10 -4.678162652980468
164 5.640622198825055 -10 4.241435772185486
165 10.95714872441116 -10 4.440821142886998
166 10.81046932604131 -10 -4.448161842954228
167 17.55983064143707 -10 7.559830641437074
168 17.55983064143707 -10 -7.559830641437082
169 2.440169358562917 -10 7.55983064143707
170 2.440169358562922 -10 -7.559830641437078
171 17.11324865405187 10 1.666666666666661
172 3.016852952175054 10 1.63021913668107
173 11.95575218235526 10 -7.012346250148576
174 11.95575218235526 10 7.012346250148571
175 4.917596589467169 10 -7.287394794033807
176 17.17742651648056 10 -4.985875435730418
177 4.954125499955189 10 7.22324042405311
178 17.12394496445665 10 -1.664312572621743
179 14.22828002650454 10 0.0003923490074804192
180 13.94166065692576 10 3.853366777999369
181 11.33974596215561 10 1.666666666666654
182 11.28422033346594 10 -1.569913438678402
183 8.502598625946028 10 0.0161255379980183
184 8.452994616207476 10 3.333333333333307
185 8.428946882448004 10 -3.200974099516872
186 5.671768236364965 10 -1.191297359459806
187 17.17887685778043 10 5.024446141031591
188 8.408035436088637 10 -6.624693788485931
189 8.418426308115217 10 6.636024169272158
190 13.94442473466059 10 -3.837078694525415
191 15.02918205113336 10 -7.225407749960682
192 2.738986839627402 10 5.057662089648847
193 15.02902565393872 10 7.231938558148194
194 2.62614534281298 10 -5.163855384468016
195 2.70329832876398 10 -1.880147562517397
196 6.307770030139754 10 1.650351368968989
197 5.666569223973605 10 -4.336175930401248
198 5.648192707703348 10 4.255138420326247
199 10.95714872441115 10 4.440821142886998
200 10.80427591380369 10 -4.449001254271039
201 17.55983064143707 10 7.559830641437074
202 17.55983064143707 10 -7.559830641437082
203 2.440169358562917 10 7.55983064143707
204 2.423197548516853 10 -7.576802451483147
205 11.54863692520988 -6.825987323689235 -10
206 17.11324865405187 1.666666666666663 -10
207 2.871022366218702 1.639423274624074 -10
208 11.63599333661143 7.038189930939662 -10
209 5.306085396858002 -6.981009175197362 -10
210 16.97383819712871 -4.752515494304872 -10
211 5.306085396858006 6.98100917519735 -10
212 2.86840086959713 -1.643963839964517 -10
213 5.767822782549517 -0.0007567608900824752 -10
214 5.676302681481098 3.353813667223742 -10
215 8.64310738455074 1.669953928833374 -10
216 8.656449610737649 -1.666244916453909 -10
217 11.4846552558723 0.0006181687298898453 -10
218 11.49945983355339 3.417896529168724 -10
219 11.48562421663766 -3.272024345844804 -10
220 14.43375672974064 -1.666666666666696 -10
221 8.517272029112128 -4.974281526265441 -10
222 8.55701091157316 5.027137296956759 -10
223 14.4770363006368 4.634630019128311 -10
224 5.651401359404332 -3.350465977752631 -10
225 2.737534014915773 4.897829989651068 -10
226 14.9785706736647 -7.251249151696223 -10
227 2.734257488880256 -4.897971998683136 -10
228 17.70416871618424 -1.617169765527651 -10
229 13.801631354771 1.610628943405377 -10
230 17.49665539334044 5.000000000000002 -10
231 13.88408534847632 -4.753688596440366 -10
232 8.43315126234185 7.809267280618759 -10
233 8.33333333333333 -7.767090063073987 -10
234 15.19882503069164 7.376014183938192 -10
235 2.440169358562922 -7.559830641437078 -10
236 2.440169358562918 7.55983064143707 -10
237 17.55983064143707 -7.559830641437083 -10
238 17.58326515356119 7.583265153561186 -10
239 11.54863692520988 -6.825987323689235 10
240 17.11324865405187 1.666666666666663 10
241 2.871022366218702 1.639423274624074 10
242 11.63599333661143 7.038189930939662 10
243 2.812321014717257 -4.87108288468396 10
244 16.97383819712871 -4.752515494304872 10
245 5.306085396858006 6.98100917519735 10
246 2.871724794121411 -1.649721046121096 10
247 5.768376769970233 -0.001716295249510225 10
248 5.676395012717884 3.353653744830504 10
249 8.643215104326991 1.669767352707931 10
250 8.656559895270478 -1.666435934868051 10
251 11.48469158992381 0.0005552363066261279 10
252 11.49948384252469 3.417854944410607 10
253 11.48564865306838 -3.272066670984373 10
254 14.43375672974064 -1.666666666666696 10
255 8.595197365112426 -4.921929998769274 10
256 8.557037585380819 5.027091096566664 10
257 14.47703915884766 4.634625068561867 10
258 5.746280421848008 -3.296258804393092 10
259 5.418185927653417 -6.916598913193914 10
260 2.737545006729676 4.89781095127092 10
261 14.9785706736647 -7.251249151696223 10
262 17.70416871618424 -1.617169765527651 10
263 13.80164399501773 1.610607049855814 10
264 17.49665539334044 5.000000000000002 10
265 13.88409023576246 -4.75369706146828 10
266 8.433156597103382 7.809258040540737 10
267 8.390682335167588 -7.749647810041587 10
268 15.19882550706012 7.376013358843785 10
269 2.440169358562922 -7.559830641437078 10
270 2.440169358562918 7.55983064143707 10
271 17.55983064143707 -7.559830641437083 10
272 17.58326515356119 7.583265153561186 10
273 9.998161331492646 0.001362540370028083 2.702991613201533e-06
274 13.6980666079899 -3.625637977440832 -3.723132461619298
275 6.314343636941754 -3.704041828006003 -3.66319771010849
276 13.68595418047376 -3.62942643372381 3.726040890616194
277 7.088960308747542 -3.918903497469784 3.91792802372828
278 7.094603122010295 3.917437589394485 3.928144681734339
279 6.078488371211186 3.011168647613523 -3.792818475790256
280 14.01695162878719 2.513319521313808 -3.92002942902427
281 14.02092208131841 2.509153631565133 3.919193490915192
282 10.37314994349328 5.168530465861102 0.06448290588487338
283 4.831886079651164 0.07408323153009774 0.3667404348813914
284 10.44792312036026 -5.146664323119849 -0.0045932937881763
285 9.959959654760958 -0.3974158885657091 -5.116130826280057
286 15.00980937604472 -0.5031200364241772 0.005185963277333576
287 9.576497578032603 0.005372143065067725 5.496413147475726
288 10.17733547359534 5.214822464109084 -5.366249355400352
289 4.838308019086589 -0.000972935377573891 5.351733181593488
290 4.618268373143644 5.470859247839633 0.09117262752016053
291 10.01084795663724 -5.615938442950334 -5.673522625883917
292 4.565631521667341 -5.699440731082938 0.2921091705078509
293 15.23196565202274 5.115128467785858 0.000351399713391487
294 11.03644205715852 5.556446185297274 5.673740450340053
295 4.132321372094783 -0.4945349640210214 -5.87342838190099
296 15.73237333309257 -5.576147894174524 0.003780848882625686
297 10.53727904128331 -5.853855754545419 5.835411231287662
298 16.06921439701312 5.680094135392169 5.805035587946759
299 15.95445953369167 5.67060405909549 -5.82455643239528
300 4.004429880491592 -5.994419471839223 6.043232832567215
301 3.99763969713182 6.035398291957321 -5.982004444512158
302 3.988497778708529 6.010523795707559 6.003518818106541
303 3.90741918566587 -6.07870048920809 -6.148142078278442
304 16.11417965091605 -6.093610415210893 6.079248524705275
305 16.31887646582227 -0.7303028706060797 4.955078227100116
306 16.11214039882375 -6.096135727183527 -6.114117530013041
307 16.24406737992769 -0.7228044464384016 -5.152176512953977
308 7.358435844387337 -2.822880173127796 -0.0465568727518102
309 7.536650043972647 6.312453834040142 -2.339944322821988
310 7.423467833767896 2.788839493175308 -0.2431959669723912
311 10.26988764684348 2.612587867632109 -2.672674497199115
312 3.556398498801461 -2.790564417393584 2.694130945372362
313 12.78039074762587 6.443040070051081 -2.730543957907736
314 3.553144310289676 2.854890283125738 2.75153979411886
315 10.41813071464322 2.533849991939167 2.77492566234758
316 3.174631345582335 -1.568081503903738 -2.483036710135157
317 7.528656519558879 -6.676952435253284 -1.758573620377931
318 10.30056124277914 -2.568249617204634 2.653758355997014
319 13.11555895823339 0.1257844816022968 6.653074607794148
320 12.83475654398223 6.63682586967745 2.529116307756547
321 7.834568340633795 -6.775346018704175 1.858894530378158
322 7.383790462717428 -0.159307255046337 -2.541703425793814
323 12.01087372969004 -6.705360206313955 -2.866805298834792
324 12.48698241718317 -0.4460928938797518 -2.557454883879859
325 7.812815122500823 6.784731254364277 1.940638896461006
326 12.76908896755452 2.382514901303697 -0.01762338694924611
327 13.12720667741715 0.1090050730493168 -6.782226346829773
328 7.592412054891875 6.403789969276873 6.693025045915935
329 10.22856891805033 -3.258525957733186 -3.014718404067058
330 12.97215337610014 -6.773353641523387 2.045133912841476
331 7.965788368131409 -2.88500901375642 -6.718317304802166
332 7.178980585008837 1.234471398135667 -6.732532613591736
333 16.81067039272187 -2.834014138600633 -2.078751004077318
334 3.154974767338101 1.929186611361944 -2.178357915695554
335 7.580441904323392 -0.2925173928820432 2.579119732650481
336 16.67673607516346 -2.75660762584778 2.114177011551184
337 13.14472908127448 -3.268429634521459 -7.046281109760763
$EndNodes
$Elements
1285
1 2 2 1 1 1 9 102
2 2 2 1 1 14 1 102
3 2 2 1 1 13 2 100
4 2 2 1 1 2 24 100
5 2 2 1 1 3 18 101
6 2 2 1 1 19 3 101
7 2 2 1 1 4 23 99
8 2 2 1 1 28 4 99
9 2 2 1 1 9 10 73
10 2 2 1 1 9 73 102
11 2 2 1 1 10 11 87
12 2 2 1 1 73 10 87
13 2 2 1 1 11 12 71
14 2 2 1 1 11 71 87
15 2 2 1 1 12 13 89
16 2 2 1 1 71 12 89
17 2 2 1 1 89 13 100
18 2 2 1 1 15 14 92
19 2 2 1 1 92 14 102
20 2 2 1 1 16 15 93
21 2 2 1 1 15 92 93
22 2 2 1 1 17 16 69
23 2 2 1 1 69 16 93
24 2 2 1 1 18 17 91
25 2 2 1 1 17 69 91
26 2 2 1 1 18 91 101
27 2 2 1 1 20 19 74
28 2 2 1 1 74 19 101
29 2 2 1 1 21 20 85
30 2 2 1 1 20 74 85
31 2 2 1 1 22 21 72
32 2 2 1 1 72 21 85
33 2 2 1 1 23 22 90
34 2 2 1 1 22 72 90
35 2 2 1 1 23 90 99
36 2 2 1 1 24 25 75
37 2 2 1 1 24 75 100
38 2 2 1 1 25 26 86
39 2 2 1 1 75 25 86
40 2 2 1 1 26 27 70
41 2 2 1 1 26 70 86
42 2 2 1 1 27 28 76
43 2 2 1 1 70 27 76
44 2 2 1 1 76 28 99
45 2 2 1 1 84 69 93
46 2 2 1 1 69 84 94
47 2 2 1 1 91 69 96
48 2 2 1 1 69 94 96
49 2 2 1 1 70 76 77
50 2 2 1 1 70 77 78
51 2 2 1 1 70 78 86
52 2 2 1 1 87 71 98
53 2 2 1 1 88 71 89
54 2 2 1 1 71 88 98
55 2 2 1 1 72 77 90
56 2 2 1 1 77 72 97
57 2 2 1 1 72 85 97
58 2 2 1 1 73 87 95
59 2 2 1 1 92 73 95
60 2 2 1 1 73 92 102
61 2 2 1 1 85 74 96
62 2 2 1 1 74 91 96
63 2 2 1 1 91 74 101
64 2 2 1 1 75 86 88
65 2 2 1 1 75 88 89
66 2 2 1 1 75 89 100
67 2 2 1 1 77 76 90
68 2 2 1 1 90 76 99
69 2 2 1 1 78 77 79
70 2 2 1 1 79 77 97
71 2 2 1 1 78 79 80
72 2 2 1 1 78 80 88
73 2 2 1 1 86 78 88
74 2 2 1 1 80 79 81
75 2 2 1 1 81 79 82
76 2 2 1 1 82 79 97
77 2 2 1 1 80 81 83
78 2 2 1 1 80 83 98
79 2 2 1 1 88 80 98
80 2 2 1 1 81 82 94
81 2 2 1 1 83 81 84
82 2 2 1 1 84 81 94
83 2 2 1 1 82 85 96
84 2 2 1 1 85 82 97
85 2 2 1 1 94 82 96
86 2 2 1 1 83 84 95
87 2 2 1 1 87 83 95
88 2 2 1 1 83 87 98
89 2 2 1 1 84 93 95
90 2 2 1 1 93 92 95
91 2 2 2 2 5 136 29
92 2 2 2 2 34 136 5
93 2 2 2 2 33 133 6
94 2 2 2 2 6 133 44
95 2 2 2 2 7 135 38
96 2 2 2 2 39 135 7
97 2 2 2 2 8 134 43
98 2 2 2 2 48 134 8
99 2 2 2 2 29 107 30
100 2 2 2 2 29 136 107
101 2 2 2 2 30 128 31
102 2 2 2 2 107 128 30
103 2 2 2 2 31 105 32
104 2 2 2 2 31 128 105
105 2 2 2 2 32 124 33
106 2 2 2 2 105 124 32
107 2 2 2 2 124 133 33
108 2 2 2 2 35 126 34
109 2 2 2 2 126 136 34
110 2 2 2 2 36 122 35
111 2 2 2 2 122 126 35
112 2 2 2 2 37 103 36
113 2 2 2 2 103 122 36
114 2 2 2 2 38 125 37
115 2 2 2 2 37 125 103
116 2 2 2 2 38 135 125
117 2 2 2 2 40 108 39
118 2 2 2 2 108 135 39
119 2 2 2 2 41 121 40
120 2 2 2 2 40 121 108
121 2 2 2 2 42 106 41
122 2 2 2 2 106 121 41
123 2 2 2 2 43 110 42
124 2 2 2 2 42 110 106
125 2 2 2 2 43 134 110
126 2 2 2 2 44 109 45
127 2 2 2 2 44 133 109
128 2 2 2 2 45 120 46
129 2 2 2 2 109 120 45
130 2 2 2 2 46 104 47
131 2 2 2 2 46 120 104
132 2 2 2 2 47 123 48
133 2 2 2 2 104 123 47
134 2 2 2 2 123 134 48
135 2 2 2 2 103 125 119
136 2 2 2 2 119 131 103
137 2 2 2 2 103 131 122
138 2 2 2 2 111 123 104
139 2 2 2 2 104 132 111
140 2 2 2 2 120 132 104
141 2 2 2 2 118 127 105
142 2 2 2 2 105 128 118
143 2 2 2 2 105 130 124
144 2 2 2 2 127 130 105
145 2 2 2 2 110 111 106
146 2 2 2 2 111 112 106
147 2 2 2 2 112 121 106
148 2 2 2 2 118 128 107
149 2 2 2 2 107 129 118
150 2 2 2 2 126 129 107
151 2 2 2 2 107 136 126
152 2 2 2 2 108 121 119
153 2 2 2 2 119 125 108
154 2 2 2 2 125 135 108
155 2 2 2 2 109 130 120
156 2 2 2 2 124 130 109
157 2 2 2 2 109 133 124
158 2 2 2 2 110 123 111
159 2 2 2 2 110 134 123
160 2 2 2 2 111 113 112
161 2 2 2 2 111 132 113
162 2 2 2 2 113 114 112
163 2 2 2 2 114 119 112
164 2 2 2 2 119 121 112
165 2 2 2 2 113 115 114
166 2 2 2 2 113 117 115
167 2 2 2 2 113 132 117
168 2 2 2 2 115 116 114
169 2 2 2 2 116 131 114
170 2 2 2 2 114 131 119
171 2 2 2 2 115 118 116
172 2 2 2 2 117 127 115
173 2 2 2 2 115 127 118
174 2 2 2 2 118 129 116
175 2 2 2 2 116 129 122
176 2 2 2 2 122 131 116
177 2 2 2 2 120 130 117
178 2 2 2 2 117 132 120
179 2 2 2 2 117 130 127
180 2 2 2 2 122 129 126
181 4 2 3 1 275 303 292 316
182 4 2 3 1 232 288 188 301
183 4 2 3 1 265 276 253 319
184 4 2 3 1 250 287 277 289
185 4 2 3 1 250 277 287 297
186 4 2 3 1 249 294 278 328
187 4 2 3 1 267 297 155 300
188 4 2 3 1 250 277 258 289
189 4 2 3 1 255 297 267 300
190 4 2 3 1 207 301 295 332
191 4 2 3 1 232 222 288 301
192 4 2 3 1 113 286 281 293
193 4 2 3 1 249 287 278 294
194 4 2 3 1 249 278 287 289
195 4 2 3 1 214 301 207 332
196 4 2 3 1 87 292 161 303
197 4 2 3 1 249 248 278 289
198 4 2 3 1 280 286 114 293
199 4 2 3 1 253 276 265 297
200 4 2 3 1 114 286 113 293
201 4 2 3 1 291 303 163 317
202 4 2 3 1 292 303 95 316
203 4 2 3 1 250 255 277 297
204 4 2 3 1 279 301 295 334
205 4 2 3 1 207 69 295 301
206 4 2 3 1 288 301 222 332
207 4 2 3 1 241 289 70 302
208 4 2 3 1 279 301 288 332
209 4 2 3 1 69 295 301 334
210 4 2 3 1 86 289 246 300
211 4 2 3 1 274 284 286 324
212 4 2 3 1 248 289 241 302
213 4 2 3 1 161 292 152 303
214 4 2 3 1 113 281 111 293
215 4 2 3 1 154 291 233 303
216 4 2 3 1 246 289 258 300
217 4 2 3 1 273 318 286 326
218 4 2 3 1 281 286 276 318
219 4 2 3 1 155 297 277 300
220 4 2 3 1 274 286 284 296
221 4 2 3 1 155 277 297 321
222 4 2 3 1 96 301 290 334
223 4 2 3 1 259 255 267 300
224 4 2 3 1 273 315 318 326
225 4 2 3 1 277 297 255 300
226 4 2 3 1 249 278 248 328
227 4 2 3 1 276 297 253 319
228 4 2 3 1 250 287 253 297
229 4 2 3 1 285 288 218 332
230 4 2 3 1 253 297 287 319
231 4 2 3 1 276 286 284 318
232 4 2 3 1 218 288 285 327
233 4 2 3 1 119 280 114 293
234 4 2 3 1 69 301 96 334
235 4 2 3 1 265 297 276 304
236 4 2 3 1 281 286 318 326
237 4 2 3 1 258 250 255 277
238 4 2 3 1 284 286 276 296
239 4 2 3 1 291 306 205 337
240 4 2 3 1 284 318 286 324
241 4 2 3 1 215 285 218 332
242 4 2 3 1 188 301 288 309
243 4 2 3 1 87 95 292 303
244 4 2 3 1 163 291 154 303
245 4 2 3 1 281 318 315 326
246 4 2 3 1 254 265 276 304
247 4 2 3 1 232 211 222 301
248 4 2 3 1 112 114 113 293
249 4 2 3 1 275 303 291 317
250 4 2 3 1 281 286 113 305
251 4 2 3 1 214 222 301 332
252 4 2 3 1 83 292 87 316
253 4 2 3 1 284 273 318 324
254 4 2 3 1 114 286 280 307
255 4 2 3 1 256 294 249 328
256 4 2 3 1 128 144 296 306
257 4 2 3 1 295 301 279 332
258 4 2 3 1 240 281 298 305
259 4 2 3 1 131 114 280 307
260 4 2 3 1 248 278 289 302
261 4 2 3 1 240 298 104 305
262 4 2 3 1 218 280 223 288
263 4 2 3 1 258 289 277 300
264 4 2 3 1 286 318 273 324
265 4 2 3 1 218 280 288 327
266 4 2 3 1 223 288 280 299
267 4 2 3 1 290 301 195 309
268 4 2 3 1 96 290 85 334
269 4 2 3 1 85 290 96 301
270 4 2 3 1 152 303 292 317
271 4 2 3 1 252 287 249 294
272 4 2 3 1 254 276 265 319
273 4 2 3 1 205 291 139 306
274 4 2 3 1 247 250 258 289
275 4 2 3 1 198 302 290 325
276 4 2 3 1 114 119 131 280
277 4 2 3 1 276 281 318 319
278 4 2 3 1 70 302 289 314
279 4 2 3 1 259 267 155 300
280 4 2 3 1 218 285 215 327
281 4 2 3 1 249 247 248 289
282 4 2 3 1 83 87 95 316
283 4 2 3 1 292 303 275 317
284 4 2 3 1 206 299 280 307
285 4 2 3 1 207 225 69 301
286 4 2 3 1 289 300 86 312
287 4 2 3 1 178 121 293 299
288 4 2 3 1 206 103 299 307
289 4 2 3 1 161 152 141 303
290 4 2 3 1 111 293 281 298
291 4 2 3 1 258 277 255 300
292 4 2 3 1 195 290 85 301
293 4 2 3 1 132 281 113 305
294 4 2 3 1 87 292 95 316
295 4 2 3 1 171 293 106 298
296 4 2 3 1 139 306 291 323
297 4 2 3 1 241 70 260 302
298 4 2 3 1 111 113 132 281
299 4 2 3 1 173 288 208 299
300 4 2 3 1 296 306 156 323
301 4 2 3 1 218 223 280 327
302 4 2 3 1 86 246 243 300
303 4 2 3 1 171 293 298 320
304 4 2 3 1 69 96 94 334
305 4 2 3 1 119 280 293 299
306 4 2 3 1 172 72 290 302
307 4 2 3 1 247 287 250 289
308 4 2 3 1 239 297 265 304
309 4 2 3 1 231 205 306 337
310 4 2 3 1 178 299 293 313
311 4 2 3 1 254 304 276 305
312 4 2 3 1 106 293 111 298
313 4 2 3 1 257 252 294 319
314 4 2 3 1 257 294 281 319
315 4 2 3 1 206 307 280 327
316 4 2 3 1 281 305 240 319
317 4 2 3 1 196 198 290 325
318 4 2 3 1 197 195 301 309
319 4 2 3 1 261 239 265 304
320 4 2 3 1 87 161 141 303
321 4 2 3 1 119 293 121 299
322 4 2 3 1 70 76 260 302
323 4 2 3 1 91 69 225 301
324 4 2 3 1 69 94 295 334
325 4 2 3 1 249 287 247 289
326 4 2 3 1 137 304 296 330
327 4 2 3 1 198 172 290 302
328 4 2 3 1 154 233 209 303
329 4 2 3 1 290 301 279 334
330 4 2 3 1 227 212 93 303
331 4 2 3 1 207 214 225 301
332 4 2 3 1 252 287 294 319
333 4 2 3 1 274 306 296 323
334 4 2 3 1 163 150 291 317
335 4 2 3 1 290 302 72 314
336 4 2 3 1 86 243 75 300
337 4 2 3 1 152 163 303 317
338 4 2 3 1 112 113 111 293
339 4 2 3 1 261 140 239 304
340 4 2 3 1 248 241 260 302
341 4 2 3 1 151 164 155 321
342 4 2 3 1 218 229 223 327
343 4 2 3 1 215 285 217 327
344 4 2 3 1 155 297 151 321
345 4 2 3 1 188 197 301 309
346 4 2 3 1 231 205 226 306
347 4 2 3 1 140 297 239 304
348 4 2 3 1 153 124 137 304
349 4 2 3 1 144 156 296 306
350 4 2 3 1 263 252 257 319
351 4 2 3 1 246 258 243 300
352 4 2 3 1 292 300 164 321
353 4 2 3 1 105 296 304 336
354 4 2 3 1 254 305 276 319
355 4 2 3 1 212 295 93 303
356 4 2 3 1 173 288 299 313
357 4 2 3 1 171 110 187 298
358 4 2 3 1 128 107 144 306
359 4 2 3 1 108 121 176 299
360 4 2 3 1 254 265 253 319
361 4 2 3 1 160 154 209 303
362 4 2 3 1 208 288 223 299
363 4 2 3 1 227 224 212 303
364 4 2 3 1 274 284 324 329
365 4 2 3 1 218 215 217 327
366 4 2 3 1 286 307 114 333
367 4 2 3 1 205 139 226 306
368 4 2 3 1 250 253 255 297
369 4 2 3 1 281 294 257 298
370 4 2 3 1 160 163 154 303
371 4 2 3 1 224 295 212 303
372 4 2 3 1 137 105 296 304
373 4 2 3 1 112 119 114 293
374 4 2 3 1 288 311 285 327
375 4 2 3 1 71 300 292 312
376 4 2 3 1 228 210 307 337
377 4 2 3 1 105 304 130 336
378 4 2 3 1 138 292 71 300
379 4 2 3 1 276 286 281 305
380 4 2 3 1 248 278 302 328
381 4 2 3 1 288 301 279 309
382 4 2 3 1 126 129 122 306
383 4 2 3 1 291 323 306 337
384 4 2 3 1 256 249 248 328
385 4 2 3 1 113 305 286 336
386 4 2 3 1 210 126 122 306
387 4 2 3 1 228 210 122 307
388 4 2 3 1 256 252 249 294
389 4 2 3 1 172 196 198 290
390 4 2 3 1 195 186 290 309
391 4 2 3 1 306 323 274 337
392 4 2 3 1 80 283 79 314
393 4 2 3 1 71 89 158 300
394 4 2 3 1 96 85 82 334
395 4 2 3 1 143 259 155 300
396 4 2 3 1 291 303 275 331
397 4 2 3 1 291 274 323 337
398 4 2 3 1 306 307 210 337
399 4 2 3 1 90 72 192 302
400 4 2 3 1 93 92 227 303
401 4 2 3 1 261 159 140 304
402 4 2 3 1 290 302 278 325
403 4 2 3 1 85 290 82 334
404 4 2 3 1 297 304 146 330
405 4 2 3 1 123 104 264 298
406 4 2 3 1 164 292 138 300
407 4 2 3 1 178 176 121 299
408 4 2 3 1 171 106 110 298
409 4 2 3 1 172 192 72 302
410 4 2 3 1 98 292 83 316
411 4 2 3 1 244 120 109 304
412 4 2 3 1 74 194 195 301
413 4 2 3 1 193 268 174 298
414 4 2 3 1 174 242 294 298
415 4 2 3 1 195 85 74 301
416 4 2 3 1 103 125 230 299
417 4 2 3 1 73 87 141 303
418 4 2 3 1 95 303 295 316
419 4 2 3 1 280 311 288 327
420 4 2 3 1 129 306 107 333
421 4 2 3 1 195 197 186 309
422 4 2 3 1 174 268 242 298
423 4 2 3 1 158 138 71 300
424 4 2 3 1 129 122 306 307
425 4 2 3 1 163 150 154 291
426 4 2 3 1 88 86 300 312
427 4 2 3 1 70 77 302 314
428 4 2 3 1 246 86 241 289
429 4 2 3 1 137 146 304 330
430 4 2 3 1 273 324 284 329
431 4 2 3 1 146 297 140 304
432 4 2 3 1 210 306 122 307
433 4 2 3 1 234 191 173 299
434 4 2 3 1 295 303 224 331
435 4 2 3 1 296 306 274 333
436 4 2 3 1 279 301 290 309
437 4 2 3 1 157 226 139 306
438 4 2 3 1 276 304 296 336
439 4 2 3 1 80 312 283 314
440 4 2 3 1 234 173 208 299
441 4 2 3 1 137 124 105 304
442 4 2 3 1 284 296 276 330
443 4 2 3 1 287 315 294 319
444 4 2 3 1 139 156 306 323
445 4 2 3 1 247 249 250 287
446 4 2 3 1 277 300 292 321
447 4 2 3 1 98 312 292 316
448 4 2 3 1 254 244 304 305
449 4 2 3 1 254 262 244 305
450 4 2 3 1 162 292 164 321
451 4 2 3 1 286 293 280 326
452 4 2 3 1 152 163 141 303
453 4 2 3 1 281 276 305 319
454 4 2 3 1 296 304 276 330
455 4 2 3 1 281 293 286 326
456 4 2 3 1 144 107 142 306
457 4 2 3 1 295 303 275 316
458 4 2 3 1 208 218 223 288
459 4 2 3 1 144 142 156 306
460 4 2 3 1 165 321 297 330
461 4 2 3 1 287 297 277 318
462 4 2 3 1 190 299 178 313
463 4 2 3 1 188 232 208 288
464 4 2 3 1 289 302 278 314
465 4 2 3 1 70 77 76 302
466 4 2 3 1 217 285 219 337
467 4 2 3 1 93 295 95 303
468 4 2 3 1 137 146 153 304
469 4 2 3 1 219 217 216 285
470 4 2 3 1 252 251 249 287
471 4 2 3 1 259 258 255 300
472 4 2 3 1 294 315 281 319
473 4 2 3 1 277 300 289 312
474 4 2 3 1 276 304 297 330
475 4 2 3 1 78 80 79 314
476 4 2 3 1 171 298 180 320
477 4 2 3 1 219 285 331 337
478 4 2 3 1 88 86 75 300
479 4 2 3 1 250 251 253 287
480 4 2 3 1 219 285 216 331
481 4 2 3 1 297 318 284 321
482 4 2 3 1 297 321 284 330
483 4 2 3 1 129 307 306 333
484 4 2 3 1 240 264 104 298
485 4 2 3 1 275 303 295 331
486 4 2 3 1 251 287 252 319
487 4 2 3 1 200 185 309 313
488 4 2 3 1 91 96 69 301
489 4 2 3 1 106 111 110 298
490 4 2 3 1 217 327 285 337
491 4 2 3 1 206 103 230 299
492 4 2 3 1 276 296 286 336
493 4 2 3 1 253 287 251 319
494 4 2 3 1 200 182 185 313
495 4 2 3 1 190 176 178 299
496 4 2 3 1 71 88 300 312
497 4 2 3 1 198 192 172 302
498 4 2 3 1 211 214 222 301
499 4 2 3 1 165 147 321 330
500 4 2 3 1 171 187 180 298
501 4 2 3 1 278 302 290 314
502 4 2 3 1 120 130 304 305
503 4 2 3 1 284 318 297 330
504 4 2 3 1 283 308 292 316
505 4 2 3 1 77 72 302 314
506 4 2 3 1 109 120 130 304
507 4 2 3 1 254 244 265 304
508 4 2 3 1 241 248 247 289
509 4 2 3 1 158 164 138 300
510 4 2 3 1 278 294 287 315
511 4 2 3 1 246 247 258 289
512 4 2 3 1 200 309 288 313
513 4 2 3 1 129 107 118 333
514 4 2 3 1 184 325 294 328
515 4 2 3 1 199 294 184 325
516 4 2 3 1 173 299 190 313
517 4 2 3 1 164 143 155 300
518 4 2 3 1 116 114 307 333
519 4 2 3 1 224 303 209 331
520 4 2 3 1 241 86 70 289
521 4 2 3 1 286 296 274 333
522 4 2 3 1 274 296 284 323
523 4 2 3 1 113 114 115 286
524 4 2 3 1 119 121 108 299
525 4 2 3 1 78 312 80 314
526 4 2 3 1 173 200 288 313
527 4 2 3 1 105 124 130 304
528 4 2 3 1 228 307 220 337
529 4 2 3 1 174 294 180 298
530 4 2 3 1 85 96 74 301
531 4 2 3 1 113 286 115 336
532 4 2 3 1 281 298 293 320
533 4 2 3 1 304 305 130 336
534 4 2 3 1 184 294 199 328
535 4 2 3 1 182 309 185 313
536 4 2 3 1 73 95 87 303
537 4 2 3 1 199 320 294 325
538 4 2 3 1 283 292 308 312
539 4 2 3 1 293 299 280 313
540 4 2 3 1 173 188 208 288
541 4 2 3 1 182 282 183 309
542 4 2 3 1 292 312 283 316
543 4 2 3 1 93 95 92 303
544 4 2 3 1 131 116 114 307
545 4 2 3 1 216 217 215 285
546 4 2 3 1 117 305 113 336
547 4 2 3 1 302 325 198 328
548 4 2 3 1 242 257 294 298
549 4 2 3 1 162 138 164 292
550 4 2 3 1 106 112 111 293
551 4 2 3 1 159 146 140 304
552 4 2 3 1 194 197 195 301
553 4 2 3 1 181 282 182 320
554 4 2 3 1 282 315 294 325
555 4 2 3 1 285 311 288 332
556 4 2 3 1 145 296 156 323
557 4 2 3 1 151 297 165 321
558 4 2 3 1 178 121 106 293
559 4 2 3 1 180 298 294 320
560 4 2 3 1 282 313 182 320
561 4 2 3 1 221 224 209 331
562 4 2 3 1 112 121 119 293
563 4 2 3 1 182 282 309 313
564 4 2 3 1 89 71 88 300
565 4 2 3 1 139 156 157 306
566 4 2 3 1 77 72 90 302
567 4 2 3 1 215 216 285 332
568 4 2 3 1 188 197 175 301
569 4 2 3 1 292 300 277 312
570 4 2 3 1 246 241 247 289
571 4 2 3 1 114 115 286 333
572 4 2 3 1 242 268 257 298
573 4 2 3 1 171 178 106 293
574 4 2 3 1 280 299 288 313
575 4 2 3 1 294 320 282 325
576 4 2 3 1 174 294 242 328
577 4 2 3 1 183 182 181 282
578 4 2 3 1 151 165 147 321
579 4 2 3 1 81 79 80 283
580 4 2 3 1 234 208 223 299
581 4 2 3 1 228 220 210 337
582 4 2 3 1 199 181 320 325
583 4 2 3 1 174 180 193 298
584 4 2 3 1 286 305 276 336
585 4 2 3 1 199 184 181 325
586 4 2 3 1 146 165 297 330
587 4 2 3 1 278 325 302 328
588 4 2 3 1 123 111 104 298
589 4 2 3 1 97 290 72 314
590 4 2 3 1 97 290 314 334
591 4 2 3 1 197 188 185 309
592 4 2 3 1 173 191 190 299
593 4 2 3 1 71 292 98 312
594 4 2 3 1 166 291 150 323
595 4 2 3 1 183 282 181 325
596 4 2 3 1 207 295 213 332
597 4 2 3 1 97 82 290 334
598 4 2 3 1 147 148 149 284
599 4 2 3 1 146 165 140 297
600 4 2 3 1 291 317 150 323
601 4 2 3 1 306 307 274 333
602 4 2 3 1 174 189 294 328
603 4 2 3 1 103 119 125 299
604 4 2 3 1 79 283 81 334
605 4 2 3 1 166 139 291 323
606 4 2 3 1 97 314 79 334
607 4 2 3 1 276 305 304 336
608 4 2 3 1 85 172 72 290
609 4 2 3 1 291 331 285 337
610 4 2 3 1 240 257 264 298
611 4 2 3 1 294 315 282 320
612 4 2 3 1 267 239 140 297
613 4 2 3 1 285 329 291 337
614 4 2 3 1 147 284 149 321
615 4 2 3 1 97 79 82 334
616 4 2 3 1 80 283 312 316
617 4 2 3 1 223 206 230 299
618 4 2 3 1 156 145 144 296
619 4 2 3 1 95 295 84 316
620 4 2 3 1 87 83 98 292
621 4 2 3 1 81 283 80 316
622 4 2 3 1 78 289 86 312
623 4 2 3 1 70 289 78 314
624 4 2 3 1 212 207 69 295
625 4 2 3 1 195 172 85 290
626 4 2 3 1 289 312 78 314
627 4 2 3 1 148 284 147 330
628 4 2 3 1 275 292 308 316
629 4 2 3 1 288 311 279 332
630 4 2 3 1 127 105 130 336
631 4 2 3 1 149 284 148 317
632 4 2 3 1 148 323 284 330
633 4 2 3 1 184 199 189 328
634 4 2 3 1 267 140 155 297
635 4 2 3 1 262 240 120 305
636 4 2 3 1 214 207 213 332
637 4 2 3 1 178 293 179 313
638 4 2 3 1 274 307 306 337
639 4 2 3 1 182 313 179 320
640 4 2 3 1 277 318 297 321
641 4 2 3 1 283 310 314 335
642 4 2 3 1 222 208 232 288
643 4 2 3 1 239 253 265 297
644 4 2 3 1 284 148 317 323
645 4 2 3 1 322 331 295 332
646 4 2 3 1 283 312 289 314
647 4 2 3 1 173 190 200 313
648 4 2 3 1 147 284 321 330
649 4 2 3 1 181 182 179 320
650 4 2 3 1 278 314 310 335
651 4 2 3 1 117 132 113 305
652 4 2 3 1 294 315 278 325
653 4 2 3 1 219 331 291 337
654 4 2 3 1 213 295 224 331
655 4 2 3 1 79 314 283 334
656 4 2 3 1 274 285 327 337
657 4 2 3 1 295 322 275 331
658 4 2 3 1 95 93 84 295
659 4 2 3 1 173 200 188 288
660 4 2 3 1 174 199 180 294
661 4 2 3 1 280 307 286 324
662 4 2 3 1 282 320 181 325
663 4 2 3 1 290 310 283 334
664 4 2 3 1 282 183 309 325
665 4 2 3 1 117 113 115 336
666 4 2 3 1 206 228 122 307
667 4 2 3 1 297 318 276 330
668 4 2 3 1 199 180 294 320
669 4 2 3 1 282 309 288 311
670 4 2 3 1 69 212 16 207
671 4 2 3 1 277 289 287 335
672 4 2 3 1 185 182 183 309
673 4 2 3 1 274 285 324 327
674 4 2 3 1 86 241 26 246
675 4 2 3 1 285 322 311 332
676 4 2 3 1 285 274 329 337
677 4 2 3 1 179 293 171 320
678 4 2 3 1 287 289 278 335
679 4 2 3 1 82 85 97 290
680 4 2 3 1 198 325 184 328
681 4 2 3 1 288 309 282 313
682 4 2 3 1 137 128 144 296
683 4 2 3 1 127 296 105 336
684 4 2 3 1 71 98 88 312
685 4 2 3 1 240 104 120 305
686 4 2 3 1 213 295 331 332
687 4 2 3 1 145 296 323 330
688 4 2 3 1 291 329 285 331
689 4 2 3 1 284 323 296 330
690 4 2 3 1 94 316 295 334
691 4 2 3 1 283 314 290 334
692 4 2 3 1 250 249 251 287
693 4 2 3 1 150 166 154 291
694 4 2 3 1 262 254 240 305
695 4 2 3 1 216 331 285 332
696 4 2 3 1 97 72 77 314
697 4 2 3 1 199 294 189 328
698 4 2 3 1 212 69 93 295
699 4 2 3 1 219 291 205 337
700 4 2 3 1 166 156 139 323
701 4 2 3 1 311 322 279 332
702 4 2 3 1 225 69 17 207
703 4 2 3 1 282 311 288 313
704 4 2 3 1 187 42 110 171
705 4 2 3 1 273 284 308 329
706 4 2 3 1 40 108 121 176
707 4 2 3 1 283 310 290 314
708 4 2 3 1 105 128 137 296
709 4 2 3 1 145 323 148 330
710 4 2 3 1 316 322 295 334
711 4 2 3 1 246 25 86 243
712 4 2 3 1 285 331 322 332
713 4 2 3 1 240 305 254 319
714 4 2 3 1 155 165 151 297
715 4 2 3 1 260 241 27 70
716 4 2 3 1 32 137 153 124
717 4 2 3 1 225 17 69 91
718 4 2 3 1 233 51 205 139
719 4 2 3 1 114 116 115 333
720 4 2 3 1 206 122 103 307
721 4 2 3 1 213 212 224 295
722 4 2 3 1 243 25 86 75
723 4 2 3 1 279 295 322 334
724 4 2 3 1 150 317 148 323
725 4 2 3 1 286 324 307 333
726 4 2 3 1 70 27 260 76
727 4 2 3 1 294 325 278 328
728 4 2 3 1 88 78 86 312
729 4 2 3 1 56 267 239 140
730 4 2 3 1 162 317 292 321
731 4 2 3 1 77 70 78 314
732 4 2 3 1 283 316 81 334
733 4 2 3 1 284 317 149 321
734 4 2 3 1 127 333 296 336
735 4 2 3 1 281 294 298 320
736 4 2 3 1 208 222 218 288
737 4 2 3 1 242 257 252 294
738 4 2 3 1 179 178 171 293
739 4 2 3 1 179 313 293 320
740 4 2 3 1 273 310 282 311
741 4 2 3 1 290 309 186 325
742 4 2 3 1 284 274 323 329
743 4 2 3 1 272 134 264 298
744 4 2 3 1 317 323 291 329
745 4 2 3 1 273 308 284 318
746 4 2 3 1 273 282 310 315
747 4 2 3 1 196 290 186 325
748 4 2 3 1 284 318 308 321
749 4 2 3 1 221 291 219 331
750 4 2 3 1 187 110 134 298
751 4 2 3 1 289 314 278 335
752 4 2 3 1 178 179 190 313
753 4 2 3 1 85 72 97 290
754 4 2 3 1 230 135 238 299
755 4 2 3 1 212 16 93 69
756 4 2 3 1 270 260 76 302
757 4 2 3 1 108 176 202 299
758 4 2 3 1 106 121 112 293
759 4 2 3 1 201 187 134 298
760 4 2 3 1 70 241 26 86
761 4 2 3 1 51 233 154 139
762 4 2 3 1 206 220 228 307
763 4 2 3 1 108 202 135 299
764 4 2 3 1 275 317 291 329
765 4 2 3 1 322 324 273 329
766 4 2 3 1 155 267 56 140
767 4 2 3 1 94 84 295 316
768 4 2 3 1 283 310 322 334
769 4 2 3 1 275 316 308 322
770 4 2 3 1 269 75 243 300
771 4 2 3 1 172 21 85 72
772 4 2 3 1 161 87 11 71
773 4 2 3 1 308 316 283 322
774 4 2 3 1 78 70 86 289
775 4 2 3 1 274 324 285 329
776 4 2 3 1 285 324 322 329
777 4 2 3 1 210 231 306 337
778 4 2 3 1 220 307 206 327
779 4 2 3 1 277 308 318 321
780 4 2 3 1 264 134 123 298
781 4 2 3 1 106 110 42 171
782 4 2 3 1 183 186 309 325
783 4 2 3 1 91 225 236 301
784 4 2 3 1 273 311 282 326
785 4 2 3 1 134 272 201 298
786 4 2 3 1 242 266 66 174
787 4 2 3 1 40 121 178 176
788 4 2 3 1 71 87 98 292
789 4 2 3 1 174 193 67 268
790 4 2 3 1 248 302 245 328
791 4 2 3 1 275 285 322 329
792 4 2 3 1 288 309 279 311
793 4 2 3 1 275 285 329 331
794 4 2 3 1 270 76 99 302
795 4 2 3 1 191 62 234 173
796 4 2 3 1 283 314 289 335
797 4 2 3 1 117 130 305 336
798 4 2 3 1 202 238 135 299
799 4 2 3 1 213 207 212 295
800 4 2 3 1 281 315 320 326
801 4 2 3 1 230 125 135 299
802 4 2 3 1 273 282 315 326
803 4 2 3 1 195 21 85 172
804 4 2 3 1 174 189 199 294
805 4 2 3 1 284 276 318 330
806 4 2 3 1 115 286 333 336
807 4 2 3 1 285 275 322 331
808 4 2 3 1 100 75 269 300
809 4 2 3 1 129 116 307 333
810 4 2 3 1 308 322 283 335
811 4 2 3 1 189 66 266 174
812 4 2 3 1 307 324 274 333
813 4 2 3 1 205 219 221 291
814 4 2 3 1 273 322 308 335
815 4 2 3 1 67 242 174 268
816 4 2 3 1 256 266 242 328
817 4 2 3 1 221 233 205 291
818 4 2 3 1 186 196 172 290
819 4 2 3 1 173 62 234 208
820 4 2 3 1 291 329 274 337
821 4 2 3 1 290 310 278 314
822 4 2 3 1 100 169 158 300
823 4 2 3 1 204 194 101 301
824 4 2 3 1 90 72 22 192
825 4 2 3 1 279 310 290 334
826 4 2 3 1 101 91 236 301
827 4 2 3 1 256 242 294 328
828 4 2 3 1 282 320 315 326
829 4 2 3 1 279 322 310 334
830 4 2 3 1 99 192 203 302
831 4 2 3 1 268 201 272 298
832 4 2 3 1 89 158 12 71
833 4 2 3 1 213 331 216 332
834 4 2 3 1 275 295 316 322
835 4 2 3 1 138 161 11 71
836 4 2 3 1 278 310 290 325
837 4 2 3 1 270 203 177 302
838 4 2 3 1 273 318 315 335
839 4 2 3 1 274 324 307 327
840 4 2 3 1 293 313 282 320
841 4 2 3 1 115 333 127 336
842 4 2 3 1 194 74 101 301
843 4 2 3 1 269 143 169 300
844 4 2 3 1 202 234 238 299
845 4 2 3 1 139 154 166 291
846 4 2 3 1 137 32 105 124
847 4 2 3 1 99 90 192 302
848 4 2 3 1 89 100 158 300
849 4 2 3 1 281 320 293 326
850 4 2 3 1 283 312 308 335
851 4 2 3 1 162 152 292 317
852 4 2 3 1 309 310 282 325
853 4 2 3 1 170 160 235 303
854 4 2 3 1 308 312 277 335
855 4 2 3 1 289 312 283 335
856 4 2 3 1 263 240 254 319
857 4 2 3 1 137 296 145 330
858 4 2 3 1 284 323 317 329
859 4 2 3 1 280 313 311 326
860 4 2 3 1 315 318 287 335
861 4 2 3 1 204 236 175 301
862 4 2 3 1 106 178 41 121
863 4 2 3 1 136 126 237 306
864 4 2 3 1 236 204 101 301
865 4 2 3 1 92 15 93 227
866 4 2 3 1 270 99 203 302
867 4 2 3 1 60 211 232 175
868 4 2 3 1 100 269 169 300
869 4 2 3 1 211 225 214 301
870 4 2 3 1 201 268 193 298
871 4 2 3 1 15 93 227 212
872 4 2 3 1 232 188 60 175
873 4 2 3 1 215 222 214 332
874 4 2 3 1 259 243 258 300
875 4 2 3 1 47 123 104 264
876 4 2 3 1 278 310 315 335
877 4 2 3 1 275 308 317 329
878 4 2 3 1 290 310 309 325
879 4 2 3 1 311 313 282 326
880 4 2 3 1 235 227 92 303
881 4 2 3 1 72 172 22 192
882 4 2 3 1 245 248 260 302
883 4 2 3 1 186 172 195 290
884 4 2 3 1 286 274 324 333
885 4 2 3 1 239 261 57 140
886 4 2 3 1 277 308 292 312
887 4 2 3 1 118 296 127 333
888 4 2 3 1 125 103 230 37
889 4 2 3 1 255 239 267 297
890 4 2 3 1 178 171 106 41
891 4 2 3 1 130 120 117 305
892 4 2 3 1 226 205 52 139
893 4 2 3 1 202 191 234 299
894 4 2 3 1 177 302 198 328
895 4 2 3 1 183 196 186 325
896 4 2 3 1 124 153 167 304
897 4 2 3 1 142 136 168 306
898 4 2 3 1 281 315 294 320
899 4 2 3 1 143 269 259 300
900 4 2 3 1 124 167 133 304
901 4 2 3 1 145 148 147 330
902 4 2 3 1 242 252 256 294
903 4 2 3 1 150 149 148 317
904 4 2 3 1 69 94 84 295
905 4 2 3 1 284 317 308 329
906 4 2 3 1 292 308 277 321
907 4 2 3 1 133 271 109 304
908 4 2 3 1 159 271 167 304
909 4 2 3 1 288 311 280 313
910 4 2 3 1 159 261 271 304
911 4 2 3 1 229 220 206 327
912 4 2 3 1 283 322 316 334
913 4 2 3 1 180 179 171 320
914 4 2 3 1 270 177 245 302
915 4 2 3 1 280 293 313 326
916 4 2 3 1 309 310 279 311
917 4 2 3 1 166 150 148 323
918 4 2 3 1 296 333 286 336
919 4 2 3 1 277 312 289 335
920 4 2 3 1 278 315 287 335
921 4 2 3 1 102 235 92 303
922 4 2 3 1 261 57 140 159
923 4 2 3 1 273 286 324 326
924 4 2 3 1 255 253 239 297
925 4 2 3 1 52 157 226 139
926 4 2 3 1 161 138 152 292
927 4 2 3 1 231 219 205 337
928 4 2 3 1 138 12 158 71
929 4 2 3 1 263 251 252 319
930 4 2 3 1 308 322 273 329
931 4 2 3 1 307 327 220 337
932 4 2 3 1 235 160 209 303
933 4 2 3 1 279 322 295 332
934 4 2 3 1 83 81 80 316
935 4 2 3 1 162 149 317 321
936 4 2 3 1 73 170 102 303
937 4 2 3 1 211 175 236 301
938 4 2 3 1 168 237 157 306
939 4 2 3 1 275 308 292 317
940 4 2 3 1 157 237 226 306
941 4 2 3 1 274 327 307 337
942 4 2 3 1 74 194 20 195
943 4 2 3 1 189 198 184 328
944 4 2 3 1 286 280 324 326
945 4 2 3 1 224 227 209 303
946 4 2 3 1 293 282 313 326
947 4 2 3 1 279 309 290 310
948 4 2 3 1 282 310 309 311
949 4 2 3 1 167 271 133 304
950 4 2 3 1 110 111 123 298
951 4 2 3 1 245 302 177 328
952 4 2 3 1 183 181 184 325
953 4 2 3 1 187 193 180 298
954 4 2 3 1 77 90 76 302
955 4 2 3 1 144 137 31 128
956 4 2 3 1 191 176 190 299
957 4 2 3 1 88 75 89 300
958 4 2 3 1 217 229 218 327
959 4 2 3 1 282 293 320 326
960 4 2 3 1 210 220 231 337
961 4 2 3 1 216 213 224 331
962 4 2 3 1 102 170 235 303
963 4 2 3 1 137 105 31 128
964 4 2 3 1 159 153 146 304
965 4 2 3 1 277 287 318 335
966 4 2 3 1 108 125 119 299
967 4 2 3 1 138 162 152 292
968 4 2 3 1 129 116 122 307
969 4 2 3 1 136 237 168 306
970 4 2 3 1 156 142 157 306
971 4 2 3 1 210 237 126 306
972 4 2 3 1 79 81 82 334
973 4 2 3 1 151 147 149 321
974 4 2 3 1 275 329 291 331
975 4 2 3 1 118 128 105 296
976 4 2 3 1 65 266 245 328
977 4 2 3 1 107 136 142 306
978 4 2 3 1 308 317 284 321
979 4 2 3 1 275 322 308 329
980 4 2 3 1 292 317 308 321
981 4 2 3 1 127 118 105 296
982 4 2 3 1 85 74 20 195
983 4 2 3 1 65 189 266 328
984 4 2 3 1 109 271 244 304
985 4 2 3 1 273 315 310 335
986 4 2 3 1 264 104 47 240
987 4 2 3 1 65 245 177 328
988 4 2 3 1 206 230 103 37
989 4 2 3 1 146 137 145 330
990 4 2 3 1 140 165 155 297
991 4 2 3 1 131 103 122 307
992 4 2 3 1 65 177 189 328
993 4 2 3 1 81 316 94 334
994 4 2 3 1 272 264 268 298
995 4 2 3 1 141 170 73 303
996 4 2 3 1 104 132 120 305
997 4 2 3 1 230 238 234 299
998 4 2 3 1 291 323 274 329
999 4 2 3 1 307 324 280 327
1000 4 2 3 1 145 137 144 296
1001 4 2 3 1 115 118 127 333
1002 4 2 3 1 134 110 123 298
1003 4 2 3 1 141 163 160 303
1004 4 2 3 1 162 149 152 317
1005 4 2 3 1 201 193 187 298
1006 4 2 3 1 164 158 143 300
1007 4 2 3 1 221 219 216 331
1008 4 2 3 1 176 191 202 299
1009 4 2 3 1 265 244 261 304
1010 4 2 3 1 215 213 216 332
1011 4 2 3 1 253 251 254 319
1012 4 2 3 1 148 145 156 323
1013 4 2 3 1 279 311 310 322
1014 4 2 3 1 135 125 108 299
1015 4 2 3 1 177 192 198 302
1016 4 2 3 1 74 96 91 301
1017 4 2 3 1 260 28 270 76
1018 4 2 3 1 75 243 24 269
1019 4 2 3 1 225 211 236 301
1020 4 2 3 1 126 107 129 306
1021 4 2 3 1 270 245 260 302
1022 4 2 3 1 243 259 269 300
1023 4 2 3 1 93 69 84 295
1024 4 2 3 1 175 197 194 301
1025 4 2 3 1 189 177 198 328
1026 4 2 3 1 204 175 194 301
1027 4 2 3 1 248 245 256 328
1028 4 2 3 1 169 143 158 300
1029 4 2 3 1 28 99 270 76
1030 4 2 3 1 130 124 109 304
1031 4 2 3 1 210 231 226 306
1032 4 2 3 1 99 76 90 302
1033 4 2 3 1 202 176 108 39
1034 4 2 3 1 192 177 203 302
1035 4 2 3 1 92 95 73 303
1036 4 2 3 1 101 74 91 301
1037 4 2 3 1 39 108 202 135
1038 4 2 3 1 24 75 269 100
1039 4 2 3 1 100 89 75 300
1040 4 2 3 1 187 43 134 110
1041 4 2 3 1 277 318 308 335
1042 4 2 3 1 94 81 84 316
1043 4 2 3 1 257 268 264 298
1044 4 2 3 1 201 43 134 187
1045 4 2 3 1 185 183 186 309
1046 4 2 3 1 136 126 34 237
1047 4 2 3 1 273 310 311 322
1048 4 2 3 1 49 235 170 160
1049 4 2 3 1 234 223 230 299
1050 4 2 3 1 236 18 225 91
1051 4 2 3 1 163 152 150 317
1052 4 2 3 1 162 164 151 321
1053 4 2 3 1 88 80 78 312
1054 4 2 3 1 73 102 92 303
1055 4 2 3 1 168 142 29 136
1056 4 2 3 1 273 308 318 335
1057 4 2 3 1 153 33 124 167
1058 4 2 3 1 237 168 157 53
1059 4 2 3 1 157 226 237 53
1060 4 2 3 1 179 182 190 313
1061 4 2 3 1 58 159 261 271
1062 4 2 3 1 58 167 159 271
1063 4 2 3 1 192 203 23 99
1064 4 2 3 1 91 236 18 101
1065 4 2 3 1 124 33 133 167
1066 4 2 3 1 169 158 13 100
1067 4 2 3 1 79 77 78 314
1068 4 2 3 1 49 235 160 209
1069 4 2 3 1 153 159 167 304
1070 4 2 3 1 133 109 124 304
1071 4 2 3 1 92 235 14 227
1072 4 2 3 1 235 209 227 303
1073 4 2 3 1 116 131 122 307
1074 4 2 3 1 198 196 184 325
1075 4 2 3 1 311 324 280 326
1076 4 2 3 1 192 23 90 99
1077 4 2 3 1 157 142 168 306
1078 4 2 3 1 100 158 13 89
1079 4 2 3 1 220 327 217 337
1080 4 2 3 1 186 197 185 309
1081 4 2 3 1 264 272 48 134
1082 4 2 3 1 238 38 135 230
1083 4 2 3 1 96 82 94 334
1084 4 2 3 1 273 324 311 326
1085 4 2 3 1 141 160 170 303
1086 4 2 3 1 126 210 34 237
1087 4 2 3 1 133 271 44 109
1088 4 2 3 1 182 200 190 313
1089 4 2 3 1 101 204 19 194
1090 4 2 3 1 14 102 235 92
1091 4 2 3 1 64 270 203 177
1092 4 2 3 1 261 244 271 304
1093 4 2 3 1 120 132 117 305
1094 4 2 3 1 19 101 194 74
1095 4 2 3 1 107 29 142 136
1096 4 2 3 1 220 217 219 337
1097 4 2 3 1 107 126 136 306
1098 4 2 3 1 146 147 165 330
1099 4 2 3 1 115 127 117 336
1100 4 2 3 1 48 123 264 134
1101 4 2 3 1 269 54 143 259
1102 4 2 3 1 213 215 214 332
1103 4 2 3 1 230 38 135 125
1104 4 2 3 1 64 270 177 245
1105 4 2 3 1 98 80 88 312
1106 4 2 3 1 269 54 169 143
1107 4 2 3 1 73 9 102 170
1108 4 2 3 1 210 226 237 306
1109 4 2 3 1 179 180 181 320
1110 4 2 3 1 59 204 236 175
1111 4 2 3 1 236 211 59 175
1112 4 2 3 1 109 271 44 244
1113 4 2 3 1 117 127 130 336
1114 4 2 3 1 95 84 83 316
1115 4 2 3 1 68 272 268 201
1116 4 2 3 1 238 234 202 63
1117 4 2 3 1 79 97 77 314
1118 4 2 3 1 268 193 68 201
1119 4 2 3 1 63 234 202 191
1120 4 2 3 1 24 25 243 75
1121 4 2 3 1 170 73 9 141
1122 4 2 3 1 43 187 42 110
1123 4 2 3 1 148 156 166 323
1124 4 2 3 1 199 181 180 320
1125 4 2 3 1 145 147 146 330
1126 4 2 3 1 176 40 108 39
1127 4 2 3 1 260 27 28 76
1128 4 2 3 1 221 216 224 331
1129 4 2 3 1 116 129 118 333
1130 4 2 3 1 184 196 183 325
1131 4 2 3 1 266 256 245 328
1132 4 2 3 1 16 17 69 207
1133 4 2 3 1 241 26 27 70
1134 4 2 3 1 152 149 150 317
1135 4 2 3 1 26 25 86 246
1136 4 2 3 1 239 57 56 140
1137 4 2 3 1 52 205 51 139
1138 4 2 3 1 162 151 149 321
1139 4 2 3 1 92 14 15 227
1140 4 2 3 1 82 81 94 334
1141 4 2 3 1 118 115 116 333
1142 4 2 3 1 6 133 167 271
1143 4 2 3 1 2 269 169 100
1144 4 2 3 1 99 203 4 270
1145 4 2 3 1 5 168 136 237
1146 4 2 3 1 235 102 1 170
1147 4 2 3 1 236 204 3 101
1148 4 2 3 1 135 202 7 238
1149 4 2 3 1 134 272 8 201
1150 4 2 3 1 153 33 32 124
1151 4 2 3 1 18 17 225 91
1152 4 2 3 1 142 30 29 107
1153 4 2 3 1 84 81 83 316
1154 4 2 3 1 66 242 174 67
1155 4 2 3 1 61 62 173 208
1156 4 2 3 1 263 254 251 319
1157 4 2 3 1 22 21 172 72
1158 4 2 3 1 22 23 90 192
1159 4 2 3 1 178 41 121 40
1160 4 2 3 1 93 15 16 212
1161 4 2 3 1 158 12 13 89
1162 4 2 3 1 85 20 21 195
1163 4 2 3 1 42 106 171 41
1164 4 2 3 1 160 50 49 209
1165 4 2 3 1 138 11 12 71
1166 4 2 3 1 226 157 52 53
1167 4 2 3 1 55 143 54 259
1168 4 2 3 1 261 57 159 58
1169 4 2 3 1 47 123 264 48
1170 4 2 3 1 229 217 220 327
1171 4 2 3 1 105 31 32 137
1172 4 2 3 1 87 11 10 161
1173 4 2 3 1 230 38 125 37
1174 4 2 3 1 45 120 262 46
1175 4 2 3 1 155 267 55 56
1176 4 2 3 1 36 228 35 122
1177 4 2 3 1 177 65 64 245
1178 4 2 3 1 234 63 62 191
1179 4 2 3 1 68 67 193 268
1180 4 2 3 1 61 232 188 60
1181 4 2 3 1 65 189 66 266
1182 4 2 3 1 194 20 19 74
1183 4 2 3 1 35 210 34 126
1184 4 2 3 1 154 233 51 50
1185 4 2 3 1 59 211 60 175
1186 4 2 3 1 39 202 7 135
1187 4 2 3 1 33 6 133 167
1188 4 2 3 1 203 4 23 99
1189 4 2 3 1 4 28 99 270
1190 4 2 3 1 43 134 8 201
1191 4 2 3 1 58 6 167 271
1192 4 2 3 1 237 5 168 53
1193 4 2 3 1 169 13 2 100
1194 4 2 3 1 236 3 18 101
1195 4 2 3 1 44 45 109 244
1196 4 2 3 1 2 24 269 100
1197 4 2 3 1 1 14 102 235
1198 4 2 3 1 204 19 3 101
1199 4 2 3 1 272 68 8 201
1200 4 2 3 1 238 202 7 63
1201 4 2 3 1 48 272 8 134
1202 4 2 3 1 38 135 7 238
1203 4 2 3 1 46 47 104 240
1204 4 2 3 1 37 103 206 36
1205 4 2 3 1 73 10 9 141
1206 4 2 3 1 144 31 30 128
1207 4 2 3 1 6 133 271 44
1208 4 2 3 1 168 29 5 136
1209 4 2 3 1 136 34 5 237
1210 4 2 3 1 102 9 1 170
1211 4 2 3 1 270 203 4 64
1212 4 2 3 1 1 49 235 170
1213 4 2 3 1 3 59 204 236
1214 4 2 3 1 231 220 219 337
1215 4 2 3 1 2 269 54 169
1216 4 2 3 1 321 300 155 277
1217 4 2 3 1 321 155 300 164
1218 4 2 3 1 298 305 132 104
1219 4 2 3 1 132 305 298 281
1220 4 2 3 1 132 111 298 104
1221 4 2 3 1 298 111 132 281
1222 4 2 3 1 299 307 131 280
1223 4 2 3 1 131 307 299 103
1224 4 2 3 1 131 119 299 280
1225 4 2 3 1 299 119 131 103
1226 4 2 3 1 306 128 333 296
1227 4 2 3 1 306 333 128 107
1228 4 2 3 1 118 333 128 296
1229 4 2 3 1 118 128 333 107
1230 4 2 3 1 218 332 222 215
1231 4 2 3 1 222 332 218 288
1232 4 2 3 1 305 244 120 262
1233 4 2 3 1 305 120 244 304
1234 4 2 3 1 209 154 50 233
1235 4 2 3 1 209 50 154 160
1236 4 2 3 1 210 122 35 228
1237 4 2 3 1 35 122 210 126
1238 4 2 3 1 316 98 80 83
1239 4 2 3 1 316 80 98 312
1240 4 2 3 1 327 311 324 280
1241 4 2 3 1 327 324 311 285
1242 4 2 3 1 331 291 233 221
1243 4 2 3 1 233 291 331 303
1244 4 2 3 1 233 209 331 221
1245 4 2 3 1 331 209 233 303
1246 4 2 3 1 318 319 297 276
1247 4 2 3 1 297 319 318 287
1248 4 2 3 1 244 120 45 109
1249 4 2 3 1 244 45 120 262
1250 4 2 3 1 87 141 10 73
1251 4 2 3 1 10 141 87 161
1252 4 2 3 1 309 200 188 185
1253 4 2 3 1 309 188 200 288
1254 4 2 3 1 188 208 61 173
1255 4 2 3 1 61 208 188 232
1256 4 2 3 1 174 266 328 242
1257 4 2 3 1 174 328 266 189
1258 4 2 3 1 155 259 55 267
1259 4 2 3 1 55 259 155 143
1260 4 2 3 1 232 175 301 188
1261 4 2 3 1 301 175 232 211
1262 4 2 3 1 139 233 291 205
1263 4 2 3 1 139 291 233 154
1264 4 2 3 1 161 71 292 87
1265 4 2 3 1 292 71 161 138
1266 4 2 3 1 240 120 46 262
1267 4 2 3 1 240 46 120 104
1268 4 2 3 1 319 315 318 287
1269 4 2 3 1 319 318 315 281
1270 4 2 3 1 122 206 36 228
1271 4 2 3 1 122 36 206 103
1272 4 2 3 1 144 107 30 142
1273 4 2 3 1 30 107 144 128
1274 4 2 3 1 335 322 310 273
1275 4 2 3 1 335 310 322 283
1276 4 2 3 1 325 315 310 282
1277 4 2 3 1 325 310 315 278
1278 4 2 3 1 324 322 311 285
1279 4 2 3 1 324 311 322 273
1280 4 2 3 1 240 257 319 263
1281 4 2 3 1 257 281 240 319
1282 4 2 3 1 240 281 257 298
1283 4 2 3 1 223 206 327 229
1284 4 2 3 1 280 223 206 327
1285 4 2 3 1 280 206 223 299
$EndElements
