$MeshFormat
2.2 0 8
$EndMeshFormat
$PhysicalNames
3
2 1 "Fixed"
2 2 "Load"
3 3 "Volume"
$EndPhysicalNames
$Nodes
582
1 0.5 99 -35
2 99.5 99 -35
3 99.5 1 -35
4 2 1 -35
5 2 50 -35
6 0.5 50 -35
7 0.5 100 -34
8 99.5 100 -34
9 -1.110223024625e-16 50 -34.5
10 -1.110223024625e-16 99 -34.5
11 100 99 -34.5
12 100 1 -34.5
13 2 49 -34
14 0.5 49 -34
15 2 -2.22044604925e-16 -34
16 99.5 0 -34
17 2 -2.22044604925e-16 34
18 2 49 7.424217986585
19 2 50.42579703633 8.329036688785999
20 2 15.202260257823 24.904818702201
21 2 14.776463221493 25
22 2 11 25
23 2 10 26
24 2 10 34
25 2 9 35
26 2 1 35
27 -1.110223024625e-16 99.5 -34
28 100 99.5 -34
29 0.5 100 -15.63460554282
30 99.5 100 -15.63460554282
31 0 49.5 -34
32 -1.110223024625e-16 49.5 7.424217986585
33 0 50.212898518165 7.876627337685
34 -1.110223024625e-16 99.21289851816501 -15.18219619172
35 0 99.5 -15.63460554282
36 100 99.21289851816501 -15.18219619172
37 100 99.5 -15.63460554282
38 100 0.5 -34
39 100 0.5 34
40 100 1 34.5
41 100 9 34.5
42 100 9.5 34
43 100 9.5 26
44 100 11 24.5
45 100 14.776463221493 24.5
46 100 14.989361739658 24.4524093511
47 0.5 49 7.424217986585
48 99.5 -1.110223024625e-16 34
49 0.5 50.42579703633 8.329036688785999
50 0.5 99.42579703633 -14.72978684062
51 99.5 99.42579703633 -14.72978684062
52 99.5 15.202260257823 24.904818702201
53 99.5 14.776463221493 25
54 99.5 11 25
55 99.5 10 26
56 99.5 10 34
57 99.5 9 35
58 99.5 1 35
59 14.64285714285713 99 -35
60 28.78571428571427 99 -35
61 42.92857142857136 99 -35
62 57.07142857142843 99 -35
63 71.21428571428559 99 -35
64 85.35714285714279 99 -35
65 99.5 84.99999999999999 -35
66 99.5 70.99999999999999 -35
67 99.5 56.99999999999994 -35
68 99.5 42.99999999999988 -35
69 99.5 28.99999999999987 -35
70 99.5 14.99999999999993 -35
71 15.92857142857141 1 -35
72 29.85714285714279 1 -35
73 43.78571428571417 1 -35
74 57.71428571428555 1 -35
75 71.64285714285698 1 -35
76 85.5714285714285 1 -35
77 2 37.74999999999999 -35
78 2 25.49999999999995 -35
79 2 13.24999999999994 -35
80 0.5 86.75 -35
81 0.5 74.49999999999996 -35
82 0.5 62.24999999999994 -35
83 0.5 99.70710678118654 -34.70710678118655
84 14.64285714285713 100 -34
85 28.78571428571427 100 -34
86 42.92857142857136 100 -34
87 57.07142857142843 100 -34
88 71.21428571428559 100 -34
89 85.35714285714279 100 -34
90 99.5 99.70710678118654 -34.70710678118655
91 0.1464466094067254 50 -34.85355339059327
92 -1.110223024625e-16 86.75 -34.5
93 -1.110223024625e-16 74.49999999999996 -34.5
94 -1.110223024625e-16 62.24999999999994 -34.5
95 0.1464466094067254 99 -34.85355339059327
96 100 84.99999999999999 -34.5
97 100 70.99999999999999 -34.5
98 100 56.99999999999994 -34.5
99 100 42.99999999999988 -34.5
100 100 28.99999999999987 -34.5
101 100 14.99999999999993 -34.5
102 99.85355339059328 1 -34.85355339059328
103 99.85355339059328 99 -34.85355339059328
104 2 49.29289321881345 -34.70710678118655
105 0.5 49.29289321881345 -34.70710678118655
106 15.92857142857141 -2.22044604925e-16 -34
107 29.85714285714279 -2.22044604925e-16 -34
108 43.78571428571417 -2.22044604925e-16 -34
109 57.71428571428555 -2.22044604925e-16 -34
110 71.64285714285698 -2.22044604925e-16 -34
111 85.5714285714285 -2.22044604925e-16 -34
112 2 0.292893218813454 -34.70710678118655
113 99.5 0.2928932188134507 -34.70710678118655
114 2 0 -20.40000000000003
115 2 0 -6.80000000000007
116 2 0 6.799999999999955
117 2 0 20.40000000000001
118 2 49 -20.19192733780503
119 2 49 -6.38385467561007
120 2 49.46418148423649 8.268551166179993
121 2 26.94343918399137 19.37955803106141
122 2 38.68461811015979 13.85429735992181
123 2 10.29289321881345 25.29289321881345
124 2 9.70710678118655 34.70710678118655
125 2 0.2928932188134542 34.70710678118655
126 0.1464466094067254 99.85355339059328 -34
127 0 99.35355339059328 -34.35355339059328
128 99.85355339059328 99.85355339059328 -34
129 100 99.35355339059328 -34.35355339059328
130 14.64285714285713 100 -15.63460554282
131 28.78571428571427 100 -15.63460554282
132 42.92857142857136 100 -15.63460554282
133 57.07142857142843 100 -15.63460554282
134 71.21428571428559 100 -15.63460554282
135 85.35714285714279 100 -15.63460554282
136 99.5 100 -24.81730277140999
137 0.5 100 -24.81730277140999
138 0 49.64644660940672 -34.35355339059327
139 -1.110223024625e-16 49.5 -20.19192733780503
140 -1.110223024625e-16 49.5 -6.383854675610067
141 0 49.73209074211834 7.846384576382553
142 -1.110223024625e-16 62.4628985181637 2.11192145533108
143 -1.110223024625e-16 74.71289851816239 -3.65278442702284
144 -1.110223024625e-16 86.96289851816115 -9.417490309376792
145 0 99.4221665897975 -15.36669628493824
146 -1.110223024625e-16 99.5 -24.81730277140999
147 0.1464466094067254 49.14644660940673 -34
148 100 99.4221665897975 -15.36669628493824
149 100 99.5 -24.81730277140999
150 100 0.6464466094067254 -34.35355339059327
151 100 0.5 -20.40000000000003
152 100 0.5 -6.800000000000072
153 100 0.5 6.799999999999955
154 100 0.5 20.40000000000001
155 100 0.646446609406727 34.35355339059328
156 100 9.353553390593275 34.35355339059327
157 100 9.939339828220179 24.93933982822018
158 100 29.026617869408 17.84664176062758
159 100 43.06387399915804 11.24087417015515
160 100 57.10113012890801 4.635106579682756
161 100 71.13838625865797 -1.970661010789645
162 100 85.17564238840806 -8.576428601262098
163 99.85355339059328 0.1464466094067254 -34
164 0.5 49 -20.19192733780503
165 0.5 49 -6.383854675610067
166 99.5 -1.110223024625e-16 -20.40000000000003
167 99.5 -1.110223024625e-16 -6.800000000000072
168 99.5 -1.110223024625e-16 6.799999999999955
169 99.5 -1.110223024625e-16 20.40000000000001
170 15.92857142857141 -2.22044604925e-16 34
171 29.85714285714279 -2.22044604925e-16 34
172 43.78571428571417 -2.22044604925e-16 34
173 57.71428571428555 -2.22044604925e-16 34
174 71.64285714285698 -2.22044604925e-16 34
175 85.5714285714285 -2.22044604925e-16 34
176 0.5 49.46418148423649 8.268551166179991
177 14.64285714285713 99.42579703633 -14.72978684062
178 28.78571428571427 99.42579703633 -14.72978684062
179 42.92857142857136 99.42579703633 -14.72978684062
180 57.07142857142843 99.42579703633 -14.72978684062
181 71.21428571428559 99.42579703633 -14.72978684062
182 85.35714285714279 99.42579703633 -14.72978684062
183 0.5 62.6757970363288 2.564330806432034
184 0.5 74.92579703632759 -3.200375075921931
185 0.5 87.17579703632644 -8.965080958275925
186 15.92857142857141 15.202260257823 24.904818702201
187 29.85714285714279 15.202260257823 24.904818702201
188 43.78571428571417 15.202260257823 24.904818702201
189 57.71428571428555 15.202260257823 24.904818702201
190 71.64285714285698 15.202260257823 24.904818702201
191 85.5714285714285 15.202260257823 24.904818702201
192 99.5 29.23951638757307 18.29905111172855
193 99.5 43.27677251732317 11.6932835212561
194 99.5 57.3140286470732 5.087515930783663
195 99.5 71.35128477682323 -1.518251659688765
196 99.5 85.38854090657337 -8.12401925016124
197 15.92857142857141 14.776463221493 25
198 29.85714285714279 14.776463221493 25
199 43.78571428571417 14.776463221493 25
200 57.71428571428555 14.776463221493 25
201 71.64285714285698 14.776463221493 25
202 85.5714285714285 14.776463221493 25
203 15.92857142857141 11 25
204 29.85714285714279 11 25
205 43.78571428571417 11 25
206 57.71428571428555 11 25
207 71.64285714285698 11 25
208 85.5714285714285 11 25
209 15.92857142857141 10 26
210 29.85714285714279 10 26
211 43.78571428571417 10 26
212 57.71428571428555 10 26
213 71.64285714285698 10 26
214 85.5714285714285 10 26
215 99.5 10.29289321881346 25.29289321881345
216 15.92857142857141 10 34
217 29.85714285714279 10 34
218 43.78571428571417 10 34
219 57.71428571428555 10 34
220 71.64285714285698 10 34
221 85.5714285714285 10 34
222 99.5 9.70710678118655 34.70710678118655
223 15.92857142857141 9 35
224 29.85714285714279 9 35
225 43.78571428571417 9 35
226 57.71428571428555 9 35
227 71.64285714285698 9 35
228 85.5714285714285 9 35
229 15.92857142857141 1 35
230 29.85714285714279 1 35
231 43.78571428571417 1 35
232 57.71428571428555 1 35
233 71.64285714285698 1 35
234 85.5714285714285 1 35
235 99.5 0.2928932188134541 34.70710678118655
236 0.1464466094067254 99.85355339059328 -15.63460554282
237 99.85355339059328 99.85355339059328 -15.63460554282
238 99.5 99.844333179595 -15.09878702705649
239 0.5 99.844333179595 -15.09878702705649
240 0.1464466094067254 49.14644660940673 7.424217986585
241 0.1464466094067254 99.36344050406403 -14.86229447168465
242 0.1464466094067254 50.36344050406403 8.196529057720351
243 99.85355339059328 99.36344050406403 -14.86229447168465
244 99.85355339059328 15.13990372555703 24.77231107113535
245 99.85355339059328 14.776463221493 24.85355339059327
246 99.85355339059328 11 24.85355339059327
247 99.85355339059328 9.853553390593275 26
248 99.85355339059328 9.853553390593275 34
249 99.85355339059328 0.1464466094067254 34
250 99.85355339059328 9 34.85355339059328
251 99.85355339059328 1 34.85355339059328
252 88.25603365644965 50.00867970298543 -35
253 9.956608397269534 43.875 -35
254 37.63362896308984 85.60345513075754 -35
255 50.72901829458902 12.77216345093589 -35
256 64.04020217870004 86.86963600922468 -35
257 10.71270174735546 68.32397120976353 -35
258 23.26186018289449 12.84137332006402 -35
259 88.75908293667625 22.2892545705372 -35
260 85.97218081771808 76.81656734600767 -35
261 11.60518514779469 29.90221065640134 -35
262 20.82542946918768 39.12614892212656 -35
263 11.63810556453624 58.17421404455123 -35
264 20.52508195240203 62.48627316948051 -35
265 21.00878438794816 73.81298097335041 -35
266 30.41213633842005 67.14729485351917 -35
267 29.54414247731124 56.14783512557636 -35
268 39.55508020628784 60.85506096101597 -35
269 38.5821402493138 49.56286882543513 -35
270 48.99795169647388 54.36862927281599 -35
271 47.93871306010764 42.70009181679292 -35
272 58.62096575986115 47.25943702857499 -35
273 58.42379019132867 59.67003930795709 -35
274 37.28656954937534 38.77065130813042 -35
275 57.692586728507 35.54185255154502 -35
276 68.46430942541251 38.95052080148206 -35
277 67.23877609673427 25.54593858520674 -35
278 39.30701291216737 72.3992585454948 -35
279 12.0339734315814 20.37064821470477 -35
280 22.01829784637427 25.5700123986517 -35
281 32.22461448880365 20.19763287319314 -35
282 22.27627125836397 87.0763889373458 -35
283 19.86476711803342 52.91195434380927 -35
284 51.13446460627496 87.19801397633672 -35
285 57.82181035206037 74.44367042929026 -35
286 71.87778314526642 76.30315113160884 -35
287 88.63236120660225 36.18408253371664 -35
288 87.83953814879359 63.18374790731379 -35
289 77.62767228132766 56.6840063106311 -35
290 11.39076816211099 80.22807658521126 -35
291 63.53140527291618 12.80722074231942 -35
292 27.10111934265352 45.26233892201995 -35
293 45.99124561131073 31.89627076842424 -35
294 26.89442162445599 35.03423573269232 -35
295 77.81303917014868 13.79110003162609 -35
296 77.94977647757405 87.79421346830387 -35
297 48.69420354371022 66.56633034325461 -35
298 55.03150152420793 23.45073994842144 -35
299 30.30133251400891 77.32444865857599 -35
300 37.05539585860592 11.54800432500888 -35
301 42.47402504249139 21.4768563058602 -35
302 34.46909772205056 29.16070881052991 -35
303 78.93158079426554 29.3097886872697 -35
304 79.35474416137863 43.0572229307304 -35
305 11.22933498696396 9.844501073263615 -35
306 12.74473933920744 50.46866752851729 -35
307 78.27644946955365 67.64516581141885 -35
308 68.36201184555722 50.90578879371283 -35
309 89.258240424306 11.26075205599288 -35
310 9.933240815017864 90.14824300740128 -35
311 89.23706415233141 88.775926322982 -35
312 68.06507295466257 65.23835636153282 -35
313 7.433706239834692 48.82812271059829 -35
314 16.12226326345149 45.15416818171635 -35
315 12.24207488219861 37.95770863386164 -35
316 19.1818658053128 32.9290791541093 -35
317 47.7624726582949 77.5522081072166 -35
318 5.746598502078162 54.18873696262729 -35
319 1.25 49.15124456979379 -34.52878560844209
320 1.25 49.5058257828896 -34.8693628949658
321 2 40.1087486018225 1.745392737650474
322 2 10.78616415268068 -15.2386251429696
323 2 35.99140242935898 -7.142521694774821
324 2 17.48408764310373 14.51606895130098
325 2 5.780012895288644 30.47803042486957
326 2 31.40287128174743 -25.37993829236627
327 2 7.124999999999972 -27.87500000000003
328 2 28.20418298350293 4.339833620635841
329 2 12.98820326098069 0.7021525504366781
330 2 18.71820013086552 -25.22956665397241
331 2 25.27446044880287 -12.26652919895694
332 2 41.19661403684625 -26.49778088197186
333 2 7.443697044664994 13.59999999999998
334 2 6.486843189531012 20.02673274010881
335 2 11.67000068550621 20.78749920395377
336 2 38.76242404715418 -17.33153825754012
337 2 3.841295131215592 25.84457970459985
338 2 7.616282979462735 25.01785168707622
339 2 9.413204014662682 23.22499536999045
340 0.05298723175141201 99.66671708961441 -34.28226921472024
341 0.1427437139973692 99.59826788249818 -34.60353524139277
342 0.1583626652481387 99.32921620594075 -34.79998833767209
343 99.96342812586033 99.63122545294995 -34.27294140372981
344 99.95353569498509 99.26441334860121 -34.65945384273914
345 99.93671205870287 99.49644075829889 -34.55345215661242
346 99.76317037933249 99.79148044716362 -34.47899573611081
347 99.77008930087901 99.35685203082305 -34.84881305266809
348 64.14285714285701 100 -24.81730277141
349 49.99999999999989 100 -24.81730277141
350 21.7142857142857 100 -24.81730277141
351 35.85714285714282 100 -24.81730277141
352 78.28571428571418 100 -24.81730277141
353 9.632860496936392 100 -24.81730277141
354 90.36713950306358 100 -24.81730277141
355 0 93.19691354411771 -19.12465130728697
356 0 68.53382840001379 -23.59551870612454
357 0 53.73931135642156 -30.26068864357841
358 0 82.3283539440109 -23.4546480420101
359 0 61.42508240380847 -10.86590422640661
360 0 54.29584284714469 0.6549060955928052
361 0 92.875 -29.32945592242146
362 0 74.79261235683134 -14.19726914218818
363 0 59.00427759244914 -23.03631719533985
364 0.0529872317514109 49.71773078527977 -34.66671708961441
365 0.142743713997361 49.39646475860724 -34.59826788249817
366 0.1583626652481333 49.20001166232792 -34.32921620594076
367 100 31.7043817405146 2.251305001635178
368 100 5.000000000000007 31.03589838486224
369 100 49.93230242597706 -23.72337160661537
370 100 10.58116066766934 -13.52470768592717
371 100 9.872941075645414 11.88407342661347
372 100 93.02816455833013 -19.42612498792308
373 100 7.799999999999727 -27.20000000000002
374 100 72.0427770021228 -17.16900971401856
375 100 10.56361770930343 -0.06759132881198937
376 100 7.393221428302446 24.14754514018719
377 100 44.21565897676248 -3.335836872611969
378 100 32.91413722803336 -11.4311847638058
379 100 56.97456042806864 -11.41060660682861
380 100 21.9999999999999 -22.96104440509908
381 100 10.04848273202153 20.98006437124031
382 100 16.57544259952743 17.72963812444773
383 100 36.53706779189434 -23.65079909195805
384 100 21.18881555356734 -5.479553550662756
385 100 93.13476850028962 -28.38422872471291
386 100 82.89752759833897 -23.2434715783173
387 100 61.38992797123369 -24.26059758549251
388 100 6.378644285660499 27.11668870500988
389 100 19.82196942466104 7.360752238974863
390 100 43.61795157792112 -14.73288378489656
391 99.94701276824856 0.7177307852796987 -34.66671708961445
392 99.85725628600272 0.3964647586072091 -34.59826788249801
393 99.84163733475181 0.2000116623278728 -34.32921620594077
394 13.133760898986 0 0.6630205886351419
395 88.37526124996475 0 0.6595597332642242
396 50.74999999999986 0 -21.93750330443108
397 50.75142823856756 0 22.12977283134834
398 23.79824246148196 0 20.81656699726224
399 77.71608886574865 0 20.81664704896176
400 23.04371375474626 0 -22.72829004496818
401 78.51491489538716 0 -22.53064712594676
402 64.66740287020205 0 -22.04850242693193
403 57.73307835575199 0 -9.915589683724573
404 43.83160087192365 0 -9.859227335211678
405 50.80665717796554 0 2.149069166291341
406 35.68469509234604 0 1.544937175331569
407 65.87309552773891 0 1.50617068182401
408 29.32531119371033 0 -11.45104010034826
409 36.76558049387284 0 -22.32934346415987
410 72.20427303295428 0 -11.47219409403972
411 63.93887091915759 0 22.53746273375734
412 37.57681846096438 0 22.54916245743031
413 13.43446003108586 0 13.00506573095623
414 88.06553996891412 0 13.00506573095624
415 14.98391252130303 0 -12.46583616514445
416 86.52966987548486 0 -12.44387192505765
417 23.78049049095033 0 7.574250644534487
418 77.74001184183462 0 7.564354214241263
419 57.62044610159442 0 12.05889903468581
420 43.96743716582225 0 12.11205590170528
421 89.24163337035642 0 -23.7242917101784
422 89.24163337035645 0 23.72429171017829
423 12.25836662964349 0 -23.72429171017825
424 12.25836662964349 0 23.72429171017816
425 68.03847885890988 0 12.23821236894414
426 33.50554928976701 0 12.23616526417327
427 78.37160657973141 0 -2.839530278502757
428 23.12623517203513 0 -2.820251889151514
429 1.252054147976446 49.73917079979238 8.389602950378746
430 1.250410829595289 49.21216518807087 8.040104590687246
431 50.15177455131695 25.14416630638956 20.22627467934477
432 49.99999999999989 88.34351100623734 -9.514593414709459
433 10.12088208634524 44.50892030501689 11.11344926822351
434 11.7963275919964 68.78134097662615 -0.3088663419487112
435 86.99182246248091 62.94832792970538 2.436080974250061
436 87.56563120339365 35.88155467297125 15.17338603624611
437 22.91780972207388 25.65475750838462 19.98599646664115
438 77.79374443486779 88.56850002474995 -9.620470599891895
439 22.48129718808253 87.53838379185804 -9.135710019707332
440 12.76675188477418 58.6517063631303 4.458020534991832
441 22.686865500325 62.98373546361953 2.419418605349279
442 22.49992964695767 52.68761237315771 7.264653000862062
443 32.95125803631983 56.85005638047167 5.30585582094907
444 31.69870462706965 45.46257221409159 10.66467189924705
445 43.50405356633854 49.78170998453493 8.632136477861398
446 44.32502772779532 61.92216041567412 2.918983333794312
447 55.14412291235053 55.28216951076886 6.043684936103535
448 59.32298075893297 67.96893420259701 0.07344272818275499
449 54.06899014116559 43.11840992037574 11.76780709629011
450 66.06687468482107 48.33887693644181 9.311116735787756
451 65.42626313074696 35.70662410403237 15.25570630398208
452 44.89242686330468 75.93160091649123 -3.673694548944972
453 22.77040337639431 74.31633131896157 -2.913567679519041
454 36.60247572996642 25.31391954879943 20.14639080056363
455 87.49564605873124 49.12024484254272 8.943414191740171
456 20.2604667277111 43.97498944851887 11.36471084775206
457 13.44661390348008 35.759778970148 15.23069224933942
458 36.79432636122044 88.20500123596486 -9.449412346345923
459 64.05895745131255 88.62394173696093 -9.64656081740295
460 69.86267443322133 78.16116963432557 -4.722903357337891
461 43.05027279475251 36.7879015388974 14.74686986404545
462 67.15131732477562 60.13266951253571 3.761096699977333
463 28.510838827188 35.23035246471582 15.47983413424875
464 85.50678034827733 77.72060354854203 -4.515578140498523
465 77.57117774260975 27.02064331582333 19.34322667490511
466 33.63597127155438 68.11648016967669 0.004009331909948344
467 11.92326793077586 80.5782507383509 -5.860353288644241
468 57.62740790135429 79.80583149932241 -5.496861882042502
469 63.82508910627081 24.95745283049334 20.31413984447243
470 33.36355817432727 78.39658442883095 -4.83368679004634
471 11.83591511695614 25.02028557295487 20.28457149507876
472 76.66173972313365 41.67673674203959 12.44624153315437
473 10.74413046289431 90.30195582300962 -10.43621450495549
474 76.64238400707536 54.98734390957033 6.182426395491113
475 75.48690378850974 67.70720749415686 0.1966082380369798
476 89.4123173188617 89.91919407345999 -10.25609132869679
477 89.64121323256481 24.57225955564326 20.49540726793134
478 13.99887733436167 50.85561888087698 8.126767585464997
479 55.46990279136674 33.86498912769697 16.12235805755192
480 7.984803754946024 50.21226478691487 8.429522453211955
481 5.819455599077182 55.0587229254374 6.148836270377192
482 78.60714285714275 10 30
483 92.53571428571423 10 30
484 64.67857142857127 10 30
485 8.964285714285705 10 30
486 22.8928571428571 10 30
487 50.74999999999986 10 30
488 36.82142857142848 10 30
489 78.60714285714275 5 35
490 92.53571428571425 5 35
491 64.67857142857127 5 35
492 8.964285714285705 5 35
493 22.8928571428571 5 35
494 36.82142857142848 5 35
495 50.74999999999986 5 35
496 0.04305109011381114 99.67001928190575 -15.42189915875746
497 0.08176285490756974 99.59146609820056 -15.13535747830997
498 0.1884950333615035 99.82735212015133 -15.30360692184857
499 0.2752599897373619 99.6759917771672 -14.97190482811552
500 0.09950419788922971 49.26885801702134 7.747285012396764
501 0.04727193128798224 49.96376144112055 8.13551538278732
502 0.283329301582479 50.01178506136173 8.3747598548638
503 99.95667448808899 99.67190969785784 -15.42586024248271
504 99.91998762199351 99.61162813170017 -15.16467598730691
505 99.79126401306948 99.85498072059679 -15.33364283667144
506 99.72144566172783 99.6341028542207 -14.92950764810363
507 99.95429098876721 14.93110155962389 24.69178029299407
508 99.71277364949158 14.98424681299942 24.92952753857325
509 99.7460521290308 9.987784781927374 25.66973602143075
510 99.8897462731081 10.53942472096418 24.90622168549823
511 99.69156420901065 10.6851259666358 25.0107503524513
512 99.96342812586033 9.272941403729815 34.63122545294996
513 99.95353569498508 9.659453842739147 34.26441334860121
514 99.93671205870287 9.553452156612417 34.49644075829887
515 99.76317037933251 9.478995736110804 34.79148044716363
516 99.77008930087901 9.848813052668088 34.35685203082304
517 99.96342812586033 0.3687745470500448 34.27294140372981
518 99.95353569498508 0.7355866513987901 34.65945384273915
519 99.93671205870287 0.5035592417011179 34.55345215661243
520 99.76317037933249 0.208519552836373 34.4789957361108
521 99.77008930087902 0.6431479691769625 34.84881305266808
522 23.65026013287106 12.722172097631 18.41578233785967
523 37.28949721252059 9.881084634747809 18.46568005452166
524 99.8361102623514 8.987104199657026 28.82850924912831
525 66.21466155703006 11.03388224936736 20.16948055544318
526 25.94290858840628 40.16960482315225 -12.19633333433271
527 47.26563698118169 25.66273097514682 -9.902407726424066
528 73.80502547304708 26.40731621089109 -9.099571853009085
529 45.23795684417413 48.82760539992059 -14.77459982086863
530 24.84343396891585 59.04502369471929 -16.42826884493885
531 25.51823874954228 19.83806897356443 -15.51948927455713
532 79.41365214624392 49.98752606773234 -14.59520692747038
533 16.75887464803631 36.88818059331761 -21.98507402030278
534 29.12497423262003 18.06288416844369 3.359919074112521
535 22.7339216509897 7.270465169806925 13.51088590270023
536 62.59198839544681 41.97877105619737 -17.36175069088746
537 56.29800773182914 66.98250020856587 -18.41448883149841
538 59.02910604771847 17.13763339897499 2.975612343613766
539 33.38606577259417 72.26885361964294 -19.98576118236273
540 86.28113597060128 16.96093946753709 3.344992727676928
541 22.8928571428571 26.08354633276571 15.61145113686572
542 74.10114531785936 66.71055671434155 -17.70182398544645
543 16.8154217184776 50.20216234435758 -22.3217824533186
544 15.45394312226639 71.8315364678861 -19.8752855388689
545 61.03441263312062 17.08213438222631 -17.69584806313949
546 16.69891764392331 33.46939127585817 -0.5705583178051636
547 0.8172226580293536 50.48420485506347 -33.51564873068585
548 37.89072634299369 33.37553412499111 -20.10229354213486
549 35.6433719128688 33.20997112850275 -0.2594850155769759
550 17.33001546259203 49.69384376980565 -5.785363395418408
551 59.33660320798801 34.90519891427491 -2.20356033634604
552 43.80943082751392 15.54398745654862 -21.60491891638734
553 32.51396247457869 48.28736941471176 -22.04957424293247
554 46.48287758189911 17.65806630963761 8.438992546521337
555 39.42221698540887 7.207756666769399 13.35839141775668
556 36.82142857142848 26.10297328020115 16.15133061743422
557 84.32373871129944 15.88909429864163 -19.12429025863121
558 84.14222816427952 34.71915679632195 -19.08386678471522
559 16.90961349977346 13.75130085951296 -4.579536452276177
560 81.8897356307782 38.17230524846757 -2.004271049377575
561 65.53216736530038 55.74456031958351 -10.97269197723345
562 98.29986149089918 9.84235162643658 23.20518959608403
563 52.30148176638484 32.2439791820681 -21.87878681868362
564 33.19812971559517 51.51869551599302 -7.814856108794647
565 64.05862294623101 83.13462950041539 -21.80002313235277
566 39.92987245699695 60.03201345714594 -21.10748240385288
567 46.96688507175163 80.82233694681491 -21.16520804905923
568 15.68045518947307 14.25359189989075 10.24686888600237
569 32.87577820661989 13.94004445896697 12.25101352057232
570 23.89343227631019 23.0469197831913 15.94972685656877
571 0.8835626954428017 49.93644066289033 7.52178733109862
572 11.31581830686613 44.09642001024168 1.034066876184077
573 39.19250373434625 13.68743723586644 -6.592058831786717
574 55.73500322058739 53.42045327461952 -22.78609715266936
575 82.16529003401155 81.45980847779984 -21.0822174610987
576 26.56109849309483 29.21772798363339 -23.84492821736989
577 14.42739725633617 23.62560302487832 -22.15333299073901
578 71.46511535695717 12.47697194049443 -4.42476620316309
579 72.61100911192061 14.68387586181514 10.81915564915999
580 65.130913976963 5.981403186693253 18.01997856238776
581 19.92689984198797 86.19991310096819 -22.31377308616371
582 86.23703684424316 60.41395022810806 -21.24380339875472
$EndNodes
$Elements
1896
1 2 2 1 11 138 31 9
2 2 2 1 11 31 357 9
3 2 2 1 11 9 357 94
4 2 2 1 11 127 10 27
5 2 2 1 11 10 361 27
6 2 2 1 11 92 361 10
7 2 2 1 11 27 361 146
8 2 2 1 11 139 357 31
9 2 2 1 11 33 32 141
10 2 2 1 11 33 360 32
11 2 2 1 11 32 360 140
12 2 2 1 11 142 360 33
13 2 2 1 11 35 34 145
14 2 2 1 11 35 355 34
15 2 2 1 11 34 355 144
16 2 2 1 11 146 355 35
17 2 2 1 11 93 358 92
18 2 2 1 11 358 361 92
19 2 2 1 11 94 356 93
20 2 2 1 11 356 358 93
21 2 2 1 11 94 363 356
22 2 2 1 11 357 363 94
23 2 2 1 11 140 359 139
24 2 2 1 11 139 363 357
25 2 2 1 11 359 363 139
26 2 2 1 11 140 360 359
27 2 2 1 11 143 359 142
28 2 2 1 11 359 360 142
29 2 2 1 11 144 362 143
30 2 2 1 11 143 362 359
31 2 2 1 11 355 358 144
32 2 2 1 11 358 362 144
33 2 2 1 11 146 361 355
34 2 2 1 11 355 361 358
35 2 2 1 11 356 362 358
36 2 2 1 11 359 362 356
37 2 2 1 11 356 363 359
38 2 2 2 13 28 11 129
39 2 2 2 13 11 28 385
40 2 2 2 13 96 11 385
41 2 2 2 13 12 38 150
42 2 2 2 13 38 12 373
43 2 2 2 13 12 101 373
44 2 2 2 13 28 149 385
45 2 2 2 13 37 148 36
46 2 2 2 13 37 36 372
47 2 2 2 13 36 162 372
48 2 2 2 13 149 37 372
49 2 2 2 13 151 38 373
50 2 2 2 13 40 155 39
51 2 2 2 13 40 39 368
52 2 2 2 13 39 154 368
53 2 2 2 13 41 40 368
54 2 2 2 13 42 156 41
55 2 2 2 13 42 41 368
56 2 2 2 13 43 42 388
57 2 2 2 13 42 368 388
58 2 2 2 13 157 43 376
59 2 2 2 13 376 43 388
60 2 2 2 13 45 44 381
61 2 2 2 13 44 157 381
62 2 2 2 13 46 45 382
63 2 2 2 13 45 381 382
64 2 2 2 13 158 46 382
65 2 2 2 13 97 96 386
66 2 2 2 13 96 385 386
67 2 2 2 13 98 97 387
68 2 2 2 13 374 97 386
69 2 2 2 13 97 374 387
70 2 2 2 13 99 98 369
71 2 2 2 13 369 98 387
72 2 2 2 13 100 99 383
73 2 2 2 13 99 369 383
74 2 2 2 13 101 100 380
75 2 2 2 13 380 100 383
76 2 2 2 13 373 101 380
77 2 2 2 13 149 372 385
78 2 2 2 13 152 151 370
79 2 2 2 13 370 151 373
80 2 2 2 13 153 152 375
81 2 2 2 13 152 370 375
82 2 2 2 13 154 153 371
83 2 2 2 13 371 153 375
84 2 2 2 13 368 154 388
85 2 2 2 13 154 371 381
86 2 2 2 13 376 154 381
87 2 2 2 13 154 376 388
88 2 2 2 13 157 376 381
89 2 2 2 13 159 158 367
90 2 2 2 13 367 158 389
91 2 2 2 13 158 382 389
92 2 2 2 13 160 159 377
93 2 2 2 13 159 367 377
94 2 2 2 13 161 160 379
95 2 2 2 13 160 377 379
96 2 2 2 13 162 161 374
97 2 2 2 13 374 161 379
98 2 2 2 13 372 162 386
99 2 2 2 13 162 374 386
100 2 2 2 13 377 367 378
101 2 2 2 13 378 367 384
102 2 2 2 13 384 367 389
103 2 2 2 13 379 369 387
104 2 2 2 13 369 379 390
105 2 2 2 13 383 369 390
106 2 2 2 13 370 373 380
107 2 2 2 13 375 370 384
108 2 2 2 13 370 380 384
109 2 2 2 13 371 375 389
110 2 2 2 13 381 371 382
111 2 2 2 13 382 371 389
112 2 2 2 13 385 372 386
113 2 2 2 13 374 379 387
114 2 2 2 13 375 384 389
115 2 2 2 13 377 378 390
116 2 2 2 13 379 377 390
117 2 2 2 13 378 380 383
118 2 2 2 13 380 378 384
119 2 2 2 13 378 383 390
120 4 2 3 1 530 543 359 544
121 4 2 3 1 359 543 530 550
122 4 2 3 1 445 549 529 551
123 4 2 3 1 450 560 551 561
124 4 2 3 1 461 551 479 554
125 4 2 3 1 178 351 458 581
126 4 2 3 1 254 539 458 581
127 4 2 3 1 434 359 530 550
128 4 2 3 1 434 530 359 544
129 4 2 3 1 263 363 543 544
130 4 2 3 1 527 551 549 554
131 4 2 3 1 451 538 528 579
132 4 2 3 1 363 359 543 544
133 4 2 3 1 254 351 282 581
134 4 2 3 1 254 458 351 581
135 4 2 3 1 551 560 536 561
136 4 2 3 1 549 551 461 554
137 4 2 3 1 447 551 529 561
138 4 2 3 1 532 536 560 561
139 4 2 3 1 445 529 447 551
140 4 2 3 1 264 263 543 544
141 4 2 3 1 458 539 439 581
142 4 2 3 1 479 551 538 554
143 4 2 3 1 207 206 525 580
144 4 2 3 1 264 530 266 539
145 4 2 3 1 529 549 527 551
146 4 2 3 1 276 536 277 558
147 4 2 3 1 403 538 545 573
148 4 2 3 1 474 560 450 561
149 4 2 3 1 277 536 528 558
150 4 2 3 1 264 543 530 544
151 4 2 3 1 529 551 536 561
152 4 2 3 1 339 203 334 335
153 4 2 3 1 527 545 538 573
154 4 2 3 1 526 546 456 550
155 4 2 3 1 350 282 351 581
156 4 2 3 1 178 458 439 581
157 4 2 3 1 444 526 456 550
158 4 2 3 1 529 537 446 561
159 4 2 3 1 451 528 538 551
160 4 2 3 1 445 449 549 551
161 4 2 3 1 445 529 549 564
162 4 2 3 1 180 349 565 567
163 4 2 3 1 526 533 531 546
164 4 2 3 1 264 539 266 544
165 4 2 3 1 300 281 258 531
166 4 2 3 1 441 434 530 550
167 4 2 3 1 474 532 560 561
168 4 2 3 1 447 529 446 561
169 4 2 3 1 442 444 456 550
170 4 2 3 1 284 565 349 567
171 4 2 3 1 423 531 400 577
172 4 2 3 1 308 532 542 561
173 4 2 3 1 264 267 266 530
174 4 2 3 1 530 539 264 544
175 4 2 3 1 531 546 533 577
176 4 2 3 1 400 531 258 577
177 4 2 3 1 180 565 432 567
178 4 2 3 1 409 300 531 552
179 4 2 3 1 401 295 402 545
180 4 2 3 1 305 423 258 577
181 4 2 3 1 180 349 133 565
182 4 2 3 1 180 432 349 567
183 4 2 3 1 538 551 527 554
184 4 2 3 1 264 283 267 530
185 4 2 3 1 281 531 300 552
186 4 2 3 1 271 274 548 553
187 4 2 3 1 545 552 403 573
188 4 2 3 1 308 532 289 542
189 4 2 3 1 446 537 529 566
190 4 2 3 1 263 257 363 544
191 4 2 3 1 281 552 548 576
192 4 2 3 1 442 444 550 564
193 4 2 3 1 405 538 403 573
194 4 2 3 1 423 400 258 577
195 4 2 3 1 445 447 449 551
196 4 2 3 1 423 415 531 577
197 4 2 3 1 267 530 283 543
198 4 2 3 1 526 550 444 564
199 4 2 3 1 530 466 564 566
200 4 2 3 1 377 455 532 560
201 4 2 3 1 528 545 277 557
202 4 2 3 1 323 546 533 550
203 4 2 3 1 304 532 536 558
204 4 2 3 1 267 266 530 566
205 4 2 3 1 308 561 542 574
206 4 2 3 1 348 133 349 565
207 4 2 3 1 413 398 417 535
208 4 2 3 1 451 472 528 551
209 4 2 3 1 276 277 303 558
210 4 2 3 1 416 395 375 540
211 4 2 3 1 529 548 527 549
212 4 2 3 1 533 546 526 550
213 4 2 3 1 348 349 284 565
214 4 2 3 1 375 370 416 540
215 4 2 3 1 264 283 530 543
216 4 2 3 1 359 118 543 550
217 4 2 3 1 530 539 466 566
218 4 2 3 1 304 536 276 558
219 4 2 3 1 281 531 552 576
220 4 2 3 1 265 264 266 544
221 4 2 3 1 472 528 551 560
222 4 2 3 1 308 304 532 536
223 4 2 3 1 401 402 410 545
224 4 2 3 1 271 548 529 553
225 4 2 3 1 401 295 545 557
226 4 2 3 1 526 548 529 549
227 4 2 3 1 533 543 336 550
228 4 2 3 1 301 548 281 552
229 4 2 3 1 527 548 531 549
230 4 2 3 1 447 450 551 561
231 4 2 3 1 527 529 551 563
232 4 2 3 1 531 548 526 549
233 4 2 3 1 318 363 357 543
234 4 2 3 1 526 549 529 564
235 4 2 3 1 531 526 546 549
236 4 2 3 1 545 551 528 563
237 4 2 3 1 402 295 291 545
238 4 2 3 1 423 415 400 531
239 4 2 3 1 536 528 551 563
240 4 2 3 1 435 377 455 532
241 4 2 3 1 308 542 312 574
242 4 2 3 1 308 536 532 561
243 4 2 3 1 449 461 549 551
244 4 2 3 1 415 559 531 577
245 4 2 3 1 269 274 271 553
246 4 2 3 1 448 446 537 561
247 4 2 3 1 262 533 292 543
248 4 2 3 1 465 436 540 560
249 4 2 3 1 363 359 118 543
250 4 2 3 1 401 545 410 557
251 4 2 3 1 323 533 336 550
252 4 2 3 1 531 533 526 576
253 4 2 3 1 252 369 532 558
254 4 2 3 1 352 348 296 565
255 4 2 3 1 327 423 305 577
256 4 2 3 1 206 538 419 554
257 4 2 3 1 318 306 263 543
258 4 2 3 1 308 276 304 536
259 4 2 3 1 453 530 434 544
260 4 2 3 1 318 263 363 543
261 4 2 3 1 527 552 545 573
262 4 2 3 1 284 256 348 565
263 4 2 3 1 351 349 132 567
264 4 2 3 1 270 269 271 529
265 4 2 3 1 536 551 528 560
266 4 2 3 1 404 403 552 573
267 4 2 3 1 301 302 281 548
268 4 2 3 1 384 558 528 560
269 4 2 3 1 254 458 539 567
270 4 2 3 1 531 559 546 577
271 4 2 3 1 414 208 371 540
272 4 2 3 1 269 271 529 553
273 4 2 3 1 134 348 352 565
274 4 2 3 1 434 453 441 530
275 4 2 3 1 334 335 203 333
276 4 2 3 1 318 313 306 543
277 4 2 3 1 348 256 296 565
278 4 2 3 1 265 539 299 581
279 4 2 3 1 351 132 179 567
280 4 2 3 1 444 549 526 564
281 4 2 3 1 531 546 534 549
282 4 2 3 1 416 540 370 557
283 4 2 3 1 528 540 384 560
284 4 2 3 1 330 327 305 577
285 4 2 3 1 352 565 296 575
286 4 2 3 1 302 281 548 576
287 4 2 3 1 448 447 446 561
288 4 2 3 1 531 527 549 573
289 4 2 3 1 446 564 466 566
290 4 2 3 1 536 551 529 563
291 4 2 3 1 435 532 542 582
292 4 2 3 1 263 264 257 544
293 4 2 3 1 267 530 543 553
294 4 2 3 1 384 557 528 558
295 4 2 3 1 445 449 461 549
296 4 2 3 1 271 529 548 563
297 4 2 3 1 536 561 308 574
298 4 2 3 1 452 537 446 566
299 4 2 3 1 295 277 545 557
300 4 2 3 1 405 554 538 573
301 4 2 3 1 528 536 532 558
302 4 2 3 1 461 479 431 554
303 4 2 3 1 527 551 545 563
304 4 2 3 1 384 378 558 560
305 4 2 3 1 265 544 539 581
306 4 2 3 1 379 377 435 532
307 4 2 3 1 267 543 283 553
308 4 2 3 1 446 529 564 566
309 4 2 3 1 423 322 415 577
310 4 2 3 1 472 551 450 560
311 4 2 3 1 436 367 540 560
312 4 2 3 1 546 550 323 572
313 4 2 3 1 265 266 539 544
314 4 2 3 1 351 254 349 567
315 4 2 3 1 531 548 527 552
316 4 2 3 1 548 552 531 576
317 4 2 3 1 410 557 545 578
318 4 2 3 1 532 536 528 560
319 4 2 3 1 308 289 312 542
320 4 2 3 1 461 449 479 551
321 4 2 3 1 465 472 436 560
322 4 2 3 1 266 539 530 566
323 4 2 3 1 254 351 458 567
324 4 2 3 1 252 532 369 582
325 4 2 3 1 466 539 452 566
326 4 2 3 1 384 540 528 557
327 4 2 3 1 351 179 458 567
328 4 2 3 1 292 543 533 553
329 4 2 3 1 529 527 548 563
330 4 2 3 1 275 277 536 563
331 4 2 3 1 434 440 359 550
332 4 2 3 1 477 436 389 540
333 4 2 3 1 322 559 415 577
334 4 2 3 1 336 543 118 550
335 4 2 3 1 531 526 548 576
336 4 2 3 1 332 533 253 543
337 4 2 3 1 252 532 304 558
338 4 2 3 1 537 561 529 574
339 4 2 3 1 390 532 369 558
340 4 2 3 1 432 180 459 565
341 4 2 3 1 533 546 331 577
342 4 2 3 1 400 408 409 531
343 4 2 3 1 382 389 371 540
344 4 2 3 1 453 539 530 544
345 4 2 3 1 528 558 532 560
346 4 2 3 1 257 356 363 544
347 4 2 3 1 427 540 416 578
348 4 2 3 1 270 269 529 566
349 4 2 3 1 479 538 431 554
350 4 2 3 1 436 367 389 540
351 4 2 3 1 276 275 277 536
352 4 2 3 1 474 532 455 560
353 4 2 3 1 384 370 375 540
354 4 2 3 1 208 540 414 579
355 4 2 3 1 312 542 537 574
356 4 2 3 1 435 542 464 582
357 4 2 3 1 382 191 477 540
358 4 2 3 1 466 530 453 539
359 4 2 3 1 405 403 404 573
360 4 2 3 1 287 383 252 558
361 4 2 3 1 308 304 289 532
362 4 2 3 1 451 469 538 579
363 4 2 3 1 446 466 452 566
364 4 2 3 1 538 545 527 551
365 4 2 3 1 262 292 314 543
366 4 2 3 1 531 549 534 573
367 4 2 3 1 533 576 531 577
368 4 2 3 1 252 383 369 558
369 4 2 3 1 539 544 439 581
370 4 2 3 1 452 566 539 567
371 4 2 3 1 395 416 427 540
372 4 2 3 1 476 354 372 386
373 4 2 3 1 272 271 563 574
374 4 2 3 1 418 414 540 579
375 4 2 3 1 271 529 563 574
376 4 2 3 1 206 419 397 554
377 4 2 3 1 423 327 322 577
378 4 2 3 1 254 284 349 567
379 4 2 3 1 452 537 566 567
380 4 2 3 1 435 455 474 532
381 4 2 3 1 526 543 533 550
382 4 2 3 1 255 396 291 545
383 4 2 3 1 289 542 532 582
384 4 2 3 1 549 554 461 556
385 4 2 3 1 281 258 531 576
386 4 2 3 1 475 435 532 542
387 4 2 3 1 530 553 267 566
388 4 2 3 1 330 322 327 577
389 4 2 3 1 527 531 552 573
390 4 2 3 1 271 270 529 574
391 4 2 3 1 323 331 533 546
392 4 2 3 1 526 533 553 576
393 4 2 3 1 542 575 464 582
394 4 2 3 1 431 538 189 554
395 4 2 3 1 397 419 420 554
396 4 2 3 1 301 548 552 563
397 4 2 3 1 105 138 365 366
398 4 2 3 1 386 476 354 575
399 4 2 3 1 386 354 311 575
400 4 2 3 1 359 119 118 550
401 4 2 3 1 369 532 390 582
402 4 2 3 1 540 557 416 578
403 4 2 3 1 396 402 291 545
404 4 2 3 1 132 349 179 567
405 4 2 3 1 304 252 289 532
406 4 2 3 1 107 300 400 409
407 4 2 3 1 450 462 474 561
408 4 2 3 1 262 314 533 543
409 4 2 3 1 441 530 466 564
410 4 2 3 1 297 278 566 567
411 4 2 3 1 435 464 374 582
412 4 2 3 1 528 578 540 579
413 4 2 3 1 528 538 578 579
414 4 2 3 1 441 440 434 550
415 4 2 3 1 367 384 540 560
416 4 2 3 1 438 565 181 575
417 4 2 3 1 377 532 390 560
418 4 2 3 1 445 446 447 529
419 4 2 3 1 528 545 538 551
420 4 2 3 1 439 539 453 544
421 4 2 3 1 529 548 526 553
422 4 2 3 1 382 477 389 540
423 4 2 3 1 384 370 540 557
424 4 2 3 1 414 371 395 540
425 4 2 3 1 534 546 531 559
426 4 2 3 1 546 559 331 577
427 4 2 3 1 291 255 109 396
428 4 2 3 1 325 485 492 337
429 4 2 3 1 109 402 291 396
430 4 2 3 1 264 263 283 543
431 4 2 3 1 371 375 395 540
432 4 2 3 1 527 538 554 573
433 4 2 3 1 446 529 445 564
434 4 2 3 1 396 403 545 552
435 4 2 3 1 255 291 109 74
436 4 2 3 1 418 399 414 579
437 4 2 3 1 291 295 277 545
438 4 2 3 1 431 469 189 538
439 4 2 3 1 253 313 332 543
440 4 2 3 1 428 559 534 573
441 4 2 3 1 403 545 538 578
442 4 2 3 1 441 550 530 564
443 4 2 3 1 457 546 541 568
444 4 2 3 1 352 354 135 575
445 4 2 3 1 397 205 206 554
446 4 2 3 1 379 435 374 582
447 4 2 3 1 289 532 252 582
448 4 2 3 1 272 271 275 563
449 4 2 3 1 428 408 559 573
450 4 2 3 1 390 377 379 532
451 4 2 3 1 301 293 548 563
452 4 2 3 1 269 553 529 566
453 4 2 3 1 354 372 386 385
454 4 2 3 1 362 434 359 544
455 4 2 3 1 271 274 293 548
456 4 2 3 1 352 311 354 575
457 4 2 3 1 526 529 553 564
458 4 2 3 1 457 541 471 568
459 4 2 3 1 542 561 537 574
460 4 2 3 1 435 379 532 582
461 4 2 3 1 281 280 258 576
462 4 2 3 1 298 552 545 563
463 4 2 3 1 297 566 537 567
464 4 2 3 1 384 378 557 558
465 4 2 3 1 277 295 303 557
466 4 2 3 1 408 531 559 573
467 4 2 3 1 255 396 545 552
468 4 2 3 1 438 459 181 565
469 4 2 3 1 453 466 441 530
470 4 2 3 1 522 535 568 569
471 4 2 3 1 280 258 576 577
472 4 2 3 1 469 189 538 579
473 4 2 3 1 444 445 549 564
474 4 2 3 1 414 399 208 579
475 4 2 3 1 400 415 408 531
476 4 2 3 1 283 543 292 553
477 4 2 3 1 530 543 526 550
478 4 2 3 1 374 464 575 582
479 4 2 3 1 475 532 474 561
480 4 2 3 1 526 543 530 553
481 4 2 3 1 179 349 432 567
482 4 2 3 1 397 420 205 554
483 4 2 3 1 301 552 298 563
484 4 2 3 1 316 294 262 576
485 4 2 3 1 475 542 532 561
486 4 2 3 1 118 357 363 543
487 4 2 3 1 315 253 332 533
488 4 2 3 1 450 447 462 561
489 4 2 3 1 287 259 383 558
490 4 2 3 1 531 576 258 577
491 4 2 3 1 362 467 434 544
492 4 2 3 1 456 550 546 572
493 4 2 3 1 451 465 469 579
494 4 2 3 1 267 283 292 553
495 4 2 3 1 260 374 575 582
496 4 2 3 1 267 268 266 566
497 4 2 3 1 532 558 390 560
498 4 2 3 1 257 81 93 290
499 4 2 3 1 396 404 403 552
500 4 2 3 1 475 464 435 542
501 4 2 3 1 526 533 543 553
502 4 2 3 1 313 253 306 543
503 4 2 3 1 527 554 549 573
504 4 2 3 1 311 354 386 385
505 4 2 3 1 272 563 536 574
506 4 2 3 1 293 271 548 563
507 4 2 3 1 287 252 304 558
508 4 2 3 1 534 546 541 549
509 4 2 3 1 296 352 63 348
510 4 2 3 1 348 63 296 256
511 4 2 3 1 270 297 566 574
512 4 2 3 1 463 546 456 549
513 4 2 3 1 451 538 479 551
514 4 2 3 1 273 308 312 574
515 4 2 3 1 352 438 181 575
516 4 2 3 1 539 566 278 567
517 4 2 3 1 257 290 356 544
518 4 2 3 1 413 334 203 333
519 4 2 3 1 314 253 533 543
520 4 2 3 1 316 262 533 576
521 4 2 3 1 255 545 298 552
522 4 2 3 1 545 557 528 578
523 4 2 3 1 419 538 405 554
524 4 2 3 1 307 575 542 582
525 4 2 3 1 379 390 532 582
526 4 2 3 1 451 450 472 551
527 4 2 3 1 529 270 566 574
528 4 2 3 1 307 260 575 582
529 4 2 3 1 431 479 469 538
530 4 2 3 1 328 546 457 568
531 4 2 3 1 359 440 119 550
532 4 2 3 1 526 553 548 576
533 4 2 3 1 298 545 277 563
534 4 2 3 1 546 559 534 568
535 4 2 3 1 119 323 550 572
536 4 2 3 1 379 369 390 582
537 4 2 3 1 537 542 448 561
538 4 2 3 1 383 390 369 558
539 4 2 3 1 273 312 537 574
540 4 2 3 1 408 531 415 559
541 4 2 3 1 328 457 471 568
542 4 2 3 1 447 450 449 551
543 4 2 3 1 541 546 534 568
544 4 2 3 1 328 559 546 568
545 4 2 3 1 272 275 536 563
546 4 2 3 1 534 549 554 573
547 4 2 3 1 119 336 118 550
548 4 2 3 1 444 463 456 549
549 4 2 3 1 314 306 253 543
550 4 2 3 1 356 359 363 544
551 4 2 3 1 431 461 554 556
552 4 2 3 1 68 252 287 383
553 4 2 3 1 442 550 441 564
554 4 2 3 1 522 535 203 568
555 4 2 3 1 475 435 474 532
556 4 2 3 1 352 296 311 575
557 4 2 3 1 536 529 561 574
558 4 2 3 1 479 451 469 538
559 4 2 3 1 537 566 297 574
560 4 2 3 1 534 559 531 573
561 4 2 3 1 541 546 463 549
562 4 2 3 1 119 323 336 550
563 4 2 3 1 467 544 362 581
564 4 2 3 1 268 278 266 566
565 4 2 3 1 348 349 62 284
566 4 2 3 1 304 276 303 558
567 4 2 3 1 68 252 383 369
568 4 2 3 1 226 484 227 491
569 4 2 3 1 223 486 217 493
570 4 2 3 1 194 455 435 377
571 4 2 3 1 474 472 450 560
572 4 2 3 1 348 62 349 87
573 4 2 3 1 374 161 435 379
574 4 2 3 1 88 63 352 348
575 4 2 3 1 188 189 200 554
576 4 2 3 1 307 288 260 582
577 4 2 3 1 428 534 406 573
578 4 2 3 1 284 62 348 256
579 4 2 3 1 282 265 299 581
580 4 2 3 1 349 86 61 351
581 4 2 3 1 312 537 542 565
582 4 2 3 1 305 258 279 577
583 4 2 3 1 416 395 167 375
584 4 2 3 1 460 542 537 565
585 4 2 3 1 321 433 457 572
586 4 2 3 1 439 470 453 539
587 4 2 3 1 356 257 93 290
588 4 2 3 1 460 448 537 542
589 4 2 3 1 407 403 405 538
590 4 2 3 1 349 61 254 351
591 4 2 3 1 188 200 199 554
592 4 2 3 1 23 209 485 338
593 4 2 3 1 530 550 526 564
594 4 2 3 1 268 267 269 566
595 4 2 3 1 527 552 548 563
596 4 2 3 1 481 478 480 572
597 4 2 3 1 407 403 538 578
598 4 2 3 1 323 331 336 533
599 4 2 3 1 442 441 443 564
600 4 2 3 1 477 465 436 540
601 4 2 3 1 378 380 557 558
602 4 2 3 1 452 448 446 537
603 4 2 3 1 460 537 468 565
604 4 2 3 1 383 99 68 369
605 4 2 3 1 528 557 540 578
606 4 2 3 1 205 199 206 554
607 4 2 3 1 200 206 199 554
608 4 2 3 1 526 553 530 564
609 4 2 3 1 467 362 473 581
610 4 2 3 1 268 270 297 566
611 4 2 3 1 529 566 537 574
612 4 2 3 1 301 293 302 548
613 4 2 3 1 468 432 565 567
614 4 2 3 1 374 464 476 575
615 4 2 3 1 443 444 442 564
616 4 2 3 1 299 265 266 539
617 4 2 3 1 314 253 315 533
618 4 2 3 1 358 356 290 544
619 4 2 3 1 297 278 268 566
620 4 2 3 1 534 554 549 556
621 4 2 3 1 378 384 367 560
622 4 2 3 1 306 283 263 543
623 4 2 3 1 274 294 302 576
624 4 2 3 1 475 474 462 561
625 4 2 3 1 470 466 453 539
626 4 2 3 1 536 563 529 574
627 4 2 3 1 426 412 420 555
628 4 2 3 1 289 307 312 542
629 4 2 3 1 284 285 565 567
630 4 2 3 1 374 476 386 575
631 4 2 3 1 179 432 458 567
632 4 2 3 1 297 285 317 567
633 4 2 3 1 289 307 542 582
634 4 2 3 1 407 538 419 579
635 4 2 3 1 267 553 269 566
636 4 2 3 1 442 550 456 572
637 4 2 3 1 371 389 375 540
638 4 2 3 1 545 552 527 563
639 4 2 3 1 349 254 61 284
640 4 2 3 1 383 259 380 558
641 4 2 3 1 282 351 60 350
642 4 2 3 1 375 167 416 370
643 4 2 3 1 410 545 403 578
644 4 2 3 1 152 167 375 370
645 4 2 3 1 475 448 542 561
646 4 2 3 1 332 313 118 543
647 4 2 3 1 303 557 259 558
648 4 2 3 1 410 402 403 545
649 4 2 3 1 405 419 407 538
650 4 2 3 1 188 431 189 554
651 4 2 3 1 301 298 293 563
652 4 2 3 1 278 539 266 566
653 4 2 3 1 360 119 359 440
654 4 2 3 1 416 557 410 578
655 4 2 3 1 314 292 283 543
656 4 2 3 1 334 338 337 424
657 4 2 3 1 85 60 351 350
658 4 2 3 1 417 534 428 559
659 4 2 3 1 380 383 100 259
660 4 2 3 1 191 465 540 579
661 4 2 3 1 425 579 419 580
662 4 2 3 1 468 432 459 565
663 4 2 3 1 255 298 301 552
664 4 2 3 1 444 443 445 564
665 4 2 3 1 453 434 467 544
666 4 2 3 1 470 452 466 539
667 4 2 3 1 477 389 436 158
668 4 2 3 1 297 537 285 567
669 4 2 3 1 331 546 328 559
670 4 2 3 1 427 416 410 578
671 4 2 3 1 254 539 278 567
672 4 2 3 1 428 406 408 573
673 4 2 3 1 270 268 269 566
674 4 2 3 1 538 545 528 578
675 4 2 3 1 278 297 317 567
676 4 2 3 1 316 576 533 577
677 4 2 3 1 123 209 338 339
678 4 2 3 1 264 265 257 544
679 4 2 3 1 298 255 291 545
680 4 2 3 1 473 362 358 581
681 4 2 3 1 522 569 568 570
682 4 2 3 1 417 406 428 534
683 4 2 3 1 468 565 537 567
684 4 2 3 1 259 557 380 558
685 4 2 3 1 284 317 285 567
686 4 2 3 1 326 533 336 577
687 4 2 3 1 440 481 550 572
688 4 2 3 1 308 272 276 536
689 4 2 3 1 418 414 395 540
690 4 2 3 1 374 386 260 575
691 4 2 3 1 326 315 332 533
692 4 2 3 1 458 470 439 539
693 4 2 3 1 312 285 537 565
694 4 2 3 1 396 403 402 545
695 4 2 3 1 362 544 358 581
696 4 2 3 1 367 384 389 540
697 4 2 3 1 254 299 278 539
698 4 2 3 1 203 333 335 568
699 4 2 3 1 425 407 419 579
700 4 2 3 1 468 460 448 537
701 4 2 3 1 272 536 308 574
702 4 2 3 1 93 356 290 358
703 4 2 3 1 378 390 558 560
704 4 2 3 1 316 533 261 577
705 4 2 3 1 439 453 467 544
706 4 2 3 1 312 542 286 565
707 4 2 3 1 358 544 290 581
708 4 2 3 1 441 466 443 564
709 4 2 3 1 312 307 286 542
710 4 2 3 1 438 182 476 575
711 4 2 3 1 286 542 307 575
712 4 2 3 1 315 316 262 533
713 4 2 3 1 455 377 159 560
714 4 2 3 1 191 465 477 540
715 4 2 3 1 60 254 351 282
716 4 2 3 1 371 168 395 375
717 4 2 3 1 460 475 448 542
718 4 2 3 1 262 314 315 533
719 4 2 3 1 414 168 395 371
720 4 2 3 1 305 279 330 577
721 4 2 3 1 159 377 367 560
722 4 2 3 1 275 298 277 563
723 4 2 3 1 142 360 359 440
724 4 2 3 1 281 300 301 552
725 4 2 3 1 272 275 276 536
726 4 2 3 1 384 378 380 557
727 4 2 3 1 274 302 548 576
728 4 2 3 1 153 168 371 375
729 4 2 3 1 209 338 424 485
730 4 2 3 1 420 419 405 554
731 4 2 3 1 389 367 436 158
732 4 2 3 1 404 552 409 573
733 4 2 3 1 481 119 550 572
734 4 2 3 1 355 361 353 581
735 4 2 3 1 381 414 169 562
736 4 2 3 1 94 257 356 363
737 4 2 3 1 362 359 356 544
738 4 2 3 1 440 481 119 550
739 4 2 3 1 406 569 554 573
740 4 2 3 1 208 399 207 579
741 4 2 3 1 94 318 263 363
742 4 2 3 1 485 337 338 424
743 4 2 3 1 94 263 318 82
744 4 2 3 1 408 404 409 573
745 4 2 3 1 108 396 255 552
746 4 2 3 1 331 559 322 577
747 4 2 3 1 321 457 546 572
748 4 2 3 1 205 554 420 555
749 4 2 3 1 530 564 553 566
750 4 2 3 1 256 286 296 565
751 4 2 3 1 406 534 569 573
752 4 2 3 1 201 202 207 579
753 4 2 3 1 316 315 261 533
754 4 2 3 1 108 255 73 552
755 4 2 3 1 410 416 401 557
756 4 2 3 1 394 333 413 568
757 4 2 3 1 406 554 405 573
758 4 2 3 1 336 533 331 577
759 4 2 3 1 439 544 467 581
760 4 2 3 1 406 534 417 569
761 4 2 3 1 190 202 201 579
762 4 2 3 1 421 309 401 557
763 4 2 3 1 316 280 576 577
764 4 2 3 1 321 433 122 457
765 4 2 3 1 464 542 460 575
766 4 2 3 1 261 315 326 533
767 4 2 3 1 446 445 443 564
768 4 2 3 1 277 298 291 545
769 4 2 3 1 537 565 285 567
770 4 2 3 1 329 559 328 568
771 4 2 3 1 270 273 297 574
772 4 2 3 1 554 569 534 573
773 4 2 3 1 273 537 297 574
774 4 2 3 1 197 335 186 568
775 4 2 3 1 481 119 360 440
776 4 2 3 1 394 417 428 559
777 4 2 3 1 452 468 537 567
778 4 2 3 1 284 285 256 565
779 4 2 3 1 296 565 286 575
780 4 2 3 1 202 208 207 579
781 4 2 3 1 394 417 559 568
782 4 2 3 1 470 539 458 567
783 4 2 3 1 460 542 565 575
784 4 2 3 1 116 333 413 394
785 4 2 3 1 265 290 257 544
786 4 2 3 1 303 259 287 558
787 4 2 3 1 395 427 418 540
788 4 2 3 1 421 401 76 111
789 4 2 3 1 203 335 197 568
790 4 2 3 1 335 324 186 568
791 4 2 3 1 295 401 309 557
792 4 2 3 1 259 303 295 557
793 4 2 3 1 286 565 542 575
794 4 2 3 1 285 273 312 537
795 4 2 3 1 378 377 390 560
796 4 2 3 1 144 358 473 362
797 4 2 3 1 418 540 427 578
798 4 2 3 1 67 288 252 582
799 4 2 3 1 460 565 438 575
800 4 2 3 1 426 417 398 535
801 4 2 3 1 357 318 94 363
802 4 2 3 1 260 386 311 575
803 4 2 3 1 169 371 414 381
804 4 2 3 1 300 73 255 552
805 4 2 3 1 108 300 409 552
806 4 2 3 1 285 297 273 537
807 4 2 3 1 359 362 143 434
808 4 2 3 1 461 444 445 549
809 4 2 3 1 401 421 76 309
810 4 2 3 1 325 492 17 337
811 4 2 3 1 456 463 457 546
812 4 2 3 1 324 328 471 568
813 4 2 3 1 541 568 534 570
814 4 2 3 1 300 108 73 552
815 4 2 3 1 476 162 374 386
816 4 2 3 1 67 98 387 369
817 4 2 3 1 290 544 265 581
818 4 2 3 1 540 578 418 579
819 4 2 3 1 191 202 190 579
820 4 2 3 1 317 254 278 567
821 4 2 3 1 442 456 478 572
822 4 2 3 1 448 452 468 537
823 4 2 3 1 339 203 335 22
824 4 2 3 1 433 456 457 572
825 4 2 3 1 337 325 485 338
826 4 2 3 1 192 477 436 158
827 4 2 3 1 460 459 438 565
828 4 2 3 1 108 409 396 552
829 4 2 3 1 358 361 355 581
830 4 2 3 1 417 534 535 569
831 4 2 3 1 452 539 470 567
832 4 2 3 1 258 280 279 577
833 4 2 3 1 462 447 448 561
834 4 2 3 1 274 302 293 548
835 4 2 3 1 310 353 361 581
836 4 2 3 1 406 555 554 569
837 4 2 3 1 450 451 449 551
838 4 2 3 1 353 473 355 581
839 4 2 3 1 67 387 288 582
840 4 2 3 1 426 406 417 569
841 4 2 3 1 408 415 428 559
842 4 2 3 1 76 295 401 309
843 4 2 3 1 420 405 406 554
844 4 2 3 1 394 415 115 559
845 4 2 3 1 269 292 274 553
846 4 2 3 1 280 316 261 577
847 4 2 3 1 191 190 465 579
848 4 2 3 1 207 525 579 580
849 4 2 3 1 314 283 306 543
850 4 2 3 1 420 554 406 555
851 4 2 3 1 173 495 487 397
852 4 2 3 1 271 272 270 574
853 4 2 3 1 329 331 328 559
854 4 2 3 1 487 495 172 397
855 4 2 3 1 78 279 261 577
856 4 2 3 1 475 462 448 561
857 4 2 3 1 489 175 399 482
858 4 2 3 1 317 284 254 567
859 4 2 3 1 443 466 446 564
860 4 2 3 1 337 485 492 424
861 4 2 3 1 370 373 421 557
862 4 2 3 1 480 18 481 572
863 4 2 3 1 375 389 384 540
864 4 2 3 1 534 568 535 569
865 4 2 3 1 355 473 358 581
866 4 2 3 1 261 533 326 577
867 4 2 3 1 413 203 535 568
868 4 2 3 1 203 413 333 568
869 4 2 3 1 223 217 224 493
870 4 2 3 1 225 494 224 217
871 4 2 3 1 484 227 220 219
872 4 2 3 1 232 172 495 173
873 4 2 3 1 440 478 481 572
874 4 2 3 1 227 221 228 489
875 4 2 3 1 486 223 217 216
876 4 2 3 1 469 190 189 579
877 4 2 3 1 451 479 449 551
878 4 2 3 1 358 362 356 544
879 4 2 3 1 463 541 457 546
880 4 2 3 1 484 226 227 219
881 4 2 3 1 232 172 231 495
882 4 2 3 1 218 226 487 219
883 4 2 3 1 489 399 174 482
884 4 2 3 1 407 578 538 579
885 4 2 3 1 394 329 333 568
886 4 2 3 1 475 460 464 542
887 4 2 3 1 404 406 405 573
888 4 2 3 1 415 322 115 559
889 4 2 3 1 484 174 491 411
890 4 2 3 1 442 478 550 572
891 4 2 3 1 416 370 421 557
892 4 2 3 1 312 286 285 565
893 4 2 3 1 438 464 460 575
894 4 2 3 1 296 64 352 311
895 4 2 3 1 78 261 326 577
896 4 2 3 1 309 421 373 557
897 4 2 3 1 358 310 361 581
898 4 2 3 1 407 418 578 579
899 4 2 3 1 267 292 269 553
900 4 2 3 1 394 116 333 329
901 4 2 3 1 426 420 406 555
902 4 2 3 1 553 564 529 566
903 4 2 3 1 234 174 233 489
904 4 2 3 1 173 174 491 232
905 4 2 3 1 174 233 491 232
906 4 2 3 1 321 457 328 546
907 4 2 3 1 171 231 494 230
908 4 2 3 1 231 171 494 172
909 4 2 3 1 378 383 380 558
910 4 2 3 1 169 154 371 381
911 4 2 3 1 299 266 278 539
912 4 2 3 1 534 556 541 570
913 4 2 3 1 326 336 331 577
914 4 2 3 1 173 484 491 411
915 4 2 3 1 360 32 140 240
916 4 2 3 1 554 556 534 569
917 4 2 3 1 304 303 287 558
918 4 2 3 1 494 172 412 488
919 4 2 3 1 324 335 333 568
920 4 2 3 1 188 556 554 569
921 4 2 3 1 432 349 179 180
922 4 2 3 1 186 335 471 324
923 4 2 3 1 368 483 422 490
924 4 2 3 1 425 399 418 579
925 4 2 3 1 384 380 370 557
926 4 2 3 1 367 377 378 560
927 4 2 3 1 404 396 409 552
928 4 2 3 1 293 275 271 563
929 4 2 3 1 522 568 186 570
930 4 2 3 1 109 255 108 396
931 4 2 3 1 413 203 398 535
932 4 2 3 1 194 160 455 377
933 4 2 3 1 417 535 426 569
934 4 2 3 1 331 323 328 546
935 4 2 3 1 471 20 335 186
936 4 2 3 1 426 535 398 569
937 4 2 3 1 230 170 229 493
938 4 2 3 1 394 115 329 559
939 4 2 3 1 473 355 358 144
940 4 2 3 1 289 288 307 582
941 4 2 3 1 207 579 425 580
942 4 2 3 1 290 310 358 581
943 4 2 3 1 186 522 197 568
944 4 2 3 1 188 554 199 569
945 4 2 3 1 78 330 279 577
946 4 2 3 1 109 73 255 74
947 4 2 3 1 73 109 255 108
948 4 2 3 1 452 470 458 567
949 4 2 3 1 431 554 188 556
950 4 2 3 1 290 310 80 358
951 4 2 3 1 426 398 204 569
952 4 2 3 1 197 522 203 568
953 4 2 3 1 234 174 489 175
954 4 2 3 1 230 170 493 171
955 4 2 3 1 441 442 440 550
956 4 2 3 1 461 463 549 556
957 4 2 3 1 407 410 403 578
958 4 2 3 1 418 427 407 578
959 4 2 3 1 211 210 412 488
960 4 2 3 1 212 211 397 487
961 4 2 3 1 474 455 472 560
962 4 2 3 1 75 109 291 74
963 4 2 3 1 351 178 458 179
964 4 2 3 1 117 337 17 424
965 4 2 3 1 213 212 411 484
966 4 2 3 1 414 422 169 562
967 4 2 3 1 422 388 483 368
968 4 2 3 1 460 468 459 565
969 4 2 3 1 122 328 321 457
970 4 2 3 1 207 399 425 579
971 4 2 3 1 394 559 329 568
972 4 2 3 1 301 300 255 552
973 4 2 3 1 289 252 288 582
974 4 2 3 1 326 332 315 77
975 4 2 3 1 407 425 418 579
976 4 2 3 1 322 329 115 559
977 4 2 3 1 78 326 330 577
978 4 2 3 1 335 20 471 324
979 4 2 3 1 444 461 463 549
980 4 2 3 1 454 556 188 569
981 4 2 3 1 326 332 336 533
982 4 2 3 1 390 383 378 558
983 4 2 3 1 438 476 464 575
984 4 2 3 1 440 550 478 572
985 4 2 3 1 456 546 457 572
986 4 2 3 1 187 569 522 570
987 4 2 3 1 380 373 370 557
988 4 2 3 1 426 555 406 569
989 4 2 3 1 329 328 324 568
990 4 2 3 1 495 173 172 397
991 4 2 3 1 478 440 442 550
992 4 2 3 1 408 406 404 573
993 4 2 3 1 282 290 265 581
994 4 2 3 1 93 81 80 290
995 4 2 3 1 286 307 260 575
996 4 2 3 1 452 432 468 567
997 4 2 3 1 295 401 75 76
998 4 2 3 1 436 472 455 560
999 4 2 3 1 439 467 473 581
1000 4 2 3 1 331 329 322 559
1001 4 2 3 1 321 546 323 572
1002 4 2 3 1 374 387 379 582
1003 4 2 3 1 210 209 398 486
1004 4 2 3 1 214 213 399 482
1005 4 2 3 1 94 81 257 82
1006 4 2 3 1 175 399 174 489
1007 4 2 3 1 493 170 398 171
1008 4 2 3 1 379 387 369 582
1009 4 2 3 1 110 76 401 111
1010 4 2 3 1 295 309 259 557
1011 4 2 3 1 293 298 275 563
1012 4 2 3 1 76 110 401 75
1013 4 2 3 1 434 143 359 142
1014 4 2 3 1 401 416 421 557
1015 4 2 3 1 273 272 308 574
1016 4 2 3 1 65 386 260 66
1017 4 2 3 1 173 491 174 411
1018 4 2 3 1 452 458 432 567
1019 4 2 3 1 322 330 331 577
1020 4 2 3 1 205 420 412 555
1021 4 2 3 1 302 280 281 576
1022 4 2 3 1 337 492 17 424
1023 4 2 3 1 412 172 494 171
1024 4 2 3 1 471 186 324 568
1025 4 2 3 1 416 370 166 421
1026 4 2 3 1 332 13 118 313
1027 4 2 3 1 108 300 107 409
1028 4 2 3 1 469 465 190 579
1029 4 2 3 1 313 13 118 357
1030 4 2 3 1 424 117 334 413
1031 4 2 3 1 121 471 328 457
1032 4 2 3 1 260 311 296 575
1033 4 2 3 1 121 471 324 328
1034 4 2 3 1 294 316 280 576
1035 4 2 3 1 201 207 525 579
1036 4 2 3 1 321 328 323 546
1037 4 2 3 1 253 315 332 77
1038 4 2 3 1 256 285 286 565
1039 4 2 3 1 201 525 190 579
1040 4 2 3 1 183 143 434 142
1041 4 2 3 1 143 183 434 184
1042 4 2 3 1 454 431 188 556
1043 4 2 3 1 187 454 188 569
1044 4 2 3 1 311 2 354 385
1045 4 2 3 1 198 522 187 569
1046 4 2 3 1 81 94 257 93
1047 4 2 3 1 386 65 260 311
1048 4 2 3 1 367 159 436 158
1049 4 2 3 1 315 261 326 77
1050 4 2 3 1 198 204 522 569
1051 4 2 3 1 79 327 305 330
1052 4 2 3 1 413 117 334 333
1053 4 2 3 1 353 29 355 130
1054 4 2 3 1 214 399 175 482
1055 4 2 3 1 305 279 79 330
1056 4 2 3 1 159 455 160 377
1057 4 2 3 1 568 569 534 570
1058 4 2 3 1 388 422 169 368
1059 4 2 3 1 204 398 426 412
1060 4 2 3 1 217 494 210 488
1061 4 2 3 1 210 493 217 486
1062 4 2 3 1 371 414 168 169
1063 4 2 3 1 492 216 209 485
1064 4 2 3 1 397 487 173 212
1065 4 2 3 1 495 172 231 487
1066 4 2 3 1 223 486 493 209
1067 4 2 3 1 130 353 350 581
1068 4 2 3 1 487 172 211 397
1069 4 2 3 1 477 382 389 158
1070 4 2 3 1 94 257 93 356
1071 4 2 3 1 534 569 556 570
1072 4 2 3 1 412 420 205 397
1073 4 2 3 1 480 433 18 572
1074 4 2 3 1 62 63 348 256
1075 4 2 3 1 67 252 68 369
1076 4 2 3 1 394 428 415 559
1077 4 2 3 1 261 279 280 577
1078 4 2 3 1 66 387 288 67
1079 4 2 3 1 280 302 294 576
1080 4 2 3 1 72 108 300 107
1081 4 2 3 1 108 72 300 73
1082 4 2 3 1 399 213 174 482
1083 4 2 3 1 490 483 422 175
1084 4 2 3 1 386 65 96 97
1085 4 2 3 1 411 484 174 213
1086 4 2 3 1 192 159 436 193
1087 4 2 3 1 296 286 260 575
1088 4 2 3 1 354 30 135 372
1089 4 2 3 1 421 76 16 111
1090 4 2 3 1 167 395 168 375
1091 4 2 3 1 123 203 209 339
1092 4 2 3 1 159 192 436 158
1093 4 2 3 1 461 454 463 556
1094 4 2 3 1 162 476 372 386
1095 4 2 3 1 254 61 60 351
1096 4 2 3 1 455 193 160 194
1097 4 2 3 1 193 159 455 160
1098 4 2 3 1 123 203 339 22
1099 4 2 3 1 433 478 456 572
1100 4 2 3 1 386 65 97 66
1101 4 2 3 1 122 121 328 457
1102 4 2 3 1 177 439 473 581
1103 4 2 3 1 195 194 435 161
1104 4 2 3 1 100 69 70 259
1105 4 2 3 1 412 205 211 397
1106 4 2 3 1 101 100 70 259
1107 4 2 3 1 368 422 48 490
1108 4 2 3 1 349 61 62 284
1109 4 2 3 1 99 67 68 369
1110 4 2 3 1 99 98 67 369
1111 4 2 3 1 370 167 416 166
1112 4 2 3 1 99 68 100 383
1113 4 2 3 1 484 173 212 411
1114 4 2 3 1 490 422 48 175
1115 4 2 3 1 492 170 17 424
1116 4 2 3 1 483 490 234 175
1117 4 2 3 1 172 211 412 488
1118 4 2 3 1 398 204 210 412
1119 4 2 3 1 114 423 327 322
1120 4 2 3 1 354 2 8 385
1121 4 2 3 1 354 64 2 311
1122 4 2 3 1 322 114 423 415
1123 4 2 3 1 119 321 323 572
1124 4 2 3 1 23 209 338 123
1125 4 2 3 1 352 63 64 296
1126 4 2 3 1 324 333 329 568
1127 4 2 3 1 115 116 394 329
1128 4 2 3 1 387 66 98 67
1129 4 2 3 1 197 20 186 335
1130 4 2 3 1 46 382 244 158
1131 4 2 3 1 410 407 427 578
1132 4 2 3 1 376 169 422 562
1133 4 2 3 1 330 326 331 577
1134 4 2 3 1 168 152 375 153
1135 4 2 3 1 273 270 272 574
1136 4 2 3 1 186 568 471 570
1137 4 2 3 1 169 376 422 388
1138 4 2 3 1 197 20 335 21
1139 4 2 3 1 133 179 349 180
1140 4 2 3 1 135 181 134 352
1141 4 2 3 1 179 349 132 133
1142 4 2 3 1 380 100 101 259
1143 4 2 3 1 168 152 167 375
1144 4 2 3 1 114 322 115 415
1145 4 2 3 1 187 454 569 570
1146 4 2 3 1 117 334 337 424
1147 4 2 3 1 178 132 351 131
1148 4 2 3 1 22 203 335 21
1149 4 2 3 1 203 21 197 335
1150 4 2 3 1 132 178 351 179
1151 4 2 3 1 371 168 153 154
1152 4 2 3 1 154 371 168 169
1153 4 2 3 1 310 290 282 581
1154 4 2 3 1 282 60 59 350
1155 4 2 3 1 136 354 8 385
1156 4 2 3 1 412 210 398 171
1157 4 2 3 1 174 411 213 399
1158 4 2 3 1 471 568 541 570
1159 4 2 3 1 261 78 326 77
1160 4 2 3 1 354 8 2 89
1161 4 2 3 1 212 173 397 411
1162 4 2 3 1 2 64 354 89
1163 4 2 3 1 172 412 211 397
1164 4 2 3 1 29 355 137 353
1165 4 2 3 1 279 79 330 78
1166 4 2 3 1 137 361 7 353
1167 4 2 3 1 431 454 461 556
1168 4 2 3 1 139 118 363 359
1169 4 2 3 1 84 1 59 310
1170 4 2 3 1 211 210 204 412
1171 4 2 3 1 477 382 52 191
1172 4 2 3 1 139 140 119 359
1173 4 2 3 1 118 139 119 359
1174 4 2 3 1 18 321 119 572
1175 4 2 3 1 437 457 463 541
1176 4 2 3 1 478 433 480 572
1177 4 2 3 1 212 211 206 397
1178 4 2 3 1 422 48 169 368
1179 4 2 3 1 213 212 207 411
1180 4 2 3 1 211 204 205 412
1181 4 2 3 1 208 215 214 562
1182 4 2 3 1 368 154 39 249
1183 4 2 3 1 477 52 382 192
1184 4 2 3 1 437 187 186 570
1185 4 2 3 1 66 97 387 98
1186 4 2 3 1 152 166 370 151
1187 4 2 3 1 556 569 454 570
1188 4 2 3 1 210 209 204 398
1189 4 2 3 1 206 211 205 397
1190 4 2 3 1 18 433 321 572
1191 4 2 3 1 333 413 117 116
1192 4 2 3 1 18 321 433 122
1193 4 2 3 1 54 215 208 562
1194 4 2 3 1 388 169 154 368
1195 4 2 3 1 214 213 208 399
1196 4 2 3 1 166 152 370 167
1197 4 2 3 1 136 30 354 372
1198 4 2 3 1 204 209 203 398
1199 4 2 3 1 63 62 348 87
1200 4 2 3 1 89 64 352 88
1201 4 2 3 1 64 63 352 88
1202 4 2 3 1 348 88 63 87
1203 4 2 3 1 85 61 86 351
1204 4 2 3 1 87 61 349 86
1205 4 2 3 1 61 87 349 62
1206 4 2 3 1 208 213 207 399
1207 4 2 3 1 140 165 360 240
1208 4 2 3 1 214 399 422 175
1209 4 2 3 1 53 54 208 562
1210 4 2 3 1 398 424 170 209
1211 4 2 3 1 311 65 2 385
1212 4 2 3 1 216 492 209 223
1213 4 2 3 1 486 223 216 209
1214 4 2 3 1 221 489 234 228
1215 4 2 3 1 234 483 214 221
1216 4 2 3 1 231 218 487 211
1217 4 2 3 1 211 231 172 487
1218 4 2 3 1 226 219 484 212
1219 4 2 3 1 226 212 487 219
1220 4 2 3 1 214 422 483 175
1221 4 2 3 1 187 437 454 570
1222 4 2 3 1 192 244 382 158
1223 4 2 3 1 210 493 171 230
1224 4 2 3 1 210 494 230 171
1225 4 2 3 1 11 96 385 103
1226 4 2 3 1 13 313 318 357
1227 4 2 3 1 198 523 204 569
1228 4 2 3 1 3 70 309 373
1229 4 2 3 1 84 60 350 59
1230 4 2 3 1 60 84 350 85
1231 4 2 3 1 10 95 361 92
1232 4 2 3 1 325 23 485 338
1233 4 2 3 1 85 61 351 60
1234 4 2 3 1 244 382 52 192
1235 4 2 3 1 423 327 15 114
1236 4 2 3 1 234 214 483 175
1237 4 2 3 1 186 471 437 570
1238 4 2 3 1 310 361 1 80
1239 4 2 3 1 368 169 154 249
1240 4 2 3 1 4 327 305 79
1241 4 2 3 1 360 165 47 240
1242 4 2 3 1 463 454 437 556
1243 4 2 3 1 421 166 16 373
1244 4 2 3 1 359 140 119 360
1245 4 2 3 1 165 47 18 360
1246 4 2 3 1 20 121 471 324
1247 4 2 3 1 463 437 541 556
1248 4 2 3 1 382 477 192 158
1249 4 2 3 1 485 492 25 325
1250 4 2 3 1 368 48 169 249
1251 4 2 3 1 385 96 65 103
1252 4 2 3 1 165 18 119 360
1253 4 2 3 1 471 457 437 541
1254 4 2 3 1 45 382 381 562
1255 4 2 3 1 95 361 92 80
1256 4 2 3 1 454 437 556 570
1257 4 2 3 1 1 7 84 83
1258 4 2 3 1 84 59 1 83
1259 4 2 3 1 385 65 2 103
1260 4 2 3 1 541 556 437 570
1261 4 2 3 1 2 8 90 89
1262 4 2 3 1 433 120 18 122
1263 4 2 3 1 90 64 2 89
1264 4 2 3 1 50 34 355 144
1265 4 2 3 1 111 76 16 113
1266 4 2 3 1 165 140 119 139
1267 4 2 3 1 164 139 119 118
1268 4 2 3 1 139 119 165 164
1269 4 2 3 1 376 169 154 388
1270 4 2 3 1 3 16 76 113
1271 4 2 3 1 34 50 241 144
1272 4 2 3 1 185 241 50 144
1273 4 2 3 1 361 95 1 80
1274 4 2 3 1 139 118 357 363
1275 4 2 3 1 56 483 368 490
1276 4 2 3 1 41 40 250 368
1277 4 2 3 1 10 7 27 361
1278 4 2 3 1 2 11 385 103
1279 4 2 3 1 492 17 26 325
1280 4 2 3 1 471 541 437 570
1281 4 2 3 1 483 388 56 368
1282 4 2 3 1 25 24 485 325
1283 4 2 3 1 26 25 492 325
1284 4 2 3 1 485 24 23 325
1285 4 2 3 1 44 45 381 562
1286 4 2 3 1 95 1 10 361
1287 4 2 3 1 10 1 7 361
1288 4 2 3 1 368 57 56 490
1289 4 2 3 1 48 58 368 490
1290 4 2 3 1 368 58 57 490
1291 4 2 3 1 360 18 481 571
1292 4 2 3 1 388 42 56 368
1293 4 2 3 1 43 509 157 376
1294 4 2 3 1 52 46 382 244
1295 4 2 3 1 480 18 19 481
1296 4 2 3 1 49 481 19 571
1297 4 2 3 1 39 48 368 249
1298 4 2 3 1 47 18 360 571
1299 4 2 3 1 41 57 42 368
1300 4 2 3 1 19 481 18 571
1301 4 2 3 1 119 140 165 360
1302 4 2 3 1 250 57 41 368
1303 4 2 3 1 58 250 368 57
1304 4 2 3 1 42 57 56 368
1305 4 2 3 1 5 13 313 318
1306 4 2 3 1 39 48 40 368
1307 4 2 3 1 48 58 40 368
1308 4 2 3 1 509 215 157 376
1309 4 2 3 1 32 360 33 571
1310 4 2 3 1 381 157 44 562
1311 4 2 3 1 518 521 40 155
1312 4 2 3 1 513 516 42 156
1313 4 2 3 1 53 45 245 246
1314 4 2 3 1 157 381 376 562
1315 4 2 3 1 510 44 157 562
1316 4 2 3 1 13 5 313 104
1317 4 2 3 1 215 509 55 376
1318 4 2 3 1 9 357 31 547
1319 4 2 3 1 157 376 215 562
1320 4 2 3 1 510 215 511 562
1321 4 2 3 1 510 157 215 562
1322 4 2 3 1 57 41 42 156
1323 4 2 3 1 34 497 499 145
1324 4 2 3 1 105 138 366 547
1325 4 2 3 1 222 516 514 156
1326 4 2 3 1 235 521 519 155
1327 4 2 3 1 345 129 90 347
1328 4 2 3 1 319 320 105 547
1329 4 2 3 1 502 176 501 571
1330 4 2 3 1 500 141 176 571
1331 4 2 3 1 176 141 501 571
1332 4 2 3 1 150 393 113 392
1333 4 2 3 1 430 176 429 571
1334 4 2 3 1 342 341 127 83
1335 4 2 3 1 54 511 215 562
1336 4 2 3 1 222 57 42 156
1337 4 2 3 1 57 41 156 512
1338 4 2 3 1 516 222 42 156
1339 4 2 3 1 235 40 521 155
1340 4 2 3 1 104 320 319 547
1341 4 2 3 1 343 28 8 129
1342 4 2 3 1 430 429 120 571
1343 4 2 3 1 90 8 2 129
1344 4 2 3 1 519 521 235 520
1345 4 2 3 1 222 516 515 514
1346 4 2 3 1 346 345 90 347
1347 4 2 3 1 10 342 127 83
1348 4 2 3 1 156 222 57 512
1349 4 2 3 1 113 38 393 150
1350 4 2 3 1 8 90 343 129
1351 4 2 3 1 6 320 5 547
1352 4 2 3 1 2 90 129 347
1353 4 2 3 1 515 57 222 512
1354 4 2 3 1 42 56 57 222
1355 4 2 3 1 343 90 8 346
1356 4 2 3 1 517 235 48 520
1357 4 2 3 1 40 48 235 58
1358 4 2 3 1 502 49 176 571
1359 4 2 3 1 104 5 320 547
1360 4 2 3 1 50 34 499 145
1361 4 2 3 1 499 239 50 145
1362 4 2 3 1 6 105 320 547
1363 4 2 3 1 13 319 14 547
1364 4 2 3 1 120 429 19 571
1365 4 2 3 1 10 7 1 83
1366 4 2 3 1 30 237 505 503
1367 4 2 3 1 13 104 319 547
1368 4 2 3 1 176 49 429 571
1369 4 2 3 1 430 120 18 571
1370 4 2 3 1 176 430 47 571
1371 4 2 3 1 5 104 13 547
1372 4 2 3 1 19 429 49 571
1373 4 2 3 1 29 496 498 236
1374 4 2 3 1 515 250 57 512
1375 4 2 3 1 319 105 14 547
1376 4 2 3 1 500 176 47 571
1377 4 2 3 1 18 47 430 571
1378 4 2 3 1 120 19 18 571
1379 4 2 3 1 105 366 14 547
1380 4 2 3 1 31 366 138 547
1381 4 2 3 1 42 56 222 516
1382 4 2 3 1 40 235 521 58
1383 4 2 3 1 346 8 343 128
1384 4 2 3 1 500 32 141 571
1385 4 2 3 1 501 141 33 571
1386 4 2 3 1 347 344 2 103
1387 4 2 3 1 41 57 250 512
1388 4 2 3 1 497 241 34 499
1389 4 2 3 1 342 10 1 83
1390 4 2 3 1 506 505 504 238
1391 4 2 3 1 343 8 28 128
1392 4 2 3 1 38 113 393 16
1393 4 2 3 1 496 29 35 236
1394 4 2 3 1 237 30 37 503
1395 4 2 3 1 48 517 520 249
1396 4 2 3 1 31 138 9 547
1397 4 2 3 1 141 32 33 571
1398 4 2 3 1 10 1 95 342
1399 4 2 3 1 36 504 506 243
1400 4 2 3 1 50 34 241 499
1401 4 2 3 1 48 39 517 249
1402 4 2 3 1 16 38 163 393
1403 4 2 3 1 344 11 2 103
1404 4 2 3 1 506 51 36 243
1405 4 2 3 1 77 313 5 104
1406 4 2 3 1 198 205 204 523
1407 4 2 3 1 19 122 120 433
1408 4 2 3 1 199 205 198 523
1409 4 2 3 1 190 201 189 525
1410 4 2 3 1 189 201 200 525
1411 4 2 3 1 513 514 516 156
1412 4 2 3 1 201 207 200 525
1413 4 2 3 1 518 519 521 155
1414 4 2 3 1 187 198 197 522
1415 4 2 3 1 345 344 129 347
1416 4 2 3 1 203 198 204 522
1417 4 2 3 1 187 197 186 522
1418 4 2 3 1 197 198 203 522
1419 4 2 3 1 200 207 206 525
1420 4 2 3 1 187 522 186 570
1421 4 2 3 1 190 525 189 579
1422 4 2 3 1 425 419 411 580
1423 4 2 3 1 514 512 222 156
1424 4 2 3 1 222 512 514 515
1425 4 2 3 1 345 343 90 129
1426 4 2 3 1 90 343 345 346
1427 4 2 3 1 519 517 235 155
1428 4 2 3 1 519 235 517 520
1429 4 2 3 1 17 26 170 492
1430 4 2 3 1 17 170 26 125
1431 4 2 3 1 229 170 26 492
1432 4 2 3 1 229 26 170 125
1433 4 2 3 1 175 234 48 490
1434 4 2 3 1 175 48 234 235
1435 4 2 3 1 58 48 234 490
1436 4 2 3 1 58 234 48 235
1437 4 2 3 1 223 25 216 492
1438 4 2 3 1 223 216 25 124
1439 4 2 3 1 485 216 25 492
1440 4 2 3 1 299 581 254 282
1441 4 2 3 1 254 581 299 539
1442 4 2 3 1 205 523 412 204
1443 4 2 3 1 205 412 523 555
1444 4 2 3 1 412 523 426 204
1445 4 2 3 1 412 426 523 555
1446 4 2 3 1 426 523 569 204
1447 4 2 3 1 426 569 523 555
1448 4 2 3 1 19 433 18 480
1449 4 2 3 1 18 433 19 120
1450 4 2 3 1 560 465 528 540
1451 4 2 3 1 560 528 465 472
1452 4 2 3 1 451 465 528 472
1453 4 2 3 1 300 400 531 258
1454 4 2 3 1 531 400 300 409
1455 4 2 3 1 558 277 557 528
1456 4 2 3 1 558 557 277 303
1457 4 2 3 1 563 528 277 536
1458 4 2 3 1 563 277 528 545
1459 4 2 3 1 538 554 200 189
1460 4 2 3 1 200 554 538 206
1461 4 2 3 1 538 525 200 206
1462 4 2 3 1 382 381 208 371
1463 4 2 3 1 382 208 381 562
1464 4 2 3 1 414 208 381 371
1465 4 2 3 1 414 381 208 562
1466 4 2 3 1 565 181 352 134
1467 4 2 3 1 565 352 181 575
1468 4 2 3 1 107 71 258 72
1469 4 2 3 1 258 300 107 72
1470 4 2 3 1 107 300 258 400
1471 4 2 3 1 543 357 313 118
1472 4 2 3 1 543 313 357 318
1473 4 2 3 1 575 135 476 354
1474 4 2 3 1 575 476 135 182
1475 4 2 3 1 372 476 135 354
1476 4 2 3 1 456 549 526 444
1477 4 2 3 1 526 549 456 546
1478 4 2 3 1 409 573 531 408
1479 4 2 3 1 531 573 409 552
1480 4 2 3 1 382 208 540 371
1481 4 2 3 1 377 194 379 435
1482 4 2 3 1 377 379 194 160
1483 4 2 3 1 161 379 194 435
1484 4 2 3 1 161 194 379 160
1485 4 2 3 1 387 582 66 288
1486 4 2 3 1 260 66 582 288
1487 4 2 3 1 94 257 263 82
1488 4 2 3 1 263 257 94 363
1489 4 2 3 1 553 292 576 533
1490 4 2 3 1 262 292 576 294
1491 4 2 3 1 262 576 292 533
1492 4 2 3 1 576 274 553 548
1493 4 2 3 1 142 440 481 360
1494 4 2 3 1 481 440 142 183
1495 4 2 3 1 543 336 332 533
1496 4 2 3 1 543 332 336 118
1497 4 2 3 1 541 549 556 534
1498 4 2 3 1 556 549 541 463
1499 4 2 3 1 579 202 540 191
1500 4 2 3 1 579 540 202 208
1501 4 2 3 1 540 202 382 191
1502 4 2 3 1 540 382 202 208
1503 4 2 3 1 523 555 554 205
1504 4 2 3 1 554 555 523 569
1505 4 2 3 1 554 199 523 205
1506 4 2 3 1 523 199 554 569
1507 4 2 3 1 142 440 434 183
1508 4 2 3 1 434 440 142 359
1509 4 2 3 1 436 560 159 367
1510 4 2 3 1 568 417 413 394
1511 4 2 3 1 568 413 417 535
1512 4 2 3 1 568 417 534 535
1513 4 2 3 1 568 534 417 559
1514 4 2 3 1 582 67 369 252
1515 4 2 3 1 582 369 67 387
1516 4 2 3 1 476 162 464 374
1517 4 2 3 1 476 464 162 196
1518 4 2 3 1 195 162 464 196
1519 4 2 3 1 177 581 178 439
1520 4 2 3 1 569 398 522 535
1521 4 2 3 1 569 522 398 204
1522 4 2 3 1 203 522 398 535
1523 4 2 3 1 203 398 522 204
1524 4 2 3 1 259 380 373 101
1525 4 2 3 1 373 70 259 101
1526 4 2 3 1 259 70 373 309
1527 4 2 3 1 221 227 482 489
1528 4 2 3 1 221 482 227 220
1529 4 2 3 1 226 218 495 225
1530 4 2 3 1 226 495 218 487
1531 4 2 3 1 231 495 218 225
1532 4 2 3 1 231 218 495 487
1533 4 2 3 1 199 569 187 188
1534 4 2 3 1 352 64 354 311
1535 4 2 3 1 352 354 64 89
1536 4 2 3 1 339 209 334 203
1537 4 2 3 1 209 413 334 203
1538 4 2 3 1 334 413 209 424
1539 4 2 3 1 209 398 413 203
1540 4 2 3 1 413 398 209 424
1541 4 2 3 1 358 80 361 310
1542 4 2 3 1 358 361 80 92
1543 4 2 3 1 401 402 75 110
1544 4 2 3 1 109 402 75 291
1545 4 2 3 1 109 75 402 110
1546 4 2 3 1 80 93 358 92
1547 4 2 3 1 358 93 80 290
1548 4 2 3 1 355 137 361 146
1549 4 2 3 1 361 137 355 353
1550 4 2 3 1 385 136 372 149
1551 4 2 3 1 385 372 136 354
1552 4 2 3 1 370 166 373 151
1553 4 2 3 1 373 166 370 421
1554 4 2 3 1 169 381 376 154
1555 4 2 3 1 169 376 381 562
1556 4 2 3 1 581 130 473 177
1557 4 2 3 1 581 473 130 353
1558 4 2 3 1 355 130 473 353
1559 4 2 3 1 481 119 18 360
1560 4 2 3 1 481 18 119 572
1561 4 2 3 1 582 374 66 260
1562 4 2 3 1 386 374 66 97
1563 4 2 3 1 386 66 374 260
1564 4 2 3 1 581 178 130 177
1565 4 2 3 1 435 161 464 195
1566 4 2 3 1 435 464 161 374
1567 4 2 3 1 162 464 161 195
1568 4 2 3 1 162 161 464 374
1569 4 2 3 1 218 231 488 211
1570 4 2 3 1 172 231 488 494
1571 4 2 3 1 172 488 231 211
1572 4 2 3 1 210 493 398 171
1573 4 2 3 1 210 398 493 486
1574 4 2 3 1 494 210 412 171
1575 4 2 3 1 494 412 210 488
1576 4 2 3 1 373 421 76 16
1577 4 2 3 1 76 421 373 309
1578 4 2 3 1 76 3 373 16
1579 4 2 3 1 373 3 76 309
1580 4 2 3 1 100 259 287 69
1581 4 2 3 1 287 259 100 383
1582 4 2 3 1 287 68 100 69
1583 4 2 3 1 100 68 287 383
1584 4 2 3 1 221 482 234 489
1585 4 2 3 1 221 234 482 214
1586 4 2 3 1 175 234 482 489
1587 4 2 3 1 175 482 234 214
1588 4 2 3 1 209 492 424 170
1589 4 2 3 1 209 424 492 485
1590 4 2 3 1 209 493 398 486
1591 4 2 3 1 209 398 493 170
1592 4 2 3 1 1 361 84 7
1593 4 2 3 1 1 84 361 310
1594 4 2 3 1 353 84 361 7
1595 4 2 3 1 353 361 84 310
1596 4 2 3 1 130 131 581 350
1597 4 2 3 1 130 581 131 178
1598 4 2 3 1 351 581 131 350
1599 4 2 3 1 351 131 581 178
1600 4 2 3 1 399 207 411 213
1601 4 2 3 1 411 425 207 399
1602 4 2 3 1 411 207 425 580
1603 4 2 3 1 386 65 385 96
1604 4 2 3 1 386 385 65 311
1605 4 2 3 1 473 144 467 185
1606 4 2 3 1 473 467 144 362
1607 4 2 3 1 184 467 144 185
1608 4 2 3 1 473 144 50 355
1609 4 2 3 1 50 144 473 185
1610 4 2 3 1 214 562 414 208
1611 4 2 3 1 414 562 214 422
1612 4 2 3 1 414 399 214 208
1613 4 2 3 1 214 399 414 422
1614 4 2 3 1 143 434 467 184
1615 4 2 3 1 467 434 143 362
1616 4 2 3 1 467 144 143 184
1617 4 2 3 1 143 144 467 362
1618 4 2 3 1 493 217 230 210
1619 4 2 3 1 493 230 217 224
1620 4 2 3 1 494 230 217 210
1621 4 2 3 1 494 217 230 224
1622 4 2 3 1 164 547 118 14
1623 4 2 3 1 547 13 118 14
1624 4 2 3 1 118 13 547 357
1625 4 2 3 1 164 147 547 14
1626 4 2 3 1 217 225 488 218
1627 4 2 3 1 217 488 225 494
1628 4 2 3 1 231 488 225 218
1629 4 2 3 1 231 225 488 494
1630 4 2 3 1 482 213 227 220
1631 4 2 3 1 484 227 213 220
1632 4 2 3 1 569 198 199 187
1633 4 2 3 1 569 199 198 523
1634 4 2 3 1 493 229 209 170
1635 4 2 3 1 493 209 229 223
1636 4 2 3 1 492 209 229 170
1637 4 2 3 1 492 229 209 223
1638 4 2 3 1 13 313 77 104
1639 4 2 3 1 196 162 51 243
1640 4 2 3 1 36 51 162 243
1641 4 2 3 1 36 162 51 372
1642 4 2 3 1 112 71 15 106
1643 4 2 3 1 15 71 112 4
1644 4 2 3 1 15 327 71 4
1645 4 2 3 1 327 305 71 4
1646 4 2 3 1 149 128 8 136
1647 4 2 3 1 8 128 149 28
1648 4 2 3 1 8 385 149 136
1649 4 2 3 1 149 385 8 28
1650 4 2 3 1 102 70 373 101
1651 4 2 3 1 373 70 102 3
1652 4 2 3 1 373 12 102 101
1653 4 2 3 1 102 12 373 3
1654 4 2 3 1 163 16 373 38
1655 4 2 3 1 373 16 163 166
1656 4 2 3 1 373 151 163 38
1657 4 2 3 1 163 151 373 166
1658 4 2 3 1 250 40 58 368
1659 4 2 3 1 250 58 40 251
1660 4 2 3 1 372 37 136 30
1661 4 2 3 1 372 136 37 149
1662 4 2 3 1 237 136 37 30
1663 4 2 3 1 237 37 136 149
1664 4 2 3 1 373 38 3 12
1665 4 2 3 1 373 3 38 16
1666 4 2 3 1 113 38 3 16
1667 4 2 3 1 385 11 8 28
1668 4 2 3 1 385 8 11 2
1669 4 2 3 1 129 8 11 28
1670 4 2 3 1 129 11 8 2
1671 4 2 3 1 191 53 382 52
1672 4 2 3 1 45 53 382 562
1673 4 2 3 1 355 50 35 34
1674 4 2 3 1 145 35 50 34
1675 4 2 3 1 51 372 37 36
1676 4 2 3 1 6 318 547 5
1677 4 2 3 1 13 547 318 5
1678 4 2 3 1 13 318 547 357
1679 4 2 3 1 24 25 216 124
1680 4 2 3 1 24 216 25 485
1681 4 2 3 1 502 571 242 49
1682 4 2 3 1 500 240 571 47
1683 4 2 3 1 500 571 240 32
1684 4 2 3 1 360 571 240 47
1685 4 2 3 1 360 240 571 32
1686 4 2 3 1 511 246 562 54
1687 4 2 3 1 53 562 246 54
1688 4 2 3 1 246 45 562 53
1689 4 2 3 1 246 562 45 44
1690 4 2 3 1 238 37 503 148
1691 4 2 3 1 238 504 503 505
1692 4 2 3 1 503 504 238 148
1693 4 2 3 1 246 510 562 44
1694 4 2 3 1 562 510 246 511
1695 4 2 3 1 344 129 2 11
1696 4 2 3 1 344 2 129 347
1697 4 2 3 1 91 547 105 6
1698 4 2 3 1 517 155 48 235
1699 4 2 3 1 517 48 155 39
1700 4 2 3 1 40 48 155 235
1701 4 2 3 1 40 155 48 39
1702 4 2 3 1 10 7 127 27
1703 4 2 3 1 10 127 7 83
1704 4 2 3 1 37 148 51 36
1705 4 2 3 1 37 51 148 238
1706 4 2 3 1 51 148 506 36
1707 4 2 3 1 51 506 148 238
1708 4 2 3 1 506 148 504 36
1709 4 2 3 1 506 504 148 238
1710 4 2 3 1 38 3 150 113
1711 4 2 3 1 38 150 3 12
1712 4 2 3 1 35 50 239 145
1713 4 2 3 1 239 35 496 29
1714 4 2 3 1 496 35 239 145
1715 4 2 3 1 239 496 498 29
1716 4 2 3 1 503 30 238 505
1717 4 2 3 1 503 238 30 37
1718 4 2 3 1 40 521 251 58
1719 4 2 3 1 251 521 40 518
1720 4 2 3 1 42 516 248 56
1721 4 2 3 1 248 516 42 513
1722 4 2 3 1 244 507 52 46
1723 4 2 3 1 244 52 507 508
1724 4 2 3 1 83 126 127 7
1725 4 2 3 1 27 127 126 7
1726 4 2 3 1 27 126 127 340
1727 4 2 3 1 102 12 150 391
1728 4 2 3 1 150 12 102 3
1729 4 2 3 1 102 113 150 3
1730 4 2 3 1 507 52 53 508
1731 4 2 3 1 507 245 53 45
1732 4 2 3 1 53 245 507 508
1733 4 2 3 1 242 501 571 502
1734 4 2 3 1 571 501 242 33
1735 4 2 3 1 499 497 239 145
1736 4 2 3 1 499 239 497 498
1737 4 2 3 1 496 239 497 145
1738 4 2 3 1 496 497 239 498
1739 4 2 3 1 376 422 214 562
1740 4 2 3 1 334 338 209 339
1741 4 2 3 1 209 338 334 424
1742 4 2 3 1 159 455 436 193
1743 4 2 3 1 159 436 455 560
1744 4 2 3 1 164 139 547 147
1745 4 2 3 1 31 547 139 147
1746 4 2 3 1 31 139 547 357
1747 4 2 3 1 59 310 350 84
1748 4 2 3 1 353 350 310 84
1749 4 2 3 1 353 310 350 581
1750 4 2 3 1 397 580 419 206
1751 4 2 3 1 419 580 397 411
1752 4 2 3 1 212 207 580 206
1753 4 2 3 1 580 207 212 411
1754 4 2 3 1 397 212 580 206
1755 4 2 3 1 580 212 397 411
1756 4 2 3 1 215 214 376 55
1757 4 2 3 1 215 376 214 562
1758 4 2 3 1 489 233 482 174
1759 4 2 3 1 489 482 233 227
1760 4 2 3 1 482 233 213 174
1761 4 2 3 1 482 213 233 227
1762 4 2 3 1 213 233 484 174
1763 4 2 3 1 213 484 233 227
1764 4 2 3 1 484 233 491 174
1765 4 2 3 1 484 491 233 227
1766 4 2 3 1 202 53 382 191
1767 4 2 3 1 476 162 51 196
1768 4 2 3 1 476 51 162 372
1769 4 2 3 1 118 139 547 164
1770 4 2 3 1 547 139 118 357
1771 4 2 3 1 9 91 138 364
1772 4 2 3 1 365 138 91 364
1773 4 2 3 1 365 91 138 105
1774 4 2 3 1 126 341 127 340
1775 4 2 3 1 126 127 341 83
1776 4 2 3 1 102 392 150 113
1777 4 2 3 1 102 150 392 391
1778 4 2 3 1 465 528 579 451
1779 4 2 3 1 465 579 528 540
1780 4 2 3 1 189 525 538 579
1781 4 2 3 1 189 538 525 200
1782 4 2 3 1 206 580 538 525
1783 4 2 3 1 206 538 580 419
1784 4 2 3 1 579 538 580 525
1785 4 2 3 1 579 580 538 419
1786 4 2 3 1 402 295 75 291
1787 4 2 3 1 402 75 295 401
1788 4 2 3 1 133 181 348 134
1789 4 2 3 1 565 348 181 134
1790 4 2 3 1 565 181 348 459
1791 4 2 3 1 181 182 352 135
1792 4 2 3 1 181 352 182 438
1793 4 2 3 1 575 352 182 135
1794 4 2 3 1 575 182 352 438
1795 4 2 3 1 66 387 374 582
1796 4 2 3 1 374 387 66 97
1797 4 2 3 1 292 576 274 553
1798 4 2 3 1 292 274 576 294
1799 4 2 3 1 208 382 53 562
1800 4 2 3 1 208 53 382 202
1801 4 2 3 1 373 259 557 380
1802 4 2 3 1 557 259 373 309
1803 4 2 3 1 490 56 228 57
1804 4 2 3 1 222 56 228 221
1805 4 2 3 1 222 228 56 57
1806 4 2 3 1 71 327 423 305
1807 4 2 3 1 423 258 71 305
1808 4 2 3 1 495 232 487 226
1809 4 2 3 1 495 487 232 173
1810 4 2 3 1 232 491 484 226
1811 4 2 3 1 232 484 491 173
1812 4 2 3 1 212 232 484 226
1813 4 2 3 1 212 484 232 173
1814 4 2 3 1 487 232 212 226
1815 4 2 3 1 487 212 232 173
1816 4 2 3 1 135 238 372 30
1817 4 2 3 1 37 238 372 51
1818 4 2 3 1 37 372 238 30
1819 4 2 3 1 182 476 372 51
1820 4 2 3 1 372 476 182 135
1821 4 2 3 1 372 238 182 51
1822 4 2 3 1 182 238 372 135
1823 4 2 3 1 481 183 242 49
1824 4 2 3 1 481 242 183 142
1825 4 2 3 1 33 242 481 142
1826 4 2 3 1 147 547 366 31
1827 4 2 3 1 366 547 147 14
1828 4 2 3 1 318 94 547 357
1829 4 2 3 1 82 318 547 6
1830 4 2 3 1 547 318 82 94
1831 4 2 3 1 547 91 82 6
1832 4 2 3 1 82 91 547 94
1833 4 2 3 1 313 77 332 13
1834 4 2 3 1 313 332 77 253
1835 4 2 3 1 71 15 423 327
1836 4 2 3 1 423 15 71 106
1837 4 2 3 1 239 35 355 50
1838 4 2 3 1 355 35 239 29
1839 4 2 3 1 239 130 355 29
1840 4 2 3 1 473 177 355 50
1841 4 2 3 1 473 355 177 130
1842 4 2 3 1 239 355 177 50
1843 4 2 3 1 239 177 355 130
1844 4 2 3 1 126 146 7 137
1845 4 2 3 1 126 7 146 27
1846 4 2 3 1 361 7 146 137
1847 4 2 3 1 361 146 7 27
1848 4 2 3 1 46 507 53 45
1849 4 2 3 1 53 507 46 52
1850 4 2 3 1 53 382 46 45
1851 4 2 3 1 46 382 53 52
1852 4 2 3 1 547 9 94 91
1853 4 2 3 1 94 9 547 357
1854 4 2 3 1 524 43 42 388
1855 4 2 3 1 43 509 55 247
1856 4 2 3 1 524 42 56 388
1857 4 2 3 1 55 43 376 509
1858 4 2 3 1 422 214 388 376
1859 4 2 3 1 422 388 214 483
1860 4 2 3 1 56 228 483 490
1861 4 2 3 1 56 483 228 221
1862 4 2 3 1 234 483 228 490
1863 4 2 3 1 234 228 483 221
1864 4 2 3 1 55 56 42 248
1865 4 2 3 1 42 56 55 524
1866 4 2 3 1 42 247 55 248
1867 4 2 3 1 181 180 348 459
1868 4 2 3 1 181 348 180 133
1869 4 2 3 1 565 348 180 459
1870 4 2 3 1 565 180 348 133
1871 4 2 3 1 423 71 400 106
1872 4 2 3 1 423 400 71 258
1873 4 2 3 1 107 400 71 106
1874 4 2 3 1 107 71 400 258
1875 4 2 3 1 242 571 481 49
1876 4 2 3 1 242 481 571 33
1877 4 2 3 1 310 350 282 59
1878 4 2 3 1 310 282 350 581
1879 4 2 3 1 360 33 481 142
1880 4 2 3 1 360 481 33 571
1881 4 2 3 1 91 138 547 9
1882 4 2 3 1 91 547 138 105
1883 4 2 3 1 29 355 146 137
1884 4 2 3 1 146 355 29 35
1885 4 2 3 1 146 236 29 137
1886 4 2 3 1 29 236 146 35
1887 4 2 3 1 43 42 55 524
1888 4 2 3 1 43 55 42 247
1889 4 2 3 1 524 483 56 55
1890 4 2 3 1 56 483 524 388
1891 4 2 3 1 376 214 483 55
1892 4 2 3 1 483 214 376 388
1893 4 2 3 1 524 43 483 55
1894 4 2 3 1 483 43 524 388
1895 4 2 3 1 43 376 483 55
1896 4 2 3 1 483 376 43 388
$EndElements
