$MeshFormat
2.2 0 8
$EndMeshFormat
$PhysicalNames
3
2 1 "Fixed"
2 2 "Load"
3 3 "Volume"
$EndPhysicalNames
$Nodes
362
1 -4.440892098501e-16 -38 75
2 -4.440892098501e-16 38 75
3 -4.440892098501e-16 -38 -75
4 -4.440892098501e-16 38 -75
5 2 -40 75
6 78 -40 75
7 80 -38 75
8 80 38 75
9 78 40 75
10 2 40 75
11 2 -40 -75
12 2 40 -75
13 78 -40 -75
14 80 -38 -75
15 80 38 -75
16 78 40 -75
17 0 -22.80000000000004 75
18 0 -7.600000000000094 75
19 0 7.599999999999902 75
20 0 22.79999999999996 75
21 -4.440892098501e-16 -38 -56.25000000000006
22 -4.440892098501e-16 -38 -37.50000000000013
23 -4.440892098501e-16 -38 -18.75000000000019
24 -4.440892098501e-16 -38 -2.557953848736361e-13
25 -4.440892098501e-16 -38 18.7499999999998
26 -4.440892098501e-16 -38 37.49999999999987
27 -4.440892098501e-16 -38 56.24999999999994
28 0 -22.80000000000004 -75
29 0 -7.600000000000094 -75
30 0 7.599999999999902 -75
31 0 22.79999999999996 -75
32 -4.440892098501e-16 38 -56.25000000000006
33 -4.440892098501e-16 38 -37.50000000000013
34 -4.440892098501e-16 38 -18.75000000000019
35 -4.440892098501e-16 38 -2.557953848736361e-13
36 -4.440892098501e-16 38 18.7499999999998
37 -4.440892098501e-16 38 37.49999999999987
38 -4.440892098501e-16 38 56.24999999999994
39 0.585786437626906 -39.4142135623731 75
40 17.19999999999996 -40 75
41 32.39999999999991 -40 75
42 47.5999999999999 -40 75
43 62.79999999999996 -40 75
44 79.41421356237309 -39.4142135623731 75
45 80 -22.80000000000004 75
46 80 -7.600000000000094 75
47 80 7.599999999999902 75
48 80 22.79999999999996 75
49 79.41421356237309 39.4142135623731 75
50 17.19999999999996 40 75
51 32.39999999999991 40 75
52 47.5999999999999 40 75
53 62.79999999999996 40 75
54 0.5857864376269066 39.4142135623731 75
55 0.585786437626906 -39.4142135623731 -75
56 2 -40 -56.25000000000006
57 2 -40 -37.50000000000013
58 2 -40 -18.75000000000019
59 2 -40 -2.557953848736361e-13
60 2 -40 18.7499999999998
61 2 -40 37.49999999999987
62 2 -40 56.24999999999994
63 2 40 -56.25000000000006
64 2 40 -37.50000000000013
65 2 40 -18.75000000000019
66 2 40 -2.557953848736361e-13
67 2 40 18.7499999999998
68 2 40 37.49999999999987
69 2 40 56.24999999999994
70 0.5857864376269066 39.4142135623731 -75
71 17.19999999999996 -40 -75
72 32.39999999999991 -40 -75
73 47.5999999999999 -40 -75
74 62.79999999999996 -40 -75
75 79.41421356237309 -39.4142135623731 -75
76 80 -22.80000000000004 -75
77 80 -7.600000000000094 -75
78 80 7.599999999999902 -75
79 80 22.79999999999996 -75
80 79.41421356237309 39.4142135623731 -75
81 17.19999999999996 40 -75
82 32.39999999999991 40 -75
83 47.5999999999999 40 -75
84 62.79999999999996 40 -75
85 78 -40 -56.25000000000006
86 78 -40 -37.50000000000013
87 78 -40 -18.75000000000019
88 78 -40 -2.557953848736361e-13
89 78 -40 18.7499999999998
90 78 -40 37.49999999999987
91 78 -40 56.24999999999994
92 78 40 -56.25000000000006
93 78 40 -37.50000000000013
94 78 40 -18.75000000000019
95 78 40 -2.557953848736361e-13
96 78 40 18.7499999999998
97 78 40 37.49999999999987
98 78 40 56.24999999999994
99 80 -38 -56.25000000000006
100 80 -38 -37.50000000000013
101 80 -38 -18.75000000000019
102 80 -38 -2.557953848736361e-13
103 80 -38 18.7499999999998
104 80 -38 37.49999999999987
105 80 -38 56.24999999999994
106 80 38 -56.25000000000006
107 80 38 -37.50000000000013
108 80 38 -18.75000000000019
109 80 38 -2.557953848736361e-13
110 80 38 18.7499999999998
111 80 38 37.49999999999987
112 80 38 56.24999999999994
113 0 -8.526512829121202e-14 -62.34461004346582
114 0 -9.947598300641403e-14 61.83641386247655
115 0 21.06470486784787 -7.30563971398044
116 0 21.52225775382108 26.16217560363367
117 0 -21.82824595976045 9.429912929088644
118 0 -22.28269972681327 -25.79820298169876
119 0 22.05414356104293 -47.9193145729352
120 0 -22.06490610346995 47.90135691281429
121 0 -21.98671014445509 28.29681509737824
122 0 -5.65625214480751 37.20882300746328
123 0 -6.22337280331864 18.05188932495977
124 0 -5.66307206930923 0.240555690392128
125 0 10.26088742771823 9.354505652315069
126 0 21.76202367904183 -28.12500000000015
127 0 6.531833395892633 -37.41408798143658
128 0 6.757473398612589 -19.6199899336711
129 0 22.47851500037009 47.63605303274826
130 0 -21.98819598344031 -8.68216597722855
131 0 -22.15393200880499 -46.11094806122956
132 0 14.62077465796697 -62.41461879407841
133 0 14.69150323118818 62.2793747763921
134 0 -14.63740606592745 -61.90853004525562
135 0 -14.62256841503829 62.32281903062275
136 0 10.30548313382464 37.18423963709853
137 0 -4.830637437817018 -47.8310121345862
138 0 -7.317951581963577 -31.80124285689995
139 0 25.76957000987743 9.392208308393563
140 0 -6.948745332663187 52.01218113739441
141 0 5.811750647985349 49.69284757559549
142 0 7.675222835417088 -51.58472870530044
143 0 -7.713402312137362 -14.29332138889146
144 0 6.823431203980078 -5.186345293336913
145 0 7.105754807366225 24.03809090321496
146 0 -27.09749490370166 63.29483518868741
147 0 27.09498364380197 -63.31678667340273
148 0 27.19400364631164 63.23308556182806
149 0 -27.1182676149465 -62.85389562129705
150 40.40207807382485 -26.68232861649768 75
151 41.46772030423862 27.58333530871128 75
152 67.19826085909968 0.7498516100549892 75
153 12.9326017834744 0.4582585135088451 75
154 9.596805537779506 -30.40249752886454 75
155 70.68474476332689 30.68474476332688 75
156 70.68474476332692 -30.68474476332693 75
157 56.1352829370278 -27.90273754004199 75
158 48.83136267967263 -14.7100849815175 75
159 32.20947137525199 -14.64043827944465 75
160 40.30671589176983 -0.9745321326303298 75
161 24.23102495072349 -27.88226724516263 75
162 65.27036307944513 16.51726262354951 75
163 52.62896303693047 7.355245826372283 75
164 14.44028432928346 -15.40208201449119 75
165 56.11559369066618 28.87462831569844 75
166 65.89826718079365 -15.54333716248403 75
167 12.27662900975354 15.94911206266418 75
168 25.61657447171708 8.493164983066734 75
169 24.99873835694615 26.19827156667611 75
170 9.412561227783272 30.49123060489003 75
171 24.5270575707913 -4.482109872777563 75
172 38.90204453099474 13.66302992141765 75
173 55.27126181976822 -3.795381806502164 75
174 50.87693692845502 18.79870039914984 75
175 40.40207807382485 -26.68232861649768 -75
176 40.40207807382484 26.68232861649768 -75
177 67.65049106942273 -1.148440353002954 -75
178 12.76837525825971 -1.552058527200018 -75
179 9.596805537779503 -30.40249752886453 -75
180 70.6847447633269 -30.68474476332693 -75
181 70.57917109988601 30.62335321383783 -75
182 56.47764505516424 -25.1356574060053 -75
183 48.29555145898561 -13.7702066064953 -75
184 34.08083923951651 -12.63271908328834 -75
185 41.1154967005461 -0.3531210326879659 -75
186 24.28252450110598 -24.96851794459899 -75
187 56.0121136630134 27.83111406563806 -75
188 48.4843711641246 14.22163283776511 -75
189 32.51954789010417 13.72453596148927 -75
190 24.21420201690872 27.66781076299779 -75
191 11.5613098727136 -16.13613588967286 -75
192 68.89078310864944 -15.98366985402008 -75
193 65.80556804800057 15.36873851136762 -75
194 14.1917012219274 14.82026366017702 -75
195 9.600983873139345 30.54801240386246 -75
196 26.68135397624772 0.6530272066573133 -75
197 53.94592398113985 2.010883780702159 -75
198 58.53181776398286 -8.533176601785144 -75
199 22.11638724658805 -10.51769813040711 -75
200 39.99999999999991 -40 -61.83641386247655
201 39.9999999999999 -40 61.83641386247655
202 61.30908465825391 -40 -8.552035871113361
203 61.50078375773376 -40 26.32276992976188
204 18.32596505676478 -40 9.613417931072206
205 17.78237844000354 -40 -28.1948666591487
206 62.09912344699949 -40 -47.97231921440047
207 17.93509389653005 -40 47.90135691281429
208 18.02591984785575 -40 28.42267795787765
209 34.31829635007422 -40 37.26508792936971
210 33.80900161753922 -40 18.4229652354618
211 34.68481476854404 -40 0.7681363732533413
212 50.07742919234796 -40 8.720050524721827
213 62.37451870085261 -40 -28.94031435758983
214 45.50561118595521 -40 -36.95736299698569
215 62.4744417859463 -40 47.65440704586224
216 18.26606956122629 -40 -9.312447508986835
217 34.55561637932475 -40 -20.53763607063766
218 17.42702950960393 -40 -47.92678648643904
219 54.62827130562641 -40 -62.34010695784477
220 25.29275418714069 -40 -62.32823753872722
221 54.69082436211755 -40 62.28059772072498
222 25.37743158496171 -40 62.32281903062275
223 50.59153291240784 -40 37.18583844130367
224 29.53412710297747 -40 -36.88211764142518
225 65.78386059747884 -40 9.28992006369046
226 46.24602237836211 -40 -9.044186420451723
227 33.04616436631316 -40 52.02123085235233
228 45.85354329614317 -40 49.70726264201491
229 46.92660118771619 -40 -51.98002780512445
230 33.62453847302299 -40 -49.97814199006828
231 49.99817066054972 -40 -20.80630714335566
232 46.55152333039502 -40 24.76200773273888
233 12.90250509629834 -40 63.29483518868741
234 67.10547895052518 -40 -63.31248523444906
235 67.19305322961276 -40 63.23700095331742
236 12.78395673934892 -40 -63.30100480503327
237 39.99999999999991 40 -61.83641386247655
238 39.9999999999999 40 61.83641386247655
239 61.30908465825391 40 -8.552035871113361
240 61.50078375773376 40 26.32276992976188
241 18.32596505676478 40 9.613417931072206
242 17.78237844000354 40 -28.1948666591487
243 62.09912344699949 40 -47.97231921440047
244 17.93509389653005 40 47.90135691281429
245 18.02591984785575 40 28.42267795787765
246 34.31829635007422 40 37.26508792936971
247 33.80900161753922 40 18.4229652354618
248 34.68481476854404 40 0.7681363732533413
249 50.07742919234796 40 8.720050524721827
250 62.37451870085261 40 -28.94031435758983
251 45.50561118595521 40 -36.95736299698569
252 62.4744417859463 40 47.65440704586224
253 18.26606956122629 40 -9.312447508986835
254 34.55561637932475 40 -20.53763607063766
255 17.42702950960393 40 -47.92678648643904
256 54.62827130562641 40 -62.34010695784477
257 25.29275418714069 40 -62.32823753872722
258 54.69082436211755 40 62.28059772072498
259 25.37743158496171 40 62.32281903062275
260 50.59153291240784 40 37.18583844130367
261 29.53412710297747 40 -36.88211764142518
262 65.78386059747884 40 9.28992006369046
263 46.24602237836211 40 -9.044186420451723
264 33.04616436631316 40 52.02123085235233
265 45.85354329614317 40 49.70726264201491
266 46.92660118771619 40 -51.98002780512445
267 33.62453847302299 40 -49.97814199006828
268 49.99817066054972 40 -20.80630714335566
269 46.55152333039502 40 24.76200773273888
270 12.90250509629834 40 63.29483518868741
271 67.10547895052518 40 -63.31248523444906
272 67.19305322961276 40 63.23700095331742
273 12.78395673934892 40 -63.30100480503327
274 80 -8.526512829121202e-14 -62.34461004346582
275 80 -8.526512829121202e-14 61.83641386247655
276 80 21.06470486784787 -7.30563971398044
277 80 21.52225775382108 26.16217560363367
278 80 -21.82824595976044 9.429912929088658
279 80 -22.28269972681326 -25.79820298169875
280 80 22.05414356104293 -47.9193145729352
281 80 -22.06490610346995 47.90135691281428
282 80 -21.98671014445509 28.29681509737823
283 80 -5.656252144807524 37.20882300746325
284 80 -6.223372803318647 18.05188932495982
285 80 -5.663072069309209 0.2405556903921706
286 80 10.26088742771822 9.354505652315098
287 80 21.76202367904183 -28.12500000000015
288 80 6.531833395892633 -37.41408798143658
289 80 6.757473398612589 -19.61998993367109
290 80 22.47851500037009 47.63605303274828
291 80 -21.98819598344028 -8.682165977228522
292 80 -22.15393200880499 -46.11094806122956
293 80 14.62077465796697 -62.41461879407841
294 80 -14.63740606592745 -61.90853004525562
295 80 -14.62256841503829 62.32281903062272
296 80 14.69150323118819 62.2793747763921
297 80 10.30548313382462 37.18423963709853
298 80 -4.830637437817018 -47.8310121345862
299 80 -7.317951581963577 -31.80124285689995
300 80 25.76957000987743 9.392208308393577
301 80 -6.948745332663179 52.01218113739438
302 80 5.811750647985356 49.69284757559552
303 80 7.675222835417088 -51.58472870530044
304 80 -7.713402312137362 -14.29332138889142
305 80 6.8234312039801 -5.186345293336899
306 80 7.105754807366182 24.03809090321499
307 80 -27.09749490370166 63.29483518868739
308 80 27.09498364380197 -63.31678667340273
309 80 27.19400364631166 63.23308556182806
310 80 -27.1182676149465 -62.85389562129705
311 40.00000000000001 0 -6.137203568194968
312 42.43418925917344 2.51161882830764 32.96967692439187
313 36.20445171476632 -5.694496818623364 -40.61082470879265
314 53.64732309236273 13.83781160824305 -48.22446955120321
315 26.33565042753685 -13.66435777211239 48.21078498971482
316 55.04932314212589 14.33246029706978 -22.07607085798077
317 56.12180071567398 13.74585684009492 50.88565949035932
318 27.1181775678475 -12.92154189254992 15.20435002476048
319 54.81043229343341 -13.91182297301725 -23.38589625652162
320 55.39886947846254 -11.22786094197147 51.14588304056566
321 24.64078120555867 15.06191704353312 -50.52574316787555
322 29.41917449239011 13.86445716831948 -25.17851890092901
323 25.66500682011301 14.76279362689299 49.32170306479505
324 27.68412307246714 14.09618532203294 13.43392369653487
325 54.05146943883442 -12.11992790337401 13.47641678836752
326 57.00796210216129 -9.422558190178982 -51.35612494659232
327 24.14008027063617 -15.19429770312606 -19.79724365186327
328 53.89699441503384 14.0888292364041 11.19757046766159
329 21.47011661444943 -18.00233112959383 -53.26697814117369
330 42.94520950922113 -19.44514582148249 34.91263548693474
331 41.17861669271466 -21.08010390578415 -55.30265322198687
332 19.85012258963397 2.316868007278863 32.16616573773274
333 60.73493410472374 -0.4975798572127492 -8.525035590746816
334 21.02646074421255 9.501698293040972 -6.183564239439201
335 38.50911685579215 20.70980205136289 -7.737378076027263
336 47.17362068197715 -19.57136166416511 -4.78549643655265
337 39.28924455920269 4.369458515504041 -56.56721474328047
338 61.21000806580739 1.102917188751707 -35.2725891728486
339 40.56893946753574 22.4364985394557 -57.37466010186584
340 53.44590296946062 20.18518250678788 31.18342499528378
341 40.93888069778507 -21.88057524477687 56.80092974211794
342 39.25962770939938 0.6284371837633596 54.74354021585827
343 16.43665850231988 0.07836574095616378 54.41142192820907
344 62.38550567999783 2.356086253821751 32.15662014860871
345 64.8036779467682 7.324406291572755 -59.45186479942687
346 17.65982121288237 -0.5023512401170098 -57.32956828624272
347 18.56310029004484 1.579933508200488 -38.23425835291299
348 61.75151590485491 24.21187563001986 -59.23582022116686
349 39.77336843217756 22.13272577857734 -38.56122703450549
350 37.54467371117843 -22.98551766172472 -31.65475433467238
351 43.02203418444254 0.3907804986692867 -24.45055655401777
352 40.78282784736621 22.01159991810481 57.30109792512113
353 18.84875549272131 -21.41260403962962 -1.24198016663016
354 33.48866328631554 21.70165936035989 32.10030160569921
355 16.73712737044419 -23.26287262955581 59.41802688426579
356 19.28378555931699 -20.69433294454931 31.36453394634719
357 62.26847751598052 -24.81162514283748 -58.93475065739271
358 62.14016667397323 -16.94758934062337 33.89603477741259
359 57.51701065135679 -23.21406449904683 -39.2813258940271
360 63.35824278375281 -23.57261838323832 60.03733179548263
361 40.08866640737524 0.2029714736206546 12.50950082889981
362 15.92154190838798 24.10500529561665 -61.4133634493618
$EndNodes
$Elements
1343
1 2 2 1 1 1 17 146
2 2 2 1 1 27 1 146
3 2 2 1 1 20 2 148
4 2 2 1 1 2 38 148
5 2 2 1 1 3 21 149
6 2 2 1 1 28 3 149
7 2 2 1 1 4 31 147
8 2 2 1 1 32 4 147
9 2 2 1 1 17 18 135
10 2 2 1 1 17 135 146
11 2 2 1 1 18 19 114
12 2 2 1 1 18 114 135
13 2 2 1 1 19 20 133
14 2 2 1 1 114 19 133
15 2 2 1 1 133 20 148
16 2 2 1 1 21 22 131
17 2 2 1 1 21 131 149
18 2 2 1 1 22 23 118
19 2 2 1 1 22 118 131
20 2 2 1 1 23 24 130
21 2 2 1 1 118 23 130
22 2 2 1 1 24 25 117
23 2 2 1 1 24 117 130
24 2 2 1 1 25 26 121
25 2 2 1 1 117 25 121
26 2 2 1 1 26 27 120
27 2 2 1 1 26 120 121
28 2 2 1 1 120 27 146
29 2 2 1 1 29 28 134
30 2 2 1 1 134 28 149
31 2 2 1 1 30 29 113
32 2 2 1 1 113 29 134
33 2 2 1 1 31 30 132
34 2 2 1 1 30 113 132
35 2 2 1 1 31 132 147
36 2 2 1 1 33 32 119
37 2 2 1 1 119 32 147
38 2 2 1 1 34 33 126
39 2 2 1 1 33 119 126
40 2 2 1 1 35 34 115
41 2 2 1 1 115 34 126
42 2 2 1 1 36 35 139
43 2 2 1 1 35 115 139
44 2 2 1 1 37 36 116
45 2 2 1 1 116 36 139
46 2 2 1 1 38 37 129
47 2 2 1 1 37 116 129
48 2 2 1 1 38 129 148
49 2 2 1 1 132 113 142
50 2 2 1 1 113 134 137
51 2 2 1 1 113 137 142
52 2 2 1 1 114 133 141
53 2 2 1 1 135 114 140
54 2 2 1 1 140 114 141
55 2 2 1 1 115 125 139
56 2 2 1 1 125 115 144
57 2 2 1 1 115 126 128
58 2 2 1 1 115 128 144
59 2 2 1 1 125 116 139
60 2 2 1 1 116 125 145
61 2 2 1 1 129 116 136
62 2 2 1 1 136 116 145
63 2 2 1 1 117 121 123
64 2 2 1 1 117 123 124
65 2 2 1 1 117 124 130
66 2 2 1 1 118 130 143
67 2 2 1 1 131 118 138
68 2 2 1 1 138 118 143
69 2 2 1 1 126 119 127
70 2 2 1 1 127 119 142
71 2 2 1 1 119 132 142
72 2 2 1 1 132 119 147
73 2 2 1 1 121 120 122
74 2 2 1 1 122 120 140
75 2 2 1 1 120 135 140
76 2 2 1 1 135 120 146
77 2 2 1 1 121 122 123
78 2 2 1 1 123 122 145
79 2 2 1 1 136 122 141
80 2 2 1 1 122 136 145
81 2 2 1 1 122 140 141
82 2 2 1 1 124 123 125
83 2 2 1 1 125 123 145
84 2 2 1 1 124 125 144
85 2 2 1 1 130 124 143
86 2 2 1 1 143 124 144
87 2 2 1 1 126 127 128
88 2 2 1 1 128 127 138
89 2 2 1 1 127 137 138
90 2 2 1 1 137 127 142
91 2 2 1 1 128 138 143
92 2 2 1 1 128 143 144
93 2 2 1 1 133 129 141
94 2 2 1 1 129 133 148
95 2 2 1 1 129 136 141
96 2 2 1 1 134 131 137
97 2 2 1 1 131 134 149
98 2 2 1 1 137 131 138
99 2 2 2 10 7 307 45
100 2 2 2 10 105 307 7
101 2 2 2 10 48 309 8
102 2 2 2 10 8 309 112
103 2 2 2 10 76 310 14
104 2 2 2 10 14 310 99
105 2 2 2 10 15 308 79
106 2 2 2 10 106 308 15
107 2 2 2 10 45 295 46
108 2 2 2 10 45 307 295
109 2 2 2 10 46 275 47
110 2 2 2 10 46 295 275
111 2 2 2 10 47 296 48
112 2 2 2 10 275 296 47
113 2 2 2 10 296 309 48
114 2 2 2 10 77 294 76
115 2 2 2 10 294 310 76
116 2 2 2 10 78 274 77
117 2 2 2 10 274 294 77
118 2 2 2 10 79 293 78
119 2 2 2 10 78 293 274
120 2 2 2 10 79 308 293
121 2 2 2 10 99 292 100
122 2 2 2 10 99 310 292
123 2 2 2 10 100 279 101
124 2 2 2 10 100 292 279
125 2 2 2 10 101 291 102
126 2 2 2 10 279 291 101
127 2 2 2 10 102 278 103
128 2 2 2 10 102 291 278
129 2 2 2 10 103 282 104
130 2 2 2 10 278 282 103
131 2 2 2 10 104 281 105
132 2 2 2 10 104 282 281
133 2 2 2 10 281 307 105
134 2 2 2 10 107 280 106
135 2 2 2 10 280 308 106
136 2 2 2 10 108 287 107
137 2 2 2 10 107 287 280
138 2 2 2 10 109 276 108
139 2 2 2 10 276 287 108
140 2 2 2 10 110 300 109
141 2 2 2 10 109 300 276
142 2 2 2 10 111 277 110
143 2 2 2 10 277 300 110
144 2 2 2 10 112 290 111
145 2 2 2 10 111 290 277
146 2 2 2 10 112 309 290
147 2 2 2 10 293 303 274
148 2 2 2 10 274 298 294
149 2 2 2 10 274 303 298
150 2 2 2 10 295 301 275
151 2 2 2 10 275 302 296
152 2 2 2 10 301 302 275
153 2 2 2 10 276 300 286
154 2 2 2 10 286 305 276
155 2 2 2 10 276 289 287
156 2 2 2 10 276 305 289
157 2 2 2 10 286 300 277
158 2 2 2 10 277 306 286
159 2 2 2 10 290 297 277
160 2 2 2 10 297 306 277
161 2 2 2 10 278 284 282
162 2 2 2 10 278 285 284
163 2 2 2 10 278 291 285
164 2 2 2 10 279 304 291
165 2 2 2 10 292 299 279
166 2 2 2 10 299 304 279
167 2 2 2 10 287 288 280
168 2 2 2 10 288 303 280
169 2 2 2 10 280 303 293
170 2 2 2 10 293 308 280
171 2 2 2 10 282 283 281
172 2 2 2 10 283 301 281
173 2 2 2 10 281 301 295
174 2 2 2 10 295 307 281
175 2 2 2 10 282 284 283
176 2 2 2 10 284 306 283
177 2 2 2 10 297 302 283
178 2 2 2 10 283 306 297
179 2 2 2 10 283 302 301
180 2 2 2 10 285 286 284
181 2 2 2 10 286 306 284
182 2 2 2 10 285 305 286
183 2 2 2 10 291 304 285
184 2 2 2 10 304 305 285
185 2 2 2 10 287 289 288
186 2 2 2 10 289 299 288
187 2 2 2 10 288 299 298
188 2 2 2 10 298 303 288
189 2 2 2 10 289 304 299
190 2 2 2 10 289 305 304
191 2 2 2 10 296 302 290
192 2 2 2 10 290 309 296
193 2 2 2 10 290 302 297
194 2 2 2 10 294 298 292
195 2 2 2 10 292 310 294
196 2 2 2 10 298 299 292
197 4 2 3 1 270 167 148 323
198 4 2 3 1 270 170 148 167
199 4 2 3 1 118 327 205 329
200 4 2 3 1 325 333 291 336
201 4 2 3 1 278 291 225 336
202 4 2 3 1 250 314 287 316
203 4 2 3 1 125 318 124 334
204 4 2 3 1 205 329 327 350
205 4 2 3 1 316 328 239 335
206 4 2 3 1 276 328 316 333
207 4 2 3 1 125 324 318 334
208 4 2 3 1 210 318 325 336
209 4 2 3 1 285 291 325 333
210 4 2 3 1 205 224 329 350
211 4 2 3 1 239 316 276 328
212 4 2 3 1 225 325 278 336
213 4 2 3 1 152 317 275 320
214 4 2 3 1 314 316 250 349
215 4 2 3 1 278 325 291 336
216 4 2 3 1 287 316 314 338
217 4 2 3 1 241 324 139 334
218 4 2 3 1 165 272 162 317
219 4 2 3 1 131 118 205 329
220 4 2 3 1 324 334 241 335
221 4 2 3 1 242 126 321 322
222 4 2 3 1 202 225 291 336
223 4 2 3 1 169 167 270 323
224 4 2 3 1 243 280 250 314
225 4 2 3 1 123 124 125 318
226 4 2 3 1 242 321 261 322
227 4 2 3 1 128 334 327 347
228 4 2 3 1 309 162 272 317
229 4 2 3 1 170 270 169 167
230 4 2 3 1 210 232 325 330
231 4 2 3 1 313 329 327 347
232 4 2 3 1 258 272 165 317
233 4 2 3 1 287 250 280 314
234 4 2 3 1 167 133 148 323
235 4 2 3 1 241 334 253 335
236 4 2 3 1 285 291 278 325
237 4 2 3 1 123 318 125 324
238 4 2 3 1 275 302 301 320
239 4 2 3 1 272 165 162 155
240 4 2 3 1 162 272 155 309
241 4 2 3 1 210 325 318 330
242 4 2 3 1 210 325 212 336
243 4 2 3 1 136 116 323 332
244 4 2 3 1 119 255 242 321
245 4 2 3 1 126 321 322 347
246 4 2 3 1 327 334 322 347
247 4 2 3 1 318 124 334 353
248 4 2 3 1 316 335 268 349
249 4 2 3 1 327 329 313 350
250 4 2 3 1 253 126 242 322
251 4 2 3 1 261 322 321 349
252 4 2 3 1 291 333 319 336
253 4 2 3 1 275 152 296 317
254 4 2 3 1 275 295 152 320
255 4 2 3 1 116 245 323 354
256 4 2 3 1 275 317 302 320
257 4 2 3 1 262 276 300 328
258 4 2 3 1 173 317 152 320
259 4 2 3 1 318 324 123 332
260 4 2 3 1 128 322 334 347
261 4 2 3 1 119 242 126 321
262 4 2 3 1 285 325 286 333
263 4 2 3 1 173 163 152 317
264 4 2 3 1 287 314 288 338
265 4 2 3 1 205 224 218 329
266 4 2 3 1 184 329 331 337
267 4 2 3 1 270 148 244 323
268 4 2 3 1 311 318 334 353
269 4 2 3 1 259 169 270 323
270 4 2 3 1 184 329 337 346
271 4 2 3 1 255 261 242 321
272 4 2 3 1 210 211 318 336
273 4 2 3 1 205 218 131 329
274 4 2 3 1 228 320 223 330
275 4 2 3 1 145 123 324 332
276 4 2 3 1 325 328 286 333
277 4 2 3 1 251 314 250 349
278 4 2 3 1 316 333 328 335
279 4 2 3 1 116 129 136 323
280 4 2 3 1 116 323 332 354
281 4 2 3 1 314 349 313 351
282 4 2 3 1 143 327 128 334
283 4 2 3 1 253 334 322 335
284 4 2 3 1 244 129 245 323
285 4 2 3 1 210 232 212 325
286 4 2 3 1 301 295 275 320
287 4 2 3 1 202 291 319 336
288 4 2 3 1 248 324 241 335
289 4 2 3 1 245 129 116 323
290 4 2 3 1 139 241 116 324
291 4 2 3 1 280 314 243 348
292 4 2 3 1 287 280 288 314
293 4 2 3 1 276 305 328 333
294 4 2 3 1 145 123 125 324
295 4 2 3 1 262 239 276 328
296 4 2 3 1 143 327 334 353
297 4 2 3 1 143 334 124 353
298 4 2 3 1 309 296 162 317
299 4 2 3 1 163 317 173 342
300 4 2 3 1 284 286 285 325
301 4 2 3 1 299 338 326 359
302 4 2 3 1 248 241 253 335
303 4 2 3 1 249 328 324 335
304 4 2 3 1 128 327 143 347
305 4 2 3 1 311 334 327 353
306 4 2 3 1 162 296 152 317
307 4 2 3 1 324 328 247 354
308 4 2 3 1 309 272 252 317
309 4 2 3 1 244 323 245 354
310 4 2 3 1 314 303 338 345
311 4 2 3 1 314 313 338 351
312 4 2 3 1 184 199 329 346
313 4 2 3 1 262 300 277 328
314 4 2 3 1 177 326 274 345
315 4 2 3 1 223 330 320 358
316 4 2 3 1 299 319 338 359
317 4 2 3 1 284 328 325 344
318 4 2 3 1 204 318 117 356
319 4 2 3 1 128 322 126 334
320 4 2 3 1 249 263 239 335
321 4 2 3 1 116 241 245 324
322 4 2 3 1 126 119 321 347
323 4 2 3 1 311 327 322 351
324 4 2 3 1 250 251 243 314
325 4 2 3 1 275 296 302 317
326 4 2 3 1 286 325 284 328
327 4 2 3 1 116 324 245 354
328 4 2 3 1 185 184 331 337
329 4 2 3 1 228 320 330 341
330 4 2 3 1 318 311 336 353
331 4 2 3 1 306 328 284 344
332 4 2 3 1 322 335 316 349
333 4 2 3 1 228 215 223 320
334 4 2 3 1 320 341 228 360
335 4 2 3 1 265 260 340 354
336 4 2 3 1 248 249 324 335
337 4 2 3 1 314 316 349 351
338 4 2 3 1 183 185 184 331
339 4 2 3 1 254 268 335 349
340 4 2 3 1 259 270 244 323
341 4 2 3 1 210 212 211 336
342 4 2 3 1 249 247 324 328
343 4 2 3 1 301 320 302 344
344 4 2 3 1 322 327 311 334
345 4 2 3 1 318 311 334 361
346 4 2 3 1 217 336 327 353
347 4 2 3 1 263 316 239 335
348 4 2 3 1 183 331 326 337
349 4 2 3 1 288 314 303 338
350 4 2 3 1 266 314 251 349
351 4 2 3 1 138 128 143 347
352 4 2 3 1 162 174 165 317
353 4 2 3 1 313 314 337 349
354 4 2 3 1 316 311 333 335
355 4 2 3 1 327 336 319 351
356 4 2 3 1 116 332 324 354
357 4 2 3 1 291 279 202 319
358 4 2 3 1 177 198 192 326
359 4 2 3 1 258 317 165 352
360 4 2 3 1 314 338 316 351
361 4 2 3 1 131 329 137 347
362 4 2 3 1 325 330 232 358
363 4 2 3 1 227 209 315 341
364 4 2 3 1 340 352 265 354
365 4 2 3 1 174 165 317 352
366 4 2 3 1 274 177 294 326
367 4 2 3 1 288 280 303 314
368 4 2 3 1 133 323 167 343
369 4 2 3 1 183 185 331 337
370 4 2 3 1 139 324 125 334
371 4 2 3 1 287 239 250 316
372 4 2 3 1 328 333 311 335
373 4 2 3 1 177 192 294 326
374 4 2 3 1 276 239 287 316
375 4 2 3 1 311 336 327 351
376 4 2 3 1 317 320 173 342
377 4 2 3 1 249 239 328 335
378 4 2 3 1 242 255 33 64
379 4 2 3 1 117 318 204 353
380 4 2 3 1 313 331 329 337
381 4 2 3 1 306 286 284 328
382 4 2 3 1 126 127 119 347
383 4 2 3 1 315 332 330 356
384 4 2 3 1 292 299 326 359
385 4 2 3 1 304 319 291 333
386 4 2 3 1 152 163 162 317
387 4 2 3 1 279 319 299 359
388 4 2 3 1 327 336 311 353
389 4 2 3 1 314 313 326 338
390 4 2 3 1 255 33 119 242
391 4 2 3 1 314 326 313 337
392 4 2 3 1 197 185 183 337
393 4 2 3 1 302 320 317 344
394 4 2 3 1 248 249 247 324
395 4 2 3 1 330 332 318 356
396 4 2 3 1 148 129 244 323
397 4 2 3 1 303 314 280 345
398 4 2 3 1 263 268 316 335
399 4 2 3 1 60 204 117 356
400 4 2 3 1 314 339 266 348
401 4 2 3 1 211 318 336 353
402 4 2 3 1 313 347 327 351
403 4 2 3 1 197 183 326 337
404 4 2 3 1 223 320 215 358
405 4 2 3 1 171 343 315 355
406 4 2 3 1 318 334 324 361
407 4 2 3 1 126 322 128 347
408 4 2 3 1 148 133 129 323
409 4 2 3 1 184 337 196 346
410 4 2 3 1 140 315 122 343
411 4 2 3 1 202 279 213 319
412 4 2 3 1 314 337 188 345
413 4 2 3 1 315 312 330 332
414 4 2 3 1 327 347 322 351
415 4 2 3 1 200 175 220 331
416 4 2 3 1 251 266 243 314
417 4 2 3 1 317 265 340 352
418 4 2 3 1 319 333 304 338
419 4 2 3 1 319 350 327 351
420 4 2 3 1 242 33 119 126
421 4 2 3 1 318 330 312 332
422 4 2 3 1 263 268 239 316
423 4 2 3 1 225 212 325 336
424 4 2 3 1 258 252 272 317
425 4 2 3 1 211 336 217 353
426 4 2 3 1 210 330 318 356
427 4 2 3 1 66 253 241 139
428 4 2 3 1 319 336 327 350
429 4 2 3 1 171 315 159 355
430 4 2 3 1 297 317 290 340
431 4 2 3 1 231 336 319 350
432 4 2 3 1 230 331 329 350
433 4 2 3 1 266 339 314 349
434 4 2 3 1 171 159 315 342
435 4 2 3 1 266 243 314 348
436 4 2 3 1 312 352 317 354
437 4 2 3 1 184 196 199 346
438 4 2 3 1 317 340 297 344
439 4 2 3 1 313 321 322 349
440 4 2 3 1 224 230 329 350
441 4 2 3 1 209 207 227 315
442 4 2 3 1 203 325 232 358
443 4 2 3 1 122 140 120 315
444 4 2 3 1 124 318 123 353
445 4 2 3 1 171 342 315 343
446 4 2 3 1 254 253 322 335
447 4 2 3 1 278 225 103 282
448 4 2 3 1 286 276 305 328
449 4 2 3 1 215 320 228 360
450 4 2 3 1 65 34 242 253
451 4 2 3 1 107 243 250 93
452 4 2 3 1 262 277 240 328
453 4 2 3 1 236 186 179 329
454 4 2 3 1 265 317 258 352
455 4 2 3 1 149 236 179 329
456 4 2 3 1 286 328 305 333
457 4 2 3 1 179 191 149 329
458 4 2 3 1 313 337 329 346
459 4 2 3 1 254 335 322 349
460 4 2 3 1 115 128 126 334
461 4 2 3 1 239 94 287 250
462 4 2 3 1 188 314 345 348
463 4 2 3 1 299 298 326 338
464 4 2 3 1 313 322 321 347
465 4 2 3 1 220 186 329 331
466 4 2 3 1 313 337 321 349
467 4 2 3 1 220 175 186 331
468 4 2 3 1 209 330 315 341
469 4 2 3 1 276 316 289 333
470 4 2 3 1 136 323 141 343
471 4 2 3 1 179 186 191 329
472 4 2 3 1 68 245 244 129
473 4 2 3 1 197 337 326 345
474 4 2 3 1 279 299 292 359
475 4 2 3 1 265 246 260 354
476 4 2 3 1 312 342 317 352
477 4 2 3 1 267 257 339 362
478 4 2 3 1 188 339 314 348
479 4 2 3 1 138 131 137 347
480 4 2 3 1 240 328 277 340
481 4 2 3 1 204 318 210 353
482 4 2 3 1 227 341 315 355
483 4 2 3 1 243 107 250 280
484 4 2 3 1 305 276 289 333
485 4 2 3 1 202 319 231 336
486 4 2 3 1 289 304 333 338
487 4 2 3 1 168 167 323 343
488 4 2 3 1 123 318 117 353
489 4 2 3 1 315 343 140 355
490 4 2 3 1 311 318 336 361
491 4 2 3 1 208 204 60 356
492 4 2 3 1 124 123 117 353
493 4 2 3 1 188 337 314 339
494 4 2 3 1 145 324 116 332
495 4 2 3 1 309 252 290 317
496 4 2 3 1 192 294 326 357
497 4 2 3 1 317 352 340 354
498 4 2 3 1 132 142 346 362
499 4 2 3 1 133 141 323 343
500 4 2 3 1 117 318 123 356
501 4 2 3 1 210 318 204 356
502 4 2 3 1 313 349 322 351
503 4 2 3 1 286 300 276 328
504 4 2 3 1 262 249 239 328
505 4 2 3 1 312 323 352 354
506 4 2 3 1 88 225 102 291
507 4 2 3 1 217 327 336 350
508 4 2 3 1 303 298 338 345
509 4 2 3 1 312 323 342 352
510 4 2 3 1 250 107 287 280
511 4 2 3 1 118 130 216 327
512 4 2 3 1 259 169 323 352
513 4 2 3 1 279 213 319 359
514 4 2 3 1 247 245 241 324
515 4 2 3 1 126 242 34 253
516 4 2 3 1 102 225 278 291
517 4 2 3 1 259 323 264 352
518 4 2 3 1 202 213 231 319
519 4 2 3 1 153 135 114 343
520 4 2 3 1 227 315 207 355
521 4 2 3 1 140 120 315 355
522 4 2 3 1 298 292 299 326
523 4 2 3 1 264 352 323 354
524 4 2 3 1 254 253 242 322
525 4 2 3 1 168 167 169 323
526 4 2 3 1 309 290 296 317
527 4 2 3 1 139 116 125 324
528 4 2 3 1 319 338 313 351
529 4 2 3 1 245 324 247 354
530 4 2 3 1 246 265 352 354
531 4 2 3 1 280 345 314 348
532 4 2 3 1 115 126 34 253
533 4 2 3 1 197 183 198 326
534 4 2 3 1 161 341 222 355
535 4 2 3 1 301 302 283 344
536 4 2 3 1 159 341 315 342
537 4 2 3 1 231 217 336 350
538 4 2 3 1 118 216 205 327
539 4 2 3 1 174 317 163 352
540 4 2 3 1 207 315 209 356
541 4 2 3 1 301 283 320 344
542 4 2 3 1 315 332 122 343
543 4 2 3 1 232 203 212 325
544 4 2 3 1 222 150 201 341
545 4 2 3 1 184 329 186 331
546 4 2 3 1 312 317 340 354
547 4 2 3 1 274 326 298 345
548 4 2 3 1 122 315 120 356
549 4 2 3 1 268 250 239 316
550 4 2 3 1 289 333 316 338
551 4 2 3 1 216 327 130 353
552 4 2 3 1 232 330 223 358
553 4 2 3 1 136 332 323 343
554 4 2 3 1 192 326 198 357
555 4 2 3 1 219 175 200 331
556 4 2 3 1 197 188 337 345
557 4 2 3 1 177 198 326 345
558 4 2 3 1 164 343 171 355
559 4 2 3 1 246 352 264 354
560 4 2 3 1 277 297 290 340
561 4 2 3 1 315 342 323 343
562 4 2 3 1 290 317 252 340
563 4 2 3 1 211 210 318 353
564 4 2 3 1 290 111 277 340
565 4 2 3 1 220 186 236 329
566 4 2 3 1 323 332 315 343
567 4 2 3 1 267 339 321 362
568 4 2 3 1 225 88 202 291
569 4 2 3 1 326 337 314 345
570 4 2 3 1 291 101 87 279
571 4 2 3 1 222 341 227 355
572 4 2 3 1 262 109 300 276
573 4 2 3 1 257 190 339 362
574 4 2 3 1 311 325 333 361
575 4 2 3 1 298 274 294 326
576 4 2 3 1 315 330 209 356
577 4 2 3 1 261 321 267 349
578 4 2 3 1 153 133 167 343
579 4 2 3 1 173 320 158 342
580 4 2 3 1 318 332 123 356
581 4 2 3 1 225 212 203 325
582 4 2 3 1 161 150 222 341
583 4 2 3 1 264 259 244 323
584 4 2 3 1 321 346 142 362
585 4 2 3 1 315 312 332 342
586 4 2 3 1 231 217 226 336
587 4 2 3 1 313 322 347 351
588 4 2 3 1 318 330 325 361
589 4 2 3 1 329 331 313 350
590 4 2 3 1 237 257 176 339
591 4 2 3 1 219 182 175 331
592 4 2 3 1 236 149 218 329
593 4 2 3 1 299 319 304 338
594 4 2 3 1 133 153 114 343
595 4 2 3 1 315 341 330 342
596 4 2 3 1 163 174 162 317
597 4 2 3 1 291 87 202 279
598 4 2 3 1 246 265 264 352
599 4 2 3 1 126 128 127 347
600 4 2 3 1 163 317 342 352
601 4 2 3 1 148 244 69 270
602 4 2 3 1 118 22 131 205
603 4 2 3 1 159 315 341 355
604 4 2 3 1 210 209 330 356
605 4 2 3 1 122 332 315 356
606 4 2 3 1 211 204 210 353
607 4 2 3 1 143 144 124 334
608 4 2 3 1 265 252 258 317
609 4 2 3 1 207 355 315 356
610 4 2 3 1 325 336 318 361
611 4 2 3 1 285 278 284 325
612 4 2 3 1 125 116 145 324
613 4 2 3 1 315 355 120 356
614 4 2 3 1 171 168 342 343
615 4 2 3 1 227 228 209 341
616 4 2 3 1 115 139 125 334
617 4 2 3 1 207 120 355 356
618 4 2 3 1 326 338 298 345
619 4 2 3 1 277 262 110 300
620 4 2 3 1 326 331 313 337
621 4 2 3 1 295 320 301 360
622 4 2 3 1 311 333 328 361
623 4 2 3 1 130 23 118 216
624 4 2 3 1 328 354 324 361
625 4 2 3 1 302 317 297 344
626 4 2 3 1 315 332 323 342
627 4 2 3 1 121 117 123 356
628 4 2 3 1 231 350 319 359
629 4 2 3 1 160 173 158 342
630 4 2 3 1 153 164 135 343
631 4 2 3 1 328 333 325 361
632 4 2 3 1 208 210 204 356
633 4 2 3 1 312 354 328 361
634 4 2 3 1 240 277 111 340
635 4 2 3 1 213 202 87 279
636 4 2 3 1 191 329 199 346
637 4 2 3 1 318 312 330 361
638 4 2 3 1 257 190 176 339
639 4 2 3 1 168 172 342 352
640 4 2 3 1 159 160 158 341
641 4 2 3 1 189 337 321 346
642 4 2 3 1 311 319 336 351
643 4 2 3 1 329 346 137 347
644 4 2 3 1 316 338 333 351
645 4 2 3 1 125 124 144 334
646 4 2 3 1 304 291 285 333
647 4 2 3 1 160 158 341 342
648 4 2 3 1 219 182 331 357
649 4 2 3 1 164 135 343 355
650 4 2 3 1 289 316 287 338
651 4 2 3 1 215 358 320 360
652 4 2 3 1 189 339 190 362
653 4 2 3 1 311 333 325 336
654 4 2 3 1 199 186 184 329
655 4 2 3 1 168 323 169 352
656 4 2 3 1 304 279 291 319
657 4 2 3 1 216 217 327 353
658 4 2 3 1 230 220 329 331
659 4 2 3 1 225 202 212 336
660 4 2 3 1 184 186 175 331
661 4 2 3 1 168 342 323 352
662 4 2 3 1 255 267 261 321
663 4 2 3 1 312 340 328 354
664 4 2 3 1 285 286 305 333
665 4 2 3 1 255 321 119 362
666 4 2 3 1 187 256 339 348
667 4 2 3 1 166 158 173 360
668 4 2 3 1 320 341 158 342
669 4 2 3 1 159 341 161 355
670 4 2 3 1 168 153 167 343
671 4 2 3 1 221 228 341 360
672 4 2 3 1 324 311 335 361
673 4 2 3 1 312 315 330 342
674 4 2 3 1 240 110 262 96
675 4 2 3 1 313 321 337 346
676 4 2 3 1 187 256 176 339
677 4 2 3 1 196 337 189 346
678 4 2 3 1 330 341 320 342
679 4 2 3 1 325 330 312 361
680 4 2 3 1 224 230 218 329
681 4 2 3 1 191 134 329 346
682 4 2 3 1 183 326 331 357
683 4 2 3 1 316 311 335 351
684 4 2 3 1 194 189 321 346
685 4 2 3 1 159 160 341 342
686 4 2 3 1 300 286 277 328
687 4 2 3 1 134 149 191 329
688 4 2 3 1 237 176 256 339
689 4 2 3 1 135 140 343 355
690 4 2 3 1 333 338 319 351
691 4 2 3 1 163 342 172 352
692 4 2 3 1 312 330 325 358
693 4 2 3 1 240 269 249 340
694 4 2 3 1 136 129 141 323
695 4 2 3 1 174 163 172 352
696 4 2 3 1 328 335 311 361
697 4 2 3 1 231 319 213 359
698 4 2 3 1 313 319 350 359
699 4 2 3 1 141 129 133 323
700 4 2 3 1 324 335 328 361
701 4 2 3 1 157 221 150 341
702 4 2 3 1 325 344 328 361
703 4 2 3 1 143 128 144 334
704 4 2 3 1 311 334 324 335
705 4 2 3 1 203 232 223 358
706 4 2 3 1 323 342 168 343
707 4 2 3 1 142 346 321 347
708 4 2 3 1 289 299 304 338
709 4 2 3 1 211 226 217 336
710 4 2 3 1 221 201 150 341
711 4 2 3 1 301 320 283 358
712 4 2 3 1 112 272 252 309
713 4 2 3 1 261 254 322 349
714 4 2 3 1 289 276 287 316
715 4 2 3 1 284 344 325 358
716 4 2 3 1 317 320 312 344
717 4 2 3 1 121 208 60 356
718 4 2 3 1 158 320 173 360
719 4 2 3 1 189 321 339 362
720 4 2 3 1 312 325 344 358
721 4 2 3 1 242 261 254 322
722 4 2 3 1 228 330 209 341
723 4 2 3 1 157 221 341 360
724 4 2 3 1 306 277 286 328
725 4 2 3 1 316 335 322 351
726 4 2 3 1 323 332 312 342
727 4 2 3 1 325 312 344 361
728 4 2 3 1 321 346 313 347
729 4 2 3 1 277 297 340 344
730 4 2 3 1 281 320 301 358
731 4 2 3 1 216 211 217 353
732 4 2 3 1 247 241 248 324
733 4 2 3 1 312 320 317 342
734 4 2 3 1 197 326 198 345
735 4 2 3 1 206 213 86 359
736 4 2 3 1 160 163 173 342
737 4 2 3 1 229 331 230 359
738 4 2 3 1 194 321 189 362
739 4 2 3 1 187 339 188 348
740 4 2 3 1 321 339 267 349
741 4 2 3 1 328 344 312 361
742 4 2 3 1 230 200 220 331
743 4 2 3 1 122 123 332 356
744 4 2 3 1 322 349 316 351
745 4 2 3 1 249 262 240 328
746 4 2 3 1 313 346 329 347
747 4 2 3 1 198 326 183 357
748 4 2 3 1 259 238 169 352
749 4 2 3 1 196 184 185 337
750 4 2 3 1 194 346 321 362
751 4 2 3 1 119 321 142 362
752 4 2 3 1 240 249 328 340
753 4 2 3 1 218 149 236 56
754 4 2 3 1 289 287 288 338
755 4 2 3 1 292 326 357 359
756 4 2 3 1 327 350 313 351
757 4 2 3 1 172 168 169 352
758 4 2 3 1 41 201 222 150
759 4 2 3 1 257 82 237 176
760 4 2 3 1 312 330 320 342
761 4 2 3 1 246 244 245 354
762 4 2 3 1 311 319 333 336
763 4 2 3 1 164 153 171 343
764 4 2 3 1 311 316 333 351
765 4 2 3 1 312 318 332 361
766 4 2 3 1 207 61 120 356
767 4 2 3 1 314 338 326 345
768 4 2 3 1 256 266 339 348
769 4 2 3 1 324 334 311 361
770 4 2 3 1 194 196 189 346
771 4 2 3 1 290 297 302 317
772 4 2 3 1 149 131 218 329
773 4 2 3 1 151 258 165 352
774 4 2 3 1 199 191 186 329
775 4 2 3 1 194 132 346 362
776 4 2 3 1 267 321 255 362
777 4 2 3 1 238 151 169 352
778 4 2 3 1 324 332 318 361
779 4 2 3 1 311 333 319 351
780 4 2 3 1 322 335 311 351
781 4 2 3 1 113 194 132 346
782 4 2 3 1 301 320 281 360
783 4 2 3 1 292 326 294 357
784 4 2 3 1 157 341 158 360
785 4 2 3 1 164 171 159 355
786 4 2 3 1 281 358 215 360
787 4 2 3 1 110 240 262 277
788 4 2 3 1 257 267 255 362
789 4 2 3 1 46 275 295 152
790 4 2 3 1 314 339 337 349
791 4 2 3 1 171 160 159 342
792 4 2 3 1 191 178 134 346
793 4 2 3 1 313 331 326 359
794 4 2 3 1 226 202 231 336
795 4 2 3 1 134 137 329 346
796 4 2 3 1 312 320 330 358
797 4 2 3 1 283 320 344 358
798 4 2 3 1 222 201 227 341
799 4 2 3 1 191 199 178 346
800 4 2 3 1 294 292 298 326
801 4 2 3 1 178 194 113 346
802 4 2 3 1 114 153 18 135
803 4 2 3 1 136 145 116 332
804 4 2 3 1 161 41 222 150
805 4 2 3 1 151 165 174 352
806 4 2 3 1 189 321 337 339
807 4 2 3 1 257 190 82 176
808 4 2 3 1 183 331 182 357
809 4 2 3 1 319 313 350 351
810 4 2 3 1 312 344 320 358
811 4 2 3 1 272 112 252 98
812 4 2 3 1 219 200 229 331
813 4 2 3 1 159 150 161 341
814 4 2 3 1 83 256 237 176
815 4 2 3 1 129 69 38 148
816 4 2 3 1 322 334 311 335
817 4 2 3 1 259 238 51 169
818 4 2 3 1 221 150 201 42
819 4 2 3 1 288 303 298 338
820 4 2 3 1 130 327 143 353
821 4 2 3 1 220 200 72 175
822 4 2 3 1 151 238 258 352
823 4 2 3 1 269 340 260 354
824 4 2 3 1 244 148 69 129
825 4 2 3 1 171 168 160 342
826 4 2 3 1 183 175 182 331
827 4 2 3 1 238 51 169 151
828 4 2 3 1 281 104 215 358
829 4 2 3 1 296 290 302 317
830 4 2 3 1 133 153 19 114
831 4 2 3 1 229 219 331 357
832 4 2 3 1 209 232 210 330
833 4 2 3 1 132 119 142 362
834 4 2 3 1 299 279 304 319
835 4 2 3 1 158 341 320 360
836 4 2 3 1 176 83 256 187
837 4 2 3 1 178 113 134 346
838 4 2 3 1 221 157 150 42
839 4 2 3 1 214 350 231 359
840 4 2 3 1 220 236 218 329
841 4 2 3 1 311 336 325 361
842 4 2 3 1 90 215 104 358
843 4 2 3 1 281 320 358 360
844 4 2 3 1 46 295 166 152
845 4 2 3 1 229 230 214 359
846 4 2 3 1 259 264 238 352
847 4 2 3 1 113 132 142 346
848 4 2 3 1 337 339 321 349
849 4 2 3 1 189 176 190 339
850 4 2 3 1 132 113 30 194
851 4 2 3 1 157 150 158 341
852 4 2 3 1 187 176 188 339
853 4 2 3 1 113 178 30 194
854 4 2 3 1 188 345 193 348
855 4 2 3 1 216 217 205 327
856 4 2 3 1 281 301 283 358
857 4 2 3 1 210 208 209 356
858 4 2 3 1 122 121 123 356
859 4 2 3 1 313 350 331 359
860 4 2 3 1 268 254 251 349
861 4 2 3 1 328 340 312 344
862 4 2 3 1 118 143 130 327
863 4 2 3 1 167 153 19 133
864 4 2 3 1 292 357 206 359
865 4 2 3 1 186 220 72 175
866 4 2 3 1 142 137 346 347
867 4 2 3 1 125 144 115 334
868 4 2 3 1 164 18 153 135
869 4 2 3 1 205 327 217 350
870 4 2 3 1 269 260 246 354
871 4 2 3 1 112 252 290 309
872 4 2 3 1 218 230 220 329
873 4 2 3 1 237 267 257 339
874 4 2 3 1 114 135 140 343
875 4 2 3 1 295 301 281 360
876 4 2 3 1 200 175 219 73
877 4 2 3 1 163 160 172 342
878 4 2 3 1 252 260 240 340
879 4 2 3 1 221 215 228 360
880 4 2 3 1 90 104 282 358
881 4 2 3 1 266 267 339 349
882 4 2 3 1 207 208 61 356
883 4 2 3 1 137 131 134 329
884 4 2 3 1 281 282 104 358
885 4 2 3 1 168 171 153 343
886 4 2 3 1 266 237 256 339
887 4 2 3 1 293 345 280 348
888 4 2 3 1 222 227 207 355
889 4 2 3 1 140 135 120 355
890 4 2 3 1 228 223 209 330
891 4 2 3 1 189 337 188 339
892 4 2 3 1 303 280 293 345
893 4 2 3 1 277 306 297 344
894 4 2 3 1 175 183 184 331
895 4 2 3 1 223 215 203 358
896 4 2 3 1 323 312 332 354
897 4 2 3 1 203 215 90 358
898 4 2 3 1 115 144 128 334
899 4 2 3 1 130 143 124 353
900 4 2 3 1 282 203 90 358
901 4 2 3 1 263 254 268 335
902 4 2 3 1 221 228 201 341
903 4 2 3 1 175 182 219 73
904 4 2 3 1 274 298 303 345
905 4 2 3 1 168 172 160 342
906 4 2 3 1 198 183 182 357
907 4 2 3 1 275 47 296 152
908 4 2 3 1 52 151 238 258
909 4 2 3 1 229 357 331 359
910 4 2 3 1 312 340 317 344
911 4 2 3 1 284 283 344 358
912 4 2 3 1 178 29 134 113
913 4 2 3 1 243 92 106 348
914 4 2 3 1 77 274 177 294
915 4 2 3 1 149 134 131 329
916 4 2 3 1 128 138 127 347
917 4 2 3 1 165 151 52 258
918 4 2 3 1 192 77 177 294
919 4 2 3 1 231 213 214 359
920 4 2 3 1 208 207 209 356
921 4 2 3 1 141 140 122 343
922 4 2 3 1 248 263 249 335
923 4 2 3 1 197 188 185 337
924 4 2 3 1 191 29 134 178
925 4 2 3 1 265 258 238 352
926 4 2 3 1 133 114 141 343
927 4 2 3 1 134 113 137 346
928 4 2 3 1 121 122 120 356
929 4 2 3 1 302 297 283 344
930 4 2 3 1 254 248 253 335
931 4 2 3 1 310 192 180 357
932 4 2 3 1 27 62 120 355
933 4 2 3 1 243 106 280 348
934 4 2 3 1 212 202 226 336
935 4 2 3 1 162 296 47 152
936 4 2 3 1 61 208 121 356
937 4 2 3 1 193 293 308 348
938 4 2 3 1 192 198 182 357
939 4 2 3 1 207 120 62 355
940 4 2 3 1 224 214 230 350
941 4 2 3 1 177 197 198 345
942 4 2 3 1 181 193 308 348
943 4 2 3 1 205 217 224 350
944 4 2 3 1 142 127 137 347
945 4 2 3 1 119 32 255 362
946 4 2 3 1 188 189 185 337
947 4 2 3 1 188 193 187 348
948 4 2 3 1 106 308 280 348
949 4 2 3 1 122 123 145 332
950 4 2 3 1 192 310 294 357
951 4 2 3 1 164 159 161 355
952 4 2 3 1 60 24 25 117
953 4 2 3 1 209 223 232 330
954 4 2 3 1 109 94 239 95
955 4 2 3 1 193 345 293 348
956 4 2 3 1 172 169 151 352
957 4 2 3 1 78 177 274 345
958 4 2 3 1 236 71 179 186
959 4 2 3 1 266 256 243 348
960 4 2 3 1 284 282 283 358
961 4 2 3 1 308 106 271 348
962 4 2 3 1 194 178 196 346
963 4 2 3 1 188 197 193 345
964 4 2 3 1 102 101 88 291
965 4 2 3 1 99 292 310 357
966 4 2 3 1 293 78 274 345
967 4 2 3 1 261 251 254 349
968 4 2 3 1 130 117 24 353
969 4 2 3 1 71 236 220 186
970 4 2 3 1 246 245 247 354
971 4 2 3 1 215 91 105 360
972 4 2 3 1 117 130 124 353
973 4 2 3 1 101 87 88 291
974 4 2 3 1 194 189 190 362
975 4 2 3 1 159 158 150 341
976 4 2 3 1 281 215 105 360
977 4 2 3 1 182 234 180 357
978 4 2 3 1 59 204 216 353
979 4 2 3 1 62 26 27 120
980 4 2 3 1 158 166 157 360
981 4 2 3 1 61 25 121 60
982 4 2 3 1 45 307 156 166
983 4 2 3 1 243 271 92 348
984 4 2 3 1 121 26 25 61
985 4 2 3 1 87 202 88 291
986 4 2 3 1 164 154 146 355
987 4 2 3 1 162 155 48 309
988 4 2 3 1 62 26 120 61
989 4 2 3 1 97 240 96 110
990 4 2 3 1 146 135 164 355
991 4 2 3 1 182 234 74 180
992 4 2 3 1 146 164 17 154
993 4 2 3 1 266 251 267 349
994 4 2 3 1 247 269 246 354
995 4 2 3 1 93 243 92 106
996 4 2 3 1 308 293 280 348
997 4 2 3 1 230 229 200 331
998 4 2 3 1 65 66 34 253
999 4 2 3 1 121 208 61 60
1000 4 2 3 1 307 45 295 166
1001 4 2 3 1 288 299 289 338
1002 4 2 3 1 243 93 107 106
1003 4 2 3 1 120 207 62 61
1004 4 2 3 1 219 182 234 74
1005 4 2 3 1 176 189 188 339
1006 4 2 3 1 271 187 181 348
1007 4 2 3 1 135 164 17 146
1008 4 2 3 1 79 308 181 193
1009 4 2 3 1 219 234 182 357
1010 4 2 3 1 27 120 146 355
1011 4 2 3 1 182 180 192 357
1012 4 2 3 1 233 207 62 355
1013 4 2 3 1 142 137 113 346
1014 4 2 3 1 289 304 305 333
1015 4 2 3 1 271 181 308 348
1016 4 2 3 1 119 147 32 362
1017 4 2 3 1 57 23 58 205
1018 4 2 3 1 103 90 104 282
1019 4 2 3 1 154 161 233 355
1020 4 2 3 1 212 226 211 336
1021 4 2 3 1 310 180 234 357
1022 4 2 3 1 78 293 193 345
1023 4 2 3 1 307 166 295 360
1024 4 2 3 1 48 296 162 309
1025 4 2 3 1 281 105 307 360
1026 4 2 3 1 196 185 189 337
1027 4 2 3 1 222 233 161 355
1028 4 2 3 1 240 97 111 110
1029 4 2 3 1 79 308 193 293
1030 4 2 3 1 78 193 177 345
1031 4 2 3 1 307 156 166 360
1032 4 2 3 1 107 243 106 280
1033 4 2 3 1 256 187 271 348
1034 4 2 3 1 136 122 145 332
1035 4 2 3 1 292 294 310 357
1036 4 2 3 1 270 50 170 169
1037 4 2 3 1 57 22 23 205
1038 4 2 3 1 31 147 132 362
1039 4 2 3 1 146 233 62 355
1040 4 2 3 1 85 234 206 357
1041 4 2 3 1 201 228 227 341
1042 4 2 3 1 119 32 33 255
1043 4 2 3 1 100 85 292 99
1044 4 2 3 1 92 271 106 348
1045 4 2 3 1 50 270 259 169
1046 4 2 3 1 33 63 255 32
1047 4 2 3 1 63 33 255 64
1048 4 2 3 1 40 233 154 161
1049 4 2 3 1 331 357 326 359
1050 4 2 3 1 64 34 242 65
1051 4 2 3 1 190 273 81 195
1052 4 2 3 1 181 271 84 187
1053 4 2 3 1 235 156 157 43
1054 4 2 3 1 266 267 237 339
1055 4 2 3 1 165 272 53 155
1056 4 2 3 1 242 33 34 64
1057 4 2 3 1 118 23 22 205
1058 4 2 3 1 229 206 357 359
1059 4 2 3 1 277 240 111 110
1060 4 2 3 1 283 306 284 344
1061 4 2 3 1 22 56 218 57
1062 4 2 3 1 86 101 213 87
1063 4 2 3 1 264 265 238 352
1064 4 2 3 1 157 156 235 360
1065 4 2 3 1 86 101 100 213
1066 4 2 3 1 229 206 219 357
1067 4 2 3 1 20 148 170 167
1068 4 2 3 1 94 107 250 93
1069 4 2 3 1 273 257 190 81
1070 4 2 3 1 285 305 304 333
1071 4 2 3 1 235 307 105 360
1072 4 2 3 1 233 146 154 355
1073 4 2 3 1 216 204 211 353
1074 4 2 3 1 235 221 157 360
1075 4 2 3 1 248 254 263 335
1076 4 2 3 1 104 281 215 105
1077 4 2 3 1 256 84 271 187
1078 4 2 3 1 68 244 69 129
1079 4 2 3 1 76 310 192 180
1080 4 2 3 1 282 281 283 358
1081 4 2 3 1 91 104 215 105
1082 4 2 3 1 233 40 222 161
1083 4 2 3 1 34 33 242 126
1084 4 2 3 1 279 101 213 100
1085 4 2 3 1 69 38 68 129
1086 4 2 3 1 215 235 91 360
1087 4 2 3 1 20 148 167 133
1088 4 2 3 1 235 157 221 43
1089 4 2 3 1 190 257 273 362
1090 4 2 3 1 149 179 28 191
1091 4 2 3 1 299 288 298 338
1092 4 2 3 1 194 31 132 362
1093 4 2 3 1 66 241 67 139
1094 4 2 3 1 187 193 181 348
1095 4 2 3 1 147 273 32 362
1096 4 2 3 1 101 213 87 279
1097 4 2 3 1 90 104 215 91
1098 4 2 3 1 190 273 195 362
1099 4 2 3 1 31 195 147 362
1100 4 2 3 1 178 199 196 346
1101 4 2 3 1 269 240 260 340
1102 4 2 3 1 251 261 267 349
1103 4 2 3 1 38 37 68 129
1104 4 2 3 1 27 146 62 355
1105 4 2 3 1 151 174 172 352
1106 4 2 3 1 41 201 150 42
1107 4 2 3 1 237 82 83 176
1108 4 2 3 1 156 307 235 360
1109 4 2 3 1 214 217 231 350
1110 4 2 3 1 272 258 165 53
1111 4 2 3 1 207 233 222 355
1112 4 2 3 1 225 278 103 102
1113 4 2 3 1 146 120 135 355
1114 4 2 3 1 147 119 132 362
1115 4 2 3 1 257 255 273 362
1116 4 2 3 1 197 177 193 345
1117 4 2 3 1 281 307 295 360
1118 4 2 3 1 138 137 127 347
1119 4 2 3 1 91 235 105 360
1120 4 2 3 1 154 164 161 355
1121 4 2 3 1 31 194 195 362
1122 4 2 3 1 306 283 297 344
1123 4 2 3 1 18 19 153 114
1124 4 2 3 1 134 149 28 191
1125 4 2 3 1 293 274 303 345
1126 4 2 3 1 192 294 310 76
1127 4 2 3 1 157 166 156 360
1128 4 2 3 1 238 51 151 52
1129 4 2 3 1 273 147 195 362
1130 4 2 3 1 256 271 243 348
1131 4 2 3 1 220 72 71 186
1132 4 2 3 1 182 219 73 74
1133 4 2 3 1 45 295 166 46
1134 4 2 3 1 30 29 178 113
1135 4 2 3 1 141 114 140 343
1136 4 2 3 1 47 296 162 48
1137 4 2 3 1 235 215 221 360
1138 4 2 3 1 214 213 206 359
1139 4 2 3 1 17 18 164 135
1140 4 2 3 1 217 214 224 350
1141 4 2 3 1 84 256 83 187
1142 4 2 3 1 293 193 79 78
1143 4 2 3 1 155 272 8 309
1144 4 2 3 1 233 146 5 154
1145 4 2 3 1 175 200 72 73
1146 4 2 3 1 42 221 157 43
1147 4 2 3 1 275 46 47 152
1148 4 2 3 1 181 308 15 271
1149 4 2 3 1 78 77 274 177
1150 4 2 3 1 167 19 20 133
1151 4 2 3 1 229 214 206 359
1152 4 2 3 1 310 14 234 180
1153 4 2 3 1 257 82 190 81
1154 4 2 3 1 50 259 51 169
1155 4 2 3 1 222 40 41 161
1156 4 2 3 1 206 234 219 357
1157 4 2 3 1 170 148 10 270
1158 4 2 3 1 195 273 4 147
1159 4 2 3 1 30 31 132 194
1160 4 2 3 1 134 28 29 191
1161 4 2 3 1 258 52 165 53
1162 4 2 3 1 273 32 4 147
1163 4 2 3 1 308 106 15 271
1164 4 2 3 1 294 192 77 76
1165 4 2 3 1 5 146 233 62
1166 4 2 3 1 148 69 10 270
1167 4 2 3 1 109 300 110 262
1168 4 2 3 1 234 14 13 180
1169 4 2 3 1 309 272 8 112
1170 4 2 3 1 8 9 272 155
1171 4 2 3 1 1 5 146 154
1172 4 2 3 1 195 194 190 362
1173 4 2 3 1 67 35 66 139
1174 4 2 3 1 67 35 139 36
1175 4 2 3 1 181 15 16 271
1176 4 2 3 1 310 14 99 234
1177 4 2 3 1 10 2 148 170
1178 4 2 3 1 262 96 109 95
1179 4 2 3 1 273 4 12 195
1180 4 2 3 1 102 89 225 88
1181 4 2 3 1 110 96 109 262
1182 4 2 3 1 89 102 225 103
1183 4 2 3 1 53 272 9 155
1184 4 2 3 1 233 5 40 154
1185 4 2 3 1 14 310 76 180
1186 4 2 3 1 28 3 179 149
1187 4 2 3 1 16 181 271 84
1188 4 2 3 1 235 6 156 43
1189 4 2 3 1 48 155 8 309
1190 4 2 3 1 148 2 20 170
1191 4 2 3 1 74 234 13 180
1192 4 2 3 1 81 273 12 195
1193 4 2 3 1 146 17 1 154
1194 4 2 3 1 307 156 7 45
1195 4 2 3 1 50 170 10 270
1196 4 2 3 1 71 179 11 236
1197 4 2 3 1 15 79 308 181
1198 4 2 3 1 195 4 31 147
1199 4 2 3 1 21 11 55 3
1200 4 2 3 1 11 21 55 56
1201 4 2 3 1 126 334 253 115
1202 4 2 3 1 253 334 126 322
1203 4 2 3 1 253 139 334 241
1204 4 2 3 1 334 139 253 115
1205 4 2 3 1 117 60 121 25
1206 4 2 3 1 121 60 117 356
1207 4 2 3 1 340 265 252 260
1208 4 2 3 1 340 252 265 317
1209 4 2 3 1 327 118 347 329
1210 4 2 3 1 131 118 347 138
1211 4 2 3 1 131 347 118 329
1212 4 2 3 1 250 349 268 251
1213 4 2 3 1 268 349 250 316
1214 4 2 3 1 94 287 276 239
1215 4 2 3 1 276 287 94 108
1216 4 2 3 1 276 109 94 239
1217 4 2 3 1 94 109 276 108
1218 4 2 3 1 340 111 252 290
1219 4 2 3 1 98 111 252 97
1220 4 2 3 1 358 278 284 282
1221 4 2 3 1 358 284 278 325
1222 4 2 3 1 68 129 116 245
1223 4 2 3 1 116 129 68 37
1224 4 2 3 1 68 36 116 37
1225 4 2 3 1 344 277 328 340
1226 4 2 3 1 344 328 277 306
1227 4 2 3 1 282 225 358 278
1228 4 2 3 1 282 358 225 203
1229 4 2 3 1 325 358 225 278
1230 4 2 3 1 325 225 358 203
1231 4 2 3 1 205 22 218 57
1232 4 2 3 1 205 218 22 131
1233 4 2 3 1 111 240 252 97
1234 4 2 3 1 111 252 240 340
1235 4 2 3 1 216 23 205 58
1236 4 2 3 1 216 205 23 118
1237 4 2 3 1 347 119 142 127
1238 4 2 3 1 347 142 119 321
1239 4 2 3 1 262 109 239 95
1240 4 2 3 1 262 239 109 276
1241 4 2 3 1 343 136 122 141
1242 4 2 3 1 343 122 136 332
1243 4 2 3 1 354 340 247 269
1244 4 2 3 1 354 247 340 328
1245 4 2 3 1 249 247 340 269
1246 4 2 3 1 249 340 247 328
1247 4 2 3 1 264 354 244 246
1248 4 2 3 1 244 354 264 323
1249 4 2 3 1 338 359 313 326
1250 4 2 3 1 313 359 338 319
1251 4 2 3 1 360 295 152 166
1252 4 2 3 1 152 295 360 320
1253 4 2 3 1 152 173 360 166
1254 4 2 3 1 360 173 152 320
1255 4 2 3 1 61 120 121 26
1256 4 2 3 1 121 120 61 356
1257 4 2 3 1 361 354 332 312
1258 4 2 3 1 361 332 354 324
1259 4 2 3 1 359 230 350 331
1260 4 2 3 1 359 350 230 214
1261 4 2 3 1 22 56 131 218
1262 4 2 3 1 22 131 56 21
1263 4 2 3 1 149 131 56 218
1264 4 2 3 1 149 56 131 21
1265 4 2 3 1 24 353 204 59
1266 4 2 3 1 204 353 24 117
1267 4 2 3 1 204 60 24 59
1268 4 2 3 1 24 60 204 117
1269 4 2 3 1 85 357 292 99
1270 4 2 3 1 292 357 85 206
1271 4 2 3 1 353 24 216 59
1272 4 2 3 1 353 216 24 130
1273 4 2 3 1 58 216 24 59
1274 4 2 3 1 32 255 273 63
1275 4 2 3 1 32 273 255 362
1276 4 2 3 1 216 23 24 130
1277 4 2 3 1 216 24 23 58
1278 4 2 3 1 94 287 107 108
1279 4 2 3 1 107 287 94 250
1280 4 2 3 1 67 139 116 36
1281 4 2 3 1 116 68 67 36
1282 4 2 3 1 67 68 116 245
1283 4 2 3 1 139 66 115 35
1284 4 2 3 1 139 115 66 253
1285 4 2 3 1 34 115 66 35
1286 4 2 3 1 34 66 115 253
1287 4 2 3 1 225 103 203 89
1288 4 2 3 1 225 203 103 282
1289 4 2 3 1 90 203 103 89
1290 4 2 3 1 90 103 203 282
1291 4 2 3 1 100 85 206 292
1292 4 2 3 1 100 206 85 86
1293 4 2 3 1 359 100 206 292
1294 4 2 3 1 359 206 100 86
1295 4 2 3 1 213 359 100 86
1296 4 2 3 1 357 99 234 310
1297 4 2 3 1 357 234 99 85
1298 4 2 3 1 112 111 252 98
1299 4 2 3 1 112 252 111 290
1300 4 2 3 1 307 156 105 7
1301 4 2 3 1 307 105 156 235
1302 4 2 3 1 271 106 80 92
1303 4 2 3 1 80 106 271 15
1304 4 2 3 1 80 16 271 92
1305 4 2 3 1 271 16 80 15
1306 4 2 3 1 1 146 39 27
1307 4 2 3 1 1 39 146 5
1308 4 2 3 1 62 39 146 27
1309 4 2 3 1 62 146 39 5
1310 4 2 3 1 99 234 75 85
1311 4 2 3 1 99 75 234 14
1312 4 2 3 1 13 75 234 85
1313 4 2 3 1 13 234 75 14
1314 4 2 3 1 12 273 70 4
1315 4 2 3 1 12 70 273 63
1316 4 2 3 1 32 70 273 4
1317 4 2 3 1 32 273 70 63
1318 4 2 3 1 149 56 179 236
1319 4 2 3 1 11 179 56 236
1320 4 2 3 1 272 112 49 8
1321 4 2 3 1 49 112 272 98
1322 4 2 3 1 49 9 272 8
1323 4 2 3 1 272 9 49 98
1324 4 2 3 1 69 148 54 38
1325 4 2 3 1 69 54 148 10
1326 4 2 3 1 2 54 148 38
1327 4 2 3 1 2 148 54 10
1328 4 2 3 1 91 235 44 105
1329 4 2 3 1 44 235 91 6
1330 4 2 3 1 235 7 44 105
1331 4 2 3 1 44 7 235 6
1332 4 2 3 1 235 156 7 105
1333 4 2 3 1 7 156 235 6
1334 4 2 3 1 118 347 143 327
1335 4 2 3 1 118 143 347 138
1336 4 2 3 1 241 116 67 139
1337 4 2 3 1 67 116 241 245
1338 4 2 3 1 359 100 279 213
1339 4 2 3 1 359 279 100 292
1340 4 2 3 1 149 56 11 179
1341 4 2 3 1 11 56 149 21
1342 4 2 3 1 11 3 149 179
1343 4 2 3 1 149 3 11 21
$EndElements
