$MeshFormat
2.2 0 8
$EndMeshFormat
$PhysicalNames
3
2 1 "Fixed"
2 2 "Load"
3 3 "Volume"
$EndPhysicalNames
$Nodes
343
1 -4.440892098501e-16 -18 20
2 -4.440892098501e-16 18 20
3 -4.440892098501e-16 -18 -20
4 -4.440892098501e-16 18 -20
5 2 -20 20
6 18 -20 20
7 20 -18 20
8 20 18 20
9 18 20 20
10 2 20 20
11 2 -20 -20
12 2 20 -20
13 18 -20 -20
14 20 -18 -20
15 20 18 -20
16 18 20 -20
17 0 -11.99999999999999 20
18 0 -5.999999999999993 20
19 0 7.105427357601002e-15 20
20 0 6.000000000000004 20
21 0 12 20
22 -4.440892098501e-16 -18 -14.2857142857143
23 -4.440892098501e-16 -18 -8.571428571428578
24 -4.440892098501e-16 -18 -2.857142857142865
25 -4.440892098501e-16 -18 2.857142857142854
26 -4.440892098501e-16 -18 8.571428571428566
27 -4.440892098501e-16 -18 14.28571428571428
28 0 -11.99999999999999 -20
29 0 -5.999999999999993 -20
30 0 7.105427357601002e-15 -20
31 0 6.000000000000004 -20
32 0 12 -20
33 -4.440892098501e-16 18 -14.2857142857143
34 -4.440892098501e-16 18 -8.571428571428578
35 -4.440892098501e-16 18 -2.857142857142865
36 -4.440892098501e-16 18 2.857142857142854
37 -4.440892098501e-16 18 8.571428571428566
38 -4.440892098501e-16 18 14.28571428571428
39 0.5857864376269046 -19.4142135623731 20
40 7.333333333333334 -20 20
41 12.66666666666669 -20 20
42 19.4142135623731 -19.4142135623731 20
43 20 -11.99999999999999 20
44 20 -5.999999999999993 20
45 20 7.105427357601002e-15 20
46 20 6.000000000000004 20
47 20 12 20
48 19.41421356237309 19.4142135623731 20
49 7.333333333333334 20 20
50 12.66666666666669 20 20
51 0.5857864376269073 19.4142135623731 20
52 0.5857864376269046 -19.4142135623731 -20
53 2 -20 -14.2857142857143
54 2 -20 -8.571428571428578
55 2 -20 -2.857142857142865
56 2 -20 2.857142857142854
57 2 -20 8.571428571428566
58 2 -20 14.28571428571428
59 2 20 -14.2857142857143
60 2 20 -8.571428571428578
61 2 20 -2.857142857142865
62 2 20 2.857142857142854
63 2 20 8.571428571428566
64 2 20 14.28571428571428
65 0.5857864376269073 19.4142135623731 -20
66 7.333333333333334 -20 -20
67 12.66666666666669 -20 -20
68 19.4142135623731 -19.4142135623731 -20
69 20 -11.99999999999999 -20
70 20 -5.999999999999993 -20
71 20 7.105427357601002e-15 -20
72 20 6.000000000000004 -20
73 20 12 -20
74 19.41421356237309 19.4142135623731 -20
75 7.333333333333334 20 -20
76 12.66666666666669 20 -20
77 18 -20 -14.2857142857143
78 18 -20 -8.571428571428578
79 18 -20 -2.857142857142865
80 18 -20 2.857142857142854
81 18 -20 8.571428571428566
82 18 -20 14.28571428571428
83 18 20 -14.2857142857143
84 18 20 -8.571428571428578
85 18 20 -2.857142857142865
86 18 20 2.857142857142854
87 18 20 8.571428571428566
88 18 20 14.28571428571428
89 20 -18 -14.2857142857143
90 20 -18 -8.571428571428578
91 20 -18 -2.857142857142865
92 20 -18 2.857142857142854
93 20 -18 8.571428571428566
94 20 -18 14.28571428571428
95 20 18 -14.2857142857143
96 20 18 -8.571428571428578
97 20 18 -2.857142857142865
98 20 18 2.857142857142854
99 20 18 8.571428571428566
100 20 18 14.28571428571428
101 0 -12.74928242238323 0.1035210983667874
102 0 12.64199060861988 0.1328179632079269
103 0 -3.083190895946036 15.04680190700775
104 0 -2.931178653681147 -14.86170438619778
105 0 8.978395815814189 15.3756174344358
106 0 8.655071709511464 -14.99358351265948
107 0 -12.83832570075248 10.91258830109086
108 0 -13.6927740290379 -11.34105173051214
109 0 2.938661652124637 -14.87305985753478
110 0 -0.001429867943222973 -9.722634724329843
111 0 -5.541241059007195 -9.566365178181197
112 0 -2.8727963623313 -4.609446206781815
113 0 2.991352343477921 -4.653985795785266
114 0 0.004426497966409926 0.4189224602990329
115 0 6.055741658934224 0.3492065742716619
116 0 2.878321158548736 5.465407172717466
117 0 -2.955009157234038 5.46104746508821
118 0 8.691062025019512 5.484096390887657
119 0 8.838026652073342 -4.877178754821179
120 0 -8.449142966727454 -4.663244285210196
121 0 5.818177635852503 -9.821511702304784
122 0 2.937189279179922 15.11385518530633
123 0 -5.820218437593537 0.4120503776646807
124 0 -9.204859638047171 5.45313868100806
125 0 -6.170410067127333 10.36985494347075
126 0 -9.129531062301949 -14.32043196601067
127 0 12.40249444728901 -10.53804368060836
128 0 -8.979782259253907 15.36636792178483
129 0 12.86753954265753 11.09594435633605
130 0 -0.1038874476784386 10.26184901090352
131 0 6.041436728923575 10.46612825843113
132 0 -13.61256441046514 -5.854470420770124
133 0 14.04011843525938 5.628286027800609
134 0 13.94349682354453 -5.583209068929774
135 0 -14.15849355223657 5.579563901807425
136 0 13.56268831004125 -15.63367986840045
137 0 -13.78676689169761 15.86896237913963
138 0 -13.92441052382967 -15.91286807057834
139 0 13.80783774999119 15.8910867803479
140 0 -10.04782387613132 -8.993634822396018
141 9.889274536216115 15.92692475961339 20
142 10.1107254637839 -15.9269247596134 20
143 4.943766011227934 -2.743420451132167 20
144 15.06740702423755 2.724865068838888 20
145 5.728959190750966 8.44074205438919 20
146 14.27472533664235 -8.447306219562446 20
147 15.27997661521584 -16.39806782055254 20
148 15.53710131159158 16.11355717228685 20
149 11.91153866516951 11.25628036173335 20
150 4.720023384784174 16.39806782055253 20
151 4.462898688408433 -16.11355717228685 20
152 8.089049579807023 -11.25748160844615 20
153 14.82552155421093 -3.037540429223281 20
154 5.19615242270663 3.000000000000004 20
155 10.00554669997089 -0.009656728888806754 20
156 10.60401726088849 5.472489208281548 20
157 9.40401826989396 -5.486351655144922 20
158 6.449959155384152 12.80440299925769 20
159 13.55089539908982 -12.8059560816349 20
160 15.71449956249537 7.422704493616678 20
161 4.285500437504637 -7.422704493616678 20
162 2.428551888525595 17.57144811147441 20
163 17.57144811147442 -17.57144811147442 20
164 0.5808220621961366 -19.40923169878156 -11.42857142857144
165 0.5857864376268322 -19.41421356237302 -17.15818511898335
166 0.5808220621961373 -19.40923169878156 11.42857142857142
167 0.5857864376268322 -19.41421356237302 17.15818511898334
168 0.5857864376269906 -19.41421356237318 -5.789840571405025
169 0.5808220621961362 -19.40923169878156 -7.105427357601002e-15
170 0.5808220621961362 -19.40923169878156 5.714285714285708
171 0.5808220621961273 19.40923169878155 -11.42857142857144
172 0.5857864376269266 19.41421356237312 -17.15818511898336
173 0.5907683012186107 19.41917793780404 -7.105427357601002e-15
174 0.5808220621961286 19.40923169878156 11.42857142857142
175 0.585786437626894 19.41421356237309 17.15818511898335
176 0.5857864376269895 19.41421356237318 -5.63873085716642
177 0.5857864376269906 19.41421356237318 5.789840571405012
178 10.1107254637839 -15.9269247596134 -20
179 9.889274536216115 15.92692475961339 -20
180 4.943766011227934 -2.743420451132163 -20
181 15.06740702423755 2.724865068838888 -20
182 5.728959190750966 8.44074205438919 -20
183 14.27472533664235 -8.447306219562442 -20
184 15.53710131159158 16.11355717228685 -20
185 11.91153866516951 11.25628036173335 -20
186 4.462898688408432 -16.11355717228685 -20
187 8.089049579807023 -11.25748160844615 -20
188 15.27997661521584 -16.39806782055254 -20
189 4.720023384784174 16.39806782055253 -20
190 14.82552155421093 -3.037540429223281 -20
191 5.19615242270663 3.000000000000004 -20
192 10.00554669997089 -0.009656728888806754 -20
193 10.60401726088849 5.472489208281548 -20
194 9.40401826989396 -5.486351655144922 -20
195 6.449959155384152 12.80440299925769 -20
196 13.55089539908982 -12.8059560816349 -20
197 15.71449956249537 7.422704493616678 -20
198 4.285500437504636 -7.422704493616678 -20
199 2.428551888525595 17.5714481114744 -20
200 17.57144811147442 -17.57144811147442 -20
201 10.00000000000001 -20 -15.381197846483
202 10.00000000000001 -20 15.381197846483
203 6.775618006980576 -20 -5.697261700191579
204 6.775618006980574 -20 5.697261700191568
205 13.05128340694607 -20 -3.552713678800501e-15
206 13.22438199301942 -20 -5.697261700191579
207 6.769057790108873 -20 -7.105427357601002e-15
208 13.22438199301943 -20 5.697261700191561
209 7.122098390729207 -20 -11.3710958901978
210 7.122098390729207 -20 11.37109589019779
211 12.93052569427308 -20 11.41113181897288
212 12.93052569427308 -20 -11.4111318189729
213 5.760497371273511 -20 16.13259618652918
214 5.760497371273513 -20 -16.13259618652919
215 14.31943847218795 -20 -16.21560879023404
216 14.31943847218795 -20 16.21560879023403
217 9.970056866175822 -20 2.842356573200632
218 9.965066343871793 -20 -2.844820953857685
219 10.00092099275687 -20 -8.227180469453446
220 10.00118080753739 -20 8.227052169752419
221 10.00000000000001 20 -15.381197846483
222 10.00000000000001 20 15.381197846483
223 6.775618006980576 20 -5.697261700191579
224 6.775618006980574 20 5.697261700191564
225 13.05128340694607 20 -3.552713678800501e-15
226 13.22438199301942 20 -5.697261700191579
227 6.769057790108873 20 -7.105427357601002e-15
228 13.22438199301943 20 5.697261700191561
229 7.122098390729208 20 11.37109589019779
230 7.122098390729207 20 -11.3710958901978
231 12.93052569427309 20 11.41113181897288
232 12.93052569427308 20 -11.4111318189729
233 5.760497371273514 20 16.13259618652918
234 5.760497371273513 20 -16.13259618652919
235 14.31943847218795 20 -16.21560879023404
236 14.31943847218796 20 16.21560879023403
237 9.97005686617582 20 2.842356573200632
238 9.965066343871792 20 -2.844820953857685
239 10.00118080753738 20 8.227052169752412
240 10.00092099275687 20 -8.227180469453446
241 19.40923169878139 -19.41917793780404 11.42857142857143
242 19.41421356237322 -19.41421356237297 17.15818511898335
243 19.40923169878139 -19.41917793780404 -11.42857142857144
244 19.41421356237322 -19.41421356237297 -17.15818511898336
245 19.40923169878139 -19.41917793780404 -1.06581410364015e-14
246 19.40923169878139 -19.41917793780404 -5.714285714285722
247 19.40923169878139 -19.41917793780404 5.714285714285712
248 19.40923169878139 19.41917793780403 -11.42857142857144
249 19.41421356237312 19.41421356237307 -17.15818511898336
250 19.40923169878139 19.41917793780403 11.42857142857141
251 19.41421356237312 19.41421356237307 17.15818511898335
252 19.40923169878139 19.41917793780403 -1.06581410364015e-14
253 19.41917793780386 19.40923169878156 -5.714285714285722
254 19.41421356237301 19.41421356237318 5.789840571405012
255 20 -12.74928242238323 0.1035210983667874
256 20 12.64199060861988 0.1328179632079269
257 20 -3.083190895946036 15.04680190700775
258 20 -2.931178653681147 -14.86170438619778
259 20 8.978395815814189 15.3756174344358
260 20 8.655071709511464 -14.99358351265948
261 20 -12.83832570075248 10.91258830109086
262 20 -13.6927740290379 -11.34105173051214
263 20 2.938661652124637 -14.87305985753478
264 20 -0.001429867943222973 -9.722634724329843
265 20 -5.541241059007195 -9.566365178181197
266 20 -2.8727963623313 -4.609446206781815
267 20 2.991352343477921 -4.653985795785266
268 20 0.004426497966409926 0.4189224602990329
269 20 6.055741658934224 0.3492065742716619
270 20 2.878321158548736 5.465407172717466
271 20 -2.955009157234038 5.46104746508821
272 20 8.691062025019512 5.484096390887657
273 20 8.838026652073342 -4.877178754821179
274 20 -8.449142966727454 -4.663244285210196
275 20 5.818177635852503 -9.821511702304784
276 20 2.937189279179922 15.11385518530633
277 20 -5.820218437593537 0.4120503776646807
278 20 -9.204859638047171 5.45313868100806
279 20 -6.170410067127333 10.36985494347075
280 20 -9.129531062301949 -14.32043196601067
281 20 12.40249444728901 -10.53804368060836
282 20 -8.979782259253907 15.36636792178483
283 20 12.86753954265753 11.09594435633605
284 20 -0.1038874476784386 10.26184901090352
285 20 6.041436728923575 10.46612825843113
286 20 -13.61256441046514 -5.854470420770124
287 20 14.04011843525938 5.628286027800609
288 20 13.94349682354453 -5.583209068929774
289 20 -14.15849355223657 5.579563901807425
290 20 13.56268831004125 -15.63367986840045
291 20 -13.78676689169761 15.86896237913963
292 20 -13.92441052382967 -15.91286807057834
293 20 13.80783774999119 15.8910867803479
294 20 -10.04782387613132 -8.993634822396018
295 9.999999999999998 -9.845670064062098 -6.607971936222282
296 9.999999999999998 0.07146593906673626 -3.02703252792096
297 9.999999999999998 2.76468843727663 9.969179434267197
298 10.0497782181232 9.478275098814668 1.800747790885822
299 10 9.436036720076009 -8.777329692463939
300 10 -9.420584912579425 8.981021528586332
301 8.451268071398292 -2.473403746394253 -11.50205389352395
302 10.02802990532157 11.58892446054777 11.14188568341056
303 8.520565436795755 -12.00186812318668 1.251116296195687
304 11.87922339010076 -2.913854487973593 4.368785485328851
305 12.72635260285676 3.645088828879763 -12.84532767816145
306 11.06357487160589 -13.10407687672466 -13.09965668268305
307 6.528310760564642 13.51092591230278 -2.848911839636378
308 7.045996363810837 2.846439468133688 3.175072015278723
309 7.19201334471191 -3.60240653403051 12.85952856249439
310 13.9511224736054 14.51011473393647 -2.089624309408949
311 13.66992944627911 -4.015412533426832 -7.231579273492342
312 13.9299360262088 -13.88838109325735 -2.824564557724295
313 13.22496463173912 -7.173349250966591 -1.00969648505767
314 6.240330675734556 6.055770444673144 -3.069922046893175
315 13.52554177566006 6.2337840305314 -3.491893330317323
316 6.134080866986063 5.831176693026366 -13.30600546527488
317 6.570067900247002 13.40047342765618 5.815464480211927
318 13.77247208856274 3.880340904571523 2.895059446107499
319 5.807136729210057 -14.32322235845244 -8.603899565962605
320 5.833956525301595 -8.444562189611005 -11.42379541347958
321 13.44976027150606 13.42288874669061 5.826417195398583
322 6.08172621161614 -5.602603170360916 -2.835976998603618
323 6.441594200591265 -13.41176943034103 13.37178821242707
324 8.845965004944082 13.62069721304594 -13.83460776374347
325 13.39502687432431 -6.718553229211178 -13.47403033712095
326 13.73265802837759 -5.659192944898836 13.70284415001452
327 13.95375439436299 -14.0919291725841 13.71832643891569
328 13.50152332315078 -13.47940882449416 5.228725477282592
329 5.970355352829417 -6.283983327257204 3.944566437535533
330 13.95315922109213 6.761591858551808 13.58573531195763
331 5.698628454222709 1.510842192441793 -7.434315018098236
332 6.153236866657465 -13.8490319563773 6.75855159974161
333 6.038347063360476 6.793729553797313 13.53308856200114
334 14.70722049778543 14.91207458376509 -8.638013364938974
335 5.291209882947028 14.89250302139839 -8.635405338900824
336 14.73941805410515 -14.9417527322463 -8.695492851435031
337 14.56651321218399 14.65662400036257 13.54118571018655
338 5.417164065091504 14.64342330544546 13.45898421729497
339 5.148921165281616 -14.93345647664785 -2.704472247430513
340 14.29668809723566 0.5482883882252381 14.18994588582361
341 13.89647886417892 9.801545398388001 -13.75565276204341
342 5.57524834742279 -14.46567010800972 -14.39974565819204
343 6.760661158090164 7.396217897668409 7.393608272024289
$EndNodes
$Elements
1264
1 2 2 1 1 1 17 137
2 2 2 1 1 27 1 137
3 2 2 1 1 21 2 139
4 2 2 1 1 2 38 139
5 2 2 1 1 3 22 138
6 2 2 1 1 28 3 138
7 2 2 1 1 4 32 136
8 2 2 1 1 33 4 136
9 2 2 1 1 17 18 128
10 2 2 1 1 17 128 137
11 2 2 1 1 18 19 103
12 2 2 1 1 18 103 128
13 2 2 1 1 19 20 122
14 2 2 1 1 103 19 122
15 2 2 1 1 20 21 105
16 2 2 1 1 20 105 122
17 2 2 1 1 105 21 139
18 2 2 1 1 22 23 108
19 2 2 1 1 22 108 138
20 2 2 1 1 23 24 132
21 2 2 1 1 108 23 132
22 2 2 1 1 24 25 101
23 2 2 1 1 24 101 132
24 2 2 1 1 25 26 135
25 2 2 1 1 101 25 135
26 2 2 1 1 26 27 107
27 2 2 1 1 26 107 135
28 2 2 1 1 107 27 137
29 2 2 1 1 29 28 126
30 2 2 1 1 126 28 138
31 2 2 1 1 30 29 104
32 2 2 1 1 104 29 126
33 2 2 1 1 31 30 109
34 2 2 1 1 30 104 109
35 2 2 1 1 32 31 106
36 2 2 1 1 106 31 109
37 2 2 1 1 32 106 136
38 2 2 1 1 34 33 127
39 2 2 1 1 127 33 136
40 2 2 1 1 35 34 134
41 2 2 1 1 34 127 134
42 2 2 1 1 36 35 102
43 2 2 1 1 102 35 134
44 2 2 1 1 37 36 133
45 2 2 1 1 36 102 133
46 2 2 1 1 38 37 129
47 2 2 1 1 129 37 133
48 2 2 1 1 38 129 139
49 2 2 1 1 120 101 123
50 2 2 1 1 101 120 132
51 2 2 1 1 123 101 124
52 2 2 1 1 124 101 135
53 2 2 1 1 102 115 118
54 2 2 1 1 115 102 119
55 2 2 1 1 102 118 133
56 2 2 1 1 119 102 134
57 2 2 1 1 103 122 130
58 2 2 1 1 103 125 128
59 2 2 1 1 125 103 130
60 2 2 1 1 109 104 110
61 2 2 1 1 110 104 111
62 2 2 1 1 111 104 126
63 2 2 1 1 122 105 131
64 2 2 1 1 105 129 131
65 2 2 1 1 129 105 139
66 2 2 1 1 106 109 121
67 2 2 1 1 106 121 127
68 2 2 1 1 106 127 136
69 2 2 1 1 124 107 125
70 2 2 1 1 107 124 135
71 2 2 1 1 125 107 128
72 2 2 1 1 128 107 137
73 2 2 1 1 108 126 138
74 2 2 1 1 126 108 140
75 2 2 1 1 108 132 140
76 2 2 1 1 109 110 121
77 2 2 1 1 110 111 112
78 2 2 1 1 110 112 113
79 2 2 1 1 110 113 121
80 2 2 1 1 112 111 120
81 2 2 1 1 120 111 140
82 2 2 1 1 111 126 140
83 2 2 1 1 113 112 114
84 2 2 1 1 114 112 123
85 2 2 1 1 112 120 123
86 2 2 1 1 113 114 115
87 2 2 1 1 113 115 119
88 2 2 1 1 113 119 121
89 2 2 1 1 115 114 116
90 2 2 1 1 116 114 117
91 2 2 1 1 117 114 123
92 2 2 1 1 115 116 118
93 2 2 1 1 116 117 130
94 2 2 1 1 118 116 131
95 2 2 1 1 116 130 131
96 2 2 1 1 117 123 124
97 2 2 1 1 117 124 125
98 2 2 1 1 117 125 130
99 2 2 1 1 129 118 131
100 2 2 1 1 118 129 133
101 2 2 1 1 121 119 127
102 2 2 1 1 127 119 134
103 2 2 1 1 132 120 140
104 2 2 1 1 130 122 131
105 2 2 2 10 7 291 43
106 2 2 2 10 94 291 7
107 2 2 2 10 47 293 8
108 2 2 2 10 8 293 100
109 2 2 2 10 69 292 14
110 2 2 2 10 14 292 89
111 2 2 2 10 15 290 73
112 2 2 2 10 95 290 15
113 2 2 2 10 43 282 44
114 2 2 2 10 43 291 282
115 2 2 2 10 44 257 45
116 2 2 2 10 44 282 257
117 2 2 2 10 45 276 46
118 2 2 2 10 257 276 45
119 2 2 2 10 46 259 47
120 2 2 2 10 46 276 259
121 2 2 2 10 259 293 47
122 2 2 2 10 70 280 69
123 2 2 2 10 280 292 69
124 2 2 2 10 71 258 70
125 2 2 2 10 258 280 70
126 2 2 2 10 72 263 71
127 2 2 2 10 71 263 258
128 2 2 2 10 73 260 72
129 2 2 2 10 260 263 72
130 2 2 2 10 73 290 260
131 2 2 2 10 89 262 90
132 2 2 2 10 89 292 262
133 2 2 2 10 90 286 91
134 2 2 2 10 262 286 90
135 2 2 2 10 91 255 92
136 2 2 2 10 91 286 255
137 2 2 2 10 92 289 93
138 2 2 2 10 255 289 92
139 2 2 2 10 93 261 94
140 2 2 2 10 93 289 261
141 2 2 2 10 261 291 94
142 2 2 2 10 96 281 95
143 2 2 2 10 281 290 95
144 2 2 2 10 97 288 96
145 2 2 2 10 96 288 281
146 2 2 2 10 98 256 97
147 2 2 2 10 256 288 97
148 2 2 2 10 99 287 98
149 2 2 2 10 98 287 256
150 2 2 2 10 100 283 99
151 2 2 2 10 283 287 99
152 2 2 2 10 100 293 283
153 2 2 2 10 274 277 255
154 2 2 2 10 255 286 274
155 2 2 2 10 277 278 255
156 2 2 2 10 278 289 255
157 2 2 2 10 256 272 269
158 2 2 2 10 269 273 256
159 2 2 2 10 256 287 272
160 2 2 2 10 273 288 256
161 2 2 2 10 257 284 276
162 2 2 2 10 257 282 279
163 2 2 2 10 279 284 257
164 2 2 2 10 263 264 258
165 2 2 2 10 264 265 258
166 2 2 2 10 265 280 258
167 2 2 2 10 276 285 259
168 2 2 2 10 259 285 283
169 2 2 2 10 283 293 259
170 2 2 2 10 260 275 263
171 2 2 2 10 260 281 275
172 2 2 2 10 260 290 281
173 2 2 2 10 278 279 261
174 2 2 2 10 261 289 278
175 2 2 2 10 279 282 261
176 2 2 2 10 282 291 261
177 2 2 2 10 262 292 280
178 2 2 2 10 280 294 262
179 2 2 2 10 262 294 286
180 2 2 2 10 263 275 264
181 2 2 2 10 264 266 265
182 2 2 2 10 264 267 266
183 2 2 2 10 264 275 267
184 2 2 2 10 266 274 265
185 2 2 2 10 274 294 265
186 2 2 2 10 265 294 280
187 2 2 2 10 267 268 266
188 2 2 2 10 268 277 266
189 2 2 2 10 266 277 274
190 2 2 2 10 267 269 268
191 2 2 2 10 267 273 269
192 2 2 2 10 267 275 273
193 2 2 2 10 269 270 268
194 2 2 2 10 270 271 268
195 2 2 2 10 271 277 268
196 2 2 2 10 269 272 270
197 2 2 2 10 270 284 271
198 2 2 2 10 272 285 270
199 2 2 2 10 270 285 284
200 2 2 2 10 271 278 277
201 2 2 2 10 271 279 278
202 2 2 2 10 271 284 279
203 2 2 2 10 283 285 272
204 2 2 2 10 272 287 283
205 2 2 2 10 275 281 273
206 2 2 2 10 281 288 273
207 2 2 2 10 286 294 274
208 2 2 2 10 284 285 276
209 4 2 3 1 264 311 267 315
210 4 2 3 1 318 321 302 330
211 4 2 3 1 302 321 318 343
212 4 2 3 1 264 305 311 315
213 4 2 3 1 117 308 130 309
214 4 2 3 1 308 309 117 329
215 4 2 3 1 302 318 297 343
216 4 2 3 1 130 308 297 309
217 4 2 3 1 297 318 302 330
218 4 2 3 1 272 321 318 330
219 4 2 3 1 296 311 305 315
220 4 2 3 1 173 227 36 307
221 4 2 3 1 173 36 227 62
222 4 2 3 1 191 109 180 301
223 4 2 3 1 86 252 98 310
224 4 2 3 1 318 321 298 343
225 4 2 3 1 297 309 308 329
226 4 2 3 1 268 296 266 313
227 4 2 3 1 104 180 109 301
228 4 2 3 1 191 109 301 316
229 4 2 3 1 297 308 304 329
230 4 2 3 1 267 266 268 296
231 4 2 3 1 297 304 309 329
232 4 2 3 1 264 311 305 325
233 4 2 3 1 154 155 309 333
234 4 2 3 1 296 267 311 315
235 4 2 3 1 284 304 297 318
236 4 2 3 1 298 307 237 310
237 4 2 3 1 266 296 311 313
238 4 2 3 1 268 304 296 313
239 4 2 3 1 266 296 267 311
240 4 2 3 1 258 264 305 325
241 4 2 3 1 298 310 237 321
242 4 2 3 1 237 307 298 317
243 4 2 3 1 296 301 305 311
244 4 2 3 1 296 315 305 331
245 4 2 3 1 304 326 284 340
246 4 2 3 1 297 309 155 333
247 4 2 3 1 278 304 313 328
248 4 2 3 1 92 245 80 312
249 4 2 3 1 267 296 268 315
250 4 2 3 1 296 305 301 331
251 4 2 3 1 190 258 305 325
252 4 2 3 1 296 304 268 318
253 4 2 3 1 278 300 304 328
254 4 2 3 1 235 290 334 341
255 4 2 3 1 191 301 192 316
256 4 2 3 1 154 309 122 333
257 4 2 3 1 327 328 220 332
258 4 2 3 1 294 295 325 336
259 4 2 3 1 237 317 298 321
260 4 2 3 1 218 312 219 319
261 4 2 3 1 297 304 284 340
262 4 2 3 1 278 300 279 304
263 4 2 3 1 294 295 311 325
264 4 2 3 1 116 297 130 308
265 4 2 3 1 191 180 192 301
266 4 2 3 1 62 36 227 317
267 4 2 3 1 116 130 297 343
268 4 2 3 1 279 284 271 304
269 4 2 3 1 130 122 309 333
270 4 2 3 1 279 284 304 326
271 4 2 3 1 235 334 324 341
272 4 2 3 1 225 310 86 321
273 4 2 3 1 272 318 285 330
274 4 2 3 1 294 274 295 336
275 4 2 3 1 279 304 300 326
276 4 2 3 1 116 297 308 343
277 4 2 3 1 296 268 315 318
278 4 2 3 1 77 292 215 306
279 4 2 3 1 235 184 290 341
280 4 2 3 1 109 110 301 316
281 4 2 3 1 114 314 296 331
282 4 2 3 1 36 307 227 317
283 4 2 3 1 240 310 307 334
284 4 2 3 1 256 298 310 315
285 4 2 3 1 294 295 274 311
286 4 2 3 1 296 322 114 331
287 4 2 3 1 117 116 130 308
288 4 2 3 1 194 301 180 320
289 4 2 3 1 111 322 301 331
290 4 2 3 1 102 307 298 314
291 4 2 3 1 155 156 297 333
292 4 2 3 1 155 297 156 340
293 4 2 3 1 218 219 203 319
294 4 2 3 1 232 324 235 334
295 4 2 3 1 219 319 312 336
296 4 2 3 1 98 86 310 321
297 4 2 3 1 296 308 114 322
298 4 2 3 1 115 308 298 343
299 4 2 3 1 301 305 192 316
300 4 2 3 1 102 118 298 317
301 4 2 3 1 110 301 316 331
302 4 2 3 1 235 324 184 341
303 4 2 3 1 305 315 299 331
304 4 2 3 1 130 309 297 333
305 4 2 3 1 114 308 296 314
306 4 2 3 1 180 301 104 320
307 4 2 3 1 262 294 325 336
308 4 2 3 1 111 320 301 322
309 4 2 3 1 305 311 301 325
310 4 2 3 1 181 190 258 305
311 4 2 3 1 166 57 26 323
312 4 2 3 1 112 114 322 331
313 4 2 3 1 102 298 115 314
314 4 2 3 1 109 110 104 301
315 4 2 3 1 240 334 307 335
316 4 2 3 1 302 330 321 337
317 4 2 3 1 102 298 307 317
318 4 2 3 1 323 327 220 332
319 4 2 3 1 312 319 218 339
320 4 2 3 1 261 300 278 328
321 4 2 3 1 154 143 122 309
322 4 2 3 1 114 322 308 329
323 4 2 3 1 299 334 273 341
324 4 2 3 1 256 298 272 321
325 4 2 3 1 297 285 318 330
326 4 2 3 1 225 237 310 321
327 4 2 3 1 120 319 295 339
328 4 2 3 1 258 263 181 305
329 4 2 3 1 256 269 298 315
330 4 2 3 1 118 298 317 343
331 4 2 3 1 77 306 215 336
332 4 2 3 1 125 300 323 332
333 4 2 3 1 309 323 300 326
334 4 2 3 1 227 173 61 307
335 4 2 3 1 237 227 307 317
336 4 2 3 1 300 313 304 328
337 4 2 3 1 198 194 180 320
338 4 2 3 1 238 237 307 310
339 4 2 3 1 256 310 298 321
340 4 2 3 1 115 298 308 314
341 4 2 3 1 272 298 269 318
342 4 2 3 1 114 113 314 331
343 4 2 3 1 89 262 292 336
344 4 2 3 1 115 102 118 298
345 4 2 3 1 112 322 111 331
346 4 2 3 1 238 307 240 310
347 4 2 3 1 303 313 300 328
348 4 2 3 1 274 312 295 336
349 4 2 3 1 281 273 334 341
350 4 2 3 1 140 120 319 320
351 4 2 3 1 115 298 118 343
352 4 2 3 1 103 122 143 309
353 4 2 3 1 124 329 300 332
354 4 2 3 1 207 56 332 339
355 4 2 3 1 297 326 304 340
356 4 2 3 1 128 309 161 323
357 4 2 3 1 295 319 120 320
358 4 2 3 1 297 309 304 326
359 4 2 3 1 269 298 315 318
360 4 2 3 1 300 328 327 332
361 4 2 3 1 273 275 299 341
362 4 2 3 1 238 225 237 310
363 4 2 3 1 203 218 319 339
364 4 2 3 1 262 325 306 336
365 4 2 3 1 256 269 272 298
366 4 2 3 1 155 154 156 333
367 4 2 3 1 125 323 107 332
368 4 2 3 1 261 326 300 327
369 4 2 3 1 125 124 300 332
370 4 2 3 1 308 322 296 329
371 4 2 3 1 128 125 309 323
372 4 2 3 1 278 279 271 304
373 4 2 3 1 300 309 125 323
374 4 2 3 1 303 304 300 313
375 4 2 3 1 285 297 284 340
376 4 2 3 1 279 300 261 326
377 4 2 3 1 25 332 56 339
378 4 2 3 1 261 279 278 300
379 4 2 3 1 304 308 296 329
380 4 2 3 1 299 314 307 335
381 4 2 3 1 155 309 297 340
382 4 2 3 1 307 314 119 335
383 4 2 3 1 312 319 295 336
384 4 2 3 1 131 297 130 343
385 4 2 3 1 198 180 104 320
386 4 2 3 1 81 241 93 327
387 4 2 3 1 262 306 292 336
388 4 2 3 1 283 321 330 337
389 4 2 3 1 283 321 272 330
390 4 2 3 1 272 298 318 321
391 4 2 3 1 192 301 194 325
392 4 2 3 1 102 307 36 317
393 4 2 3 1 120 295 322 339
394 4 2 3 1 141 222 337 338
395 4 2 3 1 292 188 215 306
396 4 2 3 1 237 227 238 307
397 4 2 3 1 121 299 314 316
398 4 2 3 1 256 98 310 321
399 4 2 3 1 273 299 275 315
400 4 2 3 1 280 262 294 325
401 4 2 3 1 152 309 157 326
402 4 2 3 1 112 113 114 331
403 4 2 3 1 273 281 275 341
404 4 2 3 1 121 299 119 314
405 4 2 3 1 130 297 131 333
406 4 2 3 1 275 299 305 315
407 4 2 3 1 295 319 312 339
408 4 2 3 1 297 131 333 343
409 4 2 3 1 77 215 212 336
410 4 2 3 1 124 125 300 329
411 4 2 3 1 300 326 323 327
412 4 2 3 1 116 131 130 343
413 4 2 3 1 121 316 314 331
414 4 2 3 1 61 173 35 307
415 4 2 3 1 261 327 300 328
416 4 2 3 1 181 192 190 305
417 4 2 3 1 235 83 232 334
418 4 2 3 1 219 218 206 312
419 4 2 3 1 215 306 212 336
420 4 2 3 1 211 220 327 328
421 4 2 3 1 307 310 298 315
422 4 2 3 1 80 312 205 328
423 4 2 3 1 127 316 106 324
424 4 2 3 1 262 280 292 306
425 4 2 3 1 274 311 295 313
426 4 2 3 1 273 299 315 334
427 4 2 3 1 238 240 226 310
428 4 2 3 1 194 301 320 325
429 4 2 3 1 299 119 314 335
430 4 2 3 1 275 305 299 341
431 4 2 3 1 300 304 303 329
432 4 2 3 1 152 323 309 326
433 4 2 3 1 81 327 93 328
434 4 2 3 1 223 240 238 307
435 4 2 3 1 297 330 156 340
436 4 2 3 1 81 93 247 328
437 4 2 3 1 307 310 299 334
438 4 2 3 1 295 320 120 322
439 4 2 3 1 92 312 80 328
440 4 2 3 1 285 330 297 340
441 4 2 3 1 301 311 296 322
442 4 2 3 1 85 253 97 310
443 4 2 3 1 264 266 267 311
444 4 2 3 1 253 310 85 334
445 4 2 3 1 295 311 301 322
446 4 2 3 1 196 292 280 306
447 4 2 3 1 280 306 262 325
448 4 2 3 1 304 313 303 329
449 4 2 3 1 243 89 77 336
450 4 2 3 1 97 252 85 310
451 4 2 3 1 207 332 303 339
452 4 2 3 1 274 295 312 313
453 4 2 3 1 316 324 127 335
454 4 2 3 1 143 154 155 309
455 4 2 3 1 300 327 323 332
456 4 2 3 1 192 194 190 325
457 4 2 3 1 125 309 300 329
458 4 2 3 1 156 330 297 333
459 4 2 3 1 177 63 37 317
460 4 2 3 1 304 309 300 326
461 4 2 3 1 117 114 308 329
462 4 2 3 1 263 258 264 305
463 4 2 3 1 179 184 235 324
464 4 2 3 1 62 177 36 317
465 4 2 3 1 294 286 274 336
466 4 2 3 1 273 315 310 334
467 4 2 3 1 211 327 81 328
468 4 2 3 1 87 254 99 321
469 4 2 3 1 141 337 302 338
470 4 2 3 1 219 312 206 336
471 4 2 3 1 307 334 299 335
472 4 2 3 1 301 320 295 322
473 4 2 3 1 307 298 314 315
474 4 2 3 1 86 98 254 321
475 4 2 3 1 106 316 182 324
476 4 2 3 1 304 296 322 329
477 4 2 3 1 117 309 125 329
478 4 2 3 1 314 316 299 331
479 4 2 3 1 207 56 204 332
480 4 2 3 1 193 192 305 316
481 4 2 3 1 111 301 110 331
482 4 2 3 1 299 310 307 315
483 4 2 3 1 301 322 296 331
484 4 2 3 1 136 127 106 324
485 4 2 3 1 277 278 304 313
486 4 2 3 1 283 272 285 330
487 4 2 3 1 180 194 192 301
488 4 2 3 1 268 277 304 313
489 4 2 3 1 299 315 314 331
490 4 2 3 1 306 325 295 336
491 4 2 3 1 230 59 234 324
492 4 2 3 1 25 56 169 339
493 4 2 3 1 125 107 124 332
494 4 2 3 1 310 315 299 334
495 4 2 3 1 268 266 277 313
496 4 2 3 1 280 196 306 325
497 4 2 3 1 25 101 332 339
498 4 2 3 1 223 240 307 335
499 4 2 3 1 160 293 259 337
500 4 2 3 1 240 226 310 334
501 4 2 3 1 152 323 326 327
502 4 2 3 1 117 130 125 309
503 4 2 3 1 103 130 122 309
504 4 2 3 1 314 315 296 331
505 4 2 3 1 294 311 265 325
506 4 2 3 1 309 326 297 340
507 4 2 3 1 193 191 192 316
508 4 2 3 1 247 92 80 328
509 4 2 3 1 299 324 316 335
510 4 2 3 1 231 302 239 321
511 4 2 3 1 111 104 110 301
512 4 2 3 1 221 179 235 324
513 4 2 3 1 300 309 304 329
514 4 2 3 1 208 211 81 328
515 4 2 3 1 170 56 25 332
516 4 2 3 1 303 322 101 329
517 4 2 3 1 204 217 207 332
518 4 2 3 1 229 239 302 317
519 4 2 3 1 299 307 314 315
520 4 2 3 1 101 322 303 339
521 4 2 3 1 205 303 217 328
522 4 2 3 1 217 205 218 303
523 4 2 3 1 286 312 274 336
524 4 2 3 1 202 211 210 327
525 4 2 3 1 120 132 319 339
526 4 2 3 1 135 25 101 332
527 4 2 3 1 87 321 99 337
528 4 2 3 1 111 104 301 320
529 4 2 3 1 255 278 313 328
530 4 2 3 1 271 277 278 304
531 4 2 3 1 268 304 271 318
532 4 2 3 1 308 314 298 318
533 4 2 3 1 93 327 261 328
534 4 2 3 1 129 317 338 343
535 4 2 3 1 63 37 317 338
536 4 2 3 1 231 229 239 302
537 4 2 3 1 87 231 321 337
538 4 2 3 1 235 232 221 324
539 4 2 3 1 225 86 228 321
540 4 2 3 1 112 111 110 331
541 4 2 3 1 160 259 330 337
542 4 2 3 1 227 224 62 317
543 4 2 3 1 305 299 316 331
544 4 2 3 1 152 161 309 323
545 4 2 3 1 87 99 250 337
546 4 2 3 1 317 302 338 343
547 4 2 3 1 296 313 304 322
548 4 2 3 1 324 334 240 335
549 4 2 3 1 234 136 189 324
550 4 2 3 1 314 315 298 318
551 4 2 3 1 152 161 157 309
552 4 2 3 1 205 312 303 328
553 4 2 3 1 217 303 207 332
554 4 2 3 1 63 317 229 338
555 4 2 3 1 205 218 303 312
556 4 2 3 1 282 326 261 327
557 4 2 3 1 207 217 218 303
558 4 2 3 1 59 324 230 335
559 4 2 3 1 302 317 239 321
560 4 2 3 1 306 319 219 336
561 4 2 3 1 220 328 217 332
562 4 2 3 1 255 313 312 328
563 4 2 3 1 303 332 101 339
564 4 2 3 1 140 120 132 319
565 4 2 3 1 157 309 155 326
566 4 2 3 1 120 320 111 322
567 4 2 3 1 285 272 270 318
568 4 2 3 1 210 323 220 332
569 4 2 3 1 194 320 187 325
570 4 2 3 1 270 268 271 318
571 4 2 3 1 174 37 63 338
572 4 2 3 1 129 338 333 343
573 4 2 3 1 83 95 248 334
574 4 2 3 1 59 171 33 335
575 4 2 3 1 255 312 92 328
576 4 2 3 1 239 317 237 321
577 4 2 3 1 302 321 231 337
578 4 2 3 1 295 303 322 339
579 4 2 3 1 101 120 322 339
580 4 2 3 1 193 316 305 341
581 4 2 3 1 137 128 161 323
582 4 2 3 1 185 316 193 341
583 4 2 3 1 161 128 103 309
584 4 2 3 1 269 267 268 315
585 4 2 3 1 155 326 309 340
586 4 2 3 1 125 128 107 323
587 4 2 3 1 126 198 104 320
588 4 2 3 1 229 317 302 338
589 4 2 3 1 292 196 188 306
590 4 2 3 1 201 215 178 306
591 4 2 3 1 303 329 124 332
592 4 2 3 1 126 198 320 342
593 4 2 3 1 263 260 197 305
594 4 2 3 1 211 208 220 328
595 4 2 3 1 58 166 27 323
596 4 2 3 1 202 210 323 327
597 4 2 3 1 26 323 57 332
598 4 2 3 1 333 338 302 343
599 4 2 3 1 63 224 229 317
600 4 2 3 1 231 228 87 321
601 4 2 3 1 79 245 91 312
602 4 2 3 1 269 315 268 318
603 4 2 3 1 187 320 306 325
604 4 2 3 1 123 101 322 329
605 4 2 3 1 185 324 316 341
606 4 2 3 1 109 180 30 191
607 4 2 3 1 305 316 301 331
608 4 2 3 1 101 303 124 332
609 4 2 3 1 295 301 311 325
610 4 2 3 1 301 295 320 325
611 4 2 3 1 271 268 277 304
612 4 2 3 1 152 326 146 327
613 4 2 3 1 197 305 260 341
614 4 2 3 1 282 279 261 326
615 4 2 3 1 102 36 133 317
616 4 2 3 1 289 93 261 328
617 4 2 3 1 303 312 218 339
618 4 2 3 1 280 183 196 325
619 4 2 3 1 256 287 98 321
620 4 2 3 1 204 220 217 332
621 4 2 3 1 126 138 198 342
622 4 2 3 1 120 140 111 320
623 4 2 3 1 217 328 303 332
624 4 2 3 1 180 30 104 109
625 4 2 3 1 57 323 210 332
626 4 2 3 1 71 263 181 258
627 4 2 3 1 114 116 117 308
628 4 2 3 1 258 181 71 190
629 4 2 3 1 123 322 114 329
630 4 2 3 1 304 322 313 329
631 4 2 3 1 207 303 218 339
632 4 2 3 1 149 141 302 338
633 4 2 3 1 122 130 131 333
634 4 2 3 1 103 122 19 143
635 4 2 3 1 122 154 19 143
636 4 2 3 1 101 124 303 329
637 4 2 3 1 182 193 185 316
638 4 2 3 1 115 308 114 314
639 4 2 3 1 157 155 153 326
640 4 2 3 1 256 310 273 315
641 4 2 3 1 232 240 324 334
642 4 2 3 1 181 263 197 305
643 4 2 3 1 135 101 124 332
644 4 2 3 1 295 312 303 339
645 4 2 3 1 170 26 57 332
646 4 2 3 1 178 215 188 306
647 4 2 3 1 298 321 317 343
648 4 2 3 1 237 224 227 317
649 4 2 3 1 283 99 321 337
650 4 2 3 1 296 311 313 322
651 4 2 3 1 237 239 224 317
652 4 2 3 1 209 219 306 319
653 4 2 3 1 295 319 306 336
654 4 2 3 1 239 237 228 321
655 4 2 3 1 80 205 208 328
656 4 2 3 1 225 228 237 321
657 4 2 3 1 312 313 303 328
658 4 2 3 1 294 274 265 311
659 4 2 3 1 182 316 185 324
660 4 2 3 1 129 317 37 338
661 4 2 3 1 149 158 141 338
662 4 2 3 1 202 323 142 327
663 4 2 3 1 158 105 139 338
664 4 2 3 1 141 149 302 337
665 4 2 3 1 136 127 324 335
666 4 2 3 1 296 308 304 318
667 4 2 3 1 220 208 217 328
668 4 2 3 1 288 273 310 334
669 4 2 3 1 155 153 326 340
670 4 2 3 1 164 23 54 319
671 4 2 3 1 119 134 307 335
672 4 2 3 1 145 333 105 338
673 4 2 3 1 168 54 23 319
674 4 2 3 1 194 198 187 320
675 4 2 3 1 102 119 307 314
676 4 2 3 1 299 334 324 335
677 4 2 3 1 167 27 151 58
678 4 2 3 1 141 222 236 337
679 4 2 3 1 295 313 311 322
680 4 2 3 1 302 330 149 333
681 4 2 3 1 228 231 239 321
682 4 2 3 1 103 143 161 309
683 4 2 3 1 156 149 330 333
684 4 2 3 1 146 326 282 327
685 4 2 3 1 317 321 302 343
686 4 2 3 1 229 224 239 317
687 4 2 3 1 202 213 142 323
688 4 2 3 1 149 293 160 337
689 4 2 3 1 115 114 113 314
690 4 2 3 1 107 323 26 332
691 4 2 3 1 125 103 128 309
692 4 2 3 1 308 318 298 343
693 4 2 3 1 152 146 159 327
694 4 2 3 1 274 266 311 313
695 4 2 3 1 233 222 141 338
696 4 2 3 1 145 105 158 338
697 4 2 3 1 152 157 146 326
698 4 2 3 1 37 129 133 317
699 4 2 3 1 297 304 308 318
700 4 2 3 1 297 318 308 343
701 4 2 3 1 175 162 38 338
702 4 2 3 1 190 70 258 325
703 4 2 3 1 256 273 269 315
704 4 2 3 1 61 223 307 335
705 4 2 3 1 148 251 100 337
706 4 2 3 1 38 64 175 338
707 4 2 3 1 283 99 287 321
708 4 2 3 1 306 320 295 325
709 4 2 3 1 303 313 295 322
710 4 2 3 1 31 109 191 316
711 4 2 3 1 263 275 260 305
712 4 2 3 1 251 88 100 337
713 4 2 3 1 118 317 129 343
714 4 2 3 1 121 314 113 331
715 4 2 3 1 110 316 121 331
716 4 2 3 1 212 209 219 306
717 4 2 3 1 277 255 278 313
718 4 2 3 1 31 106 109 316
719 4 2 3 1 291 159 282 327
720 4 2 3 1 226 85 310 334
721 4 2 3 1 109 121 110 316
722 4 2 3 1 184 324 185 341
723 4 2 3 1 131 129 333 343
724 4 2 3 1 275 260 305 341
725 4 2 3 1 212 306 219 336
726 4 2 3 1 313 322 303 329
727 4 2 3 1 230 324 240 335
728 4 2 3 1 232 240 230 324
729 4 2 3 1 53 22 164 342
730 4 2 3 1 201 306 178 342
731 4 2 3 1 215 201 212 306
732 4 2 3 1 106 127 121 316
733 4 2 3 1 123 101 120 322
734 4 2 3 1 137 151 213 323
735 4 2 3 1 184 290 95 235
736 4 2 3 1 187 320 198 342
737 4 2 3 1 102 133 118 317
738 4 2 3 1 256 272 287 321
739 4 2 3 1 289 261 278 328
740 4 2 3 1 195 189 136 324
741 4 2 3 1 160 330 149 337
742 4 2 3 1 112 120 111 322
743 4 2 3 1 290 281 334 341
744 4 2 3 1 241 82 94 327
745 4 2 3 1 193 192 181 305
746 4 2 3 1 179 185 184 324
747 4 2 3 1 289 255 92 328
748 4 2 3 1 306 320 187 342
749 4 2 3 1 102 115 119 314
750 4 2 3 1 284 326 257 340
751 4 2 3 1 275 263 264 305
752 4 2 3 1 122 20 154 333
753 4 2 3 1 70 280 258 325
754 4 2 3 1 117 123 114 329
755 4 2 3 1 148 293 149 337
756 4 2 3 1 151 142 213 323
757 4 2 3 1 143 155 157 309
758 4 2 3 1 316 324 299 341
759 4 2 3 1 193 305 197 341
760 4 2 3 1 22 53 165 342
761 4 2 3 1 137 161 152 323
762 4 2 3 1 295 303 312 313
763 4 2 3 1 190 183 70 325
764 4 2 3 1 208 205 217 328
765 4 2 3 1 216 202 142 327
766 4 2 3 1 28 198 138 342
767 4 2 3 1 282 44 257 326
768 4 2 3 1 212 201 209 306
769 4 2 3 1 255 274 312 313
770 4 2 3 1 141 236 148 337
771 4 2 3 1 283 330 259 337
772 4 2 3 1 129 118 133 317
773 4 2 3 1 287 272 283 321
774 4 2 3 1 146 282 159 327
775 4 2 3 1 153 257 44 326
776 4 2 3 1 31 191 182 316
777 4 2 3 1 122 105 20 333
778 4 2 3 1 201 178 214 342
779 4 2 3 1 106 31 182 316
780 4 2 3 1 128 161 17 137
781 4 2 3 1 156 145 149 333
782 4 2 3 1 209 306 201 342
783 4 2 3 1 121 119 113 314
784 4 2 3 1 257 284 279 326
785 4 2 3 1 140 319 108 320
786 4 2 3 1 293 160 259 47
787 4 2 3 1 193 181 197 305
788 4 2 3 1 105 333 129 338
789 4 2 3 1 234 179 221 324
790 4 2 3 1 108 320 319 342
791 4 2 3 1 294 265 280 325
792 4 2 3 1 209 319 306 342
793 4 2 3 1 144 155 156 340
794 4 2 3 1 178 188 196 306
795 4 2 3 1 288 281 273 334
796 4 2 3 1 119 127 134 335
797 4 2 3 1 61 223 227 307
798 4 2 3 1 101 123 124 329
799 4 2 3 1 143 157 161 309
800 4 2 3 1 184 185 290 341
801 4 2 3 1 137 152 151 323
802 4 2 3 1 149 330 302 337
803 4 2 3 1 297 330 302 333
804 4 2 3 1 70 183 280 325
805 4 2 3 1 114 115 116 308
806 4 2 3 1 144 156 330 340
807 4 2 3 1 305 316 299 341
808 4 2 3 1 273 275 267 315
809 4 2 3 1 302 297 333 343
810 4 2 3 1 225 226 85 310
811 4 2 3 1 306 319 295 320
812 4 2 3 1 111 126 104 320
813 4 2 3 1 57 210 204 332
814 4 2 3 1 291 159 43 282
815 4 2 3 1 282 146 44 326
816 4 2 3 1 131 118 129 343
817 4 2 3 1 300 329 303 332
818 4 2 3 1 145 154 20 333
819 4 2 3 1 125 130 103 309
820 4 2 3 1 21 139 158 105
821 4 2 3 1 123 112 114 322
822 4 2 3 1 221 232 230 324
823 4 2 3 1 126 320 108 342
824 4 2 3 1 255 289 278 328
825 4 2 3 1 146 153 44 326
826 4 2 3 1 136 33 127 335
827 4 2 3 1 141 150 233 338
828 4 2 3 1 290 281 95 334
829 4 2 3 1 187 183 194 325
830 4 2 3 1 274 277 266 313
831 4 2 3 1 144 160 276 330
832 4 2 3 1 142 323 152 327
833 4 2 3 1 138 28 126 198
834 4 2 3 1 234 189 179 324
835 4 2 3 1 276 285 284 340
836 4 2 3 1 145 20 105 333
837 4 2 3 1 216 94 82 327
838 4 2 3 1 257 153 45 340
839 4 2 3 1 303 328 300 332
840 4 2 3 1 182 32 106 136
841 4 2 3 1 265 266 264 311
842 4 2 3 1 210 58 213 323
843 4 2 3 1 276 330 285 340
844 4 2 3 1 246 90 78 336
845 4 2 3 1 259 276 160 330
846 4 2 3 1 276 144 330 340
847 4 2 3 1 259 283 285 330
848 4 2 3 1 255 277 274 313
849 4 2 3 1 210 220 204 332
850 4 2 3 1 274 266 265 311
851 4 2 3 1 214 178 186 342
852 4 2 3 1 147 94 216 327
853 4 2 3 1 153 144 45 340
854 4 2 3 1 324 334 299 341
855 4 2 3 1 131 129 105 333
856 4 2 3 1 107 135 124 332
857 4 2 3 1 227 61 173 62
858 4 2 3 1 159 142 152 327
859 4 2 3 1 216 142 147 327
860 4 2 3 1 213 202 210 323
861 4 2 3 1 149 160 293 47
862 4 2 3 1 319 320 306 342
863 4 2 3 1 137 161 17 152
864 4 2 3 1 32 182 195 136
865 4 2 3 1 260 263 197 72
866 4 2 3 1 119 134 102 307
867 4 2 3 1 159 146 43 282
868 4 2 3 1 276 257 45 340
869 4 2 3 1 153 257 326 340
870 4 2 3 1 265 258 280 325
871 4 2 3 1 273 256 288 310
872 4 2 3 1 78 90 243 336
873 4 2 3 1 73 260 290 341
874 4 2 3 1 281 260 275 341
875 4 2 3 1 73 197 260 341
876 4 2 3 1 124 117 125 329
877 4 2 3 1 35 102 134 307
878 4 2 3 1 79 206 205 312
879 4 2 3 1 140 108 126 320
880 4 2 3 1 24 55 168 339
881 4 2 3 1 191 193 182 316
882 4 2 3 1 135 107 26 332
883 4 2 3 1 60 176 34 335
884 4 2 3 1 145 21 158 105
885 4 2 3 1 223 238 227 307
886 4 2 3 1 276 45 144 340
887 4 2 3 1 234 221 230 324
888 4 2 3 1 120 101 132 339
889 4 2 3 1 253 84 96 334
890 4 2 3 1 181 197 263 72
891 4 2 3 1 236 222 141 50
892 4 2 3 1 76 179 235 221
893 4 2 3 1 46 259 276 160
894 4 2 3 1 100 88 250 337
895 4 2 3 1 112 110 113 331
896 4 2 3 1 161 18 103 128
897 4 2 3 1 97 288 256 310
898 4 2 3 1 293 148 149 47
899 4 2 3 1 151 137 17 152
900 4 2 3 1 145 156 154 333
901 4 2 3 1 226 225 238 310
902 4 2 3 1 126 29 104 198
903 4 2 3 1 34 171 60 335
904 4 2 3 1 147 291 94 327
905 4 2 3 1 96 84 248 334
906 4 2 3 1 64 38 174 338
907 4 2 3 1 138 186 28 342
908 4 2 3 1 201 66 214 178
909 4 2 3 1 213 40 202 142
910 4 2 3 1 50 141 236 148
911 4 2 3 1 235 184 179 76
912 4 2 3 1 255 274 286 312
913 4 2 3 1 38 162 139 338
914 4 2 3 1 162 233 150 338
915 4 2 3 1 293 148 100 337
916 4 2 3 1 190 194 183 325
917 4 2 3 1 269 268 270 318
918 4 2 3 1 73 290 184 185
919 4 2 3 1 182 185 195 324
920 4 2 3 1 40 213 151 142
921 4 2 3 1 186 214 66 178
922 4 2 3 1 73 290 185 341
923 4 2 3 1 116 118 131 343
924 4 2 3 1 291 282 261 327
925 4 2 3 1 138 126 108 342
926 4 2 3 1 202 41 216 142
927 4 2 3 1 215 67 201 178
928 4 2 3 1 24 169 55 339
929 4 2 3 1 160 276 46 144
930 4 2 3 1 143 18 103 161
931 4 2 3 1 28 187 198 342
932 4 2 3 1 128 137 107 323
933 4 2 3 1 272 269 270 318
934 4 2 3 1 141 158 150 338
935 4 2 3 1 234 179 75 221
936 4 2 3 1 141 233 49 222
937 4 2 3 1 293 283 259 337
938 4 2 3 1 29 104 198 180
939 4 2 3 1 144 156 160 330
940 4 2 3 1 209 201 214 342
941 4 2 3 1 203 209 54 319
942 4 2 3 1 139 105 129 338
943 4 2 3 1 73 185 197 341
944 4 2 3 1 108 140 132 319
945 4 2 3 1 216 211 202 327
946 4 2 3 1 231 236 222 337
947 4 2 3 1 137 27 107 323
948 4 2 3 1 155 144 153 340
949 4 2 3 1 141 148 149 337
950 4 2 3 1 150 139 162 338
951 4 2 3 1 178 306 187 342
952 4 2 3 1 205 206 218 312
953 4 2 3 1 229 222 233 338
954 4 2 3 1 150 158 139 338
955 4 2 3 1 82 211 216 327
956 4 2 3 1 269 273 267 315
957 4 2 3 1 157 153 146 326
958 4 2 3 1 186 187 28 342
959 4 2 3 1 108 132 23 319
960 4 2 3 1 110 121 113 331
961 4 2 3 1 282 257 279 326
962 4 2 3 1 179 189 195 324
963 4 2 3 1 106 121 109 316
964 4 2 3 1 209 203 219 319
965 4 2 3 1 159 291 147 327
966 4 2 3 1 294 262 286 336
967 4 2 3 1 214 53 209 342
968 4 2 3 1 30 31 109 191
969 4 2 3 1 152 142 151 323
970 4 2 3 1 115 113 119 314
971 4 2 3 1 142 41 216 147
972 4 2 3 1 215 67 178 188
973 4 2 3 1 255 286 91 312
974 4 2 3 1 185 193 197 341
975 4 2 3 1 70 280 183 69
976 4 2 3 1 72 263 181 71
977 4 2 3 1 233 49 150 141
978 4 2 3 1 234 75 179 189
979 4 2 3 1 276 284 257 340
980 4 2 3 1 156 149 160 330
981 4 2 3 1 290 260 281 341
982 4 2 3 1 259 285 276 330
983 4 2 3 1 140 126 111 320
984 4 2 3 1 131 105 122 333
985 4 2 3 1 153 44 257 45
986 4 2 3 1 187 178 196 306
987 4 2 3 1 159 147 142 327
988 4 2 3 1 154 19 20 122
989 4 2 3 1 19 18 103 143
990 4 2 3 1 22 138 108 342
991 4 2 3 1 71 70 258 190
992 4 2 3 1 94 291 261 327
993 4 2 3 1 31 32 106 182
994 4 2 3 1 212 219 206 336
995 4 2 3 1 212 206 78 336
996 4 2 3 1 45 46 276 144
997 4 2 3 1 55 207 203 339
998 4 2 3 1 203 207 218 339
999 4 2 3 1 231 88 236 337
1000 4 2 3 1 123 120 112 322
1001 4 2 3 1 104 29 30 180
1002 4 2 3 1 123 117 124 329
1003 4 2 3 1 226 232 84 334
1004 4 2 3 1 230 223 60 335
1005 4 2 3 1 223 230 240 335
1006 4 2 3 1 240 232 226 334
1007 4 2 3 1 233 64 229 338
1008 4 2 3 1 44 43 146 282
1009 4 2 3 1 76 75 179 221
1010 4 2 3 1 49 141 222 50
1011 4 2 3 1 201 67 66 178
1012 4 2 3 1 202 40 41 142
1013 4 2 3 1 90 286 262 336
1014 4 2 3 1 69 292 196 188
1015 4 2 3 1 189 32 195 136
1016 4 2 3 1 43 147 159 291
1017 4 2 3 1 21 139 150 158
1018 4 2 3 1 145 20 21 105
1019 4 2 3 1 186 178 187 342
1020 4 2 3 1 132 101 24 339
1021 4 2 3 1 195 185 179 324
1022 4 2 3 1 283 293 100 337
1023 4 2 3 1 34 134 127 335
1024 4 2 3 1 96 281 288 334
1025 4 2 3 1 139 129 38 338
1026 4 2 3 1 126 28 29 198
1027 4 2 3 1 189 199 32 136
1028 4 2 3 1 163 147 43 291
1029 4 2 3 1 188 69 292 200
1030 4 2 3 1 150 139 21 162
1031 4 2 3 1 260 197 73 72
1032 4 2 3 1 9 8 148 251
1033 4 2 3 1 11 3 165 186
1034 4 2 3 1 151 5 1 167
1035 4 2 3 1 8 9 48 251
1036 4 2 3 1 11 3 52 165
1037 4 2 3 1 1 5 39 167
1038 4 2 3 1 249 16 15 184
1039 4 2 3 1 213 151 5 40
1040 4 2 3 1 11 186 214 66
1041 4 2 3 1 50 236 9 148
1042 4 2 3 1 16 184 235 76
1043 4 2 3 1 249 15 16 74
1044 4 2 3 1 17 18 161 128
1045 4 2 3 1 46 259 160 47
1046 4 2 3 1 15 73 290 184
1047 4 2 3 1 199 4 32 136
1048 4 2 3 1 137 17 1 151
1049 4 2 3 1 8 148 293 47
1050 4 2 3 1 186 28 3 138
1051 4 2 3 1 7 163 43 291
1052 4 2 3 1 139 2 21 162
1053 4 2 3 1 69 14 292 200
1054 4 2 3 1 189 12 234 75
1055 4 2 3 1 10 150 233 49
1056 4 2 3 1 6 147 216 41
1057 4 2 3 1 188 13 215 67
1058 4 2 3 1 10 150 162 233
1059 4 2 3 1 10 51 175 162
1060 4 2 3 1 42 242 6 163
1061 4 2 3 1 13 200 244 68
1062 4 2 3 1 65 199 12 172
1063 4 2 3 1 175 51 2 162
1064 4 2 3 1 7 242 42 163
1065 4 2 3 1 244 200 14 68
1066 4 2 3 1 4 199 65 172
1067 4 2 3 1 315 264 275 267
1068 4 2 3 1 315 275 264 305
1069 4 2 3 1 318 284 285 297
1070 4 2 3 1 318 285 284 270
1071 4 2 3 1 325 192 305 190
1072 4 2 3 1 325 305 192 301
1073 4 2 3 1 292 77 188 89
1074 4 2 3 1 292 188 77 215
1075 4 2 3 1 77 292 336 89
1076 4 2 3 1 77 336 292 306
1077 4 2 3 1 95 235 334 83
1078 4 2 3 1 334 235 95 290
1079 4 2 3 1 335 119 121 299
1080 4 2 3 1 121 119 335 127
1081 4 2 3 1 121 316 335 299
1082 4 2 3 1 335 316 121 127
1083 4 2 3 1 325 264 265 258
1084 4 2 3 1 325 265 264 311
1085 4 2 3 1 337 88 148 251
1086 4 2 3 1 337 148 88 236
1087 4 2 3 1 9 148 88 251
1088 4 2 3 1 9 88 148 236
1089 4 2 3 1 271 318 284 270
1090 4 2 3 1 284 318 271 304
1091 4 2 3 1 59 324 136 234
1092 4 2 3 1 136 189 59 234
1093 4 2 3 1 59 189 136 33
1094 4 2 3 1 25 26 332 135
1095 4 2 3 1 25 332 26 170
1096 4 2 3 1 337 338 229 302
1097 4 2 3 1 229 338 337 222
1098 4 2 3 1 229 231 337 302
1099 4 2 3 1 337 231 229 222
1100 4 2 3 1 318 314 296 308
1101 4 2 3 1 318 296 314 315
1102 4 2 3 1 92 93 328 247
1103 4 2 3 1 328 93 92 289
1104 4 2 3 1 10 64 162 175
1105 4 2 3 1 10 162 64 233
1106 4 2 3 1 338 162 64 175
1107 4 2 3 1 338 64 162 233
1108 4 2 3 1 58 5 151 167
1109 4 2 3 1 151 5 58 213
1110 4 2 3 1 11 53 186 165
1111 4 2 3 1 11 186 53 214
1112 4 2 3 1 342 186 53 165
1113 4 2 3 1 342 53 186 214
1114 4 2 3 1 343 115 116 118
1115 4 2 3 1 343 116 115 308
1116 4 2 3 1 99 98 321 254
1117 4 2 3 1 321 98 99 287
1118 4 2 3 1 37 36 317 133
1119 4 2 3 1 317 36 37 177
1120 4 2 3 1 327 210 220 211
1121 4 2 3 1 327 220 210 323
1122 4 2 3 1 338 149 333 302
1123 4 2 3 1 182 136 324 195
1124 4 2 3 1 324 136 182 106
1125 4 2 3 1 97 310 334 288
1126 4 2 3 1 334 310 97 253
1127 4 2 3 1 334 96 97 288
1128 4 2 3 1 97 96 334 253
1129 4 2 3 1 22 23 342 108
1130 4 2 3 1 22 342 23 164
1131 4 2 3 1 319 342 23 108
1132 4 2 3 1 319 23 342 164
1133 4 2 3 1 196 280 69 183
1134 4 2 3 1 69 280 196 292
1135 4 2 3 1 34 35 335 176
1136 4 2 3 1 34 335 35 134
1137 4 2 3 1 307 35 335 134
1138 4 2 3 1 89 90 336 243
1139 4 2 3 1 336 90 89 262
1140 4 2 3 1 162 38 2 175
1141 4 2 3 1 162 2 38 139
1142 4 2 3 1 338 145 149 158
1143 4 2 3 1 338 149 145 333
1144 4 2 3 1 325 196 187 183
1145 4 2 3 1 325 187 196 306
1146 4 2 3 1 188 89 200 292
1147 4 2 3 1 14 200 89 292
1148 4 2 3 1 14 89 200 244
1149 4 2 3 1 22 3 342 165
1150 4 2 3 1 22 342 3 138
1151 4 2 3 1 186 342 3 165
1152 4 2 3 1 186 3 342 138
1153 4 2 3 1 58 151 137 27
1154 4 2 3 1 137 151 58 213
1155 4 2 3 1 137 323 58 27
1156 4 2 3 1 58 323 137 213
1157 4 2 3 1 24 23 339 168
1158 4 2 3 1 24 339 23 132
1159 4 2 3 1 319 339 23 168
1160 4 2 3 1 319 23 339 132
1161 4 2 3 1 90 91 336 246
1162 4 2 3 1 90 336 91 286
1163 4 2 3 1 312 91 336 286
1164 4 2 3 1 16 235 249 83
1165 4 2 3 1 16 249 235 184
1166 4 2 3 1 95 249 235 83
1167 4 2 3 1 95 235 249 184
1168 4 2 3 1 100 8 148 293
1169 4 2 3 1 100 148 8 251
1170 4 2 3 1 79 312 336 206
1171 4 2 3 1 336 78 79 206
1172 4 2 3 1 79 78 336 246
1173 4 2 3 1 81 80 328 247
1174 4 2 3 1 81 328 80 208
1175 4 2 3 1 55 56 339 169
1176 4 2 3 1 339 56 55 207
1177 4 2 3 1 79 80 312 205
1178 4 2 3 1 312 80 79 245
1179 4 2 3 1 86 85 310 225
1180 4 2 3 1 86 310 85 252
1181 4 2 3 1 86 87 321 254
1182 4 2 3 1 86 321 87 228
1183 4 2 3 1 319 54 339 168
1184 4 2 3 1 319 339 54 203
1185 4 2 3 1 55 339 54 168
1186 4 2 3 1 55 54 339 203
1187 4 2 3 1 62 63 317 224
1188 4 2 3 1 317 63 62 177
1189 4 2 3 1 61 60 335 176
1190 4 2 3 1 335 60 61 223
1191 4 2 3 1 147 163 94 291
1192 4 2 3 1 7 163 94 242
1193 4 2 3 1 7 94 163 291
1194 4 2 3 1 27 1 151 137
1195 4 2 3 1 27 151 1 167
1196 4 2 3 1 85 84 334 226
1197 4 2 3 1 334 84 85 253
1198 4 2 3 1 56 57 332 170
1199 4 2 3 1 56 332 57 204
1200 4 2 3 1 82 81 327 241
1201 4 2 3 1 82 327 81 211
1202 4 2 3 1 78 77 336 243
1203 4 2 3 1 336 77 78 212
1204 4 2 3 1 87 88 337 250
1205 4 2 3 1 87 337 88 231
1206 4 2 3 1 83 84 334 248
1207 4 2 3 1 83 334 84 232
1208 4 2 3 1 57 58 323 166
1209 4 2 3 1 323 58 57 210
1210 4 2 3 1 53 54 319 164
1211 4 2 3 1 319 54 53 209
1212 4 2 3 1 319 342 53 164
1213 4 2 3 1 53 342 319 209
1214 4 2 3 1 64 63 338 174
1215 4 2 3 1 64 338 63 229
1216 4 2 3 1 59 60 335 230
1217 4 2 3 1 335 60 59 171
1218 4 2 3 1 96 95 334 248
1219 4 2 3 1 96 334 95 281
1220 4 2 3 1 34 33 335 127
1221 4 2 3 1 34 335 33 171
1222 4 2 3 1 27 26 323 166
1223 4 2 3 1 27 323 26 107
1224 4 2 3 1 94 93 327 261
1225 4 2 3 1 94 327 93 241
1226 4 2 3 1 97 98 310 256
1227 4 2 3 1 310 98 97 252
1228 4 2 3 1 35 36 307 173
1229 4 2 3 1 35 307 36 102
1230 4 2 3 1 37 38 338 174
1231 4 2 3 1 37 338 38 129
1232 4 2 3 1 99 100 337 283
1233 4 2 3 1 99 337 100 250
1234 4 2 3 1 25 24 339 169
1235 4 2 3 1 25 339 24 101
1236 4 2 3 1 92 91 312 255
1237 4 2 3 1 92 312 91 245
1238 4 2 3 1 15 95 184 290
1239 4 2 3 1 15 184 95 249
1240 4 2 3 1 4 33 199 172
1241 4 2 3 1 4 199 33 136
1242 4 2 3 1 189 33 199 136
1243 4 2 3 1 82 6 147 216
1244 4 2 3 1 147 94 82 216
1245 4 2 3 1 13 77 188 215
1246 4 2 3 1 59 189 12 234
1247 4 2 3 1 136 59 335 324
1248 4 2 3 1 335 59 136 33
1249 4 2 3 1 89 200 77 188
1250 4 2 3 1 89 77 200 244
1251 4 2 3 1 13 77 200 188
1252 4 2 3 1 13 200 77 244
1253 4 2 3 1 94 163 82 242
1254 4 2 3 1 94 82 163 147
1255 4 2 3 1 6 82 163 242
1256 4 2 3 1 6 163 82 147
1257 4 2 3 1 199 33 59 172
1258 4 2 3 1 59 33 199 189
1259 4 2 3 1 59 12 199 172
1260 4 2 3 1 199 12 59 189
1261 4 2 3 1 35 335 61 307
1262 4 2 3 1 35 61 335 176
1263 4 2 3 1 91 336 79 312
1264 4 2 3 1 91 79 336 246
$EndElements
