$MeshFormat
2.2 0 8
$EndMeshFormat
$PhysicalNames
3
2 1 "Fixed"
2 2 "Load"
3 3 "Volume"
$EndPhysicalNames
$Nodes
389
1 0 -38 80
2 1.028425871376e-35 -49.5 80
3 100 -49.5 80
4 100 -38 80
5 92 -38 80
6 92 -28 80
7 86 -28 80
8 86 -38 80
9 76 -38 80
10 35.372727272727 49.2 80
11 25 49.2 80
12 25 -38 80
13 1.665334536938e-16 -49.5 -80
14 0 -38 -80
15 0.5 -50 79.5
16 99.5 -50 79.5
17 25 -38 -80
18 100 -38 -80
19 100 -49.5 -80
20 25 49.2 -80
21 92 -38 -80
22 34.2 50 79.2
23 35.337857188922 49.274843106705 79.925156893295
24 25.8 50 79.2
25 92 -28 -80
26 35.337857188922 49.274843106705 -79.92515689328999
27 35.372727272727 49.2 -80
28 76 -38 -80
29 86 -28 -80
30 86 -38 -80
31 0.5 -50 -79.5
32 99.5 -50 -79.5
33 25.8 50 -79.2
34 34.2 50 -79.2
35 19.99999999999999 -49.5 80
36 40.00000000000003 -49.5 80
37 59.99999999999998 -49.5 80
38 79.9999999999999 -49.5 80
39 67.87454545454598 -20.55999999999972 80
40 59.74909090909195 -3.119999999999415 80
41 51.62363636363791 14.3200000000009 80
42 43.49818181818388 31.7600000000012 80
43 25 31.76000000000001 80
44 25 14.32000000000001 80
45 25 -3.11999999999999 80
46 25 -20.55999999999999 80
47 12.5 -38 80
48 0 -49.5 59.99999999999999
49 0 -49.5 39.99999999999999
50 0 -49.5 20
51 0 -49.5 0
52 0 -49.5 -20
53 0 -49.5 -40
54 0 -49.5 -60
55 0 -38 59.99999999999999
56 0 -38 39.99999999999999
57 0 -38 20
58 0 -38 0
59 0 -38 -20
60 0 -38 -40
61 0 -38 -60
62 20.29999999999996 -50 79.5
63 40.09999999999997 -50 79.5
64 59.89999999999998 -50 79.5
65 79.69999999999999 -50 79.5
66 25 -38 59.99999999999999
67 25 -38 39.99999999999999
68 25 -38 20
69 25 -38 0
70 25 -38 -20
71 25 -38 -40
72 25 -38 -60
73 12.5 -38 -80
74 100 -38 -59.99999999999999
75 100 -38 -39.99999999999999
76 100 -38 -20
77 100 -38 0
78 100 -38 20
79 100 -38 40
80 100 -38 60
81 100 -49.5 -59.99999999999999
82 100 -49.5 -39.99999999999999
83 100 -49.5 -20
84 100 -49.5 0
85 100 -49.5 20
86 100 -49.5 40
87 100 -49.5 60
88 25 31.76000000000001 -80
89 25 14.32000000000001 -80
90 25 -3.11999999999999 -80
91 25 -20.55999999999999 -80
92 25 49.2 -59.99999999999999
93 25 49.2 -39.99999999999999
94 25 49.2 -20
95 25 49.2 0
96 25 49.2 20
97 25 49.2 40
98 25 49.2 60
99 92 -38 -59.99999999999999
100 92 -38 -39.99999999999999
101 92 -38 -20
102 92 -38 0
103 92 -38 20
104 92 -38 40
105 92 -38 60
106 92 -28 -59.99999999999999
107 92 -28 -39.99999999999999
108 92 -28 -20
109 92 -28 0
110 92 -28 20
111 92 -28 40
112 92 -28 60
113 35.337857188922 49.274843106705 -59.94386766996685
114 35.337857188922 49.274843106705 -39.9625784466437
115 35.337857188922 49.274843106705 -19.98128922332052
116 35.337857188922 49.274843106705 2.657429831742775e-12
117 35.337857188922 49.274843106705 19.98128922332576
118 35.337857188922 49.274843106705 39.96257844664886
119 35.337857188922 49.274843106705 59.94386766997195
120 67.87454545454598 -20.55999999999972 -80
121 59.74909090909195 -3.119999999999415 -80
122 51.62363636363791 14.3200000000009 -80
123 43.49818181818388 31.7600000000012 -80
124 76 -38 -59.99999999999999
125 76 -38 -39.99999999999999
126 76 -38 -20
127 76 -38 0
128 76 -38 20
129 76 -38 40
130 76 -38 60
131 86 -28 -59.99999999999999
132 86 -28 -39.99999999999999
133 86 -28 -20
134 86 -28 0
135 86 -28 20
136 86 -28 40
137 86 -28 60
138 86 -38 -59.99999999999999
139 86 -38 -39.99999999999999
140 86 -38 -20
141 86 -38 0
142 86 -38 20
143 86 -38 40
144 86 -38 60
145 0.5 -50 59.62499999999997
146 0.5 -50 39.74999999999996
147 0.5 -50 19.87499999999989
148 0.5 -50 -2.131628207280301e-13
149 0.5 -50 -19.87500000000018
150 0.5 -50 -39.75000000000011
151 0.5 -50 -59.62500000000006
152 19.99999999999999 -49.5 -80
153 40.00000000000003 -49.5 -80
154 59.99999999999998 -49.5 -80
155 79.9999999999999 -49.5 -80
156 99.5 -50 -59.62499999999997
157 99.5 -50 -39.74999999999996
158 99.5 -50 -19.87499999999989
159 99.5 -50 2.131628207280301e-13
160 99.5 -50 19.87500000000018
161 99.5 -50 39.75000000000011
162 99.5 -50 59.62500000000006
163 20.29999999999996 -50 -79.5
164 40.09999999999997 -50 -79.5
165 59.89999999999998 -50 -79.5
166 79.69999999999999 -50 -79.5
167 25.8 50 -59.40000000000003
168 25.8 50 -39.60000000000009
169 25.8 50 -19.80000000000008
170 25.8 50 -7.105427357601002e-14
171 25.8 50 19.79999999999994
172 25.8 50 39.59999999999995
173 25.8 50 59.39999999999998
174 34.2 50 -59.40000000000003
175 34.2 50 -39.60000000000009
176 34.2 50 -19.80000000000008
177 34.2 50 -7.105427357601002e-14
178 34.2 50 19.79999999999994
179 34.2 50 39.59999999999995
180 34.2 50 59.39999999999998
181 43.29084102165555 -32.24654072907017 80
182 40.39714685234726 -12.36953486193185 80
183 89 -33 80
184 89.41601417538877 -43.70618130889849 80
185 60.18489579271846 -32.98807983212777 80
186 39.92407122731278 4.88851556613016 80
187 53.56690976043667 -20.7667513779207 80
188 95.35400354384718 -42.30154532722462 80
189 37.38405560769105 19.35627869468844 80
190 82.67869652759518 -42.88221921759182 80
191 8.125000000000007 -43.75 80
192 0 -43.75 70
193 0 -43.75 10
194 0 -43.75 -10
195 0 -43.75 -70
196 0 -43.75 49.99999999999999
197 0 -43.75 -30
198 0 -43.75 -50
199 0 -43.75 30
200 12.5 -38 29.99999999999999
201 12.5 -38 49.99999999999999
202 12.5 -38 10
203 12.5 -38 -10
204 12.5 -38 -30
205 12.5 -38 -50
206 12.5 -38 67.69345238095238
207 12.5 -38 -67.69345238095238
208 100 -43.75 -70
209 100 -43.75 -10
210 100 -43.75 10
211 100 -43.75 70
212 100 -43.75 -49.99999999999999
213 100 -43.75 30
214 100 -43.75 50
215 100 -43.75 -30
216 25 5.599984288286862 65.25995973971519
217 25 5.600000000000009 -64.8965169579994
218 25 -20.70817257681863 10.02243379656611
219 25 31.49429675630022 -10.83950100043461
220 25 -20.76292907873987 -29.99837424996655
221 25 29.07852217248185 27.91512113692769
222 25 -20.13320203209712 50.79293839926538
223 25 31.37395290860851 -50.84043436470753
224 25 -20.63696843480938 30.0998187569473
225 25 -3.913771812690307 19.23494214853858
226 25 -4.136717714070109 0.7294295286554308
227 25 13.36960790290146 11.17663001564799
228 25 -0.9832833870782736 39.03443799912552
229 25 31.8223995920091 -30.27998922752369
230 25 13.90603030267555 -39.9416742232283
231 25 14.76228574603281 -20.98561472302481
232 25 -21.00220116688172 -9.874271463799793
233 25 31.87949192431123 50.00000000000001
234 25 -20.25546858913405 -50.83782816529314
235 25 -4.707348222798622 -38.19920182057797
236 25 17.06568036126588 39.23917839499597
237 25 -3.979951425030194 -19.75744348922594
238 25 -11.37592058813524 65.80606764049048
239 25 22.39700205891812 -66.10916036116539
240 25 -11.21059888603004 -66.10595638695179
241 25 22.48127154340344 66.02569064195833
242 25 30.57261127163836 7.202540691588903
243 25 10.92335104737612 27.32006193904715
244 25 11.7666879620407 -5.134705006544691
245 25 -25.61382452404646 67.31980120795117
246 25 36.78619099350533 -67.38991894517459
247 25 -25.60521349503283 -67.38875691044899
248 25 36.90415269354294 67.20513812839168
249 25 -2.505864030143329 54.9705246000988
250 25 14.02278240453427 -55.15084284307628
251 25 12.8581814838075 52.86094256052945
252 25 -1.774141572834232 -53.22947682421976
253 25 5.262425033806309 -30.02343534621173
254 96 -38 70
255 96 -38 -10
256 96 -38 10
257 96 -38 30
258 96 -38 50
259 96 -38 -30
260 92 -33 -70
261 92 -33 70
262 92 -33 -49.99999999999999
263 92 -33 -10
264 92 -33 10
265 92 -33 30
266 92 -33 50
267 92 -33 -30
268 55.6683658429031 5.638629410357844 -64.96876935337707
269 55.67016597212351 5.634765718372584 64.95234229357214
270 42.50442708869828 33.89293698036072 9.989262992570959
271 68.68891829529359 -22.30792219477522 -9.993238441040081
272 42.11629845879181 34.72599355186735 -29.14475445323535
273 68.65537087872804 -22.23591798361011 29.93416321855154
274 42.64583659965022 33.58942388368335 49.9532230583104
275 68.00362491873702 -20.83704860606832 -50.55077387771309
276 39.19415299723043 40.99791551814594 69.93451228163363
277 68.58226202404806 -22.07900141746772 -30.09045877604895
278 61.37609673563875 -6.612110066734303 -20.0169605378136
279 61.3783636732439 -6.616975688911211 -0.03284369609839999
280 54.0939012402779 9.017968069651218 -10.03230809870211
281 54.11268084254229 8.977660630644735 -29.64435640716195
282 54.08453044753335 9.038080990663929 9.882238457365291
283 60.5565675054875 -4.85312049958025 -38.58823727442224
284 61.3657754668186 -6.589957099510574 19.90746843163149
285 54.0626818399442 9.084975563050392 29.80198316261701
286 60.65294237299445 -5.059973873741534 38.43035662826681
287 67.89236679463319 -20.59825068116251 50.31287393589629
288 42.0838416687067 34.79565690619636 29.1359661480831
289 68.68140471901403 -22.29179549446786 9.96925825217409
290 42.64583659965025 33.5894238836833 -49.95322305830528
291 42.40437247518079 34.10768834595923 -9.979132353770028
292 47.32091951428109 23.55509957910898 65.39700188947209
293 52.67135250578455 12.07124340222256 48.1392215370308
294 47.36105143482906 23.46896277403038 -65.40993805577584
295 52.66968826550394 12.07481543014195 -48.15944451035576
296 63.56813262787346 -11.31696759153112 -65.84239913611572
297 63.55210087654758 -11.28255797892924 65.78732104992451
298 39.43545454545822 40.47999999999844 -69.93216005285224
299 48.33662602234314 21.37504658619513 -19.73208468361516
300 48.28933432183317 21.47655072387509 0.02672537390805492
301 48.29118719620261 21.47257382278942 19.75206684809651
302 70.18126631484623 -25.51101062698601 -66.26882127413998
303 70.18793833998149 -25.52533107117876 66.3913177706562
304 48.08970675848948 21.9050196403201 -35.21346308631695
305 48.06924948406336 21.94892793664933 35.22522789003204
306 59.98199795242077 -3.6198980442174 53.54257648893392
307 60.093275832101 -3.858738371335974 -53.62192483039678
308 81 -38 70
309 81 -38 -70
310 81 -38 -49.99999999999999
311 81 -38 -10
312 81 -38 10
313 81 -38 30
314 81 -38 50
315 81 -38 -30
316 86 -33 70
317 86 -33 -70
318 86 -33 -49.99999999999999
319 86 -33 -10
320 86 -33 10
321 86 -33 30
322 86 -33 50
323 86 -33 -30
324 43.29084102165555 -32.24654072907017 -80
325 40.39714685234726 -12.36953486193185 -80
326 89 -33 -80
327 89.41601417538877 -43.70618130889849 -80
328 60.18489579271846 -32.98807983212777 -80
329 39.92407122731278 4.888515566130156 -80
330 53.56690976043667 -20.7667513779207 -80
331 95.35400354384718 -42.30154532722462 -80
332 37.38405560769105 19.35627869468844 -80
333 82.67869652759518 -42.88221921759182 -80
334 8.125 -43.75 -80
335 49.04043862854189 -50 -63.37398908805691
336 49.04171933395752 -50 63.37453035854007
337 82.28834627415958 -50 9.936766055034251
338 17.71225490021567 -50 -9.937500000000199
339 82.27954768755191 -50 -29.80535917706541
340 16.81279100766307 -50 28.95080294510819
341 82.83608961265162 -50 49.57311010748231
342 19.52744595225985 -50 -48.32007081220777
343 82.38137645457144 -50 29.79331269375286
344 65.0958053247507 -50 19.87192941306322
345 65.08053007722251 -50 0.002108504027894457
346 47.87102220659866 -50 9.940280219796191
347 47.8690240121154 -50 -9.927245465150303
348 48.10819491150797 -50 31.35004935637939
349 66.9009832066382 -50 40.37889827389679
350 65.07428764607664 -50 -19.86553675369367
351 48.10327485065612 -50 -31.33803852856121
352 66.78132668726754 -50 -40.39501806904358
353 82.75933908418826 -50 -49.6347716323116
354 82.28711861416843 -50 -9.934503561949432
355 17.11761587920893 -50 -28.716605413267
356 17.70939233098034 -50 9.942458115355818
357 19.3978819971901 -50 48.20005313608284
358 68.2109569419201 -50 60.86355654741079
359 30.82067956324773 -50 -63.48258922396305
360 30.8054306156952 -50 63.46914685786894
361 68.18093518653056 -50 -60.87287464399957
362 38.88383680817681 -50 -48.30904502456291
363 38.85960553396901 -50 48.29147797441956
364 32.49253243188856 -50 19.12769628993679
365 32.78949000760729 -50 0.008034115669041487
366 32.54393994332098 -50 -19.07848258117589
367 84.94624006148349 -50 -64.92630141974205
368 15.04219577829589 -50 -64.9378219416222
369 84.95780422170411 -50 64.93782194162222
370 15.04219577829592 -50 64.93782194162215
371 31.55828849528542 -50 -34.71387908480474
372 31.66430412697403 -50 34.5745529873121
373 54.13920184423284 -50 -48.78004229884285
374 54.14010221848928 -50 48.78053515033407
375 30 50 69.29999999999998
376 30 50 49.49999999999996
377 30 50 -9.900000000000077
378 30 50 9.899999999999935
379 30 50 -29.70000000000008
380 30 50 -69.30000000000001
381 30 50 29.69999999999995
382 30 50 -49.50000000000006
383 46.72239693914378 -26.64277501441951 -0.01674811647909458
384 45.93943868327517 -23.77076295465482 -58.84164356186421
385 46.69981350981496 -28.22452811773345 42.28830656220303
386 46.6134992775965 -27.75474700120697 -23.59249460530514
387 44.28473831877142 -16.22719060854875 59.27020251784359
388 45.20787747910535 -21.50202197270963 21.35675578347553
389 43.25586014730962 -8.737895957982239 -10.02336346595397
$EndNodes
$Elements
1172
1 2 2 1 2 2 1 192
2 2 2 1 2 1 55 192
3 2 2 1 2 48 2 192
4 2 2 1 2 14 13 195
5 2 2 1 2 13 54 195
6 2 2 1 2 61 14 195
7 2 2 1 2 49 48 196
8 2 2 1 2 55 48 192
9 2 2 1 2 48 55 196
10 2 2 1 2 50 49 199
11 2 2 1 2 56 49 196
12 2 2 1 2 49 56 199
13 2 2 1 2 51 50 193
14 2 2 1 2 50 57 193
15 2 2 1 2 57 50 199
16 2 2 1 2 52 51 194
17 2 2 1 2 58 51 193
18 2 2 1 2 51 58 194
19 2 2 1 2 53 52 197
20 2 2 1 2 59 52 194
21 2 2 1 2 52 59 197
22 2 2 1 2 54 53 198
23 2 2 1 2 60 53 197
24 2 2 1 2 53 60 198
25 2 2 1 2 54 61 195
26 2 2 1 2 61 54 198
27 2 2 1 2 55 56 196
28 2 2 1 2 56 57 199
29 2 2 1 2 57 58 193
30 2 2 1 2 58 59 194
31 2 2 1 2 59 60 197
32 2 2 1 2 60 61 198
33 2 2 2 5 4 3 211
34 2 2 2 5 3 87 211
35 2 2 2 5 80 4 211
36 2 2 2 5 19 18 208
37 2 2 2 5 18 74 208
38 2 2 2 5 81 19 208
39 2 2 2 5 74 75 212
40 2 2 2 5 74 81 208
41 2 2 2 5 81 74 212
42 2 2 2 5 75 76 215
43 2 2 2 5 75 82 212
44 2 2 2 5 82 75 215
45 2 2 2 5 76 77 209
46 2 2 2 5 83 76 209
47 2 2 2 5 76 83 215
48 2 2 2 5 77 78 210
49 2 2 2 5 77 84 209
50 2 2 2 5 84 77 210
51 2 2 2 5 78 79 213
52 2 2 2 5 78 85 210
53 2 2 2 5 85 78 213
54 2 2 2 5 79 80 214
55 2 2 2 5 79 86 213
56 2 2 2 5 86 79 214
57 2 2 2 5 87 80 211
58 2 2 2 5 80 87 214
59 2 2 2 5 82 81 212
60 2 2 2 5 83 82 215
61 2 2 2 5 84 83 209
62 2 2 2 5 85 84 210
63 2 2 2 5 86 85 213
64 2 2 2 5 87 86 214
65 4 2 3 1 235 384 283 386
66 4 2 3 1 185 303 336 387
67 4 2 3 1 253 237 235 281
68 4 2 3 1 281 235 283 389
69 4 2 3 1 235 386 283 389
70 4 2 3 1 235 252 307 384
71 4 2 3 1 81 82 212 156
72 4 2 3 1 87 214 86 162
73 4 2 3 1 275 373 277 386
74 4 2 3 1 235 307 283 384
75 4 2 3 1 275 384 373 386
76 4 2 3 1 373 384 362 386
77 4 2 3 1 226 282 225 388
78 4 2 3 1 226 282 388 389
79 4 2 3 1 303 385 336 387
80 4 2 3 1 351 373 362 386
81 4 2 3 1 336 303 374 385
82 4 2 3 1 252 240 217 268
83 4 2 3 1 373 352 277 386
84 4 2 3 1 281 237 235 389
85 4 2 3 1 220 386 235 389
86 4 2 3 1 279 388 282 389
87 4 2 3 1 253 231 237 281
88 4 2 3 1 196 145 48 49
89 4 2 3 1 198 54 151 53
90 4 2 3 1 252 240 268 384
91 4 2 3 1 5 105 254 184
92 4 2 3 1 71 362 384 386
93 4 2 3 1 225 284 282 285
94 4 2 3 1 373 351 352 386
95 4 2 3 1 281 283 278 389
96 4 2 3 1 278 283 386 389
97 4 2 3 1 352 373 277 125
98 4 2 3 1 329 217 240 268
99 4 2 3 1 295 235 252 307
100 4 2 3 1 228 385 286 387
101 4 2 3 1 171 95 170 378
102 4 2 3 1 95 377 169 170
103 4 2 3 1 225 285 228 388
104 4 2 3 1 237 220 235 389
105 4 2 3 1 284 285 225 388
106 4 2 3 1 185 336 181 387
107 4 2 3 1 275 277 373 125
108 4 2 3 1 228 285 286 388
109 4 2 3 1 252 268 307 384
110 4 2 3 1 225 282 284 388
111 4 2 3 1 235 295 283 307
112 4 2 3 1 287 374 303 385
113 4 2 3 1 286 385 228 388
114 4 2 3 1 216 249 269 387
115 4 2 3 1 235 253 281 295
116 4 2 3 1 306 293 286 387
117 4 2 3 1 282 243 225 285
118 4 2 3 1 284 282 279 388
119 4 2 3 1 187 303 185 387
120 4 2 3 1 301 243 282 285
121 4 2 3 1 240 325 268 384
122 4 2 3 1 66 336 385 387
123 4 2 3 1 235 234 252 384
124 4 2 3 1 71 384 234 386
125 4 2 3 1 71 234 220 386
126 4 2 3 1 253 235 230 295
127 4 2 3 1 283 384 275 386
128 4 2 3 1 228 293 249 387
129 4 2 3 1 281 253 230 295
130 4 2 3 1 344 289 346 388
131 4 2 3 1 287 385 303 387
132 4 2 3 1 281 280 231 389
133 4 2 3 1 218 226 388 389
134 4 2 3 1 281 299 231 280
135 4 2 3 1 289 383 346 388
136 4 2 3 1 218 388 383 389
137 4 2 3 1 228 286 293 387
138 4 2 3 1 289 273 344 128
139 4 2 3 1 243 305 236 285
140 4 2 3 1 283 275 277 386
141 4 2 3 1 329 240 325 268
142 4 2 3 1 344 273 289 388
143 4 2 3 1 383 388 279 389
144 4 2 3 1 374 287 303 130
145 4 2 3 1 224 228 385 388
146 4 2 3 1 348 273 344 388
147 4 2 3 1 293 216 249 269
148 4 2 3 1 281 231 237 389
149 4 2 3 1 86 213 85 161
150 4 2 3 1 82 83 215 157
151 4 2 3 1 230 304 253 281
152 4 2 3 1 71 351 362 386
153 4 2 3 1 228 225 243 285
154 4 2 3 1 218 226 225 388
155 4 2 3 1 66 181 336 387
156 4 2 3 1 216 269 186 387
157 4 2 3 1 216 238 249 387
158 4 2 3 1 336 363 66 385
159 4 2 3 1 249 251 216 293
160 4 2 3 1 295 281 235 283
161 4 2 3 1 249 293 269 387
162 4 2 3 1 225 227 243 282
163 4 2 3 1 335 302 328 384
164 4 2 3 1 146 49 199 50
165 4 2 3 1 238 216 186 387
166 4 2 3 1 227 301 243 282
167 4 2 3 1 346 289 345 383
168 4 2 3 1 252 268 295 307
169 4 2 3 1 197 53 150 52
170 4 2 3 1 345 271 347 383
171 4 2 3 1 181 187 185 387
172 4 2 3 1 347 383 271 386
173 4 2 3 1 346 344 345 289
174 4 2 3 1 271 345 347 350
175 4 2 3 1 361 335 373 384
176 4 2 3 1 347 271 350 386
177 4 2 3 1 222 385 228 387
178 4 2 3 1 228 243 236 285
179 4 2 3 1 348 385 273 388
180 4 2 3 1 250 252 217 295
181 4 2 3 1 268 217 252 295
182 4 2 3 1 282 244 280 389
183 4 2 3 1 275 124 373 384
184 4 2 3 1 335 328 302 361
185 4 2 3 1 282 226 244 389
186 4 2 3 1 104 105 341 258
187 4 2 3 1 361 302 335 384
188 4 2 3 1 103 102 256 337
189 4 2 3 1 101 102 354 255
190 4 2 3 1 346 348 344 388
191 4 2 3 1 103 104 343 257
192 4 2 3 1 244 300 282 280
193 4 2 3 1 344 348 349 273
194 4 2 3 1 286 285 284 388
195 4 2 3 1 225 226 227 282
196 4 2 3 1 169 377 95 94
197 4 2 3 1 293 286 228 285
198 4 2 3 1 302 124 275 384
199 4 2 3 1 348 349 273 385
200 4 2 3 1 66 245 181 387
201 4 2 3 1 103 104 265 321
202 4 2 3 1 105 5 261 316
203 4 2 3 1 104 105 266 322
204 4 2 3 1 101 102 263 319
205 4 2 3 1 320 102 264 142
206 4 2 3 1 251 292 216 293
207 4 2 3 1 346 383 68 388
208 4 2 3 1 293 292 216 269
209 4 2 3 1 101 100 259 339
210 4 2 3 1 345 289 127 383
211 4 2 3 1 345 127 271 383
212 4 2 3 1 306 269 293 387
213 4 2 3 1 225 228 224 388
214 4 2 3 1 244 231 280 389
215 4 2 3 1 260 106 25 317
216 4 2 3 1 136 266 137 322
217 4 2 3 1 316 112 6 261
218 4 2 3 1 267 323 108 107
219 4 2 3 1 70 69 347 383
220 4 2 3 1 68 346 69 383
221 4 2 3 1 268 296 307 384
222 4 2 3 1 325 296 268 384
223 4 2 3 1 70 383 347 386
224 4 2 3 1 271 126 350 386
225 4 2 3 1 318 100 138 262
226 4 2 3 1 323 101 100 267
227 4 2 3 1 351 371 71 362
228 4 2 3 1 68 364 346 388
229 4 2 3 1 222 224 228 385
230 4 2 3 1 106 107 318 262
231 4 2 3 1 263 133 319 109
232 4 2 3 1 321 110 111 265
233 4 2 3 1 320 109 110 264
234 4 2 3 1 68 348 364 388
235 4 2 3 1 230 235 252 295
236 4 2 3 1 344 345 289 127
237 4 2 3 1 127 345 271 350
238 4 2 3 1 231 230 304 253
239 4 2 3 1 249 222 228 387
240 4 2 3 1 364 348 346 388
241 4 2 3 1 226 244 227 282
242 4 2 3 1 128 344 289 127
243 4 2 3 1 292 186 216 269
244 4 2 3 1 287 129 374 385
245 4 2 3 1 350 271 127 126
246 4 2 3 1 182 238 186 387
247 4 2 3 1 8 144 184 308
248 4 2 3 1 30 138 309 327
249 4 2 3 1 371 351 71 386
250 4 2 3 1 218 68 383 388
251 4 2 3 1 349 129 273 385
252 4 2 3 1 217 329 294 268
253 4 2 3 1 70 366 347 69
254 4 2 3 1 218 68 69 383
255 4 2 3 1 70 232 69 383
256 4 2 3 1 232 383 70 386
257 4 2 3 1 72 71 362 384
258 4 2 3 1 125 373 275 124
259 4 2 3 1 249 228 251 293
260 4 2 3 1 364 69 68 346
261 4 2 3 1 230 304 281 295
262 4 2 3 1 349 344 273 129
263 4 2 3 1 129 287 374 130
264 4 2 3 1 187 297 303 387
265 4 2 3 1 374 129 349 385
266 4 2 3 1 231 299 244 280
267 4 2 3 1 289 271 127 383
268 4 2 3 1 277 350 126 386
269 4 2 3 1 224 67 68 388
270 4 2 3 1 336 374 363 385
271 4 2 3 1 83 158 84 209
272 4 2 3 1 50 147 51 193
273 4 2 3 1 149 51 194 52
274 4 2 3 1 85 160 210 84
275 4 2 3 1 244 237 231 389
276 4 2 3 1 244 300 227 282
277 4 2 3 1 68 364 348 372
278 4 2 3 1 230 252 250 295
279 4 2 3 1 294 332 217 239
280 4 2 3 1 128 273 344 129
281 4 2 3 1 347 366 70 386
282 4 2 3 1 69 364 365 346
283 4 2 3 1 366 347 69 365
284 4 2 3 1 289 279 383 388
285 4 2 3 1 250 294 217 239
286 4 2 3 1 69 346 365 383
287 4 2 3 1 347 69 365 383
288 4 2 3 1 189 241 292 216
289 4 2 3 1 224 385 67 388
290 4 2 3 1 289 284 279 388
291 4 2 3 1 277 126 271 386
292 4 2 3 1 362 335 359 72
293 4 2 3 1 236 251 228 293
294 4 2 3 1 72 335 359 324
295 4 2 3 1 66 363 336 360
296 4 2 3 1 241 251 292 216
297 4 2 3 1 360 336 66 181
298 4 2 3 1 362 335 72 384
299 4 2 3 1 243 301 305 285
300 4 2 3 1 240 252 234 384
301 4 2 3 1 186 189 292 216
302 4 2 3 1 362 373 335 384
303 4 2 3 1 217 329 332 294
304 4 2 3 1 66 385 222 387
305 4 2 3 1 271 386 383 389
306 4 2 3 1 307 275 283 384
307 4 2 3 1 125 352 373 124
308 4 2 3 1 72 234 71 384
309 4 2 3 1 70 371 71 386
310 4 2 3 1 271 278 386 389
311 4 2 3 1 297 182 269 387
312 4 2 3 1 306 286 385 387
313 4 2 3 1 139 140 315 339
314 4 2 3 1 141 142 312 337
315 4 2 3 1 141 140 354 311
316 4 2 3 1 374 349 129 130
317 4 2 3 1 143 142 343 313
318 4 2 3 1 182 186 269 387
319 4 2 3 1 324 335 328 384
320 4 2 3 1 300 244 299 280
321 4 2 3 1 371 70 366 386
322 4 2 3 1 245 66 222 387
323 4 2 3 1 139 138 353 310
324 4 2 3 1 287 303 297 387
325 4 2 3 1 278 283 277 386
326 4 2 3 1 218 383 232 389
327 4 2 3 1 306 385 287 387
328 4 2 3 1 144 143 341 314
329 4 2 3 1 335 324 72 384
330 4 2 3 1 348 374 349 385
331 4 2 3 1 232 386 220 389
332 4 2 3 1 250 290 230 295
333 4 2 3 1 94 377 95 219
334 4 2 3 1 67 66 363 385
335 4 2 3 1 219 231 299 244
336 4 2 3 1 358 185 336 64
337 4 2 3 1 273 385 286 388
338 4 2 3 1 361 335 328 165
339 4 2 3 1 216 186 45 238
340 4 2 3 1 211 254 184 188
341 4 2 3 1 371 366 351 386
342 4 2 3 1 268 325 121 296
343 4 2 3 1 226 218 232 389
344 4 2 3 1 347 346 345 383
345 4 2 3 1 127 128 344 312
346 4 2 3 1 297 182 40 269
347 4 2 3 1 328 302 330 384
348 4 2 3 1 271 383 279 389
349 4 2 3 1 311 350 127 126
350 4 2 3 1 273 129 287 385
351 4 2 3 1 229 231 230 304
352 4 2 3 1 300 301 227 282
353 4 2 3 1 306 286 287 385
354 4 2 3 1 272 231 304 299
355 4 2 3 1 296 325 330 384
356 4 2 3 1 320 102 142 141
357 4 2 3 1 143 103 321 104
358 4 2 3 1 144 104 143 322
359 4 2 3 1 105 8 316 144
360 4 2 3 1 105 104 144 322
361 4 2 3 1 105 8 5 316
362 4 2 3 1 140 141 101 319
363 4 2 3 1 102 101 141 319
364 4 2 3 1 103 143 321 142
365 4 2 3 1 304 230 290 295
366 4 2 3 1 272 219 231 299
367 4 2 3 1 231 229 272 304
368 4 2 3 1 217 240 90 329
369 4 2 3 1 383 386 232 389
370 4 2 3 1 280 279 282 389
371 4 2 3 1 361 373 352 124
372 4 2 3 1 278 271 279 389
373 4 2 3 1 237 232 220 389
374 4 2 3 1 71 220 70 386
375 4 2 3 1 297 187 182 387
376 4 2 3 1 281 278 280 389
377 4 2 3 1 352 315 125 126
378 4 2 3 1 347 350 351 386
379 4 2 3 1 290 250 294 295
380 4 2 3 1 349 374 358 130
381 4 2 3 1 230 290 229 304
382 4 2 3 1 219 229 272 231
383 4 2 3 1 144 184 308 369
384 4 2 3 1 327 138 309 367
385 4 2 3 1 67 222 66 385
386 4 2 3 1 247 72 324 384
387 4 2 3 1 239 250 294 290
388 4 2 3 1 100 318 138 139
389 4 2 3 1 101 323 100 140
390 4 2 3 1 100 140 323 139
391 4 2 3 1 240 247 325 384
392 4 2 3 1 159 210 160 84
393 4 2 3 1 158 159 84 209
394 4 2 3 1 194 51 149 148
395 4 2 3 1 193 147 51 148
396 4 2 3 1 284 273 286 388
397 4 2 3 1 274 241 251 292
398 4 2 3 1 106 29 317 131
399 4 2 3 1 106 29 25 317
400 4 2 3 1 112 136 266 137
401 4 2 3 1 7 112 6 316
402 4 2 3 1 109 263 133 108
403 4 2 3 1 132 106 318 131
404 4 2 3 1 7 112 316 137
405 4 2 3 1 108 323 133 107
406 4 2 3 1 227 301 300 270
407 4 2 3 1 290 223 250 230
408 4 2 3 1 292 251 274 293
409 4 2 3 1 271 278 277 386
410 4 2 3 1 219 272 291 299
411 4 2 3 1 250 239 223 290
412 4 2 3 1 288 236 305 274
413 4 2 3 1 347 365 346 383
414 4 2 3 1 223 290 229 230
415 4 2 3 1 238 182 245 387
416 4 2 3 1 89 217 332 239
417 4 2 3 1 132 106 107 318
418 4 2 3 1 136 112 266 111
419 4 2 3 1 110 321 111 135
420 4 2 3 1 133 134 319 109
421 4 2 3 1 320 109 134 110
422 4 2 3 1 135 321 111 136
423 4 2 3 1 110 134 320 135
424 4 2 3 1 323 132 133 107
425 4 2 3 1 271 289 279 383
426 4 2 3 1 291 219 300 242
427 4 2 3 1 310 352 125 124
428 4 2 3 1 372 363 348 385
429 4 2 3 1 67 363 372 385
430 4 2 3 1 124 361 28 309
431 4 2 3 1 238 186 45 182
432 4 2 3 1 232 218 69 383
433 4 2 3 1 181 245 182 387
434 4 2 3 1 360 63 336 181
435 4 2 3 1 239 246 290 298
436 4 2 3 1 359 335 164 324
437 4 2 3 1 300 219 244 242
438 4 2 3 1 330 302 296 384
439 4 2 3 1 227 243 301 221
440 4 2 3 1 130 9 358 308
441 4 2 3 1 23 22 119 276
442 4 2 3 1 349 129 130 314
443 4 2 3 1 337 210 160 159
444 4 2 3 1 159 158 354 209
445 4 2 3 1 338 194 149 148
446 4 2 3 1 148 193 147 356
447 4 2 3 1 220 232 70 386
448 4 2 3 1 189 44 241 216
449 4 2 3 1 286 273 287 385
450 4 2 3 1 297 40 182 187
451 4 2 3 1 273 284 289 388
452 4 2 3 1 296 325 121 330
453 4 2 3 1 358 185 9 130
454 4 2 3 1 347 351 366 386
455 4 2 3 1 14 195 207 61
456 4 2 3 1 1 206 192 55
457 4 2 3 1 239 294 332 123
458 4 2 3 1 72 359 17 324
459 4 2 3 1 290 272 229 304
460 4 2 3 1 360 66 12 181
461 4 2 3 1 325 90 240 329
462 4 2 3 1 303 9 185 130
463 4 2 3 1 241 233 274 251
464 4 2 3 1 274 248 241 292
465 4 2 3 1 288 221 236 233
466 4 2 3 1 274 288 236 233
467 4 2 3 1 239 246 223 290
468 4 2 3 1 247 72 17 324
469 4 2 3 1 245 12 66 181
470 4 2 3 1 236 274 233 251
471 4 2 3 1 239 332 88 123
472 4 2 3 1 42 241 292 189
473 4 2 3 1 297 269 306 387
474 4 2 3 1 333 309 367 327
475 4 2 3 1 369 184 308 190
476 4 2 3 1 218 225 224 388
477 4 2 3 1 248 42 43 241
478 4 2 3 1 361 352 310 124
479 4 2 3 1 145 196 357 146
480 4 2 3 1 199 340 146 147
481 4 2 3 1 198 151 342 150
482 4 2 3 1 150 197 149 355
483 4 2 3 1 328 330 324 384
484 4 2 3 1 240 234 247 384
485 4 2 3 1 242 227 300 270
486 4 2 3 1 218 224 68 388
487 4 2 3 1 219 291 377 116
488 4 2 3 1 241 42 43 189
489 4 2 3 1 325 329 268 121
490 4 2 3 1 186 40 182 269
491 4 2 3 1 130 358 349 314
492 4 2 3 1 306 287 297 387
493 4 2 3 1 226 237 244 389
494 4 2 3 1 247 324 325 384
495 4 2 3 1 332 329 217 89
496 4 2 3 1 290 294 239 298
497 4 2 3 1 348 363 374 385
498 4 2 3 1 242 300 291 270
499 4 2 3 1 227 300 244 242
500 4 2 3 1 343 128 344 313
501 4 2 3 1 247 234 72 384
502 4 2 3 1 197 60 59 204
503 4 2 3 1 58 194 59 203
504 4 2 3 1 201 196 55 56
505 4 2 3 1 205 61 198 60
506 4 2 3 1 58 57 193 202
507 4 2 3 1 199 56 200 57
508 4 2 3 1 44 189 186 216
509 4 2 3 1 222 67 224 385
510 4 2 3 1 26 34 298 113
511 4 2 3 1 74 21 18 208
512 4 2 3 1 21 74 99 208
513 4 2 3 1 100 74 75 212
514 4 2 3 1 74 100 99 212
515 4 2 3 1 88 246 239 298
516 4 2 3 1 248 274 276 292
517 4 2 3 1 255 354 101 209
518 4 2 3 1 337 210 256 103
519 4 2 3 1 312 128 344 337
520 4 2 3 1 248 233 274 241
521 4 2 3 1 104 257 213 343
522 4 2 3 1 210 337 256 102
523 4 2 3 1 102 354 255 209
524 4 2 3 1 296 275 307 384
525 4 2 3 1 239 294 123 298
526 4 2 3 1 259 101 339 215
527 4 2 3 1 126 311 350 354
528 4 2 3 1 301 221 288 270
529 4 2 3 1 361 352 353 310
530 4 2 3 1 249 238 222 387
531 4 2 3 1 103 213 257 343
532 4 2 3 1 314 358 349 341
533 4 2 3 1 186 292 41 269
534 4 2 3 1 122 294 329 268
535 4 2 3 1 341 214 258 105
536 4 2 3 1 288 221 381 117
537 4 2 3 1 65 358 9 308
538 4 2 3 1 309 361 28 166
539 4 2 3 1 123 88 239 298
540 4 2 3 1 99 327 21 208
541 4 2 3 1 296 302 275 384
542 4 2 3 1 181 182 187 387
543 4 2 3 1 272 115 379 229
544 4 2 3 1 221 288 270 117
545 4 2 3 1 324 335 164 165
546 4 2 3 1 181 63 336 64
547 4 2 3 1 276 42 43 248
548 4 2 3 1 223 290 114 229
549 4 2 3 1 272 291 115 219
550 4 2 3 1 229 272 115 219
551 4 2 3 1 215 339 259 100
552 4 2 3 1 147 146 199 50
553 4 2 3 1 223 290 382 114
554 4 2 3 1 208 327 21 331
555 4 2 3 1 272 114 290 229
556 4 2 3 1 214 104 341 258
557 4 2 3 1 149 197 150 52
558 4 2 3 1 153 165 324 164
559 4 2 3 1 64 36 181 63
560 4 2 3 1 189 292 41 186
561 4 2 3 1 238 245 222 387
562 4 2 3 1 329 332 294 122
563 4 2 3 1 274 118 288 233
564 4 2 3 1 291 242 270 116
565 4 2 3 1 291 219 242 116
566 4 2 3 1 16 184 369 65
567 4 2 3 1 367 32 166 327
568 4 2 3 1 238 46 245 182
569 4 2 3 1 356 338 148 202
570 4 2 3 1 338 203 148 202
571 4 2 3 1 278 279 280 389
572 4 2 3 1 240 247 91 325
573 4 2 3 1 226 232 237 389
574 4 2 3 1 181 245 46 182
575 4 2 3 1 247 324 91 325
576 4 2 3 1 339 352 315 125
577 4 2 3 1 274 376 118 233
578 4 2 3 1 324 330 325 384
579 4 2 3 1 375 22 24 248
580 4 2 3 1 34 33 246 380
581 4 2 3 1 165 153 324 154
582 4 2 3 1 64 36 37 181
583 4 2 3 1 120 330 328 302
584 4 2 3 1 356 69 364 365
585 4 2 3 1 69 338 366 365
586 4 2 3 1 185 187 39 303
587 4 2 3 1 274 276 119 248
588 4 2 3 1 187 297 39 303
589 4 2 3 1 147 200 340 202
590 4 2 3 1 330 120 296 302
591 4 2 3 1 90 217 329 89
592 4 2 3 1 356 147 340 202
593 4 2 3 1 355 149 203 204
594 4 2 3 1 186 45 44 216
595 4 2 3 1 366 70 338 69
596 4 2 3 1 202 356 338 69
597 4 2 3 1 69 68 356 364
598 4 2 3 1 149 203 338 355
599 4 2 3 1 64 358 9 65
600 4 2 3 1 65 369 358 308
601 4 2 3 1 166 309 361 367
602 4 2 3 1 165 28 361 166
603 4 2 3 1 338 203 202 69
604 4 2 3 1 100 99 212 353
605 4 2 3 1 298 34 246 380
606 4 2 3 1 192 370 206 191
607 4 2 3 1 368 334 195 207
608 4 2 3 1 200 340 357 146
609 4 2 3 1 22 375 276 248
610 4 2 3 1 342 205 150 204
611 4 2 3 1 145 196 146 49
612 4 2 3 1 355 342 150 204
613 4 2 3 1 357 201 200 146
614 4 2 3 1 150 198 151 53
615 4 2 3 1 342 205 151 198
616 4 2 3 1 357 196 145 201
617 4 2 3 1 105 8 184 5
618 4 2 3 1 144 8 184 105
619 4 2 3 1 310 353 361 124
620 4 2 3 1 353 352 125 310
621 4 2 3 1 338 203 194 148
622 4 2 3 1 356 148 193 202
623 4 2 3 1 203 194 149 338
624 4 2 3 1 356 193 147 202
625 4 2 3 1 63 62 12 360
626 4 2 3 1 314 130 358 341
627 4 2 3 1 184 16 38 65
628 4 2 3 1 17 163 164 359
629 4 2 3 1 155 166 32 327
630 4 2 3 1 314 349 129 341
631 4 2 3 1 144 184 369 105
632 4 2 3 1 158 101 354 209
633 4 2 3 1 337 210 103 160
634 4 2 3 1 210 337 102 159
635 4 2 3 1 354 102 159 209
636 4 2 3 1 207 368 17 72
637 4 2 3 1 342 205 198 150
638 4 2 3 1 163 17 368 359
639 4 2 3 1 370 12 62 360
640 4 2 3 1 370 206 12 66
641 4 2 3 1 359 17 368 72
642 4 2 3 1 161 104 213 343
643 4 2 3 1 12 370 66 360
644 4 2 3 1 362 342 71 72
645 4 2 3 1 201 357 196 146
646 4 2 3 1 66 357 67 363
647 4 2 3 1 268 329 122 121
648 4 2 3 1 41 40 186 269
649 4 2 3 1 355 150 197 204
650 4 2 3 1 201 200 146 56
651 4 2 3 1 146 200 340 199
652 4 2 3 1 99 156 212 353
653 4 2 3 1 341 214 105 162
654 4 2 3 1 60 150 205 204
655 4 2 3 1 199 200 340 147
656 4 2 3 1 207 152 334 73
657 4 2 3 1 206 35 47 191
658 4 2 3 1 337 345 127 354
659 4 2 3 1 245 46 12 181
660 4 2 3 1 355 197 149 204
661 4 2 3 1 202 200 340 68
662 4 2 3 1 324 17 247 91
663 4 2 3 1 340 356 202 68
664 4 2 3 1 17 163 153 164
665 4 2 3 1 12 36 62 63
666 4 2 3 1 100 215 339 157
667 4 2 3 1 308 184 8 190
668 4 2 3 1 309 333 30 327
669 4 2 3 1 337 128 344 343
670 4 2 3 1 204 203 355 70
671 4 2 3 1 350 339 126 354
672 4 2 3 1 203 338 355 70
673 4 2 3 1 363 66 357 360
674 4 2 3 1 328 28 120 302
675 4 2 3 1 342 362 359 72
676 4 2 3 1 185 39 9 303
677 4 2 3 1 239 332 89 88
678 4 2 3 1 45 46 238 182
679 4 2 3 1 334 14 195 207
680 4 2 3 1 192 206 1 191
681 4 2 3 1 39 40 297 187
682 4 2 3 1 43 44 241 189
683 4 2 3 1 342 205 204 71
684 4 2 3 1 120 296 121 330
685 4 2 3 1 90 240 91 325
686 4 2 3 1 372 68 340 67
687 4 2 3 1 308 9 65 190
688 4 2 3 1 28 333 309 166
689 4 2 3 1 200 201 357 67
690 4 2 3 1 204 355 342 71
691 4 2 3 1 371 71 355 70
692 4 2 3 1 166 333 367 327
693 4 2 3 1 184 369 65 190
694 4 2 3 1 308 65 369 190
695 4 2 3 1 333 309 166 367
696 4 2 3 1 357 340 200 67
697 4 2 3 1 69 356 338 365
698 4 2 3 1 56 200 146 199
699 4 2 3 1 60 197 150 204
700 4 2 3 1 27 88 123 298
701 4 2 3 1 10 42 43 276
702 4 2 3 1 142 102 337 141
703 4 2 3 1 140 141 354 101
704 4 2 3 1 102 101 354 141
705 4 2 3 1 104 103 343 143
706 4 2 3 1 143 103 343 142
707 4 2 3 1 165 154 28 166
708 4 2 3 1 64 9 37 65
709 4 2 3 1 22 11 24 248
710 4 2 3 1 144 104 341 143
711 4 2 3 1 105 104 341 144
712 4 2 3 1 33 20 34 246
713 4 2 3 1 124 361 309 367
714 4 2 3 1 123 294 332 122
715 4 2 3 1 292 41 42 189
716 4 2 3 1 207 334 14 73
717 4 2 3 1 47 1 206 191
718 4 2 3 1 17 152 207 73
719 4 2 3 1 35 47 12 206
720 4 2 3 1 369 130 358 308
721 4 2 3 1 68 340 356 364
722 4 2 3 1 195 368 207 54
723 4 2 3 1 206 370 192 48
724 4 2 3 1 54 207 195 61
725 4 2 3 1 48 192 206 55
726 4 2 3 1 140 100 101 339
727 4 2 3 1 100 140 139 339
728 4 2 3 1 364 68 340 372
729 4 2 3 1 339 352 125 353
730 4 2 3 1 342 71 371 362
731 4 2 3 1 12 36 35 62
732 4 2 3 1 152 17 163 153
733 4 2 3 1 357 372 67 363
734 4 2 3 1 349 343 129 341
735 4 2 3 1 100 138 353 139
736 4 2 3 1 355 371 70 366
737 4 2 3 1 70 338 355 366
738 4 2 3 1 5 316 183 261
739 4 2 3 1 30 260 326 317
740 4 2 3 1 183 316 6 261
741 4 2 3 1 326 260 25 317
742 4 2 3 1 35 206 370 191
743 4 2 3 1 334 368 152 207
744 4 2 3 1 68 200 340 67
745 4 2 3 1 145 370 357 201
746 4 2 3 1 205 368 342 151
747 4 2 3 1 203 338 70 69
748 4 2 3 1 68 356 202 69
749 4 2 3 1 71 204 355 70
750 4 2 3 1 71 355 342 371
751 4 2 3 1 340 357 372 67
752 4 2 3 1 184 254 5 188
753 4 2 3 1 354 127 337 141
754 4 2 3 1 142 128 337 343
755 4 2 3 1 140 126 339 354
756 4 2 3 1 205 368 207 72
757 4 2 3 1 206 370 201 66
758 4 2 3 1 125 139 339 353
759 4 2 3 1 162 105 341 369
760 4 2 3 1 353 99 156 367
761 4 2 3 1 143 129 343 341
762 4 2 3 1 65 38 184 190
763 4 2 3 1 333 166 155 327
764 4 2 3 1 370 357 66 360
765 4 2 3 1 342 205 71 72
766 4 2 3 1 67 201 357 66
767 4 2 3 1 359 368 342 72
768 4 2 3 1 201 370 357 66
769 4 2 3 1 205 342 368 72
770 4 2 3 1 9 38 37 65
771 4 2 3 1 166 154 28 155
772 4 2 3 1 21 18 208 331
773 4 2 3 1 124 310 353 138
774 4 2 3 1 144 130 314 341
775 4 2 3 1 142 128 312 337
776 4 2 3 1 144 341 105 369
777 4 2 3 1 99 353 138 367
778 4 2 3 1 311 126 140 354
779 4 2 3 1 127 312 337 141
780 4 2 3 1 354 311 127 141
781 4 2 3 1 343 142 128 313
782 4 2 3 1 124 353 361 367
783 4 2 3 1 341 130 358 369
784 4 2 3 1 126 339 315 140
785 4 2 3 1 315 139 339 125
786 4 2 3 1 313 129 343 143
787 4 2 3 1 6 5 183 261
788 4 2 3 1 176 377 169 94
789 4 2 3 1 254 211 4 188
790 4 2 3 1 125 139 353 310
791 4 2 3 1 129 143 314 341
792 4 2 3 1 316 7 8 183
793 4 2 3 1 326 29 30 317
794 4 2 3 1 260 25 21 326
795 4 2 3 1 213 78 103 257
796 4 2 3 1 210 256 103 78
797 4 2 3 1 255 101 76 209
798 4 2 3 1 256 77 210 102
799 4 2 3 1 255 77 102 209
800 4 2 3 1 214 79 104 258
801 4 2 3 1 213 257 104 79
802 4 2 3 1 214 258 105 80
803 4 2 3 1 211 80 105 254
804 4 2 3 1 76 101 259 215
805 4 2 3 1 353 124 138 367
806 4 2 3 1 144 130 341 369
807 4 2 3 1 84 159 102 209
808 4 2 3 1 159 102 210 84
809 4 2 3 1 215 259 75 100
810 4 2 3 1 8 5 316 183
811 4 2 3 1 146 49 56 199
812 4 2 3 1 150 53 197 60
813 4 2 3 1 208 18 19 331
814 4 2 3 1 3 4 211 188
815 4 2 3 1 160 210 103 85
816 4 2 3 1 158 83 101 209
817 4 2 3 1 137 266 105 322
818 4 2 3 1 101 323 108 267
819 4 2 3 1 25 29 326 317
820 4 2 3 1 316 6 7 183
821 4 2 3 1 309 138 124 367
822 4 2 3 1 144 130 369 308
823 4 2 3 1 260 21 30 326
824 4 2 3 1 86 104 213 161
825 4 2 3 1 138 260 317 106
826 4 2 3 1 264 142 110 320
827 4 2 3 1 321 103 110 265
828 4 2 3 1 265 321 104 111
829 4 2 3 1 266 136 104 322
830 4 2 3 1 112 316 105 261
831 4 2 3 1 320 102 109 264
832 4 2 3 1 102 319 109 263
833 4 2 3 1 263 133 101 319
834 4 2 3 1 106 318 138 262
835 4 2 3 1 78 103 210 85
836 4 2 3 1 84 102 77 209
837 4 2 3 1 85 78 103 213
838 4 2 3 1 102 77 210 84
839 4 2 3 1 83 76 101 209
840 4 2 3 1 101 76 83 215
841 4 2 3 1 79 104 213 86
842 4 2 3 1 86 79 104 214
843 4 2 3 1 177 377 95 170
844 4 2 3 1 170 95 177 378
845 4 2 3 1 195 13 14 334
846 4 2 3 1 192 1 2 191
847 4 2 3 1 215 100 82 157
848 4 2 3 1 318 107 100 262
849 4 2 3 1 107 267 323 100
850 4 2 3 1 75 215 100 82
851 4 2 3 1 82 100 75 212
852 4 2 3 1 308 8 9 190
853 4 2 3 1 333 30 28 309
854 4 2 3 1 9 38 65 190
855 4 2 3 1 28 333 166 155
856 4 2 3 1 94 169 176 379
857 4 2 3 1 34 27 26 298
858 4 2 3 1 254 4 5 188
859 4 2 3 1 144 322 137 105
860 4 2 3 1 137 105 316 144
861 4 2 3 1 106 138 131 317
862 4 2 3 1 138 260 106 99
863 4 2 3 1 142 110 321 103
864 4 2 3 1 142 264 110 103
865 4 2 3 1 104 322 136 143
866 4 2 3 1 102 320 109 141
867 4 2 3 1 136 104 143 321
868 4 2 3 1 266 137 105 112
869 4 2 3 1 105 137 316 112
870 4 2 3 1 319 102 109 141
871 4 2 3 1 140 133 319 101
872 4 2 3 1 101 133 323 140
873 4 2 3 1 133 263 101 108
874 4 2 3 1 138 99 106 262
875 4 2 3 1 133 101 323 108
876 4 2 3 1 106 318 131 138
877 4 2 3 1 22 23 10 276
878 4 2 3 1 320 110 135 142
879 4 2 3 1 110 142 321 135
880 4 2 3 1 109 141 320 134
881 4 2 3 1 136 266 104 111
882 4 2 3 1 136 104 321 111
883 4 2 3 1 141 319 134 109
884 4 2 3 1 132 323 139 100
885 4 2 3 1 100 139 132 318
886 4 2 3 1 132 107 100 318
887 4 2 3 1 323 132 107 100
888 4 2 3 1 382 168 93 175
889 4 2 3 1 172 97 179 376
890 4 2 3 1 375 98 173 180
891 4 2 3 1 92 167 174 380
892 4 2 3 1 155 32 19 327
893 4 2 3 1 176 177 377 116
894 4 2 3 1 33 167 92 380
895 4 2 3 1 174 382 114 175
896 4 2 3 1 167 382 168 93
897 4 2 3 1 379 94 169 168
898 4 2 3 1 176 115 379 175
899 4 2 3 1 117 381 179 178
900 4 2 3 1 97 172 173 376
901 4 2 3 1 98 24 375 173
902 4 2 3 1 118 179 376 180
903 4 2 3 1 210 77 256 78
904 4 2 3 1 257 213 78 79
905 4 2 3 1 258 214 79 80
906 4 2 3 1 211 4 80 254
907 4 2 3 1 3 16 38 184
908 4 2 3 1 76 77 255 209
909 4 2 3 1 259 75 76 215
910 4 2 3 1 176 116 291 115
911 4 2 3 1 291 116 176 377
912 4 2 3 1 176 291 219 115
913 4 2 3 1 219 291 176 377
914 4 2 3 1 94 219 176 377
915 4 2 3 1 116 178 270 117
916 4 2 3 1 270 242 178 378
917 4 2 3 1 386 234 235 384
918 4 2 3 1 386 235 234 220
919 4 2 3 1 105 184 211 254
920 4 2 3 1 138 260 30 317
921 4 2 3 1 229 175 272 114
922 4 2 3 1 229 272 175 379
923 4 2 3 1 115 272 175 114
924 4 2 3 1 115 175 272 379
925 4 2 3 1 179 117 288 381
926 4 2 3 1 288 117 179 118
927 4 2 3 1 384 124 361 302
928 4 2 3 1 384 361 124 373
929 4 2 3 1 281 231 304 253
930 4 2 3 1 281 304 231 299
931 4 2 3 1 295 217 294 268
932 4 2 3 1 295 294 217 250
933 4 2 3 1 352 386 350 277
934 4 2 3 1 350 386 352 351
935 4 2 3 1 236 285 293 228
936 4 2 3 1 293 285 236 305
937 4 2 3 1 171 95 242 96
938 4 2 3 1 242 95 171 378
939 4 2 3 1 171 178 242 378
940 4 2 3 1 348 388 372 385
941 4 2 3 1 348 372 388 68
942 4 2 3 1 67 372 388 385
943 4 2 3 1 67 388 372 68
944 4 2 3 1 236 293 274 251
945 4 2 3 1 274 293 236 305
946 4 2 3 1 114 174 290 382
947 4 2 3 1 114 290 174 113
948 4 2 3 1 223 290 174 382
949 4 2 3 1 274 233 180 376
950 4 2 3 1 274 118 180 119
951 4 2 3 1 180 118 274 376
952 4 2 3 1 168 94 229 379
953 4 2 3 1 229 94 168 93
954 4 2 3 1 229 175 168 379
955 4 2 3 1 168 175 229 93
956 4 2 3 1 344 127 337 345
957 4 2 3 1 337 127 344 312
958 4 2 3 1 127 350 354 345
959 4 2 3 1 127 354 350 311
960 4 2 3 1 138 327 99 367
961 4 2 3 1 129 313 344 128
962 4 2 3 1 352 126 339 315
963 4 2 3 1 339 126 352 350
964 4 2 3 1 102 103 142 337
965 4 2 3 1 102 142 103 264
966 4 2 3 1 361 302 28 328
967 4 2 3 1 361 28 302 124
968 4 2 3 1 374 130 336 358
969 4 2 3 1 374 336 130 303
970 4 2 3 1 185 336 130 358
971 4 2 3 1 185 130 336 303
972 4 2 3 1 167 93 223 382
973 4 2 3 1 223 93 167 92
974 4 2 3 1 223 174 167 382
975 4 2 3 1 167 174 223 92
976 4 2 3 1 99 100 138 353
977 4 2 3 1 99 138 100 262
978 4 2 3 1 98 24 248 375
979 4 2 3 1 98 248 24 11
980 4 2 3 1 92 33 246 20
981 4 2 3 1 246 33 92 380
982 4 2 3 1 172 96 221 97
983 4 2 3 1 172 221 288 97
984 4 2 3 1 288 221 172 381
985 4 2 3 1 172 288 179 97
986 4 2 3 1 179 288 172 381
987 4 2 3 1 219 300 299 291
988 4 2 3 1 299 300 219 244
989 4 2 3 1 227 270 221 301
990 4 2 3 1 221 270 227 242
991 4 2 3 1 173 97 233 98
992 4 2 3 1 233 97 173 376
993 4 2 3 1 233 180 173 98
994 4 2 3 1 173 180 233 376
995 4 2 3 1 248 292 42 241
996 4 2 3 1 42 292 248 276
997 4 2 3 1 63 181 12 36
998 4 2 3 1 12 181 63 360
999 4 2 3 1 164 324 17 359
1000 4 2 3 1 17 324 164 153
1001 4 2 3 1 288 301 243 221
1002 4 2 3 1 243 301 288 305
1003 4 2 3 1 243 236 288 221
1004 4 2 3 1 288 236 243 305
1005 4 2 3 1 328 165 324 154
1006 4 2 3 1 324 165 328 335
1007 4 2 3 1 64 185 181 37
1008 4 2 3 1 64 181 185 336
1009 4 2 3 1 126 352 277 125
1010 4 2 3 1 126 277 352 350
1011 4 2 3 1 85 161 343 160
1012 4 2 3 1 343 161 85 213
1013 4 2 3 1 343 103 85 160
1014 4 2 3 1 85 103 343 213
1015 4 2 3 1 157 83 339 158
1016 4 2 3 1 157 339 83 215
1017 4 2 3 1 101 339 83 158
1018 4 2 3 1 101 83 339 215
1019 4 2 3 1 185 64 9 37
1020 4 2 3 1 9 64 185 358
1021 4 2 3 1 165 328 28 154
1022 4 2 3 1 165 28 328 361
1023 4 2 3 1 87 16 369 162
1024 4 2 3 1 32 81 367 156
1025 4 2 3 1 162 86 341 214
1026 4 2 3 1 162 341 86 161
1027 4 2 3 1 104 341 86 214
1028 4 2 3 1 104 86 341 161
1029 4 2 3 1 156 82 353 157
1030 4 2 3 1 156 353 82 212
1031 4 2 3 1 100 353 82 157
1032 4 2 3 1 100 82 353 212
1033 4 2 3 1 370 15 48 145
1034 4 2 3 1 54 31 368 151
1035 4 2 3 1 35 15 370 62
1036 4 2 3 1 152 368 31 163
1037 4 2 3 1 380 246 174 92
1038 4 2 3 1 223 174 246 92
1039 4 2 3 1 196 146 56 201
1040 4 2 3 1 196 56 146 49
1041 4 2 3 1 150 198 60 205
1042 4 2 3 1 150 60 198 53
1043 4 2 3 1 229 175 223 93
1044 4 2 3 1 229 223 175 114
1045 4 2 3 1 382 223 175 93
1046 4 2 3 1 382 175 223 114
1047 4 2 3 1 233 248 180 98
1048 4 2 3 1 375 180 248 98
1049 4 2 3 1 199 50 200 147
1050 4 2 3 1 200 50 199 57
1051 4 2 3 1 50 202 200 147
1052 4 2 3 1 200 202 50 57
1053 4 2 3 1 50 193 202 147
1054 4 2 3 1 202 193 50 57
1055 4 2 3 1 52 197 204 149
1056 4 2 3 1 204 197 52 59
1057 4 2 3 1 52 204 203 149
1058 4 2 3 1 203 204 52 59
1059 4 2 3 1 52 203 194 149
1060 4 2 3 1 194 203 52 59
1061 4 2 3 1 354 101 339 140
1062 4 2 3 1 354 339 101 158
1063 4 2 3 1 103 337 343 142
1064 4 2 3 1 103 343 337 160
1065 4 2 3 1 337 102 354 141
1066 4 2 3 1 337 354 102 159
1067 4 2 3 1 343 104 341 161
1068 4 2 3 1 341 104 343 143
1069 4 2 3 1 339 100 353 139
1070 4 2 3 1 353 100 339 157
1071 4 2 3 1 177 377 219 95
1072 4 2 3 1 177 219 377 116
1073 4 2 3 1 242 177 219 95
1074 4 2 3 1 242 219 177 116
1075 4 2 3 1 378 177 242 95
1076 4 2 3 1 298 27 246 34
1077 4 2 3 1 298 246 27 88
1078 4 2 3 1 20 246 27 34
1079 4 2 3 1 20 27 246 88
1080 4 2 3 1 276 10 248 43
1081 4 2 3 1 276 248 10 22
1082 4 2 3 1 11 248 10 43
1083 4 2 3 1 11 10 248 22
1084 4 2 3 1 152 17 368 163
1085 4 2 3 1 368 17 152 207
1086 4 2 3 1 35 12 370 206
1087 4 2 3 1 35 370 12 62
1088 4 2 3 1 211 184 3 188
1089 4 2 3 1 327 208 19 331
1090 4 2 3 1 51 193 202 58
1091 4 2 3 1 202 193 51 148
1092 4 2 3 1 51 202 203 58
1093 4 2 3 1 203 202 51 148
1094 4 2 3 1 51 203 194 58
1095 4 2 3 1 194 203 51 148
1096 4 2 3 1 379 176 229 115
1097 4 2 3 1 379 229 176 94
1098 4 2 3 1 219 229 176 115
1099 4 2 3 1 219 176 229 94
1100 4 2 3 1 178 381 221 117
1101 4 2 3 1 87 214 105 80
1102 4 2 3 1 105 214 87 162
1103 4 2 3 1 87 369 105 162
1104 4 2 3 1 99 367 81 156
1105 4 2 3 1 99 212 81 74
1106 4 2 3 1 81 212 99 156
1107 4 2 3 1 196 48 201 55
1108 4 2 3 1 196 201 48 145
1109 4 2 3 1 370 48 201 145
1110 4 2 3 1 54 198 205 61
1111 4 2 3 1 205 198 54 151
1112 4 2 3 1 54 368 205 151
1113 4 2 3 1 152 13 368 334
1114 4 2 3 1 152 368 13 31
1115 4 2 3 1 54 13 368 31
1116 4 2 3 1 34 174 298 113
1117 4 2 3 1 34 298 174 380
1118 4 2 3 1 246 174 298 380
1119 4 2 3 1 242 177 270 116
1120 4 2 3 1 242 270 177 378
1121 4 2 3 1 178 270 177 116
1122 4 2 3 1 178 177 270 378
1123 4 2 3 1 248 180 276 119
1124 4 2 3 1 248 276 180 375
1125 4 2 3 1 22 276 180 119
1126 4 2 3 1 22 180 276 375
1127 4 2 3 1 35 2 370 15
1128 4 2 3 1 35 370 2 191
1129 4 2 3 1 48 370 2 15
1130 4 2 3 1 87 3 184 16
1131 4 2 3 1 184 3 87 211
1132 4 2 3 1 184 369 87 16
1133 4 2 3 1 19 81 327 32
1134 4 2 3 1 19 327 81 208
1135 4 2 3 1 367 327 81 32
1136 4 2 3 1 242 221 171 96
1137 4 2 3 1 172 221 171 381
1138 4 2 3 1 172 171 221 96
1139 4 2 3 1 21 99 30 327
1140 4 2 3 1 21 30 99 260
1141 4 2 3 1 138 30 99 327
1142 4 2 3 1 138 99 30 260
1143 4 2 3 1 178 270 221 242
1144 4 2 3 1 221 270 178 117
1145 4 2 3 1 97 288 233 221
1146 4 2 3 1 376 179 233 97
1147 4 2 3 1 376 233 179 118
1148 4 2 3 1 288 233 179 97
1149 4 2 3 1 288 179 233 118
1150 4 2 3 1 290 174 246 223
1151 4 2 3 1 180 274 248 233
1152 4 2 3 1 248 274 180 119
1153 4 2 3 1 344 129 343 313
1154 4 2 3 1 343 129 344 349
1155 4 2 3 1 206 48 201 370
1156 4 2 3 1 206 201 48 55
1157 4 2 3 1 207 54 205 61
1158 4 2 3 1 207 205 54 368
1159 4 2 3 1 211 87 105 80
1160 4 2 3 1 208 99 81 74
1161 4 2 3 1 368 195 13 54
1162 4 2 3 1 13 195 368 334
1163 4 2 3 1 370 192 2 191
1164 4 2 3 1 2 192 370 48
1165 4 2 3 1 221 178 171 381
1166 4 2 3 1 171 178 221 242
1167 4 2 3 1 174 298 290 246
1168 4 2 3 1 174 290 298 113
1169 4 2 3 1 87 184 105 369
1170 4 2 3 1 105 184 87 211
1171 4 2 3 1 327 81 99 367
1172 4 2 3 1 327 99 81 208
$EndElements
