$MeshFormat
2.2 0 8
$EndMeshFormat
$PhysicalNames
3
2 1 "Fixed"
2 2 "Load"
3 3 "Volume"
$EndPhysicalNames
$Nodes
302
1 0 10 -40
2 -9.411971076122e-35 0.8 -40
3 100 0.8 -40
4 100 10 -40
5 65 10 -40
6 65 15 -40
7 60 15 -40
8 60 10 -40
9 20.32 109.2 -40
10 10 109.2 -40
11 10 10 -40
12 0 10 40
13 -9.411971076122e-35 0.8 40
14 0.8 1.110223024625e-16 -39.2
15 99.2 3.885780586188e-16 -39.2
16 10 10 40
17 100 0.8 40
18 100 10 40
19 10 109.2 40
20 65 10 40
21 19.2 110 -39.2
22 20.297112541083 109.25721864729 -39.9427813527
23 10.8 110 -39.2
24 65 15 40
25 60 10 40
26 20.32 109.2 40
27 20.297112541083 109.25721864729 39.942781352708
28 60 15 40
29 0.8 1.110223024625e-16 39.2
30 99.2 3.885780586188e-16 39.2
31 10.8 110 39.2
32 19.2 110 39.2
33 16.66666666666664 0.8 -40
34 33.33333333333325 0.8 -40
35 49.99999999999993 0.8 -40
36 66.66666666666663 0.8 -40
37 83.33333333333331 0.8 -40
38 88.33333333333333 10 -40
39 76.66666666666667 10 -40
40 54.33142857142856 24.17142857142859 -40
41 48.66285714285711 38.34285714285721 -40
42 42.99428571428567 52.51428571428584 -40
43 37.32571428571421 66.68571428571445 -40
44 31.65714285714279 80.85714285714302 -40
45 25.98857142857139 95.02857142857151 -40
46 10 92.66666666666667 -40
47 10 76.13333333333333 -40
48 10 59.60000000000008 -40
49 10 43.06666666666682 -40
50 10 26.53333333333342 -40
51 0 10 -24.00000000000001
52 0 10 -7.999999999999979
53 0 10 7.999999999999979
54 0 10 23.99999999999991
55 0 0.8 -24.00000000000001
56 0 0.8 -7.999999999999979
57 0 0.8 7.999999999999979
58 0 0.8 23.99999999999991
59 17.19999999999997 0 -39.2
60 33.59999999999992 0 -39.2
61 49.99999999999986 0 -39.2
62 66.39999999999981 0 -39.2
63 82.7999999999999 0 -39.2
64 10 10 -24.00000000000001
65 10 10 -7.999999999999979
66 10 10 7.999999999999979
67 10 10 23.99999999999991
68 100 0.8 -24.00000000000001
69 100 0.8 -7.999999999999979
70 100 0.8 7.999999999999979
71 100 0.8 23.99999999999991
72 100 10 -24.00000000000001
73 100 10 -7.999999999999979
74 100 10 7.999999999999979
75 100 10 23.99999999999991
76 10 109.2 -24.00000000000001
77 10 109.2 -7.999999999999979
78 10 109.2 7.999999999999979
79 10 109.2 23.99999999999991
80 10 92.66666666666667 40
81 10 76.13333333333333 40
82 10 59.60000000000008 40
83 10 43.06666666666682 40
84 10 26.53333333333342 40
85 88.33333333333333 10 40
86 76.66666666666667 10 40
87 65 10 -24.00000000000001
88 65 10 -7.999999999999979
89 65 10 7.999999999999979
90 65 10 23.99999999999991
91 65 15 -24.00000000000001
92 65 15 -7.999999999999979
93 65 15 7.999999999999979
94 65 15 23.99999999999991
95 60 10 -24.00000000000001
96 60 10 -7.999999999999979
97 60 10 7.999999999999979
98 60 10 23.99999999999991
99 54.33142857142856 24.17142857142859 40
100 48.66285714285711 38.34285714285721 40
101 42.99428571428567 52.51428571428584 40
102 37.32571428571421 66.68571428571445 40
103 31.65714285714279 80.85714285714302 40
104 25.98857142857139 95.02857142857151 40
105 20.297112541083 109.25721864729 -23.96566881161841
106 20.297112541083 109.25721864729 -7.988556270536776
107 20.297112541083 109.25721864729 7.988556270544777
108 20.297112541083 109.25721864729 23.96566881162632
109 60 15 -24.00000000000001
110 60 15 -7.999999999999979
111 60 15 7.999999999999979
112 60 15 23.99999999999991
113 0.8 0 -23.52000000000001
114 0.8 0 -7.839999999999975
115 0.8 0 7.84000000000006
116 0.8 0 23.5200000000001
117 16.66666666666664 0.8 40
118 33.33333333333325 0.8 40
119 49.99999999999993 0.8 40
120 66.66666666666663 0.8 40
121 83.33333333333331 0.8 40
122 17.19999999999997 0 39.2
123 33.59999999999992 0 39.2
124 49.99999999999986 0 39.2
125 66.39999999999981 0 39.2
126 82.7999999999999 0 39.2
127 99.2 0 -23.52000000000001
128 99.2 0 -7.839999999999975
129 99.2 0 7.84000000000006
130 99.2 0 23.5200000000001
131 10.8 110 -23.52000000000001
132 10.8 110 -7.839999999999975
133 10.8 110 7.84000000000006
134 10.8 110 23.5200000000001
135 19.2 110 -23.52000000000001
136 19.2 110 -7.839999999999975
137 19.2 110 7.84000000000006
138 19.2 110 23.5200000000001
139 39.36153855930402 27.30754538734132 -40
140 23.88571284160543 11.89731836739412 -40
141 25.65186698699998 52.13627784098666 -40
142 47.96110142263394 13.40386914048216 -40
143 24.80470034126866 35.73813063437912 -40
144 22.36824537404637 69.94268030811008 -40
145 36.29504974894309 41.20781934397003 -40
146 19.52384691992134 85.72210246105051 -40
147 34.51406029936084 15.47641563029379 -40
148 72.91666666666666 5.399999999999999 -40
149 17.97858204538324 18.10099923924472 -40
150 92.91666666666666 5.399999999999999 -40
151 28.02861533992754 23.97334525625135 -40
152 17.12912185976748 99.70422017247849 -40
153 6.666666666666657 5.399999999999999 -40
154 0 5.4 31.99999999999996
155 0 5.4 -15.99999999999999
156 0 5.399999999999999 -32.00000000000001
157 0 5.4 0
158 0 5.4 15.99999999999994
159 5.000000000000001 10 31.99999999999996
160 5 10 -15.99999999999999
161 5.000000000000001 10 -32.00000000000001
162 5 10 0
163 5 10 15.99999999999994
164 100 5.4 31.99999999999996
165 100 5.4 -15.99999999999999
166 100 5.4 -32.00000000000001
167 100 5.399999999999999 0
168 100 5.4 15.99999999999994
169 10 95.11331338364187 -0.2123349526904121
170 10 23.14520305144428 0.7726862234052447
171 10 51.39299623266069 -25.68821181947836
172 10 52.09085434551282 26.63204681739745
173 10 83.38197048113352 24.47137207269832
174 10 84.2761573337088 -26.76058512338609
175 10 67.86289038566909 -25.90256332812275
176 10 59.64140019202186 -11.47141874458649
177 10 42.64101014569604 -13.10941473923752
178 10 49.89724049328967 1.597575710472448
179 10 67.42807133189021 2.641025118622338
180 10 34.88870904082683 -26.60797213181269
181 10 67.13393549447036 26.59100189170144
182 10 35.96099163127387 24.59864551603248
183 10 78.90451374563024 -9.86321410420743
184 10 25.38458242230882 -14.61904607514844
185 10 95.72700993671559 15.33590331947926
186 10 95.69179040233078 -15.63032941602963
187 10 23.47299006328444 15.33590331947931
188 10 35.80438886906227 8.856917922172279
189 10 82.2827536557642 7.999281620190679
190 10 59.72990387463496 14.21061603044632
191 10 97.08822074320116 28.02671699019673
192 10 97.08822074320113 -28.02671699019673
193 10 22.11177925679883 28.02671699019677
194 10 22.10754417484199 -28.03109324155218
195 10 71.99132696757866 15.18265934673182
196 10 47.06089866184401 14.69674325702598
197 10 34.90961054335254 -3.357528636841941
198 82.98588152559925 10 29.40191100727871
199 82.98588152559925 10 -29.40191100727874
200 75.55186225124203 10 7.105427357601002e-15
201 77.28361747757241 10 15.62884442961121
202 77.28361747757241 10 -15.62884442961124
203 90.89630495007344 10 18.17179257281496
204 90.89630495007344 10 -18.171792572815
205 89.1428345038033 10 0
206 92.4431039618012 10 30.31474071601872
207 72.65754747664357 10 30.43296506241282
208 72.65754747664357 10 -30.43296506241285
209 92.4431039618012 10 -30.31474071601875
210 39.74366982620211 60.64082543449472 27.1712764733788
211 34.14345806741174 74.64135483147065 -26.43953711077098
212 46.01474143851642 44.96314640370893 -27.46482326543714
213 25.43589132882616 96.41027167793459 4.007461029686965e-12
214 55.30888652567561 21.72778368581097 2.423064087029772
215 28.70582704383909 88.23543239040227 28.72453119533938
216 52.03191859136371 29.92020352159074 27.99452565886045
217 23.07309613070721 102.317259673232 -31.95422508216301
218 25.38628494209024 96.53428764477439 -18.63541845779243
219 30.95008165217489 82.62479586956276 -11.92605665853897
220 30.83365708552117 82.91585728619705 5.311486355435207
221 35.59931940771507 71.00170148071233 -2.352669092170501
222 36.42855099210873 68.92862251972818 13.67498927539528
223 40.92920337557659 57.67699156105851 3.909679853941476
224 40.35526705754224 59.11183235614441 -10.93976515817467
225 45.03433031462878 47.41417421342805 -4.52773651198109
226 45.8611577311641 45.34710567208975 9.580641664923867
227 23.07309613085025 102.3172596728744 31.95422508216548
228 54.6568679766762 23.35783005830951 -15.13786397249532
229 40.15404535081697 59.61488662295755 -25.07221555539672
230 45.92006911698168 45.19982720754579 25.99831159091781
231 34.27248938946007 74.31877652634982 27.92323428142195
232 50.96529879644899 32.58675300887752 13.44920353398227
233 25.77381828613684 95.56545428465789 16.5590109227905
234 51.30288468160731 31.74278829598172 -27.08375800528145
235 28.53310584634971 88.66723538412572 -28.1592062182109
236 48.65560389946423 38.36099025133944 -15.12077787947218
237 55.79555486930087 20.51111282674782 17.67877907232432
238 50.08035754067632 34.79910614830921 -1.555578179668785
239 35.93203369936425 70.16991575158936 -14.85875104457626
240 55.89100258089564 20.2724935477609 -28.75823206882256
241 31.20286855941318 81.99282860146704 18.43865040607647
242 41.83009210784354 55.42476973039114 15.86929916972919
243 44.31281719288428 49.2179570177893 -15.80263230881798
244 56.46722530231693 18.83193674420769 30.20588115407359
245 39.36153855930402 27.30754538734132 40
246 23.88571284160543 11.89731836739412 40
247 25.65186698699998 52.13627784098666 40
248 47.96110142263394 13.40386914048216 40
249 24.80470034126866 35.73813063437912 40
250 22.36824537404637 69.94268030811008 40
251 36.29504974894309 41.20781934397003 40
252 19.52384691992134 85.72210246105051 40
253 34.51406029936084 15.47641563029379 40
254 72.91666666666666 5.399999999999999 40
255 17.97858204538324 18.10099923924472 40
256 92.91666666666666 5.399999999999999 40
257 28.02861533992754 23.97334525625135 40
258 17.12912185976748 99.70422017247847 40
259 6.666666666666664 5.400000000000006 40
260 13.09934551938563 0 0.03961010875667625
261 86.87627373134781 0 0.04426351548111995
262 58.15471284798969 0 -25.02317993036758
263 57.5145426226352 0 26.08429614927115
264 24.95258809106936 0 -23.75037543834239
265 26.2168480010104 0 24.22316196454879
266 41.72739360897035 0 -24.84881232487817
267 49.96406829555353 0 -10.92496741189946
268 65.12336882705208 0 -9.574721814641233
269 57.78386347385874 0 3.142422299509441
270 41.82855433358648 0 3.094746228803118
271 74.86022518679478 0 -23.54502152568843
272 42.48517223393617 0 26.1366324617988
273 73.67932954271448 0 24.37232578618951
274 34.70640351667391 0 -9.365291382296171
275 87.55746914340706 0 -15.16633449083625
276 13.42194121619791 0 15.33777322746386
277 27.05237546660886 0 5.591035356465305
278 12.39845052534539 0 -15.20616199475388
279 86.54888298362405 0 15.36378997698466
280 72.83365860702027 0 5.593982340025406
281 49.9306733684087 0 14.0534149602413
282 12.01723650198745 0 -27.98241421345645
283 12.29420327377251 0 27.91453229018694
284 88.07467623441661 0 -27.9895861911955
285 87.7057967262275 0 27.91453229018695
286 37.50272468071012 0 14.61979819437147
287 62.34841352292748 0 14.64928830704737
288 77.50569396913529 0 -8.226037177163704
289 22.44183262381663 0 -8.538236670034095
290 15 110 -15.67999999999999
291 15 110 4.263256414560601e-14
292 15 110 15.68000000000008
293 15 110 -31.36000000000001
294 15 110 31.36000000000004
295 34.69837996504272 20.4262475695521 19.4186866442959
296 32.65447784460288 18.1835451797491 -20.49799414659272
297 28.43670569961506 39.18563146548745 2.469225388591643
298 28.46969459560976 39.33042806891397 -21.23879437270917
299 27.66702387608896 43.78888148522952 20.89323041804446
300 29.09837517197313 19.88789229699153 0.8790147691451224
301 25.02345375533708 57.25721196788065 -3.021254165126218
302 24.94968508667829 55.53776457749149 -19.5982740820067
$EndNodes
$Elements
894
1 2 2 1 2 1 2 156
2 2 2 1 2 51 1 156
3 2 2 1 2 2 55 156
4 2 2 1 2 13 12 154
5 2 2 1 2 12 54 154
6 2 2 1 2 58 13 154
7 2 2 1 2 52 51 155
8 2 2 1 2 51 55 155
9 2 2 1 2 55 51 156
10 2 2 1 2 53 52 157
11 2 2 1 2 56 52 155
12 2 2 1 2 52 56 157
13 2 2 1 2 54 53 158
14 2 2 1 2 57 53 157
15 2 2 1 2 53 57 158
16 2 2 1 2 54 58 154
17 2 2 1 2 58 54 158
18 2 2 1 2 55 56 155
19 2 2 1 2 56 57 157
20 2 2 1 2 57 58 158
21 2 2 2 5 3 4 166
22 2 2 2 5 68 3 166
23 2 2 2 5 4 72 166
24 2 2 2 5 18 17 164
25 2 2 2 5 17 71 164
26 2 2 2 5 75 18 164
27 2 2 2 5 69 68 165
28 2 2 2 5 68 72 165
29 2 2 2 5 72 68 166
30 2 2 2 5 70 69 167
31 2 2 2 5 73 69 165
32 2 2 2 5 69 73 167
33 2 2 2 5 71 70 168
34 2 2 2 5 74 70 167
35 2 2 2 5 70 74 168
36 2 2 2 5 71 75 164
37 2 2 2 5 75 71 168
38 2 2 2 5 72 73 165
39 2 2 2 5 73 74 167
40 2 2 2 5 74 75 168
41 4 2 3 1 190 181 172 299
42 4 2 3 1 190 210 181 299
43 4 2 3 1 210 222 190 181
44 4 2 3 1 270 267 274 300
45 4 2 3 1 190 222 210 299
46 4 2 3 1 210 231 222 181
47 4 2 3 1 267 296 274 300
48 4 2 3 1 228 296 267 300
49 4 2 3 1 237 214 281 295
50 4 2 3 1 286 281 270 295
51 4 2 3 1 190 222 299 301
52 4 2 3 1 281 214 270 295
53 4 2 3 1 242 299 222 301
54 4 2 3 1 255 246 193 295
55 4 2 3 1 187 297 188 299
56 4 2 3 1 197 297 184 298
57 4 2 3 1 187 295 297 299
58 4 2 3 1 222 195 190 181
59 4 2 3 1 23 293 131 76
60 4 2 3 1 134 31 79 294
61 4 2 3 1 225 243 298 301
62 4 2 3 1 184 298 297 300
63 4 2 3 1 231 210 250 181
64 4 2 3 1 184 297 197 300
65 4 2 3 1 187 297 295 300
66 4 2 3 1 214 97 237 281
67 4 2 3 1 187 67 66 295
68 4 2 3 1 270 295 214 300
69 4 2 3 1 190 299 196 301
70 4 2 3 1 225 298 297 301
71 4 2 3 1 184 296 298 300
72 4 2 3 1 242 222 223 301
73 4 2 3 1 236 297 225 298
74 4 2 3 1 179 195 190 222
75 4 2 3 1 214 97 281 270
76 4 2 3 1 67 265 66 295
77 4 2 3 1 246 67 193 295
78 4 2 3 1 210 250 181 247
79 4 2 3 1 242 210 222 299
80 4 2 3 1 249 295 182 299
81 4 2 3 1 272 244 237 295
82 4 2 3 1 66 67 276 265
83 4 2 3 1 127 165 69 68
84 4 2 3 1 155 55 113 56
85 4 2 3 1 70 168 130 71
86 4 2 3 1 158 116 58 57
87 4 2 3 1 255 257 246 295
88 4 2 3 1 187 295 66 300
89 4 2 3 1 221 183 239 301
90 4 2 3 1 182 295 187 299
91 4 2 3 1 187 188 297 300
92 4 2 3 1 196 299 297 301
93 4 2 3 1 225 224 243 301
94 4 2 3 1 179 222 190 301
95 4 2 3 1 281 272 237 295
96 4 2 3 1 298 301 243 302
97 4 2 3 1 222 179 195 220
98 4 2 3 1 187 182 193 295
99 4 2 3 1 251 230 245 299
100 4 2 3 1 246 265 67 295
101 4 2 3 1 66 295 277 300
102 4 2 3 1 98 272 244 237
103 4 2 3 1 254 120 126 121
104 4 2 3 1 292 107 137 138
105 4 2 3 1 255 193 257 295
106 4 2 3 1 241 222 195 220
107 4 2 3 1 136 290 135 106
108 4 2 3 1 36 148 63 37
109 4 2 3 1 230 295 245 299
110 4 2 3 1 286 295 270 300
111 4 2 3 1 277 66 265 295
112 4 2 3 1 221 222 179 301
113 4 2 3 1 232 297 295 299
114 4 2 3 1 175 239 176 302
115 4 2 3 1 245 230 216 295
116 4 2 3 1 277 66 276 265
117 4 2 3 1 266 267 228 296
118 4 2 3 1 243 236 225 298
119 4 2 3 1 245 295 249 299
120 4 2 3 1 251 245 249 299
121 4 2 3 1 238 228 214 300
122 4 2 3 1 240 266 228 296
123 4 2 3 1 178 196 297 301
124 4 2 3 1 281 286 272 295
125 4 2 3 1 222 221 179 220
126 4 2 3 1 239 301 176 302
127 4 2 3 1 297 298 177 301
128 4 2 3 1 295 297 232 300
129 4 2 3 1 226 297 232 299
130 4 2 3 1 173 195 241 181
131 4 2 3 1 231 173 241 181
132 4 2 3 1 224 243 301 302
133 4 2 3 1 95 228 240 266
134 4 2 3 1 176 239 183 301
135 4 2 3 1 238 296 228 300
136 4 2 3 1 221 219 239 183
137 4 2 3 1 212 229 145 298
138 4 2 3 1 236 238 225 297
139 4 2 3 1 140 151 149 296
140 4 2 3 1 187 193 67 295
141 4 2 3 1 175 211 219 239
142 4 2 3 1 139 296 234 298
143 4 2 3 1 182 187 188 299
144 4 2 3 1 98 281 272 237
145 4 2 3 1 234 139 240 296
146 4 2 3 1 95 266 267 228
147 4 2 3 1 177 297 197 298
148 4 2 3 1 178 190 196 301
149 4 2 3 1 142 266 240 296
150 4 2 3 1 183 221 179 301
151 4 2 3 1 272 248 244 295
152 4 2 3 1 177 301 298 302
153 4 2 3 1 194 151 180 298
154 4 2 3 1 175 211 239 302
155 4 2 3 1 238 232 297 300
156 4 2 3 1 187 170 188 300
157 4 2 3 1 142 147 266 296
158 4 2 3 1 249 245 257 295
159 4 2 3 1 176 239 175 183
160 4 2 3 1 194 296 151 298
161 4 2 3 1 215 173 241 231
162 4 2 3 1 64 65 289 296
163 4 2 3 1 65 289 296 300
164 4 2 3 1 232 214 295 300
165 4 2 3 1 264 147 140 296
166 4 2 3 1 149 151 194 296
167 4 2 3 1 143 180 151 298
168 4 2 3 1 266 274 267 296
169 4 2 3 1 221 183 179 220
170 4 2 3 1 239 219 175 183
171 4 2 3 1 236 234 296 298
172 4 2 3 1 140 64 264 296
173 4 2 3 1 266 147 264 296
174 4 2 3 1 194 180 184 298
175 4 2 3 1 246 253 265 295
176 4 2 3 1 64 289 264 296
177 4 2 3 1 230 232 295 299
178 4 2 3 1 170 297 188 300
179 4 2 3 1 145 229 141 298
180 4 2 3 1 175 211 174 219
181 4 2 3 1 177 197 184 298
182 4 2 3 1 143 171 180 298
183 4 2 3 1 170 184 197 300
184 4 2 3 1 250 173 231 181
185 4 2 3 1 231 215 173 250
186 4 2 3 1 232 238 214 300
187 4 2 3 1 236 228 238 296
188 4 2 3 1 194 184 296 298
189 4 2 3 1 223 226 242 297
190 4 2 3 1 216 244 248 295
191 4 2 3 1 265 253 272 295
192 4 2 3 1 230 232 216 295
193 4 2 3 1 289 65 260 300
194 4 2 3 1 184 65 296 300
195 4 2 3 1 179 189 195 220
196 4 2 3 1 12 159 154 54
197 4 2 3 1 155 160 51 52
198 4 2 3 1 156 161 1 51
199 4 2 3 1 53 157 52 162
200 4 2 3 1 163 158 54 53
201 4 2 3 1 272 253 248 295
202 4 2 3 1 289 65 64 278
203 4 2 3 1 132 131 290 77
204 4 2 3 1 133 78 292 134
205 4 2 3 1 211 235 174 219
206 4 2 3 1 195 189 241 220
207 4 2 3 1 97 269 270 96
208 4 2 3 1 260 65 66 300
209 4 2 3 1 221 219 183 220
210 4 2 3 1 236 212 234 298
211 4 2 3 1 190 172 196 299
212 4 2 3 1 141 171 143 298
213 4 2 3 1 229 211 144 302
214 4 2 3 1 237 232 214 295
215 4 2 3 1 141 298 229 302
216 4 2 3 1 242 297 226 299
217 4 2 3 1 214 97 270 96
218 4 2 3 1 244 216 237 295
219 4 2 3 1 277 265 286 295
220 4 2 3 1 286 277 295 300
221 4 2 3 1 64 289 278 264
222 4 2 3 1 215 252 173 250
223 4 2 3 1 188 170 197 297
224 4 2 3 1 64 184 65 296
225 4 2 3 1 219 174 175 183
226 4 2 3 1 257 253 246 295
227 4 2 3 1 151 296 139 298
228 4 2 3 1 170 197 297 300
229 4 2 3 1 180 171 143 49
230 4 2 3 1 212 42 145 229
231 4 2 3 1 286 270 277 300
232 4 2 3 1 289 274 296 300
233 4 2 3 1 240 228 234 296
234 4 2 3 1 184 170 65 300
235 4 2 3 1 178 297 177 301
236 4 2 3 1 289 260 277 300
237 4 2 3 1 187 66 170 300
238 4 2 3 1 144 141 229 302
239 4 2 3 1 266 60 264 147
240 4 2 3 1 230 226 232 299
241 4 2 3 1 245 248 253 295
242 4 2 3 1 264 60 140 147
243 4 2 3 1 144 211 235 174
244 4 2 3 1 151 140 147 296
245 4 2 3 1 245 216 248 295
246 4 2 3 1 223 225 297 301
247 4 2 3 1 260 66 277 300
248 4 2 3 1 145 143 139 298
249 4 2 3 1 251 247 210 299
250 4 2 3 1 188 297 196 299
251 4 2 3 1 181 82 172 247
252 4 2 3 1 251 210 230 299
253 4 2 3 1 189 179 183 220
254 4 2 3 1 144 235 146 174
255 4 2 3 1 171 298 141 302
256 4 2 3 1 141 144 48 302
257 4 2 3 1 226 238 232 297
258 4 2 3 1 144 211 175 302
259 4 2 3 1 189 195 241 173
260 4 2 3 1 70 129 167 128
261 4 2 3 1 114 157 57 115
262 4 2 3 1 183 179 176 301
263 4 2 3 1 243 229 212 298
264 4 2 3 1 48 171 141 302
265 4 2 3 1 272 265 123 253
266 4 2 3 1 211 144 175 174
267 4 2 3 1 234 228 236 296
268 4 2 3 1 128 167 70 69
269 4 2 3 1 56 114 157 57
270 4 2 3 1 171 141 143 49
271 4 2 3 1 229 43 144 211
272 4 2 3 1 182 172 83 299
273 4 2 3 1 175 48 144 302
274 4 2 3 1 177 178 197 297
275 4 2 3 1 42 141 145 229
276 4 2 3 1 172 247 83 299
277 4 2 3 1 48 175 171 302
278 4 2 3 1 267 270 269 96
279 4 2 3 1 170 66 65 300
280 4 2 3 1 229 298 243 302
281 4 2 3 1 151 139 143 298
282 4 2 3 1 43 144 141 229
283 4 2 3 1 251 210 247 101
284 4 2 3 1 212 145 41 234
285 4 2 3 1 82 181 250 247
286 4 2 3 1 210 251 230 101
287 4 2 3 1 267 95 228 96
288 4 2 3 1 184 64 194 296
289 4 2 3 1 182 83 249 299
290 4 2 3 1 274 264 289 296
291 4 2 3 1 106 136 291 137
292 4 2 3 1 188 178 196 297
293 4 2 3 1 249 83 247 299
294 4 2 3 1 60 34 140 147
295 4 2 3 1 139 41 145 234
296 4 2 3 1 251 100 245 230
297 4 2 3 1 286 265 272 295
298 4 2 3 1 189 183 213 220
299 4 2 3 1 240 266 142 95
300 4 2 3 1 233 189 241 173
301 4 2 3 1 225 226 223 297
302 4 2 3 1 231 103 215 250
303 4 2 3 1 177 184 180 298
304 4 2 3 1 274 266 264 296
305 4 2 3 1 149 50 194 151
306 4 2 3 1 84 255 193 257
307 4 2 3 1 98 272 248 244
308 4 2 3 1 223 224 225 301
309 4 2 3 1 137 291 106 107
310 4 2 3 1 183 219 213 220
311 4 2 3 1 230 100 245 216
312 4 2 3 1 252 215 103 250
313 4 2 3 1 151 147 139 296
314 4 2 3 1 235 44 144 146
315 4 2 3 1 189 241 220 233
316 4 2 3 1 283 67 246 265
317 4 2 3 1 223 222 221 301
318 4 2 3 1 270 274 277 300
319 4 2 3 1 218 174 235 219
320 4 2 3 1 61 266 262 95
321 4 2 3 1 231 210 102 250
322 4 2 3 1 144 211 44 235
323 4 2 3 1 177 180 171 298
324 4 2 3 1 252 173 250 81
325 4 2 3 1 213 169 183 189
326 4 2 3 1 226 225 238 297
327 4 2 3 1 219 218 174 183
328 4 2 3 1 171 177 298 302
329 4 2 3 1 182 188 196 299
330 4 2 3 1 186 174 218 183
331 4 2 3 1 289 277 274 300
332 4 2 3 1 181 250 173 81
333 4 2 3 1 241 233 173 215
334 4 2 3 1 213 169 186 183
335 4 2 3 1 143 145 141 298
336 4 2 3 1 210 102 250 247
337 4 2 3 1 236 243 212 298
338 4 2 3 1 140 64 282 264
339 4 2 3 1 146 47 144 174
340 4 2 3 1 11 140 149 64
341 4 2 3 1 132 78 291 133
342 4 2 3 1 18 75 164 206
343 4 2 3 1 4 72 209 166
344 4 2 3 1 248 216 99 244
345 4 2 3 1 188 197 178 297
346 4 2 3 1 245 253 257 295
347 4 2 3 1 269 270 281 97
348 4 2 3 1 266 61 142 95
349 4 2 3 1 132 78 77 291
350 4 2 3 1 176 301 177 302
351 4 2 3 1 216 232 237 295
352 4 2 3 1 217 22 21 105
353 4 2 3 1 98 281 237 97
354 4 2 3 1 224 301 239 302
355 4 2 3 1 189 233 185 173
356 4 2 3 1 240 139 234 40
357 4 2 3 1 229 239 211 302
358 4 2 3 1 67 246 16 283
359 4 2 3 1 213 189 233 185
360 4 2 3 1 190 178 179 301
361 4 2 3 1 248 272 98 263
362 4 2 3 1 193 182 84 249
363 4 2 3 1 266 60 147 142
364 4 2 3 1 292 185 233 108
365 4 2 3 1 257 193 84 249
366 4 2 3 1 45 217 152 146
367 4 2 3 1 146 217 152 192
368 4 2 3 1 253 123 272 248
369 4 2 3 1 78 185 292 79
370 4 2 3 1 220 213 189 233
371 4 2 3 1 262 266 267 95
372 4 2 3 1 59 140 282 264
373 4 2 3 1 249 247 251 299
374 4 2 3 1 272 281 98 263
375 4 2 3 1 47 175 144 174
376 4 2 3 1 242 230 210 299
377 4 2 3 1 185 233 107 292
378 4 2 3 1 173 233 191 215
379 4 2 3 1 242 226 230 299
380 4 2 3 1 64 11 140 282
381 4 2 3 1 252 173 191 215
382 4 2 3 1 189 213 169 185
383 4 2 3 1 172 182 196 299
384 4 2 3 1 108 27 32 227
385 4 2 3 1 176 178 177 301
386 4 2 3 1 229 243 224 302
387 4 2 3 1 227 252 191 215
388 4 2 3 1 216 248 99 245
389 4 2 3 1 246 122 283 265
390 4 2 3 1 186 290 76 77
391 4 2 3 1 227 258 252 104
392 4 2 3 1 258 252 191 227
393 4 2 3 1 146 235 217 192
394 4 2 3 1 221 239 224 301
395 4 2 3 1 215 227 252 104
396 4 2 3 1 291 77 169 78
397 4 2 3 1 240 142 139 40
398 4 2 3 1 217 45 235 146
399 4 2 3 1 227 191 233 215
400 4 2 3 1 98 248 25 244
401 4 2 3 1 106 186 290 218
402 4 2 3 1 191 185 233 173
403 4 2 3 1 261 167 129 128
404 4 2 3 1 114 157 115 260
405 4 2 3 1 213 233 107 185
406 4 2 3 1 162 115 157 260
407 4 2 3 1 98 25 248 263
408 4 2 3 1 157 114 162 260
409 4 2 3 1 43 141 42 229
410 4 2 3 1 233 107 292 108
411 4 2 3 1 62 148 271 63
412 4 2 3 1 105 290 186 218
413 4 2 3 1 285 164 206 256
414 4 2 3 1 118 123 253 248
415 4 2 3 1 223 221 224 301
416 4 2 3 1 235 146 174 192
417 4 2 3 1 158 276 116 115
418 4 2 3 1 129 168 279 130
419 4 2 3 1 262 8 61 95
420 4 2 3 1 116 276 158 163
421 4 2 3 1 142 61 8 95
422 4 2 3 1 113 160 155 278
423 4 2 3 1 167 205 74 73
424 4 2 3 1 165 128 275 127
425 4 2 3 1 107 169 213 185
426 4 2 3 1 73 165 204 72
427 4 2 3 1 74 203 168 75
428 4 2 3 1 49 171 141 48
429 4 2 3 1 275 73 128 165
430 4 2 3 1 224 239 229 302
431 4 2 3 1 113 155 114 278
432 4 2 3 1 57 158 116 115
433 4 2 3 1 129 70 168 130
434 4 2 3 1 276 158 163 115
435 4 2 3 1 284 150 209 166
436 4 2 3 1 140 59 60 264
437 4 2 3 1 131 76 290 77
438 4 2 3 1 114 155 113 56
439 4 2 3 1 165 69 128 127
440 4 2 3 1 213 291 169 107
441 4 2 3 1 218 106 186 213
442 4 2 3 1 147 60 34 142
443 4 2 3 1 254 125 273 126
444 4 2 3 1 162 65 66 260
445 4 2 3 1 84 182 83 249
446 4 2 3 1 79 292 78 134
447 4 2 3 1 152 46 146 192
448 4 2 3 1 16 159 67 283
449 4 2 3 1 171 176 177 302
450 4 2 3 1 114 155 160 278
451 4 2 3 1 61 8 35 142
452 4 2 3 1 284 150 38 209
453 4 2 3 1 106 291 169 213
454 4 2 3 1 164 285 30 256
455 4 2 3 1 85 285 206 256
456 4 2 3 1 290 105 135 106
457 4 2 3 1 82 83 172 247
458 4 2 3 1 11 149 194 64
459 4 2 3 1 163 67 276 66
460 4 2 3 1 290 105 106 218
461 4 2 3 1 139 41 234 40
462 4 2 3 1 106 169 186 213
463 4 2 3 1 192 174 235 218
464 4 2 3 1 107 292 108 138
465 4 2 3 1 140 59 34 60
466 4 2 3 1 150 284 15 166
467 4 2 3 1 80 252 191 258
468 4 2 3 1 207 254 198 86
469 4 2 3 1 199 148 208 39
470 4 2 3 1 210 102 247 101
471 4 2 3 1 161 11 64 282
472 4 2 3 1 65 160 64 278
473 4 2 3 1 235 217 192 218
474 4 2 3 1 131 76 135 290
475 4 2 3 1 165 275 73 204
476 4 2 3 1 79 138 292 134
477 4 2 3 1 261 200 280 201
478 4 2 3 1 281 98 287 97
479 4 2 3 1 267 262 95 96
480 4 2 3 1 129 74 203 168
481 4 2 3 1 143 50 180 49
482 4 2 3 1 174 192 186 218
483 4 2 3 1 96 267 262 268
484 4 2 3 1 260 66 276 277
485 4 2 3 1 59 153 14 282
486 4 2 3 1 179 178 176 301
487 4 2 3 1 175 176 171 302
488 4 2 3 1 200 261 205 201
489 4 2 3 1 259 122 29 283
490 4 2 3 1 213 106 291 107
491 4 2 3 1 148 208 271 63
492 4 2 3 1 16 259 159 283
493 4 2 3 1 153 11 161 282
494 4 2 3 1 240 142 8 95
495 4 2 3 1 279 261 280 201
496 4 2 3 1 217 293 152 192
497 4 2 3 1 279 205 261 201
498 4 2 3 1 168 203 129 279
499 4 2 3 1 262 95 96 268
500 4 2 3 1 208 271 87 62
501 4 2 3 1 284 271 275 199
502 4 2 3 1 202 275 205 288
503 4 2 3 1 261 205 275 288
504 4 2 3 1 191 173 252 80
505 4 2 3 1 20 98 263 25
506 4 2 3 1 25 20 125 263
507 4 2 3 1 216 100 245 99
508 4 2 3 1 263 20 125 90
509 4 2 3 1 254 120 125 126
510 4 2 3 1 174 146 46 192
511 4 2 3 1 271 208 148 62
512 4 2 3 1 129 74 205 279
513 4 2 3 1 173 252 80 81
514 4 2 3 1 205 275 73 128
515 4 2 3 1 98 20 263 90
516 4 2 3 1 207 254 273 126
517 4 2 3 1 62 271 87 262
518 4 2 3 1 67 283 276 265
519 4 2 3 1 254 207 198 126
520 4 2 3 1 81 181 250 82
521 4 2 3 1 262 271 87 268
522 4 2 3 1 25 125 124 263
523 4 2 3 1 208 148 199 63
524 4 2 3 1 269 89 280 88
525 4 2 3 1 87 8 5 62
526 4 2 3 1 153 14 33 59
527 4 2 3 1 129 205 261 279
528 4 2 3 1 38 199 284 209
529 4 2 3 1 150 37 284 38
530 4 2 3 1 275 205 261 128
531 4 2 3 1 117 122 29 259
532 4 2 3 1 294 258 191 227
533 4 2 3 1 162 66 115 260
534 4 2 3 1 88 280 269 268
535 4 2 3 1 118 123 248 119
536 4 2 3 1 206 198 285 85
537 4 2 3 1 256 85 285 121
538 4 2 3 1 62 8 61 262
539 4 2 3 1 211 43 144 44
540 4 2 3 1 36 148 62 63
541 4 2 3 1 16 84 255 193
542 4 2 3 1 11 149 50 194
543 4 2 3 1 276 116 67 163
544 4 2 3 1 205 275 202 204
545 4 2 3 1 62 87 8 95
546 4 2 3 1 125 20 207 90
547 4 2 3 1 48 47 175 144
548 4 2 3 1 284 275 204 199
549 4 2 3 1 74 129 203 279
550 4 2 3 1 262 62 8 95
551 4 2 3 1 125 207 273 90
552 4 2 3 1 87 62 262 95
553 4 2 3 1 273 263 125 90
554 4 2 3 1 202 205 200 288
555 4 2 3 1 46 152 10 192
556 4 2 3 1 162 114 65 260
557 4 2 3 1 35 34 60 142
558 4 2 3 1 275 205 73 204
559 4 2 3 1 281 98 263 287
560 4 2 3 1 230 251 100 101
561 4 2 3 1 74 129 70 168
562 4 2 3 1 285 279 273 198
563 4 2 3 1 203 205 74 279
564 4 2 3 1 200 280 89 88
565 4 2 3 1 115 163 276 66
566 4 2 3 1 199 271 208 63
567 4 2 3 1 42 145 41 212
568 4 2 3 1 69 128 73 165
569 4 2 3 1 202 275 271 199
570 4 2 3 1 103 231 102 250
571 4 2 3 1 208 87 5 62
572 4 2 3 1 51 156 161 55
573 4 2 3 1 54 159 154 58
574 4 2 3 1 146 46 47 174
575 4 2 3 1 279 203 205 201
576 4 2 3 1 278 282 64 264
577 4 2 3 1 261 167 205 129
578 4 2 3 1 80 191 19 258
579 4 2 3 1 205 167 261 128
580 4 2 3 1 207 254 125 273
581 4 2 3 1 200 280 88 268
582 4 2 3 1 160 113 64 278
583 4 2 3 1 88 96 87 268
584 4 2 3 1 95 262 87 268
585 4 2 3 1 198 207 273 126
586 4 2 3 1 96 95 87 268
587 4 2 3 1 65 114 160 278
588 4 2 3 1 268 271 87 202
589 4 2 3 1 89 90 287 201
590 4 2 3 1 275 202 204 199
591 4 2 3 1 96 269 267 268
592 4 2 3 1 200 280 268 288
593 4 2 3 1 199 284 271 63
594 4 2 3 1 276 115 66 260
595 4 2 3 1 74 205 167 129
596 4 2 3 1 87 88 268 202
597 4 2 3 1 167 205 73 128
598 4 2 3 1 252 215 104 103
599 4 2 3 1 65 114 278 260
600 4 2 3 1 279 280 273 201
601 4 2 3 1 269 97 89 96
602 4 2 3 1 89 269 96 88
603 4 2 3 1 280 287 273 201
604 4 2 3 1 273 285 198 126
605 4 2 3 1 37 199 284 38
606 4 2 3 1 278 289 65 260
607 4 2 3 1 201 273 279 198
608 4 2 3 1 44 235 45 146
609 4 2 3 1 285 203 279 198
610 4 2 3 1 268 88 200 288
611 4 2 3 1 205 261 200 288
612 4 2 3 1 38 150 4 209
613 4 2 3 1 85 206 18 256
614 4 2 3 1 121 85 198 86
615 4 2 3 1 37 39 199 38
616 4 2 3 1 28 98 20 25
617 4 2 3 1 85 198 285 121
618 4 2 3 1 90 273 287 201
619 4 2 3 1 291 77 132 136
620 4 2 3 1 133 291 137 78
621 4 2 3 1 279 168 203 130
622 4 2 3 1 8 5 6 87
623 4 2 3 1 98 28 20 112
624 4 2 3 1 28 24 20 112
625 4 2 3 1 90 98 20 112
626 4 2 3 1 24 90 20 112
627 4 2 3 1 24 90 112 94
628 4 2 3 1 90 93 97 94
629 4 2 3 1 93 112 97 94
630 4 2 3 1 112 90 97 94
631 4 2 3 1 204 165 275 127
632 4 2 3 1 59 34 33 140
633 4 2 3 1 280 89 287 201
634 4 2 3 1 117 122 246 118
635 4 2 3 1 268 271 202 288
636 4 2 3 1 209 150 4 166
637 4 2 3 1 206 164 18 256
638 4 2 3 1 97 90 287 89
639 4 2 3 1 287 98 90 97
640 4 2 3 1 92 109 96 110
641 4 2 3 1 88 109 87 96
642 4 2 3 1 91 88 109 87
643 4 2 3 1 8 6 7 91
644 4 2 3 1 88 91 109 92
645 4 2 3 1 88 109 96 92
646 4 2 3 1 93 97 96 89
647 4 2 3 1 97 93 96 111
648 4 2 3 1 91 8 6 87
649 4 2 3 1 96 111 93 110
650 4 2 3 1 109 87 8 91
651 4 2 3 1 109 8 7 91
652 4 2 3 1 93 96 92 89
653 4 2 3 1 93 96 110 92
654 4 2 3 1 112 93 97 111
655 4 2 3 1 90 93 89 97
656 4 2 3 1 88 96 89 92
657 4 2 3 1 90 112 97 98
658 4 2 3 1 201 279 203 198
659 4 2 3 1 109 96 95 87
660 4 2 3 1 87 109 8 95
661 4 2 3 1 269 281 287 97
662 4 2 3 1 90 273 263 287
663 4 2 3 1 124 125 25 119
664 4 2 3 1 280 200 261 288
665 4 2 3 1 217 9 45 152
666 4 2 3 1 130 203 285 206
667 4 2 3 1 284 204 127 209
668 4 2 3 1 202 200 88 288
669 4 2 3 1 8 40 142 240
670 4 2 3 1 293 21 217 152
671 4 2 3 1 125 120 25 119
672 4 2 3 1 282 64 161 55
673 4 2 3 1 258 31 32 294
674 4 2 3 1 23 21 293 152
675 4 2 3 1 25 99 244 248
676 4 2 3 1 283 116 67 276
677 4 2 3 1 167 74 129 70
678 4 2 3 1 269 96 88 268
679 4 2 3 1 209 72 68 166
680 4 2 3 1 164 75 71 206
681 4 2 3 1 128 73 167 69
682 4 2 3 1 202 271 275 288
683 4 2 3 1 199 204 284 209
684 4 2 3 1 227 26 258 104
685 4 2 3 1 61 35 8 62
686 4 2 3 1 198 285 203 206
687 4 2 3 1 32 258 294 227
688 4 2 3 1 88 268 202 288
689 4 2 3 1 35 36 8 62
690 4 2 3 1 287 269 89 280
691 4 2 3 1 275 204 127 284
692 4 2 3 1 113 282 64 278
693 4 2 3 1 202 271 208 199
694 4 2 3 1 207 273 201 198
695 4 2 3 1 285 279 203 130
696 4 2 3 1 89 280 200 201
697 4 2 3 1 148 5 208 39
698 4 2 3 1 254 207 20 86
699 4 2 3 1 161 64 51 55
700 4 2 3 1 1 161 156 153
701 4 2 3 1 159 259 12 154
702 4 2 3 1 87 271 208 202
703 4 2 3 1 77 290 132 136
704 4 2 3 1 137 133 78 292
705 4 2 3 1 63 199 284 37
706 4 2 3 1 207 273 90 201
707 4 2 3 1 90 263 98 287
708 4 2 3 1 126 285 198 121
709 4 2 3 1 287 269 97 89
710 4 2 3 1 64 282 113 55
711 4 2 3 1 76 293 131 135
712 4 2 3 1 134 79 138 294
713 4 2 3 1 164 17 18 256
714 4 2 3 1 3 4 150 166
715 4 2 3 1 32 26 19 258
716 4 2 3 1 10 9 21 152
717 4 2 3 1 217 21 9 152
718 4 2 3 1 13 12 259 154
719 4 2 3 1 2 1 156 153
720 4 2 3 1 30 17 164 256
721 4 2 3 1 150 15 3 166
722 4 2 3 1 1 11 161 153
723 4 2 3 1 259 12 16 159
724 4 2 3 1 25 20 120 125
725 4 2 3 1 258 32 26 227
726 4 2 3 1 21 9 22 217
727 4 2 3 1 36 5 8 62
728 4 2 3 1 19 31 32 258
729 4 2 3 1 23 10 21 152
730 4 2 3 1 27 26 32 227
731 4 2 3 1 2 14 33 153
732 4 2 3 1 117 29 13 259
733 4 2 3 1 30 17 71 164
734 4 2 3 1 30 17 256 121
735 4 2 3 1 37 15 3 150
736 4 2 3 1 3 15 68 166
737 4 2 3 1 299 181 247 210
738 4 2 3 1 299 247 181 172
739 4 2 3 1 300 238 236 297
740 4 2 3 1 236 238 300 296
741 4 2 3 1 236 298 300 297
742 4 2 3 1 300 298 236 296
743 4 2 3 1 241 181 222 231
744 4 2 3 1 222 181 241 195
745 4 2 3 1 246 193 16 255
746 4 2 3 1 16 193 246 67
747 4 2 3 1 301 242 297 223
748 4 2 3 1 301 297 242 299
749 4 2 3 1 228 96 300 267
750 4 2 3 1 228 300 96 214
751 4 2 3 1 270 300 96 267
752 4 2 3 1 270 96 300 214
753 4 2 3 1 149 64 296 194
754 4 2 3 1 296 64 149 140
755 4 2 3 1 193 249 295 182
756 4 2 3 1 295 249 193 257
757 4 2 3 1 296 142 139 240
758 4 2 3 1 296 139 142 147
759 4 2 3 1 180 151 50 143
760 4 2 3 1 180 50 151 194
761 4 2 3 1 234 145 298 212
762 4 2 3 1 234 298 145 139
763 4 2 3 1 253 123 246 265
764 4 2 3 1 253 246 123 118
765 4 2 3 1 122 246 123 265
766 4 2 3 1 122 123 246 118
767 4 2 3 1 183 218 213 219
768 4 2 3 1 183 213 218 186
769 4 2 3 1 79 292 191 185
770 4 2 3 1 79 191 292 138
771 4 2 3 1 59 153 11 33
772 4 2 3 1 11 153 59 282
773 4 2 3 1 11 140 59 33
774 4 2 3 1 59 140 11 282
775 4 2 3 1 259 122 16 117
776 4 2 3 1 259 16 122 283
777 4 2 3 1 246 16 122 117
778 4 2 3 1 246 122 16 283
779 4 2 3 1 76 192 290 186
780 4 2 3 1 60 61 142 266
781 4 2 3 1 60 142 61 35
782 4 2 3 1 23 76 192 293
783 4 2 3 1 192 76 23 10
784 4 2 3 1 192 152 23 293
785 4 2 3 1 23 152 192 10
786 4 2 3 1 31 79 191 19
787 4 2 3 1 191 79 31 294
788 4 2 3 1 191 258 31 19
789 4 2 3 1 31 258 191 294
790 4 2 3 1 291 136 169 77
791 4 2 3 1 291 169 136 106
792 4 2 3 1 169 136 186 77
793 4 2 3 1 169 186 136 106
794 4 2 3 1 186 136 290 77
795 4 2 3 1 186 290 136 106
796 4 2 3 1 291 137 169 107
797 4 2 3 1 291 169 137 78
798 4 2 3 1 169 137 185 107
799 4 2 3 1 169 185 137 78
800 4 2 3 1 185 137 292 107
801 4 2 3 1 185 292 137 78
802 4 2 3 1 124 123 248 272
803 4 2 3 1 248 123 124 119
804 4 2 3 1 124 25 248 119
805 4 2 3 1 55 14 282 113
806 4 2 3 1 283 29 58 116
807 4 2 3 1 30 121 285 126
808 4 2 3 1 285 121 30 256
809 4 2 3 1 37 15 284 63
810 4 2 3 1 284 15 37 150
811 4 2 3 1 138 191 294 79
812 4 2 3 1 135 293 192 76
813 4 2 3 1 192 290 135 76
814 4 2 3 1 68 209 204 72
815 4 2 3 1 204 209 68 127
816 4 2 3 1 204 165 68 72
817 4 2 3 1 68 165 204 127
818 4 2 3 1 71 206 203 130
819 4 2 3 1 203 206 71 75
820 4 2 3 1 203 168 71 130
821 4 2 3 1 71 168 203 75
822 4 2 3 1 254 125 20 207
823 4 2 3 1 20 125 254 120
824 4 2 3 1 62 148 5 208
825 4 2 3 1 62 5 148 36
826 4 2 3 1 130 206 164 71
827 4 2 3 1 164 206 130 285
828 4 2 3 1 164 30 130 71
829 4 2 3 1 130 30 164 285
830 4 2 3 1 198 121 254 126
831 4 2 3 1 254 121 198 86
832 4 2 3 1 127 209 166 284
833 4 2 3 1 166 209 127 68
834 4 2 3 1 166 15 127 284
835 4 2 3 1 127 15 166 68
836 4 2 3 1 37 199 148 63
837 4 2 3 1 37 148 199 39
838 4 2 3 1 58 158 163 116
839 4 2 3 1 163 158 58 54
840 4 2 3 1 58 163 67 116
841 4 2 3 1 67 163 58 54
842 4 2 3 1 58 67 283 116
843 4 2 3 1 155 55 160 113
844 4 2 3 1 155 160 55 51
845 4 2 3 1 64 160 55 113
846 4 2 3 1 64 55 160 51
847 4 2 3 1 153 282 55 14
848 4 2 3 1 153 2 55 156
849 4 2 3 1 55 2 153 14
850 4 2 3 1 135 21 217 293
851 4 2 3 1 217 21 135 105
852 4 2 3 1 217 192 135 293
853 4 2 3 1 138 32 227 108
854 4 2 3 1 227 32 138 294
855 4 2 3 1 138 191 227 294
856 4 2 3 1 58 283 259 29
857 4 2 3 1 259 13 58 29
858 4 2 3 1 58 13 259 154
859 4 2 3 1 292 138 185 108
860 4 2 3 1 185 138 292 191
861 4 2 3 1 227 233 185 108
862 4 2 3 1 185 233 227 191
863 4 2 3 1 138 227 185 108
864 4 2 3 1 185 227 138 191
865 4 2 3 1 248 263 124 272
866 4 2 3 1 248 124 263 25
867 4 2 3 1 158 57 163 115
868 4 2 3 1 158 163 57 53
869 4 2 3 1 57 157 162 115
870 4 2 3 1 57 162 157 53
871 4 2 3 1 66 57 162 115
872 4 2 3 1 66 162 57 53
873 4 2 3 1 163 57 66 115
874 4 2 3 1 163 66 57 53
875 4 2 3 1 56 155 160 114
876 4 2 3 1 160 155 56 52
877 4 2 3 1 157 56 162 114
878 4 2 3 1 162 56 157 52
879 4 2 3 1 56 65 162 114
880 4 2 3 1 162 65 56 52
881 4 2 3 1 56 160 65 114
882 4 2 3 1 65 160 56 52
883 4 2 3 1 290 135 186 192
884 4 2 3 1 290 186 135 105
885 4 2 3 1 218 186 217 192
886 4 2 3 1 218 217 186 105
887 4 2 3 1 186 135 217 192
888 4 2 3 1 186 217 135 105
889 4 2 3 1 58 67 159 283
890 4 2 3 1 58 159 67 54
891 4 2 3 1 55 153 161 282
892 4 2 3 1 161 153 55 156
893 4 2 3 1 259 58 159 283
894 4 2 3 1 159 58 259 154
$EndElements
