$MeshFormat
2.2 0 8
$EndMeshFormat
$PhysicalNames
3
2 1 "Fixed"
2 2 "Load"
3 3 "Volume"
$EndPhysicalNames
$Nodes
504
1 2.5 -2.5 -4.440892098501e-16
2 2.5 -97.5 -4.440892098501e-16
3 117.5 -97.5 -4.440892098501e-16
4 117.5 -2.5 -4.440892098501e-16
5 -4.440892098501e-16 -97.5 2.5
6 -4.440892098501e-16 -2.5 2.5
7 2.5 0 2.5
8 117.5 0 2.5
9 117.5 -100 2.5
10 2.5 -100 2.5
11 120 -2.5 2.5
12 120 -97.5 2.5
13 -4.440892098501e-16 -2.5 127.5
14 -4.440892098501e-16 -97.5 127.5
15 117.5 0 7.5
16 110.5 0 7.5
17 105.5 0 12.5
18 105.5 0 15.5
19 100.5 0 15.5
20 100.5 0 12.5
21 95.5 0 7.5
22 86.43592583113499 0 7.5
23 82.117031326643 0 9.980644872379999
24 13.564074168865 0 127.5
25 2.5 0 127.5
26 117.5 -100 7.5
27 110.5 -100 7.5
28 105.5 -100 12.5
29 105.5 -100 15.5
30 100.5 -100 15.5
31 100.5 -100 12.5
32 95.5 -100 7.5
33 86.43592583113499 -100 7.5
34 82.117031326643 -100 9.980644872379999
35 13.564074168865 -100 127.5
36 2.5 -100 127.5
37 120 -97.5 7.5
38 120 -2.5 7.5
39 2.5 -2.5 130
40 2.5 -97.5 130
41 13.564074168865 -2.5 130
42 117.5 -2.5 10
43 110.5 -2.5 10
44 84.276478578889 -2.5 11.24032243619
45 15.723521421111 -2.5 128.75967756381
46 108 -2.5 12.5
47 86.43592583113499 -2.5 10
48 108 -2.5 15.5
49 95.5 -2.5 10
50 105.5 -2.5 18
51 100.5 -2.5 18
52 98 -2.5 12.5
53 98 -2.5 15.5
54 13.564074168865 -97.5 130
55 117.5 -97.5 10
56 110.5 -97.5 10
57 84.276478578889 -97.5 11.24032243619
58 15.723521421111 -97.5 128.75967756381
59 108 -97.5 12.5
60 86.43592583113499 -97.5 10
61 108 -97.5 15.5
62 95.5 -97.5 10
63 105.5 -97.5 18
64 100.5 -97.5 18
65 98 -97.5 12.5
66 98 -97.5 15.5
67 2.5 -21.5 -4.440892098501e-16
68 2.5 -40.50000000000004 -4.440892098501e-16
69 2.5 -59.50000000000008 -4.440892098501e-16
70 2.5 -78.50000000000013 -4.440892098501e-16
71 21.66666666666661 -97.5 -4.440892098501e-16
72 40.83333333333322 -97.5 -4.440892098501e-16
73 59.99999999999984 -97.5 -4.440892098501e-16
74 79.16666666666644 -97.5 -4.440892098501e-16
75 98.3333333333332 -97.5 -4.440892098501e-16
76 117.5 -21.5 -4.440892098501e-16
77 117.5 -40.50000000000004 -4.440892098501e-16
78 117.5 -59.50000000000008 -4.440892098501e-16
79 117.5 -78.50000000000013 -4.440892098501e-16
80 21.66666666666661 -2.5 -4.440892098501e-16
81 40.83333333333322 -2.5 -4.440892098501e-16
82 59.99999999999984 -2.5 -4.440892098501e-16
83 79.16666666666644 -2.5 -4.440892098501e-16
84 98.3333333333332 -2.5 -4.440892098501e-16
85 0.7322330470336311 -97.5 0.7322330470336309
86 -4.440892098501e-16 -21.5 2.5
87 -4.440892098501e-16 -40.50000000000004 2.5
88 -4.440892098501e-16 -59.50000000000008 2.5
89 -4.440892098501e-16 -78.50000000000013 2.5
90 0.7322330470336311 -2.5 0.7322330470336309
91 2.5 -0.7322330470336307 0.7322330470336316
92 21.66666666666661 4.440892098501e-16 2.5
93 40.83333333333322 4.440892098501e-16 2.5
94 59.99999999999984 4.440892098501e-16 2.5
95 79.16666666666644 4.440892098501e-16 2.5
96 98.3333333333332 4.440892098501e-16 2.5
97 117.5 -0.7322330470336307 0.7322330470336316
98 117.5 -99.26776695296637 0.7322330470336316
99 21.66666666666661 -100 2.5
100 40.83333333333322 -100 2.5
101 59.99999999999984 -100 2.5
102 79.16666666666644 -100 2.5
103 98.3333333333332 -100 2.5
104 2.5 -99.26776695296637 0.7322330470336316
105 119.2677669529664 -2.5 0.7322330470336311
106 120 -21.5 2.5
107 120 -40.50000000000004 2.5
108 120 -59.50000000000008 2.5
109 120 -78.50000000000013 2.5
110 119.2677669529664 -97.5 0.7322330470336311
111 0.7322330470336316 -0.7322330470336307 2.5
112 0.7322330470336316 -99.26776695296637 2.5
113 -4.440892098501e-16 -2.5 109.6428571428572
114 -4.440892098501e-16 -2.5 91.78571428571439
115 -4.440892098501e-16 -2.5 73.92857142857159
116 -4.440892098501e-16 -2.5 56.0714285714288
117 -4.440892098501e-16 -2.5 38.21428571428592
118 -4.440892098501e-16 -2.5 20.35714285714296
119 -4.440892098501e-16 -21.5 127.5
120 -4.440892098501e-16 -40.50000000000004 127.5
121 -4.440892098501e-16 -59.50000000000008 127.5
122 -4.440892098501e-16 -78.50000000000013 127.5
123 -4.440892098501e-16 -97.5 20.35714285714281
124 -4.440892098501e-16 -97.5 38.21428571428561
125 -4.440892098501e-16 -97.5 56.07142857142841
126 -4.440892098501e-16 -97.5 73.9285714285712
127 -4.440892098501e-16 -97.5 91.78571428571408
128 -4.440892098501e-16 -97.5 109.642857142857
129 106.9644660940673 0 8.964466094067262
130 99.03553390593274 0 8.964466094067262
131 72.32375173267221 4.440892098501e-16 26.76912417632426
132 62.53047213870147 4.440892098501e-16 43.55760348026854
133 52.73719254473075 4.440892098501e-16 60.3460827842128
134 42.94391295076002 4.440892098501e-16 77.13456208815705
135 33.15063335678926 4.440892098501e-16 93.92304139210137
136 23.35735376281851 4.440892098501e-16 110.7115206960457
137 2.5 4.440892098501e-16 109.6428571428572
138 2.5 4.440892098501e-16 91.78571428571439
139 2.5 4.440892098501e-16 73.92857142857159
140 2.5 4.440892098501e-16 56.0714285714288
141 2.5 4.440892098501e-16 38.21428571428592
142 2.5 4.440892098501e-16 20.35714285714296
143 119.2677669529664 -0.7322330470336307 2.5
144 106.9644660940673 -100 8.964466094067262
145 99.03553390593274 -100 8.964466094067262
146 72.32375173267221 -100 26.76912417632426
147 62.53047213870147 -100 43.55760348026854
148 52.73719254473075 -100 60.3460827842128
149 42.94391295076002 -100 77.13456208815705
150 33.15063335678926 -100 93.92304139210137
151 23.35735376281851 -100 110.7115206960457
152 2.5 -100 20.35714285714281
153 2.5 -100 38.21428571428561
154 2.5 -100 56.07142857142841
155 2.5 -100 73.9285714285712
156 2.5 -100 91.78571428571408
157 2.5 -100 109.642857142857
158 119.2677669529664 -99.26776695296637 2.5
159 120 -21.5 7.5
160 120 -40.50000000000004 7.5
161 120 -59.50000000000008 7.5
162 120 -78.50000000000013 7.5
163 0.7322330470336316 -0.7322330470336307 127.5
164 0.7322330470336316 -99.26776695296637 127.5
165 2.5 -21.5 130
166 2.5 -40.50000000000004 130
167 2.5 -59.50000000000008 130
168 2.5 -78.50000000000013 130
169 0.7322330470336311 -2.5 129.2677669529664
170 0.7322330470336311 -97.5 129.2677669529664
171 119.2677669529664 -0.7322330470336307 7.5
172 13.564074168865 -0.7322330470336307 129.2677669529664
173 2.5 -0.7322330470336307 129.2677669529664
174 117.5 -0.7322330470336307 9.267766952966369
175 110.5 -0.7322330470336311 9.267766952966369
176 83.64399112232074 -0.7322330470336311 10.87137141985897
177 15.09103396454273 -0.7322330470336307 128.390726547479
178 74.4831989849182 -2.5 28.02880174013426
179 64.68991939094747 -2.5 44.81728104407854
180 54.89663979697674 -2.5 61.60576034802281
181 45.10336020300601 -2.5 78.39423965196707
182 35.31008060903526 -2.5 95.18271895591137
183 25.5168010150645 -2.5 111.9711982598557
184 107.2677669529664 -0.7322330470336311 12.5
185 108.7322330470336 -2.5 10.73223304703363
186 86.43592583113499 -0.7322330470336311 9.267766952966369
187 107.2677669529664 -0.7322330470336307 15.5
188 95.5 -0.7322330470336311 9.267766952966369
189 105.5 -0.7322330470336307 17.26776695296637
190 100.5 -0.7322330470336307 17.26776695296637
191 98.73223304703363 -0.7322330470336311 12.5
192 97.26776695296637 -2.5 10.73223304703363
193 98.73223304703363 -0.7322330470336307 15.5
194 119.2677669529664 -99.26776695296637 7.5
195 2.5 -99.26776695296637 129.2677669529664
196 13.564074168865 -99.26776695296637 129.2677669529664
197 110.5 -99.26776695296637 9.267766952966369
198 117.5 -99.26776695296637 9.267766952966369
199 74.4831989849182 -97.5 28.02880174013426
200 64.68991939094747 -97.5 44.81728104407854
201 54.89663979697674 -97.5 61.60576034802281
202 45.10336020300601 -97.5 78.39423965196707
203 35.31008060903526 -97.5 95.18271895591137
204 25.5168010150645 -97.5 111.9711982598557
205 15.09103396454273 -99.26776695296637 128.390726547479
206 83.64399112232074 -99.26776695296637 10.87137141985897
207 108.7322330470336 -97.5 10.73223304703363
208 107.2677669529664 -99.26776695296637 12.5
209 86.43592583113499 -99.26776695296637 9.267766952966369
210 107.2677669529664 -99.26776695296637 15.5
211 95.5 -99.26776695296637 9.267766952966369
212 100.5 -99.26776695296637 17.26776695296637
213 105.5 -99.26776695296637 17.26776695296637
214 97.26776695296637 -97.5 10.73223304703363
215 98.73223304703363 -99.26776695296637 12.5
216 98.73223304703363 -99.26776695296637 15.5
217 119.2677669529664 -2.5 9.267766952966369
218 117.5 -21.5 10
219 117.5 -40.50000000000004 10
220 117.5 -59.50000000000008 10
221 117.5 -78.50000000000013 10
222 119.2677669529664 -97.5 9.267766952966369
223 13.564074168865 -21.5 130
224 13.564074168865 -40.50000000000004 130
225 13.564074168865 -59.50000000000008 130
226 13.564074168865 -78.50000000000013 130
227 110.5 -21.5 10
228 110.5 -40.50000000000004 10
229 110.5 -59.50000000000008 10
230 110.5 -78.50000000000013 10
231 84.276478578889 -21.5 11.24032243619
232 84.276478578889 -40.50000000000004 11.24032243619
233 84.276478578889 -59.50000000000008 11.24032243619
234 84.276478578889 -78.50000000000013 11.24032243619
235 15.723521421111 -21.5 128.75967756381
236 15.723521421111 -40.50000000000004 128.75967756381
237 15.723521421111 -59.50000000000008 128.75967756381
238 15.723521421111 -78.50000000000013 128.75967756381
239 108 -21.5 12.5
240 108 -40.50000000000004 12.5
241 108 -59.50000000000008 12.5
242 108 -78.50000000000013 12.5
243 86.43592583113499 -21.5 10
244 86.43592583113499 -40.50000000000004 10
245 86.43592583113499 -59.50000000000008 10
246 86.43592583113499 -78.50000000000013 10
247 108 -21.5 15.5
248 108 -40.50000000000004 15.5
249 108 -59.50000000000008 15.5
250 108 -78.50000000000013 15.5
251 107.2677669529664 -2.5 17.26776695296637
252 95.5 -21.5 10
253 95.5 -40.50000000000004 10
254 95.5 -59.50000000000008 10
255 95.5 -78.50000000000013 10
256 105.5 -21.5 18
257 105.5 -40.50000000000004 18
258 105.5 -59.50000000000008 18
259 105.5 -78.50000000000013 18
260 100.5 -21.5 18
261 100.5 -40.50000000000004 18
262 100.5 -59.50000000000008 18
263 100.5 -78.50000000000013 18
264 98.73223304703363 -2.5 17.26776695296637
265 98 -21.5 12.5
266 98 -40.50000000000004 12.5
267 98 -59.50000000000008 12.5
268 98 -78.50000000000013 12.5
269 98 -21.5 15.5
270 98 -40.50000000000004 15.5
271 98 -59.50000000000008 15.5
272 98 -78.50000000000013 15.5
273 107.2677669529664 -97.5 17.26776695296637
274 98.73223304703363 -97.5 17.26776695296637
275 17.99167821671695 -50.9197310153977 0
276 102.0030821891204 -50.91989265239282 0
277 69.56537219856544 -19.09693056249957 0
278 68.73522936926652 -81.8046704082798 0
279 31.35484376626393 -18.55194615244696 0
280 32.54160250020084 -79.21098106251752 0
281 50.42907041260057 -18.99536986720822 0
282 59.9823609469869 -35.65001004202911 0
283 79.56043304188503 -34.00756147389944 0
284 71.13291030855083 -51.63151341054431 0
285 49.11296050938046 -51.78759036053356 0
286 88.66945067391958 -18.63400013192294 0
287 51.31254478633103 -81.67846517624447 0
288 87.32220642286737 -79.33389486176877 0
289 40.21761475746028 -33.81810300150022 0
290 20.44471185214758 -32.54731279357077 0
291 17.907969486126 -68.39935327410383 0
292 99.52197667365456 -32.59013775449255 0
293 101.9266810509473 -68.32517429678842 0
294 87.4201933996027 -60.61504661726369 0
295 32.55810431998061 -60.63881187984593 0
296 59.96061902529514 -66.56649173935551 0
297 103.4144797944444 -16.54167973952243 0
298 16.55891550702322 -83.48515833355849 0
299 16.55891550702319 -16.51484166644154 0
300 103.4410844929766 -83.48515833355835 0
301 74.41572843878023 -67.648165601098 0
302 45.62036374289644 -67.61563144695623 0
303 88.00639101621259 -46.02783028371022 0
304 31.98993071756876 -46.02656771920893 0
305 1.10811730273745 -1.039805093529045 1.02335061975518
306 1.10811730273745 -98.96019490647096 1.023350619755184
307 0 -19.17090979923703 65.38489147683048
308 0 -82.53952433823416 46.83306257707733
309 0 -82.44135597787135 83.36195954164899
310 0 -48.7797841865996 111.9846391160707
311 0 -50.24660737404554 18.71894805545877
312 0 -18.78888929135101 99.07730647421867
313 0 -16.16933642783167 29.60205576997816
314 0 -69.48307565601269 20.35404018927257
315 0 -58.30871808879515 35.85542150838666
316 0 -41.85734350796825 35.48238436014083
317 0 -49.94939184013908 51.17859508094791
318 0 -32.76084451583148 50.65401283337835
319 0 -41.37617767089201 66.51100226233481
320 0 -59.83421585351793 65.69442684887167
321 0 -51.06616703973943 82.33700428871018
322 0 -30.04067794842783 81.86619959838626
323 0 -67.98642544115802 110.3347137447107
324 0 -79.28172717668441 65.03651558731329
325 0 -39.03155964538756 96.38926592900614
326 0 -30.56235852241561 20.34110275301732
327 0 -30.71586168907348 112.8485378518185
328 0 -83.88804635784859 29.94981411814285
329 0 -82.37656274748882 100.1231331350005
330 0 -67.33974932359675 91.80233976005528
331 0 -16.55006969199152 46.74267671648968
332 0 -66.88192107944137 50.86815543452985
333 0 -14.45912004073046 82.53670985400106
334 0 -67.99264307428197 77.6464492053199
335 0 -84.000517286733 114.3159789645124
336 0 -54.84073712729627 98.5695925677106
337 0 -84.52785244745445 15.45449720031446
338 0 -15.15993802076945 15.20696189187606
339 0 -15.69493701110271 114.6400155916153
340 0 -27.57999053320771 36.56444648660087
341 0 -72.22025710406639 36.77209876548184
342 45.74142400396304 0 43.94261776347194
343 16.75974352974677 0 29.61626645255322
344 17.96473935329349 0 65.0000000000002
345 103.5011472400072 0 9.600980265758622
346 52.84411367393812 0 17.57271651398644
347 105.3224453372524 0 6.385084133145391
348 17.35382389798711 0 47.7431470783547
349 16.89578265059681 0 82.70247713759312
350 69.58333333333314 0 10.6017985337015
351 102.9320137945554 0 13.54664367574104
352 32.38595848276481 0 18.44297430338914
353 34.24648581144999 0 58.68014916145425
354 15.67447726208483 0 99.22932997182812
355 29.49323601394626 0 38.21428571428594
356 15.71452732847604 0 15.32605298335799
357 29.04717858593352 0 75.04248180520702
358 41.78251611491046 0 29.93662108483913
359 12.07061513692737 0 115.3068806340083
360 54.19781175229352 0 32.45533601822711
361 102.660068972777 0 11.73321837870517
362 118.8918826972625 -1.039805093529001 1.023350619755205
363 46.38931544989864 -100 43.62173381492445
364 16.75974352974677 -100 29.616266452553
365 17.96473935329349 -100 64.9999999999998
366 103.5011472400072 -100 9.600980265758636
367 49.17933107128009 -100 16.90967499823749
368 105.3224453372524 -100 6.385084133145398
369 16.89578265059683 -100 82.70247713759284
370 17.35382389798713 -100 47.74314707835443
371 71.35887536529734 -100 11.89900596830685
372 102.9320137945554 -100 13.54664367574104
373 30.60449214665992 -100 19.25800895924242
374 34.29370822004591 -100 58.65676111855709
375 15.67447726208488 -100 99.22932997182797
376 30.04147910455802 -100 38.17480476823245
377 14.80618046861466 -100 14.84628365378764
378 29.05392464430438 -100 75.03914065622152
379 42.20985605237775 -100 29.71054571430078
380 12.07061513692734 -100 115.3068806340083
381 62.18942371943123 -100 17.72156749396226
382 55.80369169406023 -100 29.71504161300296
383 102.660068972777 -100 11.73321837870519
384 118.8918826972625 -98.960194906471 1.023350619755202
385 119.8096988312782 -1.543291419087279 4.401567126343051
386 119.6416562648872 -1.210306841504817 6.403374771417958
387 108.0143128492153 -1.485129954001778 11.40729968806849
388 108.6891400002094 -0.9709420518750342 10.08048819400835
389 107.4377156759486 -0.4635763215943034 10.70452149475866
390 84.69586805533409 -0.5047662851001888 9.470495031722656
391 85.05695934408456 -1.515392031766994 10.17630521771539
392 106.8885951725033 -0.4211052342890067 14.00478801626988
393 107.643209059762 -1.212888922371546 14.00120002840442
394 102.4015671263431 -0.1903011687217835 16.45670858091272
395 104.4033747714177 -0.3583437351125518 16.78969315849482
396 96.59270031193152 -1.48512995400178 10.0143128492153
397 97.91951180599165 -0.9709420518750431 10.68914000020942
398 97.29547850524133 -0.4635763215942994 9.437715675948615
399 99.1114048274966 -0.4211052342890804 13.99521198373014
400 98.35679094023789 -1.212888922371654 13.99879997159558
401 118.4567085809127 -99.80969883127821 4.401567126343051
402 118.789693158495 -99.64165626488736 6.403374771417736
403 109.4072996880684 -98.51487004599814 10.01431284921536
404 108.0804881940082 -99.02905794812509 10.6891400002094
405 108.7045214947589 -99.53642367840555 9.437715675948724
406 84.69586805533407 -99.49523371489983 9.470495031722651
407 85.12358856407333 -98.48460796818583 10.13803537050259
408 106.8908785622739 -99.5773677635428 13.99696236739765
409 107.6441569792225 -98.78553134868476 13.99445070104924
410 102.4015671263431 -99.80969883127821 16.45670858091272
411 104.4033747714178 -99.64165626488736 16.78969315849497
412 97.98568715078464 -98.51487004599811 11.40729968806847
413 97.31085999979062 -99.0290579481251 10.08048819400824
414 98.56228432405128 -99.53642367840554 10.70452149475893
415 99.11014655660237 -99.57805375432778 14.00175114574063
416 98.35598561663073 -98.78576915653849 13.99565075142802
417 1.023350619755076 -1.039805093529 128.8918826972624
418 1.023350619755076 -98.960194906471 128.8918826972624
419 8.032037084432499 -69.0000000000001 130
420 8.032037084432499 -31.00000000000002 130
421 8.032037084432499 -50.00000000000006 130
422 8.032037084432499 -12 130
423 8.032037084432499 -88.00000000000006 130
424 118.9766493802448 -1.039805093528958 8.891882697262515
425 14.68351253880748 -1.405321698543063 129.4489836203057
426 76.44161399099032 -50.92608495187012 24.67151887258317
427 23.55240670363538 -50.92144520186794 115.3387313651616
428 49.98805795485152 -19.33574723019242 70.02047207737753
429 49.99904686763247 -80.93110935445034 70.00163394118164
430 69.47820953635157 -18.22923608020576 36.60878365195994
431 30.47934616362608 -18.51575247366674 103.4639780051815
432 31.04270403351633 -79.08356531153656 102.4982216567985
433 68.94776863910533 -79.08347958687978 37.51811090438175
434 40.21290937280862 -19.18059660222931 86.7778696465884
435 45.08861800397444 -36.11037677967863 78.41951199316404
436 54.86208039132766 -36.17332839343745 61.6650050434212
437 49.9621844166031 -52.94553623324767 70.06482671437482
438 60.58964012585862 -52.13714470799727 51.84633121279994
439 39.3709656183633 -52.08741998242617 88.2212017970656
440 65.05712782980812 -33.97071822290799 44.18778086317477
441 59.82867248337718 -18.78483832112394 53.15084717133912
442 34.91966390560199 -33.96067804261761 95.85200473322534
443 59.26191896199465 -81.50636892377068 54.122424636566
444 40.72764373148075 -81.49088085155545 85.89546788886503
445 75.14287360560162 -32.58203518256703 26.89793096182019
446 24.84712106039616 -32.61717453563857 113.1192210392868
447 76.22891137484304 -68.16341894779738 25.03615192883553
448 23.77108862513965 -68.16341894779737 114.9638480711544
449 68.95677867556718 -60.58246897005894 37.50266512759002
450 31.02946677711826 -60.56954194311874 102.5209140963381
451 45.21306688504382 -66.84299244126929 78.20617105418802
452 54.77105180058474 -66.90420224940914 61.82105405612329
453 77.0636678419603 -83.11099533418451 23.60514084234928
454 22.93633215802239 -83.11099533418452 116.3948591576407
455 77.0636678419603 -16.88900466581558 23.60514084234927
456 22.9363321580224 -16.88900466581551 116.3948591576407
457 37.84458003235506 -67.12806084958238 90.83786280165029
458 62.1261990402826 -67.12548326863944 49.21223021664543
459 30.59505564969976 -46.03334136550214 103.2656188861981
460 69.40653888232318 -46.05920235716976 36.73164763029428
461 106.9766493802448 -1.039805093528958 16.89188269726252
462 90.9679629155675 -31.00000000000001 10
463 90.9679629155675 -69.0000000000001 10
464 90.9679629155675 -50.00000000000006 10
465 90.9679629155675 -12 10
466 90.9679629155675 -88.00000000000006 10
467 99.10811730273748 -1.039805093528958 16.97664938024477
468 118.9766493802448 -98.96019490647105 8.891882697262515
469 14.68351253880765 -98.59467830145621 129.448983620306
470 106.9766493802448 -98.96019490647105 16.89188269726252
471 99.10811730273748 -98.96019490647105 16.97664938024477
472 117.3830645161291 -67.00806451612912 5.846774193548388
473 100.8824079848744 -29.2263089349667 11.66334841253023
474 113.2116810286045 -31.20956744339649 4.854190958075837
475 103.5312241466644 -32.62102689576298 12.67471748507739
476 32.67757964207282 -65.46914822190085 33.20782044651472
477 32.43887061788305 -32.39516993868882 32.13355668481265
478 27.52970176081462 -48.26316698620198 54.38470771984009
479 24.65081381031681 -74.44853569878543 56.75622260264766
480 104.5606282109648 -3.394665747669597 13.86886535966574
481 104.5607040232341 -96.60684421979593 13.86905136839655
482 26.19363754363556 -23.9708220562821 62.06685210094103
483 49.00829474760912 -78.89954959075979 25.11426556935331
484 48.53616817804737 -49.08820136296229 24.31611254650224
485 102.0636942382411 -89.93432762434449 8.288984755305988
486 20.65217828811636 -79.83815234142251 21.58724443997809
487 21.91780516738097 -60.41044162494586 75.17976876269232
488 52.73513415393704 -26.1179206680524 22.2175682459058
489 21.23506416644777 -50.45830025311031 21.70229611947693
490 19.29689237036258 -19.49205388299632 22.13612653962938
491 20.81445035037741 -38.16408826490058 78.75580711420956
492 18.39244040580741 -23.86709891001098 43.60642332081591
493 39.94471548807245 -19.80027014218891 46.95849663769721
494 41.87165463158881 -83.59515696245369 44.47803311185115
495 20.35106645879911 -80.76957671493437 81.76224634064259
496 100.4960572755756 -97.50951857877813 13.24990105685798
497 17.97356805095432 -18.85099108203555 86.0518497106312
498 98.27292112842713 -4.101342613712269 5.805576204360321
499 17.27761018912988 -61.17037571044532 44.17551987703537
500 17.54559643307258 -81.91967750560714 39.99344175320545
501 40.37712783395443 -61.81926218458381 50.31798183429852
502 44.25256784647529 -42.93891857326307 44.54598234579846
503 17.45934609096624 -53.1371512888496 91.89721445901031
504 36.01658700562529 -69.87994497524203 15.59879238801575
$EndNodes
$Elements
1649
1 2 2 1 8 89 5 337
2 2 2 2 8 89 5 337
3 2 2 1 8 5 123 337
4 2 2 2 8 5 123 337
5 2 2 1 8 6 86 338
6 2 2 2 8 6 86 338
7 2 2 1 8 118 6 338
8 2 2 2 8 118 6 338
9 2 2 1 8 13 113 339
10 2 2 2 8 13 113 339
11 2 2 1 8 119 13 339
12 2 2 2 8 119 13 339
13 2 2 1 8 14 122 335
14 2 2 2 8 14 122 335
15 2 2 1 8 128 14 335
16 2 2 2 8 128 14 335
17 2 2 1 8 86 87 326
18 2 2 2 8 86 87 326
19 2 2 1 8 86 326 338
20 2 2 2 8 86 326 338
21 2 2 1 8 87 88 311
22 2 2 2 8 87 88 311
23 2 2 1 8 87 311 326
24 2 2 2 8 87 311 326
25 2 2 1 8 88 89 314
26 2 2 2 8 88 89 314
27 2 2 1 8 311 88 314
28 2 2 2 8 311 88 314
29 2 2 1 8 314 89 337
30 2 2 2 8 314 89 337
31 2 2 1 8 113 114 312
32 2 2 2 8 113 114 312
33 2 2 1 8 113 312 339
34 2 2 2 8 113 312 339
35 2 2 1 8 114 115 333
36 2 2 2 8 114 115 333
37 2 2 1 8 312 114 333
38 2 2 2 8 312 114 333
39 2 2 1 8 115 116 307
40 2 2 2 8 115 116 307
41 2 2 1 8 115 307 333
42 2 2 2 8 115 307 333
43 2 2 1 8 116 117 331
44 2 2 2 8 116 117 331
45 2 2 1 8 307 116 331
46 2 2 2 8 307 116 331
47 2 2 1 8 117 118 313
48 2 2 2 8 117 118 313
49 2 2 1 8 117 313 331
50 2 2 2 8 117 313 331
51 2 2 1 8 313 118 338
52 2 2 2 8 313 118 338
53 2 2 1 8 120 119 327
54 2 2 2 8 120 119 327
55 2 2 1 8 327 119 339
56 2 2 2 8 327 119 339
57 2 2 1 8 121 120 310
58 2 2 2 8 121 120 310
59 2 2 1 8 310 120 327
60 2 2 2 8 310 120 327
61 2 2 1 8 122 121 323
62 2 2 2 8 122 121 323
63 2 2 1 8 121 310 323
64 2 2 2 8 121 310 323
65 2 2 1 8 122 323 335
66 2 2 2 8 122 323 335
67 2 2 1 8 123 124 328
68 2 2 2 8 123 124 328
69 2 2 1 8 123 328 337
70 2 2 2 8 123 328 337
71 2 2 1 8 124 125 308
72 2 2 2 8 124 125 308
73 2 2 1 8 124 308 328
74 2 2 2 8 124 308 328
75 2 2 1 8 125 126 324
76 2 2 2 8 125 126 324
77 2 2 1 8 308 125 324
78 2 2 2 8 308 125 324
79 2 2 1 8 126 127 309
80 2 2 2 8 126 127 309
81 2 2 1 8 126 309 324
82 2 2 2 8 126 309 324
83 2 2 1 8 127 128 329
84 2 2 2 8 127 128 329
85 2 2 1 8 309 127 329
86 2 2 2 8 309 127 329
87 2 2 1 8 329 128 335
88 2 2 2 8 329 128 335
89 2 2 1 8 307 318 319
90 2 2 2 8 307 318 319
91 2 2 1 8 318 307 331
92 2 2 2 8 318 307 331
93 2 2 1 8 307 319 322
94 2 2 2 8 307 319 322
95 2 2 1 8 307 322 333
96 2 2 2 8 307 322 333
97 2 2 1 8 308 324 332
98 2 2 2 8 308 324 332
99 2 2 1 8 328 308 341
100 2 2 2 8 328 308 341
101 2 2 1 8 308 332 341
102 2 2 2 8 308 332 341
103 2 2 1 8 324 309 334
104 2 2 2 8 324 309 334
105 2 2 1 8 309 329 330
106 2 2 2 8 309 329 330
107 2 2 1 8 309 330 334
108 2 2 2 8 309 330 334
109 2 2 1 8 323 310 336
110 2 2 2 8 323 310 336
111 2 2 1 8 325 310 327
112 2 2 2 8 325 310 327
113 2 2 1 8 310 325 336
114 2 2 2 8 310 325 336
115 2 2 1 8 311 314 315
116 2 2 2 8 311 314 315
117 2 2 1 8 311 315 316
118 2 2 2 8 311 315 316
119 2 2 1 8 311 316 326
120 2 2 2 8 311 316 326
121 2 2 1 8 312 322 325
122 2 2 2 8 312 322 325
123 2 2 1 8 322 312 333
124 2 2 2 8 322 312 333
125 2 2 1 8 312 325 327
126 2 2 2 8 312 325 327
127 2 2 1 8 312 327 339
128 2 2 2 8 312 327 339
129 2 2 1 8 326 313 338
130 2 2 2 8 326 313 338
131 2 2 1 8 313 326 340
132 2 2 2 8 313 326 340
133 2 2 1 8 331 313 340
134 2 2 2 8 331 313 340
135 2 2 1 8 315 314 341
136 2 2 2 8 315 314 341
137 2 2 1 8 328 314 337
138 2 2 2 8 328 314 337
139 2 2 1 8 314 328 341
140 2 2 2 8 314 328 341
141 2 2 1 8 316 315 317
142 2 2 2 8 316 315 317
143 2 2 1 8 317 315 332
144 2 2 2 8 317 315 332
145 2 2 1 8 332 315 341
146 2 2 2 8 332 315 341
147 2 2 1 8 316 317 318
148 2 2 2 8 316 317 318
149 2 2 1 8 316 318 340
150 2 2 2 8 316 318 340
151 2 2 1 8 326 316 340
152 2 2 2 8 326 316 340
153 2 2 1 8 318 317 319
154 2 2 2 8 318 317 319
155 2 2 1 8 319 317 320
156 2 2 2 8 319 317 320
157 2 2 1 8 320 317 332
158 2 2 2 8 320 317 332
159 2 2 1 8 318 331 340
160 2 2 2 8 318 331 340
161 2 2 1 8 319 320 321
162 2 2 2 8 319 320 321
163 2 2 1 8 319 321 322
164 2 2 2 8 319 321 322
165 2 2 1 8 321 320 334
166 2 2 2 8 321 320 334
167 2 2 1 8 324 320 332
168 2 2 2 8 324 320 332
169 2 2 1 8 320 324 334
170 2 2 2 8 320 324 334
171 2 2 1 8 322 321 325
172 2 2 2 8 322 321 325
173 2 2 1 8 325 321 336
174 2 2 2 8 325 321 336
175 2 2 1 8 330 321 334
176 2 2 2 8 330 321 334
177 2 2 1 8 321 330 336
178 2 2 2 8 321 330 336
179 2 2 1 8 329 323 330
180 2 2 2 8 329 323 330
181 2 2 1 8 323 329 335
182 2 2 2 8 323 329 335
183 2 2 1 8 330 323 336
184 2 2 2 8 330 323 336
185 4 2 3 1 296 483 447 484
186 4 2 3 1 358 488 477 490
187 4 2 3 1 316 489 478 499
188 4 2 3 1 477 478 316 489
189 4 2 3 1 426 296 447 484
190 4 2 3 1 358 352 488 490
191 4 2 3 1 316 478 477 492
192 4 2 3 1 316 490 340 492
193 4 2 3 1 193 399 19 400
194 4 2 3 1 279 488 352 490
195 4 2 3 1 387 17 184 389
196 4 2 3 1 447 483 449 484
197 4 2 3 1 483 486 379 494
198 4 2 3 1 302 296 484 504
199 4 2 3 1 278 447 296 483
200 4 2 3 1 477 489 316 490
201 4 2 3 1 289 304 484 489
202 4 2 3 1 483 484 296 504
203 4 2 3 1 329 323 448 330
204 4 2 3 1 316 326 340 490
205 4 2 3 1 330 448 329 432
206 4 2 3 1 358 477 488 493
207 4 2 3 1 284 296 426 484
208 4 2 3 1 316 477 490 492
209 4 2 3 1 476 489 486 499
210 4 2 3 1 376 379 486 494
211 4 2 3 1 278 381 453 483
212 4 2 3 1 318 317 316 478
213 4 2 3 1 287 381 278 483
214 4 2 3 1 316 478 317 499
215 4 2 3 1 279 281 352 488
216 4 2 3 1 429 479 378 495
217 4 2 3 1 314 486 489 499
218 4 2 3 1 429 378 444 495
219 4 2 3 1 445 282 426 484
220 4 2 3 1 278 453 447 483
221 4 2 3 1 289 484 477 489
222 4 2 3 1 326 316 489 490
223 4 2 3 1 325 442 459 503
224 4 2 3 1 432 495 330 503
225 4 2 3 1 486 499 341 500
226 4 2 3 1 318 478 316 492
227 4 2 3 1 329 330 432 495
228 4 2 3 1 314 486 291 489
229 4 2 3 1 476 489 478 502
230 4 2 3 1 426 447 449 484
231 4 2 3 1 290 304 289 489
232 4 2 3 1 290 289 477 489
233 4 2 3 1 478 489 476 499
234 4 2 3 1 282 484 445 488
235 4 2 3 1 483 494 458 501
236 4 2 3 1 290 477 289 490
237 4 2 3 1 344 331 348 492
238 4 2 3 1 341 486 314 499
239 4 2 3 1 325 491 442 503
240 4 2 3 1 379 483 373 486
241 4 2 3 1 458 438 449 501
242 4 2 3 1 284 426 282 484
243 4 2 3 1 358 488 360 493
244 4 2 3 1 325 442 491 497
245 4 2 3 1 360 488 430 493
246 4 2 3 1 448 330 323 503
247 4 2 3 1 442 325 459 446
248 4 2 3 1 314 489 315 499
249 4 2 3 1 478 489 477 502
250 4 2 3 1 291 489 486 504
251 4 2 3 1 325 446 442 497
252 4 2 3 1 459 427 325 503
253 4 2 3 1 277 455 350 488
254 4 2 3 1 290 489 477 490
255 4 2 3 1 477 484 289 488
256 4 2 3 1 438 484 449 501
257 4 2 3 1 476 494 483 501
258 4 2 3 1 436 478 435 482
259 4 2 3 1 308 365 370 479
260 4 2 3 1 378 429 374 479
261 4 2 3 1 304 295 484 489
262 4 2 3 1 308 324 365 479
263 4 2 3 1 281 346 352 488
264 4 2 3 1 296 287 278 483
265 4 2 3 1 318 482 478 492
266 4 2 3 1 290 289 279 490
267 4 2 3 1 478 487 437 491
268 4 2 3 1 426 296 284 447
269 4 2 3 1 476 486 483 494
270 4 2 3 1 281 279 352 81
271 4 2 3 1 301 447 296 278
272 4 2 3 1 318 319 478 482
273 4 2 3 1 275 88 291 489
274 4 2 3 1 277 350 346 488
275 4 2 3 1 200 382 363 494
276 4 2 3 1 435 478 437 491
277 4 2 3 1 308 125 365 324
278 4 2 3 1 365 125 308 370
279 4 2 3 1 484 489 295 504
280 4 2 3 1 436 478 482 502
281 4 2 3 1 341 314 315 499
282 4 2 3 1 373 367 280 483
283 4 2 3 1 333 344 349 497
284 4 2 3 1 291 88 314 489
285 4 2 3 1 382 453 381 483
286 4 2 3 1 484 489 476 502
287 4 2 3 1 346 358 352 488
288 4 2 3 1 371 453 278 381
289 4 2 3 1 325 427 310 503
290 4 2 3 1 490 492 477 493
291 4 2 3 1 433 483 382 494
292 4 2 3 1 365 479 324 495
293 4 2 3 1 317 478 320 499
294 4 2 3 1 376 379 373 486
295 4 2 3 1 232 445 282 426
296 4 2 3 1 333 344 139 349
297 4 2 3 1 360 430 441 493
298 4 2 3 1 435 482 478 491
299 4 2 3 1 88 275 291 69
300 4 2 3 1 329 432 375 495
301 4 2 3 1 447 296 284 301
302 4 2 3 1 479 487 451 501
303 4 2 3 1 290 326 489 490
304 4 2 3 1 451 452 429 501
305 4 2 3 1 373 483 280 504
306 4 2 3 1 320 478 487 499
307 4 2 3 1 280 367 287 483
308 4 2 3 1 446 325 459 427
309 4 2 3 1 307 482 344 497
310 4 2 3 1 312 446 325 497
311 4 2 3 1 381 287 367 483
312 4 2 3 1 319 478 482 491
313 4 2 3 1 365 378 479 495
314 4 2 3 1 302 296 285 484
315 4 2 3 1 451 487 479 495
316 4 2 3 1 451 429 479 501
317 4 2 3 1 277 346 281 488
318 4 2 3 1 200 433 382 494
319 4 2 3 1 333 307 344 497
320 4 2 3 1 314 88 311 489
321 4 2 3 1 373 367 100 280
322 4 2 3 1 355 492 490 493
323 4 2 3 1 436 482 493 502
324 4 2 3 1 284 285 296 484
325 4 2 3 1 437 487 439 491
326 4 2 3 1 154 125 365 370
327 4 2 3 1 350 455 346 488
328 4 2 3 1 437 451 487 501
329 4 2 3 1 376 494 486 500
330 4 2 3 1 275 311 88 489
331 4 2 3 1 329 448 454 432
332 4 2 3 1 486 494 476 500
333 4 2 3 1 320 317 319 478
334 4 2 3 1 477 489 484 502
335 4 2 3 1 438 484 501 502
336 4 2 3 1 446 312 325 327
337 4 2 3 1 325 446 310 427
338 4 2 3 1 284 232 282 426
339 4 2 3 1 284 233 447 301
340 4 2 3 1 435 437 439 491
341 4 2 3 1 320 487 479 499
342 4 2 3 1 282 445 277 488
343 4 2 3 1 476 499 486 500
344 4 2 3 1 440 493 488 502
345 4 2 3 1 437 487 478 501
346 4 2 3 1 357 428 434 482
347 4 2 3 1 320 478 319 487
348 4 2 3 1 82 350 346 277
349 4 2 3 1 357 344 482 497
350 4 2 3 1 373 486 483 504
351 4 2 3 1 318 319 317 478
352 4 2 3 1 445 426 460 484
353 4 2 3 1 336 323 330 503
354 4 2 3 1 454 375 329 432
355 4 2 3 1 486 489 476 504
356 4 2 3 1 431 446 312 497
357 4 2 3 1 281 279 289 488
358 4 2 3 1 434 357 482 497
359 4 2 3 1 358 355 352 490
360 4 2 3 1 82 346 281 277
361 4 2 3 1 319 487 478 491
362 4 2 3 1 284 233 426 447
363 4 2 3 1 308 479 370 500
364 4 2 3 1 374 479 429 494
365 4 2 3 1 289 484 282 488
366 4 2 3 1 454 323 448 329
367 4 2 3 1 141 313 343 492
368 4 2 3 1 360 346 430 488
369 4 2 3 1 435 436 437 478
370 4 2 3 1 326 311 87 489
371 4 2 3 1 295 489 291 504
372 4 2 3 1 334 324 487 495
373 4 2 3 1 360 441 342 493
374 4 2 3 1 429 494 479 501
375 4 2 3 1 315 489 316 499
376 4 2 3 1 287 280 483 504
377 4 2 3 1 278 287 73 381
378 4 2 3 1 378 374 365 479
379 4 2 3 1 339 456 354 359
380 4 2 3 1 455 277 445 488
381 4 2 3 1 430 346 455 488
382 4 2 3 1 126 365 324 495
383 4 2 3 1 354 431 312 497
384 4 2 3 1 358 360 342 493
385 4 2 3 1 284 282 285 484
386 4 2 3 1 363 443 200 494
387 4 2 3 1 479 487 324 495
388 4 2 3 1 283 277 282 445
389 4 2 3 1 479 494 370 500
390 4 2 3 1 488 493 477 502
391 4 2 3 1 456 312 354 431
392 4 2 3 1 335 454 380 375
393 4 2 3 1 307 491 482 497
394 4 2 3 1 304 295 285 484
395 4 2 3 1 443 433 200 494
396 4 2 3 1 436 482 428 493
397 4 2 3 1 353 428 357 482
398 4 2 3 1 278 301 447 234
399 4 2 3 1 320 479 332 499
400 4 2 3 1 431 456 312 446
401 4 2 3 1 440 460 484 488
402 4 2 3 1 320 334 324 487
403 4 2 3 1 373 280 486 504
404 4 2 3 1 479 487 478 499
405 4 2 3 1 445 484 460 488
406 4 2 3 1 452 494 429 501
407 4 2 3 1 310 446 325 327
408 4 2 3 1 449 433 458 483
409 4 2 3 1 476 484 483 504
410 4 2 3 1 320 324 479 487
411 4 2 3 1 291 295 275 489
412 4 2 3 1 419 323 448 238
413 4 2 3 1 440 488 484 502
414 4 2 3 1 436 435 428 482
415 4 2 3 1 482 491 434 497
416 4 2 3 1 434 482 435 491
417 4 2 3 1 453 382 381 199
418 4 2 3 1 335 454 375 329
419 4 2 3 1 483 486 476 504
420 4 2 3 1 427 450 448 503
421 4 2 3 1 478 487 479 501
422 4 2 3 1 376 370 494 500
423 4 2 3 1 476 489 484 504
424 4 2 3 1 374 370 479 494
425 4 2 3 1 456 312 446 327
426 4 2 3 1 147 382 363 200
427 4 2 3 1 478 501 476 502
428 4 2 3 1 382 433 453 483
429 4 2 3 1 128 335 380 375
430 4 2 3 1 458 483 433 494
431 4 2 3 1 285 302 484 504
432 4 2 3 1 373 379 367 483
433 4 2 3 1 311 315 314 489
434 4 2 3 1 313 490 343 492
435 4 2 3 1 447 433 449 483
436 4 2 3 1 460 449 438 484
437 4 2 3 1 357 349 344 497
438 4 2 3 1 285 484 295 504
439 4 2 3 1 454 335 323 329
440 4 2 3 1 456 354 312 339
441 4 2 3 1 157 128 380 375
442 4 2 3 1 476 501 484 502
443 4 2 3 1 339 354 113 359
444 4 2 3 1 202 429 378 444
445 4 2 3 1 49 252 465 498
446 4 2 3 1 310 421 237 427
447 4 2 3 1 319 482 307 491
448 4 2 3 1 330 495 487 503
449 4 2 3 1 430 360 441 179
450 4 2 3 1 343 348 141 492
451 4 2 3 1 487 495 457 503
452 4 2 3 1 371 278 73 381
453 4 2 3 1 285 282 289 484
454 4 2 3 1 312 456 339 327
455 4 2 3 1 334 487 330 495
456 4 2 3 1 307 322 491 497
457 4 2 3 1 318 307 319 482
458 4 2 3 1 445 282 283 232
459 4 2 3 1 360 358 346 488
460 4 2 3 1 323 419 335 238
461 4 2 3 1 323 448 237 419
462 4 2 3 1 283 231 277 445
463 4 2 3 1 126 324 309 495
464 4 2 3 1 447 278 234 453
465 4 2 3 1 428 482 353 493
466 4 2 3 1 320 324 332 479
467 4 2 3 1 375 128 335 329
468 4 2 3 1 427 237 310 323
469 4 2 3 1 348 331 141 492
470 4 2 3 1 460 426 449 484
471 4 2 3 1 237 427 448 323
472 4 2 3 1 354 137 113 359
473 4 2 3 1 374 376 370 494
474 4 2 3 1 441 360 342 179
475 4 2 3 1 437 478 436 502
476 4 2 3 1 435 434 428 482
477 4 2 3 1 350 346 94 82
478 4 2 3 1 289 304 285 484
479 4 2 3 1 326 316 311 489
480 4 2 3 1 443 458 433 494
481 4 2 3 1 442 446 431 497
482 4 2 3 1 149 429 378 202
483 4 2 3 1 236 446 327 420
484 4 2 3 1 460 440 484 502
485 4 2 3 1 348 492 355 493
486 4 2 3 1 421 310 236 427
487 4 2 3 1 318 307 482 492
488 4 2 3 1 236 446 310 327
489 4 2 3 1 336 325 310 503
490 4 2 3 1 377 373 99 486
491 4 2 3 1 134 353 428 357
492 4 2 3 1 429 378 374 149
493 4 2 3 1 460 484 438 502
494 4 2 3 1 80 299 279 490
495 4 2 3 1 374 370 365 479
496 4 2 3 1 451 457 487 495
497 4 2 3 1 334 330 487 503
498 4 2 3 1 203 150 375 495
499 4 2 3 1 231 455 277 445
500 4 2 3 1 327 446 235 420
501 4 2 3 1 201 429 443 494
502 4 2 3 1 343 490 355 492
503 4 2 3 1 419 237 225 238
504 4 2 3 1 329 309 330 495
505 4 2 3 1 310 446 236 427
506 4 2 3 1 484 488 477 502
507 4 2 3 1 281 282 277 488
508 4 2 3 1 441 493 440 502
509 4 2 3 1 456 339 422 359
510 4 2 3 1 226 419 225 238
511 4 2 3 1 328 486 341 500
512 4 2 3 1 441 436 493 502
513 4 2 3 1 332 317 320 499
514 4 2 3 1 246 60 288 466
515 4 2 3 1 335 454 423 380
516 4 2 3 1 437 501 478 502
517 4 2 3 1 451 444 457 495
518 4 2 3 1 332 324 308 479
519 4 2 3 1 244 245 303 464
520 4 2 3 1 440 445 460 488
521 4 2 3 1 298 377 99 486
522 4 2 3 1 225 421 236 237
523 4 2 3 1 453 433 447 483
524 4 2 3 1 323 419 122 335
525 4 2 3 1 203 375 432 495
526 4 2 3 1 322 325 491 497
527 4 2 3 1 236 224 421 225
528 4 2 3 1 437 452 451 501
529 4 2 3 1 311 316 315 489
530 4 2 3 1 332 479 308 500
531 4 2 3 1 340 318 316 492
532 4 2 3 1 315 316 317 499
533 4 2 3 1 354 113 312 339
534 4 2 3 1 441 440 436 502
535 4 2 3 1 376 486 364 500
536 4 2 3 1 341 328 314 486
537 4 2 3 1 226 58 54 423
538 4 2 3 1 348 355 353 493
539 4 2 3 1 476 478 499 501
540 4 2 3 1 58 226 238 423
541 4 2 3 1 381 367 382 483
542 4 2 3 1 150 369 375 495
543 4 2 3 1 364 486 328 500
544 4 2 3 1 340 490 313 492
545 4 2 3 1 321 487 319 491
546 4 2 3 1 369 126 309 495
547 4 2 3 1 319 307 322 491
548 4 2 3 1 254 255 463 293
549 4 2 3 1 199 453 382 433
550 4 2 3 1 377 298 337 486
551 4 2 3 1 138 354 114 497
552 4 2 3 1 253 254 464 276
553 4 2 3 1 224 235 420 223
554 4 2 3 1 41 235 223 422
555 4 2 3 1 321 320 319 487
556 4 2 3 1 439 437 451 487
557 4 2 3 1 153 364 328 500
558 4 2 3 1 382 381 199 146
559 4 2 3 1 73 101 371 381
560 4 2 3 1 275 304 290 489
561 4 2 3 1 278 234 453 371
562 4 2 3 1 353 357 344 482
563 4 2 3 1 364 376 373 486
564 4 2 3 1 132 342 360 179
565 4 2 3 1 238 335 323 454
566 4 2 3 1 465 83 243 47
567 4 2 3 1 238 323 448 454
568 4 2 3 1 224 235 236 420
569 4 2 3 1 124 153 328 500
570 4 2 3 1 275 295 304 489
571 4 2 3 1 354 312 114 497
572 4 2 3 1 307 333 322 497
573 4 2 3 1 318 331 307 492
574 4 2 3 1 285 295 302 504
575 4 2 3 1 479 476 494 500
576 4 2 3 1 334 309 324 495
577 4 2 3 1 452 443 429 494
578 4 2 3 1 281 289 282 488
579 4 2 3 1 243 244 283 462
580 4 2 3 1 441 428 180 493
581 4 2 3 1 142 343 313 490
582 4 2 3 1 442 434 435 491
583 4 2 3 1 148 363 374 494
584 4 2 3 1 343 355 348 492
585 4 2 3 1 333 138 114 497
586 4 2 3 1 452 458 494 501
587 4 2 3 1 442 434 491 497
588 4 2 3 1 332 499 479 500
589 4 2 3 1 322 312 325 497
590 4 2 3 1 476 499 479 501
591 4 2 3 1 334 487 321 503
592 4 2 3 1 234 278 57 371
593 4 2 3 1 479 494 476 501
594 4 2 3 1 343 352 355 490
595 4 2 3 1 476 479 499 500
596 4 2 3 1 27 368 405 403
597 4 2 3 1 182 431 354 497
598 4 2 3 1 334 321 330 503
599 4 2 3 1 342 441 180 493
600 4 2 3 1 365 369 378 495
601 4 2 3 1 313 340 326 490
602 4 2 3 1 114 312 333 497
603 4 2 3 1 87 67 86 326
604 4 2 3 1 442 439 459 503
605 4 2 3 1 180 133 342 493
606 4 2 3 1 436 428 441 493
607 4 2 3 1 443 452 458 494
608 4 2 3 1 135 182 354 497
609 4 2 3 1 437 438 501 502
610 4 2 3 1 325 321 491 503
611 4 2 3 1 356 142 338 490
612 4 2 3 1 342 355 358 493
613 4 2 3 1 252 253 462 292
614 4 2 3 1 309 334 330 495
615 4 2 3 1 342 133 353 493
616 4 2 3 1 126 365 125 324
617 4 2 3 1 180 428 181 134
618 4 2 3 1 479 499 478 501
619 4 2 3 1 378 369 150 495
620 4 2 3 1 291 486 280 504
621 4 2 3 1 153 370 364 500
622 4 2 3 1 138 349 354 497
623 4 2 3 1 232 282 283 284
624 4 2 3 1 442 491 439 503
625 4 2 3 1 454 238 335 423
626 4 2 3 1 138 333 349 497
627 4 2 3 1 445 283 231 232
628 4 2 3 1 135 349 357 497
629 4 2 3 1 428 180 133 134
630 4 2 3 1 321 487 491 503
631 4 2 3 1 142 356 343 490
632 4 2 3 1 339 456 235 327
633 4 2 3 1 149 201 429 202
634 4 2 3 1 201 149 429 148
635 4 2 3 1 430 445 440 488
636 4 2 3 1 57 278 74 371
637 4 2 3 1 382 367 379 483
638 4 2 3 1 439 491 487 503
639 4 2 3 1 279 299 290 490
640 4 2 3 1 331 340 313 492
641 4 2 3 1 125 155 154 365
642 4 2 3 1 428 133 353 134
643 4 2 3 1 456 354 183 431
644 4 2 3 1 429 374 148 149
645 4 2 3 1 376 363 379 494
646 4 2 3 1 455 277 350 231
647 4 2 3 1 124 328 308 500
648 4 2 3 1 14 335 423 380
649 4 2 3 1 453 234 57 371
650 4 2 3 1 354 349 135 497
651 4 2 3 1 446 235 456 327
652 4 2 3 1 423 454 58 380
653 4 2 3 1 465 83 286 243
654 4 2 3 1 422 339 13 359
655 4 2 3 1 280 291 298 486
656 4 2 3 1 457 439 487 503
657 4 2 3 1 334 320 321 487
658 4 2 3 1 203 432 444 495
659 4 2 3 1 325 321 322 491
660 4 2 3 1 235 456 339 422
661 4 2 3 1 81 279 352 80
662 4 2 3 1 204 375 454 432
663 4 2 3 1 437 436 438 502
664 4 2 3 1 233 447 301 234
665 4 2 3 1 92 81 352 80
666 4 2 3 1 297 43 16 347
667 4 2 3 1 81 92 352 93
668 4 2 3 1 44 350 277 231
669 4 2 3 1 96 84 22 95
670 4 2 3 1 435 439 442 491
671 4 2 3 1 125 155 365 126
672 4 2 3 1 83 22 84 95
673 4 2 3 1 337 314 328 486
674 4 2 3 1 377 364 373 486
675 4 2 3 1 297 16 4 347
676 4 2 3 1 374 363 376 494
677 4 2 3 1 300 3 27 368
678 4 2 3 1 154 124 370 153
679 4 2 3 1 350 83 44 277
680 4 2 3 1 332 341 499 500
681 4 2 3 1 88 291 70 69
682 4 2 3 1 455 445 430 488
683 4 2 3 1 88 68 275 69
684 4 2 3 1 439 451 457 487
685 4 2 3 1 434 431 182 497
686 4 2 3 1 311 275 88 87
687 4 2 3 1 342 353 355 493
688 4 2 3 1 81 346 281 82
689 4 2 3 1 460 438 440 502
690 4 2 3 1 329 375 128 127
691 4 2 3 1 152 364 328 153
692 4 2 3 1 350 44 455 231
693 4 2 3 1 238 226 335 423
694 4 2 3 1 200 199 382 433
695 4 2 3 1 27 56 300 368
696 4 2 3 1 427 459 450 503
697 4 2 3 1 166 421 167 121
698 4 2 3 1 167 121 419 168
699 4 2 3 1 457 450 439 503
700 4 2 3 1 342 180 441 179
701 4 2 3 1 420 165 119 120
702 4 2 3 1 376 364 370 500
703 4 2 3 1 75 102 103 33
704 4 2 3 1 120 420 165 166
705 4 2 3 1 421 166 120 121
706 4 2 3 1 343 142 313 141
707 4 2 3 1 68 88 275 87
708 4 2 3 1 114 354 113 312
709 4 2 3 1 117 313 142 141
710 4 2 3 1 446 236 235 420
711 4 2 3 1 332 308 341 500
712 4 2 3 1 313 142 118 117
713 4 2 3 1 287 302 280 504
714 4 2 3 1 369 156 127 155
715 4 2 3 1 117 140 331 141
716 4 2 3 1 375 204 203 432
717 4 2 3 1 2 5 10 377
718 4 2 3 1 153 328 152 124
719 4 2 3 1 234 57 278 74
720 4 2 3 1 123 152 328 124
721 4 2 3 1 75 102 33 74
722 4 2 3 1 381 371 453 199
723 4 2 3 1 452 437 438 501
724 4 2 3 1 331 348 141 140
725 4 2 3 1 352 343 356 490
726 4 2 3 1 124 154 370 125
727 4 2 3 1 122 419 121 168
728 4 2 3 1 124 308 125 370
729 4 2 3 1 203 202 378 444
730 4 2 3 1 363 443 201 200
731 4 2 3 1 233 232 284 426
732 4 2 3 1 322 321 319 491
733 4 2 3 1 419 448 237 238
734 4 2 3 1 430 360 179 178
735 4 2 3 1 182 183 354 431
736 4 2 3 1 309 369 127 126
737 4 2 3 1 94 346 93 82
738 4 2 3 1 81 93 346 82
739 4 2 3 1 444 432 457 495
740 4 2 3 1 199 381 371 146
741 4 2 3 1 140 117 331 116
742 4 2 3 1 338 313 326 490
743 4 2 3 1 322 333 312 497
744 4 2 3 1 121 323 419 122
745 4 2 3 1 100 73 367 101
746 4 2 3 1 155 127 369 126
747 4 2 3 1 338 356 7 142
748 4 2 3 1 277 83 44 231
749 4 2 3 1 442 431 434 497
750 4 2 3 1 337 5 377 123
751 4 2 3 1 237 421 236 427
752 4 2 3 1 128 156 375 157
753 4 2 3 1 226 122 335 423
754 4 2 3 1 142 7 338 118
755 4 2 3 1 133 179 342 132
756 4 2 3 1 179 133 342 180
757 4 2 3 1 156 128 375 127
758 4 2 3 1 315 317 332 499
759 4 2 3 1 330 321 336 503
760 4 2 3 1 295 291 280 504
761 4 2 3 1 452 438 458 501
762 4 2 3 1 7 6 338 118
763 4 2 3 1 440 438 436 502
764 4 2 3 1 421 120 310 121
765 4 2 3 1 74 278 73 371
766 4 2 3 1 138 114 354 113
767 4 2 3 1 137 138 354 113
768 4 2 3 1 341 315 332 499
769 4 2 3 1 152 377 10 123
770 4 2 3 1 331 318 340 492
771 4 2 3 1 325 336 321 503
772 4 2 3 1 138 333 139 349
773 4 2 3 1 67 1 338 299
774 4 2 3 1 420 119 327 120
775 4 2 3 1 35 36 423 380
776 4 2 3 1 459 439 450 503
777 4 2 3 1 150 202 378 203
778 4 2 3 1 182 134 357 135
779 4 2 3 1 378 149 202 150
780 4 2 3 1 147 363 148 200
781 4 2 3 1 201 148 363 200
782 4 2 3 1 5 10 377 123
783 4 2 3 1 58 238 454 423
784 4 2 3 1 283 286 462 292
785 4 2 3 1 308 328 341 500
786 4 2 3 1 178 132 360 179
787 4 2 3 1 4 43 16 297
788 4 2 3 1 380 14 335 128
789 4 2 3 1 278 288 234 74
790 4 2 3 1 165 119 223 420
791 4 2 3 1 223 119 165 422
792 4 2 3 1 339 13 119 422
793 4 2 3 1 225 167 121 419
794 4 2 3 1 421 225 167 121
795 4 2 3 1 294 293 463 288
796 4 2 3 1 183 135 354 136
797 4 2 3 1 391 95 23 390
798 4 2 3 1 27 56 3 300
799 4 2 3 1 83 350 82 277
800 4 2 3 1 224 166 120 421
801 4 2 3 1 166 120 420 224
802 4 2 3 1 183 135 182 354
803 4 2 3 1 132 178 360 131
804 4 2 3 1 99 2 10 377
805 4 2 3 1 78 228 77 276
806 4 2 3 1 335 122 14 423
807 4 2 3 1 350 44 178 455
808 4 2 3 1 58 35 423 380
809 4 2 3 1 347 4 297 84
810 4 2 3 1 150 375 151 203
811 4 2 3 1 168 122 419 226
812 4 2 3 1 168 122 226 423
813 4 2 3 1 228 78 229 276
814 4 2 3 1 199 147 382 146
815 4 2 3 1 138 115 333 114
816 4 2 3 1 339 113 13 359
817 4 2 3 1 288 300 466 75
818 4 2 3 1 138 115 139 333
819 4 2 3 1 83 243 47 44
820 4 2 3 1 147 199 382 200
821 4 2 3 1 204 151 375 203
822 4 2 3 1 371 57 453 199
823 4 2 3 1 56 230 79 300
824 4 2 3 1 368 300 3 75
825 4 2 3 1 246 60 234 288
826 4 2 3 1 56 55 3 79
827 4 2 3 1 297 4 43 227
828 4 2 3 1 359 136 24 177
829 4 2 3 1 77 219 228 78
830 4 2 3 1 303 232 284 233
831 4 2 3 1 380 205 35 151
832 4 2 3 1 79 3 56 300
833 4 2 3 1 297 465 252 498
834 4 2 3 1 78 219 228 229
835 4 2 3 1 302 295 280 504
836 4 2 3 1 42 227 43 4
837 4 2 3 1 456 45 183 359
838 4 2 3 1 276 240 266 267
839 4 2 3 1 276 241 240 267
840 4 2 3 1 303 276 464 294
841 4 2 3 1 243 83 231 44
842 4 2 3 1 129 389 17 345
843 4 2 3 1 77 160 78 107
844 4 2 3 1 160 108 78 107
845 4 2 3 1 227 297 4 76
846 4 2 3 1 160 77 78 219
847 4 2 3 1 462 253 244 292
848 4 2 3 1 283 286 243 462
849 4 2 3 1 292 77 228 276
850 4 2 3 1 380 454 58 204
851 4 2 3 1 245 303 294 233
852 4 2 3 1 262 267 257 258
853 4 2 3 1 465 297 286 498
854 4 2 3 1 254 464 276 294
855 4 2 3 1 301 278 288 234
856 4 2 3 1 303 284 294 233
857 4 2 3 1 288 293 463 255
858 4 2 3 1 303 232 283 284
859 4 2 3 1 262 271 267 272
860 4 2 3 1 270 271 267 262
861 4 2 3 1 178 23 44 350
862 4 2 3 1 239 292 228 240
863 4 2 3 1 73 101 74 371
864 4 2 3 1 102 74 101 371
865 4 2 3 1 242 293 241 230
866 4 2 3 1 300 207 242 485
867 4 2 3 1 65 485 268 496
868 4 2 3 1 34 206 371 146
869 4 2 3 1 78 229 276 293
870 4 2 3 1 300 368 207 485
871 4 2 3 1 227 239 292 228
872 4 2 3 1 284 294 233 301
873 4 2 3 1 43 297 185 347
874 4 2 3 1 23 178 131 350
875 4 2 3 1 66 65 272 496
876 4 2 3 1 239 185 297 480
877 4 2 3 1 293 229 241 230
878 4 2 3 1 229 240 228 276
879 4 2 3 1 229 241 240 276
880 4 2 3 1 462 286 252 292
881 4 2 3 1 272 65 268 496
882 4 2 3 1 183 136 359 177
883 4 2 3 1 232 245 233 303
884 4 2 3 1 244 245 232 303
885 4 2 3 1 293 254 276 294
886 4 2 3 1 300 242 268 485
887 4 2 3 1 293 268 254 255
888 4 2 3 1 300 230 242 207
889 4 2 3 1 293 463 254 294
890 4 2 3 1 294 464 303 245
891 4 2 3 1 267 276 253 266
892 4 2 3 1 276 267 253 254
893 4 2 3 1 35 54 58 423
894 4 2 3 1 242 481 268 485
895 4 2 3 1 199 371 206 146
896 4 2 3 1 297 185 347 498
897 4 2 3 1 368 56 300 207
898 4 2 3 1 276 253 303 464
899 4 2 3 1 297 239 227 185
900 4 2 3 1 371 206 57 199
901 4 2 3 1 300 255 288 466
902 4 2 3 1 292 253 303 276
903 4 2 3 1 76 227 297 292
904 4 2 3 1 227 43 297 185
905 4 2 3 1 45 183 359 177
906 4 2 3 1 255 214 62 485
907 4 2 3 1 151 380 205 204
908 4 2 3 1 300 56 230 207
909 4 2 3 1 27 368 144 405
910 4 2 3 1 53 269 52 480
911 4 2 3 1 255 300 268 485
912 4 2 3 1 297 347 84 498
913 4 2 3 1 265 52 269 480
914 4 2 3 1 94 83 350 82
915 4 2 3 1 83 94 350 95
916 4 2 3 1 104 2 10 99
917 4 2 3 1 51 50 260 480
918 4 2 3 1 176 23 44 178
919 4 2 3 1 214 255 268 485
920 4 2 3 1 39 25 41 422
921 4 2 3 1 63 64 263 481
922 4 2 3 1 253 303 244 292
923 4 2 3 1 259 63 263 481
924 4 2 3 1 256 260 50 480
925 4 2 3 1 142 111 7 118
926 4 2 3 1 152 10 112 123
927 4 2 3 1 38 218 159 217
928 4 2 3 1 214 268 65 485
929 4 2 3 1 46 239 48 480
930 4 2 3 1 61 242 59 481
931 4 2 3 1 247 48 239 480
932 4 2 3 1 58 205 380 204
933 4 2 3 1 242 61 250 481
934 4 2 3 1 38 42 218 217
935 4 2 3 1 297 480 185 498
936 4 2 3 1 252 253 292 266
937 4 2 3 1 6 7 111 118
938 4 2 3 1 10 5 112 123
939 4 2 3 1 79 230 293 300
940 4 2 3 1 178 176 23 131
941 4 2 3 1 465 297 252 286
942 4 2 3 1 256 251 247 480
943 4 2 3 1 239 46 185 480
944 4 2 3 1 273 259 250 481
945 4 2 3 1 243 244 231 283
946 4 2 3 1 48 247 251 480
947 4 2 3 1 407 60 33 74
948 4 2 3 1 252 192 265 498
949 4 2 3 1 49 192 252 498
950 4 2 3 1 273 250 61 481
951 4 2 3 1 99 104 2 71
952 4 2 3 1 185 389 129 345
953 4 2 3 1 231 244 232 283
954 4 2 3 1 259 273 63 481
955 4 2 3 1 255 288 293 300
956 4 2 3 1 300 75 368 485
957 4 2 3 1 251 256 50 480
958 4 2 3 1 84 286 297 498
959 4 2 3 1 399 19 400 480
960 4 2 3 1 75 32 33 103
961 4 2 3 1 297 252 286 292
962 4 2 3 1 366 207 404 144
963 4 2 3 1 268 293 242 300
964 4 2 3 1 252 243 286 462
965 4 2 3 1 293 268 255 300
966 4 2 3 1 230 242 293 300
967 4 2 3 1 345 347 185 498
968 4 2 3 1 206 57 34 371
969 4 2 3 1 27 405 197 403
970 4 2 3 1 185 129 347 345
971 4 2 3 1 83 44 47 391
972 4 2 3 1 57 60 407 74
973 4 2 3 1 254 464 294 245
974 4 2 3 1 244 232 283 303
975 4 2 3 1 44 83 95 391
976 4 2 3 1 47 49 465 498
977 4 2 3 1 368 27 56 403
978 4 2 3 1 74 407 57 102
979 4 2 3 1 246 288 463 255
980 4 2 3 1 345 185 480 498
981 4 2 3 1 35 58 205 380
982 4 2 3 1 294 463 254 245
983 4 2 3 1 197 26 55 198
984 4 2 3 1 95 23 44 391
985 4 2 3 1 38 11 4 385
986 4 2 3 1 77 160 107 474
987 4 2 3 1 253 244 303 464
988 4 2 3 1 246 288 255 466
989 4 2 3 1 42 38 4 385
990 4 2 3 1 209 407 33 406
991 4 2 3 1 62 33 32 211
992 4 2 3 1 188 22 47 186
993 4 2 3 1 175 15 174 42
994 4 2 3 1 33 62 209 211
995 4 2 3 1 26 197 55 27
996 4 2 3 1 15 43 175 16
997 4 2 3 1 41 173 172 25
998 4 2 3 1 243 465 252 286
999 4 2 3 1 129 16 43 347
1000 4 2 3 1 195 35 54 196
1001 4 2 3 1 20 361 351 480
1002 4 2 3 1 412 215 414 496
1003 4 2 3 1 43 185 388 129
1004 4 2 3 1 347 345 130 498
1005 4 2 3 1 366 368 145 485
1006 4 2 3 1 19 53 193 400
1007 4 2 3 1 212 410 30 496
1008 4 2 3 1 471 30 216 496
1009 4 2 3 1 471 212 30 496
1010 4 2 3 1 361 345 17 480
1011 4 2 3 1 345 192 130 498
1012 4 2 3 1 207 368 56 403
1013 4 2 3 1 366 383 28 481
1014 4 2 3 1 41 173 25 39
1015 4 2 3 1 24 25 41 172
1016 4 2 3 1 414 215 31 496
1017 4 2 3 1 190 51 19 394
1018 4 2 3 1 62 33 209 60
1019 4 2 3 1 345 480 192 498
1020 4 2 3 1 95 22 23 390
1021 4 2 3 1 406 33 34 102
1022 4 2 3 1 392 393 187 480
1023 4 2 3 1 368 103 145 485
1024 4 2 3 1 409 408 210 481
1025 4 2 3 1 75 103 368 485
1026 4 2 3 1 389 388 185 129
1027 4 2 3 1 129 43 185 347
1028 4 2 3 1 18 461 189 480
1029 4 2 3 1 393 392 184 480
1030 4 2 3 1 416 216 415 496
1031 4 2 3 1 461 18 187 480
1032 4 2 3 1 213 470 29 481
1033 4 2 3 1 43 15 175 42
1034 4 2 3 1 470 210 29 481
1035 4 2 3 1 171 15 42 424
1036 4 2 3 1 27 55 56 197
1037 4 2 3 1 18 189 395 480
1038 4 2 3 1 213 29 411 481
1039 4 2 3 1 53 400 19 480
1040 4 2 3 1 17 184 392 480
1041 4 2 3 1 130 398 21 498
1042 4 2 3 1 409 208 408 481
1043 4 2 3 1 96 84 347 498
1044 4 2 3 1 145 383 366 485
1045 4 2 3 1 351 361 17 480
1046 4 2 3 1 392 187 18 480
1047 4 2 3 1 216 30 415 496
1048 4 2 3 1 96 347 130 498
1049 4 2 3 1 28 383 372 481
1050 4 2 3 1 408 29 210 481
1051 4 2 3 1 192 397 130 398
1052 4 2 3 1 214 413 145 414
1053 4 2 3 1 197 56 27 403
1054 4 2 3 1 28 408 208 481
1055 4 2 3 1 30 372 31 496
1056 4 2 3 1 392 18 17 480
1057 4 2 3 1 29 408 28 481
1058 4 2 3 1 18 351 17 480
1059 4 2 3 1 29 28 372 481
1060 4 2 3 1 383 31 372 496
1061 4 2 3 1 424 15 42 174
1062 4 2 3 1 394 51 19 480
1063 4 2 3 1 30 31 415 496
1064 4 2 3 1 192 396 397 398
1065 4 2 3 1 388 185 387 389
1066 4 2 3 1 214 413 414 412
1067 4 2 3 1 33 60 407 209
1068 4 2 3 1 383 481 366 485
1069 4 2 3 1 396 398 192 498
1070 4 2 3 1 415 215 416 496
1071 4 2 3 1 391 23 176 390
1072 4 2 3 1 212 64 410 496
1073 4 2 3 1 394 395 50 480
1074 4 2 3 1 63 411 410 481
1075 4 2 3 1 21 96 130 498
1076 4 2 3 1 46 387 185 480
1077 4 2 3 1 415 31 215 496
1078 4 2 3 1 471 64 212 496
1079 4 2 3 1 66 471 216 496
1080 4 2 3 1 52 400 53 480
1081 4 2 3 1 130 192 398 498
1082 4 2 3 1 9 3 158 384
1083 4 2 3 1 383 372 481 496
1084 4 2 3 1 171 42 38 424
1085 4 2 3 1 50 189 461 480
1086 4 2 3 1 461 187 48 480
1087 4 2 3 1 63 470 213 481
1088 4 2 3 1 470 61 210 481
1089 4 2 3 1 50 395 189 480
1090 4 2 3 1 213 411 63 481
1091 4 2 3 1 64 481 410 496
1092 4 2 3 1 48 187 393 480
1093 4 2 3 1 409 210 61 481
1094 4 2 3 1 50 51 394 480
1095 4 2 3 1 63 410 64 481
1096 4 2 3 1 393 184 46 480
1097 4 2 3 1 177 172 41 425
1098 4 2 3 1 416 66 216 496
1099 4 2 3 1 208 409 59 481
1100 4 2 3 1 383 481 485 496
1101 4 2 3 1 176 44 23 391
1102 4 2 3 1 215 412 65 496
1103 4 2 3 1 396 192 49 498
1104 4 2 3 1 471 274 64 496
1105 4 2 3 1 417 13 39 169
1106 4 2 3 1 222 55 37 468
1107 4 2 3 1 66 274 471 496
1108 4 2 3 1 306 5 2 85
1109 4 2 3 1 3 9 98 384
1110 4 2 3 1 41 45 177 425
1111 4 2 3 1 42 38 424 217
1112 4 2 3 1 50 461 251 480
1113 4 2 3 1 48 251 461 480
1114 4 2 3 1 273 470 63 481
1115 4 2 3 1 470 273 61 481
1116 4 2 3 1 416 215 65 496
1117 4 2 3 1 172 41 24 177
1118 4 2 3 1 393 46 48 480
1119 4 2 3 1 61 59 409 481
1120 4 2 3 1 65 66 416 496
1121 4 2 3 1 247 239 240 475
1122 4 2 3 1 220 161 162 472
1123 4 2 3 1 161 108 162 472
1124 4 2 3 1 247 248 256 475
1125 4 2 3 1 256 248 257 475
1126 4 2 3 1 107 160 159 474
1127 4 2 3 1 159 106 107 474
1128 4 2 3 1 248 247 240 475
1129 4 2 3 1 265 270 266 473
1130 4 2 3 1 270 269 261 473
1131 4 2 3 1 269 270 265 473
1132 4 2 3 1 106 76 77 474
1133 4 2 3 1 107 106 77 474
1134 4 2 3 1 260 261 269 473
1135 4 2 3 1 483 501 484 476
1136 4 2 3 1 504 296 287 302
1137 4 2 3 1 504 287 296 483
1138 4 2 3 1 449 501 483 458
1139 4 2 3 1 483 501 449 484
1140 4 2 3 1 503 432 448 330
1141 4 2 3 1 503 448 432 450
1142 4 2 3 1 490 289 488 477
1143 4 2 3 1 490 488 289 279
1144 4 2 3 1 503 432 457 450
1145 4 2 3 1 503 457 432 495
1146 4 2 3 1 13 39 119 422
1147 4 2 3 1 13 119 39 169
1148 4 2 3 1 165 119 39 422
1149 4 2 3 1 165 39 119 169
1150 4 2 3 1 14 40 122 170
1151 4 2 3 1 14 122 40 423
1152 4 2 3 1 168 122 40 170
1153 4 2 3 1 168 40 122 423
1154 4 2 3 1 493 492 353 348
1155 4 2 3 1 493 353 492 482
1156 4 2 3 1 344 353 492 348
1157 4 2 3 1 344 492 353 482
1158 4 2 3 1 495 429 451 444
1159 4 2 3 1 495 451 429 479
1160 4 2 3 1 53 467 19 193
1161 4 2 3 1 333 139 307 115
1162 4 2 3 1 333 307 139 344
1163 4 2 3 1 116 307 139 115
1164 4 2 3 1 81 352 346 93
1165 4 2 3 1 81 346 352 281
1166 4 2 3 1 344 331 140 348
1167 4 2 3 1 494 382 379 483
1168 4 2 3 1 494 379 382 363
1169 4 2 3 1 492 307 344 331
1170 4 2 3 1 492 344 307 482
1171 4 2 3 1 503 427 323 448
1172 4 2 3 1 493 430 440 488
1173 4 2 3 1 493 440 430 441
1174 4 2 3 1 20 19 480 351
1175 4 2 3 1 20 480 19 399
1176 4 2 3 1 490 493 358 355
1177 4 2 3 1 358 493 490 477
1178 4 2 3 1 280 100 287 367
1179 4 2 3 1 280 287 100 72
1180 4 2 3 1 73 287 100 367
1181 4 2 3 1 73 100 287 72
1182 4 2 3 1 141 313 331 117
1183 4 2 3 1 331 313 141 492
1184 4 2 3 1 502 482 477 478
1185 4 2 3 1 502 477 482 493
1186 4 2 3 1 492 477 482 478
1187 4 2 3 1 492 482 477 493
1188 4 2 3 1 126 365 369 155
1189 4 2 3 1 126 369 365 495
1190 4 2 3 1 310 503 323 336
1191 4 2 3 1 323 503 310 427
1192 4 2 3 1 275 489 87 311
1193 4 2 3 1 130 361 191 397
1194 4 2 3 1 130 191 361 20
1195 4 2 3 1 52 191 361 397
1196 4 2 3 1 352 490 80 279
1197 4 2 3 1 134 182 434 181
1198 4 2 3 1 434 182 134 357
1199 4 2 3 1 434 428 134 181
1200 4 2 3 1 134 428 434 357
1201 4 2 3 1 73 381 367 101
1202 4 2 3 1 367 381 73 287
1203 4 2 3 1 494 148 429 374
1204 4 2 3 1 494 429 148 201
1205 4 2 3 1 495 369 127 309
1206 4 2 3 1 290 326 299 67
1207 4 2 3 1 290 299 326 490
1208 4 2 3 1 360 346 455 430
1209 4 2 3 1 455 178 360 430
1210 4 2 3 1 288 294 246 463
1211 4 2 3 1 245 246 294 463
1212 4 2 3 1 225 421 310 121
1213 4 2 3 1 225 310 421 237
1214 4 2 3 1 323 225 310 121
1215 4 2 3 1 323 310 225 237
1216 4 2 3 1 419 225 323 121
1217 4 2 3 1 419 323 225 237
1218 4 2 3 1 493 133 428 180
1219 4 2 3 1 493 428 133 353
1220 4 2 3 1 226 419 335 122
1221 4 2 3 1 335 419 226 238
1222 4 2 3 1 313 142 338 118
1223 4 2 3 1 338 142 313 490
1224 4 2 3 1 235 41 456 422
1225 4 2 3 1 235 456 41 45
1226 4 2 3 1 456 41 359 422
1227 4 2 3 1 456 359 41 45
1228 4 2 3 1 182 497 357 434
1229 4 2 3 1 357 497 182 135
1230 4 2 3 1 33 407 102 406
1231 4 2 3 1 33 102 407 74
1232 4 2 3 1 500 124 370 308
1233 4 2 3 1 500 370 124 153
1234 4 2 3 1 494 201 363 443
1235 4 2 3 1 494 363 201 148
1236 4 2 3 1 368 9 3 27
1237 4 2 3 1 347 4 8 16
1238 4 2 3 1 495 203 378 444
1239 4 2 3 1 495 378 203 150
1240 4 2 3 1 140 331 307 116
1241 4 2 3 1 307 331 140 344
1242 4 2 3 1 307 139 140 116
1243 4 2 3 1 140 139 307 344
1244 4 2 3 1 298 280 99 71
1245 4 2 3 1 72 99 280 71
1246 4 2 3 1 337 70 486 298
1247 4 2 3 1 291 486 70 298
1248 4 2 3 1 298 377 70 2
1249 4 2 3 1 298 70 377 337
1250 4 2 3 1 183 354 359 136
1251 4 2 3 1 359 354 183 456
1252 4 2 3 1 33 75 62 32
1253 4 2 3 1 375 204 380 151
1254 4 2 3 1 380 204 375 454
1255 4 2 3 1 298 99 2 71
1256 4 2 3 1 298 2 99 377
1257 4 2 3 1 47 83 498 465
1258 4 2 3 1 47 498 83 22
1259 4 2 3 1 84 83 498 22
1260 4 2 3 1 186 391 22 47
1261 4 2 3 1 186 22 391 390
1262 4 2 3 1 83 22 391 47
1263 4 2 3 1 391 95 22 83
1264 4 2 3 1 391 22 95 390
1265 4 2 3 1 89 2 85 70
1266 4 2 3 1 85 2 89 5
1267 4 2 3 1 337 377 2 70
1268 4 2 3 1 2 377 337 5
1269 4 2 3 1 89 337 2 70
1270 4 2 3 1 2 337 89 5
1271 4 2 3 1 91 7 80 92
1272 4 2 3 1 178 350 346 131
1273 4 2 3 1 346 350 178 455
1274 4 2 3 1 346 360 178 131
1275 4 2 3 1 178 360 346 455
1276 4 2 3 1 338 1 86 6
1277 4 2 3 1 338 86 1 67
1278 4 2 3 1 90 86 1 6
1279 4 2 3 1 90 1 86 67
1280 4 2 3 1 102 407 34 406
1281 4 2 3 1 102 34 407 57
1282 4 2 3 1 206 34 407 406
1283 4 2 3 1 206 407 34 57
1284 4 2 3 1 83 243 277 286
1285 4 2 3 1 83 277 243 231
1286 4 2 3 1 283 277 243 286
1287 4 2 3 1 283 243 277 231
1288 4 2 3 1 171 386 42 15
1289 4 2 3 1 171 42 386 38
1290 4 2 3 1 385 42 386 15
1291 4 2 3 1 385 386 42 38
1292 4 2 3 1 244 292 283 462
1293 4 2 3 1 283 292 244 303
1294 4 2 3 1 233 246 294 245
1295 4 2 3 1 3 401 37 55
1296 4 2 3 1 37 401 3 12
1297 4 2 3 1 229 160 219 220
1298 4 2 3 1 229 219 160 78
1299 4 2 3 1 161 160 229 220
1300 4 2 3 1 472 161 229 220
1301 4 2 3 1 44 350 95 83
1302 4 2 3 1 95 350 44 23
1303 4 2 3 1 60 234 74 57
1304 4 2 3 1 60 74 234 288
1305 4 2 3 1 79 37 55 3
1306 4 2 3 1 12 79 37 109
1307 4 2 3 1 12 37 79 3
1308 4 2 3 1 110 79 12 109
1309 4 2 3 1 110 12 79 3
1310 4 2 3 1 371 57 102 74
1311 4 2 3 1 371 102 57 34
1312 4 2 3 1 38 11 76 4
1313 4 2 3 1 38 76 11 106
1314 4 2 3 1 105 76 11 4
1315 4 2 3 1 105 11 76 106
1316 4 2 3 1 472 162 109 108
1317 4 2 3 1 472 109 79 108
1318 4 2 3 1 227 42 76 4
1319 4 2 3 1 227 76 42 218
1320 4 2 3 1 38 76 42 4
1321 4 2 3 1 38 42 76 218
1322 4 2 3 1 260 475 256 257
1323 4 2 3 1 260 261 475 257
1324 4 2 3 1 286 498 83 465
1325 4 2 3 1 83 498 286 84
1326 4 2 3 1 159 218 474 160
1327 4 2 3 1 77 474 219 160
1328 4 2 3 1 474 218 219 160
1329 4 2 3 1 474 218 106 76
1330 4 2 3 1 474 106 218 159
1331 4 2 3 1 38 106 218 76
1332 4 2 3 1 38 218 106 159
1333 4 2 3 1 380 157 164 128
1334 4 2 3 1 164 157 380 36
1335 4 2 3 1 164 14 380 128
1336 4 2 3 1 359 13 163 113
1337 4 2 3 1 163 137 359 113
1338 4 2 3 1 359 137 163 25
1339 4 2 3 1 481 250 263 259
1340 4 2 3 1 258 263 250 259
1341 4 2 3 1 242 267 249 241
1342 4 2 3 1 240 249 267 241
1343 4 2 3 1 263 258 272 262
1344 4 2 3 1 267 272 258 262
1345 4 2 3 1 268 496 481 272
1346 4 2 3 1 481 496 268 485
1347 4 2 3 1 267 258 248 257
1348 4 2 3 1 248 267 266 240
1349 4 2 3 1 248 266 475 240
1350 4 2 3 1 272 496 274 66
1351 4 2 3 1 263 272 496 274
1352 4 2 3 1 496 272 263 481
1353 4 2 3 1 496 64 263 274
1354 4 2 3 1 263 64 496 481
1355 4 2 3 1 35 423 40 54
1356 4 2 3 1 40 423 35 36
1357 4 2 3 1 40 195 35 54
1358 4 2 3 1 35 195 40 36
1359 4 2 3 1 55 3 27 56
1360 4 2 3 1 25 41 359 24
1361 4 2 3 1 25 359 41 422
1362 4 2 3 1 481 272 242 268
1363 4 2 3 1 233 234 294 246
1364 4 2 3 1 233 294 234 301
1365 4 2 3 1 288 294 234 246
1366 4 2 3 1 288 234 294 301
1367 4 2 3 1 129 43 175 388
1368 4 2 3 1 129 175 43 16
1369 4 2 3 1 22 96 498 84
1370 4 2 3 1 498 96 22 21
1371 4 2 3 1 192 265 480 52
1372 4 2 3 1 192 480 265 498
1373 4 2 3 1 385 15 4 42
1374 4 2 3 1 385 4 15 8
1375 4 2 3 1 43 4 15 42
1376 4 2 3 1 480 247 260 239
1377 4 2 3 1 480 260 247 256
1378 4 2 3 1 475 260 247 239
1379 4 2 3 1 475 247 260 256
1380 4 2 3 1 18 394 480 395
1381 4 2 3 1 410 29 481 411
1382 4 2 3 1 239 480 498 265
1383 4 2 3 1 498 480 239 297
1384 4 2 3 1 276 266 292 253
1385 4 2 3 1 276 240 292 266
1386 4 2 3 1 276 292 240 228
1387 4 2 3 1 239 292 297 227
1388 4 2 3 1 404 403 144 207
1389 4 2 3 1 404 144 403 405
1390 4 2 3 1 368 144 403 207
1391 4 2 3 1 368 403 144 405
1392 4 2 3 1 17 387 345 389
1393 4 2 3 1 17 345 387 480
1394 4 2 3 1 185 345 387 389
1395 4 2 3 1 185 387 345 480
1396 4 2 3 1 293 276 241 229
1397 4 2 3 1 485 62 145 214
1398 4 2 3 1 413 145 62 214
1399 4 2 3 1 177 359 41 24
1400 4 2 3 1 177 41 359 45
1401 4 2 3 1 208 404 481 59
1402 4 2 3 1 387 184 480 46
1403 4 2 3 1 387 480 184 17
1404 4 2 3 1 396 188 498 49
1405 4 2 3 1 22 188 498 21
1406 4 2 3 1 188 47 498 49
1407 4 2 3 1 188 498 47 22
1408 4 2 3 1 368 207 366 144
1409 4 2 3 1 368 366 207 485
1410 4 2 3 1 211 145 62 413
1411 4 2 3 1 62 145 211 32
1412 4 2 3 1 480 192 361 345
1413 4 2 3 1 480 361 192 52
1414 4 2 3 1 397 192 361 52
1415 4 2 3 1 485 207 481 366
1416 4 2 3 1 404 207 481 59
1417 4 2 3 1 404 481 207 366
1418 4 2 3 1 401 3 158 9
1419 4 2 3 1 401 158 3 12
1420 4 2 3 1 12 384 3 110
1421 4 2 3 1 3 384 12 158
1422 4 2 3 1 496 65 214 412
1423 4 2 3 1 214 65 496 485
1424 4 2 3 1 214 414 496 412
1425 4 2 3 1 383 496 145 31
1426 4 2 3 1 383 145 496 485
1427 4 2 3 1 414 145 496 31
1428 4 2 3 1 19 467 51 190
1429 4 2 3 1 468 55 26 198
1430 4 2 3 1 214 145 496 414
1431 4 2 3 1 214 496 145 485
1432 4 2 3 1 35 196 58 54
1433 4 2 3 1 35 58 196 205
1434 4 2 3 1 469 58 196 54
1435 4 2 3 1 469 196 58 205
1436 4 2 3 1 417 39 25 173
1437 4 2 3 1 40 418 36 195
1438 4 2 3 1 7 305 6 111
1439 4 2 3 1 10 306 2 104
1440 4 2 3 1 306 5 10 2
1441 4 2 3 1 10 5 306 112
1442 4 2 3 1 305 1 6 90
1443 4 2 3 1 11 4 362 105
1444 4 2 3 1 14 418 40 170
1445 4 2 3 1 8 362 4 97
1446 4 2 3 1 18 19 480 394
1447 4 2 3 1 18 480 19 351
1448 4 2 3 1 30 29 496 410
1449 4 2 3 1 30 496 29 372
1450 4 2 3 1 481 496 29 410
1451 4 2 3 1 481 29 496 372
1452 4 2 3 1 75 62 300 466
1453 4 2 3 1 75 300 62 485
1454 4 2 3 1 255 300 62 466
1455 4 2 3 1 255 62 300 485
1456 4 2 3 1 100 280 99 373
1457 4 2 3 1 99 280 100 72
1458 4 2 3 1 80 299 338 1
1459 4 2 3 1 9 26 3 27
1460 4 2 3 1 9 3 26 401
1461 4 2 3 1 55 3 26 27
1462 4 2 3 1 55 26 3 401
1463 4 2 3 1 208 144 366 404
1464 4 2 3 1 366 144 208 28
1465 4 2 3 1 366 481 208 404
1466 4 2 3 1 208 481 366 28
1467 4 2 3 1 338 6 80 1
1468 4 2 3 1 338 80 6 7
1469 4 2 3 1 80 6 91 1
1470 4 2 3 1 80 91 6 7
1471 4 2 3 1 91 6 305 1
1472 4 2 3 1 91 305 6 7
1473 4 2 3 1 402 401 55 37
1474 4 2 3 1 402 55 401 26
1475 4 2 3 1 468 194 55 37
1476 4 2 3 1 468 55 194 26
1477 4 2 3 1 194 402 55 37
1478 4 2 3 1 194 55 402 26
1479 4 2 3 1 248 249 267 240
1480 4 2 3 1 267 249 248 258
1481 4 2 3 1 39 163 417 25
1482 4 2 3 1 417 163 39 13
1483 4 2 3 1 422 359 163 25
1484 4 2 3 1 163 359 422 13
1485 4 2 3 1 39 422 163 25
1486 4 2 3 1 163 422 39 13
1487 4 2 3 1 40 164 418 14
1488 4 2 3 1 418 164 40 36
1489 4 2 3 1 423 380 164 14
1490 4 2 3 1 164 380 423 36
1491 4 2 3 1 40 423 164 14
1492 4 2 3 1 164 423 40 36
1493 4 2 3 1 269 480 239 265
1494 4 2 3 1 239 480 269 260
1495 4 2 3 1 239 473 269 265
1496 4 2 3 1 269 473 239 260
1497 4 2 3 1 242 293 267 241
1498 4 2 3 1 276 293 267 254
1499 4 2 3 1 276 267 293 241
1500 4 2 3 1 188 398 498 21
1501 4 2 3 1 188 498 398 396
1502 4 2 3 1 4 385 143 8
1503 4 2 3 1 143 385 4 11
1504 4 2 3 1 143 362 4 8
1505 4 2 3 1 4 362 143 11
1506 4 2 3 1 400 191 480 52
1507 4 2 3 1 361 480 191 52
1508 4 2 3 1 361 191 480 20
1509 4 2 3 1 127 495 329 375
1510 4 2 3 1 329 495 127 309
1511 4 2 3 1 127 375 369 495
1512 4 2 3 1 127 369 375 156
1513 4 2 3 1 486 99 280 373
1514 4 2 3 1 486 280 99 298
1515 4 2 3 1 224 420 327 120
1516 4 2 3 1 224 327 420 236
1517 4 2 3 1 310 224 327 120
1518 4 2 3 1 310 327 224 236
1519 4 2 3 1 421 224 310 120
1520 4 2 3 1 421 310 224 236
1521 4 2 3 1 223 420 327 235
1522 4 2 3 1 223 327 420 119
1523 4 2 3 1 339 223 327 235
1524 4 2 3 1 339 327 223 119
1525 4 2 3 1 422 223 339 235
1526 4 2 3 1 422 339 223 119
1527 4 2 3 1 328 364 377 486
1528 4 2 3 1 377 364 328 152
1529 4 2 3 1 328 123 377 152
1530 4 2 3 1 326 338 67 86
1531 4 2 3 1 326 299 338 490
1532 4 2 3 1 338 299 326 67
1533 4 2 3 1 75 288 60 466
1534 4 2 3 1 75 62 60 33
1535 4 2 3 1 60 62 75 466
1536 4 2 3 1 97 84 8 96
1537 4 2 3 1 97 8 84 4
1538 4 2 3 1 347 8 84 96
1539 4 2 3 1 347 84 8 4
1540 4 2 3 1 75 98 9 103
1541 4 2 3 1 9 98 75 3
1542 4 2 3 1 9 368 75 103
1543 4 2 3 1 75 368 9 3
1544 4 2 3 1 220 162 229 472
1545 4 2 3 1 220 229 162 221
1546 4 2 3 1 162 109 229 472
1547 4 2 3 1 162 229 109 221
1548 4 2 3 1 37 109 221 162
1549 4 2 3 1 221 222 37 162
1550 4 2 3 1 37 222 221 55
1551 4 2 3 1 475 260 473 261
1552 4 2 3 1 473 260 475 239
1553 4 2 3 1 77 474 228 219
1554 4 2 3 1 474 227 228 219
1555 4 2 3 1 474 218 227 219
1556 4 2 3 1 227 218 474 76
1557 4 2 3 1 250 258 272 263
1558 4 2 3 1 272 481 250 263
1559 4 2 3 1 250 481 272 242
1560 4 2 3 1 257 270 262 261
1561 4 2 3 1 257 475 270 261
1562 4 2 3 1 270 473 475 266
1563 4 2 3 1 475 473 270 261
1564 4 2 3 1 267 257 270 262
1565 4 2 3 1 242 272 267 268
1566 4 2 3 1 269 264 480 53
1567 4 2 3 1 264 19 480 53
1568 4 2 3 1 480 19 264 51
1569 4 2 3 1 264 467 19 53
1570 4 2 3 1 19 467 264 51
1571 4 2 3 1 264 260 480 51
1572 4 2 3 1 264 480 260 269
1573 4 2 3 1 207 242 481 59
1574 4 2 3 1 207 481 242 485
1575 4 2 3 1 4 15 16 43
1576 4 2 3 1 4 16 15 8
1577 4 2 3 1 265 498 297 252
1578 4 2 3 1 265 297 498 239
1579 4 2 3 1 292 265 297 252
1580 4 2 3 1 292 297 265 239
1581 4 2 3 1 266 265 292 252
1582 4 2 3 1 130 361 192 345
1583 4 2 3 1 192 361 130 397
1584 4 2 3 1 267 268 293 242
1585 4 2 3 1 267 293 268 254
1586 4 2 3 1 480 399 191 400
1587 4 2 3 1 191 399 480 20
1588 4 2 3 1 145 62 103 32
1589 4 2 3 1 145 103 62 485
1590 4 2 3 1 75 103 62 32
1591 4 2 3 1 75 62 103 485
1592 4 2 3 1 265 473 292 239
1593 4 2 3 1 292 473 265 266
1594 4 2 3 1 475 240 292 239
1595 4 2 3 1 292 240 475 266
1596 4 2 3 1 473 475 292 239
1597 4 2 3 1 292 475 473 266
1598 4 2 3 1 67 87 290 326
1599 4 2 3 1 67 290 87 68
1600 4 2 3 1 275 87 290 68
1601 4 2 3 1 88 70 314 89
1602 4 2 3 1 88 314 70 291
1603 4 2 3 1 337 314 70 89
1604 4 2 3 1 250 272 267 242
1605 4 2 3 1 267 272 250 258
1606 4 2 3 1 267 249 250 242
1607 4 2 3 1 250 249 267 258
1608 4 2 3 1 74 60 75 288
1609 4 2 3 1 74 75 60 33
1610 4 2 3 1 338 80 490 299
1611 4 2 3 1 87 489 290 326
1612 4 2 3 1 290 489 87 275
1613 4 2 3 1 352 92 490 356
1614 4 2 3 1 490 92 352 80
1615 4 2 3 1 92 338 490 356
1616 4 2 3 1 490 338 92 80
1617 4 2 3 1 92 7 338 356
1618 4 2 3 1 338 7 92 80
1619 4 2 3 1 377 328 337 123
1620 4 2 3 1 337 328 377 486
1621 4 2 3 1 70 486 314 337
1622 4 2 3 1 314 486 70 291
1623 4 2 3 1 472 79 78 108
1624 4 2 3 1 160 161 78 108
1625 4 2 3 1 160 78 161 229
1626 4 2 3 1 161 472 78 108
1627 4 2 3 1 161 78 472 229
1628 4 2 3 1 109 293 221 229
1629 4 2 3 1 293 230 221 229
1630 4 2 3 1 472 78 293 229
1631 4 2 3 1 293 78 472 79
1632 4 2 3 1 109 472 293 229
1633 4 2 3 1 293 472 109 79
1634 4 2 3 1 293 109 230 79
1635 4 2 3 1 293 230 109 221
1636 4 2 3 1 109 37 55 79
1637 4 2 3 1 109 55 37 221
1638 4 2 3 1 56 109 55 79
1639 4 2 3 1 56 55 109 221
1640 4 2 3 1 230 109 56 79
1641 4 2 3 1 230 56 109 221
1642 4 2 3 1 77 474 292 228
1643 4 2 3 1 77 292 474 76
1644 4 2 3 1 227 292 474 228
1645 4 2 3 1 227 474 292 76
1646 4 2 3 1 270 267 248 257
1647 4 2 3 1 248 267 270 266
1648 4 2 3 1 248 475 270 257
1649 4 2 3 1 270 475 248 266
$EndElements
