$MeshFormat
2.2 0 8
$EndMeshFormat
$PhysicalNames
3
2 1 "Fixed"
2 2 "Load"
3 3 "Volume"
$EndPhysicalNames
$Nodes
294
1 1.110223024625e-16 109.2 -40
2 -9.411971076122e-35 0.8 -40
3 100 0.8 -40
4 100 10 -40
5 65 10 -40
6 65 15 -40
7 55 15 -40
8 55 10 -40
9 10.36 109.2 -40
10 -9.411971076122e-35 0.8 40
11 -1.110223024625e-16 109.2 40
12 0.8 1.110223024625e-16 -39.2
13 99.2 3.885780586188e-16 -39.2
14 9.199999999999999 110 -39.2
15 10.328291741863 109.27046279586 -39.92953720414
16 0.8 110 -39.2
17 100 0.8 40
18 100 10 40
19 55 10 40
20 10.36 109.2 40
21 10.328291741863 109.27046279586 39.92953720414
22 65 10 40
23 55 15 40
24 65 15 40
25 0.8 1.110223024625e-16 39.2
26 0.8 110 39.2
27 99.2 3.885780586188e-16 39.2
28 9.199999999999999 110 39.2
29 0 93.71428571428572 -40
30 0 78.22857142857144 -40
31 0 62.74285714285722 -40
32 0 47.257142857143 -40
33 0 31.7714285714287 -40
34 0 16.28571428571433 -40
35 16.66666666666664 0.8 -40
36 33.3333333333333 0.8 -40
37 49.99999999999998 0.8 -40
38 66.66666666666666 0.8 -40
39 83.33333333333331 0.8 -40
40 88.33333333333331 10 -40
41 76.66666666666667 10 -40
42 48.62285714285392 24.17142857142711 -40
43 42.24571428570783 38.34285714285423 -40
44 35.86857142856176 52.51428571428129 -40
45 29.49142857141571 66.68571428570834 -40
46 23.11428571426961 80.85714285713547 -40
47 16.73714285712349 95.02857142856267 -40
48 0 16.28571428571428 40
49 0 31.77142857142856 40
50 0 47.25714285714278 40
51 0 62.742857142857 40
52 0 78.2285714285713 40
53 0 93.71428571428567 40
54 0 0.8 -23.99999999999999
55 0 0.8 -7.999999999999957
56 0 0.8 7.999999999999986
57 0 0.8 23.99999999999991
58 0 109.2 -23.99999999999999
59 0 109.2 -7.999999999999957
60 0 109.2 7.999999999999986
61 0 109.2 23.99999999999991
62 17.19999999999997 0 -39.2
63 33.59999999999997 0 -39.2
64 49.9999999999999 0 -39.2
65 66.39999999999984 0 -39.2
66 82.7999999999999 0 -39.2
67 100 0.8 -23.99999999999999
68 100 0.8 -7.999999999999957
69 100 0.8 7.999999999999986
70 100 0.8 23.99999999999991
71 100 10 -23.99999999999999
72 100 10 -7.999999999999957
73 100 10 7.999999999999986
74 100 10 23.99999999999991
75 55 10 -23.99999999999999
76 55 10 -7.999999999999957
77 55 10 7.999999999999986
78 55 10 23.99999999999991
79 48.62285714285392 24.17142857142711 40
80 42.24571428570783 38.34285714285423 40
81 35.86857142856176 52.51428571428129 40
82 29.49142857141571 66.68571428570834 40
83 23.11428571426961 80.85714285713547 40
84 16.73714285712349 95.02857142856267 40
85 10.328291741863 109.27046279586 -23.95772232248399
86 10.328291741863 109.27046279586 -7.985907440827987
87 10.328291741863 109.27046279586 7.985907440828043
88 10.328291741863 109.27046279586 23.95772232248407
89 88.33333333333331 10 40
90 76.66666666666667 10 40
91 65 10 -23.99999999999999
92 65 10 -7.999999999999957
93 65 10 7.999999999999986
94 65 10 23.99999999999991
95 55 15 -23.99999999999999
96 55 15 -7.999999999999957
97 55 15 7.999999999999986
98 55 15 23.99999999999991
99 65 15 -23.99999999999999
100 65 15 -7.999999999999957
101 65 15 7.999999999999986
102 65 15 23.99999999999991
103 16.66666666666664 0.8 40
104 33.3333333333333 0.8 40
105 49.99999999999998 0.8 40
106 66.66666666666666 0.8 40
107 83.33333333333331 0.8 40
108 0.8 0 -23.51999999999998
109 0.8 0 -7.839999999999954
110 0.8 0 7.840000000000074
111 0.8 0 23.5200000000001
112 0.8 110 -23.51999999999998
113 0.8 110 -7.839999999999954
114 0.8 110 7.840000000000074
115 0.8 110 23.5200000000001
116 17.19999999999997 0 39.2
117 33.59999999999997 0 39.2
118 49.9999999999999 0 39.2
119 66.39999999999984 0 39.2
120 82.7999999999999 0 39.2
121 99.2 0 -23.51999999999998
122 99.2 0 -7.839999999999954
123 99.2 0 7.840000000000074
124 99.2 0 23.5200000000001
125 9.199999999999999 110 -23.51999999999998
126 9.199999999999999 110 -7.839999999999954
127 9.199999999999999 110 7.840000000000074
128 9.199999999999999 110 23.5200000000001
129 14.14314315403532 24.58248436471634 -40
130 21.23944799816357 53.663502450999 -40
131 41.66666666666664 11.28768115942032 -40
132 32.95251876056292 25.33413575252687 -40
133 26.54886549388071 39.25562132229648 -40
134 13.37950383837732 68.7327406164253 -40
135 11.78117004387781 41.92169659443061 -40
136 25.03789515716333 12.45294899444535 -40
137 11.05580096760511 83.95139614970549 -40
138 72.91666666666666 5.400000000000002 -40
139 92.91666666666666 5.399999999999999 -40
140 5.761007913353602 101.5768846314019 -40
141 11.46504236171515 11.91339269000856 -40
142 8.755563617187264 55.00000000000011 -40
143 0 54.80671690108119 -25.1882639427451
144 0 38.82453777438531 27.57597758121901
145 0 71.0467906756007 27.60896431597526
146 0 14.65640646055095 1.4210854715202e-14
147 0 95.47475154092388 0.18326621645285
148 0 84.3472238520763 -25.54076550181002
149 0 25.08797439297754 -25.82688210002357
150 0 93.79514298128612 16.27803308225836
151 0 80.65812489995969 6.820054915003318
152 0 82.07374627893984 -8.170651499945556
153 0 68.00744331046113 -0.03153538184415083
154 0 69.04873840097747 -15.90291512644341
155 0 54.76527535064198 -8.073525754894803
156 0 54.68933548371882 7.624141718325305
157 0 41.44130060593011 -0.3300429569611651
158 0 41.04276946659563 -15.44391187296117
159 0 16.1378078509214 16.2363022536591
160 0 54.83303345307877 24.27079512871909
161 0 29.0737015460637 6.706679843185071
162 0 27.57550867897885 -8.336432253958627
163 0 96.37517584117896 -15.68981657753588
164 0 13.49409269289561 -15.79567717231579
165 0 24.54469546825879 28.42124199127304
166 0 85.4181917160486 28.4482694234872
167 0 70.02079089957033 -29.18932037959067
168 0 39.99320643784522 -29.29181158314596
169 0 67.24078178538419 13.78228666547339
170 0 42.24332131932003 13.64703145491404
171 0 97.78137372560249 28.65955352099947
172 0 12.19918526218703 28.66954143754757
173 0 97.95533337513373 -28.61074867991259
174 0 12.0446666248663 -28.61074867991257
175 0 30.16481279178986 18.51744662485004
176 0 79.63180641165586 18.5875216804395
177 100 5.4 31.99999999999996
178 100 5.400000000000002 -15.99999999999997
179 100 5.4 -31.99999999999999
180 100 5.399999999999999 1.4210854715202e-14
181 100 5.399999999999999 15.99999999999995
182 32.64631293359845 59.67486014752873 25.88100261264596
183 39.29444637791436 44.90123027128016 -27.58135932955192
184 26.030469494423 74.37673445679857 -27.55730977622044
185 15.91406303697512 96.85763769555794 -0.01648552367478828
186 49.36873214249437 22.5139285722271 -0.168839532501039
187 20.09070571276785 87.5762095271353 26.43967796907066
188 44.77439856686243 32.72355874029186 25.5349968296813
189 13.34581944882376 102.5648456692241 31.94362976331199
190 48.66588551487006 24.07580996694686 -16.26001126590895
191 43.26943750388148 36.06791665802527 -6.800631829568857
192 43.85478545978098 34.76714342269383 8.183575541636301
193 38.07773671681153 47.60502951817371 0.03574254771149299
194 38.49311592625865 46.68196460829176 16.02916251607712
195 32.59660273574644 59.78532725386648 8.093990899252006
196 32.58580354769627 59.80932544953352 -7.609953185270911
197 27.13788944185551 71.91580124028339 0.8357068625223008
198 26.71741478721059 72.85018936171596 16.64438684377982
199 21.19221534261077 85.1284103497081 8.512859515590783
200 16.15580667790854 96.32042960459511 -16.25173692604921
201 32.63243364935205 59.7057030014096 -24.25779659357737
202 21.85306588885052 83.65985358028729 -6.4706664952989
203 15.19989783747637 98.44467147222085 16.47055191460178
204 49.72716411024354 21.71741308834056 15.68774184510691
205 19.7909283886279 88.242381358557 -29.02412672270708
206 45.2092198863468 31.7572891414383 -28.43133517181321
207 38.80562262819782 45.98750527064959 29.48903239168088
208 37.74755556458682 48.33876541200593 -13.75459325941155
209 27.55912667426087 70.97971850160538 -13.50987927852821
210 13.54857142855043 102.1142857142763 -31.94125001231858
211 26.30285714284266 73.77142857142192 29.91691192142751
212 50.29833486143438 20.44814475236168 -28.63825185551995
213 50.36506849232341 20.29984779483059 28.57671823182504
214 22.27787942481416 82.71582350036867 -18.56274383976077
215 42.8373089695199 37.0282022899393 -18.5655861712509
216 82.01411847440075 10 29.40191100727873
217 82.01411847440073 10 -29.40191100727874
218 89.44813774875797 10 1.4210854715202e-14
219 87.71638252242761 10 15.62884442961121
220 87.71638252242759 10 -15.62884442961123
221 74.10369504992656 10 18.17179257281496
222 74.10369504992656 10 -18.17179257281499
223 75.8571654961967 10 0
224 92.34245252335643 10 30.43296506241282
225 72.5568960381988 10 30.31474071601872
226 72.5568960381988 10 -30.31474071601874
227 92.34245252335643 10 -30.43296506241285
228 60 15 31.99999999999996
229 60 15 -15.99999999999997
230 60 15 -31.99999999999999
231 60 15 1.4210854715202e-14
232 60 15 15.99999999999995
233 14.14314315403529 24.58248436471625 40
234 21.23944799816356 53.66350245099893 40
235 41.66666666666664 11.28768115942032 40
236 32.95251876056292 25.33413575252685 40
237 26.54886549388071 39.25562132229643 40
238 13.37950383837732 68.7327406164252 40
239 11.78117004387781 41.92169659443047 40
240 25.03789515716332 12.45294899444532 40
241 11.05580096760507 83.95139614970547 40
242 72.91666666666666 5.399999999999999 40
243 92.91666666666666 5.399999999999999 40
244 5.761007913353598 101.5768846314018 40
245 11.46504236171511 11.9133926900085 40
246 8.755563617187249 54.99999999999989 40
247 13.08695074631801 0 0.03953224981601977
248 86.87082378460408 0 0.04216564389483324
249 58.11795008833838 0 -25.00627589720305
250 57.47403768765157 0 26.08509350942444
251 24.9234210628554 0 -23.75009678698357
252 26.19076854572286 0 24.22379876516673
253 41.69736302315986 0 -24.8458864784765
254 49.92978071130899 0 -10.93397189374877
255 65.08798130642538 0 -9.561683188684647
256 57.70582954512341 0 3.15523545646024
257 41.74271970888383 0 3.078715772847374
258 74.85137393183373 0 -23.54306612488719
259 42.4484831668764 0 26.13631607519638
260 73.6621220374479 0 24.37169142308511
261 34.66412210644434 0 -9.369007647910927
262 87.55269098024971 0 -15.16906737821916
263 12.38612498625852 0 -15.20586543497533
264 13.40853264394437 0 15.33752543109389
265 27.01562416918291 0 5.587851184176053
266 86.53822184837027 0 15.36367013338001
267 72.80489748234368 0 5.594146372466085
268 49.83599576042207 0 14.15045321616137
269 12.01507633084518 0 -27.98238426702072
270 12.2942032737725 0 27.91453229018693
271 88.074688189356 0 -27.99069437623253
272 87.70579672622749 0 27.91453229018695
273 37.44671827021762 0 14.63542700270958
274 77.4897443753952 0 -8.240637579744227
275 62.29657650259772 0 14.67132399551945
276 22.41524861421184 0 -8.539517287175556
277 4.999999999999998 110 6.394884621840902e-14
278 4.999999999999998 110 15.68000000000009
279 5 110 -15.67999999999996
280 5.000000000000001 110 -31.35999999999999
281 5 110 31.36000000000006
282 23.41333423773812 23.74303412844317 -13.00690631211671
283 22.78452764000262 23.83935273667768 13.14602676422964
284 19.38579906083898 42.76837198761886 -6.692699735039487
285 18.90705496106781 42.13769124335487 21.00513904348433
286 16.73339690615564 36.78744306227937 -23.46762001195473
287 15.77323378702844 57.52839539050221 -16.62425441551605
288 33.54886247591125 14.84460250214534 23.50721837894034
289 34.40972785121776 16.02391265658399 -23.28490785085537
290 15.95610691007649 58.26992024426435 1.002052570125312
291 32.64074521941946 16.15957017793218 0.327084805986794
292 15.88671410501517 15.68869388327779 -24.45055054670075
293 13.67785422790127 15.86097731349031 -1.050868346653145
294 15.63934408468153 60.32699966229536 25.80928665128709
$EndNodes
$Elements
971
1 2 2 1 2 1 29 173
2 2 2 1 2 58 1 173
3 2 2 1 2 34 2 174
4 2 2 1 2 2 54 174
5 2 2 1 2 10 48 172
6 2 2 1 2 57 10 172
7 2 2 1 2 53 11 171
8 2 2 1 2 11 61 171
9 2 2 1 2 29 30 148
10 2 2 1 2 29 148 173
11 2 2 1 2 30 31 167
12 2 2 1 2 148 30 167
13 2 2 1 2 31 32 143
14 2 2 1 2 31 143 167
15 2 2 1 2 32 33 168
16 2 2 1 2 143 32 168
17 2 2 1 2 33 34 149
18 2 2 1 2 33 149 168
19 2 2 1 2 149 34 174
20 2 2 1 2 48 49 165
21 2 2 1 2 48 165 172
22 2 2 1 2 49 50 144
23 2 2 1 2 49 144 165
24 2 2 1 2 50 51 160
25 2 2 1 2 144 50 160
26 2 2 1 2 51 52 145
27 2 2 1 2 51 145 160
28 2 2 1 2 52 53 166
29 2 2 1 2 145 52 166
30 2 2 1 2 166 53 171
31 2 2 1 2 54 55 164
32 2 2 1 2 54 164 174
33 2 2 1 2 55 56 146
34 2 2 1 2 55 146 164
35 2 2 1 2 56 57 159
36 2 2 1 2 146 56 159
37 2 2 1 2 159 57 172
38 2 2 1 2 59 58 163
39 2 2 1 2 163 58 173
40 2 2 1 2 60 59 147
41 2 2 1 2 147 59 163
42 2 2 1 2 61 60 150
43 2 2 1 2 60 147 150
44 2 2 1 2 61 150 171
45 2 2 1 2 154 143 155
46 2 2 1 2 143 154 167
47 2 2 1 2 155 143 158
48 2 2 1 2 158 143 168
49 2 2 1 2 144 160 170
50 2 2 1 2 165 144 175
51 2 2 1 2 144 170 175
52 2 2 1 2 160 145 169
53 2 2 1 2 145 166 176
54 2 2 1 2 169 145 176
55 2 2 1 2 146 159 161
56 2 2 1 2 146 161 162
57 2 2 1 2 146 162 164
58 2 2 1 2 150 147 151
59 2 2 1 2 151 147 152
60 2 2 1 2 152 147 163
61 2 2 1 2 152 148 154
62 2 2 1 2 148 152 163
63 2 2 1 2 154 148 167
64 2 2 1 2 148 163 173
65 2 2 1 2 158 149 162
66 2 2 1 2 149 158 168
67 2 2 1 2 162 149 164
68 2 2 1 2 164 149 174
69 2 2 1 2 150 151 176
70 2 2 1 2 150 166 171
71 2 2 1 2 166 150 176
72 2 2 1 2 151 152 153
73 2 2 1 2 151 153 169
74 2 2 1 2 151 169 176
75 2 2 1 2 153 152 154
76 2 2 1 2 153 154 155
77 2 2 1 2 153 155 156
78 2 2 1 2 153 156 169
79 2 2 1 2 156 155 157
80 2 2 1 2 157 155 158
81 2 2 1 2 156 157 170
82 2 2 1 2 156 160 169
83 2 2 1 2 160 156 170
84 2 2 1 2 157 158 162
85 2 2 1 2 161 157 162
86 2 2 1 2 157 161 170
87 2 2 1 2 161 159 175
88 2 2 1 2 165 159 172
89 2 2 1 2 159 165 175
90 2 2 1 2 170 161 175
91 2 2 2 5 3 4 179
92 2 2 2 5 67 3 179
93 2 2 2 5 4 71 179
94 2 2 2 5 18 17 177
95 2 2 2 5 17 70 177
96 2 2 2 5 74 18 177
97 2 2 2 5 68 67 178
98 2 2 2 5 67 71 178
99 2 2 2 5 71 67 179
100 2 2 2 5 69 68 180
101 2 2 2 5 72 68 178
102 2 2 2 5 68 72 180
103 2 2 2 5 70 69 181
104 2 2 2 5 73 69 180
105 2 2 2 5 69 73 181
106 2 2 2 5 70 74 177
107 2 2 2 5 74 70 181
108 2 2 2 5 71 72 178
109 2 2 2 5 72 73 180
110 2 2 2 5 73 74 181
111 4 2 3 1 270 172 245 283
112 4 2 3 1 191 284 282 291
113 4 2 3 1 170 161 157 284
114 4 2 3 1 191 283 284 291
115 4 2 3 1 206 215 286 289
116 4 2 3 1 193 284 283 285
117 4 2 3 1 170 161 284 285
118 4 2 3 1 282 284 283 291
119 4 2 3 1 283 284 161 285
120 4 2 3 1 282 286 215 289
121 4 2 3 1 191 192 283 291
122 4 2 3 1 183 206 215 286
123 4 2 3 1 209 202 153 290
124 4 2 3 1 165 283 175 285
125 4 2 3 1 193 283 194 285
126 4 2 3 1 165 172 159 283
127 4 2 3 1 161 284 283 293
128 4 2 3 1 270 240 252 288
129 4 2 3 1 112 16 280 58
130 4 2 3 1 154 209 153 290
131 4 2 3 1 153 199 169 290
132 4 2 3 1 193 192 194 283
133 4 2 3 1 153 151 169 199
134 4 2 3 1 197 199 153 290
135 4 2 3 1 154 209 202 153
136 4 2 3 1 270 252 283 288
137 4 2 3 1 157 170 284 290
138 4 2 3 1 170 285 284 290
139 4 2 3 1 282 284 215 286
140 4 2 3 1 206 286 132 289
141 4 2 3 1 154 287 209 290
142 4 2 3 1 61 115 26 281
143 4 2 3 1 161 162 284 293
144 4 2 3 1 167 184 205 214
145 4 2 3 1 215 284 208 286
146 4 2 3 1 215 282 191 284
147 4 2 3 1 87 127 278 128
148 4 2 3 1 209 197 202 290
149 4 2 3 1 202 197 153 290
150 4 2 3 1 167 184 214 154
151 4 2 3 1 125 279 86 126
152 4 2 3 1 165 233 283 285
153 4 2 3 1 283 284 282 293
154 4 2 3 1 121 178 68 67
155 4 2 3 1 70 181 69 124
156 4 2 3 1 137 167 184 205
157 4 2 3 1 188 283 236 285
158 4 2 3 1 183 133 206 286
159 4 2 3 1 208 215 191 284
160 4 2 3 1 214 154 184 287
161 4 2 3 1 151 176 169 199
162 4 2 3 1 144 165 175 285
163 4 2 3 1 148 167 205 214
164 4 2 3 1 264 270 252 283
165 4 2 3 1 282 284 162 293
166 4 2 3 1 214 209 202 154
167 4 2 3 1 151 153 202 199
168 4 2 3 1 184 154 167 287
169 4 2 3 1 197 202 153 199
170 4 2 3 1 142 286 130 287
171 4 2 3 1 161 175 283 285
172 4 2 3 1 142 143 286 287
173 4 2 3 1 159 175 165 283
174 4 2 3 1 194 195 193 285
175 4 2 3 1 106 242 107 120
176 4 2 3 1 233 236 283 285
177 4 2 3 1 161 170 175 285
178 4 2 3 1 176 169 198 294
179 4 2 3 1 39 138 38 66
180 4 2 3 1 198 169 176 199
181 4 2 3 1 152 154 202 153
182 4 2 3 1 184 134 167 137
183 4 2 3 1 134 184 167 287
184 4 2 3 1 161 162 157 284
185 4 2 3 1 188 236 283 288
186 4 2 3 1 261 190 254 289
187 4 2 3 1 132 206 133 286
188 4 2 3 1 261 190 289 291
189 4 2 3 1 176 145 169 294
190 4 2 3 1 214 209 154 287
191 4 2 3 1 214 184 209 287
192 4 2 3 1 208 201 286 287
193 4 2 3 1 130 183 201 286
194 4 2 3 1 183 215 208 286
195 4 2 3 1 208 286 284 287
196 4 2 3 1 157 156 170 290
197 4 2 3 1 204 77 273 291
198 4 2 3 1 205 137 167 148
199 4 2 3 1 208 201 183 286
200 4 2 3 1 130 286 201 287
201 4 2 3 1 142 135 130 286
202 4 2 3 1 285 290 156 294
203 4 2 3 1 286 289 282 292
204 4 2 3 1 188 236 237 285
205 4 2 3 1 170 156 285 290
206 4 2 3 1 237 207 188 285
207 4 2 3 1 132 289 286 292
208 4 2 3 1 273 77 257 291
209 4 2 3 1 142 143 135 286
210 4 2 3 1 254 190 261 76
211 4 2 3 1 169 290 198 294
212 4 2 3 1 144 233 165 285
213 4 2 3 1 273 288 204 291
214 4 2 3 1 153 202 152 151
215 4 2 3 1 214 148 167 154
216 4 2 3 1 188 194 283 285
217 4 2 3 1 76 190 261 291
218 4 2 3 1 261 276 282 289
219 4 2 3 1 254 75 253 289
220 4 2 3 1 167 143 142 134
221 4 2 3 1 190 75 254 289
222 4 2 3 1 202 214 154 152
223 4 2 3 1 130 184 134 287
224 4 2 3 1 143 142 134 287
225 4 2 3 1 233 283 236 288
226 4 2 3 1 233 237 236 285
227 4 2 3 1 195 290 285 294
228 4 2 3 1 261 254 253 289
229 4 2 3 1 130 134 142 287
230 4 2 3 1 162 284 282 286
231 4 2 3 1 215 190 191 282
232 4 2 3 1 276 292 263 293
233 4 2 3 1 251 282 276 289
234 4 2 3 1 276 282 251 292
235 4 2 3 1 190 282 215 289
236 4 2 3 1 191 282 190 291
237 4 2 3 1 201 184 130 287
238 4 2 3 1 276 282 292 293
239 4 2 3 1 282 289 190 291
240 4 2 3 1 192 188 194 283
241 4 2 3 1 268 273 204 77
242 4 2 3 1 130 133 183 286
243 4 2 3 1 134 167 143 287
244 4 2 3 1 188 207 194 285
245 4 2 3 1 159 283 264 293
246 4 2 3 1 164 263 292 293
247 4 2 3 1 187 166 176 145
248 4 2 3 1 149 286 282 292
249 4 2 3 1 162 282 164 292
250 4 2 3 1 164 292 282 293
251 4 2 3 1 240 233 236 288
252 4 2 3 1 276 261 282 291
253 4 2 3 1 261 289 282 291
254 4 2 3 1 238 241 187 145
255 4 2 3 1 282 291 283 293
256 4 2 3 1 164 282 162 293
257 4 2 3 1 187 211 238 145
258 4 2 3 1 282 289 251 292
259 4 2 3 1 149 282 162 292
260 4 2 3 1 166 187 241 145
261 4 2 3 1 156 290 169 294
262 4 2 3 1 160 285 156 294
263 4 2 3 1 204 273 268 288
264 4 2 3 1 129 132 286 292
265 4 2 3 1 211 238 145 294
266 4 2 3 1 190 254 75 76
267 4 2 3 1 156 160 170 285
268 4 2 3 1 162 282 149 286
269 4 2 3 1 176 198 199 187
270 4 2 3 1 168 135 143 286
271 4 2 3 1 175 159 161 283
272 4 2 3 1 59 279 112 113
273 4 2 3 1 154 214 148 152
274 4 2 3 1 264 247 110 293
275 4 2 3 1 76 186 190 291
276 4 2 3 1 188 283 192 288
277 4 2 3 1 202 185 152 151
278 4 2 3 1 233 144 239 285
279 4 2 3 1 264 252 265 283
280 4 2 3 1 264 283 265 293
281 4 2 3 1 159 161 283 293
282 4 2 3 1 261 251 276 289
283 4 2 3 1 182 195 285 294
284 4 2 3 1 176 199 150 203
285 4 2 3 1 202 185 151 199
286 4 2 3 1 200 148 214 152
287 4 2 3 1 265 283 252 288
288 4 2 3 1 278 114 60 115
289 4 2 3 1 186 77 204 291
290 4 2 3 1 204 268 78 288
291 4 2 3 1 203 176 199 187
292 4 2 3 1 186 191 190 291
293 4 2 3 1 204 188 192 288
294 4 2 3 1 276 291 282 293
295 4 2 3 1 191 193 208 284
296 4 2 3 1 127 126 87 277
297 4 2 3 1 199 151 176 150
298 4 2 3 1 151 185 147 150
299 4 2 3 1 196 284 193 290
300 4 2 3 1 198 290 195 294
301 4 2 3 1 45 134 130 184
302 4 2 3 1 182 207 234 285
303 4 2 3 1 257 76 261 291
304 4 2 3 1 206 190 215 289
305 4 2 3 1 273 268 257 77
306 4 2 3 1 162 158 284 286
307 4 2 3 1 185 152 151 147
308 4 2 3 1 214 202 200 152
309 4 2 3 1 201 45 130 184
310 4 2 3 1 123 69 122 180
311 4 2 3 1 126 86 87 277
312 4 2 3 1 136 289 132 292
313 4 2 3 1 283 288 265 291
314 4 2 3 1 185 151 199 150
315 4 2 3 1 203 150 176 187
316 4 2 3 1 122 69 68 180
317 4 2 3 1 208 284 196 287
318 4 2 3 1 259 268 273 288
319 4 2 3 1 257 186 76 291
320 4 2 3 1 265 288 273 291
321 4 2 3 1 186 204 192 291
322 4 2 3 1 149 162 164 292
323 4 2 3 1 166 176 150 187
324 4 2 3 1 152 185 163 147
325 4 2 3 1 168 33 135 286
326 4 2 3 1 155 157 284 290
327 4 2 3 1 259 78 268 288
328 4 2 3 1 195 194 182 285
329 4 2 3 1 257 254 261 76
330 4 2 3 1 186 257 77 291
331 4 2 3 1 143 158 286 287
332 4 2 3 1 150 199 185 203
333 4 2 3 1 276 251 263 292
334 4 2 3 1 192 191 186 291
335 4 2 3 1 234 207 237 285
336 4 2 3 1 159 146 161 293
337 4 2 3 1 185 163 200 152
338 4 2 3 1 149 33 168 286
339 4 2 3 1 200 148 205 214
340 4 2 3 1 200 202 185 152
341 4 2 3 1 284 286 158 287
342 4 2 3 1 196 193 195 290
343 4 2 3 1 49 144 233 165
344 4 2 3 1 160 156 169 294
345 4 2 3 1 168 143 158 286
346 4 2 3 1 246 234 239 294
347 4 2 3 1 283 291 265 293
348 4 2 3 1 184 46 137 205
349 4 2 3 1 239 50 246 144
350 4 2 3 1 160 246 50 144
351 4 2 3 1 77 257 186 76
352 4 2 3 1 200 163 148 152
353 4 2 3 1 136 132 129 292
354 4 2 3 1 233 239 237 285
355 4 2 3 1 162 158 157 284
356 4 2 3 1 270 111 172 264
357 4 2 3 1 183 44 130 201
358 4 2 3 1 210 137 205 173
359 4 2 3 1 46 134 184 137
360 4 2 3 1 206 43 133 183
361 4 2 3 1 265 252 273 288
362 4 2 3 1 80 188 237 207
363 4 2 3 1 182 285 234 294
364 4 2 3 1 201 208 196 287
365 4 2 3 1 155 284 158 287
366 4 2 3 1 155 284 287 290
367 4 2 3 1 164 162 146 293
368 4 2 3 1 268 204 78 77
369 4 2 3 1 148 205 137 173
370 4 2 3 1 173 148 205 200
371 4 2 3 1 159 172 111 264
372 4 2 3 1 234 285 239 294
373 4 2 3 1 133 129 132 286
374 4 2 3 1 196 287 284 290
375 4 2 3 1 175 170 144 285
376 4 2 3 1 263 247 276 293
377 4 2 3 1 253 212 131 289
378 4 2 3 1 49 144 239 233
379 4 2 3 1 155 156 157 290
380 4 2 3 1 129 135 33 286
381 4 2 3 1 173 205 210 200
382 4 2 3 1 144 170 160 285
383 4 2 3 1 194 207 182 285
384 4 2 3 1 247 264 265 293
385 4 2 3 1 167 154 143 287
386 4 2 3 1 75 190 212 289
387 4 2 3 1 196 209 287 290
388 4 2 3 1 278 150 87 203
389 4 2 3 1 196 208 193 284
390 4 2 3 1 155 157 158 284
391 4 2 3 1 146 162 161 293
392 4 2 3 1 149 129 33 286
393 4 2 3 1 183 44 133 130
394 4 2 3 1 234 182 81 207
395 4 2 3 1 132 206 43 133
396 4 2 3 1 167 142 31 134
397 4 2 3 1 171 166 241 53
398 4 2 3 1 185 86 163 147
399 4 2 3 1 198 197 195 290
400 4 2 3 1 235 213 259 288
401 4 2 3 1 31 143 142 167
402 4 2 3 1 210 137 47 205
403 4 2 3 1 129 286 149 292
404 4 2 3 1 259 235 78 213
405 4 2 3 1 75 212 253 289
406 4 2 3 1 212 253 131 75
407 4 2 3 1 162 149 158 286
408 4 2 3 1 135 133 130 286
409 4 2 3 1 241 166 145 52
410 4 2 3 1 251 289 136 292
411 4 2 3 1 236 80 188 237
412 4 2 3 1 277 185 87 147
413 4 2 3 1 196 197 209 290
414 4 2 3 1 182 198 195 294
415 4 2 3 1 184 201 209 287
416 4 2 3 1 169 156 153 290
417 4 2 3 1 86 185 277 147
418 4 2 3 1 78 259 213 288
419 4 2 3 1 235 104 240 288
420 4 2 3 1 86 163 200 185
421 4 2 3 1 137 210 29 173
422 4 2 3 1 241 84 187 189
423 4 2 3 1 114 60 113 277
424 4 2 3 1 259 117 235 288
425 4 2 3 1 148 173 163 200
426 4 2 3 1 261 253 251 289
427 4 2 3 1 134 30 167 137
428 4 2 3 1 145 238 241 52
429 4 2 3 1 60 59 113 277
430 4 2 3 1 206 132 212 289
431 4 2 3 1 129 174 141 292
432 4 2 3 1 188 213 236 288
433 4 2 3 1 235 117 104 288
434 4 2 3 1 137 30 167 148
435 4 2 3 1 279 163 200 86
436 4 2 3 1 235 236 213 288
437 4 2 3 1 137 29 210 47
438 4 2 3 1 81 237 234 207
439 4 2 3 1 230 8 5 249
440 4 2 3 1 73 218 72 180
441 4 2 3 1 172 111 57 159
442 4 2 3 1 76 75 229 255
443 4 2 3 1 60 150 278 61
444 4 2 3 1 187 203 171 189
445 4 2 3 1 172 48 245 165
446 4 2 3 1 265 291 276 293
447 4 2 3 1 259 235 118 78
448 4 2 3 1 34 141 129 174
449 4 2 3 1 257 265 273 291
450 4 2 3 1 155 158 143 287
451 4 2 3 1 277 60 59 147
452 4 2 3 1 252 117 259 288
453 4 2 3 1 132 42 206 212
454 4 2 3 1 252 270 116 240
455 4 2 3 1 132 131 212 289
456 4 2 3 1 63 251 253 289
457 4 2 3 1 118 235 19 78
458 4 2 3 1 234 237 239 285
459 4 2 3 1 42 132 131 212
460 4 2 3 1 244 53 171 189
461 4 2 3 1 64 131 253 75
462 4 2 3 1 204 78 213 288
463 4 2 3 1 91 230 5 249
464 4 2 3 1 84 53 244 189
465 4 2 3 1 63 253 131 289
466 4 2 3 1 148 137 29 173
467 4 2 3 1 18 74 177 224
468 4 2 3 1 227 4 71 179
469 4 2 3 1 246 160 51 294
470 4 2 3 1 173 280 16 58
471 4 2 3 1 206 212 190 289
472 4 2 3 1 220 72 178 71
473 4 2 3 1 219 181 73 74
474 4 2 3 1 131 136 36 289
475 4 2 3 1 250 228 22 94
476 4 2 3 1 8 131 64 75
477 4 2 3 1 174 129 149 292
478 4 2 3 1 228 22 19 250
479 4 2 3 1 109 146 110 247
480 4 2 3 1 131 8 64 37
481 4 2 3 1 158 149 168 286
482 4 2 3 1 235 236 79 213
483 4 2 3 1 51 238 246 294
484 4 2 3 1 235 240 236 288
485 4 2 3 1 247 265 276 293
486 4 2 3 1 145 160 169 294
487 4 2 3 1 51 160 145 294
488 4 2 3 1 105 235 19 118
489 4 2 3 1 111 159 264 56
490 4 2 3 1 51 145 238 294
491 4 2 3 1 140 210 29 47
492 4 2 3 1 238 211 82 294
493 4 2 3 1 171 61 26 281
494 4 2 3 1 15 14 210 85
495 4 2 3 1 122 248 123 180
496 4 2 3 1 140 29 210 173
497 4 2 3 1 131 36 63 289
498 4 2 3 1 48 233 245 165
499 4 2 3 1 149 34 129 174
500 4 2 3 1 78 235 19 213
501 4 2 3 1 87 86 185 277
502 4 2 3 1 201 196 209 287
503 4 2 3 1 65 138 258 66
504 4 2 3 1 238 82 234 294
505 4 2 3 1 182 234 82 294
506 4 2 3 1 188 79 236 213
507 4 2 3 1 153 156 155 290
508 4 2 3 1 133 135 129 286
509 4 2 3 1 143 154 155 287
510 4 2 3 1 211 182 82 294
511 4 2 3 1 276 265 261 291
512 4 2 3 1 123 181 266 124
513 4 2 3 1 85 173 210 200
514 4 2 3 1 242 225 216 120
515 4 2 3 1 212 131 8 75
516 4 2 3 1 178 122 262 121
517 4 2 3 1 226 138 217 66
518 4 2 3 1 138 226 258 66
519 4 2 3 1 181 123 69 124
520 4 2 3 1 98 23 19 228
521 4 2 3 1 19 98 228 78
522 4 2 3 1 24 94 22 228
523 4 2 3 1 91 100 99 229
524 4 2 3 1 100 91 92 229
525 4 2 3 1 91 6 5 230
526 4 2 3 1 6 91 99 230
527 4 2 3 1 102 93 232 101
528 4 2 3 1 101 100 93 231
529 4 2 3 1 96 77 231 97
530 4 2 3 1 93 100 92 231
531 4 2 3 1 98 232 77 97
532 4 2 3 1 232 78 98 77
533 4 2 3 1 258 91 226 249
534 4 2 3 1 188 204 213 288
535 4 2 3 1 68 122 178 121
536 4 2 3 1 77 256 257 76
537 4 2 3 1 91 229 255 92
538 4 2 3 1 242 119 260 120
539 4 2 3 1 269 263 251 292
540 4 2 3 1 136 62 36 251
541 4 2 3 1 197 196 195 290
542 4 2 3 1 95 75 229 96
543 4 2 3 1 7 95 75 230
544 4 2 3 1 7 75 8 230
545 4 2 3 1 8 230 75 249
546 4 2 3 1 24 102 94 228
547 4 2 3 1 93 102 232 94
548 4 2 3 1 177 272 27 243
549 4 2 3 1 65 258 226 249
550 4 2 3 1 78 232 275 77
551 4 2 3 1 229 76 255 92
552 4 2 3 1 225 242 216 90
553 4 2 3 1 217 138 226 41
554 4 2 3 1 231 93 256 92
555 4 2 3 1 254 257 256 76
556 4 2 3 1 138 258 226 65
557 4 2 3 1 110 146 109 56
558 4 2 3 1 108 164 55 263
559 4 2 3 1 77 96 231 76
560 4 2 3 1 265 257 261 291
561 4 2 3 1 139 271 13 179
562 4 2 3 1 146 55 109 56
563 4 2 3 1 225 242 260 120
564 4 2 3 1 45 130 44 201
565 4 2 3 1 63 36 62 251
566 4 2 3 1 19 228 250 78
567 4 2 3 1 248 262 218 122
568 4 2 3 1 266 123 248 218
569 4 2 3 1 75 229 96 76
570 4 2 3 1 132 136 131 289
571 4 2 3 1 259 118 250 78
572 4 2 3 1 104 252 116 240
573 4 2 3 1 203 88 171 189
574 4 2 3 1 266 248 267 223
575 4 2 3 1 254 249 76 255
576 4 2 3 1 136 129 141 292
577 4 2 3 1 182 82 234 81
578 4 2 3 1 80 79 236 188
579 4 2 3 1 259 273 252 288
580 4 2 3 1 115 60 278 61
581 4 2 3 1 22 225 119 94
582 4 2 3 1 174 149 164 292
583 4 2 3 1 75 253 64 249
584 4 2 3 1 249 75 76 255
585 4 2 3 1 94 225 119 260
586 4 2 3 1 182 211 198 294
587 4 2 3 1 46 134 45 184
588 4 2 3 1 272 177 224 243
589 4 2 3 1 117 252 116 104
590 4 2 3 1 238 234 246 294
591 4 2 3 1 33 34 129 149
592 4 2 3 1 249 75 254 76
593 4 2 3 1 278 128 115 61
594 4 2 3 1 206 42 132 43
595 4 2 3 1 217 258 226 66
596 4 2 3 1 63 131 253 64
597 4 2 3 1 233 48 49 165
598 4 2 3 1 271 139 227 179
599 4 2 3 1 271 258 262 217
600 4 2 3 1 65 5 8 249
601 4 2 3 1 12 269 174 54
602 4 2 3 1 218 123 248 180
603 4 2 3 1 173 16 1 58
604 4 2 3 1 111 57 159 56
605 4 2 3 1 29 30 137 148
606 4 2 3 1 122 218 248 180
607 4 2 3 1 51 246 50 160
608 4 2 3 1 250 22 119 94
609 4 2 3 1 76 231 256 92
610 4 2 3 1 32 31 143 142
611 4 2 3 1 242 106 119 120
612 4 2 3 1 93 267 256 92
613 4 2 3 1 64 65 8 249
614 4 2 3 1 225 242 119 260
615 4 2 3 1 178 262 220 121
616 4 2 3 1 259 235 117 118
617 4 2 3 1 119 19 22 250
618 4 2 3 1 255 256 267 92
619 4 2 3 1 250 118 19 78
620 4 2 3 1 210 280 140 173
621 4 2 3 1 52 145 238 51
622 4 2 3 1 271 139 40 227
623 4 2 3 1 254 253 75 249
624 4 2 3 1 238 82 211 83
625 4 2 3 1 275 268 78 77
626 4 2 3 1 258 91 249 255
627 4 2 3 1 272 224 89 243
628 4 2 3 1 216 225 260 120
629 4 2 3 1 232 94 78 275
630 4 2 3 1 218 262 220 122
631 4 2 3 1 118 19 119 250
632 4 2 3 1 174 2 12 54
633 4 2 3 1 53 171 11 244
634 4 2 3 1 122 262 220 178
635 4 2 3 1 26 11 61 171
636 4 2 3 1 275 232 94 93
637 4 2 3 1 123 266 219 218
638 4 2 3 1 281 244 171 189
639 4 2 3 1 140 1 29 173
640 4 2 3 1 44 133 43 183
641 4 2 3 1 75 64 8 249
642 4 2 3 1 10 48 245 172
643 4 2 3 1 78 228 250 94
644 4 2 3 1 65 38 138 66
645 4 2 3 1 219 266 267 223
646 4 2 3 1 139 39 271 40
647 4 2 3 1 167 31 30 134
648 4 2 3 1 75 230 91 249
649 4 2 3 1 281 171 88 189
650 4 2 3 1 141 34 2 174
651 4 2 3 1 8 42 131 212
652 4 2 3 1 271 262 220 217
653 4 2 3 1 257 268 256 77
654 4 2 3 1 110 111 264 56
655 4 2 3 1 223 274 220 218
656 4 2 3 1 243 89 272 107
657 4 2 3 1 219 266 181 124
658 4 2 3 1 119 250 94 260
659 4 2 3 1 80 237 81 207
660 4 2 3 1 267 221 266 219
661 4 2 3 1 25 10 172 57
662 4 2 3 1 256 77 231 76
663 4 2 3 1 268 259 250 78
664 4 2 3 1 166 241 53 52
665 4 2 3 1 266 181 123 219
666 4 2 3 1 274 220 222 223
667 4 2 3 1 109 108 55 263
668 4 2 3 1 260 266 216 272
669 4 2 3 1 54 108 164 55
670 4 2 3 1 144 239 50 49
671 4 2 3 1 258 220 262 217
672 4 2 3 1 267 221 219 223
673 4 2 3 1 187 84 241 83
674 4 2 3 1 267 221 260 266
675 4 2 3 1 19 79 213 235
676 4 2 3 1 266 221 260 216
677 4 2 3 1 77 232 275 93
678 4 2 3 1 78 250 268 275
679 4 2 3 1 33 32 168 135
680 4 2 3 1 40 217 271 227
681 4 2 3 1 217 271 258 66
682 4 2 3 1 223 248 274 218
683 4 2 3 1 258 91 255 222
684 4 2 3 1 275 221 260 267
685 4 2 3 1 216 272 224 89
686 4 2 3 1 256 254 76 255
687 4 2 3 1 121 262 220 271
688 4 2 3 1 221 266 219 216
689 4 2 3 1 39 217 271 40
690 4 2 3 1 105 117 235 118
691 4 2 3 1 35 12 62 269
692 4 2 3 1 274 222 92 223
693 4 2 3 1 12 269 54 108
694 4 2 3 1 107 89 216 90
695 4 2 3 1 39 41 217 40
696 4 2 3 1 216 272 89 107
697 4 2 3 1 256 77 93 231
698 4 2 3 1 93 267 92 223
699 4 2 3 1 36 35 62 136
700 4 2 3 1 272 216 260 120
701 4 2 3 1 116 25 103 270
702 4 2 3 1 47 137 46 205
703 4 2 3 1 262 222 258 274
704 4 2 3 1 116 103 104 240
705 4 2 3 1 126 113 59 277
706 4 2 3 1 266 219 216 272
707 4 2 3 1 92 255 91 222
708 4 2 3 1 64 63 131 37
709 4 2 3 1 222 255 258 274
710 4 2 3 1 267 255 92 223
711 4 2 3 1 220 258 222 217
712 4 2 3 1 266 219 272 124
713 4 2 3 1 138 5 226 41
714 4 2 3 1 242 225 22 90
715 4 2 3 1 105 19 119 118
716 4 2 3 1 127 60 114 277
717 4 2 3 1 250 94 260 275
718 4 2 3 1 255 267 274 223
719 4 2 3 1 267 275 221 93
720 4 2 3 1 255 76 256 92
721 4 2 3 1 217 220 271 227
722 4 2 3 1 222 92 255 274
723 4 2 3 1 274 92 255 223
724 4 2 3 1 64 8 65 37
725 4 2 3 1 219 216 272 224
726 4 2 3 1 104 117 235 105
727 4 2 3 1 220 222 258 262
728 4 2 3 1 262 220 222 274
729 4 2 3 1 94 221 275 93
730 4 2 3 1 119 106 19 105
731 4 2 3 1 256 268 275 77
732 4 2 3 1 221 267 93 223
733 4 2 3 1 63 36 131 37
734 4 2 3 1 8 38 65 37
735 4 2 3 1 140 9 210 47
736 4 2 3 1 20 84 244 189
737 4 2 3 1 14 210 280 140
738 4 2 3 1 256 275 267 93
739 4 2 3 1 250 78 94 275
740 4 2 3 1 89 224 18 243
741 4 2 3 1 40 139 4 227
742 4 2 3 1 221 260 94 275
743 4 2 3 1 224 177 18 243
744 4 2 3 1 227 139 4 179
745 4 2 3 1 267 248 274 223
746 4 2 3 1 227 71 67 179
747 4 2 3 1 177 74 70 224
748 4 2 3 1 258 226 222 217
749 4 2 3 1 225 260 221 216
750 4 2 3 1 271 217 39 66
751 4 2 3 1 106 19 22 119
752 4 2 3 1 113 59 279 126
753 4 2 3 1 216 272 107 120
754 4 2 3 1 38 5 8 65
755 4 2 3 1 275 256 77 93
756 4 2 3 1 114 60 127 278
757 4 2 3 1 244 26 28 281
758 4 2 3 1 280 16 14 140
759 4 2 3 1 226 91 258 222
760 4 2 3 1 9 14 1 140
761 4 2 3 1 11 28 20 244
762 4 2 3 1 58 280 112 125
763 4 2 3 1 177 17 18 243
764 4 2 3 1 139 3 4 179
765 4 2 3 1 260 94 225 221
766 4 2 3 1 61 128 115 281
767 4 2 3 1 27 17 177 243
768 4 2 3 1 13 3 139 179
769 4 2 3 1 93 101 231 97
770 4 2 3 1 101 93 232 97
771 4 2 3 1 7 5 230 8
772 4 2 3 1 75 99 95 229
773 4 2 3 1 95 230 99 75
774 4 2 3 1 231 77 93 97
775 4 2 3 1 93 77 232 97
776 4 2 3 1 5 7 230 6
777 4 2 3 1 94 78 228 102
778 4 2 3 1 102 78 228 98
779 4 2 3 1 229 96 92 100
780 4 2 3 1 92 96 231 100
781 4 2 3 1 23 24 19 228
782 4 2 3 1 24 22 19 228
783 4 2 3 1 102 94 78 232
784 4 2 3 1 98 102 78 232
785 4 2 3 1 75 91 99 229
786 4 2 3 1 91 99 230 75
787 4 2 3 1 229 96 76 92
788 4 2 3 1 76 96 231 92
789 4 2 3 1 16 1 14 140
790 4 2 3 1 11 26 28 244
791 4 2 3 1 28 128 88 281
792 4 2 3 1 27 17 70 177
793 4 2 3 1 27 17 243 107
794 4 2 3 1 13 3 39 139
795 4 2 3 1 67 3 13 179
796 4 2 3 1 193 283 191 192
797 4 2 3 1 193 191 283 284
798 4 2 3 1 290 199 198 197
799 4 2 3 1 290 198 199 169
800 4 2 3 1 294 176 211 198
801 4 2 3 1 294 211 176 145
802 4 2 3 1 187 211 176 198
803 4 2 3 1 187 176 211 145
804 4 2 3 1 290 193 285 284
805 4 2 3 1 290 285 193 195
806 4 2 3 1 270 288 245 240
807 4 2 3 1 270 245 288 283
808 4 2 3 1 233 245 288 240
809 4 2 3 1 233 288 245 283
810 4 2 3 1 245 165 283 172
811 4 2 3 1 283 165 245 233
812 4 2 3 1 192 288 291 204
813 4 2 3 1 291 288 192 283
814 4 2 3 1 290 154 155 153
815 4 2 3 1 290 155 154 287
816 4 2 3 1 238 187 83 211
817 4 2 3 1 238 83 187 241
818 4 2 3 1 293 110 146 247
819 4 2 3 1 264 172 283 159
820 4 2 3 1 264 283 172 270
821 4 2 3 1 110 264 146 56
822 4 2 3 1 110 146 264 293
823 4 2 3 1 159 146 264 56
824 4 2 3 1 159 264 146 293
825 4 2 3 1 143 135 32 142
826 4 2 3 1 32 135 143 168
827 4 2 3 1 285 144 294 160
828 4 2 3 1 285 294 144 239
829 4 2 3 1 246 294 144 160
830 4 2 3 1 246 144 294 239
831 4 2 3 1 187 150 171 203
832 4 2 3 1 187 171 150 166
833 4 2 3 1 189 241 53 171
834 4 2 3 1 189 53 241 84
835 4 2 3 1 171 187 241 166
836 4 2 3 1 241 187 171 189
837 4 2 3 1 61 171 278 128
838 4 2 3 1 61 278 171 150
839 4 2 3 1 288 104 252 117
840 4 2 3 1 288 252 104 240
841 4 2 3 1 185 150 87 147
842 4 2 3 1 185 87 150 203
843 4 2 3 1 293 146 109 247
844 4 2 3 1 109 263 293 247
845 4 2 3 1 255 75 91 249
846 4 2 3 1 255 91 75 229
847 4 2 3 1 21 88 281 28
848 4 2 3 1 281 88 21 189
849 4 2 3 1 289 36 251 136
850 4 2 3 1 289 251 36 63
851 4 2 3 1 54 164 292 174
852 4 2 3 1 292 269 54 174
853 4 2 3 1 277 126 147 59
854 4 2 3 1 277 147 126 86
855 4 2 3 1 147 126 163 59
856 4 2 3 1 147 163 126 86
857 4 2 3 1 163 126 279 59
858 4 2 3 1 163 279 126 86
859 4 2 3 1 163 200 125 279
860 4 2 3 1 86 200 125 85
861 4 2 3 1 86 125 200 279
862 4 2 3 1 127 277 147 60
863 4 2 3 1 147 277 127 87
864 4 2 3 1 127 147 150 60
865 4 2 3 1 150 147 127 87
866 4 2 3 1 127 150 278 60
867 4 2 3 1 278 150 127 87
868 4 2 3 1 136 35 292 141
869 4 2 3 1 240 103 270 116
870 4 2 3 1 240 270 103 245
871 4 2 3 1 128 87 203 278
872 4 2 3 1 128 203 87 88
873 4 2 3 1 150 128 203 278
874 4 2 3 1 171 128 150 278
875 4 2 3 1 172 111 25 57
876 4 2 3 1 172 25 111 270
877 4 2 3 1 59 112 163 58
878 4 2 3 1 59 163 112 279
879 4 2 3 1 125 163 112 58
880 4 2 3 1 125 112 163 279
881 4 2 3 1 226 249 5 65
882 4 2 3 1 5 249 226 91
883 4 2 3 1 16 140 173 1
884 4 2 3 1 173 140 16 280
885 4 2 3 1 244 26 171 11
886 4 2 3 1 244 171 26 281
887 4 2 3 1 103 10 172 25
888 4 2 3 1 172 10 103 245
889 4 2 3 1 172 270 103 25
890 4 2 3 1 103 270 172 245
891 4 2 3 1 2 35 174 12
892 4 2 3 1 2 174 35 141
893 4 2 3 1 269 174 35 12
894 4 2 3 1 107 27 272 243
895 4 2 3 1 272 27 107 120
896 4 2 3 1 39 13 271 66
897 4 2 3 1 39 271 13 139
898 4 2 3 1 224 219 124 272
899 4 2 3 1 218 262 274 220
900 4 2 3 1 218 274 262 248
901 4 2 3 1 69 218 180 123
902 4 2 3 1 180 218 69 73
903 4 2 3 1 181 219 218 123
904 4 2 3 1 218 219 181 73
905 4 2 3 1 69 181 218 123
906 4 2 3 1 218 181 69 73
907 4 2 3 1 227 121 220 271
908 4 2 3 1 68 218 180 72
909 4 2 3 1 180 218 68 122
910 4 2 3 1 178 220 218 72
911 4 2 3 1 218 220 178 122
912 4 2 3 1 68 178 218 72
913 4 2 3 1 218 178 68 122
914 4 2 3 1 266 218 223 219
915 4 2 3 1 223 218 266 248
916 4 2 3 1 171 128 281 88
917 4 2 3 1 171 281 128 61
918 4 2 3 1 125 280 173 58
919 4 2 3 1 173 163 125 58
920 4 2 3 1 242 119 22 225
921 4 2 3 1 22 119 242 106
922 4 2 3 1 138 65 5 38
923 4 2 3 1 5 65 138 226
924 4 2 3 1 216 107 242 120
925 4 2 3 1 216 242 107 90
926 4 2 3 1 217 39 138 41
927 4 2 3 1 138 39 217 66
928 4 2 3 1 227 220 178 71
929 4 2 3 1 178 220 227 121
930 4 2 3 1 178 67 227 71
931 4 2 3 1 227 67 178 121
932 4 2 3 1 219 224 181 74
933 4 2 3 1 219 181 224 124
934 4 2 3 1 70 181 224 74
935 4 2 3 1 70 224 181 124
936 4 2 3 1 224 124 177 272
937 4 2 3 1 224 177 124 70
938 4 2 3 1 27 177 124 272
939 4 2 3 1 27 124 177 70
940 4 2 3 1 121 227 179 271
941 4 2 3 1 179 227 121 67
942 4 2 3 1 179 13 121 271
943 4 2 3 1 121 13 179 67
944 4 2 3 1 210 9 14 15
945 4 2 3 1 210 14 9 140
946 4 2 3 1 189 20 281 244
947 4 2 3 1 189 281 20 21
948 4 2 3 1 28 281 20 244
949 4 2 3 1 28 20 281 21
950 4 2 3 1 125 14 210 280
951 4 2 3 1 210 14 125 85
952 4 2 3 1 210 173 125 280
953 4 2 3 1 125 173 210 85
954 4 2 3 1 164 146 263 293
955 4 2 3 1 164 263 146 55
956 4 2 3 1 109 263 146 293
957 4 2 3 1 109 146 263 55
958 4 2 3 1 54 164 269 292
959 4 2 3 1 54 269 164 108
960 4 2 3 1 263 269 164 292
961 4 2 3 1 263 164 269 108
962 4 2 3 1 200 125 173 163
963 4 2 3 1 200 173 125 85
964 4 2 3 1 136 35 269 292
965 4 2 3 1 269 35 136 62
966 4 2 3 1 269 251 136 292
967 4 2 3 1 136 251 269 62
968 4 2 3 1 128 203 171 150
969 4 2 3 1 128 171 203 88
970 4 2 3 1 174 35 292 269
971 4 2 3 1 174 292 35 141
$EndElements
