$MeshFormat
2.2 0 8
$EndMeshFormat
$PhysicalNames
3
2 1 "Fixed"
2 2 "Load"
3 3 "Volume"
$EndPhysicalNames
$Nodes
415
1 -4.440892098501e-16 3 -38.5
2 -4.440892098501e-16 3 38.5
3 1.942890293094e-15 37 38.5
4 1.942890293094e-15 37 -38.5
5 3 1.831867990632e-15 -38.5
6 3 1.831867990632e-15 38.5
7 0.353553390593 3 -39.35355339059
8 0.353553390593 37 -39.35355339059
9 0.353553390593 3 39.353553390593
10 0.353553390593 37 39.353553390593
11 3 40 38.5
12 3 40 -38.5
13 3 0.353553390593 -39.35355339059
14 3 0.353553390593 39.353553390593
15 64.5 2.109423746788e-15 -38.5
16 64.5 2.109423746788e-15 38.5
17 1 3 -40
18 1 37 -40
19 3 39.646446609407 -39.35355339059
20 1 3 40
21 1 37 40
22 3 39.646446609407 39.353553390593
23 54 40 38.5
24 54 40 -38.5
25 64.85355339059301 0.353553390593 -39.35355339059
26 3 1 -40
27 64.85355339059301 0.353553390593 39.353553390593
28 3 1 40
29 65 0.5 39.5
30 65 0.5 -39.5
31 80 0.5 -40
32 80 8 -40
33 65 8 -40
34 65 1 -40
35 3 39 -40
36 56.5 39 -40
37 100 10 -40
38 100 0.5 -40
39 55.167707525089 39.646446609407 -39.35355339059
40 80 0.5 40
41 80 8 40
42 65 8 40
43 65 1 40
44 3 39 40
45 56.5 39 40
46 100 10 40
47 100 0.5 40
48 55.167707525089 39.646446609407 39.353553390593
49 55.832050294338 39.445299803775 -39.55470019622
50 55.832050294338 39.445299803775 39.554700196225
51 99.5 4.718447854657e-16 -39.5
52 80.5 4.996003610813e-16 -39.5
53 99.5 4.718447854657e-16 39.5
54 80.5 4.996003610813e-16 39.5
55 -4.440892098501e-16 3 -25.66666666666664
56 -4.440892098501e-16 3 -12.83333333333327
57 -4.440892098501e-16 3 5.684341886080801e-14
58 -4.440892098501e-16 3 12.83333333333337
59 -4.440892098501e-16 3 25.66666666666669
60 1.110223024625e-16 14.33333333333337 38.5
61 1.110223024625e-16 25.66666666666669 38.5
62 -4.440892098501e-16 37 -25.66666666666664
63 -4.440892098501e-16 37 -12.83333333333327
64 -4.440892098501e-16 37 5.684341886080801e-14
65 -4.440892098501e-16 37 12.83333333333337
66 -4.440892098501e-16 37 25.66666666666669
67 1.110223024625e-16 14.33333333333337 -38.5
68 1.110223024625e-16 25.66666666666669 -38.5
69 0.8786798097794482 0.8786798097794586 -38.5
70 3 -4.440892098501e-16 -25.66666666666664
71 3 -4.440892098501e-16 -12.83333333333327
72 3 -4.440892098501e-16 5.684341886080801e-14
73 3 -4.440892098501e-16 12.83333333333337
74 3 -4.440892098501e-16 25.66666666666669
75 0.8786798097794482 0.8786798097794586 38.5
76 0.1767766952964998 3 -38.926776695295
77 0.353553390593 14.33333333333337 -39.35355339059
78 0.353553390593 25.66666666666669 -39.35355339059
79 0.1767766952964993 3 38.9267766952965
80 0.353553390593 14.33333333333337 39.353553390593
81 0.353553390593 25.66666666666669 39.353553390593
82 0.8786798097794382 39.12132019022061 38.5
83 3 40 -25.66666666666664
84 3 40 -12.83333333333327
85 3 40 5.684341886080801e-14
86 3 40 12.83333333333337
87 3 40 25.66666666666669
88 0.8786798097794382 39.12132019022061 -38.5
89 1.12867979170813 1.128679791708121 -39.35355339059
90 1.12867979170813 1.128679791708121 39.353553390593
91 52.2 1.110223024625e-16 -38.5
92 39.90000000000001 1.110223024625e-16 -38.5
93 27.6 1.110223024625e-16 -38.5
94 15.3 1.110223024625e-16 -38.5
95 64.5 0 -25.66666666666664
96 64.5 0 -12.83333333333327
97 64.5 0 5.684341886080801e-14
98 64.5 0 12.83333333333337
99 64.5 0 25.66666666666669
100 52.2 1.110223024625e-16 38.5
101 39.90000000000001 1.110223024625e-16 38.5
102 27.6 1.110223024625e-16 38.5
103 15.3 1.110223024625e-16 38.5
104 1 14.33333333333337 -40
105 1 25.66666666666669 -40
106 1.128679791708121 38.87132020829188 -39.35355339059
107 3 39.8232233047035 -38.926776695295
108 1 14.33333333333337 40
109 1 25.66666666666669 40
110 1.128679791708121 38.87132020829188 39.35355339059331
111 3 39.8232233047035 38.9267766952965
112 15.75000000000001 40 38.5
113 28.50000000000006 40 38.5
114 41.25000000000004 40 38.5
115 54 40 -25.66666666666664
116 54 40 -12.83333333333327
117 54 40 5.684341886080801e-14
118 54 40 12.83333333333337
119 54 40 25.66666666666669
120 15.75000000000001 40 -38.5
121 28.50000000000006 40 -38.5
122 41.25000000000004 40 -38.5
123 52.48284271247441 0.353553390593 -39.35355339059
124 40.11213203435579 0.353553390593 -39.35355339059
125 27.74142135623719 0.353553390593 -39.35355339059
126 15.37071067811857 0.353553390593 -39.35355339059
127 1.585786437626902 1.585786437626908 -40
128 52.48284271247441 0.353553390593 39.353553390593
129 40.11213203435579 0.353553390593 39.353553390593
130 27.74142135623719 0.353553390593 39.353553390593
131 15.37071067811857 0.353553390593 39.353553390593
132 1.585786437626902 1.585786437626908 40
133 65 0.5 -26.33333333333334
134 65 0.5 -13.16666666666667
135 65 0.5 -7.105427357601002e-15
136 65 0.5 13.16666666666666
137 65 0.5 26.33333333333333
138 72.5 8 -40
139 52.60000000000002 1 -40
140 40.20000000000002 1 -40
141 27.80000000000001 1 -40
142 15.40000000000001 1 -40
143 1.585786437626908 38.4142135623731 -40
144 16.37499999999999 39 -40
145 29.74999999999993 39 -40
146 43.12499999999996 39 -40
147 67.37500000000227 31.75000000000344 -40
148 78.25000000000429 24.50000000000645 -40
149 89.12500000000631 17.25000000000946 -40
150 90.00000000000001 0.5 -40
151 16.04192688127225 39.646446609407 -39.35355339059
152 29.0838537625445 39.646446609407 -39.35355339059
153 42.12578064381675 39.646446609407 -39.35355339059
154 72.5 8 40
155 52.60000000000002 1 40
156 40.20000000000002 1 40
157 27.80000000000001 1 40
158 15.40000000000001 1 40
159 1.585786437626908 38.4142135623731 40
160 16.37499999999999 39 40
161 29.74999999999993 39 40
162 43.12499999999996 39 40
163 67.37500000000227 31.75000000000344 40
164 78.25000000000429 24.50000000000645 40
165 89.12500000000631 17.25000000000946 40
166 90.00000000000001 0.5 40
167 16.04192688127225 39.646446609407 39.353553390593
168 29.0838537625445 39.646446609407 39.353553390593
169 42.12578064381675 39.646446609407 39.353553390593
170 55.832050294338 39.445299803775 -26.36980013081251
171 55.832050294338 39.445299803775 -13.184900065405
172 55.832050294338 39.445299803775 2.472688720445149e-12
173 55.832050294338 39.445299803775 13.18490006540992
174 55.832050294338 39.445299803775 26.36980013081742
175 65 8 -26.66666666666669
176 65 8 -13.3333333333334
177 65 8 -4.973799150320701e-14
178 65 8 13.3333333333333
179 65 8 26.66666666666664
180 80 0.5 -26.66666666666669
181 80 0.5 -13.3333333333334
182 80 0.5 -4.973799150320701e-14
183 80 0.5 13.3333333333333
184 80 0.5 26.66666666666664
185 80 8 -26.66666666666669
186 80 8 -13.3333333333334
187 80 8 -4.973799150320701e-14
188 80 8 13.3333333333333
189 80 8 26.66666666666664
190 89.99999999999999 0 -39.5
191 100 10 -26.66666666666669
192 100 10 -13.3333333333334
193 100 10 -4.973799150320701e-14
194 100 10 13.3333333333333
195 100 10 26.66666666666664
196 100 0.5 -26.66666666666669
197 100 0.5 -13.3333333333334
198 100 0.5 -4.973799150320701e-14
199 100 0.5 13.3333333333333
200 100 0.5 26.66666666666664
201 89.99999999999999 0 39.5
202 80.5 0 -26.33333333333334
203 80.5 0 -13.16666666666667
204 80.5 0 -7.105427357601002e-15
205 80.5 0 13.16666666666666
206 80.5 0 26.33333333333333
207 99.5 0 -26.33333333333334
208 99.5 0 -13.16666666666667
209 99.5 0 -7.105427357601002e-15
210 99.5 0 13.16666666666666
211 99.5 0 26.33333333333333
212 0 20.00000000000003 28.68504542377637
213 0 20.00000000000003 -28.68504542377638
214 0 14.11399268190028 6.416666666666707
215 0 25.88600731809971 -6.416666666666607
216 0 28.07064721205861 6.2580497124288
217 0 11.92935278794139 -6.258049712428701
218 0 27.08987577475172 -20.34784669729514
219 0 12.91012422524829 20.34784669729517
220 0 13.64676393970695 -18.45691522881042
221 0 26.35323606029306 18.45691522881045
222 0 10.99351660929638 30.02845286451748
223 0 10.99351660929638 -30.02845286451748
224 0 29.00648339070365 30.02845286451748
225 0 29.00648339070365 -30.0284528645175
226 1.936622242300687 0.4327789758839134 -39.03416975257298
227 1.93662255205304 0.4327797236920606 39.03417170669153
228 33.78168713202692 0 28.87586032269208
229 33.78070567191021 0 -28.84128219970838
230 14.10730588274586 0 -6.356115221373301
231 54.21727375571336 0 -5.834874497718168
232 15.10924862000677 0 19.61707660407451
233 52.75342977295432 0 18.61245752308861
234 14.23815217539834 0 6.494970332469542
235 25.1255324292046 0 0.05191903070774373
236 26.2172596522204 0 -11.80700481187304
237 36.16534641118154 0 -6.034023034495888
238 36.08643610730414 0 6.268345634849958
239 15.27334542700343 0 -19.44271681559394
240 54.24662757855137 0 5.894448767088775
241 52.86411204220238 0 -18.49497933088334
242 26.37491535401256 0 11.96139280504421
243 45.79834770407348 0 -28.5802990333651
244 38.12024794615992 0 -17.82999534464901
245 21.84881725882858 0 -29.37974250541165
246 21.82032483288258 0 29.4267444025557
247 45.78237107531351 0 28.62211593737239
248 38.11519860566749 0 17.93486920334669
249 45.03440058642295 0 0.06224956491595179
250 11.80274813415573 0 29.7102775717067
251 55.64205991638697 0 29.48793101942888
252 55.64075659102352 0 -29.48668185823638
253 11.79546496116704 0 -29.78235690685536
254 45.24721853018005 0 9.754474138657997
255 45.28027614833603 0 -9.626324528566094
256 27.27972211215646 0 -21.5076657907475
257 27.04027490891927 0 21.56318866754264
258 0.4327789758850931 38.06337775769883 -39.03416975257601
259 0.4327797236923111 38.06337744794691 39.03417170669215
260 14.11399268190028 40 6.416666666666707
261 43.52001555713832 40 -6.292596803530863
262 13.75304741880857 40 -19.17850317728302
263 43.24695258119145 40 19.17850317728309
264 34.40235650722642 40 -25.45097415969132
265 22.5976434927736 40 25.45097415969134
266 13.47676090430312 40 -6.40596383056775
267 24.73121749789463 40 -13.08502284922328
268 43.0572188777748 40 6.426863508111936
269 32.7953755448742 40 15.27099882334529
270 31.84096748744429 40 0.3304236807137997
271 44.29773757981398 40 -18.69224427244568
272 13.07458426594255 40 18.68189803453316
273 21.91459208290992 40 -27.44619452662489
274 34.71650013263527 40 27.75679145742021
275 12.38655880982943 40 -29.0913301001911
276 44.61344119017063 40 29.09133010019113
277 21.19590637923307 40 0.001579817909494352
278 11.48444555174324 40 29.35990777217823
279 45.33019822361783 40 -29.30372622825597
280 22.60307830869466 40 11.02542353047662
281 35.75845892590353 40 -12.63808288083547
282 0.9323468549611449 2.143550025041525 -39.76198836290059
283 2.14332732170297 0.931809058829852 -39.76140627918423
284 2.143550025041887 0.9323468549620335 39.76198836290155
285 0.9318090588318815 2.143327321703804 39.76140627918642
286 49.81249999999998 27.54892567614301 -40
287 11.50696215796492 19.94931136054826 -40
288 34.92860004767218 11.15483832648124 -40
289 6.131386171886568 5.877057698993736 -40
290 69.68893100135574 15.31444357414798 -40
291 61.14906460964692 15.13601005765298 -40
292 6.413251206237504 34.07516685396271 -40
293 22.91314946788608 26.76489343391749 -40
294 36.53733197631758 28.96588206212649 -40
295 46.90066516320394 9.489333114463749 -40
296 22.21377966246065 13.12894480800568 -40
297 76.68283689094994 14.52858950394001 -40
298 65.1628095668317 22.94621476469042 -40
299 57.21619295954521 8.001172205213225 -40
300 57.40419755733039 22.30806757645045 -40
301 88.42415048544083 8.815533980587752 -40
302 42.33838428167346 19.38938960497872 -40
303 13.71801910274729 29.02681122054811 -40
304 31.05854918220306 20.33694429516815 -40
305 12.64721751587216 11.22146514818896 -40
306 52.47016742856665 16.97881637248369 -40
307 58.81023380070806 29.2549960510325 -40
308 94.60603762136229 4.953883495150057 -40
309 2.1435500250419 39.06765314503795 -39.76198836290157
310 0.9318090588298542 37.85667267829704 -39.76140627918423
311 49.81249999999999 27.54892567614301 40
312 11.4569558391525 19.47485051975418 40
313 34.92860004767218 11.15483832648124 40
314 8.361215932167731 8.666666666666684 40
315 69.68893100135574 15.31444357414798 40
316 61.14906460964692 15.13601005765298 40
317 6.413251206237504 34.07516685396271 40
318 22.90600570805573 26.69711331380405 40
319 36.53614134967919 28.95458537544091 40
320 46.90066516320394 9.489333114463751 40
321 21.59332942498248 12.68651060194428 40
322 76.68283689094994 14.52858950394001 40
323 65.1628095668317 22.94621476469042 40
324 57.21619295954521 8.001172205213228 40
325 57.4041975573304 22.30806757645046 40
326 88.42415048544083 8.815533980587752 40
327 42.33824254040699 19.38804476132567 40
328 13.71801910274729 29.02681122054811 40
329 30.99437302248742 20.28359165674841 40
330 52.47014380502224 16.97859223187485 40
331 58.81023380070806 29.25499605103251 40
332 94.60603762136229 4.953883495150057 40
333 0.9323468549620344 37.85644997495812 39.76198836290155
334 2.143550025041875 39.06765314503802 39.7619883629015
335 65 4.540103660511825 33.58234059496813
336 65 4.540103660511823 -33.58234059496816
337 65 4.25 6.624999999999972
338 65 4.25 -6.625000000000036
339 65 4.25 19.87499999999998
340 65 4.25 -19.87500000000002
341 65 3.510025915127956 38.27058514874203
342 65 3.510025915127955 -38.27058514874204
343 80 4.25 33.33333333333331
344 80 4.25 -6.666666666666728
345 80 4.25 6.666666666666622
346 80 4.25 19.99999999999996
347 80 4.25 -33.33333333333334
348 80 4.25 -20.00000000000004
349 72.5 8 -6.666666666666721
350 72.5 8 -20.00000000000004
351 72.5 8 -32.22222222222224
352 72.5 8 6.666666666666622
353 72.5 8 19.99999999999999
354 72.5 8 32.2222222222222
355 100 5.25 33.33333333333331
356 100 5.25 -6.666666666666728
357 100 5.25 6.666666666666622
358 100 5.25 19.99999999999997
359 100 5.25 -33.33333333333334
360 100 5.25 -20.00000000000004
361 65.33278196944195 33.11147868704283 6.592450032706196
362 90.39335032131015 16.40443311914074 -6.632409056118007
363 71.55059141876765 28.96627238749486 -30.0109964006853
364 90.86833660389854 16.08777559741534 19.91023147914861
365 71.59888721479653 28.93407519014229 29.98334676826235
366 90.48932482617408 16.34045011589815 6.662706419215496
367 82.1799169323767 21.88005537842642 13.48260657068674
368 81.53222849204138 22.31184767198304 0.06292046230825576
369 81.70205069269467 22.19863287154758 -13.43143071085559
370 71.26717282069112 29.15521811954577 -6.571703813552482
371 90.93486615405092 16.04342256398045 -19.88948027880513
372 64.02515157906704 33.98323228062559 21.24787093918684
373 64.84218884209058 33.43854077194356 -19.45357497992264
374 82.84646681663416 21.43568878892171 28.21825528065047
375 82.63006332464012 21.57995778358432 -27.87990147095869
376 61.93750000000128 35.37500000000193 -32.77636514083208
377 61.86052323042369 35.42631784638696 32.85928633908193
378 74.58205093430828 26.94529937713565 6.504515514442623
379 62.57496203887212 34.95002530742162 -6.592450032701265
380 91.76344153719806 15.49103897521602 -30.14426302883691
381 91.89946389452504 15.40035740366475 30.1959439215626
382 74.13849943832437 27.24100037445809 -19.190526905499
383 73.56815585958495 27.62122942695081 18.34378082855816
384 90 0 6.583333333333329
385 90.00815048838487 0 -19.60719202647046
386 90 0 -6.583333333333329
387 89.99184951161513 0 19.60719202647044
388 90.13931617326688 0 -30.19003621291203
389 89.86068382673312 0 30.19003621291203
390 48.464844068928 19.96530736371656 4.835374047578879
391 48.86162081803741 20.54890858734394 -19.6412863296385
392 36.77576654112152 21.22232950586046 20.94022358523556
393 21.42865496212857 19.82191888218055 -6.26812773598542
394 18.96526213157415 18.17736327452134 13.17456815573502
395 29.91591430768649 17.88112380231582 -22.11924341190658
396 54.01001575050817 20.50169437136866 23.49750852088126
397 37.65226627986018 16.47864784913565 -7.48863877791759
398 14.70489542014917 15.9286996880158 -25.22108352330551
399 57.13833099459049 17.60553221767033 -28.38754964937488
400 33.04230806854331 24.76339036264067 5.610537627416765
401 57.31469847587036 20.38554339584502 -7.935786320195401
402 13.7879303685306 25.08000274789243 25.49002287587058
403 27.73360161730317 12.30642028869925 27.68774939096873
404 19.89455484944024 27.21217576977096 -18.31096093989014
405 39.43899900568152 12.14946215150782 11.23787386142047
406 41.27285878967421 12.89710450325287 -28.91177307969152
407 37.5947680484575 28.42057920268427 -19.09732921086934
408 12.29440582446851 27.92198046364509 0.07994347610419172
409 48.46228869302028 10.97715072784915 -4.698164817945829
410 12.16204681431647 11.95312797933894 0.08989978043533142
411 45.75302071410424 27.03796067522874 -8.613188721973735
412 48.75517009962368 29.51521643632314 13.87748923966041
413 62.12034201896306 19.71127302362507 6.666666666666627
414 29.59695824548605 12.3430356134815 2.272768580478747
415 12.02353289066453 12.20360991484246 25.23800013741536
$EndNodes
$Elements
1320
1 2 2 1 1 55 223 1
2 2 2 1 1 1 223 67
3 2 2 1 1 2 222 59
4 2 2 1 1 60 222 2
5 2 2 1 1 3 224 61
6 2 2 1 1 66 224 3
7 2 2 1 1 4 225 62
8 2 2 1 1 68 225 4
9 2 2 1 1 56 220 55
10 2 2 1 1 220 223 55
11 2 2 1 1 57 217 56
12 2 2 1 1 217 220 56
13 2 2 1 1 58 214 57
14 2 2 1 1 214 217 57
15 2 2 1 1 59 219 58
16 2 2 1 1 58 219 214
17 2 2 1 1 59 222 219
18 2 2 1 1 61 212 60
19 2 2 1 1 212 222 60
20 2 2 1 1 61 224 212
21 2 2 1 1 62 218 63
22 2 2 1 1 62 225 218
23 2 2 1 1 63 215 64
24 2 2 1 1 63 218 215
25 2 2 1 1 64 216 65
26 2 2 1 1 215 216 64
27 2 2 1 1 65 221 66
28 2 2 1 1 216 221 65
29 2 2 1 1 221 224 66
30 2 2 1 1 67 213 68
31 2 2 1 1 67 223 213
32 2 2 1 1 213 225 68
33 2 2 1 1 212 221 219
34 2 2 1 1 219 222 212
35 2 2 1 1 212 224 221
36 2 2 1 1 213 220 218
37 2 2 1 1 218 225 213
38 2 2 1 1 213 223 220
39 2 2 1 1 214 216 215
40 2 2 1 1 215 217 214
41 2 2 1 1 214 221 216
42 2 2 1 1 219 221 214
43 2 2 1 1 215 220 217
44 2 2 1 1 218 220 215
45 2 2 2 32 37 359 38
46 2 2 2 32 191 359 37
47 2 2 2 32 38 359 196
48 2 2 2 32 47 355 46
49 2 2 2 32 46 355 195
50 2 2 2 32 200 355 47
51 2 2 2 32 192 360 191
52 2 2 2 32 196 359 191
53 2 2 2 32 191 360 196
54 2 2 2 32 193 356 192
55 2 2 2 32 192 356 197
56 2 2 2 32 197 360 192
57 2 2 2 32 194 357 193
58 2 2 2 32 198 356 193
59 2 2 2 32 193 357 198
60 2 2 2 32 195 358 194
61 2 2 2 32 199 357 194
62 2 2 2 32 194 358 199
63 2 2 2 32 195 355 200
64 2 2 2 32 200 358 195
65 2 2 2 32 196 360 197
66 2 2 2 32 197 356 198
67 2 2 2 32 198 357 199
68 2 2 2 32 199 358 200
69 4 2 3 1 327 320 392 396
70 4 2 3 1 320 247 392 396
71 4 2 3 1 393 400 397 407
72 4 2 3 1 393 281 400 407
73 4 2 3 1 320 330 324 396
74 4 2 3 1 225 303 275 404
75 4 2 3 1 293 395 294 407
76 4 2 3 1 302 391 286 407
77 4 2 3 1 330 316 324 396
78 4 2 3 1 247 392 396 405
79 4 2 3 1 382 399 176 401
80 4 2 3 1 225 398 303 404
81 4 2 3 1 274 318 265 392
82 4 2 3 1 302 286 294 407
83 4 2 3 1 319 318 274 392
84 4 2 3 1 393 395 236 398
85 4 2 3 1 265 392 318 402
86 4 2 3 1 273 404 395 407
87 4 2 3 1 260 272 216 408
88 4 2 3 1 236 395 256 398
89 4 2 3 1 320 324 251 396
90 4 2 3 1 233 240 254 405
91 4 2 3 1 270 393 281 400
92 4 2 3 1 233 396 390 405
93 4 2 3 1 178 390 233 396
94 4 2 3 1 313 247 228 403
95 4 2 3 1 293 304 294 395
96 4 2 3 1 318 402 392 403
97 4 2 3 1 265 394 392 402
98 4 2 3 1 329 318 319 392
99 4 2 3 1 327 330 320 396
100 4 2 3 1 350 176 382 399
101 4 2 3 1 302 406 391 407
102 4 2 3 1 180 181 202 348
103 4 2 3 1 183 184 206 346
104 4 2 3 1 233 178 240 390
105 4 2 3 1 293 395 273 404
106 4 2 3 1 276 311 392 396
107 4 2 3 1 286 391 279 407
108 4 2 3 1 311 327 319 392
109 4 2 3 1 318 392 329 403
110 4 2 3 1 239 393 236 398
111 4 2 3 1 265 269 392 394
112 4 2 3 1 327 392 311 396
113 4 2 3 1 170 391 286 399
114 4 2 3 1 247 396 233 405
115 4 2 3 1 233 390 240 405
116 4 2 3 1 323 316 325 396
117 4 2 3 1 281 393 267 407
118 4 2 3 1 260 394 272 408
119 4 2 3 1 323 179 316 396
120 4 2 3 1 350 175 176 399
121 4 2 3 1 134 135 338 96
122 4 2 3 1 286 279 294 407
123 4 2 3 1 239 236 256 398
124 4 2 3 1 311 319 276 392
125 4 2 3 1 245 229 296 395
126 4 2 3 1 135 136 337 98
127 4 2 3 1 316 179 324 396
128 4 2 3 1 293 294 264 407
129 4 2 3 1 265 280 269 394
130 4 2 3 1 391 397 255 409
131 4 2 3 1 320 251 247 396
132 4 2 3 1 382 373 399 401
133 4 2 3 1 393 398 220 404
134 4 2 3 1 392 394 269 400
135 4 2 3 1 236 239 230 393
136 4 2 3 1 276 396 392 412
137 4 2 3 1 247 248 392 405
138 4 2 3 1 270 400 281 411
139 4 2 3 1 288 296 229 395
140 4 2 3 1 239 220 230 410
141 4 2 3 1 390 396 178 413
142 4 2 3 1 225 275 218 404
143 4 2 3 1 281 270 267 393
144 4 2 3 1 239 398 220 410
145 4 2 3 1 225 218 398 404
146 4 2 3 1 236 395 393 397
147 4 2 3 1 393 404 267 407
148 4 2 3 1 175 351 363 350
149 4 2 3 1 265 280 394 402
150 4 2 3 1 280 269 394 400
151 4 2 3 1 353 179 354 365
152 4 2 3 1 251 324 179 396
153 4 2 3 1 316 315 179 323
154 4 2 3 1 216 272 221 408
155 4 2 3 1 353 178 179 383
156 4 2 3 1 245 256 229 395
157 4 2 3 1 179 383 178 396
158 4 2 3 1 220 398 393 410
159 4 2 3 1 307 376 286 399
160 4 2 3 1 272 394 221 408
161 4 2 3 1 255 391 244 397
162 4 2 3 1 279 115 271 391
163 4 2 3 1 242 403 257 405
164 4 2 3 1 280 272 260 394
165 4 2 3 1 330 325 316 396
166 4 2 3 1 376 170 286 399
167 4 2 3 1 276 319 274 392
168 4 2 3 1 279 391 271 407
169 4 2 3 1 176 401 391 409
170 4 2 3 1 323 365 179 396
171 4 2 3 1 351 375 363 350
172 4 2 3 1 240 390 178 413
173 4 2 3 1 218 262 63 404
174 4 2 3 1 391 401 171 411
175 4 2 3 1 230 220 217 410
176 4 2 3 1 307 286 300 399
177 4 2 3 1 390 401 172 413
178 4 2 3 1 373 391 170 399
179 4 2 3 1 365 383 179 396
180 4 2 3 1 221 394 272 402
181 4 2 3 1 229 93 245 296
182 4 2 3 1 218 220 398 404
183 4 2 3 1 296 245 395 398
184 4 2 3 1 351 363 290 175
185 4 2 3 1 302 286 391 399
186 4 2 3 1 363 290 175 399
187 4 2 3 1 242 394 403 405
188 4 2 3 1 302 306 286 399
189 4 2 3 1 293 398 395 404
190 4 2 3 1 287 303 225 398
191 4 2 3 1 374 353 354 365
192 4 2 3 1 29 335 16 341
193 4 2 3 1 336 30 15 342
194 4 2 3 1 215 393 220 404
195 4 2 3 1 315 354 179 365
196 4 2 3 1 213 287 225 398
197 4 2 3 1 382 176 370 401
198 4 2 3 1 178 396 383 413
199 4 2 3 1 176 391 241 409
200 4 2 3 1 241 391 255 409
201 4 2 3 1 176 241 391 399
202 4 2 3 1 331 311 377 396
203 4 2 3 1 274 265 269 392
204 4 2 3 1 172 401 390 411
205 4 2 3 1 288 395 229 406
206 4 2 3 1 303 398 293 404
207 4 2 3 1 117 390 268 411
208 4 2 3 1 331 325 311 396
209 4 2 3 1 245 256 395 398
210 4 2 3 1 323 315 179 365
211 4 2 3 1 302 399 391 406
212 4 2 3 1 239 71 230 220
213 4 2 3 1 275 262 218 404
214 4 2 3 1 393 395 404 407
215 4 2 3 1 393 397 395 407
216 4 2 3 1 395 397 244 406
217 4 2 3 1 296 304 293 395
218 4 2 3 1 299 295 252 399
219 4 2 3 1 329 392 327 403
220 4 2 3 1 382 363 375 350
221 4 2 3 1 391 399 373 401
222 4 2 3 1 236 244 395 397
223 4 2 3 1 306 399 302 406
224 4 2 3 1 220 71 230 217
225 4 2 3 1 93 229 288 296
226 4 2 3 1 272 394 280 402
227 4 2 3 1 176 399 391 401
228 4 2 3 1 373 171 391 401
229 4 2 3 1 370 369 349 176
230 4 2 3 1 255 241 244 391
231 4 2 3 1 230 235 236 393
232 4 2 3 1 266 215 63 404
233 4 2 3 1 369 370 382 176
234 4 2 3 1 391 244 397 406
235 4 2 3 1 251 233 247 396
236 4 2 3 1 247 233 248 405
237 4 2 3 1 313 329 327 403
238 4 2 3 1 391 397 395 406
239 4 2 3 1 119 396 276 412
240 4 2 3 1 392 402 394 403
241 4 2 3 1 365 353 179 383
242 4 2 3 1 236 397 393 414
243 4 2 3 1 405 409 249 414
244 4 2 3 1 268 390 117 412
245 4 2 3 1 273 275 303 404
246 4 2 3 1 172 117 390 412
247 4 2 3 1 266 215 404 408
248 4 2 3 1 390 400 268 411
249 4 2 3 1 263 276 392 412
250 4 2 3 1 277 266 393 408
251 4 2 3 1 237 397 249 409
252 4 2 3 1 266 404 393 408
253 4 2 3 1 393 404 215 408
254 4 2 3 1 276 274 263 392
255 4 2 3 1 303 293 273 404
256 4 2 3 1 370 176 349 401
257 4 2 3 1 265 272 280 402
258 4 2 3 1 65 221 216 272
259 4 2 3 1 237 249 397 414
260 4 2 3 1 350 369 382 176
261 4 2 3 1 391 399 241 406
262 4 2 3 1 368 370 349 413
263 4 2 3 1 218 215 220 404
264 4 2 3 1 280 400 394 408
265 4 2 3 1 225 218 213 398
266 4 2 3 1 280 277 400 408
267 4 2 3 1 252 399 295 406
268 4 2 3 1 117 172 390 411
269 4 2 3 1 238 405 249 414
270 4 2 3 1 299 336 291 399
271 4 2 3 1 236 244 256 395
272 4 2 3 1 178 353 352 367
273 4 2 3 1 280 394 260 408
274 4 2 3 1 319 327 329 392
275 4 2 3 1 277 393 270 400
276 4 2 3 1 377 311 174 396
277 4 2 3 1 267 270 277 393
278 4 2 3 1 162 48 45 311
279 4 2 3 1 39 36 286 146
280 4 2 3 1 392 403 394 405
281 4 2 3 1 397 249 409 414
282 4 2 3 1 178 367 352 413
283 4 2 3 1 394 405 242 414
284 4 2 3 1 277 393 400 408
285 4 2 3 1 300 298 307 399
286 4 2 3 1 327 311 330 396
287 4 2 3 1 296 395 293 398
288 4 2 3 1 296 288 304 395
289 4 2 3 1 218 63 215 404
290 4 2 3 1 249 405 254 409
291 4 2 3 1 236 393 235 414
292 4 2 3 1 363 298 290 399
293 4 2 3 1 350 349 369 176
294 4 2 3 1 323 377 365 396
295 4 2 3 1 235 393 230 410
296 4 2 3 1 254 240 249 409
297 4 2 3 1 373 170 376 399
298 4 2 3 1 237 238 249 414
299 4 2 3 1 261 268 400 411
300 4 2 3 1 113 274 319 318
301 4 2 3 1 267 393 266 404
302 4 2 3 1 56 71 220 217
303 4 2 3 1 274 113 265 318
304 4 2 3 1 244 391 241 406
305 4 2 3 1 182 203 181 344
306 4 2 3 1 205 183 345 182
307 4 2 3 1 267 277 266 393
308 4 2 3 1 390 405 396 412
309 4 2 3 1 378 352 367 413
310 4 2 3 1 338 176 231 409
311 4 2 3 1 179 233 251 396
312 4 2 3 1 365 374 353 383
313 4 2 3 1 353 178 383 367
314 4 2 3 1 223 253 289 305
315 4 2 3 1 257 403 248 405
316 4 2 3 1 395 398 393 404
317 4 2 3 1 271 407 391 411
318 4 2 3 1 58 214 219 394
319 4 2 3 1 268 400 390 412
320 4 2 3 1 229 256 244 395
321 4 2 3 1 248 403 392 405
322 4 2 3 1 290 375 363 351
323 4 2 3 1 218 225 62 275
324 4 2 3 1 352 378 368 413
325 4 2 3 1 243 252 295 406
326 4 2 3 1 172 173 118 412
327 4 2 3 1 383 367 178 413
328 4 2 3 1 236 237 397 414
329 4 2 3 1 396 412 372 413
330 4 2 3 1 382 373 363 399
331 4 2 3 1 370 368 378 413
332 4 2 3 1 121 293 264 273
333 4 2 3 1 247 228 101 313
334 4 2 3 1 299 306 295 399
335 4 2 3 1 292 225 303 275
336 4 2 3 1 245 239 256 398
337 4 2 3 1 379 401 172 411
338 4 2 3 1 245 305 253 398
339 4 2 3 1 236 237 244 397
340 4 2 3 1 172 361 173 412
341 4 2 3 1 320 247 101 313
342 4 2 3 1 261 270 281 411
343 4 2 3 1 235 393 410 414
344 4 2 3 1 244 229 395 406
345 4 2 3 1 325 330 311 396
346 4 2 3 1 279 264 294 407
347 4 2 3 1 396 405 392 412
348 4 2 3 1 307 298 376 399
349 4 2 3 1 304 395 288 406
350 4 2 3 1 172 118 117 412
351 4 2 3 1 342 336 299 252
352 4 2 3 1 324 335 341 251
353 4 2 3 1 274 269 263 392
354 4 2 3 1 234 394 242 414
355 4 2 3 1 261 400 270 411
356 4 2 3 1 215 393 408 410
357 4 2 3 1 394 400 393 408
358 4 2 3 1 324 335 251 179
359 4 2 3 1 223 253 305 398
360 4 2 3 1 397 409 405 414
361 4 2 3 1 394 232 403 415
362 4 2 3 1 290 297 375 351
363 4 2 3 1 378 367 383 413
364 4 2 3 1 321 402 318 403
365 4 2 3 1 392 400 269 412
366 4 2 3 1 261 117 268 411
367 4 2 3 1 261 268 270 400
368 4 2 3 1 394 400 392 405
369 4 2 3 1 189 353 354 374
370 4 2 3 1 383 396 372 413
371 4 2 3 1 290 291 175 399
372 4 2 3 1 296 305 245 398
373 4 2 3 1 350 351 375 185
374 4 2 3 1 290 298 291 399
375 4 2 3 1 252 241 175 399
376 4 2 3 1 242 257 248 405
377 4 2 3 1 235 234 242 414
378 4 2 3 1 197 360 196 207
379 4 2 3 1 200 358 199 211
380 4 2 3 1 177 338 231 409
381 4 2 3 1 234 410 394 414
382 4 2 3 1 263 392 269 412
383 4 2 3 1 372 365 377 396
384 4 2 3 1 402 403 321 415
385 4 2 3 1 400 405 394 414
386 4 2 3 1 361 372 412 413
387 4 2 3 1 175 291 336 399
388 4 2 3 1 317 224 278 402
389 4 2 3 1 188 352 353 367
390 4 2 3 1 372 383 365 396
391 4 2 3 1 349 368 352 187
392 4 2 3 1 265 328 278 402
393 4 2 3 1 332 355 389 381
394 4 2 3 1 359 388 380 308
395 4 2 3 1 390 405 397 409
396 4 2 3 1 293 303 287 398
397 4 2 3 1 235 410 234 414
398 4 2 3 1 369 349 350 186
399 4 2 3 1 194 384 387 188
400 4 2 3 1 253 223 70 398
401 4 2 3 1 244 241 243 406
402 4 2 3 1 386 186 192 385
403 4 2 3 1 253 245 94 305
404 4 2 3 1 295 399 306 406
405 4 2 3 1 231 176 241 409
406 4 2 3 1 312 61 224 212
407 4 2 3 1 373 376 363 399
408 4 2 3 1 187 193 384 386
409 4 2 3 1 268 117 118 412
410 4 2 3 1 232 242 234 394
411 4 2 3 1 246 257 232 403
412 4 2 3 1 268 269 400 412
413 4 2 3 1 225 68 287 213
414 4 2 3 1 390 412 396 413
415 4 2 3 1 364 194 387 188
416 4 2 3 1 371 192 186 385
417 4 2 3 1 384 194 366 188
418 4 2 3 1 193 384 366 187
419 4 2 3 1 186 192 362 386
420 4 2 3 1 362 193 187 386
421 4 2 3 1 370 369 368 349
422 4 2 3 1 318 328 265 402
423 4 2 3 1 391 395 397 407
424 4 2 3 1 400 405 390 412
425 4 2 3 1 300 286 306 399
426 4 2 3 1 237 255 244 397
427 4 2 3 1 390 400 397 405
428 4 2 3 1 287 67 223 213
429 4 2 3 1 312 402 321 415
430 4 2 3 1 401 409 177 413
431 4 2 3 1 239 253 70 398
432 4 2 3 1 305 67 223 287
433 4 2 3 1 194 364 366 188
434 4 2 3 1 61 224 328 312
435 4 2 3 1 373 379 171 401
436 4 2 3 1 373 382 370 401
437 4 2 3 1 371 192 362 186
438 4 2 3 1 362 193 366 187
439 4 2 3 1 223 287 213 398
440 4 2 3 1 223 305 287 398
441 4 2 3 1 312 318 321 402
442 4 2 3 1 280 260 277 408
443 4 2 3 1 287 68 225 303
444 4 2 3 1 328 224 317 402
445 4 2 3 1 376 298 363 399
446 4 2 3 1 173 361 372 412
447 4 2 3 1 278 265 112 328
448 4 2 3 1 392 405 400 412
449 4 2 3 1 379 171 401 411
450 4 2 3 1 397 400 390 411
451 4 2 3 1 346 387 364 189
452 4 2 3 1 385 348 371 185
453 4 2 3 1 328 317 278 402
454 4 2 3 1 344 186 362 386
455 4 2 3 1 366 345 384 188
456 4 2 3 1 394 402 221 415
457 4 2 3 1 246 403 232 415
458 4 2 3 1 312 212 222 60
459 4 2 3 1 390 409 401 413
460 4 2 3 1 263 119 276 412
461 4 2 3 1 177 349 176 401
462 4 2 3 1 219 394 221 415
463 4 2 3 1 384 345 366 187
464 4 2 3 1 344 362 187 386
465 4 2 3 1 364 387 358 195
466 4 2 3 1 386 192 362 356
467 4 2 3 1 248 233 254 405
468 4 2 3 1 397 405 400 414
469 4 2 3 1 291 33 175 336
470 4 2 3 1 360 371 191 385
471 4 2 3 1 357 194 366 384
472 4 2 3 1 103 250 314 415
473 4 2 3 1 346 364 387 188
474 4 2 3 1 186 348 371 385
475 4 2 3 1 393 400 394 414
476 4 2 3 1 386 362 193 356
477 4 2 3 1 342 15 336 252
478 4 2 3 1 377 174 372 396
479 4 2 3 1 341 335 16 251
480 4 2 3 1 24 122 153 279
481 4 2 3 1 366 357 384 193
482 4 2 3 1 236 235 237 414
483 4 2 3 1 377 311 23 174
484 4 2 3 1 296 293 287 398
485 4 2 3 1 320 324 100 251
486 4 2 3 1 91 299 295 252
487 4 2 3 1 312 212 224 402
488 4 2 3 1 321 318 329 403
489 4 2 3 1 214 408 394 410
490 4 2 3 1 246 321 403 415
491 4 2 3 1 389 343 326 381
492 4 2 3 1 388 380 301 347
493 4 2 3 1 379 401 370 413
494 4 2 3 1 369 382 375 350
495 4 2 3 1 328 265 112 318
496 4 2 3 1 164 322 315 365
497 4 2 3 1 72 57 58 410
498 4 2 3 1 212 312 222 415
499 4 2 3 1 194 364 387 358
500 4 2 3 1 294 286 146 279
501 4 2 3 1 172 117 116 411
502 4 2 3 1 68 225 303 292
503 4 2 3 1 186 369 349 187
504 4 2 3 1 192 371 360 385
505 4 2 3 1 251 179 339 233
506 4 2 3 1 239 70 220 398
507 4 2 3 1 237 255 397 409
508 4 2 3 1 241 252 175 340
509 4 2 3 1 249 238 254 405
510 4 2 3 1 331 311 23 377
511 4 2 3 1 224 328 317 61
512 4 2 3 1 312 224 328 402
513 4 2 3 1 268 263 269 412
514 4 2 3 1 186 350 369 185
515 4 2 3 1 257 228 248 403
516 4 2 3 1 231 240 177 409
517 4 2 3 1 394 403 402 415
518 4 2 3 1 170 286 24 376
519 4 2 3 1 391 406 395 407
520 4 2 3 1 219 214 221 394
521 4 2 3 1 276 162 319 311
522 4 2 3 1 85 63 266 64
523 4 2 3 1 85 64 266 408
524 4 2 3 1 369 368 349 187
525 4 2 3 1 375 369 350 185
526 4 2 3 1 186 362 369 187
527 4 2 3 1 391 397 409 411
528 4 2 3 1 383 374 353 367
529 4 2 3 1 245 253 239 398
530 4 2 3 1 280 277 270 400
531 4 2 3 1 291 306 299 399
532 4 2 3 1 391 409 401 411
533 4 2 3 1 189 188 353 367
534 4 2 3 1 169 23 276 114
535 4 2 3 1 374 189 353 367
536 4 2 3 1 186 369 371 185
537 4 2 3 1 60 222 312 314
538 4 2 3 1 232 73 74 415
539 4 2 3 1 371 348 186 185
540 4 2 3 1 188 346 364 189
541 4 2 3 1 368 378 352 367
542 4 2 3 1 394 408 393 410
543 4 2 3 1 387 364 189 381
544 4 2 3 1 343 389 189 381
545 4 2 3 1 380 388 185 347
546 4 2 3 1 376 286 24 307
547 4 2 3 1 63 85 266 84
548 4 2 3 1 366 188 367 187
549 4 2 3 1 371 380 385 185
550 4 2 3 1 389 387 189 381
551 4 2 3 1 368 369 362 187
552 4 2 3 1 394 410 393 414
553 4 2 3 1 86 272 87 66
554 4 2 3 1 388 385 380 185
555 4 2 3 1 212 402 312 415
556 4 2 3 1 366 345 188 187
557 4 2 3 1 67 223 289 305
558 4 2 3 1 332 389 326 381
559 4 2 3 1 322 164 374 365
560 4 2 3 1 204 205 345 182
561 4 2 3 1 182 204 203 344
562 4 2 3 1 308 388 380 301
563 4 2 3 1 393 397 400 414
564 4 2 3 1 187 186 362 344
565 4 2 3 1 272 66 221 402
566 4 2 3 1 275 303 120 273
567 4 2 3 1 364 188 189 367
568 4 2 3 1 238 242 405 414
569 4 2 3 1 379 370 361 413
570 4 2 3 1 364 387 195 381
571 4 2 3 1 367 368 366 187
572 4 2 3 1 299 15 342 252
573 4 2 3 1 341 16 324 251
574 4 2 3 1 231 241 255 409
575 4 2 3 1 272 86 65 66
576 4 2 3 1 371 380 191 385
577 4 2 3 1 369 375 371 185
578 4 2 3 1 195 387 389 381
579 4 2 3 1 33 291 299 336
580 4 2 3 1 385 380 191 388
581 4 2 3 1 314 222 312 415
582 4 2 3 1 50 377 23 174
583 4 2 3 1 294 153 146 145
584 4 2 3 1 380 297 32 185
585 4 2 3 1 114 274 276 319
586 4 2 3 1 169 162 161 319
587 4 2 3 1 100 247 320 251
588 4 2 3 1 239 70 71 220
589 4 2 3 1 91 295 243 252
590 4 2 3 1 291 298 300 399
591 4 2 3 1 117 261 116 411
592 4 2 3 1 22 110 111 334
593 4 2 3 1 379 373 370 401
594 4 2 3 1 361 383 372 413
595 4 2 3 1 302 304 288 406
596 4 2 3 1 397 390 409 411
597 4 2 3 1 381 322 41 165
598 4 2 3 1 191 360 385 388
599 4 2 3 1 397 391 407 411
600 4 2 3 1 216 85 260 408
601 4 2 3 1 303 293 144 273
602 4 2 3 1 359 380 37 308
603 4 2 3 1 237 249 255 409
604 4 2 3 1 332 46 355 381
605 4 2 3 1 374 364 189 367
606 4 2 3 1 381 41 326 165
607 4 2 3 1 295 306 302 406
608 4 2 3 1 273 262 275 404
609 4 2 3 1 215 266 63 64
610 4 2 3 1 315 42 316 179
611 4 2 3 1 290 291 33 175
612 4 2 3 1 229 92 288 406
613 4 2 3 1 401 409 390 411
614 4 2 3 1 218 220 213 398
615 4 2 3 1 266 64 215 408
616 4 2 3 1 102 313 228 403
617 4 2 3 1 262 267 266 404
618 4 2 3 1 135 97 338 96
619 4 2 3 1 380 375 297 185
620 4 2 3 1 207 385 360 388
621 4 2 3 1 322 41 189 374
622 4 2 3 1 70 253 289 223
623 4 2 3 1 135 97 98 337
624 4 2 3 1 279 122 294 264
625 4 2 3 1 268 269 270 400
626 4 2 3 1 57 214 58 410
627 4 2 3 1 87 278 317 224
628 4 2 3 1 384 357 194 210
629 4 2 3 1 356 386 192 208
630 4 2 3 1 102 246 321 403
631 4 2 3 1 271 281 407 411
632 4 2 3 1 41 322 381 374
633 4 2 3 1 67 287 68 213
634 4 2 3 1 297 32 149 380
635 4 2 3 1 272 265 278 402
636 4 2 3 1 280 270 269 400
637 4 2 3 1 314 250 222 415
638 4 2 3 1 71 230 217 72
639 4 2 3 1 380 32 149 301
640 4 2 3 1 289 1 5 223
641 4 2 3 1 314 312 321 415
642 4 2 3 1 193 357 384 209
643 4 2 3 1 209 386 193 356
644 4 2 3 1 212 312 61 60
645 4 2 3 1 198 356 197 208
646 4 2 3 1 357 199 210 198
647 4 2 3 1 381 189 41 374
648 4 2 3 1 308 301 150 190
649 4 2 3 1 326 166 201 332
650 4 2 3 1 230 217 72 410
651 4 2 3 1 272 65 221 66
652 4 2 3 1 165 381 322 374
653 4 2 3 1 102 228 246 403
654 4 2 3 1 318 312 328 402
655 4 2 3 1 314 6 222 250
656 4 2 3 1 238 242 248 405
657 4 2 3 1 386 193 384 209
658 4 2 3 1 24 170 376 49
659 4 2 3 1 351 297 375 185
660 4 2 3 1 296 287 305 398
661 4 2 3 1 317 11 87 224
662 4 2 3 1 387 210 194 358
663 4 2 3 1 210 194 384 387
664 4 2 3 1 3 11 317 224
665 4 2 3 1 385 192 386 208
666 4 2 3 1 385 360 192 208
667 4 2 3 1 271 261 281 411
668 4 2 3 1 55 71 220 56
669 4 2 3 1 271 116 261 411
670 4 2 3 1 347 301 388 190
671 4 2 3 1 244 243 229 406
672 4 2 3 1 118 119 263 412
673 4 2 3 1 229 243 92 406
674 4 2 3 1 6 222 250 74
675 4 2 3 1 225 4 12 292
676 4 2 3 1 70 289 5 223
677 4 2 3 1 237 235 238 414
678 4 2 3 1 71 55 220 70
679 4 2 3 1 297 149 375 380
680 4 2 3 1 234 235 230 410
681 4 2 3 1 201 389 343 326
682 4 2 3 1 195 389 355 381
683 4 2 3 1 231 249 240 409
684 4 2 3 1 221 66 224 402
685 4 2 3 1 295 92 243 406
686 4 2 3 1 118 173 119 412
687 4 2 3 1 322 189 354 374
688 4 2 3 1 388 380 191 359
689 4 2 3 1 215 408 214 410
690 4 2 3 1 264 281 267 407
691 4 2 3 1 162 276 23 311
692 4 2 3 1 146 286 24 279
693 4 2 3 1 87 278 11 317
694 4 2 3 1 363 298 148 290
695 4 2 3 1 306 291 300 399
696 4 2 3 1 15 95 133 252
697 4 2 3 1 99 251 16 137
698 4 2 3 1 323 164 315 365
699 4 2 3 1 253 289 5 70
700 4 2 3 1 229 92 93 288
701 4 2 3 1 321 158 246 102
702 4 2 3 1 370 378 361 413
703 4 2 3 1 97 231 338 96
704 4 2 3 1 140 295 288 406
705 4 2 3 1 293 121 144 273
706 4 2 3 1 216 64 85 408
707 4 2 3 1 250 74 222 415
708 4 2 3 1 216 214 215 408
709 4 2 3 1 163 323 331 377
710 4 2 3 1 222 2 6 314
711 4 2 3 1 102 101 228 313
712 4 2 3 1 97 240 98 337
713 4 2 3 1 264 279 271 407
714 4 2 3 1 321 313 157 403
715 4 2 3 1 253 94 289 305
716 4 2 3 1 223 213 220 398
717 4 2 3 1 24 39 286 146
718 4 2 3 1 246 232 250 415
719 4 2 3 1 201 389 326 332
720 4 2 3 1 210 199 194 358
721 4 2 3 1 197 192 360 208
722 4 2 3 1 301 308 388 190
723 4 2 3 1 215 214 217 410
724 4 2 3 1 361 378 383 413
725 4 2 3 1 203 348 385 202
726 4 2 3 1 346 205 387 206
727 4 2 3 1 192 193 362 356
728 4 2 3 1 72 217 57 410
729 4 2 3 1 238 235 242 414
730 4 2 3 1 23 48 162 311
731 4 2 3 1 344 204 203 386
732 4 2 3 1 345 384 205 204
733 4 2 3 1 357 366 194 193
734 4 2 3 1 264 122 294 145
735 4 2 3 1 150 38 308 51
736 4 2 3 1 179 42 354 315
737 4 2 3 1 33 175 351 290
738 4 2 3 1 338 231 97 177
739 4 2 3 1 225 12 4 62
740 4 2 3 1 366 368 362 187
741 4 2 3 1 97 240 337 177
742 4 2 3 1 217 57 56 72
743 4 2 3 1 65 85 216 64
744 4 2 3 1 308 380 37 301
745 4 2 3 1 326 46 332 381
746 4 2 3 1 47 53 166 332
747 4 2 3 1 204 187 384 386
748 4 2 3 1 369 371 362 186
749 4 2 3 1 231 240 97 177
750 4 2 3 1 386 203 186 385
751 4 2 3 1 387 384 205 188
752 4 2 3 1 266 260 85 408
753 4 2 3 1 183 205 346 206
754 4 2 3 1 203 181 348 202
755 4 2 3 1 268 118 263 412
756 4 2 3 1 222 74 59 415
757 4 2 3 1 194 364 358 195
758 4 2 3 1 203 186 344 386
759 4 2 3 1 384 345 205 188
760 4 2 3 1 192 371 191 360
761 4 2 3 1 303 120 292 275
762 4 2 3 1 273 267 262 404
763 4 2 3 1 163 365 323 377
764 4 2 3 1 147 376 307 298
765 4 2 3 1 246 228 257 403
766 4 2 3 1 364 366 188 367
767 4 2 3 1 56 71 217 72
768 4 2 3 1 384 345 187 204
769 4 2 3 1 187 204 344 386
770 4 2 3 1 250 232 74 415
771 4 2 3 1 329 313 321 403
772 4 2 3 1 201 53 389 332
773 4 2 3 1 295 243 92 91
774 4 2 3 1 320 101 247 100
775 4 2 3 1 224 212 221 402
776 4 2 3 1 203 348 186 385
777 4 2 3 1 230 72 234 410
778 4 2 3 1 346 387 205 188
779 4 2 3 1 52 347 388 190
780 4 2 3 1 190 308 388 51
781 4 2 3 1 200 389 355 195
782 4 2 3 1 288 295 302 406
783 4 2 3 1 389 201 343 54
784 4 2 3 1 198 209 193 356
785 4 2 3 1 209 193 357 198
786 4 2 3 1 377 23 331 50
787 4 2 3 1 149 375 148 297
788 4 2 3 1 317 278 112 328
789 4 2 3 1 388 191 196 359
790 4 2 3 1 37 191 380 359
791 4 2 3 1 195 355 46 381
792 4 2 3 1 376 147 363 298
793 4 2 3 1 358 387 210 211
794 4 2 3 1 208 385 360 207
795 4 2 3 1 92 124 295 91
796 4 2 3 1 129 101 320 100
797 4 2 3 1 151 35 144 292
798 4 2 3 1 44 317 167 160
799 4 2 3 1 356 209 386 208
800 4 2 3 1 210 384 357 209
801 4 2 3 1 352 177 178 413
802 4 2 3 1 277 260 266 408
803 4 2 3 1 209 357 210 198
804 4 2 3 1 356 198 209 208
805 4 2 3 1 212 222 219 415
806 4 2 3 1 238 248 254 405
807 4 2 3 1 91 15 299 252
808 4 2 3 1 100 324 16 251
809 4 2 3 1 336 15 133 252
810 4 2 3 1 251 335 16 137
811 4 2 3 1 375 380 371 185
812 4 2 3 1 377 331 45 50
813 4 2 3 1 164 165 322 374
814 4 2 3 1 41 189 354 322
815 4 2 3 1 185 32 351 297
816 4 2 3 1 222 59 219 415
817 4 2 3 1 364 189 381 374
818 4 2 3 1 49 376 24 307
819 4 2 3 1 168 161 160 318
820 4 2 3 1 146 24 153 279
821 4 2 3 1 91 299 15 123
822 4 2 3 1 128 324 16 100
823 4 2 3 1 249 231 255 409
824 4 2 3 1 42 324 335 341
825 4 2 3 1 336 299 33 342
826 4 2 3 1 36 376 49 307
827 4 2 3 1 199 194 357 210
828 4 2 3 1 197 356 192 208
829 4 2 3 1 147 363 298 148
830 4 2 3 1 281 264 271 407
831 4 2 3 1 215 64 216 408
832 4 2 3 1 365 323 164 163
833 4 2 3 1 162 23 276 169
834 4 2 3 1 49 24 39 307
835 4 2 3 1 39 24 286 307
836 4 2 3 1 292 120 12 275
837 4 2 3 1 5 94 289 253
838 4 2 3 1 23 48 331 50
839 4 2 3 1 360 197 208 207
840 4 2 3 1 358 210 199 211
841 4 2 3 1 6 314 103 250
842 4 2 3 1 388 180 185 347
843 4 2 3 1 348 181 203 186
844 4 2 3 1 346 205 183 188
845 4 2 3 1 223 289 1 67
846 4 2 3 1 225 68 4 292
847 4 2 3 1 23 48 311 331
848 4 2 3 1 331 48 45 50
849 4 2 3 1 39 36 49 307
850 4 2 3 1 217 214 57 410
851 4 2 3 1 299 34 33 342
852 4 2 3 1 324 42 43 341
853 4 2 3 1 224 317 3 61
854 4 2 3 1 294 122 153 145
855 4 2 3 1 60 2 222 314
856 4 2 3 1 189 184 389 343
857 4 2 3 1 381 326 46 165
858 4 2 3 1 380 149 37 301
859 4 2 3 1 311 48 45 331
860 4 2 3 1 286 36 39 307
861 4 2 3 1 317 278 11 112
862 4 2 3 1 331 45 163 377
863 4 2 3 1 336 133 175 252
864 4 2 3 1 137 251 335 179
865 4 2 3 1 88 4 12 62
866 4 2 3 1 83 88 12 62
867 4 2 3 1 154 42 315 354
868 4 2 3 1 33 290 351 138
869 4 2 3 1 147 376 36 307
870 4 2 3 1 67 289 76 77
871 4 2 3 1 97 135 338 177
872 4 2 3 1 337 135 97 177
873 4 2 3 1 61 10 81 317
874 4 2 3 1 315 154 354 322
875 4 2 3 1 351 290 297 138
876 4 2 3 1 187 204 182 344
877 4 2 3 1 345 187 204 182
878 4 2 3 1 8 88 106 258
879 4 2 3 1 107 120 12 292
880 4 2 3 1 314 60 2 79
881 4 2 3 1 289 76 1 67
882 4 2 3 1 142 26 126 289
883 4 2 3 1 354 154 41 322
884 4 2 3 1 351 297 32 138
885 4 2 3 1 40 166 54 326
886 4 2 3 1 68 78 4 292
887 4 2 3 1 61 10 317 3
888 4 2 3 1 52 31 301 150
889 4 2 3 1 111 317 11 112
890 4 2 3 1 130 131 158 102
891 4 2 3 1 69 13 226 89
892 4 2 3 1 109 10 21 317
893 4 2 3 1 109 10 317 81
894 4 2 3 1 18 78 105 292
895 4 2 3 1 126 142 93 125
896 4 2 3 1 190 150 308 51
897 4 2 3 1 355 47 46 332
898 4 2 3 1 205 345 183 188
899 4 2 3 1 186 181 203 344
900 4 2 3 1 53 201 166 332
901 4 2 3 1 359 37 38 308
902 4 2 3 1 8 88 310 106
903 4 2 3 1 13 69 283 89
904 4 2 3 1 8 88 258 4
905 4 2 3 1 69 13 5 226
906 4 2 3 1 1 5 69 76
907 4 2 3 1 6 2 75 79
908 4 2 3 1 111 11 3 82
909 4 2 3 1 27 43 29 341
910 4 2 3 1 30 34 25 342
911 4 2 3 1 25 15 30 342
912 4 2 3 1 16 27 29 341
913 4 2 3 1 152 153 122 145
914 4 2 3 1 39 24 153 146
915 4 2 3 1 121 152 144 151
916 4 2 3 1 162 48 23 169
917 4 2 3 1 137 29 335 16
918 4 2 3 1 31 180 52 347
919 4 2 3 1 30 133 336 15
920 4 2 3 1 184 40 54 343
921 4 2 3 1 400 407 411 397
922 4 2 3 1 411 407 400 281
923 4 2 3 1 410 239 393 230
924 4 2 3 1 410 393 239 398
925 4 2 3 1 403 247 248 392
926 4 2 3 1 403 248 247 228
927 4 2 3 1 405 240 409 390
928 4 2 3 1 405 409 240 254
929 4 2 3 1 396 331 323 377
930 4 2 3 1 396 323 331 325
931 4 2 3 1 407 293 273 264
932 4 2 3 1 407 273 293 395
933 4 2 3 1 399 350 363 382
934 4 2 3 1 399 363 350 175
935 4 2 3 1 407 302 395 294
936 4 2 3 1 407 395 302 406
937 4 2 3 1 304 395 302 294
938 4 2 3 1 304 302 395 406
939 4 2 3 1 63 266 262 84
940 4 2 3 1 262 266 63 404
941 4 2 3 1 65 272 260 86
942 4 2 3 1 260 272 65 216
943 4 2 3 1 260 85 65 86
944 4 2 3 1 65 85 260 216
945 4 2 3 1 407 273 267 264
946 4 2 3 1 407 267 273 404
947 4 2 3 1 175 176 241 340
948 4 2 3 1 175 241 176 399
949 4 2 3 1 232 415 234 73
950 4 2 3 1 232 234 415 394
951 4 2 3 1 410 220 215 393
952 4 2 3 1 410 215 220 217
953 4 2 3 1 349 413 352 368
954 4 2 3 1 352 413 349 177
955 4 2 3 1 271 411 115 116
956 4 2 3 1 271 115 411 391
957 4 2 3 1 171 115 411 116
958 4 2 3 1 171 411 115 391
959 4 2 3 1 170 391 171 115
960 4 2 3 1 171 391 170 373
961 4 2 3 1 178 179 233 339
962 4 2 3 1 178 233 179 396
963 4 2 3 1 403 247 320 313
964 4 2 3 1 320 247 403 392
965 4 2 3 1 320 327 403 313
966 4 2 3 1 403 327 320 392
967 4 2 3 1 413 349 401 370
968 4 2 3 1 413 401 349 177
969 4 2 3 1 406 252 241 243
970 4 2 3 1 406 241 252 399
971 4 2 3 1 221 408 214 216
972 4 2 3 1 214 408 221 394
973 4 2 3 1 403 242 232 394
974 4 2 3 1 403 232 242 257
975 4 2 3 1 413 172 412 361
976 4 2 3 1 413 412 172 390
977 4 2 3 1 413 409 240 390
978 4 2 3 1 413 240 409 177
979 4 2 3 1 413 379 172 361
980 4 2 3 1 413 172 379 401
981 4 2 3 1 275 62 292 225
982 4 2 3 1 12 292 62 225
983 4 2 3 1 132 28 285 20
984 4 2 3 1 132 285 28 284
985 4 2 3 1 143 35 310 18
986 4 2 3 1 143 310 35 309
987 4 2 3 1 234 58 72 73
988 4 2 3 1 72 58 234 410
989 4 2 3 1 275 62 262 83
990 4 2 3 1 275 262 62 218
991 4 2 3 1 84 262 62 83
992 4 2 3 1 262 63 62 218
993 4 2 3 1 62 63 262 84
994 4 2 3 1 336 399 252 175
995 4 2 3 1 252 399 336 299
996 4 2 3 1 176 177 409 338
997 4 2 3 1 176 409 177 401
998 4 2 3 1 415 246 103 250
999 4 2 3 1 375 290 148 297
1000 4 2 3 1 148 290 375 363
1001 4 2 3 1 223 70 220 55
1002 4 2 3 1 223 220 70 398
1003 4 2 3 1 221 415 212 219
1004 4 2 3 1 212 415 221 402
1005 4 2 3 1 365 322 354 374
1006 4 2 3 1 365 354 322 315
1007 4 2 3 1 179 42 324 335
1008 4 2 3 1 179 324 42 316
1009 4 2 3 1 127 17 283 26
1010 4 2 3 1 127 283 17 282
1011 4 2 3 1 125 92 288 93
1012 4 2 3 1 142 296 125 141
1013 4 2 3 1 142 125 296 93
1014 4 2 3 1 296 288 125 141
1015 4 2 3 1 296 125 288 93
1016 4 2 3 1 410 58 394 214
1017 4 2 3 1 410 394 58 234
1018 4 2 3 1 343 381 41 326
1019 4 2 3 1 41 381 343 189
1020 4 2 3 1 187 367 352 188
1021 4 2 3 1 187 352 367 368
1022 4 2 3 1 411 171 172 379
1023 4 2 3 1 411 172 171 116
1024 4 2 3 1 380 347 32 301
1025 4 2 3 1 32 347 380 185
1026 4 2 3 1 314 158 415 321
1027 4 2 3 1 246 415 158 321
1028 4 2 3 1 145 264 293 294
1029 4 2 3 1 318 319 168 161
1030 4 2 3 1 318 168 319 113
1031 4 2 3 1 303 151 292 120
1032 4 2 3 1 292 151 303 144
1033 4 2 3 1 273 121 151 120
1034 4 2 3 1 151 121 273 144
1035 4 2 3 1 303 273 151 120
1036 4 2 3 1 151 273 303 144
1037 4 2 3 1 159 21 334 44
1038 4 2 3 1 159 334 21 333
1039 4 2 3 1 87 224 402 278
1040 4 2 3 1 402 224 87 66
1041 4 2 3 1 402 272 87 278
1042 4 2 3 1 87 272 402 66
1043 4 2 3 1 287 78 67 68
1044 4 2 3 1 303 292 78 68
1045 4 2 3 1 78 292 303 105
1046 4 2 3 1 287 303 78 68
1047 4 2 3 1 78 303 287 105
1048 4 2 3 1 113 318 112 265
1049 4 2 3 1 157 129 313 156
1050 4 2 3 1 320 129 313 101
1051 4 2 3 1 320 313 129 156
1052 4 2 3 1 167 328 317 112
1053 4 2 3 1 167 317 328 160
1054 4 2 3 1 113 318 167 112
1055 4 2 3 1 318 328 167 112
1056 4 2 3 1 318 167 328 160
1057 4 2 3 1 326 201 54 343
1058 4 2 3 1 326 54 201 166
1059 4 2 3 1 190 301 52 347
1060 4 2 3 1 190 52 301 150
1061 4 2 3 1 396 119 311 174
1062 4 2 3 1 396 311 119 276
1063 4 2 3 1 23 311 119 174
1064 4 2 3 1 23 119 311 276
1065 4 2 3 1 73 415 59 74
1066 4 2 3 1 130 313 101 102
1067 4 2 3 1 158 321 130 102
1068 4 2 3 1 158 130 321 157
1069 4 2 3 1 403 313 130 102
1070 4 2 3 1 403 130 313 157
1071 4 2 3 1 321 403 130 102
1072 4 2 3 1 321 130 403 157
1073 4 2 3 1 406 295 124 140
1074 4 2 3 1 406 124 295 92
1075 4 2 3 1 141 288 124 140
1076 4 2 3 1 288 406 124 140
1077 4 2 3 1 288 124 406 92
1078 4 2 3 1 102 246 131 158
1079 4 2 3 1 102 131 246 103
1080 4 2 3 1 131 246 415 158
1081 4 2 3 1 131 415 246 103
1082 4 2 3 1 314 131 415 158
1083 4 2 3 1 314 415 131 103
1084 4 2 3 1 28 131 314 158
1085 4 2 3 1 177 178 240 337
1086 4 2 3 1 177 240 178 413
1087 4 2 3 1 80 61 312 60
1088 4 2 3 1 79 80 314 60
1089 4 2 3 1 314 312 80 108
1090 4 2 3 1 314 80 312 60
1091 4 2 3 1 289 126 305 94
1092 4 2 3 1 289 305 126 142
1093 4 2 3 1 174 173 412 119
1094 4 2 3 1 412 173 174 372
1095 4 2 3 1 412 396 174 119
1096 4 2 3 1 174 396 412 372
1097 4 2 3 1 333 334 110 159
1098 4 2 3 1 285 90 284 132
1099 4 2 3 1 309 310 106 143
1100 4 2 3 1 282 283 89 127
1101 4 2 3 1 241 95 134 96
1102 4 2 3 1 241 176 134 340
1103 4 2 3 1 156 128 320 155
1104 4 2 3 1 324 128 320 100
1105 4 2 3 1 324 320 128 155
1106 4 2 3 1 299 295 123 91
1107 4 2 3 1 299 123 295 139
1108 4 2 3 1 140 295 123 139
1109 4 2 3 1 136 178 233 339
1110 4 2 3 1 136 99 233 98
1111 4 2 3 1 80 312 109 108
1112 4 2 3 1 104 78 287 105
1113 4 2 3 1 54 184 389 206
1114 4 2 3 1 54 389 184 343
1115 4 2 3 1 180 52 388 202
1116 4 2 3 1 388 52 180 347
1117 4 2 3 1 115 24 286 279
1118 4 2 3 1 286 24 115 170
1119 4 2 3 1 286 391 115 279
1120 4 2 3 1 115 391 286 170
1121 4 2 3 1 51 196 388 207
1122 4 2 3 1 200 53 389 211
1123 4 2 3 1 123 124 295 140
1124 4 2 3 1 123 295 124 91
1125 4 2 3 1 129 128 320 156
1126 4 2 3 1 320 128 129 100
1127 4 2 3 1 168 318 167 113
1128 4 2 3 1 167 318 168 160
1129 4 2 3 1 264 122 152 121
1130 4 2 3 1 264 152 122 145
1131 4 2 3 1 144 293 152 121
1132 4 2 3 1 144 152 293 145
1133 4 2 3 1 293 264 152 121
1134 4 2 3 1 293 152 264 145
1135 4 2 3 1 389 387 358 211
1136 4 2 3 1 358 387 389 195
1137 4 2 3 1 358 200 389 211
1138 4 2 3 1 389 200 358 195
1139 4 2 3 1 196 388 360 191
1140 4 2 3 1 360 388 196 207
1141 4 2 3 1 113 114 319 274
1142 4 2 3 1 319 114 113 168
1143 4 2 3 1 11 82 66 3
1144 4 2 3 1 66 82 11 87
1145 4 2 3 1 66 224 11 3
1146 4 2 3 1 11 224 66 87
1147 4 2 3 1 77 78 287 104
1148 4 2 3 1 77 287 78 67
1149 4 2 3 1 305 77 287 104
1150 4 2 3 1 305 287 77 67
1151 4 2 3 1 289 77 305 104
1152 4 2 3 1 289 305 77 67
1153 4 2 3 1 129 130 313 101
1154 4 2 3 1 313 130 129 157
1155 4 2 3 1 125 124 288 92
1156 4 2 3 1 288 124 125 141
1157 4 2 3 1 155 27 324 43
1158 4 2 3 1 341 27 324 16
1159 4 2 3 1 341 324 27 43
1160 4 2 3 1 139 299 25 34
1161 4 2 3 1 342 25 299 34
1162 4 2 3 1 342 299 25 15
1163 4 2 3 1 80 81 312 61
1164 4 2 3 1 80 312 81 109
1165 4 2 3 1 312 81 328 61
1166 4 2 3 1 312 328 81 109
1167 4 2 3 1 328 81 317 61
1168 4 2 3 1 328 317 81 109
1169 4 2 3 1 388 385 348 202
1170 4 2 3 1 348 385 388 185
1171 4 2 3 1 348 180 388 202
1172 4 2 3 1 388 180 348 185
1173 4 2 3 1 389 387 346 189
1174 4 2 3 1 346 387 389 206
1175 4 2 3 1 346 184 389 189
1176 4 2 3 1 389 184 346 206
1177 4 2 3 1 252 340 133 175
1178 4 2 3 1 339 251 137 179
1179 4 2 3 1 169 319 276 162
1180 4 2 3 1 276 319 169 114
1181 4 2 3 1 79 314 6 2
1182 4 2 3 1 76 89 283 69
1183 4 2 3 1 326 40 343 54
1184 4 2 3 1 326 343 40 41
1185 4 2 3 1 153 294 279 122
1186 4 2 3 1 279 294 153 146
1187 4 2 3 1 301 31 347 32
1188 4 2 3 1 301 347 31 52
1189 4 2 3 1 338 134 241 176
1190 4 2 3 1 241 134 338 96
1191 4 2 3 1 241 231 338 176
1192 4 2 3 1 338 231 241 96
1193 4 2 3 1 337 240 233 178
1194 4 2 3 1 233 240 337 98
1195 4 2 3 1 233 136 337 178
1196 4 2 3 1 337 136 233 98
1197 4 2 3 1 310 107 106 88
1198 4 2 3 1 38 308 196 359
1199 4 2 3 1 38 196 308 51
1200 4 2 3 1 388 196 308 359
1201 4 2 3 1 388 308 196 51
1202 4 2 3 1 389 332 200 355
1203 4 2 3 1 389 200 332 53
1204 4 2 3 1 47 200 332 355
1205 4 2 3 1 47 332 200 53
1206 4 2 3 1 79 284 14 28
1207 4 2 3 1 103 14 314 6
1208 4 2 3 1 314 79 14 28
1209 4 2 3 1 314 14 79 6
1210 4 2 3 1 18 310 88 107
1211 4 2 3 1 88 12 18 107
1212 4 2 3 1 292 107 18 12
1213 4 2 3 1 8 88 18 310
1214 4 2 3 1 21 334 10 333
1215 4 2 3 1 289 76 5 1
1216 4 2 3 1 111 317 3 11
1217 4 2 3 1 20 9 28 285
1218 4 2 3 1 28 9 284 285
1219 4 2 3 1 28 284 9 79
1220 4 2 3 1 284 9 90 285
1221 4 2 3 1 284 90 9 79
1222 4 2 3 1 89 7 283 282
1223 4 2 3 1 89 283 7 76
1224 4 2 3 1 17 283 7 282
1225 4 2 3 1 309 19 310 35
1226 4 2 3 1 310 19 18 35
1227 4 2 3 1 310 18 19 107
1228 4 2 3 1 18 19 292 35
1229 4 2 3 1 18 292 19 107
1230 4 2 3 1 292 120 19 107
1231 4 2 3 1 334 22 21 111
1232 4 2 3 1 334 21 22 44
1233 4 2 3 1 21 22 317 111
1234 4 2 3 1 21 317 22 44
1235 4 2 3 1 317 22 112 111
1236 4 2 3 1 169 168 319 161
1237 4 2 3 1 319 168 169 114
1238 4 2 3 1 251 137 233 339
1239 4 2 3 1 251 233 137 99
1240 4 2 3 1 136 233 137 339
1241 4 2 3 1 136 137 233 99
1242 4 2 3 1 134 133 241 340
1243 4 2 3 1 134 241 133 95
1244 4 2 3 1 252 241 133 340
1245 4 2 3 1 252 133 241 95
1246 4 2 3 1 19 106 310 107
1247 4 2 3 1 310 106 19 309
1248 4 2 3 1 123 25 299 15
1249 4 2 3 1 299 25 123 139
1250 4 2 3 1 27 128 324 16
1251 4 2 3 1 27 324 128 155
1252 4 2 3 1 108 9 314 20
1253 4 2 3 1 28 314 9 20
1254 4 2 3 1 28 9 314 79
1255 4 2 3 1 80 9 314 108
1256 4 2 3 1 314 9 80 79
1257 4 2 3 1 131 14 314 103
1258 4 2 3 1 131 314 14 28
1259 4 2 3 1 334 110 10 333
1260 4 2 3 1 79 90 14 284
1261 4 2 3 1 317 10 111 3
1262 4 2 3 1 317 111 10 21
1263 4 2 3 1 334 111 10 3
1264 4 2 3 1 334 10 111 21
1265 4 2 3 1 3 334 259 10
1266 4 2 3 1 110 259 334 10
1267 4 2 3 1 90 227 79 14
1268 4 2 3 1 90 79 227 75
1269 4 2 3 1 6 79 227 14
1270 4 2 3 1 6 227 79 75
1271 4 2 3 1 3 111 259 334
1272 4 2 3 1 3 259 111 82
1273 4 2 3 1 110 259 111 334
1274 4 2 3 1 110 111 259 82
1275 4 2 3 1 275 62 12 292
1276 4 2 3 1 12 62 275 83
1277 4 2 3 1 59 58 415 73
1278 4 2 3 1 59 415 58 219
1279 4 2 3 1 394 58 415 219
1280 4 2 3 1 234 58 415 394
1281 4 2 3 1 415 58 234 73
1282 4 2 3 1 283 26 7 76
1283 4 2 3 1 7 26 283 17
1284 4 2 3 1 7 104 289 17
1285 4 2 3 1 26 289 7 76
1286 4 2 3 1 7 289 26 17
1287 4 2 3 1 296 93 126 142
1288 4 2 3 1 126 305 296 142
1289 4 2 3 1 94 93 296 245
1290 4 2 3 1 296 93 94 126
1291 4 2 3 1 296 305 94 245
1292 4 2 3 1 94 305 296 126
1293 4 2 3 1 74 222 2 6
1294 4 2 3 1 2 222 74 59
1295 4 2 3 1 2 75 74 6
1296 4 2 3 1 74 75 2 59
1297 4 2 3 1 223 70 1 5
1298 4 2 3 1 223 1 70 55
1299 4 2 3 1 69 1 70 5
1300 4 2 3 1 69 70 1 55
1301 4 2 3 1 289 13 94 5
1302 4 2 3 1 13 76 289 26
1303 4 2 3 1 289 76 13 5
1304 4 2 3 1 76 69 13 5
1305 4 2 3 1 13 126 289 94
1306 4 2 3 1 13 289 126 26
1307 4 2 3 1 77 7 289 76
1308 4 2 3 1 289 7 77 104
1309 4 2 3 1 19 151 292 35
1310 4 2 3 1 19 292 151 120
1311 4 2 3 1 78 8 292 18
1312 4 2 3 1 292 8 78 4
1313 4 2 3 1 8 12 292 18
1314 4 2 3 1 292 12 8 4
1315 4 2 3 1 8 88 12 18
1316 4 2 3 1 12 88 8 4
1317 4 2 3 1 22 167 317 112
1318 4 2 3 1 22 317 167 44
1319 4 2 3 1 76 283 13 69
1320 4 2 3 1 13 283 76 26
$EndElements
