$MeshFormat
2.2 0 8
$EndMeshFormat
$PhysicalNames
3
2 1 "Fixed"
2 2 "Load"
3 3 "Volume"
$EndPhysicalNames
$Nodes
290
1 3 -30 -55
2 78.5 -30 -55
3 3 -90 -55
4 78.5 -90 -55
5 80 -30 -53.5
6 80 -30 -51
7 18.8008714659 -30 55
8 0 -30 55
9 -4.440892098501e-16 -30 -52
10 80 -90 -53.5
11 -4.440892098501e-16 -90 -52
12 80 -90 -51
13 18.8008714659 -90 55
14 0 -90 55
15 15.58333333333335 -30 -55
16 28.16666666666672 -30 -55
17 40.75000000000006 -30 -55
18 53.33333333333337 -30 -55
19 65.91666666666669 -30 -55
20 3 -42.00000000000002 -55
21 3 -54.00000000000003 -55
22 3 -66.00000000000001 -55
23 3 -78 -55
24 15.58333333333335 -90 -55
25 28.16666666666672 -90 -55
26 40.75000000000006 -90 -55
27 53.33333333333337 -90 -55
28 65.91666666666669 -90 -55
29 78.5 -42.00000000000002 -55
30 78.5 -54.00000000000003 -55
31 78.5 -66.00000000000001 -55
32 78.5 -78 -55
33 73.20009682954183 -30 -39.22222222222373
34 66.40019365908367 -30 -27.44444444444748
35 59.60029048862553 -30 -15.66666666667124
36 52.8003873181674 -30 -3.888888888895018
37 46.00048414770924 -30 7.888888888881233
38 39.20058097725105 -30 19.66666666665755
39 32.40067780679286 -30 31.44444444443386
40 25.60077463633467 -30 43.22222222221016
41 9.400435732950005 -30 55
42 0 -30 41.62500000000003
43 0 -30 28.25000000000003
44 0 -30 14.87500000000008
45 0 -30 1.500000000000142
46 0 -30 -11.87499999999986
47 0 -30 -25.24999999999991
48 0 -30 -38.62499999999994
49 0.8786796564403567 -30 -54.12132034355965
50 80 -42.00000000000002 -53.5
51 80 -54.00000000000003 -53.5
52 80 -66.00000000000001 -53.5
53 80 -78 -53.5
54 0.8786796564403567 -90 -54.12132034355965
55 -4.440892098501e-16 -42.00000000000002 -52
56 -4.440892098501e-16 -54.00000000000003 -52
57 -4.440892098501e-16 -66.00000000000001 -52
58 -4.440892098501e-16 -78 -52
59 73.20009682954183 -90 -39.22222222222373
60 66.40019365908367 -90 -27.44444444444748
61 59.60029048862553 -90 -15.66666666667124
62 52.8003873181674 -90 -3.888888888895018
63 46.00048414770924 -90 7.888888888881233
64 39.20058097725105 -90 19.66666666665755
65 32.40067780679286 -90 31.44444444443386
66 25.60077463633467 -90 43.22222222221016
67 9.400435732950005 -90 55
68 0 -90 41.62500000000003
69 0 -90 28.25000000000003
70 0 -90 14.87500000000008
71 0 -90 1.500000000000142
72 0 -90 -11.87499999999986
73 0 -90 -25.24999999999991
74 0 -90 -38.62499999999994
75 80 -42.00000000000002 -51
76 80 -54.00000000000003 -51
77 80 -66.00000000000001 -51
78 80 -78 -51
79 0 -42.00000000000002 55
80 0 -54.00000000000003 55
81 0 -66.00000000000001 55
82 0 -78 55
83 18.8008714659 -42.00000000000002 55
84 18.8008714659 -54.00000000000003 55
85 18.8008714659 -66.00000000000001 55
86 18.8008714659 -78 55
87 69.0718977029599 -60.0296203213212 -55
88 12.45206272148221 -60.0302899388394 -55
89 34.49515187976932 -40.87631606204391 -55
90 34.9766945790521 -79.9629902643787 -55
91 59.97291039406649 -41.8342114647096 -55
92 59.01605710955795 -78.53669800497968 -55
93 47.09805150304322 -41.00524646790626 -55
94 40.79056119010409 -51.69252721639367 -55
95 29.14761992687356 -52.69943091485987 -55
96 34.56275852271776 -62.46086978228985 -55
97 47.01864679586063 -62.43733992955526 -55
98 21.67122853149347 -41.98878679960868 -55
99 46.53060773042917 -80.00935076408011 -55
100 22.5657119050959 -78.65161597846242 -55
101 52.49198187039489 -52.85784116774865 -55
102 11.9280335196879 -48.39413955980085 -55
103 12.6981302107183 -71.75319686812583 -55
104 23.18397249630323 -64.29542466869631 -55
105 69.60721204369651 -48.36428196799673 -55
106 68.82648026041821 -71.73703003871307 -55
107 58.37511743715716 -64.29563207422473 -55
108 40.80643241695115 -70.77589322178379 -55
109 69.90721750162753 -38.58156371101816 -55
110 69.69883478792458 -81.3685119419672 -55
111 11.41232397080098 -38.55380279526966 -55
112 11.80255121556449 -81.36705856330853 -55
113 19.67658343916808 -53.48161437636102 -55
114 50.34937229799121 -71.2109827989247 -55
115 31.21911398402402 -71.22935878312222 -55
116 61.90382388965499 -53.47631739920018 -55
117 46.10782916620187 -30 -15.81109728880097
118 11.38002186986893 -30 -4.811778877548968
119 12.55593938953391 -30 -29.7675586388013
120 36.23651584987596 -30 -45.28547665071555
121 25.85091895251669 -30 19.63093691479378
122 6.135800896602341 -30 -48.51914031546056
123 57.62233522020351 -30 -38.28350689872978
124 11.06108819412883 -30 37.10718361739779
125 52.62774442909519 -30 -27.26377029272307
126 39.54072533788873 -30 -26.70148139873428
127 32.62114532374225 -30 -15.90201053310075
128 26.29587616651099 -30 -27.61393726981013
129 39.21065702567816 -30 -4.205120832069095
130 25.4582525409892 -30 -4.341336962756546
131 32.35813071637604 -30 7.781684013826258
132 19.10523690256521 -30 8.001584181385784
133 19.46656327255292 -30 -16.83318704700293
134 23.42028944607929 -30 -41.31335673784422
135 44.34616851178097 -30 -36.71358743775339
136 12.20873329861545 -30 20.85304056636233
137 14.05172189900362 -30 47.08529510416096
138 72.20833333333334 -30 -50.35937499999999
139 12.09567114967835 -30 -41.97070157730288
140 21.42970797864803 -30 30.29942660958791
141 8.488144344672261 -30 -18.56249999999989
142 8.00100756002357 -30 8.18750000000011
143 6.27338307986178 -30 47.4917826745084
144 33.69366034943535 -30 -35.24849793591672
145 48.65222548586564 -30 -46.44135319593964
146 61.82216514482406 -30 -47.38440955281551
147 46.71273520598796 -90 -16.07185460765658
148 11.87386506800169 -90 -4.580079269007889
149 11.59125045898455 -90 -33.18666244459401
150 36.00886253860109 -90 -45.4176153798026
151 25.79928784697935 -90 20.32378037002983
152 9.291666666666679 -90 -46.82688525178435
153 57.62233522020351 -90 -38.28350689872978
154 11.06108819412883 -90 37.10718361739779
155 22.13768819649265 -90 -42.1383359233256
156 24.67365568480205 -90 -27.44581480547274
157 12.08773084012273 -90 -18.66766636987048
158 23.16501235645445 -90 -10.80257316083713
159 21.87048690569411 -90 2.514249327926967
160 33.94350989569355 -90 -1.510306707271418
161 52.72856210239287 -90 -27.30722984586567
162 39.47771873597094 -90 -26.80654359406436
163 44.1790925586421 -90 -36.71909553973524
164 11.92232690337892 -90 21.58506707632457
165 14.05172189900362 -90 47.08529510416096
166 10.38318232956244 -90 8.187500000000114
167 72.20833333333334 -90 -50.35937499999999
168 34.84921209538249 -90 -15.35494832370633
169 31.8735603541839 -90 10.36777425191053
170 21.35683107752293 -90 30.73653954607925
171 32.75663123846864 -90 -35.02110396152388
172 6.27338307986178 -90 47.4917826745084
173 43.0270988840935 -90 -6.098130032468276
174 48.58643727513002 -90 -46.46429433445113
175 19.29091836915513 -90 12.67907516406727
176 61.81120044303479 -90 -47.38823307590077
177 0 -59.99193763815629 45.19496257911804
178 0 -59.99620004257235 -42.18391434035746
179 0 -41.15802320527022 8.187267970348969
180 0 -78.44092809828862 -5.183108574014355
181 0 -41.94497200876845 -18.77228847740187
182 0 -78.31472795555948 21.46209012051139
183 0 -40.29975384670541 36.08843788553772
184 0 -77.87259735510787 -32.45135530036079
185 0 -78.37705237273308 -18.64741064572908
186 0 -66.9228703020455 -11.89875516279251
187 0 -66.87377007405851 1.447580151705139
188 0 -55.39171670266602 -5.248255789482712
189 0 -55.41973663506961 -18.51296923389408
190 0 -55.72911627062628 8.029342827440111
191 0 -66.42824282006501 -24.49780318743967
192 0 -66.88440331788421 14.73911783500091
193 0 -55.25336802012615 21.28159005732395
194 0 -66.39375176924183 27.27576825431357
195 0 -77.76807696898472 35.28093162562887
196 0 -41.51280280424947 21.68424060551848
197 0 -78.41897157429847 8.140113255533883
198 0 -40.37999001931068 -33.07136996344686
199 0 -41.53855569543236 -5.264635289547847
200 0 -48.00000000000003 -41.78742250832811
201 0 -54.04396415664887 -30.48304985728994
202 0 -71.58589788269731 -42.7112536652148
203 0 -48.00000000000003 44.83973475195532
204 0 -53.94421961481233 33.39621414670292
205 0 -71.57134561087213 45.66054371251128
206 0 -38.49201767225246 46.07667106040902
207 0 -81.49169904756104 -43.5575217931151
208 0 -38.4963754224176 -43.07276130325148
209 0 -81.46788451597138 46.51329506762804
210 0 -65.93386632041346 37.36168406365493
211 0 -66.13860757075602 -34.5555812901616
212 0 -48.47763522683117 -11.89524717791812
213 0 -48.41454887972598 1.463157393636408
214 0 -48.24985906238764 14.23084456927967
215 75.9263395358356 -59.99814167836412 -43.94421310328621
216 22.86824874907129 -60.01204581507979 47.95509589194516
217 56.23788756638693 -41.75499312150467 -9.842813969838865
218 42.59247679255783 -41.76149118011696 13.79173078056893
219 49.40043573293832 -78.22222222222227 1.999999999993108
220 62.31448569054658 -76.00193223736883 -20.36779065805577
221 35.49713917109985 -77.81552390702561 26.08121603778281
222 69.90999498544105 -40.23411113687785 -33.52359866616798
223 28.91415301263044 -40.2843295837786 37.48328252976874
224 63.03689522582606 -41.44660671210242 -21.61904067703143
225 59.40335906535154 -53.0893908231027 -15.32557143595402
226 52.79262387213667 -53.38831023831595 -3.875442205927989
227 56.10441405932836 -66.02403116106879 -9.611631074149145
228 35.79594055269876 -41.49931212762235 25.56367686348199
229 39.46161697639901 -53.13580811752627 19.21453905352898
230 32.39392065389215 -53.30258415476614 31.45614817657238
231 46.0320045820805 -53.36748842050621 7.834293895073593
232 43.62227270763308 -65.23970483460565 12.0080719342326
233 66.40058794035787 -53.2612385001931 -27.44512735964685
234 28.85248865199066 -79.69170246357628 37.59008833541301
235 69.77798080925865 -79.37758904446872 -33.29494340570085
236 66.39986537590079 -66.71866270876569 -27.44387584129544
237 31.15476745095111 -67.70401366573637 33.6024244824269
238 49.4093107131731 -41.71204716007396 1.984628083310305
239 42.06450363551219 -77.75113331614904 14.70620711360405
240 56.08867015662844 -79.6225653167439 -9.584361834763477
241 49.59035019082339 -63.24835137534377 1.671058509844428
242 73.93566983457393 -70.23286302058526 -40.49627203961478
243 24.84728227744004 -49.72983793428241 44.52730927092993
244 73.9549715440581 -49.70483951688702 -40.52970358111428
245 24.66145119692849 -70.43118772983397 44.84917814400119
246 37.36968520947759 -65.1188654453062 22.8378711598024
247 61.48279849603671 -63.21936203174351 -18.927266181161
248 75.44337854030606 -38.40547206795313 -43.10770012095544
249 23.36101562382996 -38.41621733428115 47.10159862857667
250 75.42108334928234 -81.52861867234422 -43.06908371733793
251 23.28157825432577 -81.55032308904647 47.23918818857747
252 71.32348684614526 -59.98314908495904 -35.97183838499151
253 27.18513406565662 -60.23593385993973 40.4780311931751
254 9.255334374226543 -48.50000000000002 55
255 9.400435732949999 -60.00000000000002 55
256 9.255334374226539 -71.5 55
257 8.529827580609252 -39.00000000000001 55
258 8.529827580609224 -81 55
259 29.51834073433508 -59.18867907211116 -21.79028632911362
260 23.0152613515348 -55.07308711718917 1.402927137692672
261 45.71663106179138 -67.95066301720976 -34.01442884346397
262 19.84459091200715 -70.70074215582888 -35.91372598017751
263 39.07311490572883 -48.92451918046507 -35.59422775521952
264 19.01475079473639 -48.94871170326566 -35.47134342683859
265 19.82157863673845 -70.01296810598377 14.41778401240142
266 19.13591269654958 -72.62483451596415 -4.222747456840447
267 18.22339285934411 -50.33690064868241 19.16145232463135
268 35.95438299951429 -47.40869668245816 -9.202589579587961
269 17.84664868714133 -47.74776658946244 -14.21959856202707
270 40.69182724005257 -72.83323875278504 -17.18861590645969
271 55.44915321143046 -46.81446289188904 -39.43907117934649
272 15.31036786094287 -72.67789276119737 30.43011911021508
273 33.8135790120316 -75.28826074407864 -40.40160649462149
274 14.15111202300144 -62.80453719504986 -18.04630637860327
275 47.25214312116891 -44.29026116177746 -22.74185283707543
276 13.1905694814377 -60.32975774645377 37.38913673416116
277 29.02231551859862 -59.15168134435507 -41.07243847229864
278 35.80532975980235 -66.75896017643478 -6.448761767784656
279 57.5622804576637 -71.46717114425141 -42.11048283699265
280 14.61788111099075 -45.24140063708982 33.50722358650068
281 24.8630080012717 -74.86939249566825 -20.88671065481167
282 13.97448912223021 -43.2326305501602 3.148538742623723
283 32.18081933620404 -43.21619579881538 -23.22821316735147
284 28.34390018173094 -44.18089193565471 10.09317640242861
285 46.86787009508084 -59.49589342164239 -21.34556736881703
286 12.18712138787252 -75.8522334683318 42.87188171949454
287 12.10196643271504 -62.11483272499259 6.115743749389559
288 11.76349930431753 -59.78092351224181 -41.47026956983643
289 29.41447245001057 -76.44902430665111 5.450866920010386
290 60.23248221205547 -58.58444628525111 -42.96122995715367
$EndNodes
$Elements
970
1 2 2 2 6 6 75 5
2 2 2 2 6 5 75 50
3 2 2 2 6 53 12 10
4 2 2 2 6 78 12 53
5 2 2 2 6 75 51 50
6 2 2 2 6 76 52 51
7 2 2 2 6 75 76 51
8 2 2 2 6 52 78 53
9 2 2 2 6 77 52 76
10 2 2 2 6 77 78 52
11 2 2 1 7 8 42 206
12 2 2 1 7 79 8 206
13 2 2 1 7 48 9 208
14 2 2 1 7 9 55 208
15 2 2 1 7 58 11 207
16 2 2 1 7 11 74 207
17 2 2 1 7 68 14 209
18 2 2 1 7 14 82 209
19 2 2 1 7 42 43 183
20 2 2 1 7 42 183 206
21 2 2 1 7 43 44 196
22 2 2 1 7 183 43 196
23 2 2 1 7 44 45 179
24 2 2 1 7 44 179 196
25 2 2 1 7 45 46 199
26 2 2 1 7 179 45 199
27 2 2 1 7 46 47 181
28 2 2 1 7 46 181 199
29 2 2 1 7 47 48 198
30 2 2 1 7 181 47 198
31 2 2 1 7 198 48 208
32 2 2 1 7 55 56 200
33 2 2 1 7 55 200 208
34 2 2 1 7 56 57 178
35 2 2 1 7 56 178 200
36 2 2 1 7 57 58 202
37 2 2 1 7 178 57 202
38 2 2 1 7 202 58 207
39 2 2 1 7 69 68 195
40 2 2 1 7 195 68 209
41 2 2 1 7 70 69 182
42 2 2 1 7 182 69 195
43 2 2 1 7 71 70 197
44 2 2 1 7 70 182 197
45 2 2 1 7 72 71 180
46 2 2 1 7 180 71 197
47 2 2 1 7 73 72 185
48 2 2 1 7 72 180 185
49 2 2 1 7 74 73 184
50 2 2 1 7 184 73 185
51 2 2 1 7 74 184 207
52 2 2 1 7 80 79 203
53 2 2 1 7 203 79 206
54 2 2 1 7 81 80 177
55 2 2 1 7 177 80 203
56 2 2 1 7 82 81 205
57 2 2 1 7 81 177 205
58 2 2 1 7 82 205 209
59 2 2 1 7 177 203 204
60 2 2 1 7 177 204 210
61 2 2 1 7 205 177 210
62 2 2 1 7 200 178 201
63 2 2 1 7 201 178 211
64 2 2 1 7 178 202 211
65 2 2 1 7 196 179 214
66 2 2 1 7 179 199 213
67 2 2 1 7 179 213 214
68 2 2 1 7 185 180 186
69 2 2 1 7 186 180 187
70 2 2 1 7 187 180 197
71 2 2 1 7 189 181 201
72 2 2 1 7 181 189 212
73 2 2 1 7 181 198 201
74 2 2 1 7 199 181 212
75 2 2 1 7 192 182 194
76 2 2 1 7 182 192 197
77 2 2 1 7 194 182 195
78 2 2 1 7 183 196 204
79 2 2 1 7 203 183 204
80 2 2 1 7 183 203 206
81 2 2 1 7 184 185 191
82 2 2 1 7 184 191 211
83 2 2 1 7 184 202 207
84 2 2 1 7 202 184 211
85 2 2 1 7 185 186 191
86 2 2 1 7 186 187 188
87 2 2 1 7 186 188 189
88 2 2 1 7 186 189 191
89 2 2 1 7 188 187 190
90 2 2 1 7 190 187 192
91 2 2 1 7 192 187 197
92 2 2 1 7 189 188 212
93 2 2 1 7 188 190 213
94 2 2 1 7 212 188 213
95 2 2 1 7 191 189 201
96 2 2 1 7 190 192 193
97 2 2 1 7 190 193 214
98 2 2 1 7 213 190 214
99 2 2 1 7 191 201 211
100 2 2 1 7 193 192 194
101 2 2 1 7 193 194 204
102 2 2 1 7 196 193 204
103 2 2 1 7 193 196 214
104 2 2 1 7 194 195 210
105 2 2 1 7 204 194 210
106 2 2 1 7 205 195 209
107 2 2 1 7 195 205 210
108 2 2 1 7 198 200 201
109 2 2 1 7 200 198 208
110 2 2 1 7 199 212 213
111 4 2 3 1 97 263 261 290
112 4 2 3 1 89 95 263 264
113 4 2 3 1 112 202 207 262
114 4 2 3 1 184 191 185 274
115 4 2 3 1 89 98 95 264
116 4 2 3 1 97 271 263 290
117 4 2 3 1 97 96 108 261
118 4 2 3 1 229 260 265 267
119 4 2 3 1 102 111 200 264
120 4 2 3 1 101 271 97 290
121 4 2 3 1 97 263 94 277
122 4 2 3 1 265 267 194 272
123 4 2 3 1 193 194 265 267
124 4 2 3 1 184 262 191 274
125 4 2 3 1 202 112 103 262
126 4 2 3 1 261 263 97 277
127 4 2 3 1 208 200 111 264
128 4 2 3 1 194 272 267 276
129 4 2 3 1 89 263 134 264
130 4 2 3 1 96 97 94 277
131 4 2 3 1 237 267 265 272
132 4 2 3 1 152 112 207 262
133 4 2 3 1 237 267 272 276
134 4 2 3 1 194 192 193 265
135 4 2 3 1 174 99 273 279
136 4 2 3 1 89 134 98 264
137 4 2 3 1 208 111 139 264
138 4 2 3 1 194 267 193 276
139 4 2 3 1 108 261 96 273
140 4 2 3 1 263 264 95 277
141 4 2 3 1 120 134 89 263
142 4 2 3 1 96 261 97 277
143 4 2 3 1 192 193 265 287
144 4 2 3 1 184 185 157 281
145 4 2 3 1 144 134 120 263
146 4 2 3 1 149 262 184 281
147 4 2 3 1 174 163 261 273
148 4 2 3 1 188 274 260 287
149 4 2 3 1 197 265 166 266
150 4 2 3 1 260 267 229 284
151 4 2 3 1 193 267 265 287
152 4 2 3 1 157 149 184 281
153 4 2 3 1 175 159 166 265
154 4 2 3 1 182 166 197 265
155 4 2 3 1 174 273 261 279
156 4 2 3 1 188 269 260 274
157 4 2 3 1 229 265 246 267
158 4 2 3 1 134 263 144 264
159 4 2 3 1 268 282 260 284
160 4 2 3 1 174 261 163 279
161 4 2 3 1 97 108 114 261
162 4 2 3 1 230 267 237 276
163 4 2 3 1 246 265 237 267
164 4 2 3 1 130 282 268 284
165 4 2 3 1 152 207 149 262
166 4 2 3 1 163 261 161 279
167 4 2 3 1 128 269 264 283
168 4 2 3 1 145 120 93 263
169 4 2 3 1 144 264 263 283
170 4 2 3 1 268 269 260 282
171 4 2 3 1 130 269 268 282
172 4 2 3 1 168 266 278 281
173 4 2 3 1 98 111 102 264
174 4 2 3 1 188 186 274 287
175 4 2 3 1 185 274 266 281
176 4 2 3 1 166 265 159 266
177 4 2 3 1 207 202 184 262
178 4 2 3 1 139 111 98 264
179 4 2 3 1 96 273 261 277
180 4 2 3 1 229 231 260 284
181 4 2 3 1 236 261 285 290
182 4 2 3 1 265 266 197 287
183 4 2 3 1 89 93 120 263
184 4 2 3 1 145 135 120 263
185 4 2 3 1 157 185 266 281
186 4 2 3 1 119 264 128 269
187 4 2 3 1 161 261 220 279
188 4 2 3 1 185 180 157 266
189 4 2 3 1 145 263 93 271
190 4 2 3 1 233 285 271 290
191 4 2 3 1 182 164 166 265
192 4 2 3 1 168 278 270 281
193 4 2 3 1 260 269 188 282
194 4 2 3 1 159 265 175 289
195 4 2 3 1 238 129 268 284
196 4 2 3 1 231 268 260 284
197 4 2 3 1 254 276 203 280
198 4 2 3 1 207 184 149 262
199 4 2 3 1 152 155 112 262
200 4 2 3 1 161 220 261 270
201 4 2 3 1 185 186 180 266
202 4 2 3 1 168 160 270 278
203 4 2 3 1 230 246 237 267
204 4 2 3 1 186 266 185 274
205 4 2 3 1 161 163 162 261
206 4 2 3 1 203 257 254 280
207 4 2 3 1 211 274 262 288
208 4 2 3 1 197 166 148 266
209 4 2 3 1 119 181 264 269
210 4 2 3 1 144 128 264 283
211 4 2 3 1 180 148 157 266
212 4 2 3 1 163 161 153 279
213 4 2 3 1 161 261 162 270
214 4 2 3 1 238 131 129 284
215 4 2 3 1 148 180 197 266
216 4 2 3 1 137 257 206 280
217 4 2 3 1 266 274 260 278
218 4 2 3 1 228 140 121 267
219 4 2 3 1 259 273 261 281
220 4 2 3 1 131 238 218 284
221 4 2 3 1 231 260 268 278
222 4 2 3 1 109 248 91 105
223 4 2 3 1 266 274 186 287
224 4 2 3 1 137 249 257 280
225 4 2 3 1 261 273 259 277
226 4 2 3 1 151 221 265 272
227 4 2 3 1 260 282 188 287
228 4 2 3 1 135 263 145 271
229 4 2 3 1 236 285 233 290
230 4 2 3 1 259 260 274 278
231 4 2 3 1 119 181 198 264
232 4 2 3 1 262 274 264 288
233 4 2 3 1 186 188 187 287
234 4 2 3 1 133 119 128 269
235 4 2 3 1 140 267 228 280
236 4 2 3 1 159 266 265 289
237 4 2 3 1 229 231 232 260
238 4 2 3 1 230 237 253 276
239 4 2 3 1 162 270 261 273
240 4 2 3 1 238 268 231 284
241 4 2 3 1 226 278 268 285
242 4 2 3 1 158 266 168 281
243 4 2 3 1 257 203 206 280
244 4 2 3 1 261 273 270 281
245 4 2 3 1 238 231 218 284
246 4 2 3 1 175 166 164 265
247 4 2 3 1 93 89 94 263
248 4 2 3 1 255 177 254 276
249 4 2 3 1 162 273 171 281
250 4 2 3 1 201 264 269 274
251 4 2 3 1 260 274 266 287
252 4 2 3 1 255 254 84 276
253 4 2 3 1 113 95 98 264
254 4 2 3 1 208 139 198 264
255 4 2 3 1 102 264 200 288
256 4 2 3 1 130 268 129 284
257 4 2 3 1 133 269 128 283
258 4 2 3 1 83 254 257 280
259 4 2 3 1 187 197 266 287
260 4 2 3 1 186 187 266 287
261 4 2 3 1 95 94 89 263
262 4 2 3 1 211 191 262 274
263 4 2 3 1 131 130 129 284
264 4 2 3 1 270 273 162 281
265 4 2 3 1 262 259 273 277
266 4 2 3 1 93 263 94 271
267 4 2 3 1 100 112 155 262
268 4 2 3 1 162 261 163 273
269 4 2 3 1 173 270 160 278
270 4 2 3 1 196 214 179 282
271 4 2 3 1 191 184 211 262
272 4 2 3 1 205 276 256 286
273 4 2 3 1 201 269 189 274
274 4 2 3 1 232 260 231 278
275 4 2 3 1 197 192 182 265
276 4 2 3 1 190 282 214 287
277 4 2 3 1 202 262 103 288
278 4 2 3 1 100 103 112 262
279 4 2 3 1 259 260 269 274
280 4 2 3 1 256 255 85 276
281 4 2 3 1 151 170 221 272
282 4 2 3 1 127 268 130 269
283 4 2 3 1 208 198 200 264
284 4 2 3 1 201 264 181 269
285 4 2 3 1 180 187 197 266
286 4 2 3 1 161 235 153 279
287 4 2 3 1 164 265 182 272
288 4 2 3 1 134 144 128 264
289 4 2 3 1 259 264 262 274
290 4 2 3 1 211 201 274 288
291 4 2 3 1 226 241 278 285
292 4 2 3 1 249 83 257 280
293 4 2 3 1 223 140 228 280
294 4 2 3 1 146 91 248 271
295 4 2 3 1 220 235 161 279
296 4 2 3 1 254 243 276 280
297 4 2 3 1 196 267 214 282
298 4 2 3 1 259 261 270 281
299 4 2 3 1 203 254 177 276
300 4 2 3 1 55 102 20 111
301 4 2 3 1 164 151 265 272
302 4 2 3 1 201 264 274 288
303 4 2 3 1 193 276 267 280
304 4 2 3 1 233 275 271 285
305 4 2 3 1 102 113 98 264
306 4 2 3 1 142 136 179 282
307 4 2 3 1 248 91 105 244
308 4 2 3 1 113 95 264 277
309 4 2 3 1 152 149 155 262
310 4 2 3 1 259 262 273 281
311 4 2 3 1 97 261 114 279
312 4 2 3 1 129 117 217 268
313 4 2 3 1 254 243 84 276
314 4 2 3 1 271 275 263 285
315 4 2 3 1 214 282 267 287
316 4 2 3 1 129 217 238 268
317 4 2 3 1 97 261 279 290
318 4 2 3 1 198 181 201 264
319 4 2 3 1 170 234 221 272
320 4 2 3 1 256 276 85 286
321 4 2 3 1 261 259 263 277
322 4 2 3 1 151 265 221 289
323 4 2 3 1 260 268 259 269
324 4 2 3 1 259 268 260 278
325 4 2 3 1 161 147 220 270
326 4 2 3 1 268 269 127 283
327 4 2 3 1 212 188 269 282
328 4 2 3 1 211 201 191 274
329 4 2 3 1 119 141 181 269
330 4 2 3 1 236 247 233 285
331 4 2 3 1 192 265 197 287
332 4 2 3 1 175 164 151 265
333 4 2 3 1 127 130 133 269
334 4 2 3 1 134 139 98 264
335 4 2 3 1 263 271 135 275
336 4 2 3 1 109 248 146 91
337 4 2 3 1 93 94 101 271
338 4 2 3 1 115 104 273 277
339 4 2 3 1 110 176 250 279
340 4 2 3 1 121 267 132 284
341 4 2 3 1 213 188 282 287
342 4 2 3 1 91 244 248 271
343 4 2 3 1 94 263 95 277
344 4 2 3 1 125 135 271 275
345 4 2 3 1 199 141 118 269
346 4 2 3 1 102 113 264 288
347 4 2 3 1 240 220 147 270
348 4 2 3 1 174 99 150 273
349 4 2 3 1 166 159 148 266
350 4 2 3 1 146 248 222 271
351 4 2 3 1 56 102 200 288
352 4 2 3 1 259 262 264 277
353 4 2 3 1 211 184 202 262
354 4 2 3 1 91 116 105 271
355 4 2 3 1 201 181 189 269
356 4 2 3 1 250 106 110 279
357 4 2 3 1 265 267 260 287
358 4 2 3 1 237 265 221 272
359 4 2 3 1 217 268 117 275
360 4 2 3 1 212 213 188 282
361 4 2 3 1 261 270 220 285
362 4 2 3 1 228 267 121 284
363 4 2 3 1 83 243 254 280
364 4 2 3 1 259 268 278 285
365 4 2 3 1 174 163 153 279
366 4 2 3 1 170 251 234 286
367 4 2 3 1 115 108 96 273
368 4 2 3 1 261 263 259 285
369 4 2 3 1 255 84 216 276
370 4 2 3 1 120 135 144 263
371 4 2 3 1 91 105 244 271
372 4 2 3 1 219 173 160 278
373 4 2 3 1 119 133 141 269
374 4 2 3 1 196 179 136 282
375 4 2 3 1 230 267 276 280
376 4 2 3 1 219 270 173 278
377 4 2 3 1 121 140 136 267
378 4 2 3 1 137 206 124 280
379 4 2 3 1 164 170 151 272
380 4 2 3 1 268 275 226 285
381 4 2 3 1 259 269 264 274
382 4 2 3 1 151 175 265 289
383 4 2 3 1 265 266 260 289
384 4 2 3 1 186 187 180 266
385 4 2 3 1 143 257 206 137
386 4 2 3 1 224 125 271 275
387 4 2 3 1 255 216 85 276
388 4 2 3 1 161 162 147 270
389 4 2 3 1 212 188 189 274
390 4 2 3 1 196 136 267 282
391 4 2 3 1 133 127 269 283
392 4 2 3 1 212 269 188 274
393 4 2 3 1 229 246 230 267
394 4 2 3 1 199 213 212 282
395 4 2 3 1 228 267 230 280
396 4 2 3 1 132 267 282 284
397 4 2 3 1 139 119 198 264
398 4 2 3 1 219 278 160 289
399 4 2 3 1 236 279 261 290
400 4 2 3 1 264 277 262 288
401 4 2 3 1 193 204 276 280
402 4 2 3 1 202 211 262 288
403 4 2 3 1 135 126 144 263
404 4 2 3 1 116 87 105 290
405 4 2 3 1 199 212 269 282
406 4 2 3 1 234 272 170 286
407 4 2 3 1 226 268 217 275
408 4 2 3 1 108 90 99 273
409 4 2 3 1 160 173 168 270
410 4 2 3 1 136 267 140 280
411 4 2 3 1 83 249 243 280
412 4 2 3 1 132 267 136 282
413 4 2 3 1 121 136 132 267
414 4 2 3 1 129 238 217 36
415 4 2 3 1 174 150 163 273
416 4 2 3 1 117 129 217 36
417 4 2 3 1 260 266 265 287
418 4 2 3 1 130 118 269 282
419 4 2 3 1 238 37 131 218
420 4 2 3 1 126 263 135 275
421 4 2 3 1 223 228 230 280
422 4 2 3 1 221 265 246 289
423 4 2 3 1 151 221 169 289
424 4 2 3 1 110 92 176 279
425 4 2 3 1 118 199 269 282
426 4 2 3 1 37 131 129 238
427 4 2 3 1 246 265 232 289
428 4 2 3 1 164 182 195 272
429 4 2 3 1 100 262 155 273
430 4 2 3 1 259 264 263 277
431 4 2 3 1 199 181 141 269
432 4 2 3 1 220 261 236 279
433 4 2 3 1 143 206 124 137
434 4 2 3 1 156 171 273 281
435 4 2 3 1 233 225 275 285
436 4 2 3 1 245 85 216 276
437 4 2 3 1 117 268 127 283
438 4 2 3 1 117 275 268 283
439 4 2 3 1 263 275 283 285
440 4 2 3 1 268 283 275 285
441 4 2 3 1 150 99 90 273
442 4 2 3 1 262 273 104 277
443 4 2 3 1 227 278 241 285
444 4 2 3 1 212 189 269 274
445 4 2 3 1 264 269 259 283
446 4 2 3 1 100 150 90 273
447 4 2 3 1 144 263 126 283
448 4 2 3 1 266 278 260 289
449 4 2 3 1 263 264 259 283
450 4 2 3 1 247 220 270 285
451 4 2 3 1 230 276 253 280
452 4 2 3 1 224 125 123 271
453 4 2 3 1 156 262 149 281
454 4 2 3 1 243 216 84 276
455 4 2 3 1 185 73 184 157
456 4 2 3 1 115 273 96 277
457 4 2 3 1 233 224 271 275
458 4 2 3 1 87 242 215 290
459 4 2 3 1 226 227 241 285
460 4 2 3 1 104 103 100 262
461 4 2 3 1 250 176 235 279
462 4 2 3 1 228 229 267 284
463 4 2 3 1 170 154 251 286
464 4 2 3 1 93 91 145 271
465 4 2 3 1 248 244 222 271
466 4 2 3 1 99 174 92 279
467 4 2 3 1 225 226 275 285
468 4 2 3 1 113 277 264 288
469 4 2 3 1 208 122 139 111
470 4 2 3 1 162 163 171 273
471 4 2 3 1 185 180 72 157
472 4 2 3 1 182 195 69 164
473 4 2 3 1 221 237 246 265
474 4 2 3 1 70 182 166 197
475 4 2 3 1 259 278 270 285
476 4 2 3 1 156 273 262 281
477 4 2 3 1 87 106 242 290
478 4 2 3 1 73 149 184 157
479 4 2 3 1 103 262 104 288
480 4 2 3 1 148 72 180 157
481 4 2 3 1 263 283 259 285
482 4 2 3 1 130 118 133 269
483 4 2 3 1 146 145 91 271
484 4 2 3 1 156 162 171 281
485 4 2 3 1 158 157 266 281
486 4 2 3 1 148 158 157 266
487 4 2 3 1 267 282 260 287
488 4 2 3 1 127 117 129 268
489 4 2 3 1 81 255 256 205
490 4 2 3 1 268 259 283 285
491 4 2 3 1 164 195 154 272
492 4 2 3 1 206 203 183 280
493 4 2 3 1 270 278 227 285
494 4 2 3 1 245 85 276 286
495 4 2 3 1 157 156 149 281
496 4 2 3 1 221 246 239 289
497 4 2 3 1 92 110 106 279
498 4 2 3 1 92 174 176 279
499 4 2 3 1 224 123 222 271
500 4 2 3 1 226 217 225 275
501 4 2 3 1 106 250 242 279
502 4 2 3 1 192 190 193 287
503 4 2 3 1 210 276 205 286
504 4 2 3 1 132 136 142 282
505 4 2 3 1 221 239 169 289
506 4 2 3 1 259 270 261 285
507 4 2 3 1 228 229 230 267
508 4 2 3 1 100 150 25 90
509 4 2 3 1 226 238 217 268
510 4 2 3 1 87 107 106 290
511 4 2 3 1 187 192 197 287
512 4 2 3 1 119 134 128 264
513 4 2 3 1 130 127 129 268
514 4 2 3 1 263 275 126 283
515 4 2 3 1 173 240 147 270
516 4 2 3 1 125 135 123 271
517 4 2 3 1 247 270 227 285
518 4 2 3 1 170 272 154 286
519 4 2 3 1 213 282 190 287
520 4 2 3 1 199 212 181 269
521 4 2 3 1 177 205 210 276
522 4 2 3 1 96 94 95 277
523 4 2 3 1 141 133 118 269
524 4 2 3 1 80 177 254 255
525 4 2 3 1 196 193 267 280
526 4 2 3 1 234 237 221 272
527 4 2 3 1 195 154 69 164
528 4 2 3 1 100 155 150 273
529 4 2 3 1 238 226 231 268
530 4 2 3 1 215 244 87 290
531 4 2 3 1 132 282 130 284
532 4 2 3 1 201 200 198 264
533 4 2 3 1 186 185 191 274
534 4 2 3 1 158 266 159 289
535 4 2 3 1 105 87 244 290
536 4 2 3 1 178 56 200 288
537 4 2 3 1 149 156 155 262
538 4 2 3 1 139 134 119 264
539 4 2 3 1 182 164 70 166
540 4 2 3 1 153 176 174 279
541 4 2 3 1 223 249 140 280
542 4 2 3 1 200 264 201 288
543 4 2 3 1 151 169 175 289
544 4 2 3 1 233 225 224 275
545 4 2 3 1 121 38 228 284
546 4 2 3 1 196 267 136 280
547 4 2 3 1 126 275 117 283
548 4 2 3 1 126 117 127 283
549 4 2 3 1 194 193 204 276
550 4 2 3 1 255 81 177 205
551 4 2 3 1 188 186 189 274
552 4 2 3 1 16 98 89 134
553 4 2 3 1 202 57 178 288
554 4 2 3 1 137 124 249 280
555 4 2 3 1 253 276 243 280
556 4 2 3 1 125 34 224 123
557 4 2 3 1 206 183 124 280
558 4 2 3 1 160 158 159 289
559 4 2 3 1 190 213 214 282
560 4 2 3 1 38 218 228 284
561 4 2 3 1 106 279 242 290
562 4 2 3 1 227 247 220 270
563 4 2 3 1 125 126 135 275
564 4 2 3 1 173 219 240 270
565 4 2 3 1 220 236 235 279
566 4 2 3 1 124 183 43 280
567 4 2 3 1 270 278 259 281
568 4 2 3 1 120 16 89 134
569 4 2 3 1 131 38 121 284
570 4 2 3 1 15 98 139 111
571 4 2 3 1 217 117 35 275
572 4 2 3 1 262 259 274 281
573 4 2 3 1 102 88 113 288
574 4 2 3 1 177 254 203 80
575 4 2 3 1 230 253 243 280
576 4 2 3 1 104 262 277 288
577 4 2 3 1 46 199 141 118
578 4 2 3 1 168 270 162 281
579 4 2 3 1 43 183 196 280
580 4 2 3 1 97 279 107 290
581 4 2 3 1 123 146 222 271
582 4 2 3 1 217 35 224 275
583 4 2 3 1 125 35 117 275
584 4 2 3 1 125 224 35 275
585 4 2 3 1 155 150 25 100
586 4 2 3 1 222 224 34 123
587 4 2 3 1 107 279 106 290
588 4 2 3 1 140 249 124 280
589 4 2 3 1 123 135 145 271
590 4 2 3 1 114 99 92 279
591 4 2 3 1 131 218 38 284
592 4 2 3 1 146 123 145 271
593 4 2 3 1 233 247 225 285
594 4 2 3 1 97 114 107 279
595 4 2 3 1 169 63 160 289
596 4 2 3 1 56 178 88 288
597 4 2 3 1 213 190 188 287
598 4 2 3 1 189 181 212 269
599 4 2 3 1 193 214 196 267
600 4 2 3 1 210 272 276 286
601 4 2 3 1 153 235 176 279
602 4 2 3 1 103 104 88 288
603 4 2 3 1 136 124 43 280
604 4 2 3 1 260 282 267 284
605 4 2 3 1 104 277 113 288
606 4 2 3 1 164 154 170 272
607 4 2 3 1 259 269 268 283
608 4 2 3 1 90 115 100 273
609 4 2 3 1 132 130 131 284
610 4 2 3 1 229 218 231 284
611 4 2 3 1 239 63 169 289
612 4 2 3 1 151 64 169 221
613 4 2 3 1 43 196 136 280
614 4 2 3 1 154 272 195 286
615 4 2 3 1 56 200 102 55
616 4 2 3 1 234 170 66 251
617 4 2 3 1 88 178 57 288
618 4 2 3 1 161 220 60 235
619 4 2 3 1 88 57 178 56
620 4 2 3 1 120 89 17 93
621 4 2 3 1 221 234 170 65
622 4 2 3 1 195 272 210 286
623 4 2 3 1 93 101 91 271
624 4 2 3 1 204 203 276 280
625 4 2 3 1 199 45 179 282
626 4 2 3 1 60 153 161 235
627 4 2 3 1 115 96 104 277
628 4 2 3 1 57 88 21 56
629 4 2 3 1 84 83 243 254
630 4 2 3 1 151 221 170 65
631 4 2 3 1 145 120 17 93
632 4 2 3 1 142 179 45 282
633 4 2 3 1 215 242 252 290
634 4 2 3 1 18 145 93 91
635 4 2 3 1 90 108 115 273
636 4 2 3 1 101 116 91 271
637 4 2 3 1 228 121 140 39
638 4 2 3 1 40 140 223 249
639 4 2 3 1 236 252 279 290
640 4 2 3 1 235 242 250 279
641 4 2 3 1 201 189 191 274
642 4 2 3 1 236 233 252 290
643 4 2 3 1 245 272 234 286
644 4 2 3 1 160 63 219 289
645 4 2 3 1 240 227 220 270
646 4 2 3 1 109 248 138 146
647 4 2 3 1 194 195 182 272
648 4 2 3 1 245 276 272 286
649 4 2 3 1 165 251 154 286
650 4 2 3 1 210 272 194 276
651 4 2 3 1 202 178 211 288
652 4 2 3 1 21 22 88 57
653 4 2 3 1 221 64 169 239
654 4 2 3 1 233 224 222 271
655 4 2 3 1 141 181 199 46
656 4 2 3 1 213 179 214 282
657 4 2 3 1 118 45 199 282
658 4 2 3 1 145 18 146 91
659 4 2 3 1 239 246 232 289
660 4 2 3 1 176 110 250 167
661 4 2 3 1 66 170 154 251
662 4 2 3 1 39 140 228 223
663 4 2 3 1 219 232 278 289
664 4 2 3 1 173 147 168 270
665 4 2 3 1 196 204 193 280
666 4 2 3 1 239 219 63 289
667 4 2 3 1 140 40 124 249
668 4 2 3 1 227 240 219 270
669 4 2 3 1 142 45 118 282
670 4 2 3 1 101 116 271 290
671 4 2 3 1 178 200 201 288
672 4 2 3 1 148 159 158 266
673 4 2 3 1 141 47 119 181
674 4 2 3 1 168 162 156 281
675 4 2 3 1 104 113 88 288
676 4 2 3 1 233 271 244 290
677 4 2 3 1 194 210 195 272
678 4 2 3 1 252 233 244 290
679 4 2 3 1 47 198 119 181
680 4 2 3 1 171 150 155 273
681 4 2 3 1 15 98 134 139
682 4 2 3 1 232 231 241 278
683 4 2 3 1 209 172 154 286
684 4 2 3 1 242 279 252 290
685 4 2 3 1 55 21 102 56
686 4 2 3 1 90 150 26 99
687 4 2 3 1 251 245 234 286
688 4 2 3 1 149 184 207 74
689 4 2 3 1 101 97 107 290
690 4 2 3 1 21 55 102 20
691 4 2 3 1 133 128 127 283
692 4 2 3 1 92 99 27 174
693 4 2 3 1 171 163 150 273
694 4 2 3 1 236 252 242 279
695 4 2 3 1 203 177 204 276
696 4 2 3 1 168 147 162 270
697 4 2 3 1 24 112 155 100
698 4 2 3 1 208 55 122 111
699 4 2 3 1 113 104 95 277
700 4 2 3 1 112 152 24 155
701 4 2 3 1 59 235 250 176
702 4 2 3 1 99 150 26 174
703 4 2 3 1 174 27 92 176
704 4 2 3 1 234 245 237 272
705 4 2 3 1 209 154 195 286
706 4 2 3 1 86 256 85 286
707 4 2 3 1 248 222 33 146
708 4 2 3 1 219 239 232 289
709 4 2 3 1 136 140 124 280
710 4 2 3 1 187 188 190 287
711 4 2 3 1 149 207 152 74
712 4 2 3 1 211 178 201 288
713 4 2 3 1 169 159 175 289
714 4 2 3 1 222 244 233 271
715 4 2 3 1 144 126 128 283
716 4 2 3 1 228 218 229 284
717 4 2 3 1 130 132 118 282
718 4 2 3 1 117 126 125 275
719 4 2 3 1 216 253 245 276
720 4 2 3 1 223 230 243 280
721 4 2 3 1 258 205 256 286
722 4 2 3 1 258 172 209 286
723 4 2 3 1 86 251 165 286
724 4 2 3 1 195 210 205 286
725 4 2 3 1 219 232 241 278
726 4 2 3 1 244 215 252 290
727 4 2 3 1 165 172 258 286
728 4 2 3 1 121 132 131 284
729 4 2 3 1 217 224 225 275
730 4 2 3 1 198 139 208 48
731 4 2 3 1 258 209 205 286
732 4 2 3 1 66 154 165 251
733 4 2 3 1 76 105 30 87
734 4 2 3 1 216 243 253 276
735 4 2 3 1 86 85 245 286
736 4 2 3 1 109 75 248 105
737 4 2 3 1 204 183 203 280
738 4 2 3 1 183 204 196 280
739 4 2 3 1 31 77 87 106
740 4 2 3 1 82 205 256 258
741 4 2 3 1 191 189 186 274
742 4 2 3 1 258 86 165 286
743 4 2 3 1 68 209 172 154
744 4 2 3 1 158 156 157 281
745 4 2 3 1 203 257 79 254
746 4 2 3 1 40 137 124 249
747 4 2 3 1 165 154 172 286
748 4 2 3 1 96 95 104 277
749 4 2 3 1 154 68 209 195
750 4 2 3 1 225 227 226 285
751 4 2 3 1 78 250 106 110
752 4 2 3 1 205 82 209 258
753 4 2 3 1 242 235 236 279
754 4 2 3 1 35 117 217 36
755 4 2 3 1 213 199 179 282
756 4 2 3 1 235 59 153 176
757 4 2 3 1 106 107 92 279
758 4 2 3 1 204 210 194 276
759 4 2 3 1 238 129 37 36
760 4 2 3 1 79 206 257 203
761 4 2 3 1 37 38 131 218
762 4 2 3 1 75 248 105 244
763 4 2 3 1 48 198 139 119
764 4 2 3 1 128 126 127 283
765 4 2 3 1 180 72 148 71
766 4 2 3 1 146 222 33 123
767 4 2 3 1 85 255 84 216
768 4 2 3 1 192 187 190 287
769 4 2 3 1 156 158 168 281
770 4 2 3 1 223 243 249 280
771 4 2 3 1 219 63 160 173
772 4 2 3 1 124 42 206 143
773 4 2 3 1 147 173 62 240
774 4 2 3 1 35 125 34 224
775 4 2 3 1 106 242 250 78
776 4 2 3 1 121 228 38 39
777 4 2 3 1 98 16 15 134
778 4 2 3 1 74 149 184 73
779 4 2 3 1 176 250 59 167
780 4 2 3 1 138 248 33 146
781 4 2 3 1 221 151 64 65
782 4 2 3 1 61 161 220 60
783 4 2 3 1 195 205 209 286
784 4 2 3 1 107 114 92 279
785 4 2 3 1 118 132 142 282
786 4 2 3 1 207 152 11 58
787 4 2 3 1 77 215 76 87
788 4 2 3 1 118 46 199 45
789 4 2 3 1 73 185 72 157
790 4 2 3 1 166 71 70 197
791 4 2 3 1 101 107 116 290
792 4 2 3 1 87 116 107 290
793 4 2 3 1 155 25 24 100
794 4 2 3 1 62 173 219 240
795 4 2 3 1 164 69 182 70
796 4 2 3 1 169 160 159 289
797 4 2 3 1 244 105 75 76
798 4 2 3 1 86 245 251 286
799 4 2 3 1 242 106 77 78
800 4 2 3 1 254 79 203 80
801 4 2 3 1 154 69 68 195
802 4 2 3 1 124 42 183 206
803 4 2 3 1 109 29 2 138
804 4 2 3 1 204 177 210 276
805 4 2 3 1 165 13 258 67
806 4 2 3 1 41 7 257 137
807 4 2 3 1 205 256 81 82
808 4 2 3 1 177 80 81 255
809 4 2 3 1 122 15 139 111
810 4 2 3 1 110 4 32 167
811 4 2 3 1 240 62 147 61
812 4 2 3 1 239 64 169 63
813 4 2 3 1 86 258 256 286
814 4 2 3 1 119 48 198 47
815 4 2 3 1 34 33 222 123
816 4 2 3 1 89 17 16 120
817 4 2 3 1 4 12 32 167
818 4 2 3 1 247 227 225 285
819 4 2 3 1 165 86 13 251
820 4 2 3 1 248 75 109 138
821 4 2 3 1 106 32 31 78
822 4 2 3 1 110 78 250 167
823 4 2 3 1 75 29 109 138
824 4 2 3 1 86 13 258 165
825 4 2 3 1 17 18 145 93
826 4 2 3 1 75 109 29 105
827 4 2 3 1 32 78 110 167
828 4 2 3 1 143 41 257 137
829 4 2 3 1 172 165 258 67
830 4 2 3 1 136 44 196 43
831 4 2 3 1 146 19 109 91
832 4 2 3 1 78 106 32 110
833 4 2 3 1 138 19 109 146
834 4 2 3 1 31 77 106 78
835 4 2 3 1 29 30 75 105
836 4 2 3 1 142 45 179 44
837 4 2 3 1 18 19 146 91
838 4 2 3 1 99 26 27 174
839 4 2 3 1 153 60 59 235
840 4 2 3 1 176 28 110 167
841 4 2 3 1 109 2 19 138
842 4 2 3 1 257 206 8 143
843 4 2 3 1 110 28 4 167
844 4 2 3 1 92 28 110 176
845 4 2 3 1 105 30 75 76
846 4 2 3 1 139 122 208 48
847 4 2 3 1 234 170 65 66
848 4 2 3 1 150 26 25 90
849 4 2 3 1 55 122 9 208
850 4 2 3 1 78 32 12 167
851 4 2 3 1 124 42 43 183
852 4 2 3 1 258 14 209 172
853 4 2 3 1 92 27 28 176
854 4 2 3 1 248 6 75 138
855 4 2 3 1 41 257 8 143
856 4 2 3 1 172 258 14 67
857 4 2 3 1 12 250 78 167
858 4 2 3 1 206 8 79 257
859 4 2 3 1 11 152 207 74
860 4 2 3 1 40 140 39 223
861 4 2 3 1 206 42 8 143
862 4 2 3 1 219 63 173 62
863 4 2 3 1 209 82 14 258
864 4 2 3 1 181 141 47 46
865 4 2 3 1 14 209 172 68
866 4 2 3 1 30 51 76 52
867 4 2 3 1 10 32 12 53
868 4 2 3 1 12 59 250 167
869 4 2 3 1 66 165 13 251
870 4 2 3 1 248 33 6 138
871 4 2 3 1 40 7 137 249
872 4 2 3 1 4 32 12 10
873 4 2 3 1 208 122 9 48
874 4 2 3 1 75 30 29 50
875 4 2 3 1 50 75 30 51
876 4 2 3 1 5 75 29 50
877 4 2 3 1 78 32 31 53
878 4 2 3 1 31 52 78 53
879 4 2 3 1 24 3 152 112
880 4 2 3 1 51 75 30 76
881 4 2 3 1 52 77 31 78
882 4 2 3 1 122 1 15 111
883 4 2 3 1 78 12 32 53
884 4 2 3 1 281 184 274 262
885 4 2 3 1 281 274 184 185
886 4 2 3 1 265 229 232 260
887 4 2 3 1 265 232 229 246
888 4 2 3 1 260 289 232 265
889 4 2 3 1 232 289 260 278
890 4 2 3 1 200 111 55 208
891 4 2 3 1 55 111 200 102
892 4 2 3 1 273 279 114 261
893 4 2 3 1 114 279 273 99
894 4 2 3 1 114 108 273 261
895 4 2 3 1 273 108 114 99
896 4 2 3 1 290 263 285 271
897 4 2 3 1 290 285 263 261
898 4 2 3 1 271 94 97 263
899 4 2 3 1 271 97 94 101
900 4 2 3 1 194 265 182 192
901 4 2 3 1 182 265 194 272
902 4 2 3 1 214 287 193 190
903 4 2 3 1 193 287 214 267
904 4 2 3 1 202 58 112 207
905 4 2 3 1 152 112 58 207
906 4 2 3 1 255 205 276 256
907 4 2 3 1 276 205 255 177
908 4 2 3 1 274 278 281 259
909 4 2 3 1 281 278 274 266
910 4 2 3 1 104 273 100 115
911 4 2 3 1 100 273 104 262
912 4 2 3 1 285 236 220 261
913 4 2 3 1 285 220 236 247
914 4 2 3 1 197 148 71 180
915 4 2 3 1 197 71 148 166
916 4 2 3 1 278 226 231 241
917 4 2 3 1 278 231 226 268
918 4 2 3 1 273 156 155 171
919 4 2 3 1 273 155 156 262
920 4 2 3 1 278 289 168 160
921 4 2 3 1 278 168 289 266
922 4 2 3 1 158 168 289 160
923 4 2 3 1 158 289 168 266
924 4 2 3 1 105 290 271 116
925 4 2 3 1 271 290 105 244
926 4 2 3 1 220 147 61 240
927 4 2 3 1 220 61 147 161
928 4 2 3 1 244 87 76 215
929 4 2 3 1 76 87 244 105
930 4 2 3 1 179 136 44 196
931 4 2 3 1 44 136 179 142
932 4 2 3 1 276 237 245 272
933 4 2 3 1 276 245 237 253
934 4 2 3 1 87 242 77 215
935 4 2 3 1 77 242 87 106
936 4 2 3 1 88 56 102 21
937 4 2 3 1 88 102 56 288
938 4 2 3 1 57 202 88 288
939 4 2 3 1 103 88 202 288
940 4 2 3 1 278 227 219 270
941 4 2 3 1 278 219 227 241
942 4 2 3 1 249 257 7 137
943 4 2 3 1 249 7 257 83
944 4 2 3 1 1 9 111 122
945 4 2 3 1 55 111 9 122
946 4 2 3 1 31 52 76 77
947 4 2 3 1 76 52 31 30
948 4 2 3 1 76 87 31 77
949 4 2 3 1 31 87 76 30
950 4 2 3 1 54 23 11 3
951 4 2 3 1 54 11 23 58
952 4 2 3 1 138 2 75 29
953 4 2 3 1 138 75 2 6
954 4 2 3 1 5 75 2 29
955 4 2 3 1 5 2 75 6
956 4 2 3 1 22 103 58 23
957 4 2 3 1 112 103 58 202
958 4 2 3 1 112 58 103 23
959 4 2 3 1 3 112 11 152
960 4 2 3 1 3 11 112 23
961 4 2 3 1 58 11 112 152
962 4 2 3 1 58 112 11 23
963 4 2 3 1 57 58 103 202
964 4 2 3 1 103 58 57 22
965 4 2 3 1 103 88 57 202
966 4 2 3 1 57 88 103 22
967 4 2 3 1 9 111 20 1
968 4 2 3 1 20 111 9 55
969 4 2 3 1 20 49 9 1
970 4 2 3 1 9 49 20 55
$EndElements
