ISO-10303-21;
HEADER;
FILE_DESCRIPTION(('Open CASCADE Model'),'2;1');
FILE_NAME('Open CASCADE Shape Model','2026-04-16T17:15:23',('Author'),(
    'Open CASCADE'),'Open CASCADE STEP processor 7.8','Open CASCADE 7.8'
  ,'Unknown');
FILE_SCHEMA(('AUTOMOTIVE_DESIGN { 1 0 10303 214 1 1 1 1 }'));
ENDSEC;
DATA;
#1 = APPLICATION_PROTOCOL_DEFINITION('international standard',
  'automotive_design',2000,#2);
#2 = APPLICATION_CONTEXT(
  'core data for automotive mechanical design processes');
#3 = SHAPE_DEFINITION_REPRESENTATION(#4,#10);
#4 = PRODUCT_DEFINITION_SHAPE('','',#5);
#5 = PRODUCT_DEFINITION('design','',#6,#9);
#6 = PRODUCT_DEFINITION_FORMATION('','',#7);
#7 = PRODUCT('Open CASCADE STEP translator 7.8 1',
  'Open CASCADE STEP translator 7.8 1','',(#8));
#8 = PRODUCT_CONTEXT('',#2,'mechanical');
#9 = PRODUCT_DEFINITION_CONTEXT('part definition',#2,'design');
#10 = ADVANCED_BREP_SHAPE_REPRESENTATION('',(#11,#15),#685);
#11 = AXIS2_PLACEMENT_3D('',#12,#13,#14);
#12 = CARTESIAN_POINT('',(0.,0.,0.));
#13 = DIRECTION('',(0.,0.,1.));
#14 = DIRECTION('',(1.,0.,-0.));
#15 = MANIFOLD_SOLID_BREP('',#16);
#16 = CLOSED_SHELL('',(#17,#299,#347,#396,#540,#595,#644,#671,#678));
#17 = ADVANCED_FACE('',(#18),#35,.T.);
#18 = FACE_BOUND('',#19,.T.);
#19 = EDGE_LOOP('',(#20,#66,#94,#128,#162,#202,#244,#273));
#20 = ORIENTED_EDGE('',*,*,#21,.F.);
#21 = EDGE_CURVE('',#22,#24,#26,.T.);
#22 = VERTEX_POINT('',#23);
#23 = CARTESIAN_POINT('',(1.00000008274E-07,27.499999875,2.830567815481)
  );
#24 = VERTEX_POINT('',#25);
#25 = CARTESIAN_POINT('',(68.7499997875,27.499999875,2.830567815481));
#26 = SURFACE_CURVE('',#27,(#34,#51),.PCURVE_S1.);
#27 = B_SPLINE_CURVE_WITH_KNOTS('',3,(#28,#29,#30,#31,#32,#33),
  .UNSPECIFIED.,.F.,.F.,(4,1,1,4),(0.,20.223748416157,40.223748416157,
    55.520806956935),.UNSPECIFIED.);
#28 = CARTESIAN_POINT('',(1.00000008274E-07,27.499999875,2.830567815481)
  );
#29 = CARTESIAN_POINT('',(8.184575119535,27.499999875,4.478380095519));
#30 = CARTESIAN_POINT('',(24.860929377993,27.499999875,7.195214858514));
#31 = CARTESIAN_POINT('',(48.132135664176,27.499999875,7.50659460423));
#32 = CARTESIAN_POINT('',(62.604792639327,27.499999875,4.738098933931));
#33 = CARTESIAN_POINT('',(68.7499997875,27.499999875,2.830567815481));
#34 = PCURVE('',#35,#45);
#35 = SURFACE_OF_LINEAR_EXTRUSION('',#36,#43);
#36 = B_SPLINE_CURVE_WITH_KNOTS('',3,(#37,#38,#39,#40,#41,#42),
  .UNSPECIFIED.,.F.,.F.,(4,1,1,4),(0.,20.223748416157,40.223748416157,
    55.520806956935),.UNSPECIFIED.);
#37 = CARTESIAN_POINT('',(1.00000008274E-07,27.499999875,2.830567815481)
  );
#38 = CARTESIAN_POINT('',(8.184575119535,27.499999875,4.478380095519));
#39 = CARTESIAN_POINT('',(24.860929377993,27.499999875,7.195214858514));
#40 = CARTESIAN_POINT('',(48.132135664176,27.499999875,7.50659460423));
#41 = CARTESIAN_POINT('',(62.604792639327,27.499999875,4.738098933931));
#42 = CARTESIAN_POINT('',(68.7499997875,27.499999875,2.830567815481));
#43 = VECTOR('',#44,1.);
#44 = DIRECTION('',(-0.,1.,-0.));
#45 = DEFINITIONAL_REPRESENTATION('',(#46),#50);
#46 = LINE('',#47,#48);
#47 = CARTESIAN_POINT('',(0.,0.));
#48 = VECTOR('',#49,1.);
#49 = DIRECTION('',(1.,0.));
#50 = ( GEOMETRIC_REPRESENTATION_CONTEXT(2) 
PARAMETRIC_REPRESENTATION_CONTEXT() REPRESENTATION_CONTEXT('2D SPACE',''
  ) );
#51 = PCURVE('',#52,#57);
#52 = PLANE('',#53);
#53 = AXIS2_PLACEMENT_3D('',#54,#55,#56);
#54 = CARTESIAN_POINT('',(38.725331119834,27.499999875,1.296044656504));
#55 = DIRECTION('',(0.,1.,0.));
#56 = DIRECTION('',(0.,-0.,1.));
#57 = DEFINITIONAL_REPRESENTATION('',(#58),#65);
#58 = B_SPLINE_CURVE_WITH_KNOTS('',3,(#59,#60,#61,#62,#63,#64),
  .UNSPECIFIED.,.F.,.F.,(4,1,1,4),(0.,20.223748416157,40.223748416157,
    55.520806956935),.UNSPECIFIED.);
#59 = CARTESIAN_POINT('',(1.534523158977,-38.72533101983));
#60 = CARTESIAN_POINT('',(3.182335439015,-30.54075600029));
#61 = CARTESIAN_POINT('',(5.89917020201,-13.86440174184));
#62 = CARTESIAN_POINT('',(6.210549947726,9.406804544342));
#63 = CARTESIAN_POINT('',(3.442054277428,23.879461519494));
#64 = CARTESIAN_POINT('',(1.534523158977,30.024668667666));
#65 = ( GEOMETRIC_REPRESENTATION_CONTEXT(2) 
PARAMETRIC_REPRESENTATION_CONTEXT() REPRESENTATION_CONTEXT('2D SPACE',''
  ) );
#66 = ORIENTED_EDGE('',*,*,#67,.T.);
#67 = EDGE_CURVE('',#22,#68,#70,.T.);
#68 = VERTEX_POINT('',#69);
#69 = CARTESIAN_POINT('',(1.00000008274E-07,-27.499999875,2.830567815481
    ));
#70 = SURFACE_CURVE('',#71,(#75,#82),.PCURVE_S1.);
#71 = LINE('',#72,#73);
#72 = CARTESIAN_POINT('',(1.00000008274E-07,27.499999875,2.830567815481)
  );
#73 = VECTOR('',#74,1.);
#74 = DIRECTION('',(0.,-1.,0.));
#75 = PCURVE('',#35,#76);
#76 = DEFINITIONAL_REPRESENTATION('',(#77),#81);
#77 = LINE('',#78,#79);
#78 = CARTESIAN_POINT('',(0.,0.));
#79 = VECTOR('',#80,1.);
#80 = DIRECTION('',(0.,-1.));
#81 = ( GEOMETRIC_REPRESENTATION_CONTEXT(2) 
PARAMETRIC_REPRESENTATION_CONTEXT() REPRESENTATION_CONTEXT('2D SPACE',''
  ) );
#82 = PCURVE('',#83,#88);
#83 = PLANE('',#84);
#84 = AXIS2_PLACEMENT_3D('',#85,#86,#87);
#85 = CARTESIAN_POINT('',(74.999999759091,27.499999875,-7.169432139065)
  );
#86 = DIRECTION('',(-0.132163720091,-0.,-0.991227900683));
#87 = DIRECTION('',(-0.991227900683,0.,0.132163720091));
#88 = DEFINITIONAL_REPRESENTATION('',(#89),#93);
#89 = LINE('',#90,#91);
#90 = CARTESIAN_POINT('',(75.663729408182,0.));
#91 = VECTOR('',#92,1.);
#92 = DIRECTION('',(0.,-1.));
#93 = ( GEOMETRIC_REPRESENTATION_CONTEXT(2) 
PARAMETRIC_REPRESENTATION_CONTEXT() REPRESENTATION_CONTEXT('2D SPACE',''
  ) );
#94 = ORIENTED_EDGE('',*,*,#95,.T.);
#95 = EDGE_CURVE('',#68,#96,#98,.T.);
#96 = VERTEX_POINT('',#97);
#97 = CARTESIAN_POINT('',(2.414974592173,-27.499999875,3.307174473335));
#98 = SURFACE_CURVE('',#99,(#106,#113),.PCURVE_S1.);
#99 = B_SPLINE_CURVE_WITH_KNOTS('',3,(#100,#101,#102,#103,#104,#105),
  .UNSPECIFIED.,.F.,.F.,(4,1,1,4),(0.,20.223748416157,40.223748416157,
    55.520806956935),.UNSPECIFIED.);
#100 = CARTESIAN_POINT('',(1.00000008274E-07,-27.499999875,
    2.830567815481));
#101 = CARTESIAN_POINT('',(8.184575119535,-27.499999875,4.478380095519)
  );
#102 = CARTESIAN_POINT('',(24.860929377993,-27.499999875,7.195214858514)
  );
#103 = CARTESIAN_POINT('',(48.132135664176,-27.499999875,7.50659460423)
  );
#104 = CARTESIAN_POINT('',(62.604792639327,-27.499999875,4.738098933931)
  );
#105 = CARTESIAN_POINT('',(68.7499997875,-27.499999875,2.830567815481));
#106 = PCURVE('',#35,#107);
#107 = DEFINITIONAL_REPRESENTATION('',(#108),#112);
#108 = LINE('',#109,#110);
#109 = CARTESIAN_POINT('',(0.,-54.99999975));
#110 = VECTOR('',#111,1.);
#111 = DIRECTION('',(1.,0.));
#112 = ( GEOMETRIC_REPRESENTATION_CONTEXT(2) 
PARAMETRIC_REPRESENTATION_CONTEXT() REPRESENTATION_CONTEXT('2D SPACE',''
  ) );
#113 = PCURVE('',#114,#119);
#114 = PLANE('',#115);
#115 = AXIS2_PLACEMENT_3D('',#116,#117,#118);
#116 = CARTESIAN_POINT('',(38.725331119834,-27.499999875,1.296044656504)
  );
#117 = DIRECTION('',(0.,1.,0.));
#118 = DIRECTION('',(0.,-0.,1.));
#119 = DEFINITIONAL_REPRESENTATION('',(#120),#127);
#120 = B_SPLINE_CURVE_WITH_KNOTS('',3,(#121,#122,#123,#124,#125,#126),
  .UNSPECIFIED.,.F.,.F.,(4,1,1,4),(0.,20.223748416157,40.223748416157,
    55.520806956935),.UNSPECIFIED.);
#121 = CARTESIAN_POINT('',(1.534523158977,-38.72533101983));
#122 = CARTESIAN_POINT('',(3.182335439015,-30.54075600029));
#123 = CARTESIAN_POINT('',(5.89917020201,-13.86440174184));
#124 = CARTESIAN_POINT('',(6.210549947726,9.406804544342));
#125 = CARTESIAN_POINT('',(3.442054277428,23.879461519494));
#126 = CARTESIAN_POINT('',(1.534523158977,30.024668667666));
#127 = ( GEOMETRIC_REPRESENTATION_CONTEXT(2) 
PARAMETRIC_REPRESENTATION_CONTEXT() REPRESENTATION_CONTEXT('2D SPACE',''
  ) );
#128 = ORIENTED_EDGE('',*,*,#129,.T.);
#129 = EDGE_CURVE('',#96,#130,#132,.T.);
#130 = VERTEX_POINT('',#131);
#131 = CARTESIAN_POINT('',(2.414974592173,-1.249999994318,3.307174473335
    ));
#132 = SURFACE_CURVE('',#133,(#139,#148),.PCURVE_S1.);
#133 = B_SPLINE_CURVE_WITH_KNOTS('',4,(#134,#135,#136,#137,#138),
  .UNSPECIFIED.,.F.,.F.,(5,5),(0.,1.),.PIECEWISE_BEZIER_KNOTS.);
#134 = CARTESIAN_POINT('',(2.414974592173,-27.500000625,3.307174473335)
  );
#135 = CARTESIAN_POINT('',(2.414974592173,-20.93750046733,3.307174473335
    ));
#136 = CARTESIAN_POINT('',(2.414974592173,-14.37500030965,3.307174473335
    ));
#137 = CARTESIAN_POINT('',(2.414974592173,-7.812500151989,3.307174473335
    ));
#138 = CARTESIAN_POINT('',(2.414974592173,-1.249999994318,3.307174473335
    ));
#139 = PCURVE('',#35,#140);
#140 = DEFINITIONAL_REPRESENTATION('',(#141),#147);
#141 = B_SPLINE_CURVE_WITH_KNOTS('',4,(#142,#143,#144,#145,#146),
  .UNSPECIFIED.,.F.,.F.,(5,5),(0.,1.),.PIECEWISE_BEZIER_KNOTS.);
#142 = CARTESIAN_POINT('',(1.984462501302,-55.0000005));
#143 = CARTESIAN_POINT('',(1.984462501302,-48.43750034233));
#144 = CARTESIAN_POINT('',(1.984462501302,-41.87500018465));
#145 = CARTESIAN_POINT('',(1.984462501302,-35.31250002698));
#146 = CARTESIAN_POINT('',(1.984462501302,-28.74999986931));
#147 = ( GEOMETRIC_REPRESENTATION_CONTEXT(2) 
PARAMETRIC_REPRESENTATION_CONTEXT() REPRESENTATION_CONTEXT('2D SPACE',''
  ) );
#148 = PCURVE('',#149,#154);
#149 = PLANE('',#150);
#150 = AXIS2_PLACEMENT_3D('',#151,#152,#153);
#151 = CARTESIAN_POINT('',(66.249999798864,-1.249999994318,
    -3.919432153837));
#152 = DIRECTION('',(-0.112489015281,-0.,-0.993652968315));
#153 = DIRECTION('',(-0.993652968315,0.,0.112489015281));
#154 = DEFINITIONAL_REPRESENTATION('',(#155),#161);
#155 = B_SPLINE_CURVE_WITH_KNOTS('',4,(#156,#157,#158,#159,#160),
  .UNSPECIFIED.,.F.,.F.,(5,5),(0.,1.),.PIECEWISE_BEZIER_KNOTS.);
#156 = CARTESIAN_POINT('',(64.242776142402,-26.25000063068));
#157 = CARTESIAN_POINT('',(64.242776142402,-19.68750047301));
#158 = CARTESIAN_POINT('',(64.242776142402,-13.12500031534));
#159 = CARTESIAN_POINT('',(64.242776142402,-6.562500157671));
#160 = CARTESIAN_POINT('',(64.242776142402,0.));
#161 = ( GEOMETRIC_REPRESENTATION_CONTEXT(2) 
PARAMETRIC_REPRESENTATION_CONTEXT() REPRESENTATION_CONTEXT('2D SPACE',''
  ) );
#162 = ORIENTED_EDGE('',*,*,#163,.F.);
#163 = EDGE_CURVE('',#164,#130,#166,.T.);
#164 = VERTEX_POINT('',#165);
#165 = CARTESIAN_POINT('',(21.429679824629,-1.249999994318,
    6.231781605015));
#166 = SURFACE_CURVE('',#167,(#175,#186),.PCURVE_S1.);
#167 = B_SPLINE_CURVE_WITH_KNOTS('',6,(#168,#169,#170,#171,#172,#173,
    #174),.UNSPECIFIED.,.F.,.F.,(7,7),(0.,1.),.PIECEWISE_BEZIER_KNOTS.);
#168 = CARTESIAN_POINT('',(24.015765076643,-1.249999994318,
    6.491759954341));
#169 = CARTESIAN_POINT('',(19.974341371773,-1.249999994318,
    6.115429368029));
#170 = CARTESIAN_POINT('',(15.943102187723,-1.249999994318,
    5.625769412141));
#171 = CARTESIAN_POINT('',(11.926512284102,-1.249999994318,
    5.037973848287));
#172 = CARTESIAN_POINT('',(7.928385755632,-1.249999994318,4.366723256057
    ));
#173 = CARTESIAN_POINT('',(3.951949699096,-1.249999994318,3.626219521762
    ));
#174 = CARTESIAN_POINT('',(1.00000008274E-07,-1.249999994318,
    2.830567815481));
#175 = PCURVE('',#35,#176);
#176 = DEFINITIONAL_REPRESENTATION('',(#177),#185);
#177 = B_SPLINE_CURVE_WITH_KNOTS('',6,(#178,#179,#180,#181,#182,#183,
    #184),.UNSPECIFIED.,.F.,.F.,(7,7),(0.,1.),.PIECEWISE_BEZIER_KNOTS.);
#178 = CARTESIAN_POINT('',(19.436586925432,-28.74999986931));
#179 = CARTESIAN_POINT('',(16.203626907467,-28.74999986931));
#180 = CARTESIAN_POINT('',(12.971117663537,-28.74999986931));
#181 = CARTESIAN_POINT('',(9.737211673188,-28.74999986931));
#182 = CARTESIAN_POINT('',(6.499515731893,-28.74999986931));
#183 = CARTESIAN_POINT('',(3.255034999972,-28.74999986931));
#184 = CARTESIAN_POINT('',(0.,-28.74999986931));
#185 = ( GEOMETRIC_REPRESENTATION_CONTEXT(2) 
PARAMETRIC_REPRESENTATION_CONTEXT() REPRESENTATION_CONTEXT('2D SPACE',''
  ) );
#186 = PCURVE('',#187,#192);
#187 = PLANE('',#188);
#188 = AXIS2_PLACEMENT_3D('',#189,#190,#191);
#189 = CARTESIAN_POINT('',(33.629207660092,-1.249999994318,
    2.165142620922));
#190 = DIRECTION('',(0.,1.,0.));
#191 = DIRECTION('',(0.,-0.,1.));
#192 = DEFINITIONAL_REPRESENTATION('',(#193),#201);
#193 = B_SPLINE_CURVE_WITH_KNOTS('',6,(#194,#195,#196,#197,#198,#199,
    #200),.UNSPECIFIED.,.F.,.F.,(7,7),(0.,1.),.PIECEWISE_BEZIER_KNOTS.);
#194 = CARTESIAN_POINT('',(4.326617333419,-9.613442583449));
#195 = CARTESIAN_POINT('',(3.950286747108,-13.65486628831));
#196 = CARTESIAN_POINT('',(3.460626791219,-17.68610547236));
#197 = CARTESIAN_POINT('',(2.872831227365,-21.70269537599));
#198 = CARTESIAN_POINT('',(2.201580635135,-25.70082190445));
#199 = CARTESIAN_POINT('',(1.461076900841,-29.67725796099));
#200 = CARTESIAN_POINT('',(0.665425194559,-33.62920756009));
#201 = ( GEOMETRIC_REPRESENTATION_CONTEXT(2) 
PARAMETRIC_REPRESENTATION_CONTEXT() REPRESENTATION_CONTEXT('2D SPACE',''
  ) );
#202 = ORIENTED_EDGE('',*,*,#203,.T.);
#203 = EDGE_CURVE('',#164,#204,#206,.T.);
#204 = VERTEX_POINT('',#205);
#205 = CARTESIAN_POINT('',(21.42967982463,-27.499999875,6.231781605015)
  );
#206 = SURFACE_CURVE('',#207,(#214,#224),.PCURVE_S1.);
#207 = B_SPLINE_CURVE_WITH_KNOTS('',5,(#208,#209,#210,#211,#212,#213),
  .UNSPECIFIED.,.F.,.F.,(6,6),(0.,1.),.PIECEWISE_BEZIER_KNOTS.);
#208 = CARTESIAN_POINT('',(21.42967982463,-1.249999244318,6.231781605015
    ));
#209 = CARTESIAN_POINT('',(21.42967982463,-5.977225814555,6.231781605015
    ));
#210 = CARTESIAN_POINT('',(21.429679824629,-11.62873730358,
    6.231781605015));
#211 = CARTESIAN_POINT('',(21.429679824629,-17.12318122757,
    6.231781605015));
#212 = CARTESIAN_POINT('',(21.42967982463,-22.21914540121,6.231781605015
    ));
#213 = CARTESIAN_POINT('',(21.42967982463,-27.500000625,6.231781605015)
  );
#214 = PCURVE('',#35,#215);
#215 = DEFINITIONAL_REPRESENTATION('',(#216),#223);
#216 = B_SPLINE_CURVE_WITH_KNOTS('',5,(#217,#218,#219,#220,#221,#222),
  .UNSPECIFIED.,.F.,.F.,(6,6),(0.,1.),.PIECEWISE_BEZIER_KNOTS.);
#217 = CARTESIAN_POINT('',(17.366386463756,-28.74999911931));
#218 = CARTESIAN_POINT('',(17.366386463756,-33.47722568955));
#219 = CARTESIAN_POINT('',(17.366386463756,-39.12873717858));
#220 = CARTESIAN_POINT('',(17.366386463756,-44.62318110257));
#221 = CARTESIAN_POINT('',(17.366386463756,-49.71914527621));
#222 = CARTESIAN_POINT('',(17.366386463756,-55.0000005));
#223 = ( GEOMETRIC_REPRESENTATION_CONTEXT(2) 
PARAMETRIC_REPRESENTATION_CONTEXT() REPRESENTATION_CONTEXT('2D SPACE',''
  ) );
#224 = PCURVE('',#225,#235);
#225 = SURFACE_OF_LINEAR_EXTRUSION('',#226,#233);
#226 = B_SPLINE_CURVE_WITH_KNOTS('',3,(#227,#228,#229,#230,#231,#232),
  .UNSPECIFIED.,.F.,.F.,(4,1,1,4),(0.,15.132745950422,30.132745950422,
    45.265491900843),.UNSPECIFIED.);
#227 = CARTESIAN_POINT('',(1.00000008274E-07,-1.249999994318,
    3.580567812072));
#228 = CARTESIAN_POINT('',(6.185240821455,-1.249999994318,4.832403377981
    ));
#229 = CARTESIAN_POINT('',(18.667397155729,-1.249999994318,
    6.491759954341));
#230 = CARTESIAN_POINT('',(37.58260278859,-1.249999994318,6.491759954341
    ));
#231 = CARTESIAN_POINT('',(50.064759122863,-1.249999994318,
    4.832403377981));
#232 = CARTESIAN_POINT('',(56.249999844318,-1.249999994318,
    3.580567812072));
#233 = VECTOR('',#234,1.);
#234 = DIRECTION('',(-0.,1.,-0.));
#235 = DEFINITIONAL_REPRESENTATION('',(#236),#243);
#236 = B_SPLINE_CURVE_WITH_KNOTS('',5,(#237,#238,#239,#240,#241,#242),
  .UNSPECIFIED.,.F.,.F.,(6,6),(0.,1.),.PIECEWISE_BEZIER_KNOTS.);
#237 = CARTESIAN_POINT('',(17.278389323193,7.499999964737E-07));
#238 = CARTESIAN_POINT('',(17.278389323193,-4.727225820237));
#239 = CARTESIAN_POINT('',(17.278389323192,-10.37873730869));
#240 = CARTESIAN_POINT('',(17.278389323193,-15.87318123427));
#241 = CARTESIAN_POINT('',(17.278389323193,-20.96914540649));
#242 = CARTESIAN_POINT('',(17.278389323193,-26.25000063028));
#243 = ( GEOMETRIC_REPRESENTATION_CONTEXT(2) 
PARAMETRIC_REPRESENTATION_CONTEXT() REPRESENTATION_CONTEXT('2D SPACE',''
  ) );
#244 = ORIENTED_EDGE('',*,*,#245,.T.);
#245 = EDGE_CURVE('',#204,#246,#248,.T.);
#246 = VERTEX_POINT('',#247);
#247 = CARTESIAN_POINT('',(68.7499997875,-27.499999875,2.830567815481));
#248 = SURFACE_CURVE('',#249,(#256,#263),.PCURVE_S1.);
#249 = B_SPLINE_CURVE_WITH_KNOTS('',3,(#250,#251,#252,#253,#254,#255),
  .UNSPECIFIED.,.F.,.F.,(4,1,1,4),(0.,20.223748416157,40.223748416157,
    55.520806956935),.UNSPECIFIED.);
#250 = CARTESIAN_POINT('',(1.00000008274E-07,-27.499999875,
    2.830567815481));
#251 = CARTESIAN_POINT('',(8.184575119535,-27.499999875,4.478380095519)
  );
#252 = CARTESIAN_POINT('',(24.860929377993,-27.499999875,7.195214858514)
  );
#253 = CARTESIAN_POINT('',(48.132135664176,-27.499999875,7.50659460423)
  );
#254 = CARTESIAN_POINT('',(62.604792639327,-27.499999875,4.738098933931)
  );
#255 = CARTESIAN_POINT('',(68.7499997875,-27.499999875,2.830567815481));
#256 = PCURVE('',#35,#257);
#257 = DEFINITIONAL_REPRESENTATION('',(#258),#262);
#258 = LINE('',#259,#260);
#259 = CARTESIAN_POINT('',(0.,-54.99999975));
#260 = VECTOR('',#261,1.);
#261 = DIRECTION('',(1.,0.));
#262 = ( GEOMETRIC_REPRESENTATION_CONTEXT(2) 
PARAMETRIC_REPRESENTATION_CONTEXT() REPRESENTATION_CONTEXT('2D SPACE',''
  ) );
#263 = PCURVE('',#114,#264);
#264 = DEFINITIONAL_REPRESENTATION('',(#265),#272);
#265 = B_SPLINE_CURVE_WITH_KNOTS('',3,(#266,#267,#268,#269,#270,#271),
  .UNSPECIFIED.,.F.,.F.,(4,1,1,4),(0.,20.223748416157,40.223748416157,
    55.520806956935),.UNSPECIFIED.);
#266 = CARTESIAN_POINT('',(1.534523158977,-38.72533101983));
#267 = CARTESIAN_POINT('',(3.182335439015,-30.54075600029));
#268 = CARTESIAN_POINT('',(5.89917020201,-13.86440174184));
#269 = CARTESIAN_POINT('',(6.210549947726,9.406804544342));
#270 = CARTESIAN_POINT('',(3.442054277428,23.879461519494));
#271 = CARTESIAN_POINT('',(1.534523158977,30.024668667666));
#272 = ( GEOMETRIC_REPRESENTATION_CONTEXT(2) 
PARAMETRIC_REPRESENTATION_CONTEXT() REPRESENTATION_CONTEXT('2D SPACE',''
  ) );
#273 = ORIENTED_EDGE('',*,*,#274,.F.);
#274 = EDGE_CURVE('',#24,#246,#275,.T.);
#275 = SURFACE_CURVE('',#276,(#280,#287),.PCURVE_S1.);
#276 = LINE('',#277,#278);
#277 = CARTESIAN_POINT('',(68.7499997875,27.499999875,2.830567815481));
#278 = VECTOR('',#279,1.);
#279 = DIRECTION('',(0.,-1.,0.));
#280 = PCURVE('',#35,#281);
#281 = DEFINITIONAL_REPRESENTATION('',(#282),#286);
#282 = LINE('',#283,#284);
#283 = CARTESIAN_POINT('',(55.520806956935,0.));
#284 = VECTOR('',#285,1.);
#285 = DIRECTION('',(0.,-1.));
#286 = ( GEOMETRIC_REPRESENTATION_CONTEXT(2) 
PARAMETRIC_REPRESENTATION_CONTEXT() REPRESENTATION_CONTEXT('2D SPACE',''
  ) );
#287 = PCURVE('',#288,#293);
#288 = PLANE('',#289);
#289 = AXIS2_PLACEMENT_3D('',#290,#291,#292);
#290 = CARTESIAN_POINT('',(68.7499997875,27.499999875,2.830567815481));
#291 = DIRECTION('',(0.847998304005,0.,0.529998940003));
#292 = DIRECTION('',(0.529998940003,0.,-0.847998304005));
#293 = DEFINITIONAL_REPRESENTATION('',(#294),#298);
#294 = LINE('',#295,#296);
#295 = CARTESIAN_POINT('',(0.,0.));
#296 = VECTOR('',#297,1.);
#297 = DIRECTION('',(0.,-1.));
#298 = ( GEOMETRIC_REPRESENTATION_CONTEXT(2) 
PARAMETRIC_REPRESENTATION_CONTEXT() REPRESENTATION_CONTEXT('2D SPACE',''
  ) );
#299 = ADVANCED_FACE('',(#300),#52,.T.);
#300 = FACE_BOUND('',#301,.T.);
#301 = EDGE_LOOP('',(#302,#303,#326));
#302 = ORIENTED_EDGE('',*,*,#21,.T.);
#303 = ORIENTED_EDGE('',*,*,#304,.T.);
#304 = EDGE_CURVE('',#24,#305,#307,.T.);
#305 = VERTEX_POINT('',#306);
#306 = CARTESIAN_POINT('',(74.999999759091,27.499999875,-7.169432139065)
  );
#307 = SURFACE_CURVE('',#308,(#312,#319),.PCURVE_S1.);
#308 = LINE('',#309,#310);
#309 = CARTESIAN_POINT('',(68.7499997875,27.499999875,2.830567815481));
#310 = VECTOR('',#311,1.);
#311 = DIRECTION('',(0.529998940003,0.,-0.847998304005));
#312 = PCURVE('',#52,#313);
#313 = DEFINITIONAL_REPRESENTATION('',(#314),#318);
#314 = LINE('',#315,#316);
#315 = CARTESIAN_POINT('',(1.534523158977,30.024668667666));
#316 = VECTOR('',#317,1.);
#317 = DIRECTION('',(-0.847998304005,0.529998940003));
#318 = ( GEOMETRIC_REPRESENTATION_CONTEXT(2) 
PARAMETRIC_REPRESENTATION_CONTEXT() REPRESENTATION_CONTEXT('2D SPACE',''
  ) );
#319 = PCURVE('',#288,#320);
#320 = DEFINITIONAL_REPRESENTATION('',(#321),#325);
#321 = LINE('',#322,#323);
#322 = CARTESIAN_POINT('',(0.,0.));
#323 = VECTOR('',#324,1.);
#324 = DIRECTION('',(1.,0.));
#325 = ( GEOMETRIC_REPRESENTATION_CONTEXT(2) 
PARAMETRIC_REPRESENTATION_CONTEXT() REPRESENTATION_CONTEXT('2D SPACE',''
  ) );
#326 = ORIENTED_EDGE('',*,*,#327,.T.);
#327 = EDGE_CURVE('',#305,#22,#328,.T.);
#328 = SURFACE_CURVE('',#329,(#333,#340),.PCURVE_S1.);
#329 = LINE('',#330,#331);
#330 = CARTESIAN_POINT('',(74.999999759091,27.499999875,-7.169432139065)
  );
#331 = VECTOR('',#332,1.);
#332 = DIRECTION('',(-0.991227900683,0.,0.132163720091));
#333 = PCURVE('',#52,#334);
#334 = DEFINITIONAL_REPRESENTATION('',(#335),#339);
#335 = LINE('',#336,#337);
#336 = CARTESIAN_POINT('',(-8.465476795569,36.274668639257));
#337 = VECTOR('',#338,1.);
#338 = DIRECTION('',(0.132163720091,-0.991227900683));
#339 = ( GEOMETRIC_REPRESENTATION_CONTEXT(2) 
PARAMETRIC_REPRESENTATION_CONTEXT() REPRESENTATION_CONTEXT('2D SPACE',''
  ) );
#340 = PCURVE('',#83,#341);
#341 = DEFINITIONAL_REPRESENTATION('',(#342),#346);
#342 = LINE('',#343,#344);
#343 = CARTESIAN_POINT('',(0.,0.));
#344 = VECTOR('',#345,1.);
#345 = DIRECTION('',(1.,0.));
#346 = ( GEOMETRIC_REPRESENTATION_CONTEXT(2) 
PARAMETRIC_REPRESENTATION_CONTEXT() REPRESENTATION_CONTEXT('2D SPACE',''
  ) );
#347 = ADVANCED_FACE('',(#348),#288,.T.);
#348 = FACE_BOUND('',#349,.T.);
#349 = EDGE_LOOP('',(#350,#351,#374,#395));
#350 = ORIENTED_EDGE('',*,*,#274,.T.);
#351 = ORIENTED_EDGE('',*,*,#352,.T.);
#352 = EDGE_CURVE('',#246,#353,#355,.T.);
#353 = VERTEX_POINT('',#354);
#354 = CARTESIAN_POINT('',(74.999999759091,-27.499999875,-7.169432139065
    ));
#355 = SURFACE_CURVE('',#356,(#360,#367),.PCURVE_S1.);
#356 = LINE('',#357,#358);
#357 = CARTESIAN_POINT('',(68.7499997875,-27.499999875,2.830567815481));
#358 = VECTOR('',#359,1.);
#359 = DIRECTION('',(0.529998940003,0.,-0.847998304005));
#360 = PCURVE('',#288,#361);
#361 = DEFINITIONAL_REPRESENTATION('',(#362),#366);
#362 = LINE('',#363,#364);
#363 = CARTESIAN_POINT('',(0.,-54.99999975));
#364 = VECTOR('',#365,1.);
#365 = DIRECTION('',(1.,0.));
#366 = ( GEOMETRIC_REPRESENTATION_CONTEXT(2) 
PARAMETRIC_REPRESENTATION_CONTEXT() REPRESENTATION_CONTEXT('2D SPACE',''
  ) );
#367 = PCURVE('',#114,#368);
#368 = DEFINITIONAL_REPRESENTATION('',(#369),#373);
#369 = LINE('',#370,#371);
#370 = CARTESIAN_POINT('',(1.534523158977,30.024668667666));
#371 = VECTOR('',#372,1.);
#372 = DIRECTION('',(-0.847998304005,0.529998940003));
#373 = ( GEOMETRIC_REPRESENTATION_CONTEXT(2) 
PARAMETRIC_REPRESENTATION_CONTEXT() REPRESENTATION_CONTEXT('2D SPACE',''
  ) );
#374 = ORIENTED_EDGE('',*,*,#375,.F.);
#375 = EDGE_CURVE('',#305,#353,#376,.T.);
#376 = SURFACE_CURVE('',#377,(#381,#388),.PCURVE_S1.);
#377 = LINE('',#378,#379);
#378 = CARTESIAN_POINT('',(74.999999759091,27.499999875,-7.169432139065)
  );
#379 = VECTOR('',#380,1.);
#380 = DIRECTION('',(0.,-1.,0.));
#381 = PCURVE('',#288,#382);
#382 = DEFINITIONAL_REPRESENTATION('',(#383),#387);
#383 = LINE('',#384,#385);
#384 = CARTESIAN_POINT('',(11.792476361469,0.));
#385 = VECTOR('',#386,1.);
#386 = DIRECTION('',(0.,-1.));
#387 = ( GEOMETRIC_REPRESENTATION_CONTEXT(2) 
PARAMETRIC_REPRESENTATION_CONTEXT() REPRESENTATION_CONTEXT('2D SPACE',''
  ) );
#388 = PCURVE('',#83,#389);
#389 = DEFINITIONAL_REPRESENTATION('',(#390),#394);
#390 = LINE('',#391,#392);
#391 = CARTESIAN_POINT('',(0.,0.));
#392 = VECTOR('',#393,1.);
#393 = DIRECTION('',(0.,-1.));
#394 = ( GEOMETRIC_REPRESENTATION_CONTEXT(2) 
PARAMETRIC_REPRESENTATION_CONTEXT() REPRESENTATION_CONTEXT('2D SPACE',''
  ) );
#395 = ORIENTED_EDGE('',*,*,#304,.F.);
#396 = ADVANCED_FACE('',(#397),#114,.F.);
#397 = FACE_BOUND('',#398,.F.);
#398 = EDGE_LOOP('',(#399,#420,#421,#444,#472,#538,#539));
#399 = ORIENTED_EDGE('',*,*,#400,.T.);
#400 = EDGE_CURVE('',#353,#68,#401,.T.);
#401 = SURFACE_CURVE('',#402,(#406,#413),.PCURVE_S1.);
#402 = LINE('',#403,#404);
#403 = CARTESIAN_POINT('',(74.999999759091,-27.499999875,-7.169432139065
    ));
#404 = VECTOR('',#405,1.);
#405 = DIRECTION('',(-0.991227900683,0.,0.132163720091));
#406 = PCURVE('',#114,#407);
#407 = DEFINITIONAL_REPRESENTATION('',(#408),#412);
#408 = LINE('',#409,#410);
#409 = CARTESIAN_POINT('',(-8.465476795569,36.274668639257));
#410 = VECTOR('',#411,1.);
#411 = DIRECTION('',(0.132163720091,-0.991227900683));
#412 = ( GEOMETRIC_REPRESENTATION_CONTEXT(2) 
PARAMETRIC_REPRESENTATION_CONTEXT() REPRESENTATION_CONTEXT('2D SPACE',''
  ) );
#413 = PCURVE('',#83,#414);
#414 = DEFINITIONAL_REPRESENTATION('',(#415),#419);
#415 = LINE('',#416,#417);
#416 = CARTESIAN_POINT('',(0.,-54.99999975));
#417 = VECTOR('',#418,1.);
#418 = DIRECTION('',(1.,0.));
#419 = ( GEOMETRIC_REPRESENTATION_CONTEXT(2) 
PARAMETRIC_REPRESENTATION_CONTEXT() REPRESENTATION_CONTEXT('2D SPACE',''
  ) );
#420 = ORIENTED_EDGE('',*,*,#95,.T.);
#421 = ORIENTED_EDGE('',*,*,#422,.F.);
#422 = EDGE_CURVE('',#423,#96,#425,.T.);
#423 = VERTEX_POINT('',#424);
#424 = CARTESIAN_POINT('',(66.249999798864,-27.499999875,-3.919432153837
    ));
#425 = SURFACE_CURVE('',#426,(#430,#437),.PCURVE_S1.);
#426 = LINE('',#427,#428);
#427 = CARTESIAN_POINT('',(52.370330915721,-27.499999875,-2.348148884047
    ));
#428 = VECTOR('',#429,1.);
#429 = DIRECTION('',(-0.993652968315,0.,0.112489015281));
#430 = PCURVE('',#114,#431);
#431 = DEFINITIONAL_REPRESENTATION('',(#432),#436);
#432 = LINE('',#433,#434);
#433 = CARTESIAN_POINT('',(-3.644193540551,13.644999795887));
#434 = VECTOR('',#435,1.);
#435 = DIRECTION('',(0.112489015281,-0.993652968315));
#436 = ( GEOMETRIC_REPRESENTATION_CONTEXT(2) 
PARAMETRIC_REPRESENTATION_CONTEXT() REPRESENTATION_CONTEXT('2D SPACE',''
  ) );
#437 = PCURVE('',#149,#438);
#438 = DEFINITIONAL_REPRESENTATION('',(#439),#443);
#439 = LINE('',#440,#441);
#440 = CARTESIAN_POINT('',(13.96832629271,-26.24999988068));
#441 = VECTOR('',#442,1.);
#442 = DIRECTION('',(1.,0.));
#443 = ( GEOMETRIC_REPRESENTATION_CONTEXT(2) 
PARAMETRIC_REPRESENTATION_CONTEXT() REPRESENTATION_CONTEXT('2D SPACE',''
  ) );
#444 = ORIENTED_EDGE('',*,*,#445,.F.);
#445 = EDGE_CURVE('',#446,#423,#448,.T.);
#446 = VERTEX_POINT('',#447);
#447 = CARTESIAN_POINT('',(56.249999844318,-27.499999875,3.580567812072)
  );
#448 = SURFACE_CURVE('',#449,(#453,#460),.PCURVE_S1.);
#449 = LINE('',#450,#451);
#450 = CARTESIAN_POINT('',(51.190391409819,-27.499999875,7.375274137946)
  );
#451 = VECTOR('',#452,1.);
#452 = DIRECTION('',(0.8,0.,-0.6));
#453 = PCURVE('',#114,#454);
#454 = DEFINITIONAL_REPRESENTATION('',(#455),#459);
#455 = LINE('',#456,#457);
#456 = CARTESIAN_POINT('',(6.079229481442,12.465060289986));
#457 = VECTOR('',#458,1.);
#458 = DIRECTION('',(-0.6,0.8));
#459 = ( GEOMETRIC_REPRESENTATION_CONTEXT(2) 
PARAMETRIC_REPRESENTATION_CONTEXT() REPRESENTATION_CONTEXT('2D SPACE',''
  ) );
#460 = PCURVE('',#461,#466);
#461 = PLANE('',#462);
#462 = AXIS2_PLACEMENT_3D('',#463,#464,#465);
#463 = CARTESIAN_POINT('',(56.249999844318,-1.249999994318,
    3.580567812072));
#464 = DIRECTION('',(0.6,0.,0.8));
#465 = DIRECTION('',(0.8,0.,-0.6));
#466 = DEFINITIONAL_REPRESENTATION('',(#467),#471);
#467 = LINE('',#468,#469);
#468 = CARTESIAN_POINT('',(-6.324510543123,-26.24999988068));
#469 = VECTOR('',#470,1.);
#470 = DIRECTION('',(1.,0.));
#471 = ( GEOMETRIC_REPRESENTATION_CONTEXT(2) 
PARAMETRIC_REPRESENTATION_CONTEXT() REPRESENTATION_CONTEXT('2D SPACE',''
  ) );
#472 = ORIENTED_EDGE('',*,*,#473,.T.);
#473 = EDGE_CURVE('',#446,#204,#474,.T.);
#474 = SURFACE_CURVE('',#475,(#494,#516),.PCURVE_S1.);
#475 = B_SPLINE_CURVE_WITH_KNOTS('',5,(#476,#477,#478,#479,#480,#481,
    #482,#483,#484,#485,#486,#487,#488,#489,#490,#491,#492,#493),
  .UNSPECIFIED.,.F.,.F.,(6,4,4,4,6),(0.,0.250002321831,0.5,
    0.749997678169,1.),.UNSPECIFIED.);
#476 = CARTESIAN_POINT('',(56.249999844318,-27.499999875,3.580567812072)
  );
#477 = CARTESIAN_POINT('',(53.474904112759,-27.499999875,4.142221544241)
  );
#478 = CARTESIAN_POINT('',(50.68572032995,-27.499999875,4.633693789987)
  );
#479 = CARTESIAN_POINT('',(47.884836068778,-27.499999875,5.054961375936)
  );
#480 = CARTESIAN_POINT('',(45.074616276379,-27.499999875,5.406018417739)
  );
#481 = CARTESIAN_POINT('',(39.440236972586,-27.499999875,5.967703145648)
  );
#482 = CARTESIAN_POINT('',(36.616080217669,-27.499999875,6.178332980111)
  );
#483 = CARTESIAN_POINT('',(33.787269448814,-27.499999875,6.318752512657)
  );
#484 = CARTESIAN_POINT('',(30.956135337243,-27.499999875,6.388961915933)
  );
#485 = CARTESIAN_POINT('',(25.293864607076,-27.499999875,6.388961915933)
  );
#486 = CARTESIAN_POINT('',(22.462730495505,-27.499999875,6.318752512657)
  );
#487 = CARTESIAN_POINT('',(19.63391972665,-27.499999875,6.178332980111)
  );
#488 = CARTESIAN_POINT('',(16.809762971734,-27.499999875,5.967703145648)
  );
#489 = CARTESIAN_POINT('',(11.175383667941,-27.499999875,5.406018417739)
  );
#490 = CARTESIAN_POINT('',(8.36516387554,-27.499999875,5.054961375936));
#491 = CARTESIAN_POINT('',(5.56427961437,-27.499999875,4.633693789987));
#492 = CARTESIAN_POINT('',(2.775095831559,-27.499999875,4.142221544241)
  );
#493 = CARTESIAN_POINT('',(1.00000008274E-07,-27.499999875,
    3.580567812072));
#494 = PCURVE('',#114,#495);
#495 = DEFINITIONAL_REPRESENTATION('',(#496),#515);
#496 = B_SPLINE_CURVE_WITH_KNOTS('',5,(#497,#498,#499,#500,#501,#502,
    #503,#504,#505,#506,#507,#508,#509,#510,#511,#512,#513,#514),
  .UNSPECIFIED.,.F.,.F.,(6,4,4,4,6),(0.,0.250002321831,0.5,
    0.749997678169,1.),.UNSPECIFIED.);
#497 = CARTESIAN_POINT('',(2.284523155568,17.524668724484));
#498 = CARTESIAN_POINT('',(2.846176887737,14.749572992926));
#499 = CARTESIAN_POINT('',(3.337649133483,11.960389210116));
#500 = CARTESIAN_POINT('',(3.758916719432,9.159504948944));
#501 = CARTESIAN_POINT('',(4.109973761235,6.349285156545));
#502 = CARTESIAN_POINT('',(4.671658489144,0.714905852752));
#503 = CARTESIAN_POINT('',(4.882288323607,-2.109250902165));
#504 = CARTESIAN_POINT('',(5.022707856153,-4.93806167102));
#505 = CARTESIAN_POINT('',(5.092917259429,-7.769195782591));
#506 = CARTESIAN_POINT('',(5.092917259429,-13.43146651275));
#507 = CARTESIAN_POINT('',(5.022707856153,-16.26260062432));
#508 = CARTESIAN_POINT('',(4.882288323607,-19.09141139318));
#509 = CARTESIAN_POINT('',(4.671658489144,-21.9155681481));
#510 = CARTESIAN_POINT('',(4.109973761235,-27.54994745189));
#511 = CARTESIAN_POINT('',(3.758916719432,-30.36016724429));
#512 = CARTESIAN_POINT('',(3.337649133483,-33.16105150546));
#513 = CARTESIAN_POINT('',(2.846176887737,-35.95023528827));
#514 = CARTESIAN_POINT('',(2.284523155568,-38.72533101983));
#515 = ( GEOMETRIC_REPRESENTATION_CONTEXT(2) 
PARAMETRIC_REPRESENTATION_CONTEXT() REPRESENTATION_CONTEXT('2D SPACE',''
  ) );
#516 = PCURVE('',#225,#517);
#517 = DEFINITIONAL_REPRESENTATION('',(#518),#537);
#518 = B_SPLINE_CURVE_WITH_KNOTS('',5,(#519,#520,#521,#522,#523,#524,
    #525,#526,#527,#528,#529,#530,#531,#532,#533,#534,#535,#536),
  .UNSPECIFIED.,.F.,.F.,(6,4,4,4,6),(0.,0.250002321831,0.5,
    0.749997678169,1.),.UNSPECIFIED.);
#519 = CARTESIAN_POINT('',(45.265491900843,-26.24999988068));
#520 = CARTESIAN_POINT('',(43.002318399872,-26.24999988068));
#521 = CARTESIAN_POINT('',(40.739055863497,-26.24999988068));
#522 = CARTESIAN_POINT('',(38.475753200382,-26.24999988068));
#523 = CARTESIAN_POINT('',(36.212438343361,-26.24999988068));
#524 = CARTESIAN_POINT('',(31.685841547876,-26.24999988068));
#525 = CARTESIAN_POINT('',(29.422561617127,-26.24999988068));
#526 = CARTESIAN_POINT('',(27.159286507079,-26.24999988068));
#527 = CARTESIAN_POINT('',(24.896016732737,-26.24999988068));
#528 = CARTESIAN_POINT('',(20.369475168106,-26.24999988068));
#529 = CARTESIAN_POINT('',(18.106205393765,-26.24999988068));
#530 = CARTESIAN_POINT('',(15.842930283717,-26.24999988068));
#531 = CARTESIAN_POINT('',(13.579650352968,-26.24999988068));
#532 = CARTESIAN_POINT('',(9.053053557483,-26.24999988068));
#533 = CARTESIAN_POINT('',(6.78973870046,-26.24999988068));
#534 = CARTESIAN_POINT('',(4.526436037348,-26.24999988068));
#535 = CARTESIAN_POINT('',(2.263173500971,-26.24999988068));
#536 = CARTESIAN_POINT('',(0.,-26.24999988068));
#537 = ( GEOMETRIC_REPRESENTATION_CONTEXT(2) 
PARAMETRIC_REPRESENTATION_CONTEXT() REPRESENTATION_CONTEXT('2D SPACE',''
  ) );
#538 = ORIENTED_EDGE('',*,*,#245,.T.);
#539 = ORIENTED_EDGE('',*,*,#352,.T.);
#540 = ADVANCED_FACE('',(#541),#225,.F.);
#541 = FACE_BOUND('',#542,.F.);
#542 = EDGE_LOOP('',(#543,#572,#573,#574));
#543 = ORIENTED_EDGE('',*,*,#544,.F.);
#544 = EDGE_CURVE('',#164,#545,#547,.T.);
#545 = VERTEX_POINT('',#546);
#546 = CARTESIAN_POINT('',(56.249999844318,-1.249999994318,
    3.580567812072));
#547 = SURFACE_CURVE('',#548,(#555,#562),.PCURVE_S1.);
#548 = B_SPLINE_CURVE_WITH_KNOTS('',3,(#549,#550,#551,#552,#553,#554),
  .UNSPECIFIED.,.F.,.F.,(4,1,1,4),(0.,15.132745950422,30.132745950422,
    45.265491900843),.UNSPECIFIED.);
#549 = CARTESIAN_POINT('',(1.00000008274E-07,-1.249999994318,
    3.580567812072));
#550 = CARTESIAN_POINT('',(6.185240821455,-1.249999994318,4.832403377981
    ));
#551 = CARTESIAN_POINT('',(18.667397155729,-1.249999994318,
    6.491759954341));
#552 = CARTESIAN_POINT('',(37.58260278859,-1.249999994318,6.491759954341
    ));
#553 = CARTESIAN_POINT('',(50.064759122863,-1.249999994318,
    4.832403377981));
#554 = CARTESIAN_POINT('',(56.249999844318,-1.249999994318,
    3.580567812072));
#555 = PCURVE('',#225,#556);
#556 = DEFINITIONAL_REPRESENTATION('',(#557),#561);
#557 = LINE('',#558,#559);
#558 = CARTESIAN_POINT('',(0.,0.));
#559 = VECTOR('',#560,1.);
#560 = DIRECTION('',(1.,0.));
#561 = ( GEOMETRIC_REPRESENTATION_CONTEXT(2) 
PARAMETRIC_REPRESENTATION_CONTEXT() REPRESENTATION_CONTEXT('2D SPACE',''
  ) );
#562 = PCURVE('',#187,#563);
#563 = DEFINITIONAL_REPRESENTATION('',(#564),#571);
#564 = B_SPLINE_CURVE_WITH_KNOTS('',3,(#565,#566,#567,#568,#569,#570),
  .UNSPECIFIED.,.F.,.F.,(4,1,1,4),(0.,15.132745950422,30.132745950422,
    45.265491900843),.UNSPECIFIED.);
#565 = CARTESIAN_POINT('',(1.41542519115,-33.62920756009));
#566 = CARTESIAN_POINT('',(2.667260757059,-27.44396683863));
#567 = CARTESIAN_POINT('',(4.326617333419,-14.96181050436));
#568 = CARTESIAN_POINT('',(4.326617333419,3.953395128498));
#569 = CARTESIAN_POINT('',(2.667260757059,16.435551462771));
#570 = CARTESIAN_POINT('',(1.41542519115,22.620792184227));
#571 = ( GEOMETRIC_REPRESENTATION_CONTEXT(2) 
PARAMETRIC_REPRESENTATION_CONTEXT() REPRESENTATION_CONTEXT('2D SPACE',''
  ) );
#572 = ORIENTED_EDGE('',*,*,#203,.T.);
#573 = ORIENTED_EDGE('',*,*,#473,.F.);
#574 = ORIENTED_EDGE('',*,*,#575,.F.);
#575 = EDGE_CURVE('',#545,#446,#576,.T.);
#576 = SURFACE_CURVE('',#577,(#581,#588),.PCURVE_S1.);
#577 = LINE('',#578,#579);
#578 = CARTESIAN_POINT('',(56.249999844318,-1.249999994318,
    3.580567812072));
#579 = VECTOR('',#580,1.);
#580 = DIRECTION('',(0.,-1.,0.));
#581 = PCURVE('',#225,#582);
#582 = DEFINITIONAL_REPRESENTATION('',(#583),#587);
#583 = LINE('',#584,#585);
#584 = CARTESIAN_POINT('',(45.265491900843,0.));
#585 = VECTOR('',#586,1.);
#586 = DIRECTION('',(0.,-1.));
#587 = ( GEOMETRIC_REPRESENTATION_CONTEXT(2) 
PARAMETRIC_REPRESENTATION_CONTEXT() REPRESENTATION_CONTEXT('2D SPACE',''
  ) );
#588 = PCURVE('',#461,#589);
#589 = DEFINITIONAL_REPRESENTATION('',(#590),#594);
#590 = LINE('',#591,#592);
#591 = CARTESIAN_POINT('',(0.,0.));
#592 = VECTOR('',#593,1.);
#593 = DIRECTION('',(0.,-1.));
#594 = ( GEOMETRIC_REPRESENTATION_CONTEXT(2) 
PARAMETRIC_REPRESENTATION_CONTEXT() REPRESENTATION_CONTEXT('2D SPACE',''
  ) );
#595 = ADVANCED_FACE('',(#596),#187,.F.);
#596 = FACE_BOUND('',#597,.F.);
#597 = EDGE_LOOP('',(#598,#599,#600,#623));
#598 = ORIENTED_EDGE('',*,*,#163,.F.);
#599 = ORIENTED_EDGE('',*,*,#544,.T.);
#600 = ORIENTED_EDGE('',*,*,#601,.T.);
#601 = EDGE_CURVE('',#545,#602,#604,.T.);
#602 = VERTEX_POINT('',#603);
#603 = CARTESIAN_POINT('',(66.249999798864,-1.249999994318,
    -3.919432153837));
#604 = SURFACE_CURVE('',#605,(#609,#616),.PCURVE_S1.);
#605 = LINE('',#606,#607);
#606 = CARTESIAN_POINT('',(56.249999844318,-1.249999994318,
    3.580567812072));
#607 = VECTOR('',#608,1.);
#608 = DIRECTION('',(0.8,0.,-0.6));
#609 = PCURVE('',#187,#610);
#610 = DEFINITIONAL_REPRESENTATION('',(#611),#615);
#611 = LINE('',#612,#613);
#612 = CARTESIAN_POINT('',(1.41542519115,22.620792184227));
#613 = VECTOR('',#614,1.);
#614 = DIRECTION('',(-0.6,0.8));
#615 = ( GEOMETRIC_REPRESENTATION_CONTEXT(2) 
PARAMETRIC_REPRESENTATION_CONTEXT() REPRESENTATION_CONTEXT('2D SPACE',''
  ) );
#616 = PCURVE('',#461,#617);
#617 = DEFINITIONAL_REPRESENTATION('',(#618),#622);
#618 = LINE('',#619,#620);
#619 = CARTESIAN_POINT('',(0.,0.));
#620 = VECTOR('',#621,1.);
#621 = DIRECTION('',(1.,0.));
#622 = ( GEOMETRIC_REPRESENTATION_CONTEXT(2) 
PARAMETRIC_REPRESENTATION_CONTEXT() REPRESENTATION_CONTEXT('2D SPACE',''
  ) );
#623 = ORIENTED_EDGE('',*,*,#624,.T.);
#624 = EDGE_CURVE('',#602,#130,#625,.T.);
#625 = SURFACE_CURVE('',#626,(#630,#637),.PCURVE_S1.);
#626 = LINE('',#627,#628);
#627 = CARTESIAN_POINT('',(66.249999798864,-1.249999994318,
    -3.919432153837));
#628 = VECTOR('',#629,1.);
#629 = DIRECTION('',(-0.993652968315,0.,0.112489015281));
#630 = PCURVE('',#187,#631);
#631 = DEFINITIONAL_REPRESENTATION('',(#632),#636);
#632 = LINE('',#633,#634);
#633 = CARTESIAN_POINT('',(-6.084574774759,32.620792138772));
#634 = VECTOR('',#635,1.);
#635 = DIRECTION('',(0.112489015281,-0.993652968315));
#636 = ( GEOMETRIC_REPRESENTATION_CONTEXT(2) 
PARAMETRIC_REPRESENTATION_CONTEXT() REPRESENTATION_CONTEXT('2D SPACE',''
  ) );
#637 = PCURVE('',#149,#638);
#638 = DEFINITIONAL_REPRESENTATION('',(#639),#643);
#639 = LINE('',#640,#641);
#640 = CARTESIAN_POINT('',(0.,0.));
#641 = VECTOR('',#642,1.);
#642 = DIRECTION('',(1.,0.));
#643 = ( GEOMETRIC_REPRESENTATION_CONTEXT(2) 
PARAMETRIC_REPRESENTATION_CONTEXT() REPRESENTATION_CONTEXT('2D SPACE',''
  ) );
#644 = ADVANCED_FACE('',(#645),#149,.F.);
#645 = FACE_BOUND('',#646,.F.);
#646 = EDGE_LOOP('',(#647,#648,#669,#670));
#647 = ORIENTED_EDGE('',*,*,#624,.F.);
#648 = ORIENTED_EDGE('',*,*,#649,.T.);
#649 = EDGE_CURVE('',#602,#423,#650,.T.);
#650 = SURFACE_CURVE('',#651,(#655,#662),.PCURVE_S1.);
#651 = LINE('',#652,#653);
#652 = CARTESIAN_POINT('',(66.249999798864,-1.249999994318,
    -3.919432153837));
#653 = VECTOR('',#654,1.);
#654 = DIRECTION('',(0.,-1.,0.));
#655 = PCURVE('',#149,#656);
#656 = DEFINITIONAL_REPRESENTATION('',(#657),#661);
#657 = LINE('',#658,#659);
#658 = CARTESIAN_POINT('',(0.,0.));
#659 = VECTOR('',#660,1.);
#660 = DIRECTION('',(0.,-1.));
#661 = ( GEOMETRIC_REPRESENTATION_CONTEXT(2) 
PARAMETRIC_REPRESENTATION_CONTEXT() REPRESENTATION_CONTEXT('2D SPACE',''
  ) );
#662 = PCURVE('',#461,#663);
#663 = DEFINITIONAL_REPRESENTATION('',(#664),#668);
#664 = LINE('',#665,#666);
#665 = CARTESIAN_POINT('',(12.499999943182,0.));
#666 = VECTOR('',#667,1.);
#667 = DIRECTION('',(0.,-1.));
#668 = ( GEOMETRIC_REPRESENTATION_CONTEXT(2) 
PARAMETRIC_REPRESENTATION_CONTEXT() REPRESENTATION_CONTEXT('2D SPACE',''
  ) );
#669 = ORIENTED_EDGE('',*,*,#422,.T.);
#670 = ORIENTED_EDGE('',*,*,#129,.T.);
#671 = ADVANCED_FACE('',(#672),#83,.T.);
#672 = FACE_BOUND('',#673,.T.);
#673 = EDGE_LOOP('',(#674,#675,#676,#677));
#674 = ORIENTED_EDGE('',*,*,#375,.T.);
#675 = ORIENTED_EDGE('',*,*,#400,.T.);
#676 = ORIENTED_EDGE('',*,*,#67,.F.);
#677 = ORIENTED_EDGE('',*,*,#327,.F.);
#678 = ADVANCED_FACE('',(#679),#461,.F.);
#679 = FACE_BOUND('',#680,.F.);
#680 = EDGE_LOOP('',(#681,#682,#683,#684));
#681 = ORIENTED_EDGE('',*,*,#601,.F.);
#682 = ORIENTED_EDGE('',*,*,#575,.T.);
#683 = ORIENTED_EDGE('',*,*,#445,.T.);
#684 = ORIENTED_EDGE('',*,*,#649,.F.);
#685 = ( GEOMETRIC_REPRESENTATION_CONTEXT(3) 
GLOBAL_UNCERTAINTY_ASSIGNED_CONTEXT((#689)) GLOBAL_UNIT_ASSIGNED_CONTEXT
((#686,#687,#688)) REPRESENTATION_CONTEXT('Context #1',
  '3D Context with UNIT and UNCERTAINTY') );
#686 = ( LENGTH_UNIT() NAMED_UNIT(*) SI_UNIT(.MILLI.,.METRE.) );
#687 = ( NAMED_UNIT(*) PLANE_ANGLE_UNIT() SI_UNIT($,.RADIAN.) );
#688 = ( NAMED_UNIT(*) SI_UNIT($,.STERADIAN.) SOLID_ANGLE_UNIT() );
#689 = UNCERTAINTY_MEASURE_WITH_UNIT(LENGTH_MEASURE(2.E-06),#686,
  'distance_accuracy_value','confusion accuracy');
#690 = PRODUCT_RELATED_PRODUCT_CATEGORY('part',$,(#7));
ENDSEC;
END-ISO-10303-21;
