$MeshFormat
2.2 0 8
$EndMeshFormat
$PhysicalNames
3
2 1 "Fixed"
2 2 "Load"
3 3 "Volume"
$EndPhysicalNames
$Nodes
342
1 0 -20 -20
2 0 -20 20
3 0 20 -20
4 0 20 20
5 80 -20 -20
6 80 -20 20
7 80 20 -20
8 80 20 20
9 0 -20 -12.00000000000001
10 0 -20 -4.000000000000034
11 0 -20 3.999999999999961
12 0 -20 11.99999999999999
13 0 -12.00000000000001 -20
14 0 -4.000000000000034 -20
15 0 3.999999999999961 -20
16 0 11.99999999999999 -20
17 0 20 -12.00000000000001
18 0 20 -4.000000000000034
19 0 20 3.999999999999961
20 0 20 11.99999999999999
21 0 -12.00000000000001 20
22 0 -4.000000000000034 20
23 0 3.999999999999961 20
24 0 11.99999999999999 20
25 80 -20 -12.00000000000001
26 80 -20 -4.000000000000034
27 80 -20 3.999999999999961
28 80 -20 11.99999999999999
29 80 -12.00000000000001 -20
30 80 -4.000000000000034 -20
31 80 3.999999999999961 -20
32 80 11.99999999999999 -20
33 80 20 -12.00000000000001
34 80 20 -4.000000000000034
35 80 20 3.999999999999961
36 80 20 11.99999999999999
37 80 -12.00000000000001 20
38 80 -4.000000000000034 20
39 80 3.999999999999961 20
40 80 11.99999999999999 20
41 8.888888888888882 -20 -20
42 17.77777777777776 -20 -20
43 26.66666666666662 -20 -20
44 35.55555555555547 -20 -20
45 44.44444444444436 -20 -20
46 53.33333333333327 -20 -20
47 62.22222222222219 -20 -20
48 71.1111111111111 -20 -20
49 8.888888888888882 -20 20
50 17.77777777777776 -20 20
51 26.66666666666662 -20 20
52 35.55555555555547 -20 20
53 44.44444444444436 -20 20
54 53.33333333333327 -20 20
55 62.22222222222219 -20 20
56 71.1111111111111 -20 20
57 8.888888888888882 20 -20
58 17.77777777777776 20 -20
59 26.66666666666662 20 -20
60 35.55555555555547 20 -20
61 44.44444444444436 20 -20
62 53.33333333333327 20 -20
63 62.22222222222219 20 -20
64 71.1111111111111 20 -20
65 8.888888888888882 20 20
66 17.77777777777776 20 20
67 26.66666666666662 20 20
68 35.55555555555547 20 20
69 44.44444444444436 20 20
70 53.33333333333327 20 20
71 62.22222222222219 20 20
72 71.1111111111111 20 20
73 0 0.3220793738005128 -14.65965881556565
74 0 0.06538414090216804 13.10954632107512
75 0 13.48979375280314 -0.3867162197943443
76 0 -13.4139859667191 -0.3880124294471514
77 0 7.970072385700849 13.22811649374131
78 0 4.15395992883666 6.829902105524901
79 0 -4.008004450654646 7.020843039486493
80 0 -7.105427357601002e-14 -0.7846096908264926
81 0 -12.58797846081566 7.565984045983022
82 0 7.390603486748667 -12.47635983910952
83 0 -13.22307650793767 -7.992620264417813
84 0 12.47820408219692 7.355709533434933
85 0 -7.779032051669523 13.63999449099893
86 0 13.53476928075739 -7.769107869434622
87 0 -7.364310938603822 -13.01903633651787
88 0 -6.728526706504436 -4.573426088027928
89 0 7.203877918747899 -4.444987672386116
90 0 0.9367496572425971 -7.292151370841086
91 0 -14.14359353944896 14.14359353944896
92 0 14.14359353944896 -14.14359353944897
93 0 14.14359353944897 14.14359353944897
94 0 -14.14359353944899 -14.14359353944899
95 0 -7.587878849355359 1.671925423317266
96 0 7.590008968588844 1.675070815123785
97 80 -14.65965881556565 0.3220793738005199
98 80 13.10954632107511 0.06538414090217159
99 80 -0.3867162197943443 13.48979375280314
100 80 -0.3880124294471479 -13.4139859667191
101 80 13.2281164937413 7.97007238570086
102 80 6.829902105524909 4.15395992883666
103 80 7.020843039486493 -4.008004450654646
104 80 -0.7846096908264926 -7.105427357601002e-14
105 80 -12.47635983910952 7.390603486748667
106 80 7.565984045983022 -12.58797846081566
107 80 -7.992620264417813 -13.22307650793766
108 80 7.355709533434933 12.47820408219692
109 80 -7.769107869434626 13.53476928075739
110 80 13.63999449099893 -7.779032051669525
111 80 -13.01903633651787 -7.364310938603815
112 80 -4.573426088027926 -6.728526706504431
113 80 -4.444987672386116 7.203877918747899
114 80 -7.292151370841083 0.9367496572426148
115 80 -14.14359353944896 14.14359353944896
116 80 14.14359353944896 -14.14359353944897
117 80 -14.14359353944899 -14.14359353944899
118 80 14.14359353944897 14.14359353944897
119 80 1.671925423317266 -7.58787884935537
120 80 1.675070815123796 7.590008968588847
121 6.534334842553184 -20 0.007908028148477797
122 73.48413619207466 -20 0.008294806006841071
123 31.11111111111104 -20 12.30199641080502
124 48.93203690617272 -20 -12.3064967500059
125 31.13503706983476 -20 -12.25804193262609
126 48.91179944131517 -20 12.56432983620799
127 12.59485887962951 -20 13.11818191536439
128 13.03317465422563 -20 -11.86098895443293
129 67.41819113034043 -20 13.13833795959837
130 67.01549816309171 -20 -11.93465346412582
131 57.85612073926644 -20 -12.27922757501658
132 53.42276823110484 -20 -4.655979255500133
133 44.54889593290319 -20 -4.577006555125413
134 49.06405521105312 -20 3.038198190128153
135 57.91452319750343 -20 2.947668763924074
136 40.20596087986265 -20 3.148390730006106
137 35.67345776856769 -20 -4.508354420639996
138 31.3345786473361 -20 3.257541519970133
139 26.7970583872366 -20 -4.459895049015932
140 22.48804182269993 -20 3.341030602951122
141 18.35780579410946 -20 -4.213268033837725
142 22.22222222222218 -20 12.22626670601564
143 58.01854200120378 -20 12.1236960151772
144 22.29458672497514 -20 -12.13203232831878
145 61.77251646677352 -20 -4.312070449112884
146 40.04823794624636 -20 -12.27498327639957
147 39.80499710523895 -20 11.92441139424496
148 6.203524122682838 -20 -7.714742923927375
149 6.760685658613387 -20 7.999999999999968
150 14.38104233477079 -20 4.054035661892065
151 73.2393143413866 -20 7.999999999999972
152 65.74981463049738 -20 3.972339739620899
153 73.82613755393587 -20 -7.726569101374762
154 5.944288115750391 -20 14.33350703188228
155 74.0557118842496 -20 14.33350703188231
156 5.625117533159469 -20 -14.31514637567206
157 74.29488151380542 -20 -14.33260523275217
158 11.70197634966838 -20 -3.945411244431501
159 68.36962060127462 -20 -3.998531693797144
160 53.53662246935814 -20 7.620396224213941
161 44.69093431780625 -20 7.589063380560553
162 6.534334842553184 20 0.007908028148477797
163 73.48413619207466 20 0.008294806006841071
164 31.13503706983476 20 -12.25804193262609
165 48.91179944131517 20 12.56432983620799
166 31.11111111111105 20 12.30199641080502
167 48.93203690617272 20 -12.3064967500059
168 12.59485887962951 20 13.11818191536439
169 13.03317465422563 20 -11.86098895443294
170 67.41819113034043 20 13.13833795959837
171 67.01549816309171 20 -11.93465346412582
172 57.85612073926644 20 -12.27922757501658
173 53.42276823110484 20 -4.655979255500133
174 44.54889593290319 20 -4.577006555125411
175 49.06405521105312 20 3.038198190128153
176 57.91452319750343 20 2.947668763924074
177 40.20596087986266 20 3.148390730006113
178 35.67345776856769 20 -4.508354420639993
179 31.3345786473361 20 3.257541519970136
180 26.7970583872366 20 -4.459895049015932
181 22.48804182269992 20 3.341030602951122
182 18.35780579410946 20 -4.213268033837725
183 22.22222222222218 20 12.22626670601564
184 58.01854200120378 20 12.1236960151772
185 22.29458672497514 20 -12.13203232831878
186 61.77251646677352 20 -4.312070449112884
187 40.04823794624636 20 -12.27498327639957
188 39.80499710523895 20 11.92441139424496
189 6.203524122682837 20 -7.714742923927375
190 6.760685658613387 20 7.999999999999968
191 14.38104233477078 20 4.054035661892062
192 73.2393143413866 20 7.999999999999972
193 65.74981463049738 20 3.972339739620899
194 73.82613755393587 20 -7.726569101374762
195 5.944288115750391 20 14.33350703188228
196 74.0557118842496 20 14.33350703188231
197 5.625117533159469 20 -14.31514637567206
198 74.29488151380542 20 -14.33260523275217
199 11.70197634966838 20 -3.945411244431501
200 68.36962060127462 20 -3.998531693797144
201 53.53662246935814 20 7.620396224213941
202 44.69093431780626 20 7.58906338056055
203 6.545175560983049 0.6722064255957783 -20
204 73.48413619207466 -0.008294806006922784 -20
205 31.13732778828051 12.25783181947033 -20
206 48.93260095047617 12.30811486896752 -20
207 39.86128932915555 -12.01636697783992 -20
208 20.66907454075456 -12.75346746821187 -20
209 57.93074301421134 -12.04692148436028 -20
210 13.08187720156532 11.97713743313544 -20
211 67.01549816309171 11.9346534641258 -20
212 57.85621474665036 12.27949726151017 -20
213 53.4198791324599 4.659589651674949 -20
214 44.55238295552014 4.580583815841585 -20
215 49.06399399812349 -3.032451528687243 -20
216 57.89320750105539 -2.935646626540041 -20
217 40.22429560633264 -3.133560405330247 -20
218 35.68223786519815 4.509604720321946 -20
219 31.34995364826018 -3.262073071681783 -20
220 26.81281603974995 4.453283837154334 -20
221 22.51868726975795 -3.347188734061508 -20
222 18.36684240176117 4.910612343537103 -20
223 22.14392216240227 12.3472029714196 -20
224 30.67529271701675 -12.08332698717995 -20
225 14.96472188722559 -7.692573917368062 -20
226 61.76849800215535 4.314720819121579 -20
227 48.9088877762532 -12.53642195992745 -20
228 67.43063532644274 -13.08829104508852 -20
229 40.05075825991247 12.27602253743356 -20
230 6.86661597019337 -8.000000000000018 -20
231 6.579686948065669 7.995613314006434 -20
232 73.82613755393587 7.726569101374707 -20
233 73.23931434138662 -8.000000000000018 -20
234 65.73543049450362 -3.95212631780387 -20
235 12.26858725154743 -14.07434023092999 -20
236 13.63094143416761 -0.9116881576139946 -20
237 5.710090607703975 14.39455014942837 -20
238 74.29488151380542 14.33260523275216 -20
239 74.35621215578809 -14.61765820901771 -20
240 68.40147908419924 4.099548918247134 -20
241 53.52883521278591 -7.565746811186898 -20
242 5.604818422125938 -14.814868046186 -20
243 44.69565435359696 -7.586358328496026 -20
244 11.74716345034153 4.933390683005477 -20
245 6.545175560983049 0.6722064255957783 20
246 73.48413619207466 -0.008294806006922784 20
247 31.13732778828051 12.25783181947033 20
248 48.93260095047617 12.30811486896752 20
249 39.86128932915555 -12.01636697783992 20
250 20.66907454075456 -12.75346746821187 20
251 57.93074301421134 -12.04692148436028 20
252 13.08187720156532 11.97713743313544 20
253 67.01549816309171 11.9346534641258 20
254 57.85621474665036 12.27949726151017 20
255 53.4198791324599 4.659589651674949 20
256 44.55238295552014 4.580583815841585 20
257 49.06399399812349 -3.032451528687243 20
258 57.89320750105539 -2.935646626540041 20
259 40.22429560633264 -3.133560405330247 20
260 35.68223786519815 4.509604720321946 20
261 31.34995364826018 -3.262073071681783 20
262 26.81281603974995 4.453283837154334 20
263 22.51868726975795 -3.347188734061508 20
264 18.36684240176117 4.910612343537103 20
265 22.14392216240227 12.3472029714196 20
266 30.67529271701675 -12.08332698717995 20
267 14.96472188722559 -7.692573917368062 20
268 61.76849800215535 4.314720819121579 20
269 48.9088877762532 -12.53642195992745 20
270 67.43063532644274 -13.08829104508852 20
271 40.05075825991247 12.27602253743356 20
272 6.86661597019337 -8.000000000000018 20
273 6.579686948065669 7.995613314006434 20
274 73.82613755393587 7.726569101374707 20
275 73.23931434138662 -8.000000000000018 20
276 65.73543049450362 -3.95212631780387 20
277 12.26858725154743 -14.07434023092999 20
278 13.63094143416761 -0.9116881576139946 20
279 5.710090607703975 14.39455014942837 20
280 74.29488151380542 14.33260523275216 20
281 74.35621215578809 -14.61765820901771 20
282 68.40147908419924 4.099548918247134 20
283 53.52883521278591 -7.565746811186898 20
284 5.604818422125938 -14.814868046186 20
285 44.69565435359696 -7.586358328496026 20
286 11.74716345034153 4.933390683005477 20
287 52.67129817837571 0.0007477351043245761 -3.552713678800501e-15
288 25.67124836141231 -0.0004743404638922755 -3.552713678800501e-15
289 65.64534740523992 4.052168644369971 5.571463549924625
290 14.17200942941912 6.061097093231391 -5.954411387726369
291 40.10763706185141 5.753957302257056 -5.754689260586634
292 39.20910442973288 -4.96041033208293 4.963106097157665
293 13.22928030179347 -6.722791903337975 -1.390838369446366
294 65.41472626856829 -5.684803351414533 -5.420143522849742
295 13.18294960619705 3.501863618538936 6.956964192727504
296 65.23225520352626 7.562700064596317 -7.546796463240277
297 44.18492622098791 -7.138835350952667 -6.93672410997546
298 44.18688002188718 6.937689833202462 7.139575601126368
299 60.68637858280964 -7.857533582073965 6.41478537933277
300 31.62335740418804 -8.378097788773346 -7.340262175174671
301 31.62504683351881 7.336838190565844 8.379254418458576
302 51.62610656901987 8.595041664344624 -8.593777222773287
303 28.53422546914747 8.599175111746474 -8.599183991228484
304 55.54247759942771 8.620847862560845 9.174772567089686
305 9.982783128099202 -8.18808900379169 9.023168175188516
306 49.11345391565757 -8.094233041271584 9.550691981557449
307 55.19886309643055 -9.436987996536384 -8.863936052448722
308 70.2644632311148 -6.483218455204415 10.17181009056451
309 8.910489765363302 11.10622710857055 11.14115441709711
310 9.359013577381234 10.60589534487562 1.324954451708233
311 20.65448122323451 -9.282940032870533 -9.36158173115844
312 9.578976950319076 -10.76433170921437 -9.85271978312948
313 8.657673876747026 11.53656169663753 -11.53123300434622
314 21.53156483061602 -8.749748764685755 6.728268795073416
315 68.65627268842175 11.58643253746521 11.40519932837853
316 58.01632047402062 0.5127233905258572 -10.16527152424544
317 69.17023417177771 -11.45375420309871 -11.2019483893771
318 58.03322375573362 10.34249394378598 -0.6926117791541575
319 21.64630326683161 7.922452271800397 10.74353921337592
320 70.49441478705705 10.6476892273389 0.1484165523339408
321 18.76024978269243 9.203196379478804 1.767087889509857
322 50.58713920793665 -10.58710760517126 -0.0423099890557368
323 70.92023215217382 0.385652803128216 -10.41031106001867
324 22.10430788984224 0.7769269742566687 -9.48636256362739
325 9.074706793027804 -0.9574439093907077 -10.62101666785113
326 46.8812947709449 0.8173901462808471 -11.51684273048531
327 46.88395275748388 11.51848959427883 -0.8153414677960686
328 29.85193012258118 -2.919458137092826 9.102772623266317
329 71.96721634785385 12.04656981668408 -11.10731706503577
330 50.24525502456115 1.113480369288763 11.546479975594
331 70.73289126912623 -10.62124407281714 1.243561921149831
332 8.916310193063291 1.122883478915559 -0.5886372787273159
333 72.1332765803469 2.661028181304198 11.24472656285883
334 37.8504996971635 -1.617874382042151 -11.06950901100342
335 37.85399914539135 11.06781546457758 1.617170006379442
336 71.22396938400824 1.604287794027224 -1.307663103938952
337 17.81032221942466 12.00078167572617 -11.92288616567773
338 38.73559849290999 -11.91635322579087 -1.151118086941861
339 38.73789683658882 1.154299565452293 11.91572511213579
340 59.49799040569957 0.5932394115180806 11.582358695607
341 43.64777456159636 11.67488261456051 -11.67378946688602
342 34.70169186138167 -1.055478377418469 -2.263125059270926
$EndNodes
$Elements
1226
1 2 2 1 1 1 9 94
2 2 2 1 1 13 1 94
3 2 2 1 1 12 2 91
4 2 2 1 1 2 21 91
5 2 2 1 1 3 16 92
6 2 2 1 1 17 3 92
7 2 2 1 1 4 20 93
8 2 2 1 1 24 4 93
9 2 2 1 1 9 10 83
10 2 2 1 1 9 83 94
11 2 2 1 1 10 11 76
12 2 2 1 1 10 76 83
13 2 2 1 1 11 12 81
14 2 2 1 1 76 11 81
15 2 2 1 1 81 12 91
16 2 2 1 1 14 13 87
17 2 2 1 1 87 13 94
18 2 2 1 1 15 14 73
19 2 2 1 1 73 14 87
20 2 2 1 1 16 15 82
21 2 2 1 1 15 73 82
22 2 2 1 1 16 82 92
23 2 2 1 1 18 17 86
24 2 2 1 1 86 17 92
25 2 2 1 1 19 18 75
26 2 2 1 1 75 18 86
27 2 2 1 1 20 19 84
28 2 2 1 1 19 75 84
29 2 2 1 1 20 84 93
30 2 2 1 1 21 22 85
31 2 2 1 1 21 85 91
32 2 2 1 1 22 23 74
33 2 2 1 1 22 74 85
34 2 2 1 1 23 24 77
35 2 2 1 1 74 23 77
36 2 2 1 1 77 24 93
37 2 2 1 1 82 73 90
38 2 2 1 1 73 87 90
39 2 2 1 1 74 77 78
40 2 2 1 1 74 78 79
41 2 2 1 1 74 79 85
42 2 2 1 1 84 75 96
43 2 2 1 1 75 86 89
44 2 2 1 1 75 89 96
45 2 2 1 1 76 81 95
46 2 2 1 1 83 76 88
47 2 2 1 1 88 76 95
48 2 2 1 1 78 77 84
49 2 2 1 1 84 77 93
50 2 2 1 1 79 78 80
51 2 2 1 1 80 78 96
52 2 2 1 1 78 84 96
53 2 2 1 1 79 80 95
54 2 2 1 1 79 81 85
55 2 2 1 1 81 79 95
56 2 2 1 1 88 80 90
57 2 2 1 1 80 88 95
58 2 2 1 1 80 89 90
59 2 2 1 1 89 80 96
60 2 2 1 1 85 81 91
61 2 2 1 1 86 82 89
62 2 2 1 1 82 86 92
63 2 2 1 1 89 82 90
64 2 2 1 1 87 83 88
65 2 2 1 1 83 87 94
66 2 2 1 1 87 88 90
67 2 2 2 2 5 117 25
68 2 2 2 2 29 117 5
69 2 2 2 2 28 115 6
70 2 2 2 2 6 115 37
71 2 2 2 2 7 116 32
72 2 2 2 2 33 116 7
73 2 2 2 2 8 118 36
74 2 2 2 2 40 118 8
75 2 2 2 2 25 111 26
76 2 2 2 2 25 117 111
77 2 2 2 2 26 97 27
78 2 2 2 2 26 111 97
79 2 2 2 2 27 105 28
80 2 2 2 2 97 105 27
81 2 2 2 2 105 115 28
82 2 2 2 2 30 107 29
83 2 2 2 2 107 117 29
84 2 2 2 2 31 100 30
85 2 2 2 2 100 107 30
86 2 2 2 2 32 106 31
87 2 2 2 2 31 106 100
88 2 2 2 2 32 116 106
89 2 2 2 2 34 110 33
90 2 2 2 2 110 116 33
91 2 2 2 2 35 98 34
92 2 2 2 2 98 110 34
93 2 2 2 2 36 101 35
94 2 2 2 2 35 101 98
95 2 2 2 2 36 118 101
96 2 2 2 2 37 109 38
97 2 2 2 2 37 115 109
98 2 2 2 2 38 99 39
99 2 2 2 2 38 109 99
100 2 2 2 2 39 108 40
101 2 2 2 2 99 108 39
102 2 2 2 2 108 118 40
103 2 2 2 2 97 114 105
104 2 2 2 2 111 114 97
105 2 2 2 2 101 102 98
106 2 2 2 2 102 103 98
107 2 2 2 2 103 110 98
108 2 2 2 2 99 120 108
109 2 2 2 2 109 113 99
110 2 2 2 2 113 120 99
111 2 2 2 2 106 119 100
112 2 2 2 2 100 112 107
113 2 2 2 2 100 119 112
114 2 2 2 2 101 108 102
115 2 2 2 2 101 118 108
116 2 2 2 2 102 104 103
117 2 2 2 2 102 120 104
118 2 2 2 2 108 120 102
119 2 2 2 2 104 119 103
120 2 2 2 2 106 110 103
121 2 2 2 2 103 119 106
122 2 2 2 2 104 114 112
123 2 2 2 2 112 119 104
124 2 2 2 2 113 114 104
125 2 2 2 2 104 120 113
126 2 2 2 2 105 113 109
127 2 2 2 2 109 115 105
128 2 2 2 2 105 114 113
129 2 2 2 2 106 116 110
130 2 2 2 2 107 112 111
131 2 2 2 2 111 117 107
132 2 2 2 2 112 114 111
133 4 2 3 1 289 287 296 316
134 4 2 3 1 289 296 287 318
135 4 2 3 1 289 294 287 316
136 4 2 3 1 300 328 314 338
137 4 2 3 1 287 292 291 297
138 4 2 3 1 291 292 287 298
139 4 2 3 1 245 295 74 309
140 4 2 3 1 287 296 316 318
141 4 2 3 1 289 296 294 316
142 4 2 3 1 245 74 295 305
143 4 2 3 1 286 295 245 309
144 4 2 3 1 300 311 139 314
145 4 2 3 1 259 292 328 339
146 4 2 3 1 278 305 295 314
147 4 2 3 1 299 307 145 322
148 4 2 3 1 289 304 268 315
149 4 2 3 1 328 338 300 342
150 4 2 3 1 293 295 288 332
151 4 2 3 1 121 293 76 305
152 4 2 3 1 145 299 294 307
153 4 2 3 1 135 299 145 322
154 4 2 3 1 74 295 78 309
155 4 2 3 1 205 164 303 341
156 4 2 3 1 76 293 95 305
157 4 2 3 1 164 187 178 341
158 4 2 3 1 218 229 205 341
159 4 2 3 1 292 338 328 342
160 4 2 3 1 77 245 74 309
161 4 2 3 1 164 178 303 341
162 4 2 3 1 268 304 289 340
163 4 2 3 1 218 205 303 341
164 4 2 3 1 301 303 288 321
165 4 2 3 1 138 300 314 338
166 4 2 3 1 193 304 289 315
167 4 2 3 1 290 293 288 332
168 4 2 3 1 295 263 314 319
169 4 2 3 1 79 295 74 305
170 4 2 3 1 212 296 172 302
171 4 2 3 1 291 297 292 342
172 4 2 3 1 287 294 289 299
173 4 2 3 1 227 146 124 297
174 4 2 3 1 288 295 314 319
175 4 2 3 1 294 296 289 336
176 4 2 3 1 165 248 271 298
177 4 2 3 1 74 79 78 295
178 4 2 3 1 273 245 77 309
179 4 2 3 1 291 303 178 341
180 4 2 3 1 218 303 291 341
181 4 2 3 1 273 286 245 309
182 4 2 3 1 74 78 77 309
183 4 2 3 1 187 205 229 341
184 4 2 3 1 295 309 286 319
185 4 2 3 1 205 187 164 341
186 4 2 3 1 278 267 305 314
187 4 2 3 1 288 314 300 328
188 4 2 3 1 303 324 220 334
189 4 2 3 1 76 293 121 312
190 4 2 3 1 138 314 328 338
191 4 2 3 1 288 328 300 342
192 4 2 3 1 263 295 264 319
193 4 2 3 1 299 287 307 322
194 4 2 3 1 138 328 292 338
195 4 2 3 1 296 302 212 316
196 4 2 3 1 141 311 293 314
197 4 2 3 1 294 307 209 317
198 4 2 3 1 244 222 290 325
199 4 2 3 1 172 302 296 318
200 4 2 3 1 289 308 331 336
201 4 2 3 1 267 250 277 305
202 4 2 3 1 294 299 145 331
203 4 2 3 1 285 292 259 339
204 4 2 3 1 289 315 282 333
205 4 2 3 1 138 300 139 314
206 4 2 3 1 278 295 263 314
207 4 2 3 1 287 298 292 330
208 4 2 3 1 121 76 81 305
209 4 2 3 1 292 306 161 338
210 4 2 3 1 288 303 301 335
211 4 2 3 1 193 289 304 318
212 4 2 3 1 294 299 287 307
213 4 2 3 1 248 298 165 304
214 4 2 3 1 278 245 295 305
215 4 2 3 1 211 172 212 296
216 4 2 3 1 282 289 268 315
217 4 2 3 1 288 311 300 314
218 4 2 3 1 127 277 250 305
219 4 2 3 1 88 95 76 293
220 4 2 3 1 287 297 291 326
221 4 2 3 1 291 298 287 327
222 4 2 3 1 288 303 335 342
223 4 2 3 1 264 263 278 295
224 4 2 3 1 285 306 292 339
225 4 2 3 1 211 171 172 296
226 4 2 3 1 303 321 182 337
227 4 2 3 1 297 300 146 338
228 4 2 3 1 165 202 201 304
229 4 2 3 1 288 295 293 314
230 4 2 3 1 165 298 202 304
231 4 2 3 1 298 339 335 342
232 4 2 3 1 178 180 303 335
233 4 2 3 1 289 331 299 336
234 4 2 3 1 292 297 287 322
235 4 2 3 1 182 303 180 321
236 4 2 3 1 182 180 303 337
237 4 2 3 1 306 322 161 338
238 4 2 3 1 292 339 298 342
239 4 2 3 1 189 310 86 313
240 4 2 3 1 78 295 79 332
241 4 2 3 1 227 297 124 307
242 4 2 3 1 289 308 299 331
243 4 2 3 1 226 296 212 316
244 4 2 3 1 88 293 76 312
245 4 2 3 1 245 286 278 295
246 4 2 3 1 292 298 291 342
247 4 2 3 1 218 303 220 334
248 4 2 3 1 89 313 290 325
249 4 2 3 1 287 292 306 330
250 4 2 3 1 295 305 79 332
251 4 2 3 1 298 175 304 327
252 4 2 3 1 281 115 155 308
253 4 2 3 1 113 333 120 336
254 4 2 3 1 75 86 189 310
255 4 2 3 1 243 215 297 307
256 4 2 3 1 133 124 297 307
257 4 2 3 1 76 95 81 305
258 4 2 3 1 172 296 186 318
259 4 2 3 1 259 292 249 328
260 4 2 3 1 289 333 282 340
261 4 2 3 1 81 149 121 305
262 4 2 3 1 158 121 293 312
263 4 2 3 1 129 299 270 308
264 4 2 3 1 243 241 215 307
265 4 2 3 1 184 304 193 315
266 4 2 3 1 286 309 252 319
267 4 2 3 1 288 293 290 324
268 4 2 3 1 133 307 297 322
269 4 2 3 1 133 132 124 307
270 4 2 3 1 113 308 333 336
271 4 2 3 1 115 151 155 308
272 4 2 3 1 244 290 222 337
273 4 2 3 1 264 295 286 319
274 4 2 3 1 218 291 303 334
275 4 2 3 1 324 334 303 342
276 4 2 3 1 178 303 291 335
277 4 2 3 1 148 83 76 312
278 4 2 3 1 243 297 227 307
279 4 2 3 1 335 339 301 342
280 4 2 3 1 215 297 307 326
281 4 2 3 1 244 313 290 337
282 4 2 3 1 289 299 294 336
283 4 2 3 1 133 132 307 322
284 4 2 3 1 89 86 310 313
285 4 2 3 1 89 310 290 313
286 4 2 3 1 161 292 147 306
287 4 2 3 1 89 325 290 332
288 4 2 3 1 290 313 244 325
289 4 2 3 1 268 289 282 340
290 4 2 3 1 288 319 314 328
291 4 2 3 1 138 123 292 328
292 4 2 3 1 213 212 302 316
293 4 2 3 1 113 331 308 336
294 4 2 3 1 299 331 294 336
295 4 2 3 1 140 139 311 314
296 4 2 3 1 288 335 301 342
297 4 2 3 1 248 298 304 330
298 4 2 3 1 132 145 307 322
299 4 2 3 1 292 287 306 322
300 4 2 3 1 147 138 292 338
301 4 2 3 1 241 243 227 307
302 4 2 3 1 193 315 289 320
303 4 2 3 1 193 289 318 320
304 4 2 3 1 250 305 267 314
305 4 2 3 1 155 270 281 308
306 4 2 3 1 76 121 148 312
307 4 2 3 1 209 234 294 317
308 4 2 3 1 141 140 139 311
309 4 2 3 1 127 305 250 314
310 4 2 3 1 95 305 293 332
311 4 2 3 1 82 313 89 325
312 4 2 3 1 287 299 289 340
313 4 2 3 1 159 145 294 317
314 4 2 3 1 287 291 302 326
315 4 2 3 1 291 287 302 327
316 4 2 3 1 207 146 297 300
317 4 2 3 1 244 236 222 325
318 4 2 3 1 170 184 193 315
319 4 2 3 1 289 287 304 318
320 4 2 3 1 314 319 263 328
321 4 2 3 1 132 135 145 322
322 4 2 3 1 172 173 302 318
323 4 2 3 1 244 313 231 325
324 4 2 3 1 287 289 304 340
325 4 2 3 1 293 311 288 314
326 4 2 3 1 168 252 309 319
327 4 2 3 1 259 285 249 292
328 4 2 3 1 147 136 138 338
329 4 2 3 1 222 324 290 325
330 4 2 3 1 234 209 294 307
331 4 2 3 1 285 249 292 306
332 4 2 3 1 199 310 290 321
333 4 2 3 1 209 228 234 317
334 4 2 3 1 295 305 293 314
335 4 2 3 1 146 133 124 297
336 4 2 3 1 256 271 248 298
337 4 2 3 1 300 334 324 342
338 4 2 3 1 172 167 206 302
339 4 2 3 1 287 298 304 327
340 4 2 3 1 278 263 267 314
341 4 2 3 1 290 321 303 337
342 4 2 3 1 95 79 305 332
343 4 2 3 1 115 105 151 308
344 4 2 3 1 299 306 283 340
345 4 2 3 1 290 310 199 313
346 4 2 3 1 234 307 294 316
347 4 2 3 1 234 216 307 316
348 4 2 3 1 158 293 141 312
349 4 2 3 1 298 335 291 342
350 4 2 3 1 137 146 300 338
351 4 2 3 1 213 226 212 316
352 4 2 3 1 175 318 304 327
353 4 2 3 1 201 304 175 318
354 4 2 3 1 297 287 307 326
355 4 2 3 1 248 256 298 330
356 4 2 3 1 191 168 309 319
357 4 2 3 1 139 137 300 338
358 4 2 3 1 165 271 188 298
359 4 2 3 1 260 301 271 339
360 4 2 3 1 206 212 172 302
361 4 2 3 1 227 207 146 297
362 4 2 3 1 272 85 74 305
363 4 2 3 1 129 143 270 299
364 4 2 3 1 189 199 310 313
365 4 2 3 1 193 304 176 318
366 4 2 3 1 150 293 121 305
367 4 2 3 1 277 154 284 305
368 4 2 3 1 89 290 310 332
369 4 2 3 1 292 322 306 338
370 4 2 3 1 249 147 123 292
371 4 2 3 1 219 220 324 334
372 4 2 3 1 78 309 295 310
373 4 2 3 1 290 313 199 337
374 4 2 3 1 290 324 293 325
375 4 2 3 1 154 91 284 305
376 4 2 3 1 214 218 334 341
377 4 2 3 1 282 268 253 315
378 4 2 3 1 152 145 299 331
379 4 2 3 1 178 174 335 341
380 4 2 3 1 189 162 75 310
381 4 2 3 1 264 286 252 319
382 4 2 3 1 139 125 144 311
383 4 2 3 1 287 304 318 327
384 4 2 3 1 294 331 112 336
385 4 2 3 1 258 299 283 340
386 4 2 3 1 309 191 319 321
387 4 2 3 1 155 151 129 308
388 4 2 3 1 141 140 311 314
389 4 2 3 1 75 89 86 310
390 4 2 3 1 264 278 286 295
391 4 2 3 1 112 294 317 331
392 4 2 3 1 164 185 205 303
393 4 2 3 1 145 159 294 331
394 4 2 3 1 95 293 88 332
395 4 2 3 1 287 316 307 326
396 4 2 3 1 291 334 218 341
397 4 2 3 1 243 297 215 326
398 4 2 3 1 285 330 306 339
399 4 2 3 1 291 335 303 342
400 4 2 3 1 178 335 291 341
401 4 2 3 1 285 259 330 339
402 4 2 3 1 287 294 307 316
403 4 2 3 1 175 298 202 327
404 4 2 3 1 182 199 290 321
405 4 2 3 1 295 319 288 321
406 4 2 3 1 215 307 316 326
407 4 2 3 1 182 290 199 337
408 4 2 3 1 241 215 307 316
409 4 2 3 1 225 312 311 325
410 4 2 3 1 254 248 165 304
411 4 2 3 1 205 185 223 303
412 4 2 3 1 159 130 145 317
413 4 2 3 1 83 88 76 312
414 4 2 3 1 172 186 173 318
415 4 2 3 1 146 133 297 338
416 4 2 3 1 231 313 82 325
417 4 2 3 1 271 298 256 339
418 4 2 3 1 139 300 125 311
419 4 2 3 1 311 293 324 325
420 4 2 3 1 88 293 325 332
421 4 2 3 1 103 329 323 336
422 4 2 3 1 245 272 74 305
423 4 2 3 1 303 321 290 324
424 4 2 3 1 214 334 326 341
425 4 2 3 1 285 259 257 330
426 4 2 3 1 113 120 104 336
427 4 2 3 1 249 147 292 306
428 4 2 3 1 327 335 174 341
429 4 2 3 1 293 311 141 312
430 4 2 3 1 150 141 293 314
431 4 2 3 1 160 306 299 322
432 4 2 3 1 320 329 103 336
433 4 2 3 1 152 145 135 299
434 4 2 3 1 102 333 320 336
435 4 2 3 1 78 310 295 332
436 4 2 3 1 113 114 331 336
437 4 2 3 1 270 299 276 308
438 4 2 3 1 207 125 146 300
439 4 2 3 1 188 271 247 301
440 4 2 3 1 211 212 226 296
441 4 2 3 1 186 172 171 296
442 4 2 3 1 233 107 100 323
443 4 2 3 1 281 275 115 308
444 4 2 3 1 155 129 270 308
445 4 2 3 1 207 300 297 334
446 4 2 3 1 165 188 202 298
447 4 2 3 1 151 152 308 331
448 4 2 3 1 112 323 294 336
449 4 2 3 1 137 146 125 300
450 4 2 3 1 295 309 319 321
451 4 2 3 1 158 148 121 312
452 4 2 3 1 227 243 207 297
453 4 2 3 1 180 179 181 321
454 4 2 3 1 152 299 129 308
455 4 2 3 1 259 328 261 339
456 4 2 3 1 260 247 271 301
457 4 2 3 1 183 247 265 319
458 4 2 3 1 269 251 126 306
459 4 2 3 1 220 324 303 337
460 4 2 3 1 152 129 151 308
461 4 2 3 1 171 296 211 329
462 4 2 3 1 326 334 291 341
463 4 2 3 1 289 320 333 336
464 4 2 3 1 315 320 102 333
465 4 2 3 1 293 312 88 325
466 4 2 3 1 112 317 294 323
467 4 2 3 1 288 311 293 324
468 4 2 3 1 291 335 327 341
469 4 2 3 1 236 324 222 325
470 4 2 3 1 150 158 121 293
471 4 2 3 1 227 124 131 307
472 4 2 3 1 181 301 319 321
473 4 2 3 1 113 104 114 336
474 4 2 3 1 103 106 119 323
475 4 2 3 1 203 244 231 325
476 4 2 3 1 248 304 255 330
477 4 2 3 1 306 330 283 340
478 4 2 3 1 101 163 98 320
479 4 2 3 1 160 299 135 322
480 4 2 3 1 289 333 308 336
481 4 2 3 1 226 296 316 323
482 4 2 3 1 128 311 235 312
483 4 2 3 1 293 305 295 332
484 4 2 3 1 194 110 320 329
485 4 2 3 1 110 163 194 320
486 4 2 3 1 185 303 180 337
487 4 2 3 1 233 317 107 323
488 4 2 3 1 303 324 290 337
489 4 2 3 1 275 109 115 308
490 4 2 3 1 110 98 163 320
491 4 2 3 1 220 222 324 337
492 4 2 3 1 219 324 300 334
493 4 2 3 1 220 303 223 337
494 4 2 3 1 159 317 294 331
495 4 2 3 1 125 224 144 311
496 4 2 3 1 226 240 296 323
497 4 2 3 1 285 257 306 330
498 4 2 3 1 140 138 139 314
499 4 2 3 1 143 299 160 306
500 4 2 3 1 222 290 324 337
501 4 2 3 1 296 329 320 336
502 4 2 3 1 126 249 269 306
503 4 2 3 1 251 270 143 299
504 4 2 3 1 138 123 147 292
505 4 2 3 1 138 314 123 328
506 4 2 3 1 82 89 90 325
507 4 2 3 1 323 329 296 336
508 4 2 3 1 292 330 298 339
509 4 2 3 1 91 154 149 305
510 4 2 3 1 200 186 296 320
511 4 2 3 1 149 150 121 305
512 4 2 3 1 287 304 298 330
513 4 2 3 1 186 318 296 320
514 4 2 3 1 125 300 224 311
515 4 2 3 1 235 311 225 312
516 4 2 3 1 151 308 105 331
517 4 2 3 1 205 60 187 229
518 4 2 3 1 178 179 180 335
519 4 2 3 1 290 182 321 337
520 4 2 3 1 299 308 152 331
521 4 2 3 1 283 299 251 306
522 4 2 3 1 205 60 164 187
523 4 2 3 1 89 90 325 332
524 4 2 3 1 101 315 192 320
525 4 2 3 1 192 163 101 320
526 4 2 3 1 185 223 303 337
527 4 2 3 1 153 317 159 331
528 4 2 3 1 102 120 333 336
529 4 2 3 1 62 172 167 206
530 4 2 3 1 288 321 303 324
531 4 2 3 1 114 112 331 336
532 4 2 3 1 287 297 307 322
533 4 2 3 1 103 106 323 329
534 4 2 3 1 100 204 233 323
535 4 2 3 1 311 312 293 325
536 4 2 3 1 234 216 209 307
537 4 2 3 1 261 259 249 328
538 4 2 3 1 218 220 219 334
539 4 2 3 1 112 317 111 331
540 4 2 3 1 287 316 302 318
541 4 2 3 1 189 199 162 310
542 4 2 3 1 150 141 158 293
543 4 2 3 1 96 310 78 332
544 4 2 3 1 185 164 205 59
545 4 2 3 1 211 172 63 212
546 4 2 3 1 127 250 142 314
547 4 2 3 1 193 184 176 304
548 4 2 3 1 62 172 206 212
549 4 2 3 1 295 310 309 321
550 4 2 3 1 290 325 293 332
551 4 2 3 1 179 301 181 321
552 4 2 3 1 154 277 127 305
553 4 2 3 1 251 299 143 306
554 4 2 3 1 139 138 137 338
555 4 2 3 1 85 79 74 305
556 4 2 3 1 208 235 128 311
557 4 2 3 1 299 306 287 322
558 4 2 3 1 297 322 292 338
559 4 2 3 1 201 175 176 318
560 4 2 3 1 222 220 223 337
561 4 2 3 1 258 283 330 340
562 4 2 3 1 205 223 185 59
563 4 2 3 1 251 283 258 299
564 4 2 3 1 206 214 213 302
565 4 2 3 1 173 174 167 302
566 4 2 3 1 258 276 299 340
567 4 2 3 1 91 149 81 305
568 4 2 3 1 172 211 63 171
569 4 2 3 1 241 216 215 316
570 4 2 3 1 292 306 330 339
571 4 2 3 1 248 255 256 330
572 4 2 3 1 182 185 180 337
573 4 2 3 1 289 320 315 333
574 4 2 3 1 143 160 126 306
575 4 2 3 1 227 45 124 146
576 4 2 3 1 134 161 306 322
577 4 2 3 1 214 213 302 326
578 4 2 3 1 46 131 227 124
579 4 2 3 1 174 302 173 327
580 4 2 3 1 107 317 112 323
581 4 2 3 1 106 232 323 329
582 4 2 3 1 232 240 323 329
583 4 2 3 1 166 301 247 319
584 4 2 3 1 150 293 305 314
585 4 2 3 1 167 302 174 341
586 4 2 3 1 214 302 206 341
587 4 2 3 1 248 254 165 70
588 4 2 3 1 296 323 240 329
589 4 2 3 1 288 324 303 342
590 4 2 3 1 288 319 301 321
591 4 2 3 1 284 91 272 305
592 4 2 3 1 123 314 266 328
593 4 2 3 1 260 262 301 328
594 4 2 3 1 304 330 287 340
595 4 2 3 1 69 248 271 165
596 4 2 3 1 251 276 270 299
597 4 2 3 1 102 315 101 320
598 4 2 3 1 139 300 138 338
599 4 2 3 1 126 161 147 306
600 4 2 3 1 309 310 191 321
601 4 2 3 1 150 305 127 314
602 4 2 3 1 84 309 78 310
603 4 2 3 1 270 275 281 308
604 4 2 3 1 262 263 319 328
605 4 2 3 1 184 254 165 304
606 4 2 3 1 111 317 153 331
607 4 2 3 1 178 180 164 303
608 4 2 3 1 287 318 302 327
609 4 2 3 1 253 254 71 170
610 4 2 3 1 291 303 334 342
611 4 2 3 1 296 318 289 320
612 4 2 3 1 228 130 131 47
613 4 2 3 1 134 322 133 338
614 4 2 3 1 294 234 316 323
615 4 2 3 1 260 328 301 339
616 4 2 3 1 308 333 289 340
617 4 2 3 1 200 186 171 296
618 4 2 3 1 66 252 168 265
619 4 2 3 1 214 326 302 341
620 4 2 3 1 174 302 327 341
621 4 2 3 1 302 316 287 326
622 4 2 3 1 122 153 159 331
623 4 2 3 1 240 211 296 329
624 4 2 3 1 200 296 171 329
625 4 2 3 1 80 95 88 332
626 4 2 3 1 226 240 211 296
627 4 2 3 1 247 301 262 319
628 4 2 3 1 96 84 78 310
629 4 2 3 1 110 103 320 329
630 4 2 3 1 220 218 205 303
631 4 2 3 1 115 109 105 308
632 4 2 3 1 208 225 235 311
633 4 2 3 1 143 126 251 306
634 4 2 3 1 302 316 296 318
635 4 2 3 1 243 297 326 334
636 4 2 3 1 262 319 301 328
637 4 2 3 1 213 215 316 326
638 4 2 3 1 98 101 35 163
639 4 2 3 1 202 327 298 335
640 4 2 3 1 119 103 323 336
641 4 2 3 1 191 183 168 319
642 4 2 3 1 141 311 128 312
643 4 2 3 1 278 272 245 305
644 4 2 3 1 134 133 136 338
645 4 2 3 1 200 320 296 329
646 4 2 3 1 175 173 318 327
647 4 2 3 1 95 80 79 332
648 4 2 3 1 146 137 133 338
649 4 2 3 1 201 176 304 318
650 4 2 3 1 271 256 260 339
651 4 2 3 1 225 311 221 324
652 4 2 3 1 256 257 259 330
653 4 2 3 1 288 300 324 342
654 4 2 3 1 226 316 234 323
655 4 2 3 1 158 141 128 312
656 4 2 3 1 206 213 212 302
657 4 2 3 1 167 172 173 302
658 4 2 3 1 256 330 259 339
659 4 2 3 1 294 317 234 323
660 4 2 3 1 85 272 91 305
661 4 2 3 1 277 284 272 305
662 4 2 3 1 288 290 321 324
663 4 2 3 1 258 276 251 299
664 4 2 3 1 194 320 200 329
665 4 2 3 1 276 308 299 340
666 4 2 3 1 227 131 209 307
667 4 2 3 1 266 142 250 314
668 4 2 3 1 133 322 297 338
669 4 2 3 1 299 308 289 340
670 4 2 3 1 251 269 283 306
671 4 2 3 1 225 221 236 324
672 4 2 3 1 224 208 144 311
673 4 2 3 1 75 162 84 310
674 4 2 3 1 160 134 161 306
675 4 2 3 1 288 300 311 324
676 4 2 3 1 114 104 112 336
677 4 2 3 1 38 99 109 246
678 4 2 3 1 276 333 308 340
679 4 2 3 1 30 233 107 100
680 4 2 3 1 213 215 216 316
681 4 2 3 1 101 192 35 163
682 4 2 3 1 243 207 297 334
683 4 2 3 1 232 31 106 100
684 4 2 3 1 249 285 269 306
685 4 2 3 1 160 134 306 322
686 4 2 3 1 202 298 188 335
687 4 2 3 1 207 224 125 300
688 4 2 3 1 241 307 216 316
689 4 2 3 1 208 128 144 311
690 4 2 3 1 31 232 204 100
691 4 2 3 1 246 99 308 333
692 4 2 3 1 210 313 244 337
693 4 2 3 1 98 110 103 320
694 4 2 3 1 107 112 100 323
695 4 2 3 1 288 301 319 328
696 4 2 3 1 205 223 220 303
697 4 2 3 1 178 187 174 341
698 4 2 3 1 282 333 276 340
699 4 2 3 1 229 218 214 341
700 4 2 3 1 169 199 313 337
701 4 2 3 1 206 302 167 341
702 4 2 3 1 247 262 265 319
703 4 2 3 1 296 320 289 336
704 4 2 3 1 291 334 297 342
705 4 2 3 1 127 149 154 305
706 4 2 3 1 175 173 176 318
707 4 2 3 1 193 318 186 320
708 4 2 3 1 226 234 240 323
709 4 2 3 1 89 310 96 332
710 4 2 3 1 243 326 217 334
711 4 2 3 1 164 180 185 303
712 4 2 3 1 213 316 302 326
713 4 2 3 1 177 327 202 335
714 4 2 3 1 145 152 159 331
715 4 2 3 1 163 34 98 110
716 4 2 3 1 219 224 300 311
717 4 2 3 1 247 166 188 301
718 4 2 3 1 163 34 110 194
719 4 2 3 1 266 250 263 314
720 4 2 3 1 183 166 247 319
721 4 2 3 1 151 105 97 331
722 4 2 3 1 190 309 84 310
723 4 2 3 1 263 266 314 328
724 4 2 3 1 162 190 84 310
725 4 2 3 1 302 318 173 327
726 4 2 3 1 151 97 122 331
727 4 2 3 1 78 79 80 332
728 4 2 3 1 98 102 101 320
729 4 2 3 1 150 140 141 314
730 4 2 3 1 160 161 126 306
731 4 2 3 1 125 139 137 300
732 4 2 3 1 126 147 249 306
733 4 2 3 1 183 247 67 265
734 4 2 3 1 81 11 76 121
735 4 2 3 1 86 189 18 75
736 4 2 3 1 248 254 255 304
737 4 2 3 1 273 23 77 245
738 4 2 3 1 269 251 54 126
739 4 2 3 1 109 275 38 246
740 4 2 3 1 105 308 113 331
741 4 2 3 1 88 325 90 332
742 4 2 3 1 129 152 143 299
743 4 2 3 1 156 235 242 312
744 4 2 3 1 10 148 83 76
745 4 2 3 1 291 326 297 334
746 4 2 3 1 297 338 292 342
747 4 2 3 1 23 74 77 245
748 4 2 3 1 298 327 291 335
749 4 2 3 1 262 247 260 301
750 4 2 3 1 233 30 204 100
751 4 2 3 1 254 184 71 170
752 4 2 3 1 131 209 228 47
753 4 2 3 1 234 317 233 323
754 4 2 3 1 294 316 296 323
755 4 2 3 1 310 321 295 332
756 4 2 3 1 162 19 75 84
757 4 2 3 1 200 194 163 320
758 4 2 3 1 256 298 330 339
759 4 2 3 1 55 129 143 270
760 4 2 3 1 266 261 249 328
761 4 2 3 1 191 310 199 321
762 4 2 3 1 203 73 230 325
763 4 2 3 1 225 230 312 325
764 4 2 3 1 250 267 263 314
765 4 2 3 1 112 111 114 331
766 4 2 3 1 227 209 131 46
767 4 2 3 1 200 193 186 320
768 4 2 3 1 268 255 254 304
769 4 2 3 1 183 66 168 265
770 4 2 3 1 11 81 149 121
771 4 2 3 1 184 165 254 70
772 4 2 3 1 242 94 156 312
773 4 2 3 1 294 323 296 336
774 4 2 3 1 85 91 81 305
775 4 2 3 1 262 263 264 319
776 4 2 3 1 122 97 26 153
777 4 2 3 1 142 266 123 314
778 4 2 3 1 207 224 300 334
779 4 2 3 1 255 304 268 340
780 4 2 3 1 188 68 247 271
781 4 2 3 1 113 109 99 308
782 4 2 3 1 301 328 288 342
783 4 2 3 1 181 319 191 321
784 4 2 3 1 150 127 142 314
785 4 2 3 1 132 145 131 307
786 4 2 3 1 143 135 160 299
787 4 2 3 1 272 278 267 305
788 4 2 3 1 99 113 308 333
789 4 2 3 1 14 230 203 73
790 4 2 3 1 249 269 53 126
791 4 2 3 1 193 192 315 320
792 4 2 3 1 84 162 19 190
793 4 2 3 1 119 323 112 336
794 4 2 3 1 184 165 201 304
795 4 2 3 1 15 203 231 73
796 4 2 3 1 290 321 310 332
797 4 2 3 1 125 44 207 146
798 4 2 3 1 82 15 231 73
799 4 2 3 1 128 141 144 311
800 4 2 3 1 148 94 83 312
801 4 2 3 1 181 182 180 321
802 4 2 3 1 243 217 207 334
803 4 2 3 1 141 139 144 311
804 4 2 3 1 202 188 177 335
805 4 2 3 1 120 102 104 336
806 4 2 3 1 124 132 131 307
807 4 2 3 1 75 189 18 162
808 4 2 3 1 148 156 94 312
809 4 2 3 1 108 315 102 333
810 4 2 3 1 10 148 76 121
811 4 2 3 1 257 283 306 330
812 4 2 3 1 219 300 224 334
813 4 2 3 1 297 300 338 342
814 4 2 3 1 260 261 262 328
815 4 2 3 1 188 301 166 335
816 4 2 3 1 82 86 89 313
817 4 2 3 1 88 90 80 332
818 4 2 3 1 93 273 77 309
819 4 2 3 1 182 191 199 321
820 4 2 3 1 45 227 207 146
821 4 2 3 1 232 240 204 323
822 4 2 3 1 238 198 64 329
823 4 2 3 1 69 271 188 165
824 4 2 3 1 87 88 312 325
825 4 2 3 1 279 273 93 309
826 4 2 3 1 237 57 197 313
827 4 2 3 1 242 230 94 312
828 4 2 3 1 240 232 211 329
829 4 2 3 1 257 258 283 330
830 4 2 3 1 127 150 149 305
831 4 2 3 1 81 95 79 305
832 4 2 3 1 151 27 97 105
833 4 2 3 1 102 320 103 336
834 4 2 3 1 84 77 78 309
835 4 2 3 1 219 221 224 311
836 4 2 3 1 42 235 128 208
837 4 2 3 1 184 201 176 304
838 4 2 3 1 122 27 97 151
839 4 2 3 1 214 218 217 334
840 4 2 3 1 125 43 144 224
841 4 2 3 1 177 178 174 335
842 4 2 3 1 191 309 190 310
843 4 2 3 1 297 334 300 342
844 4 2 3 1 230 73 87 325
845 4 2 3 1 252 265 264 319
846 4 2 3 1 261 328 260 339
847 4 2 3 1 143 152 135 299
848 4 2 3 1 156 128 235 312
849 4 2 3 1 179 166 301 335
850 4 2 3 1 89 75 96 310
851 4 2 3 1 166 181 179 301
852 4 2 3 1 101 102 108 315
853 4 2 3 1 105 109 113 308
854 4 2 3 1 216 241 209 307
855 4 2 3 1 277 272 267 305
856 4 2 3 1 55 143 251 270
857 4 2 3 1 144 42 128 208
858 4 2 3 1 111 26 97 153
859 4 2 3 1 251 54 126 143
860 4 2 3 1 114 105 113 331
861 4 2 3 1 210 244 222 337
862 4 2 3 1 214 217 326 334
863 4 2 3 1 160 135 134 322
864 4 2 3 1 169 182 199 337
865 4 2 3 1 177 174 327 335
866 4 2 3 1 274 108 39 333
867 4 2 3 1 96 78 80 332
868 4 2 3 1 246 274 39 333
869 4 2 3 1 92 189 86 313
870 4 2 3 1 207 217 219 334
871 4 2 3 1 183 191 181 319
872 4 2 3 1 204 234 233 323
873 4 2 3 1 99 246 39 333
874 4 2 3 1 39 108 99 333
875 4 2 3 1 241 227 209 307
876 4 2 3 1 179 177 188 335
877 4 2 3 1 230 14 87 73
878 4 2 3 1 277 50 127 250
879 4 2 3 1 225 236 230 325
880 4 2 3 1 92 231 237 313
881 4 2 3 1 224 221 208 311
882 4 2 3 1 168 279 195 309
883 4 2 3 1 238 64 211 329
884 4 2 3 1 57 237 210 313
885 4 2 3 1 99 120 113 333
886 4 2 3 1 119 112 104 336
887 4 2 3 1 119 106 100 323
888 4 2 3 1 291 327 302 341
889 4 2 3 1 302 326 291 341
890 4 2 3 1 171 64 198 329
891 4 2 3 1 208 144 43 224
892 4 2 3 1 93 190 195 309
893 4 2 3 1 197 189 92 313
894 4 2 3 1 89 96 80 332
895 4 2 3 1 255 330 304 340
896 4 2 3 1 57 169 197 313
897 4 2 3 1 110 106 103 329
898 4 2 3 1 82 231 92 313
899 4 2 3 1 114 111 97 331
900 4 2 3 1 135 132 134 322
901 4 2 3 1 246 308 276 333
902 4 2 3 1 134 132 133 322
903 4 2 3 1 93 84 190 309
904 4 2 3 1 282 315 274 333
905 4 2 3 1 85 81 79 305
906 4 2 3 1 268 282 276 340
907 4 2 3 1 286 273 252 309
908 4 2 3 1 247 183 67 166
909 4 2 3 1 82 90 73 325
910 4 2 3 1 75 84 96 310
911 4 2 3 1 168 252 279 309
912 4 2 3 1 230 87 312 325
913 4 2 3 1 226 216 234 316
914 4 2 3 1 280 118 274 315
915 4 2 3 1 243 215 217 326
916 4 2 3 1 157 239 228 317
917 4 2 3 1 177 175 202 327
918 4 2 3 1 238 232 116 329
919 4 2 3 1 192 101 118 315
920 4 2 3 1 206 167 61 341
921 4 2 3 1 233 117 107 317
922 4 2 3 1 117 233 239 317
923 4 2 3 1 207 219 224 334
924 4 2 3 1 231 244 210 313
925 4 2 3 1 153 117 157 317
926 4 2 3 1 169 199 189 313
927 4 2 3 1 103 102 98 320
928 4 2 3 1 140 142 123 314
929 4 2 3 1 176 186 193 318
930 4 2 3 1 255 258 330 340
931 4 2 3 1 196 280 170 315
932 4 2 3 1 57 210 169 313
933 4 2 3 1 279 93 195 309
934 4 2 3 1 257 283 285 306
935 4 2 3 1 106 116 232 329
936 4 2 3 1 193 163 192 320
937 4 2 3 1 171 211 64 329
938 4 2 3 1 274 118 108 315
939 4 2 3 1 108 102 120 333
940 4 2 3 1 235 230 242 312
941 4 2 3 1 274 315 108 333
942 4 2 3 1 102 103 104 336
943 4 2 3 1 282 246 276 333
944 4 2 3 1 196 192 118 315
945 4 2 3 1 138 140 123 314
946 4 2 3 1 258 257 255 330
947 4 2 3 1 53 147 249 126
948 4 2 3 1 269 285 283 306
949 4 2 3 1 93 24 77 273
950 4 2 3 1 44 125 207 224
951 4 2 3 1 111 112 107 317
952 4 2 3 1 179 188 166 335
953 4 2 3 1 226 213 216 316
954 4 2 3 1 219 220 221 324
955 4 2 3 1 230 235 225 312
956 4 2 3 1 24 93 279 273
957 4 2 3 1 83 87 88 312
958 4 2 3 1 68 166 188 247
959 4 2 3 1 17 92 189 86
960 4 2 3 1 253 170 280 315
961 4 2 3 1 87 94 230 312
962 4 2 3 1 87 90 88 325
963 4 2 3 1 167 187 61 341
964 4 2 3 1 206 61 229 341
965 4 2 3 1 236 221 222 324
966 4 2 3 1 187 229 61 341
967 4 2 3 1 275 37 115 109
968 4 2 3 1 263 261 266 328
969 4 2 3 1 142 127 50 250
970 4 2 3 1 148 94 9 83
971 4 2 3 1 157 228 130 317
972 4 2 3 1 100 112 119 323
973 4 2 3 1 276 246 275 308
974 4 2 3 1 228 239 157 48
975 4 2 3 1 116 110 194 329
976 4 2 3 1 117 233 29 239
977 4 2 3 1 115 281 37 275
978 4 2 3 1 33 110 194 116
979 4 2 3 1 107 233 29 117
980 4 2 3 1 192 36 118 101
981 4 2 3 1 274 282 253 315
982 4 2 3 1 210 169 313 337
983 4 2 3 1 156 94 9 148
984 4 2 3 1 17 92 197 189
985 4 2 3 1 159 153 130 317
986 4 2 3 1 170 193 192 315
987 4 2 3 1 176 173 186 318
988 4 2 3 1 168 190 191 309
989 4 2 3 1 250 51 142 266
990 4 2 3 1 234 228 233 317
991 4 2 3 1 177 174 175 327
992 4 2 3 1 214 217 215 326
993 4 2 3 1 236 203 230 325
994 4 2 3 1 198 33 194 116
995 4 2 3 1 194 198 116 329
996 4 2 3 1 280 72 196 170
997 4 2 3 1 214 215 213 326
998 4 2 3 1 174 173 175 327
999 4 2 3 1 80 90 89 332
1000 4 2 3 1 117 239 157 317
1001 4 2 3 1 196 36 118 192
1002 4 2 3 1 168 195 279 65
1003 4 2 3 1 270 276 275 308
1004 4 2 3 1 210 58 169 337
1005 4 2 3 1 92 237 197 313
1006 4 2 3 1 237 16 231 92
1007 4 2 3 1 194 200 171 329
1008 4 2 3 1 191 190 162 310
1009 4 2 3 1 244 203 236 325
1010 4 2 3 1 119 104 103 336
1011 4 2 3 1 128 156 148 312
1012 4 2 3 1 157 153 25 117
1013 4 2 3 1 148 158 128 312
1014 4 2 3 1 270 56 155 281
1015 4 2 3 1 82 231 16 92
1016 4 2 3 1 72 280 253 170
1017 4 2 3 1 157 130 228 48
1018 4 2 3 1 279 252 168 65
1019 4 2 3 1 196 118 280 315
1020 4 2 3 1 32 116 238 232
1021 4 2 3 1 111 117 153 317
1022 4 2 3 1 262 264 265 319
1023 4 2 3 1 221 225 208 311
1024 4 2 3 1 187 167 174 341
1025 4 2 3 1 229 214 206 341
1026 4 2 3 1 252 273 279 309
1027 4 2 3 1 21 272 284 91
1028 4 2 3 1 151 122 152 331
1029 4 2 3 1 220 222 221 324
1030 4 2 3 1 41 235 242 156
1031 4 2 3 1 257 256 255 330
1032 4 2 3 1 73 90 87 325
1033 4 2 3 1 280 40 274 118
1034 4 2 3 1 81 91 12 149
1035 4 2 3 1 223 185 58 337
1036 4 2 3 1 91 154 12 149
1037 4 2 3 1 272 21 85 91
1038 4 2 3 1 116 32 106 232
1039 4 2 3 1 204 240 234 323
1040 4 2 3 1 105 151 28 115
1041 4 2 3 1 115 151 28 155
1042 4 2 3 1 20 84 190 93
1043 4 2 3 1 87 83 94 312
1044 4 2 3 1 211 232 238 329
1045 4 2 3 1 195 20 190 93
1046 4 2 3 1 94 242 13 230
1047 4 2 3 1 97 105 114 331
1048 4 2 3 1 263 262 261 328
1049 4 2 3 1 108 274 40 118
1050 4 2 3 1 210 223 58 337
1051 4 2 3 1 185 169 58 337
1052 4 2 3 1 235 41 128 156
1053 4 2 3 1 93 77 84 309
1054 4 2 3 1 199 191 162 310
1055 4 2 3 1 61 187 60 229
1056 4 2 3 1 198 238 116 329
1057 4 2 3 1 62 167 61 206
1058 4 2 3 1 150 142 140 314
1059 4 2 3 1 164 60 205 59
1060 4 2 3 1 64 211 171 63
1061 4 2 3 1 255 268 258 340
1062 4 2 3 1 136 133 137 338
1063 4 2 3 1 256 259 260 339
1064 4 2 3 1 58 57 210 169
1065 4 2 3 1 82 92 86 313
1066 4 2 3 1 284 277 49 154
1067 4 2 3 1 169 185 182 337
1068 4 2 3 1 246 282 274 333
1069 4 2 3 1 193 200 163 320
1070 4 2 3 1 210 237 231 313
1071 4 2 3 1 169 189 197 313
1072 4 2 3 1 122 159 152 331
1073 4 2 3 1 51 123 142 266
1074 4 2 3 1 77 24 23 273
1075 4 2 3 1 56 155 129 270
1076 4 2 3 1 249 123 52 266
1077 4 2 3 1 52 147 123 249
1078 4 2 3 1 153 111 25 117
1079 4 2 3 1 253 280 274 315
1080 4 2 3 1 210 222 223 337
1081 4 2 3 1 172 62 63 212
1082 4 2 3 1 59 223 185 58
1083 4 2 3 1 16 15 231 82
1084 4 2 3 1 153 157 130 317
1085 4 2 3 1 233 29 30 107
1086 4 2 3 1 35 36 192 101
1087 4 2 3 1 108 118 101 315
1088 4 2 3 1 45 46 227 124
1089 4 2 3 1 178 177 179 335
1090 4 2 3 1 190 168 195 309
1091 4 2 3 1 218 219 217 334
1092 4 2 3 1 165 69 248 70
1093 4 2 3 1 233 228 239 317
1094 4 2 3 1 181 191 182 321
1095 4 2 3 1 81 12 11 149
1096 4 2 3 1 138 136 137 338
1097 4 2 3 1 23 22 74 245
1098 4 2 3 1 28 27 151 105
1099 4 2 3 1 109 275 37 38
1100 4 2 3 1 9 10 148 83
1101 4 2 3 1 259 261 260 339
1102 4 2 3 1 19 20 84 190
1103 4 2 3 1 35 34 98 163
1104 4 2 3 1 87 94 13 230
1105 4 2 3 1 276 258 268 340
1106 4 2 3 1 108 120 99 333
1107 4 2 3 1 106 32 31 232
1108 4 2 3 1 269 54 53 126
1109 4 2 3 1 108 274 39 40
1110 4 2 3 1 189 18 17 86
1111 4 2 3 1 154 277 49 127
1112 4 2 3 1 194 171 198 329
1113 4 2 3 1 170 192 196 315
1114 4 2 3 1 116 106 110 329
1115 4 2 3 1 71 72 253 170
1116 4 2 3 1 47 228 130 48
1117 4 2 3 1 107 117 111 317
1118 4 2 3 1 65 252 168 66
1119 4 2 3 1 204 30 31 100
1120 4 2 3 1 246 38 99 39
1121 4 2 3 1 34 33 110 194
1122 4 2 3 1 144 43 42 208
1123 4 2 3 1 118 280 8 196
1124 4 2 3 1 93 195 4 279
1125 4 2 3 1 76 11 10 121
1126 4 2 3 1 75 18 19 162
1127 4 2 3 1 41 42 235 128
1128 4 2 3 1 6 115 155 281
1129 4 2 3 1 2 284 154 91
1130 4 2 3 1 116 198 7 238
1131 4 2 3 1 92 237 3 197
1132 4 2 3 1 5 157 117 239
1133 4 2 3 1 209 131 46 47
1134 4 2 3 1 1 242 94 156
1135 4 2 3 1 254 184 70 71
1136 4 2 3 1 188 68 271 69
1137 4 2 3 1 183 67 66 265
1138 4 2 3 1 22 21 85 272
1139 4 2 3 1 45 207 44 146
1140 4 2 3 1 125 44 43 224
1141 4 2 3 1 67 166 68 247
1142 4 2 3 1 25 26 111 153
1143 4 2 3 1 251 54 143 55
1144 4 2 3 1 55 56 129 270
1145 4 2 3 1 51 142 50 250
1146 4 2 3 1 36 118 8 196
1147 4 2 3 1 87 13 14 230
1148 4 2 3 1 4 24 93 279
1149 4 2 3 1 198 7 33 116
1150 4 2 3 1 15 14 203 73
1151 4 2 3 1 6 115 281 37
1152 4 2 3 1 117 29 5 239
1153 4 2 3 1 2 21 284 91
1154 4 2 3 1 92 3 17 197
1155 4 2 3 1 94 9 1 156
1156 4 2 3 1 97 26 27 122
1157 4 2 3 1 277 50 49 127
1158 4 2 3 1 154 12 2 91
1159 4 2 3 1 157 25 5 117
1160 4 2 3 1 13 1 242 94
1161 4 2 3 1 238 198 7 64
1162 4 2 3 1 280 72 8 196
1163 4 2 3 1 56 6 155 281
1164 4 2 3 1 237 57 3 197
1165 4 2 3 1 28 6 115 155
1166 4 2 3 1 279 195 4 65
1167 4 2 3 1 195 4 20 93
1168 4 2 3 1 2 284 49 154
1169 4 2 3 1 239 5 157 48
1170 4 2 3 1 7 32 116 238
1171 4 2 3 1 1 41 242 156
1172 4 2 3 1 237 3 16 92
1173 4 2 3 1 8 40 280 118
1174 4 2 3 1 249 52 147 53
1175 4 2 3 1 51 52 123 266
1176 4 2 3 1 332 321 288 290
1177 4 2 3 1 332 288 321 295
1178 4 2 3 1 338 147 161 292
1179 4 2 3 1 338 161 147 136
1180 4 2 3 1 304 202 175 298
1181 4 2 3 1 304 175 202 201
1182 4 2 3 1 317 307 145 294
1183 4 2 3 1 249 328 123 266
1184 4 2 3 1 123 328 249 292
1185 4 2 3 1 335 180 301 179
1186 4 2 3 1 335 301 180 303
1187 4 2 3 1 321 301 180 179
1188 4 2 3 1 321 180 301 303
1189 4 2 3 1 335 339 271 301
1190 4 2 3 1 271 339 335 298
1191 4 2 3 1 271 188 335 301
1192 4 2 3 1 335 188 271 298
1193 4 2 3 1 342 339 328 292
1194 4 2 3 1 342 328 339 301
1195 4 2 3 1 324 225 325 236
1196 4 2 3 1 324 325 225 311
1197 4 2 3 1 338 134 161 136
1198 4 2 3 1 338 161 134 322
1199 4 2 3 1 340 306 287 299
1200 4 2 3 1 340 287 306 330
1201 4 2 3 1 319 166 181 183
1202 4 2 3 1 319 181 166 301
1203 4 2 3 1 232 100 323 204
1204 4 2 3 1 323 100 232 106
1205 4 2 3 1 228 131 317 209
1206 4 2 3 1 228 317 131 130
1207 4 2 3 1 307 317 131 209
1208 4 2 3 1 168 265 319 183
1209 4 2 3 1 319 265 168 252
1210 4 2 3 1 74 272 22 85
1211 4 2 3 1 22 272 74 245
1212 4 2 3 1 254 170 315 184
1213 4 2 3 1 315 170 254 253
1214 4 2 3 1 315 304 254 184
1215 4 2 3 1 109 246 308 275
1216 4 2 3 1 308 246 109 99
1217 4 2 3 1 231 73 325 82
1218 4 2 3 1 325 73 231 203
1219 4 2 3 1 311 219 324 300
1220 4 2 3 1 311 324 219 221
1221 4 2 3 1 153 97 331 122
1222 4 2 3 1 153 331 97 111
1223 4 2 3 1 317 131 145 307
1224 4 2 3 1 317 145 131 130
1225 4 2 3 1 254 315 268 304
1226 4 2 3 1 268 315 254 253
$EndElements
