$MeshFormat
2.2 0 8
$EndMeshFormat
$PhysicalNames
3
2 1 "Fixed"
2 2 "Load"
3 3 "Volume"
$EndPhysicalNames
$Nodes
392
1 3.169173544334e-15 -40 0
2 0 40 0
3 3.169173544334e-15 -40 100
4 2.523261489251e-15 -37 100
5 2.523261489251e-15 -37 3
6 0 -1 3
7 0 -1 100
8 0 1 100
9 0 1 3
10 0 37 3
11 0 37 100
12 0 40 100
13 39.987498046264 1.000000000001 100
14 39.987498046264 1 3
15 40 -2.775557561563e-15 3
16 39.987498046264 -1 3
17 39.987498046264 -1.000000000001 100
18 40 1 100
19 40 -1 100
20 36.986484017814 -1 100
21 36.986484017814 1 100
22 36.986484017814 1 3
23 36.986484017814 -1 3
24 40 -1 3
25 40 1 3
26 0 -26.66666666666665 0
27 0 -13.33333333333331 0
28 0 1.4210854715202e-14 0
29 0 13.33333333333334 0
30 0 26.66666666666667 0
31 3.169173544334e-15 -40 12.49999999999999
32 3.169173544334e-15 -40 24.99999999999995
33 3.169173544334e-15 -40 37.49999999999995
34 3.169173544334e-15 -40 49.99999999999996
35 3.169173544334e-15 -40 62.49999999999996
36 3.169173544334e-15 -40 74.99999999999997
37 3.169173544334e-15 -40 87.49999999999999
38 2.523261489251e-15 -37 15.12499999999997
39 2.523261489251e-15 -37 27.24999999999994
40 2.523261489251e-15 -37 39.37499999999994
41 2.523261489251e-15 -37 51.49999999999995
42 2.523261489251e-15 -37 63.62499999999996
43 2.523261489251e-15 -37 75.74999999999997
44 2.523261489251e-15 -37 87.87499999999999
45 0 -25.00000000000002 3
46 0 -13.00000000000006 3
47 0 -1 15.12499999999997
48 0 -1 27.24999999999994
49 0 -1 39.37499999999994
50 0 -1 51.49999999999995
51 0 -1 63.62499999999996
52 0 -1 75.74999999999997
53 0 -1 87.87499999999999
54 0 1 15.12499999999997
55 0 1 27.24999999999994
56 0 1 39.37499999999994
57 0 1 51.49999999999995
58 0 1 63.62499999999996
59 0 1 75.74999999999997
60 0 1 87.87499999999999
61 0 12.99999999999998 3
62 0 24.99999999999994 3
63 0 37 15.12499999999997
64 0 37 27.24999999999994
65 0 37 39.37499999999994
66 0 37 51.49999999999995
67 0 37 63.62499999999996
68 0 37 75.74999999999997
69 0 37 87.87499999999999
70 0 40 12.49999999999999
71 0 40 24.99999999999995
72 0 40 37.49999999999995
73 0 40 49.99999999999996
74 0 40 62.49999999999996
75 0 40 74.99999999999997
76 0 40 87.49999999999999
77 12.36067977499789 38.04226065180615 0
78 23.51141009169891 32.36067977499791 0
79 32.36067977499789 23.51141009169893 0
80 38.04226065180613 12.36067977499792 0
81 40 9.224791315704557e-15 0
82 38.04226065180614 -12.36067977499792 0
83 32.36067977499788 -23.51141009169896 0
84 23.51141009169887 -32.36067977499794 0
85 12.36067977499782 -38.04226065180617 0
86 12.17029490490528 38.10359460638374 100
87 23.18659916483243 32.59419609638182 100
88 32.00434383896926 23.99420712249168 100
89 37.78742799933756 13.11908095846961 100
90 39.987498046264 1 87.87500000000003
91 39.987498046264 1 75.75000000000006
92 39.987498046264 1 63.62500000000006
93 39.987498046264 1 51.50000000000005
94 39.987498046264 1 39.37500000000004
95 39.987498046264 1 27.25000000000002
96 39.987498046264 1 15.12500000000001
97 39.987498046264 -1 87.87500000000003
98 39.987498046264 -1 75.75000000000006
99 39.987498046264 -1 63.62500000000006
100 39.987498046264 -1 51.50000000000005
101 39.987498046264 -1 39.37500000000004
102 39.987498046264 -1 27.25000000000002
103 39.987498046264 -1 15.12500000000001
104 37.78742799933757 -13.11908095846959 100
105 32.00434383896927 -23.99420712249167 100
106 23.18659916483245 -32.59419609638181 100
107 12.17029490490529 -38.10359460638374 100
108 34.93363963272365 -12.19183423488851 100
109 29.57699352244343 -22.23064223483747 100
110 21.42314324870562 -30.16701730939668 100
111 11.24322817415718 -35.25038751877543 100
112 12.32882800593801 -1 100
113 24.65765601187603 -1 100
114 12.32882800593801 1 100
115 24.65765601187603 1 100
116 11.24322817415719 35.25038751877542 100
117 21.42314324870567 30.16701730939664 100
118 29.57699352244347 22.2306422348374 100
119 34.93363963272366 12.19183423488847 100
120 11.24322817415719 35.25038751877542 3
121 21.42314324870567 30.16701730939664 3
122 29.57699352244347 22.2306422348374 3
123 34.93363963272366 12.19183423488847 3
124 36.986484017814 1 87.87500000000003
125 36.986484017814 1 75.75000000000006
126 36.986484017814 1 63.62500000000006
127 36.986484017814 1 51.50000000000005
128 36.986484017814 1 39.37500000000004
129 36.986484017814 1 27.25000000000002
130 36.986484017814 1 15.12500000000001
131 34.93363963272365 -12.19183423488851 3
132 29.57699352244343 -22.23064223483747 3
133 21.42314324870562 -30.16701730939668 3
134 11.24322817415718 -35.25038751877543 3
135 12.32882800593801 -1 3
136 24.65765601187603 -1 3
137 12.32882800593801 1 3
138 24.65765601187603 1 3
139 36.986484017814 -1 87.87500000000003
140 36.986484017814 -1 75.75000000000006
141 36.986484017814 -1 63.62500000000006
142 36.986484017814 -1 51.50000000000005
143 36.986484017814 -1 39.37500000000004
144 36.986484017814 -1 27.25000000000002
145 36.986484017814 -1 15.12500000000001
146 40 -1 15.12499999999997
147 40 -1 27.24999999999994
148 40 -1 39.37499999999994
149 40 -1 51.49999999999995
150 40 -1 63.62499999999996
151 40 -1 75.74999999999997
152 40 -1 87.87499999999999
153 40 1 15.12499999999997
154 40 1 27.24999999999994
155 40 1 39.37499999999994
156 40 1 51.49999999999995
157 40 1 63.62499999999996
158 40 1 75.74999999999997
159 40 1 87.87499999999999
160 29.93161077263116 4.647211275679894 0
161 23.95727935093388 -13.33861113164883 0
162 21.1013758754256 20.56795808630305 0
163 10.68314491091451 4.899284404631074 0
164 11.94375440335763 -18.57010965867959 0
165 11.33157392370349 -7.288838436095848 0
166 13.54858773647423 26.88069936118556 0
167 21.28821340540643 -1.099344334909838 0
168 21.35143665627982 -23.06568629706821 0
169 28.31646763271036 14.42796089865121 0
170 30.64387283615552 -4.430284793175334 0
171 10.76947294024871 16.76593162615402 0
172 13.83345618526683 -27.74108060984371 0
173 20.41365456596536 9.606989067380336 0
174 17.90124849488649 -35.77073248235664 10.68417545184709
175 17.45846571606928 35.98891461048574 10.77394703557813
176 17.89178184391276 35.77546844486923 89.34369448297682
177 17.89178184391277 -35.77546844486922 89.34369448297682
178 38.55912677605468 10.63925477973639 57.67620042452499
179 38.3507626403073 -11.36745375652832 57.56669901917466
180 38.34941456002276 -11.3720008311429 33.31250000000003
181 38.34941455999726 11.37200083122885 33.31250000000003
182 35.6402609675347 -18.15961998958191 10.56477466668923
183 35.64026096753471 18.15961998958189 10.56477466668922
184 10.05816703117681 -38.71476818958042 44.06394873853372
185 10.63720992339629 38.559690935556 44.3150963430751
186 38.39792044254561 -11.20712745032988 81.54653466637514
187 38.39150365051579 11.2290893420808 81.55032347104203
188 10.18694471809065 -38.68108268017539 68.65538585345104
189 10.7257509195434 38.53515625 68.74999999999997
190 28.90081124507486 -27.65398903190197 10.31948367051234
191 24.15383776265244 -31.88404179735475 20.04535683197078
192 14.33748943167798 -37.34215308195984 21.32901420399098
193 20.15286038137915 -34.55231133294325 30.48298412821446
194 29.29463273618333 -27.23645521818388 29.20526961800682
195 26.52813053603894 -29.93757321933224 39.71329573586715
196 28.91917418353142 27.63478540793414 10.3990605983502
197 24.15383776265243 31.88404179735476 20.04535683196809
198 14.33748943167966 37.34215308195919 21.32901420398992
199 20.15367869432847 34.5518340336048 30.48265571627443
200 29.29463273618365 27.23645521818353 29.20526961800199
201 26.04314402954211 30.36041253106625 39.95927600902522
202 39.03551871726258 -8.730880738748102 9.365148165487431
203 37.64961983561614 -13.50948282628095 19.72894728015307
204 39.03551871726126 8.730880738754003 9.365148165483868
205 37.64759701254143 13.51511891110401 19.72925883255015
206 10.04121343463658 -38.71916880254629 10.61605164902059
207 10.87159760320131 38.49426406042942 10.91140110051945
208 38.34991191706585 -11.37032347619412 45.43987205573001
209 34.07268985451265 -20.95356308789012 51.50000000002841
210 34.05984713751379 -20.97443236345608 63.65343387980273
211 27.41191377066471 -29.13051636050489 57.55566204095583
212 27.64199590411211 -28.91228220734312 69.78515945760694
213 34.07655281565874 -20.94728021012801 39.40126395689942
214 33.72801149763365 21.50398196649849 38.53324003603243
215 29.92513837194421 26.54215690971614 50.27010712081021
216 22.15914928717873 33.30123275298568 50.9834084602429
217 27.79857216855802 28.76176951074936 60.75058360644555
218 10.39568321409703 -38.62550673469723 56.23401747003949
219 11.15871957798214 38.41201605461445 55.99253744079669
220 38.66450596903299 10.24968185704374 44.9750416996431
221 32.18085867316612 -23.75694288113917 19.9581717040663
222 32.18042089613948 23.75753587700772 19.95847831198457
223 38.35318465604357 -11.35927932306553 69.66190656302093
224 38.45635149279475 11.00495478694136 69.74950017448859
225 34.41822036982546 20.38102319742882 75.93225800916335
226 34.81296768326499 19.69916955315496 88.657056112124
227 27.33457135701031 29.20310272434269 81.84549870334226
228 34.19038456932796 -20.76096344107038 75.77720547356819
229 27.45495180634638 -29.08995739617365 81.98030133485972
230 9.792873567142092 -38.78272330945791 89.40231686991834
231 9.796360120755747 38.78184276674416 89.39121769990541
232 20.87587034662274 -34.12034638263506 49.84937264187491
233 35.06704084007111 -19.24324938051744 88.87811539453546
234 9.860288681608022 38.76563822659641 31.81872741387964
235 9.860288681603553 -38.76563822659755 31.81872741388178
236 19.29435076006828 -35.03895016617155 75.94914170343715
237 34.1597672683568 20.81130222191056 63.18987425800176
238 10.82201316056365 38.50823329046123 79.89266948180287
239 20.762727116718 34.18931357422525 73.65504741952843
240 19.6020569496224 -34.86774101291565 63.5081942968973
241 20.04053156058281 34.61758360673495 62.52687561616426
242 10.09640357064224 -38.70481410546655 79.73715417907897
243 34.9684159894273 -19.42189185404876 29.25879520078846
244 34.93975040180932 19.47341371869005 29.23048324421753
245 27.92848008753752 28.63564212655306 91.97127178400672
246 28.26890338906296 28.29963076048562 70.67891855767635
247 27.92848008753754 -28.63564212655305 92.05333069593077
248 38.69650466359224 10.12820452106808 90.96162316413776
249 38.7773446065549 -9.814150256873392 91.15663194325019
250 18.39008130094266 35.52189338625855 39.53265707551373
251 18.37316610525904 -35.53064546653439 39.53508159751357
252 28.70176448329614 -27.86052252821904 48.47759833219536
253 35.85983561310811 17.72208198268091 51.4294653046986
254 6.301556974485058 -39.50051113210206 19.14059344479062
255 25.82439244208953 26.49718390691639 12.37070591371936
256 25.82456924125259 26.49701159572058 90.630429013197
257 35.21892746369875 11.34139093351103 57.56498209360276
258 10.39430370614776 35.50997677363874 45.43749999999994
259 10.39430370611393 35.50997677364865 69.68749999999997
260 35.23497468646979 11.29143741265181 33.3276604502307
261 10.39430370611389 35.50997677364865 21.18749999999995
262 34.94284459503658 12.16542689785783 81.97445305984709
263 35.20521684548874 11.38387925366903 69.70078755541931
264 30.62939168147682 20.7566944676333 63.62499999998777
265 30.62429168130028 20.76421823759908 51.53129420389508
266 23.59408168498933 28.50121592918539 57.59313920514207
267 23.60477824089168 28.49235764548674 69.65979951982766
268 23.57523898239716 28.51680393948209 45.53128787185316
269 35.22220967366317 11.33119348102874 45.46137595256543
270 30.63597066178649 20.74698295198985 39.4329770923341
271 23.56259114591839 28.52725536202682 33.45450540957908
272 10.39001378895253 35.51123221553114 33.32016372608884
273 10.39001378895254 35.51123221553113 57.55483627391106
274 34.94118764499063 12.17018512421049 21.02620550277135
275 29.27751197884904 22.62360033965308 27.4523138982709
276 10.3943037061149 35.50997677364836 81.81249999999997
277 29.27940851175579 22.62114579772038 75.57474186507731
278 16.52976462795245 33.10236972400152 12.38390980329441
279 21.09689775708007 30.39606726251456 22.46631239615382
280 32.64352713839448 17.41838499875643 90.61609019670581
281 32.64352713839448 17.41838499875643 12.38390980329918
282 16.52976462795245 33.10236972400152 90.61609019670593
283 21.09863680089308 30.39486017641799 80.5860062760502
284 17.36610247699793 32.67137102660993 62.02449338477622
285 17.34645695719638 32.6818058104526 51.4153161840154
286 17.37195798172223 32.66825792541251 41.00484748039828
287 35.86921714667147 9.077403884642887 91.61011631711091
288 8.104649636652427 36.10144947598516 11.38988368288541
289 35.86921714667138 9.077403884643198 11.38988368288943
290 8.104649636652399 36.10144947598518 91.61011631711462
291 29.72883024398172 22.02717985409203 84.11122274528243
292 29.72645594175791 22.03038395359294 18.90537554895247
293 18.62696595704465 -19.13738829640545 3
294 12.17708403566625 -24.95558743217136 3
295 24.78518022724796 -12.73325172559971 3
296 9.335319862918659 -15.65394707676327 3
297 16.02073431342474 -9.459470497421545 3
298 6.390455815523097 -7.23223588576085 3
299 18.62696595704467 19.13738829640539 3
300 12.17708403566627 24.95558743217131 3
301 24.78518022724798 12.73325172559968 3
302 9.33531986291867 15.65394707676322 3
303 16.02073431342475 9.45947049742152 3
304 6.39045581552312 7.232235885760833 3
305 25.7895034783669 -26.53114227354905 90.63132510425481
306 25.80709323361753 -26.51403286622713 12.11538909203053
307 10.39526222740152 -35.50969618602163 57.57218508130216
308 35.37868656479601 -10.83275297188682 45.44398067468364
309 35.21607796501057 -11.35023580205703 69.68750000000006
310 10.37293895187701 -35.51622358163424 33.31221631742062
311 35.47249999724608 -10.52148962577907 21.35366559592116
312 11.21767728248336 -35.25852686069083 81.97493410944432
313 10.4711323218133 -35.4873975926536 69.74548224305913
314 19.94714272955167 -31.16266190374138 63.67506808896549
315 19.95566351635039 -31.15720612670851 51.56182862291936
316 27.85938374913157 -24.34860852530641 57.69995774805836
317 27.81454874664838 -24.3998130734709 69.76638470037341
318 27.53952612464852 -24.70980576268865 45.67693071460661
319 10.42520802066351 -35.50091601249034 45.46458175908082
320 35.55340289060576 -10.24478125185045 33.02769819883193
321 32.14372715036683 -18.32432276737044 27.11794947994076
322 21.79003428040266 -29.90308355435735 75.58877636668579
323 35.21607796500688 -11.35023580206848 81.81250000000004
324 35.37778004393923 -10.8357131358603 57.60686847323329
325 9.562523268942449 -35.7429454400576 21.35768855790562
326 17.94257735038062 -32.3583670481934 27.19287066766303
327 19.88897903467186 -31.19981591225153 39.24826180860438
328 31.90602876270356 -18.73513620429629 12.4033185805565
329 16.52976462795242 -33.10236972400153 90.6160901967059
330 17.86915866622436 -32.39896863422197 12.40414224729495
331 32.64352713839446 -17.41838499875647 90.61609019670972
332 29.81233476297921 -21.91402966092867 80.63561667136027
333 26.26174681871219 -26.06378050149019 34.61155481838054
334 32.29582683480611 -18.05490429374295 62.10881841383645
335 32.25109448587242 -18.13468787885056 51.56093537005675
336 32.08900510218646 -18.41998239825032 39.27245031384439
337 25.87353831468056 -26.44919687020303 22.03909701959425
338 35.86921714667063 -9.077403884646202 11.38988368288715
339 8.104649636649089 -36.10144947598592 91.6101163171126
340 8.104649636649105 -36.10144947598592 11.38988368288741
341 35.86921714667069 -9.077403884645932 91.61011631711315
342 21.21561663293528 -30.31332398276903 84.1101709923374
343 10.50055802088631 1 33.31249999999994
344 26.48592599692769 1 69.68750000000006
345 18.49324200890701 1 88.80754589352598
346 18.49324200890701 1 14.19245410647399
347 10.50055802088632 1 57.56249999999996
348 26.48592599692768 1 45.43750000000005
349 10.50055802088633 1 45.43749999999996
350 26.48592599692767 1 33.31250000000003
351 26.48592599692769 1 57.56250000000004
352 10.50055802088628 1 69.68749999999994
353 9.424355253269821 1 81.46879373102377
354 9.424355253269841 1 21.53120626897617
355 27.56212876454417 1 21.53120626897621
356 27.56212876454415 1 81.46879373102379
357 18.49324200890701 1 63.62500000000004
358 18.49324200890703 1 51.50000000000003
359 18.49324200890704 1 39.37500000000005
360 18.493242008907 1 27.20914444073773
361 18.49324200890699 1 75.79085555926227
362 8.796229103134532 1 11.84025336234621
363 28.19025491467949 1 91.15974663765381
364 8.796229103134527 1 91.15974663765381
365 28.1902549146795 1 11.84025336234621
366 10.50055802088631 -1 33.31249999999994
367 26.48592599692769 -1 69.68750000000006
368 18.49324200890701 -1 88.80754589352598
369 18.49324200890701 -1 14.19245410647399
370 10.50055802088632 -1 57.56249999999996
371 26.48592599692768 -1 45.43750000000005
372 10.50055802088633 -1 45.43749999999996
373 26.48592599692767 -1 33.31250000000003
374 26.48592599692769 -1 57.56250000000004
375 10.50055802088628 -1 69.68749999999994
376 9.424355253269821 -1 81.46879373102377
377 9.424355253269841 -1 21.53120626897617
378 27.56212876454417 -1 21.53120626897621
379 27.56212876454415 -1 81.46879373102379
380 18.49324200890701 -1 63.62500000000004
381 18.49324200890703 -1 51.50000000000003
382 18.49324200890704 -1 39.37500000000005
383 18.493242008907 -1 27.20914444073773
384 18.49324200890699 -1 75.79085555926227
385 8.796229103134532 -1 11.84025336234621
386 28.19025491467949 -1 91.15974663765381
387 8.796229103134527 -1 91.15974663765381
388 28.1902549146795 -1 11.84025336234621
389 39.24037002758551 0.250000000000001 68.17187500000006
390 13.20609970599319 -4.722673596381221e-18 9.6775691562734
391 7.041685703024181 3.259670499380109e-17 97.05324887921792
392 33.48629801085189 0 57.56250000000006
$EndNodes
$Elements
1164
1 2 2 1 1 26 1 5
2 2 2 1 1 5 1 31
3 2 2 1 1 10 2 30
4 2 2 1 1 70 2 10
5 2 2 1 1 3 4 44
6 2 2 1 1 37 3 44
7 2 2 1 1 26 5 45
8 2 2 1 1 38 5 31
9 2 2 1 1 9 28 6
10 2 2 1 1 9 6 47
11 2 2 1 1 28 27 6
12 2 2 1 1 6 27 46
13 2 2 1 1 60 7 8
14 2 2 1 1 60 53 7
15 2 2 1 1 29 28 9
16 2 2 1 1 61 29 9
17 2 2 1 1 47 54 9
18 2 2 1 1 10 30 62
19 2 2 1 1 70 10 63
20 2 2 1 1 69 11 12
21 2 2 1 1 76 69 12
22 2 2 1 1 45 27 26
23 2 2 1 1 46 27 45
24 2 2 1 1 30 29 62
25 2 2 1 1 62 29 61
26 2 2 1 1 38 31 32
27 2 2 1 1 39 32 33
28 2 2 1 1 38 32 39
29 2 2 1 1 40 33 34
30 2 2 1 1 39 33 40
31 2 2 1 1 41 34 35
32 2 2 1 1 40 34 41
33 2 2 1 1 42 35 36
34 2 2 1 1 41 35 42
35 2 2 1 1 43 36 37
36 2 2 1 1 42 36 43
37 2 2 1 1 43 37 44
38 2 2 1 1 47 48 55
39 2 2 1 1 55 54 47
40 2 2 1 1 55 48 49
41 2 2 1 1 56 49 50
42 2 2 1 1 55 49 56
43 2 2 1 1 50 51 58
44 2 2 1 1 56 50 57
45 2 2 1 1 57 50 58
46 2 2 1 1 58 51 52
47 2 2 1 1 59 52 53
48 2 2 1 1 58 52 59
49 2 2 1 1 59 53 60
50 2 2 1 1 71 63 64
51 2 2 1 1 70 63 71
52 2 2 1 1 72 64 65
53 2 2 1 1 71 64 72
54 2 2 1 1 73 65 66
55 2 2 1 1 72 65 73
56 2 2 1 1 74 66 67
57 2 2 1 1 73 66 74
58 2 2 1 1 75 67 68
59 2 2 1 1 74 67 75
60 2 2 1 1 76 68 69
61 2 2 1 1 75 68 76
62 2 2 2 15 146 24 15
63 2 2 2 15 153 15 25
64 2 2 2 15 153 146 15
65 2 2 2 15 159 18 19
66 2 2 2 15 159 19 152
67 2 2 2 15 147 146 153
68 2 2 2 15 148 147 154
69 2 2 2 15 154 147 153
70 2 2 2 15 149 148 155
71 2 2 2 15 155 148 154
72 2 2 2 15 157 150 149
73 2 2 2 15 155 156 149
74 2 2 2 15 149 156 157
75 2 2 2 15 151 150 157
76 2 2 2 15 152 151 158
77 2 2 2 15 151 157 158
78 2 2 2 15 159 152 158
79 4 2 3 1 227 226 291 225
80 4 2 3 1 342 177 236 229
81 4 2 3 1 131 136 23 170
82 4 2 3 1 138 123 22 160
83 4 2 3 1 228 332 229 233
84 4 2 3 1 176 227 283 239
85 4 2 3 1 28 27 165 298
86 4 2 3 1 219 285 185 216
87 4 2 3 1 138 123 160 301
88 4 2 3 1 70 261 207 71
89 4 2 3 1 199 271 200 201
90 4 2 3 1 131 136 170 295
91 4 2 3 1 304 28 29 163
92 4 2 3 1 337 328 321 221
93 4 2 3 1 210 211 316 209
94 4 2 3 1 199 271 272 279
95 4 2 3 1 261 198 207 71
96 4 2 3 1 369 137 135 390
97 4 2 3 1 137 369 346 390
98 4 2 3 1 309 332 317 228
99 4 2 3 1 132 133 293 168
100 4 2 3 1 167 297 165 161
101 4 2 3 1 322 229 236 212
102 4 2 3 1 364 7 387 391
103 4 2 3 1 7 364 8 391
104 4 2 3 1 342 247 177 229
105 4 2 3 1 326 330 337 191
106 4 2 3 1 7 8 112 391
107 4 2 3 1 121 78 175 196
108 4 2 3 1 275 244 260 274
109 4 2 3 1 114 112 8 391
110 4 2 3 1 239 283 259 267
111 4 2 3 1 277 227 225 246
112 4 2 3 1 174 133 190 84
113 4 2 3 1 164 165 297 161
114 4 2 3 1 194 191 337 221
115 4 2 3 1 163 135 165 167
116 4 2 3 1 253 257 265 269
117 4 2 3 1 262 277 225 263
118 4 2 3 1 194 333 195 213
119 4 2 3 1 203 102 311 180
120 4 2 3 1 313 312 236 322
121 4 2 3 1 63 261 288 70
122 4 2 3 1 210 317 212 228
123 4 2 3 1 260 244 275 270
124 4 2 3 1 198 261 234 71
125 4 2 3 1 216 215 268 201
126 4 2 3 1 163 29 304 171
127 4 2 3 1 330 326 325 192
128 4 2 3 1 293 164 161 168
129 4 2 3 1 237 265 215 253
130 4 2 3 1 142 141 126 392
131 4 2 3 1 126 127 142 392
132 4 2 3 1 70 63 261 71
133 4 2 3 1 201 268 271 270
134 4 2 3 1 333 337 321 194
135 4 2 3 1 142 127 374 392
136 4 2 3 1 374 127 351 392
137 4 2 3 1 334 179 210 209
138 4 2 3 1 199 272 261 279
139 4 2 3 1 265 266 215 268
140 4 2 3 1 27 164 165 296
141 4 2 3 1 315 314 211 316
142 4 2 3 1 266 216 241 217
143 4 2 3 1 250 185 285 216
144 4 2 3 1 12 290 231 86
145 4 2 3 1 339 3 230 107
146 4 2 3 1 285 219 241 216
147 4 2 3 1 310 319 251 327
148 4 2 3 1 264 266 267 217
149 4 2 3 1 195 318 252 213
150 4 2 3 1 196 122 79 183
151 4 2 3 1 337 330 306 191
152 4 2 3 1 171 303 163 173
153 4 2 3 1 190 132 182 83
154 4 2 3 1 121 122 299 162
155 4 2 3 1 252 315 316 318
156 4 2 3 1 89 226 280 88
157 4 2 3 1 26 5 1 134
158 4 2 3 1 120 166 30 77
159 4 2 3 1 179 223 334 210
160 4 2 3 1 236 312 242 177
161 4 2 3 1 327 318 195 333
162 4 2 3 1 306 328 337 221
163 4 2 3 1 326 192 191 193
164 4 2 3 1 255 175 197 196
165 4 2 3 1 271 272 286 199
166 4 2 3 1 1 5 31 206
167 4 2 3 1 218 184 319 232
168 4 2 3 1 134 85 26 172
169 4 2 3 1 132 168 161 83
170 4 2 3 1 190 306 330 191
171 4 2 3 1 30 2 10 120
172 4 2 3 1 261 207 288 70
173 4 2 3 1 346 385 362 390
174 4 2 3 1 220 269 253 214
175 4 2 3 1 283 259 276 239
176 4 2 3 1 82 131 170 161
177 4 2 3 1 240 314 212 211
178 4 2 3 1 122 123 301 169
179 4 2 3 1 369 385 346 390
180 4 2 3 1 267 241 239 246
181 4 2 3 1 105 104 233 331
182 4 2 3 1 161 82 131 83
183 4 2 3 1 2 10 207 70
184 4 2 3 1 333 195 193 194
185 4 2 3 1 242 313 43 312
186 4 2 3 1 318 209 252 213
187 4 2 3 1 235 254 325 192
188 4 2 3 1 330 326 192 191
189 4 2 3 1 163 137 135 167
190 4 2 3 1 79 78 162 122
191 4 2 3 1 268 271 286 201
192 4 2 3 1 325 39 38 254
193 4 2 3 1 73 219 74 66
194 4 2 3 1 273 189 219 74
195 4 2 3 1 122 162 79 169
196 4 2 3 1 190 182 328 221
197 4 2 3 1 32 39 33 235
198 4 2 3 1 330 174 190 191
199 4 2 3 1 85 26 1 134
200 4 2 3 1 173 301 303 138
201 4 2 3 1 219 284 189 273
202 4 2 3 1 219 189 284 241
203 4 2 3 1 246 267 241 217
204 4 2 3 1 122 79 78 196
205 4 2 3 1 307 315 240 232
206 4 2 3 1 264 265 266 217
207 4 2 3 1 132 190 84 83
208 4 2 3 1 28 165 135 298
209 4 2 3 1 107 177 329 106
210 4 2 3 1 30 2 120 77
211 4 2 3 1 162 78 166 121
212 4 2 3 1 250 185 286 285
213 4 2 3 1 33 40 34 184
214 4 2 3 1 187 262 226 225
215 4 2 3 1 183 123 79 80
216 4 2 3 1 244 275 200 222
217 4 2 3 1 350 143 371 373
218 4 2 3 1 143 128 350 371
219 4 2 3 1 348 128 127 371
220 4 2 3 1 143 350 144 373
221 4 2 3 1 372 347 57 370
222 4 2 3 1 374 367 141 344
223 4 2 3 1 142 127 143 371
224 4 2 3 1 372 347 349 57
225 4 2 3 1 144 128 350 143
226 4 2 3 1 143 127 128 371
227 4 2 3 1 348 350 128 371
228 4 2 3 1 348 374 127 351
229 4 2 3 1 374 348 127 371
230 4 2 3 1 127 142 374 371
231 4 2 3 1 212 211 316 210
232 4 2 3 1 140 223 141 98
233 4 2 3 1 223 99 141 98
234 4 2 3 1 185 72 65 73
235 4 2 3 1 99 141 142 179
236 4 2 3 1 142 100 99 179
237 4 2 3 1 35 34 41 218
238 4 2 3 1 80 22 160 81
239 4 2 3 1 26 294 172 164
240 4 2 3 1 372 349 56 57
241 4 2 3 1 58 57 347 370
242 4 2 3 1 49 343 372 366
243 4 2 3 1 57 372 370 50
244 4 2 3 1 349 343 372 56
245 4 2 3 1 370 352 58 375
246 4 2 3 1 48 343 49 366
247 4 2 3 1 58 347 352 370
248 4 2 3 1 58 51 370 375
249 4 2 3 1 184 310 40 319
250 4 2 3 1 240 218 307 232
251 4 2 3 1 40 33 39 310
252 4 2 3 1 125 124 187 262
253 4 2 3 1 75 74 189 67
254 4 2 3 1 211 240 315 232
255 4 2 3 1 57 56 372 50
256 4 2 3 1 343 49 372 56
257 4 2 3 1 57 58 50 370
258 4 2 3 1 58 51 50 370
259 4 2 3 1 58 352 59 375
260 4 2 3 1 343 48 49 55
261 4 2 3 1 52 58 375 51
262 4 2 3 1 140 139 186 97
263 4 2 3 1 98 140 186 97
264 4 2 3 1 179 142 100 208
265 4 2 3 1 324 142 141 179
266 4 2 3 1 139 186 323 140
267 4 2 3 1 56 49 372 50
268 4 2 3 1 55 49 343 56
269 4 2 3 1 52 58 59 375
270 4 2 3 1 95 181 205 274
271 4 2 3 1 326 327 193 333
272 4 2 3 1 141 99 223 179
273 4 2 3 1 80 183 123 204
274 4 2 3 1 215 265 237 217
275 4 2 3 1 197 278 175 255
276 4 2 3 1 41 34 40 319
277 4 2 3 1 142 208 308 143
278 4 2 3 1 216 266 215 217
279 4 2 3 1 315 319 327 232
280 4 2 3 1 264 225 277 263
281 4 2 3 1 257 178 126 127
282 4 2 3 1 190 306 191 221
283 4 2 3 1 288 207 10 70
284 4 2 3 1 319 41 218 307
285 4 2 3 1 135 165 28 163
286 4 2 3 1 125 141 367 344
287 4 2 3 1 140 141 367 125
288 4 2 3 1 208 179 142 308
289 4 2 3 1 113 345 112 115
290 4 2 3 1 345 114 112 115
291 4 2 3 1 350 129 128 144
292 4 2 3 1 35 42 36 188
293 4 2 3 1 193 327 251 195
294 4 2 3 1 125 141 344 126
295 4 2 3 1 299 171 162 173
296 4 2 3 1 179 324 142 308
297 4 2 3 1 73 65 258 66
298 4 2 3 1 226 248 89 280
299 4 2 3 1 326 327 310 193
300 4 2 3 1 257 178 127 269
301 4 2 3 1 167 135 297 136
302 4 2 3 1 265 215 253 214
303 4 2 3 1 30 171 166 300
304 4 2 3 1 285 216 266 268
305 4 2 3 1 42 35 41 307
306 4 2 3 1 345 112 368 113
307 4 2 3 1 68 75 76 238
308 4 2 3 1 140 186 223 98
309 4 2 3 1 269 127 128 220
310 4 2 3 1 273 219 258 66
311 4 2 3 1 373 355 144 378
312 4 2 3 1 48 366 377 354
313 4 2 3 1 268 250 216 201
314 4 2 3 1 211 314 212 316
315 4 2 3 1 68 76 69 276
316 4 2 3 1 285 286 250 216
317 4 2 3 1 63 288 10 70
318 4 2 3 1 38 31 5 340
319 4 2 3 1 92 126 91 224
320 4 2 3 1 255 121 175 196
321 4 2 3 1 240 307 218 188
322 4 2 3 1 185 258 286 285
323 4 2 3 1 376 52 353 375
324 4 2 3 1 144 320 101 143
325 4 2 3 1 273 74 66 67
326 4 2 3 1 204 96 205 289
327 4 2 3 1 242 43 44 312
328 4 2 3 1 355 373 144 350
329 4 2 3 1 48 366 354 343
330 4 2 3 1 215 265 268 270
331 4 2 3 1 110 107 329 106
332 4 2 3 1 111 107 329 110
333 4 2 3 1 282 86 117 87
334 4 2 3 1 282 86 116 117
335 4 2 3 1 76 68 238 276
336 4 2 3 1 27 45 164 296
337 4 2 3 1 352 353 59 375
338 4 2 3 1 343 354 48 55
339 4 2 3 1 121 162 78 122
340 4 2 3 1 308 208 209 213
341 4 2 3 1 235 325 39 310
342 4 2 3 1 118 119 280 88
343 4 2 3 1 270 201 215 214
344 4 2 3 1 355 145 144 378
345 4 2 3 1 35 218 307 188
346 4 2 3 1 74 273 189 67
347 4 2 3 1 277 291 262 225
348 4 2 3 1 331 109 105 108
349 4 2 3 1 52 59 353 375
350 4 2 3 1 209 335 308 213
351 4 2 3 1 188 307 42 313
352 4 2 3 1 235 310 184 251
353 4 2 3 1 219 273 74 66
354 4 2 3 1 42 35 307 188
355 4 2 3 1 47 48 377 354
356 4 2 3 1 82 182 131 83
357 4 2 3 1 86 282 176 87
358 4 2 3 1 379 125 367 356
359 4 2 3 1 383 377 354 346
360 4 2 3 1 361 368 379 356
361 4 2 3 1 353 376 384 368
362 4 2 3 1 355 360 346 378
363 4 2 3 1 95 205 96 274
364 4 2 3 1 182 131 202 82
365 4 2 3 1 180 208 101 143
366 4 2 3 1 179 334 335 209
367 4 2 3 1 296 165 27 298
368 4 2 3 1 353 53 52 376
369 4 2 3 1 126 125 91 224
370 4 2 3 1 261 198 199 279
371 4 2 3 1 132 161 131 83
372 4 2 3 1 284 285 219 241
373 4 2 3 1 307 240 314 313
374 4 2 3 1 333 326 337 194
375 4 2 3 1 317 334 309 210
376 4 2 3 1 133 132 190 84
377 4 2 3 1 224 225 237 263
378 4 2 3 1 306 330 133 190
379 4 2 3 1 125 367 356 344
380 4 2 3 1 125 379 367 140
381 4 2 3 1 129 350 355 144
382 4 2 3 1 105 104 331 108
383 4 2 3 1 240 315 307 314
384 4 2 3 1 47 55 354 54
385 4 2 3 1 55 47 354 48
386 4 2 3 1 73 258 219 66
387 4 2 3 1 342 236 312 322
388 4 2 3 1 218 41 35 307
389 4 2 3 1 94 128 181 129
390 4 2 3 1 121 175 278 255
391 4 2 3 1 227 291 256 283
392 4 2 3 1 251 319 184 232
393 4 2 3 1 191 306 337 221
394 4 2 3 1 36 43 37 242
395 4 2 3 1 133 294 293 168
396 4 2 3 1 53 59 353 52
397 4 2 3 1 59 53 353 60
398 4 2 3 1 184 40 34 319
399 4 2 3 1 314 322 212 317
400 4 2 3 1 89 280 119 88
401 4 2 3 1 332 229 342 322
402 4 2 3 1 319 41 34 218
403 4 2 3 1 187 125 262 263
404 4 2 3 1 269 178 127 220
405 4 2 3 1 336 308 335 213
406 4 2 3 1 224 92 126 178
407 4 2 3 1 122 78 121 196
408 4 2 3 1 174 85 133 84
409 4 2 3 1 129 355 145 144
410 4 2 3 1 205 281 222 183
411 4 2 3 1 187 91 125 224
412 4 2 3 1 13 90 287 248
413 4 2 3 1 319 251 327 232
414 4 2 3 1 261 234 64 272
415 4 2 3 1 278 197 279 255
416 4 2 3 1 134 5 1 206
417 4 2 3 1 211 316 209 252
418 4 2 3 1 17 97 249 341
419 4 2 3 1 162 169 301 173
420 4 2 3 1 137 369 135 136
421 4 2 3 1 224 237 178 257
422 4 2 3 1 197 200 199 279
423 4 2 3 1 232 327 315 318
424 4 2 3 1 227 277 291 283
425 4 2 3 1 319 34 184 218
426 4 2 3 1 247 329 110 305
427 4 2 3 1 230 242 312 177
428 4 2 3 1 237 264 265 257
429 4 2 3 1 129 181 95 274
430 4 2 3 1 43 44 37 242
431 4 2 3 1 281 196 222 183
432 4 2 3 1 368 384 361 379
433 4 2 3 1 368 361 345 356
434 4 2 3 1 361 353 384 368
435 4 2 3 1 377 383 369 346
436 4 2 3 1 354 383 346 360
437 4 2 3 1 353 361 345 368
438 4 2 3 1 383 346 360 378
439 4 2 3 1 346 383 369 378
440 4 2 3 1 256 245 282 117
441 4 2 3 1 235 39 33 310
442 4 2 3 1 78 175 77 121
443 4 2 3 1 235 310 251 193
444 4 2 3 1 40 33 310 184
445 4 2 3 1 247 329 177 106
446 4 2 3 1 125 379 124 356
447 4 2 3 1 31 38 32 254
448 4 2 3 1 132 306 133 190
449 4 2 3 1 369 137 346 138
450 4 2 3 1 280 118 245 256
451 4 2 3 1 27 28 6 298
452 4 2 3 1 197 199 198 279
453 4 2 3 1 90 21 287 124
454 4 2 3 1 200 201 270 214
455 4 2 3 1 229 342 305 332
456 4 2 3 1 297 293 164 161
457 4 2 3 1 299 162 122 301
458 4 2 3 1 109 247 305 331
459 4 2 3 1 117 245 282 87
460 4 2 3 1 192 174 330 191
461 4 2 3 1 247 110 329 106
462 4 2 3 1 239 259 284 267
463 4 2 3 1 60 364 7 53
464 4 2 3 1 224 126 125 263
465 4 2 3 1 145 365 23 388
466 4 2 3 1 93 127 178 220
467 4 2 3 1 21 90 287 13
468 4 2 3 1 168 132 84 83
469 4 2 3 1 386 21 20 139
470 4 2 3 1 9 47 362 54
471 4 2 3 1 291 277 227 225
472 4 2 3 1 133 134 294 172
473 4 2 3 1 102 145 311 144
474 4 2 3 1 207 10 2 120
475 4 2 3 1 129 355 130 145
476 4 2 3 1 123 160 169 80
477 4 2 3 1 125 187 224 263
478 4 2 3 1 202 23 338 145
479 4 2 3 1 9 28 29 304
480 4 2 3 1 53 364 7 387
481 4 2 3 1 185 258 285 219
482 4 2 3 1 364 7 8 60
483 4 2 3 1 232 327 318 195
484 4 2 3 1 33 235 310 184
485 4 2 3 1 21 386 115 363
486 4 2 3 1 245 118 280 88
487 4 2 3 1 386 21 115 20
488 4 2 3 1 170 81 23 82
489 4 2 3 1 249 104 17 341
490 4 2 3 1 251 327 232 195
491 4 2 3 1 267 277 264 246
492 4 2 3 1 71 64 234 72
493 4 2 3 1 317 212 314 316
494 4 2 3 1 311 102 144 320
495 4 2 3 1 265 264 237 217
496 4 2 3 1 185 258 219 73
497 4 2 3 1 386 124 21 139
498 4 2 3 1 45 26 27 164
499 4 2 3 1 39 32 38 254
500 4 2 3 1 247 109 105 331
501 4 2 3 1 332 305 247 233
502 4 2 3 1 6 362 47 385
503 4 2 3 1 237 178 257 253
504 4 2 3 1 229 305 247 332
505 4 2 3 1 121 255 122 196
506 4 2 3 1 196 255 122 281
507 4 2 3 1 385 135 6 362
508 4 2 3 1 104 20 17 341
509 4 2 3 1 316 317 212 210
510 4 2 3 1 334 335 324 179
511 4 2 3 1 325 38 340 254
512 4 2 3 1 102 144 320 101
513 4 2 3 1 313 188 240 236
514 4 2 3 1 128 269 220 260
515 4 2 3 1 20 104 108 341
516 4 2 3 1 20 115 386 113
517 4 2 3 1 264 277 225 246
518 4 2 3 1 167 137 135 136
519 4 2 3 1 336 321 243 333
520 4 2 3 1 238 68 259 276
521 4 2 3 1 13 287 89 248
522 4 2 3 1 47 9 362 6
523 4 2 3 1 129 260 181 274
524 4 2 3 1 127 93 128 220
525 4 2 3 1 93 94 128 220
526 4 2 3 1 321 320 336 243
527 4 2 3 1 124 386 21 363
528 4 2 3 1 180 311 203 243
529 4 2 3 1 264 237 263 257
530 4 2 3 1 270 269 260 214
531 4 2 3 1 72 65 64 272
532 4 2 3 1 179 335 324 308
533 4 2 3 1 215 265 270 214
534 4 2 3 1 104 233 331 249
535 4 2 3 1 22 130 204 289
536 4 2 3 1 240 314 322 212
537 4 2 3 1 233 247 105 331
538 4 2 3 1 309 223 141 140
539 4 2 3 1 6 46 27 298
540 4 2 3 1 186 309 323 140
541 4 2 3 1 182 202 338 203
542 4 2 3 1 205 183 204 289
543 4 2 3 1 261 198 272 199
544 4 2 3 1 169 301 173 160
545 4 2 3 1 243 321 203 221
546 4 2 3 1 89 287 21 119
547 4 2 3 1 237 224 263 257
548 4 2 3 1 258 185 65 73
549 4 2 3 1 210 309 317 228
550 4 2 3 1 110 109 247 305
551 4 2 3 1 225 237 264 246
552 4 2 3 1 64 261 63 71
553 4 2 3 1 133 168 132 84
554 4 2 3 1 67 259 75 68
555 4 2 3 1 186 223 309 140
556 4 2 3 1 280 226 245 88
557 4 2 3 1 9 29 61 304
558 4 2 3 1 330 174 133 190
559 4 2 3 1 168 295 293 132
560 4 2 3 1 202 16 23 145
561 4 2 3 1 274 244 181 205
562 4 2 3 1 118 245 256 117
563 4 2 3 1 287 21 13 89
564 4 2 3 1 322 236 240 212
565 4 2 3 1 198 278 175 197
566 4 2 3 1 210 223 309 228
567 4 2 3 1 260 181 128 129
568 4 2 3 1 339 4 3 111
569 4 2 3 1 316 211 315 252
570 4 2 3 1 12 11 290 116
571 4 2 3 1 320 311 102 180
572 4 2 3 1 273 259 189 67
573 4 2 3 1 340 31 5 206
574 4 2 3 1 102 320 180 101
575 4 2 3 1 29 302 304 171
576 4 2 3 1 95 94 181 129
577 4 2 3 1 120 10 30 62
578 4 2 3 1 26 45 5 134
579 4 2 3 1 107 339 3 111
580 4 2 3 1 275 200 222 197
581 4 2 3 1 290 12 116 86
582 4 2 3 1 187 225 224 263
583 4 2 3 1 244 275 292 274
584 4 2 3 1 314 240 315 211
585 4 2 3 1 318 252 232 195
586 4 2 3 1 201 271 200 270
587 4 2 3 1 246 237 264 217
588 4 2 3 1 372 358 347 381
589 4 2 3 1 381 347 372 370
590 4 2 3 1 358 372 347 349
591 4 2 3 1 358 371 374 381
592 4 2 3 1 358 371 348 374
593 4 2 3 1 351 374 358 348
594 4 2 3 1 375 370 352 380
595 4 2 3 1 358 374 357 381
596 4 2 3 1 367 374 357 344
597 4 2 3 1 370 347 357 381
598 4 2 3 1 358 357 347 381
599 4 2 3 1 351 357 374 344
600 4 2 3 1 366 372 382 343
601 4 2 3 1 374 358 357 351
602 4 2 3 1 357 370 352 347
603 4 2 3 1 372 359 343 349
604 4 2 3 1 358 372 382 381
605 4 2 3 1 350 371 359 373
606 4 2 3 1 372 359 349 358
607 4 2 3 1 371 350 359 348
608 4 2 3 1 382 371 358 381
609 4 2 3 1 371 359 358 348
610 4 2 3 1 180 320 311 243
611 4 2 3 1 123 79 122 183
612 4 2 3 1 197 279 255 292
613 4 2 3 1 75 189 259 67
614 4 2 3 1 12 11 69 290
615 4 2 3 1 201 215 268 270
616 4 2 3 1 374 357 380 367
617 4 2 3 1 380 370 357 381
618 4 2 3 1 381 357 380 374
619 4 2 3 1 370 357 352 380
620 4 2 3 1 359 382 372 343
621 4 2 3 1 359 372 382 358
622 4 2 3 1 371 382 359 373
623 4 2 3 1 359 371 358 382
624 4 2 3 1 258 285 219 273
625 4 2 3 1 353 376 375 384
626 4 2 3 1 360 355 373 378
627 4 2 3 1 361 379 367 356
628 4 2 3 1 366 354 383 377
629 4 2 3 1 369 137 138 136
630 4 2 3 1 216 286 250 268
631 4 2 3 1 135 6 28 298
632 4 2 3 1 281 123 122 183
633 4 2 3 1 160 138 173 167
634 4 2 3 1 210 316 334 209
635 4 2 3 1 130 14 22 204
636 4 2 3 1 192 326 235 193
637 4 2 3 1 245 176 282 87
638 4 2 3 1 333 243 336 213
639 4 2 3 1 30 29 171 62
640 4 2 3 1 257 265 237 253
641 4 2 3 1 171 29 302 62
642 4 2 3 1 197 222 275 292
643 4 2 3 1 44 4 3 339
644 4 2 3 1 243 333 194 213
645 4 2 3 1 327 251 310 193
646 4 2 3 1 101 128 144 143
647 4 2 3 1 94 128 144 101
648 4 2 3 1 142 99 100 92
649 4 2 3 1 128 94 93 101
650 4 2 3 1 92 100 142 93
651 4 2 3 1 142 141 99 126
652 4 2 3 1 99 142 126 92
653 4 2 3 1 126 99 98 141
654 4 2 3 1 375 352 353 384
655 4 2 3 1 355 350 360 373
656 4 2 3 1 354 366 383 343
657 4 2 3 1 356 367 361 344
658 4 2 3 1 173 303 163 167
659 4 2 3 1 219 285 284 273
660 4 2 3 1 139 323 186 341
661 4 2 3 1 316 335 252 318
662 4 2 3 1 320 180 308 336
663 4 2 3 1 188 313 242 236
664 4 2 3 1 145 202 16 103
665 4 2 3 1 118 245 117 87
666 4 2 3 1 264 237 225 263
667 4 2 3 1 132 131 182 83
668 4 2 3 1 94 128 220 181
669 4 2 3 1 193 191 326 194
670 4 2 3 1 247 229 332 233
671 4 2 3 1 247 109 110 106
672 4 2 3 1 118 245 87 88
673 4 2 3 1 366 382 383 343
674 4 2 3 1 352 375 380 384
675 4 2 3 1 359 360 350 373
676 4 2 3 1 361 367 357 344
677 4 2 3 1 36 188 313 242
678 4 2 3 1 360 382 359 343
679 4 2 3 1 357 352 380 384
680 4 2 3 1 357 367 384 380
681 4 2 3 1 360 359 382 373
682 4 2 3 1 196 222 292 281
683 4 2 3 1 250 286 272 199
684 4 2 3 1 138 388 23 365
685 4 2 3 1 365 23 138 22
686 4 2 3 1 30 300 120 62
687 4 2 3 1 26 45 134 294
688 4 2 3 1 202 338 23 131
689 4 2 3 1 204 123 22 289
690 4 2 3 1 300 166 30 120
691 4 2 3 1 252 232 315 318
692 4 2 3 1 106 247 109 105
693 4 2 3 1 134 1 85 206
694 4 2 3 1 363 345 386 115
695 4 2 3 1 345 114 364 387
696 4 2 3 1 45 27 46 296
697 4 2 3 1 65 185 258 272
698 4 2 3 1 198 261 278 279
699 4 2 3 1 325 340 330 192
700 4 2 3 1 167 138 137 136
701 4 2 3 1 228 223 309 186
702 4 2 3 1 234 185 272 250
703 4 2 3 1 169 79 123 80
704 4 2 3 1 321 311 320 243
705 4 2 3 1 120 207 10 288
706 4 2 3 1 334 309 223 179
707 4 2 3 1 168 133 172 84
708 4 2 3 1 97 21 17 90
709 4 2 3 1 275 200 271 270
710 4 2 3 1 141 140 98 125
711 4 2 3 1 97 98 140 125
712 4 2 3 1 98 97 91 125
713 4 2 3 1 94 128 129 144
714 4 2 3 1 23 16 15 145
715 4 2 3 1 319 184 310 251
716 4 2 3 1 250 272 234 199
717 4 2 3 1 294 134 26 172
718 4 2 3 1 125 98 141 126
719 4 2 3 1 125 91 98 126
720 4 2 3 1 225 187 262 263
721 4 2 3 1 284 285 241 266
722 4 2 3 1 120 300 166 121
723 4 2 3 1 137 163 303 167
724 4 2 3 1 29 61 302 62
725 4 2 3 1 311 338 203 328
726 4 2 3 1 2 207 120 77
727 4 2 3 1 72 64 234 272
728 4 2 3 1 352 361 353 384
729 4 2 3 1 373 383 360 378
730 4 2 3 1 360 354 383 343
731 4 2 3 1 379 384 361 367
732 4 2 3 1 14 130 96 204
733 4 2 3 1 345 114 387 112
734 4 2 3 1 345 113 386 115
735 4 2 3 1 236 312 177 342
736 4 2 3 1 124 97 21 139
737 4 2 3 1 43 36 313 242
738 4 2 3 1 97 124 21 90
739 4 2 3 1 309 334 324 179
740 4 2 3 1 137 9 304 163
741 4 2 3 1 161 131 295 132
742 4 2 3 1 113 368 345 386
743 4 2 3 1 112 387 345 368
744 4 2 3 1 138 137 303 167
745 4 2 3 1 185 72 234 272
746 4 2 3 1 300 171 302 62
747 4 2 3 1 244 275 222 292
748 4 2 3 1 297 135 165 298
749 4 2 3 1 317 316 334 210
750 4 2 3 1 360 383 382 343
751 4 2 3 1 352 357 361 384
752 4 2 3 1 360 382 383 373
753 4 2 3 1 367 361 357 384
754 4 2 3 1 259 238 276 239
755 4 2 3 1 14 22 80 81
756 4 2 3 1 65 72 185 272
757 4 2 3 1 45 294 164 296
758 4 2 3 1 240 307 188 313
759 4 2 3 1 182 203 328 221
760 4 2 3 1 78 77 166 121
761 4 2 3 1 15 14 22 130
762 4 2 3 1 260 244 270 214
763 4 2 3 1 90 21 17 13
764 4 2 3 1 149 93 101 100
765 4 2 3 1 152 91 98 97
766 4 2 3 1 152 90 91 97
767 4 2 3 1 181 128 220 260
768 4 2 3 1 386 379 368 356
769 4 2 3 1 387 376 353 368
770 4 2 3 1 354 385 346 377
771 4 2 3 1 388 355 346 378
772 4 2 3 1 178 257 253 269
773 4 2 3 1 259 75 68 238
774 4 2 3 1 238 231 76 276
775 4 2 3 1 93 157 149 156
776 4 2 3 1 19 97 90 152
777 4 2 3 1 18 90 159 19
778 4 2 3 1 90 152 91 159
779 4 2 3 1 75 259 189 238
780 4 2 3 1 30 171 300 62
781 4 2 3 1 333 193 326 194
782 4 2 3 1 169 122 162 301
783 4 2 3 1 286 250 268 201
784 4 2 3 1 16 15 145 103
785 4 2 3 1 91 159 152 158
786 4 2 3 1 19 152 90 159
787 4 2 3 1 16 146 24 15
788 4 2 3 1 131 182 328 132
789 4 2 3 1 97 19 90 17
790 4 2 3 1 18 17 90 19
791 4 2 3 1 243 180 336 213
792 4 2 3 1 388 145 355 378
793 4 2 3 1 175 278 120 121
794 4 2 3 1 304 137 163 303
795 4 2 3 1 171 299 303 173
796 4 2 3 1 168 161 295 132
797 4 2 3 1 25 14 15 153
798 4 2 3 1 226 280 245 256
799 4 2 3 1 244 181 260 274
800 4 2 3 1 191 337 326 194
801 4 2 3 1 295 136 170 161
802 4 2 3 1 230 37 44 242
803 4 2 3 1 385 47 377 354
804 4 2 3 1 353 387 53 376
805 4 2 3 1 107 329 339 111
806 4 2 3 1 161 295 293 168
807 4 2 3 1 316 335 209 252
808 4 2 3 1 122 196 281 183
809 4 2 3 1 86 116 290 282
810 4 2 3 1 331 104 249 341
811 4 2 3 1 345 364 353 387
812 4 2 3 1 363 386 345 356
813 4 2 3 1 365 355 346 388
814 4 2 3 1 385 354 346 362
815 4 2 3 1 271 200 275 279
816 4 2 3 1 145 96 15 130
817 4 2 3 1 329 339 230 107
818 4 2 3 1 299 166 300 121
819 4 2 3 1 86 290 231 282
820 4 2 3 1 64 234 261 71
821 4 2 3 1 269 253 178 220
822 4 2 3 1 215 266 265 217
823 4 2 3 1 291 226 262 225
824 4 2 3 1 233 332 305 331
825 4 2 3 1 233 305 247 331
826 4 2 3 1 47 362 54 354
827 4 2 3 1 136 167 170 161
828 4 2 3 1 130 15 14 96
829 4 2 3 1 174 85 134 133
830 4 2 3 1 195 193 327 333
831 4 2 3 1 95 144 101 94
832 4 2 3 1 339 230 44 312
833 4 2 3 1 17 18 90 13
834 4 2 3 1 175 120 77 121
835 4 2 3 1 53 364 353 60
836 4 2 3 1 355 365 145 388
837 4 2 3 1 333 336 318 213
838 4 2 3 1 379 386 124 356
839 4 2 3 1 242 44 230 312
840 4 2 3 1 26 45 294 164
841 4 2 3 1 338 131 182 328
842 4 2 3 1 104 331 108 341
843 4 2 3 1 387 353 345 368
844 4 2 3 1 386 368 345 356
845 4 2 3 1 388 346 369 378
846 4 2 3 1 385 377 369 346
847 4 2 3 1 47 362 354 385
848 4 2 3 1 387 353 53 364
849 4 2 3 1 299 171 166 162
850 4 2 3 1 199 250 271 201
851 4 2 3 1 346 138 365 388
852 4 2 3 1 81 16 23 82
853 4 2 3 1 294 293 164 296
854 4 2 3 1 9 28 304 163
855 4 2 3 1 79 122 169 123
856 4 2 3 1 388 138 23 136
857 4 2 3 1 266 241 284 267
858 4 2 3 1 379 386 139 124
859 4 2 3 1 355 365 130 145
860 4 2 3 1 166 299 162 121
861 4 2 3 1 96 145 15 103
862 4 2 3 1 295 170 131 161
863 4 2 3 1 231 290 69 276
864 4 2 3 1 177 329 230 107
865 4 2 3 1 287 89 280 119
866 4 2 3 1 231 290 276 282
867 4 2 3 1 134 340 5 206
868 4 2 3 1 318 195 333 213
869 4 2 3 1 363 124 386 356
870 4 2 3 1 16 146 15 103
871 4 2 3 1 95 144 129 145
872 4 2 3 1 144 94 95 129
873 4 2 3 1 138 346 369 388
874 4 2 3 1 326 235 325 192
875 4 2 3 1 316 335 334 209
876 4 2 3 1 312 242 313 236
877 4 2 3 1 134 330 174 133
878 4 2 3 1 153 14 15 96
879 4 2 3 1 287 89 248 280
880 4 2 3 1 231 69 76 276
881 4 2 3 1 310 235 325 326
882 4 2 3 1 206 330 340 192
883 4 2 3 1 279 197 275 292
884 4 2 3 1 320 180 336 243
885 4 2 3 1 222 292 281 205
886 4 2 3 1 123 22 160 80
887 4 2 3 1 169 301 160 123
888 4 2 3 1 132 328 306 190
889 4 2 3 1 101 320 180 143
890 4 2 3 1 259 189 284 273
891 4 2 3 1 333 321 243 194
892 4 2 3 1 286 250 271 199
893 4 2 3 1 85 172 133 84
894 4 2 3 1 182 328 132 190
895 4 2 3 1 303 173 138 167
896 4 2 3 1 272 198 234 199
897 4 2 3 1 238 259 189 239
898 4 2 3 1 223 309 334 210
899 4 2 3 1 252 335 209 318
900 4 2 3 1 232 315 211 252
901 4 2 3 1 197 275 200 279
902 4 2 3 1 275 200 270 214
903 4 2 3 1 216 241 285 266
904 4 2 3 1 176 282 276 283
905 4 2 3 1 270 244 275 214
906 4 2 3 1 200 275 244 214
907 4 2 3 1 147 95 148 154
908 4 2 3 1 95 148 154 155
909 4 2 3 1 194 321 243 221
910 4 2 3 1 244 260 181 214
911 4 2 3 1 212 322 229 317
912 4 2 3 1 172 294 133 168
913 4 2 3 1 267 266 241 217
914 4 2 3 1 138 173 301 160
915 4 2 3 1 95 144 145 102
916 4 2 3 1 144 95 101 102
917 4 2 3 1 280 226 262 291
918 4 2 3 1 285 286 216 268
919 4 2 3 1 246 264 267 217
920 4 2 3 1 185 258 272 286
921 4 2 3 1 261 198 234 272
922 4 2 3 1 231 86 282 176
923 4 2 3 1 138 369 136 388
924 4 2 3 1 292 255 196 281
925 4 2 3 1 226 280 256 291
926 4 2 3 1 299 162 301 173
927 4 2 3 1 321 203 311 243
928 4 2 3 1 177 312 329 342
929 4 2 3 1 301 303 299 173
930 4 2 3 1 77 120 166 121
931 4 2 3 1 134 85 174 206
932 4 2 3 1 206 174 330 192
933 4 2 3 1 312 339 230 329
934 4 2 3 1 236 342 229 322
935 4 2 3 1 286 272 185 250
936 4 2 3 1 215 266 216 268
937 4 2 3 1 131 170 23 82
938 4 2 3 1 296 297 165 298
939 4 2 3 1 276 238 231 176
940 4 2 3 1 200 271 199 279
941 4 2 3 1 283 227 277 246
942 4 2 3 1 274 281 292 205
943 4 2 3 1 165 135 297 167
944 4 2 3 1 197 198 278 279
945 4 2 3 1 241 239 284 267
946 4 2 3 1 101 95 148 102
947 4 2 3 1 328 306 190 221
948 4 2 3 1 183 281 123 289
949 4 2 3 1 342 305 247 229
950 4 2 3 1 296 27 46 298
951 4 2 3 1 166 171 299 300
952 4 2 3 1 164 293 294 168
953 4 2 3 1 95 147 148 102
954 4 2 3 1 302 61 29 304
955 4 2 3 1 183 205 281 289
956 4 2 3 1 267 283 277 246
957 4 2 3 1 274 281 205 289
958 4 2 3 1 322 332 229 317
959 4 2 3 1 338 182 203 328
960 4 2 3 1 310 235 326 193
961 4 2 3 1 172 134 85 133
962 4 2 3 1 293 297 295 161
963 4 2 3 1 278 261 207 288
964 4 2 3 1 31 340 254 206
965 4 2 3 1 114 364 387 391
966 4 2 3 1 297 164 293 296
967 4 2 3 1 194 337 321 221
968 4 2 3 1 299 303 302 171
969 4 2 3 1 114 387 112 391
970 4 2 3 1 302 299 171 300
971 4 2 3 1 250 286 271 201
972 4 2 3 1 297 165 164 296
973 4 2 3 1 164 294 172 168
974 4 2 3 1 131 202 338 182
975 4 2 3 1 204 183 123 289
976 4 2 3 1 227 283 239 246
977 4 2 3 1 385 135 362 390
978 4 2 3 1 362 135 137 390
979 4 2 3 1 120 207 175 77
980 4 2 3 1 38 31 340 254
981 4 2 3 1 278 261 198 207
982 4 2 3 1 282 276 231 176
983 4 2 3 1 267 239 283 246
984 4 2 3 1 278 207 120 288
985 4 2 3 1 329 230 312 177
986 4 2 3 1 204 130 96 289
987 4 2 3 1 198 175 278 207
988 4 2 3 1 175 278 207 120
989 4 2 3 1 22 15 23 81
990 4 2 3 1 15 16 23 81
991 4 2 3 1 22 14 15 81
992 4 2 3 1 362 137 346 390
993 4 2 3 1 8 364 114 391
994 4 2 3 1 374 141 142 392
995 4 2 3 1 135 385 369 390
996 4 2 3 1 351 127 126 392
997 4 2 3 1 7 112 387 391
998 4 2 3 1 227 226 256 291
999 4 2 3 1 227 256 226 245
1000 4 2 3 1 328 321 203 311
1001 4 2 3 1 328 203 321 221
1002 4 2 3 1 308 209 179 335
1003 4 2 3 1 308 179 209 208
1004 4 2 3 1 180 308 143 320
1005 4 2 3 1 143 308 180 208
1006 4 2 3 1 307 232 319 315
1007 4 2 3 1 319 232 307 218
1008 4 2 3 1 265 214 269 270
1009 4 2 3 1 269 214 265 253
1010 4 2 3 1 308 213 180 208
1011 4 2 3 1 180 213 308 336
1012 4 2 3 1 128 143 93 127
1013 4 2 3 1 128 93 143 101
1014 4 2 3 1 142 93 143 127
1015 4 2 3 1 142 92 127 126
1016 4 2 3 1 142 127 92 93
1017 4 2 3 1 178 127 92 126
1018 4 2 3 1 178 92 127 93
1019 4 2 3 1 138 23 160 22
1020 4 2 3 1 81 160 23 22
1021 4 2 3 1 81 23 160 170
1022 4 2 3 1 257 224 126 178
1023 4 2 3 1 257 126 224 263
1024 4 2 3 1 21 97 20 139
1025 4 2 3 1 21 20 97 17
1026 4 2 3 1 341 20 97 139
1027 4 2 3 1 341 97 20 17
1028 4 2 3 1 213 335 318 209
1029 4 2 3 1 213 318 335 336
1030 4 2 3 1 322 240 313 314
1031 4 2 3 1 322 313 240 236
1032 4 2 3 1 247 329 342 177
1033 4 2 3 1 342 329 247 305
1034 4 2 3 1 130 15 23 22
1035 4 2 3 1 23 15 130 145
1036 4 2 3 1 23 365 130 22
1037 4 2 3 1 130 365 23 145
1038 4 2 3 1 94 93 149 156
1039 4 2 3 1 149 93 94 101
1040 4 2 3 1 149 155 94 156
1041 4 2 3 1 125 379 139 124
1042 4 2 3 1 139 379 125 140
1043 4 2 3 1 139 97 125 124
1044 4 2 3 1 125 97 139 140
1045 4 2 3 1 187 125 90 124
1046 4 2 3 1 187 90 125 91
1047 4 2 3 1 97 90 125 124
1048 4 2 3 1 97 125 90 91
1049 4 2 3 1 96 274 289 130
1050 4 2 3 1 289 274 96 205
1051 4 2 3 1 93 100 157 92
1052 4 2 3 1 93 157 100 149
1053 4 2 3 1 150 100 157 149
1054 4 2 3 1 152 151 91 158
1055 4 2 3 1 152 91 151 98
1056 4 2 3 1 95 148 94 101
1057 4 2 3 1 95 94 148 155
1058 4 2 3 1 149 94 148 101
1059 4 2 3 1 149 148 94 155
1060 4 2 3 1 186 341 331 249
1061 4 2 3 1 331 341 186 323
1062 4 2 3 1 331 233 186 249
1063 4 2 3 1 28 135 9 6
1064 4 2 3 1 362 9 135 6
1065 4 2 3 1 362 135 9 137
1066 4 2 3 1 135 163 9 137
1067 4 2 3 1 9 163 135 28
1068 4 2 3 1 282 245 227 176
1069 4 2 3 1 227 245 282 256
1070 4 2 3 1 227 283 282 176
1071 4 2 3 1 282 283 227 256
1072 4 2 3 1 36 313 42 43
1073 4 2 3 1 42 313 36 188
1074 4 2 3 1 136 161 297 167
1075 4 2 3 1 297 161 136 295
1076 4 2 3 1 179 309 141 324
1077 4 2 3 1 179 141 309 223
1078 4 2 3 1 220 260 214 181
1079 4 2 3 1 214 260 220 269
1080 4 2 3 1 22 80 204 14
1081 4 2 3 1 204 80 22 123
1082 4 2 3 1 95 147 96 154
1083 4 2 3 1 153 96 147 154
1084 4 2 3 1 189 284 239 259
1085 4 2 3 1 189 239 284 241
1086 4 2 3 1 304 171 303 163
1087 4 2 3 1 303 171 304 302
1088 4 2 3 1 96 147 146 153
1089 4 2 3 1 146 147 96 103
1090 4 2 3 1 146 15 96 153
1091 4 2 3 1 96 15 146 103
1092 4 2 3 1 145 95 130 129
1093 4 2 3 1 145 130 95 96
1094 4 2 3 1 274 130 95 129
1095 4 2 3 1 274 95 130 96
1096 4 2 3 1 192 340 254 325
1097 4 2 3 1 192 254 340 206
1098 4 2 3 1 276 239 176 283
1099 4 2 3 1 176 239 276 238
1100 4 2 3 1 229 317 228 212
1101 4 2 3 1 228 317 229 332
1102 4 2 3 1 167 138 170 160
1103 4 2 3 1 167 170 138 136
1104 4 2 3 1 23 170 138 160
1105 4 2 3 1 23 138 170 136
1106 4 2 3 1 23 82 202 131
1107 4 2 3 1 202 82 23 16
1108 4 2 3 1 147 102 96 103
1109 4 2 3 1 147 96 102 95
1110 4 2 3 1 145 96 102 103
1111 4 2 3 1 145 102 96 95
1112 4 2 3 1 205 292 244 222
1113 4 2 3 1 205 244 292 274
1114 4 2 3 1 39 254 235 32
1115 4 2 3 1 235 254 39 325
1116 4 2 3 1 196 292 197 255
1117 4 2 3 1 196 197 292 222
1118 4 2 3 1 97 341 186 249
1119 4 2 3 1 186 341 97 139
1120 4 2 3 1 145 202 203 338
1121 4 2 3 1 203 202 145 103
1122 4 2 3 1 203 311 145 338
1123 4 2 3 1 330 206 134 174
1124 4 2 3 1 134 206 330 340
1125 4 2 3 1 262 187 287 124
1126 4 2 3 1 90 187 287 248
1127 4 2 3 1 90 287 187 124
1128 4 2 3 1 44 230 3 37
1129 4 2 3 1 44 3 230 339
1130 4 2 3 1 69 231 12 290
1131 4 2 3 1 12 231 69 76
1132 4 2 3 1 126 389 99 92
1133 4 2 3 1 151 91 126 98
1134 4 2 3 1 99 151 126 98
1135 4 2 3 1 99 126 151 389
1136 4 2 3 1 344 141 351 126
1137 4 2 3 1 344 351 141 374
1138 4 2 3 1 392 351 141 126
1139 4 2 3 1 392 141 351 374
1140 4 2 3 1 93 143 100 142
1141 4 2 3 1 93 100 143 101
1142 4 2 3 1 208 100 143 142
1143 4 2 3 1 208 143 100 101
1144 4 2 3 1 126 389 91 151
1145 4 2 3 1 126 91 389 92
1146 4 2 3 1 186 331 332 233
1147 4 2 3 1 332 331 186 323
1148 4 2 3 1 332 228 186 233
1149 4 2 3 1 145 203 102 311
1150 4 2 3 1 102 203 145 103
1151 4 2 3 1 226 187 280 262
1152 4 2 3 1 226 280 187 248
1153 4 2 3 1 287 280 187 262
1154 4 2 3 1 287 187 280 248
1155 4 2 3 1 92 158 151 157
1156 4 2 3 1 92 99 151 389
1157 4 2 3 1 151 150 92 157
1158 4 2 3 1 151 92 150 99
1159 4 2 3 1 100 92 150 157
1160 4 2 3 1 100 150 92 99
1161 4 2 3 1 91 151 92 158
1162 4 2 3 1 92 151 91 389
1163 4 2 3 1 186 332 309 228
1164 4 2 3 1 309 332 186 323
$EndElements
