$MeshFormat
2.2 0 8
$EndMeshFormat
$PhysicalNames
3
2 1 "Fixed"
2 2 "Load"
3 3 "Volume"
$EndPhysicalNames
$Nodes
307
1 0 -20 -20
2 0 -20 20
3 0 20 -20
4 0 20 20
5 20 -20 -20
6 20 -20 20
7 20 20 -20
8 20 20 20
9 0 -20 -14.2857142857143
10 0 -20 -8.571428571428578
11 0 -20 -2.857142857142865
12 0 -20 2.857142857142854
13 0 -20 8.571428571428566
14 0 -20 14.28571428571428
15 0 -14.2857142857143 -20
16 0 -8.571428571428578 -20
17 0 -2.857142857142865 -20
18 0 2.857142857142854 -20
19 0 8.571428571428566 -20
20 0 14.28571428571428 -20
21 0 20 -14.2857142857143
22 0 20 -8.571428571428578
23 0 20 -2.857142857142865
24 0 20 2.857142857142854
25 0 20 8.571428571428566
26 0 20 14.28571428571428
27 0 -14.2857142857143 20
28 0 -8.571428571428578 20
29 0 -2.857142857142865 20
30 0 2.857142857142854 20
31 0 8.571428571428566 20
32 0 14.28571428571428 20
33 20 -20 -14.2857142857143
34 20 -20 -8.571428571428578
35 20 -20 -2.857142857142865
36 20 -20 2.857142857142854
37 20 -20 8.571428571428566
38 20 -20 14.28571428571428
39 20 -14.2857142857143 -20
40 20 -8.571428571428578 -20
41 20 -2.857142857142865 -20
42 20 2.857142857142854 -20
43 20 8.571428571428566 -20
44 20 14.28571428571428 -20
45 20 20 -14.2857142857143
46 20 20 -8.571428571428578
47 20 20 -2.857142857142865
48 20 20 2.857142857142854
49 20 20 8.571428571428566
50 20 20 14.28571428571428
51 20 -14.2857142857143 20
52 20 -8.571428571428578 20
53 20 -2.857142857142865 20
54 20 2.857142857142854 20
55 20 8.571428571428566 20
56 20 14.28571428571428 20
57 4.999999999999996 -20 -20
58 9.999999999999996 -20 -20
59 15 -20 -20
60 4.999999999999996 -20 20
61 9.999999999999996 -20 20
62 15 -20 20
63 4.999999999999996 20 -20
64 9.999999999999996 20 -20
65 15 20 -20
66 4.999999999999996 20 20
67 9.999999999999996 20 20
68 15 20 20
69 0 -14.93828849482145 -0.0729080277133356
70 0 14.87794363033605 -0.09802483515295535
71 0 -0.02898722752953375 14.96239945221136
72 0 0.04208008089678117 -15.07557835297935
73 0 -14.87317958441158 -10.78062406334785
74 0 -14.85063466588052 10.84319966899602
75 0 11.2075706594582 14.97636203221973
76 0 11.20757065945821 -15.1788782604847
77 0 5.684465599582971 -15.07659837354139
78 0 2.85918618484186 -10.11083513266357
79 0 -2.891016196990297 -10.28030129990098
80 0 -0.09231392283188811 -5.235085312151481
81 0 5.699240615096887 -5.168767455852318
82 0 2.83924968680606 -0.2211590155055063
83 0 -2.962519626811453 -0.2715783314732576
84 0 -0.02054499000090715 4.795598426443416
85 0 5.707879354229412 4.749581310845077
86 0 -5.735272674230639 4.806938567925911
87 0 -8.87815519846318 -0.2163380535678883
88 0 -11.51821506756589 5.127912904708328
89 0 -8.7390631986732 10.18472081025431
90 0 -11.65662507207255 -5.488107811448966
91 0 2.850483502668233 9.786307220603536
92 0 8.532417490821196 9.767475605959152
93 0 11.4285714285714 4.743582965269663
94 0 14.72070576035149 10.50435131455839
95 0 -5.838308166136045 -5.363440642397327
96 0 -8.672435194732094 -10.40792927779155
97 0 5.689144691179862 14.78871213182954
98 0 -2.857142857142865 10.08686241677635
99 0 -5.833824327759826 15.02792305201492
100 0 8.527458128877601 -10.13191604287872
101 0 11.35565660421574 -5.23678241497435
102 0 14.72567033065292 -10.7051225454206
103 0 8.571428571428552 -0.2051336277842637
104 0 -5.710603276545694 -15.18364294953005
105 0 -11.31367691987711 -15.3380487665084
106 0 -11.35330700297988 15.31583674994802
107 0 -16.26142764565357 5.465355194912487
108 0 16.17933359180022 -5.633897423665507
109 0 16.20544416385179 5.315696174649304
110 0 -16.46456893596365 -5.714285714285721
111 0 15.81685252817784 -15.81685252817784
112 0 15.81685252817784 15.81685252817784
113 0 -15.81685252817785 -15.81685252817785
114 0 -15.83917696842288 15.83917696842287
115 20 -14.93828849482145 -0.07290802771333915
116 20 14.92743383980157 -0.1222283850199055
117 20 -0.02898722752954441 14.96239945221136
118 20 -7.105427357601002e-15 -15.05128340694607
119 20 11.20757065945819 14.97636203221974
120 20 -11.42857142857144 -15.05128340694607
121 20 -14.85063466588053 10.84319966899603
122 20 11.31694631088485 -15.18247439394792
123 20 5.72464031289168 -15.0482008535962
124 20 2.917251035862947 -10.06834595355136
125 20 -2.857142857142861 -10.10256681389213
126 20 -0.07699089102046486 -5.198381367964641
127 20 5.714285714285705 -5.153850220838194
128 20 2.844311041972766 -0.2125554856386707
129 20 -2.959122228981766 -0.2640270857976503
130 20 -0.0191351978348564 4.798290889033826
131 20 5.708957878784862 4.751463976254641
132 20 -5.734471475898022 4.808645852636914
133 20 -8.877455432436129 -0.2147949651701246
134 20 -11.51796490683928 5.128454633559791
135 20 -11.85504896639081 -5.267669166501914
136 20 -8.738887972163344 10.18509564584807
137 20 2.85077973084935 9.786851878698783
138 20 8.532646616277283 9.767880159876647
139 20 11.4285714285714 4.743582965269709
140 20 14.7207384925595 10.5044091079752
141 20 -6.120816509943818 -5.305923345834108
142 20 5.689189364108195 14.78879284713676
143 20 -2.857142857142886 10.08686241677637
144 20 -5.833803467461049 15.0279676752999
145 20 8.571428571428573 -0.2051336277842388
146 20 11.53185230453036 -5.237034729415283
147 20 8.632774899835844 -10.16938206245254
148 20 -5.858002246312102 -15.02217781719772
149 20 14.82328499705608 -10.71102461220317
150 20 -8.838093019131646 -10.24928805448838
151 20 -14.90897610642884 -10.74610777655832
152 20 -11.35327432184511 15.31590665976114
153 20 -16.26137761350825 5.465463540682777
154 20 16.21534875218649 5.310867023359283
155 20 16.31595843047361 -5.561061511968749
156 20 -16.46456893596366 -5.714285714285722
157 20 15.81685252817784 -15.81685252817784
158 20 15.81685252817784 15.81685252817784
159 20 -15.81685252817785 -15.81685252817785
160 20 -15.83917696842289 15.83917696842289
161 5.007843668161603 -20 5.654835876170115
162 4.974361786589343 -20 -5.654906202522268
163 14.90842882216852 -20 11.67717892708214
164 14.90848485955228 -20 -11.67717772971893
165 15.03113806660249 -20 -6.981557592666832e-05
166 7.629202676071825 -20 15.93166792394042
167 7.629202687251579 -20 -15.93166601624044
168 15.07461535720954 -20 -5.781540698228927
169 9.935984011730934 -20 -8.267693856914788
170 15.04919882386161 -20 5.755725101865984
171 9.970866133031501 -20 8.263311828146854
172 4.996392551834672 -20 -8.153663462096006e-05
173 10.01853474068603 -20 -2.807928024364866
174 10.07622925011949 -20 2.844812678783633
175 5.162915596025548 -20 11.64657394767741
176 5.153149321080613 -20 -11.64720809070889
177 12.3407307662486 -20 16.07170717127991
178 12.3407401188556 -20 -16.07170474606941
179 3.558423654419474 -20 16.37279123146642
180 3.556470401666437 -20 -16.37291767853272
181 16.44984499568158 -20 -16.40691935230053
182 16.44983191768342 -20 16.40692007681527
183 9.993512199694202 -20 -12.71909008793049
184 10.0024287987092 -20 12.71808795962535
185 15.04411884266696 20 5.66107376087286
186 5.08721410885967 20 -5.661278914003532
187 5.091592845602453 20 11.6771793892341
188 14.9054372814512 20 -11.67723836387901
189 12.37079732824535 20 15.93166866061773
190 7.629202109900401 20 -15.93176453476104
191 15.07584227602281 20 -5.764281260904298
192 10.01176553355406 20 -8.280619307854847
193 10.12375187482067 20 -2.79377371342488
194 5.123293408372551 20 0.03706912596901546
195 4.904660728321063 20 5.790592710374419
196 10.0785005869437 20 8.270262427845314
197 15.07255026025772 20 0.0368352704528867
198 10.05781261689711 20 2.833676597014936
199 14.85156001269216 20 11.64845875355491
200 5.180096435742786 20 -11.65006348957539
201 7.659272850083257 20 16.07170810776211
202 12.34023151559572 20 -16.07182979003679
203 16.4444714681875 20 16.37316833997738
204 3.561859709128636 20 -16.37350846201014
205 16.44913375940938 20 -16.40695648792602
206 3.550173139137141 20 16.40692035654209
207 10.01034472471338 20 12.71985546780283
208 10.01334657524883 20 -12.72230309722141
209 4.974296420821377 5.654905691746038 -20
210 5.007843668161603 -5.654835876170132 -20
211 14.90842882216852 11.67717892708213 -20
212 14.90842882216852 -11.67717892708215 -20
213 15.03113806660249 6.981557591245746e-05 -20
214 7.629202676071824 15.93166792394041 -20
215 7.629202676071824 -15.93166792394042 -20
216 15.04919882386161 -5.755725101866005 -20
217 9.9708661330315 -8.263311828146872 -20
218 15.07459591079869 5.781540617216919 -20
219 9.935960525624083 8.267695865543921 -20
220 4.99638165754001 8.145150523120037e-05 -20
221 10.01851487525598 2.80792824631677 -20
222 10.07622791561803 -2.844812672847642 -20
223 5.153136616775884 11.64721021238784 -20
224 5.162915596025548 -11.64657394767743 -20
225 12.3407307662486 16.07170717127991 -20
226 12.3407307662486 -16.07170717127992 -20
227 3.558423654419474 -16.37279123146643 -20
228 3.55646785856954 16.37291848440851 -20
229 16.44983191768342 -16.40692007681528 -20
230 16.44983191768342 16.40692007681527 -20
231 9.99349188137778 12.71909202004684 -20
232 10.0024287987092 -12.71808795962536 -20
233 4.974296420821377 5.654905691746041 20
234 5.007843668161603 -5.654835876170132 20
235 14.90842882216852 11.67717892708214 20
236 14.90842882216852 -11.67717892708215 20
237 15.03113806660249 6.981557591245746e-05 20
238 7.629202676071825 15.93166792394042 20
239 7.629202676071824 -15.93166792394042 20
240 15.04919882386161 -5.755725101866005 20
241 9.9708661330315 -8.263311828146872 20
242 15.07459591079868 5.781540617216923 20
243 9.935960525624083 8.267695865543917 20
244 4.99638165754001 8.145150523120037e-05 20
245 10.01851487525598 2.807928246316777 20
246 10.07622791561803 -2.844812672847642 20
247 5.153136616775885 11.64721021238784 20
248 5.162915596025548 -11.64657394767743 20
249 12.3407307662486 16.07170717127991 20
250 12.3407307662486 -16.07170717127992 20
251 3.558423654419474 -16.37279123146643 20
252 3.556467858569541 16.37291848440851 20
253 16.44983191768342 -16.40692007681528 20
254 16.44983191768342 16.40692007681527 20
255 9.993491881377782 12.71909202004684 20
256 10.0024287987092 -12.71808795962536 20
257 9.993209072434716 2.821788470675958 -6.80226397225296
258 9.999992558887657 2.858704232421208 6.46209028043941
259 10.36703334850892 -10.48895184448162 -10.48819298768585
260 10.38491049052896 -10.48787814879094 10.48787814879094
261 10.00080461532998 -5.925158145200811 -1.065190852230637
262 9.853693760291909 10.33738654798387 -0.1908789046782916
263 8.907513615077988 10.93891532543714 10.93619516047428
264 11.10006457902194 10.98683142257437 -10.98905822316344
265 7.908734873204113 -2.9228388834238 -12.16449329757969
266 7.971762304557363 -2.796830334875143 12.061451308913
267 12.70852620887576 -12.72540560272086 1.69205944867784
268 12.51576749778573 -4.409615741310201 6.055285390552946
269 13.38294676999102 2.864282392907744 -13.37946618101843
270 13.21695269061845 2.639591218276717 13.22592983101644
271 12.80062850880148 0.9218617020195521 -0.1661818275545136
272 6.747835798791545 5.509687006635198 -12.61972278008593
273 7.39013806323159 -12.86797730160646 -3.832236481342417
274 13.29528675979148 -3.718849834898909 -7.242231308150145
275 6.104546244928169 13.96261757819359 -13.96257102901484
276 6.484499778015351 4.482922623234408 12.33719589812588
277 13.7537466809644 13.94991453225776 14.03087151263131
278 13.09254540159714 13.11551903243133 5.554373225338267
279 6.485648675912971 8.858016972753401 -6.159158178926688
280 5.949361775192756 -14.04621773132202 14.04621773132203
281 5.964792171476638 -14.03733676226844 -14.03733764597317
282 6.11832201132159 -0.04812661850425215 -1.800779670484244
283 13.73263037991096 8.286922264078278 -5.35702925211296
284 6.233874340470232 8.386131427266086 5.226822998296268
285 6.665352955883553 -8.312621664027819 4.786718823554082
286 14.07682328333254 -14.16579836567241 14.16579836567242
287 14.0656382763523 -14.16321274569159 -14.16321803063958
288 10.92265860433206 14.10847311147813 -5.33123698387395
289 5.708928402212874 14.55609097228148 14.48974234745659
290 6.503919907209915 -6.542454257097623 -6.725923983093164
291 14.29490738136514 14.55917751989305 -14.55888190627711
292 5.628554456776143 14.32468006992063 2.937184729025215
293 14.0633506417312 -3.524381694626247 -14.02173159858287
294 13.6109458467445 -5.730615459445826 13.61603466047532
295 13.91655964322048 6.448092371318608 2.879307834795715
296 13.52719791418789 -10.3530807958066 -4.607380518073896
297 6.16120447442731 -1.892512824251723 4.382409616542825
298 13.57821879265364 7.260345733244866 9.053315264868086
299 5.556316507626079 -13.93601320236863 7.651477269713679
300 5.269806304274081 14.47778893034611 -3.128409881741474
301 14.54519861235755 -14.03852581214323 7.500721267033507
302 5.56023347733963 5.921708638204491 -0.3803824096473636
303 14.83677877092056 8.528218531982542 -14.80608754545524
304 5.687015938043253 -7.957241301502659 14.38763177142081
305 5.552370189903299 -8.010774882670535 -14.44913021548996
306 12.49429227763612 8.267059281325489 14.72565363013384
307 4.941457424077163 0.3170215076658355 -8.318506649414271
$EndNodes
$Elements
1217
1 2 2 1 1 1 9 113
2 2 2 1 1 15 1 113
3 2 2 1 1 14 2 114
4 2 2 1 1 2 27 114
5 2 2 1 1 3 20 111
6 2 2 1 1 21 3 111
7 2 2 1 1 4 26 112
8 2 2 1 1 32 4 112
9 2 2 1 1 9 10 73
10 2 2 1 1 9 73 113
11 2 2 1 1 10 11 110
12 2 2 1 1 73 10 110
13 2 2 1 1 11 12 69
14 2 2 1 1 11 69 110
15 2 2 1 1 12 13 107
16 2 2 1 1 69 12 107
17 2 2 1 1 13 14 74
18 2 2 1 1 13 74 107
19 2 2 1 1 74 14 114
20 2 2 1 1 16 15 105
21 2 2 1 1 105 15 113
22 2 2 1 1 17 16 104
23 2 2 1 1 104 16 105
24 2 2 1 1 18 17 72
25 2 2 1 1 72 17 104
26 2 2 1 1 19 18 77
27 2 2 1 1 18 72 77
28 2 2 1 1 20 19 76
29 2 2 1 1 76 19 77
30 2 2 1 1 20 76 111
31 2 2 1 1 22 21 102
32 2 2 1 1 102 21 111
33 2 2 1 1 23 22 108
34 2 2 1 1 22 102 108
35 2 2 1 1 24 23 70
36 2 2 1 1 70 23 108
37 2 2 1 1 25 24 109
38 2 2 1 1 24 70 109
39 2 2 1 1 26 25 94
40 2 2 1 1 94 25 109
41 2 2 1 1 26 94 112
42 2 2 1 1 27 28 106
43 2 2 1 1 27 106 114
44 2 2 1 1 28 29 99
45 2 2 1 1 28 99 106
46 2 2 1 1 29 30 71
47 2 2 1 1 29 71 99
48 2 2 1 1 30 31 97
49 2 2 1 1 71 30 97
50 2 2 1 1 31 32 75
51 2 2 1 1 31 75 97
52 2 2 1 1 75 32 112
53 2 2 1 1 87 69 88
54 2 2 1 1 69 87 90
55 2 2 1 1 88 69 107
56 2 2 1 1 69 90 110
57 2 2 1 1 93 70 103
58 2 2 1 1 70 93 109
59 2 2 1 1 70 101 103
60 2 2 1 1 101 70 108
61 2 2 1 1 91 71 97
62 2 2 1 1 71 91 98
63 2 2 1 1 71 98 99
64 2 2 1 1 77 72 78
65 2 2 1 1 78 72 79
66 2 2 1 1 79 72 104
67 2 2 1 1 73 90 96
68 2 2 1 1 90 73 110
69 2 2 1 1 73 96 105
70 2 2 1 1 73 105 113
71 2 2 1 1 88 74 89
72 2 2 1 1 74 88 107
73 2 2 1 1 89 74 106
74 2 2 1 1 106 74 114
75 2 2 1 1 92 75 94
76 2 2 1 1 75 92 97
77 2 2 1 1 94 75 112
78 2 2 1 1 76 77 100
79 2 2 1 1 76 100 102
80 2 2 1 1 76 102 111
81 2 2 1 1 77 78 100
82 2 2 1 1 78 79 80
83 2 2 1 1 78 80 81
84 2 2 1 1 78 81 100
85 2 2 1 1 80 79 95
86 2 2 1 1 95 79 96
87 2 2 1 1 96 79 104
88 2 2 1 1 81 80 82
89 2 2 1 1 82 80 83
90 2 2 1 1 83 80 95
91 2 2 1 1 81 82 103
92 2 2 1 1 100 81 101
93 2 2 1 1 101 81 103
94 2 2 1 1 82 83 84
95 2 2 1 1 82 84 85
96 2 2 1 1 82 85 103
97 2 2 1 1 84 83 86
98 2 2 1 1 86 83 87
99 2 2 1 1 87 83 95
100 2 2 1 1 85 84 91
101 2 2 1 1 84 86 98
102 2 2 1 1 91 84 98
103 2 2 1 1 85 91 92
104 2 2 1 1 85 92 93
105 2 2 1 1 85 93 103
106 2 2 1 1 86 87 88
107 2 2 1 1 86 88 89
108 2 2 1 1 86 89 98
109 2 2 1 1 90 87 95
110 2 2 1 1 98 89 99
111 2 2 1 1 99 89 106
112 2 2 1 1 90 95 96
113 2 2 1 1 92 91 97
114 2 2 1 1 93 92 94
115 2 2 1 1 93 94 109
116 2 2 1 1 96 104 105
117 2 2 1 1 100 101 102
118 2 2 1 1 102 101 108
119 2 2 2 2 5 159 33
120 2 2 2 2 39 159 5
121 2 2 2 2 38 160 6
122 2 2 2 2 6 160 51
123 2 2 2 2 7 157 44
124 2 2 2 2 45 157 7
125 2 2 2 2 8 158 50
126 2 2 2 2 56 158 8
127 2 2 2 2 33 151 34
128 2 2 2 2 33 159 151
129 2 2 2 2 34 156 35
130 2 2 2 2 151 156 34
131 2 2 2 2 35 115 36
132 2 2 2 2 35 156 115
133 2 2 2 2 36 153 37
134 2 2 2 2 115 153 36
135 2 2 2 2 37 121 38
136 2 2 2 2 37 153 121
137 2 2 2 2 121 160 38
138 2 2 2 2 40 120 39
139 2 2 2 2 120 159 39
140 2 2 2 2 41 148 40
141 2 2 2 2 40 148 120
142 2 2 2 2 42 118 41
143 2 2 2 2 118 148 41
144 2 2 2 2 43 123 42
145 2 2 2 2 42 123 118
146 2 2 2 2 44 122 43
147 2 2 2 2 122 123 43
148 2 2 2 2 44 157 122
149 2 2 2 2 46 149 45
150 2 2 2 2 149 157 45
151 2 2 2 2 47 155 46
152 2 2 2 2 46 155 149
153 2 2 2 2 48 116 47
154 2 2 2 2 116 155 47
155 2 2 2 2 49 154 48
156 2 2 2 2 48 154 116
157 2 2 2 2 50 140 49
158 2 2 2 2 140 154 49
159 2 2 2 2 50 158 140
160 2 2 2 2 51 152 52
161 2 2 2 2 51 160 152
162 2 2 2 2 52 144 53
163 2 2 2 2 52 152 144
164 2 2 2 2 53 117 54
165 2 2 2 2 53 144 117
166 2 2 2 2 54 142 55
167 2 2 2 2 117 142 54
168 2 2 2 2 55 119 56
169 2 2 2 2 55 142 119
170 2 2 2 2 119 158 56
171 2 2 2 2 133 134 115
172 2 2 2 2 115 135 133
173 2 2 2 2 134 153 115
174 2 2 2 2 115 156 135
175 2 2 2 2 139 145 116
176 2 2 2 2 116 154 139
177 2 2 2 2 145 146 116
178 2 2 2 2 146 155 116
179 2 2 2 2 137 142 117
180 2 2 2 2 117 143 137
181 2 2 2 2 117 144 143
182 2 2 2 2 123 124 118
183 2 2 2 2 124 125 118
184 2 2 2 2 125 148 118
185 2 2 2 2 138 140 119
186 2 2 2 2 119 142 138
187 2 2 2 2 140 158 119
188 2 2 2 2 148 150 120
189 2 2 2 2 150 151 120
190 2 2 2 2 151 159 120
191 2 2 2 2 134 136 121
192 2 2 2 2 121 153 134
193 2 2 2 2 136 152 121
194 2 2 2 2 152 160 121
195 2 2 2 2 122 147 123
196 2 2 2 2 122 149 147
197 2 2 2 2 122 157 149
198 2 2 2 2 123 147 124
199 2 2 2 2 124 126 125
200 2 2 2 2 124 127 126
201 2 2 2 2 124 147 127
202 2 2 2 2 126 141 125
203 2 2 2 2 141 150 125
204 2 2 2 2 125 150 148
205 2 2 2 2 127 128 126
206 2 2 2 2 128 129 126
207 2 2 2 2 129 141 126
208 2 2 2 2 127 145 128
209 2 2 2 2 127 146 145
210 2 2 2 2 127 147 146
211 2 2 2 2 128 130 129
212 2 2 2 2 128 131 130
213 2 2 2 2 128 145 131
214 2 2 2 2 130 132 129
215 2 2 2 2 132 133 129
216 2 2 2 2 133 141 129
217 2 2 2 2 131 137 130
218 2 2 2 2 130 143 132
219 2 2 2 2 137 143 130
220 2 2 2 2 131 138 137
221 2 2 2 2 131 139 138
222 2 2 2 2 131 145 139
223 2 2 2 2 132 134 133
224 2 2 2 2 132 136 134
225 2 2 2 2 132 143 136
226 2 2 2 2 135 141 133
227 2 2 2 2 135 150 141
228 2 2 2 2 135 151 150
229 2 2 2 2 135 156 151
230 2 2 2 2 143 144 136
231 2 2 2 2 144 152 136
232 2 2 2 2 138 142 137
233 2 2 2 2 139 140 138
234 2 2 2 2 139 154 140
235 2 2 2 2 147 149 146
236 2 2 2 2 149 155 146
237 4 2 3 1 197 116 262 288
238 4 2 3 1 168 287 259 296
239 4 2 3 1 172 273 69 299
240 4 2 3 1 168 169 259 287
241 4 2 3 1 258 268 137 270
242 4 2 3 1 94 263 187 289
243 4 2 3 1 116 283 262 288
244 4 2 3 1 197 262 116 278
245 4 2 3 1 168 151 287 296
246 4 2 3 1 130 137 258 268
247 4 2 3 1 195 263 94 292
248 4 2 3 1 273 285 69 299
249 4 2 3 1 169 168 259 296
250 4 2 3 1 186 275 288 300
251 4 2 3 1 187 94 195 263
252 4 2 3 1 143 137 268 270
253 4 2 3 1 195 196 263 292
254 4 2 3 1 129 261 133 268
255 4 2 3 1 267 285 273 299
256 4 2 3 1 127 257 271 283
257 4 2 3 1 193 197 262 288
258 4 2 3 1 168 164 169 287
259 4 2 3 1 273 281 96 290
260 4 2 3 1 187 195 196 263
261 4 2 3 1 186 275 200 288
262 4 2 3 1 200 275 192 288
263 4 2 3 1 75 247 276 289
264 4 2 3 1 261 267 133 268
265 4 2 3 1 127 257 126 271
266 4 2 3 1 212 287 120 293
267 4 2 3 1 193 197 198 262
268 4 2 3 1 259 281 273 290
269 4 2 3 1 127 124 257 283
270 4 2 3 1 124 126 127 257
271 4 2 3 1 264 283 146 288
272 4 2 3 1 149 264 288 291
273 4 2 3 1 120 287 150 293
274 4 2 3 1 156 151 168 296
275 4 2 3 1 116 145 262 283
276 4 2 3 1 186 200 192 288
277 4 2 3 1 198 262 197 278
278 4 2 3 1 217 287 212 293
279 4 2 3 1 130 143 137 268
280 4 2 3 1 96 273 90 281
281 4 2 3 1 90 273 96 290
282 4 2 3 1 279 288 275 300
283 4 2 3 1 132 129 133 268
284 4 2 3 1 259 287 217 293
285 4 2 3 1 75 276 263 289
286 4 2 3 1 257 269 124 274
287 4 2 3 1 137 295 258 298
288 4 2 3 1 126 257 124 274
289 4 2 3 1 212 120 216 293
290 4 2 3 1 137 130 258 295
291 4 2 3 1 168 151 164 287
292 4 2 3 1 216 120 148 293
293 4 2 3 1 149 288 188 291
294 4 2 3 1 145 278 262 295
295 4 2 3 1 124 269 257 283
296 4 2 3 1 150 287 259 293
297 4 2 3 1 263 284 94 292
298 4 2 3 1 141 261 129 274
299 4 2 3 1 162 73 273 281
300 4 2 3 1 145 116 262 278
301 4 2 3 1 129 261 141 296
302 4 2 3 1 73 90 273 281
303 4 2 3 1 133 261 129 296
304 4 2 3 1 149 264 146 288
305 4 2 3 1 84 85 91 297
306 4 2 3 1 261 268 129 271
307 4 2 3 1 83 261 87 290
308 4 2 3 1 146 283 116 288
309 4 2 3 1 275 279 264 288
310 4 2 3 1 162 176 73 281
311 4 2 3 1 102 275 186 300
312 4 2 3 1 214 202 190 291
313 4 2 3 1 133 129 141 296
314 4 2 3 1 91 276 258 284
315 4 2 3 1 132 133 267 268
316 4 2 3 1 216 217 212 293
317 4 2 3 1 73 96 90 281
318 4 2 3 1 75 247 233 276
319 4 2 3 1 186 102 200 275
320 4 2 3 1 220 72 265 272
321 4 2 3 1 196 278 263 292
322 4 2 3 1 148 120 150 293
323 4 2 3 1 261 271 129 274
324 4 2 3 1 137 131 130 295
325 4 2 3 1 166 239 177 286
326 4 2 3 1 102 279 275 300
327 4 2 3 1 169 173 168 273
328 4 2 3 1 87 261 83 285
329 4 2 3 1 85 284 297 302
330 4 2 3 1 271 283 257 302
331 4 2 3 1 202 214 225 291
332 4 2 3 1 167 226 215 287
333 4 2 3 1 262 283 271 302
334 4 2 3 1 220 265 221 272
335 4 2 3 1 131 295 137 298
336 4 2 3 1 91 276 266 297
337 4 2 3 1 143 270 268 294
338 4 2 3 1 169 273 168 296
339 4 2 3 1 83 282 261 290
340 4 2 3 1 141 261 274 296
341 4 2 3 1 69 273 87 285
342 4 2 3 1 173 168 273 296
343 4 2 3 1 130 268 258 271
344 4 2 3 1 250 177 239 286
345 4 2 3 1 149 191 188 288
346 4 2 3 1 192 288 264 291
347 4 2 3 1 192 264 208 291
348 4 2 3 1 178 226 167 287
349 4 2 3 1 261 83 285 297
350 4 2 3 1 155 116 191 288
351 4 2 3 1 146 264 147 283
352 4 2 3 1 169 273 259 281
353 4 2 3 1 130 271 258 295
354 4 2 3 1 169 259 273 296
355 4 2 3 1 110 162 73 273
356 4 2 3 1 191 149 155 288
357 4 2 3 1 233 97 75 276
358 4 2 3 1 196 263 207 289
359 4 2 3 1 257 126 271 274
360 4 2 3 1 265 269 221 272
361 4 2 3 1 115 165 267 296
362 4 2 3 1 150 259 287 296
363 4 2 3 1 91 258 276 297
364 4 2 3 1 187 263 196 289
365 4 2 3 1 137 258 270 298
366 4 2 3 1 247 243 233 276
367 4 2 3 1 197 191 116 288
368 4 2 3 1 161 174 172 299
369 4 2 3 1 89 98 266 285
370 4 2 3 1 150 287 151 296
371 4 2 3 1 87 273 261 285
372 4 2 3 1 261 273 87 290
373 4 2 3 1 208 190 202 291
374 4 2 3 1 192 208 264 275
375 4 2 3 1 193 262 198 292
376 4 2 3 1 219 272 264 275
377 4 2 3 1 231 225 214 291
378 4 2 3 1 98 91 266 297
379 4 2 3 1 83 87 95 290
380 4 2 3 1 89 285 266 304
381 4 2 3 1 201 249 238 277
382 4 2 3 1 258 297 284 302
383 4 2 3 1 214 190 275 291
384 4 2 3 1 219 264 231 275
385 4 2 3 1 264 283 269 303
386 4 2 3 1 261 282 83 297
387 4 2 3 1 201 189 249 277
388 4 2 3 1 192 275 264 288
389 4 2 3 1 260 268 136 301
390 4 2 3 1 128 283 271 295
391 4 2 3 1 75 92 263 276
392 4 2 3 1 207 263 196 277
393 4 2 3 1 155 149 146 288
394 4 2 3 1 192 188 288 291
395 4 2 3 1 259 274 150 293
396 4 2 3 1 266 285 98 297
397 4 2 3 1 250 239 256 286
398 4 2 3 1 166 177 184 286
399 4 2 3 1 172 107 161 299
400 4 2 3 1 72 104 220 265
401 4 2 3 1 134 268 267 301
402 4 2 3 1 127 271 128 283
403 4 2 3 1 257 269 264 283
404 4 2 3 1 232 215 226 287
405 4 2 3 1 94 263 92 284
406 4 2 3 1 69 285 88 299
407 4 2 3 1 178 167 183 287
408 4 2 3 1 172 69 107 299
409 4 2 3 1 255 243 289 306
410 4 2 3 1 256 260 241 286
411 4 2 3 1 193 262 292 300
412 4 2 3 1 232 217 259 287
413 4 2 3 1 223 76 272 275
414 4 2 3 1 183 259 169 287
415 4 2 3 1 260 286 184 301
416 4 2 3 1 149 147 146 264
417 4 2 3 1 155 146 116 288
418 4 2 3 1 132 267 134 268
419 4 2 3 1 265 272 72 307
420 4 2 3 1 217 259 293 305
421 4 2 3 1 116 146 145 283
422 4 2 3 1 271 283 262 295
423 4 2 3 1 245 266 244 276
424 4 2 3 1 134 136 268 301
425 4 2 3 1 210 220 104 265
426 4 2 3 1 201 277 238 289
427 4 2 3 1 193 288 262 300
428 4 2 3 1 133 267 261 296
429 4 2 3 1 166 280 239 286
430 4 2 3 1 183 169 259 281
431 4 2 3 1 145 262 283 295
432 4 2 3 1 125 124 269 274
433 4 2 3 1 71 234 99 266
434 4 2 3 1 267 299 174 301
435 4 2 3 1 167 215 281 287
436 4 2 3 1 171 260 184 301
437 4 2 3 1 223 76 209 272
438 4 2 3 1 244 234 71 266
439 4 2 3 1 184 260 171 299
440 4 2 3 1 77 209 76 272
441 4 2 3 1 85 297 84 302
442 4 2 3 1 196 277 263 278
443 4 2 3 1 136 268 260 294
444 4 2 3 1 232 259 217 305
445 4 2 3 1 188 192 208 291
446 4 2 3 1 184 280 260 299
447 4 2 3 1 257 274 282 307
448 4 2 3 1 241 260 256 304
449 4 2 3 1 171 174 299 301
450 4 2 3 1 201 207 189 277
451 4 2 3 1 231 264 219 303
452 4 2 3 1 173 273 267 296
453 4 2 3 1 129 268 130 271
454 4 2 3 1 266 276 258 297
455 4 2 3 1 94 284 93 292
456 4 2 3 1 208 275 190 291
457 4 2 3 1 272 275 100 279
458 4 2 3 1 98 89 266 304
459 4 2 3 1 75 263 92 289
460 4 2 3 1 268 270 266 294
461 4 2 3 1 221 265 222 269
462 4 2 3 1 255 243 247 289
463 4 2 3 1 264 269 257 272
464 4 2 3 1 231 214 275 291
465 4 2 3 1 245 270 266 276
466 4 2 3 1 231 291 264 303
467 4 2 3 1 127 126 128 271
468 4 2 3 1 238 249 255 277
469 4 2 3 1 77 72 209 272
470 4 2 3 1 262 278 198 292
471 4 2 3 1 174 173 172 273
472 4 2 3 1 102 186 108 300
473 4 2 3 1 274 290 282 307
474 4 2 3 1 223 272 219 275
475 4 2 3 1 219 264 272 303
476 4 2 3 1 71 244 266 276
477 4 2 3 1 232 281 259 305
478 4 2 3 1 187 196 207 289
479 4 2 3 1 220 209 72 272
480 4 2 3 1 195 94 109 292
481 4 2 3 1 266 268 258 270
482 4 2 3 1 129 271 126 274
483 4 2 3 1 260 280 256 304
484 4 2 3 1 99 266 234 304
485 4 2 3 1 134 136 132 268
486 4 2 3 1 174 267 173 273
487 4 2 3 1 267 268 260 301
488 4 2 3 1 150 274 259 296
489 4 2 3 1 264 275 272 279
490 4 2 3 1 81 279 302 307
491 4 2 3 1 88 69 87 285
492 4 2 3 1 156 135 151 296
493 4 2 3 1 208 264 275 291
494 4 2 3 1 221 220 222 265
495 4 2 3 1 71 266 91 276
496 4 2 3 1 231 275 264 291
497 4 2 3 1 245 246 266 270
498 4 2 3 1 263 277 207 289
499 4 2 3 1 132 133 134 267
500 4 2 3 1 145 283 128 295
501 4 2 3 1 244 245 246 266
502 4 2 3 1 238 277 255 289
503 4 2 3 1 241 286 260 294
504 4 2 3 1 271 295 262 302
505 4 2 3 1 78 272 279 307
506 4 2 3 1 260 280 184 286
507 4 2 3 1 256 280 260 286
508 4 2 3 1 239 280 256 286
509 4 2 3 1 166 184 280 286
510 4 2 3 1 259 281 232 287
511 4 2 3 1 125 274 269 293
512 4 2 3 1 183 281 259 287
513 4 2 3 1 98 91 71 266
514 4 2 3 1 83 95 282 290
515 4 2 3 1 201 207 277 289
516 4 2 3 1 222 269 265 293
517 4 2 3 1 257 283 279 302
518 4 2 3 1 232 281 215 287
519 4 2 3 1 277 278 140 298
520 4 2 3 1 167 281 183 287
521 4 2 3 1 279 257 302 307
522 4 2 3 1 262 279 283 302
523 4 2 3 1 100 275 102 279
524 4 2 3 1 246 266 270 294
525 4 2 3 1 90 110 73 273
526 4 2 3 1 82 85 84 302
527 4 2 3 1 260 268 267 285
528 4 2 3 1 82 84 297 302
529 4 2 3 1 246 270 237 294
530 4 2 3 1 257 274 271 282
531 4 2 3 1 86 98 285 297
532 4 2 3 1 104 210 265 305
533 4 2 3 1 81 302 282 307
534 4 2 3 1 145 127 128 283
535 4 2 3 1 78 279 81 307
536 4 2 3 1 94 92 263 289
537 4 2 3 1 219 272 269 303
538 4 2 3 1 217 293 265 305
539 4 2 3 1 76 100 272 275
540 4 2 3 1 145 139 116 278
541 4 2 3 1 260 286 136 294
542 4 2 3 1 282 302 257 307
543 4 2 3 1 271 274 261 282
544 4 2 3 1 89 86 98 285
545 4 2 3 1 222 265 217 293
546 4 2 3 1 271 282 258 302
547 4 2 3 1 237 270 117 294
548 4 2 3 1 264 147 283 303
549 4 2 3 1 139 278 145 295
550 4 2 3 1 150 151 135 296
551 4 2 3 1 265 293 259 305
552 4 2 3 1 199 277 196 278
553 4 2 3 1 261 282 274 290
554 4 2 3 1 278 284 263 292
555 4 2 3 1 89 299 285 304
556 4 2 3 1 136 286 260 301
557 4 2 3 1 117 270 143 294
558 4 2 3 1 102 101 279 300
559 4 2 3 1 258 295 271 302
560 4 2 3 1 263 276 92 284
561 4 2 3 1 197 116 154 278
562 4 2 3 1 125 126 124 274
563 4 2 3 1 241 236 286 294
564 4 2 3 1 185 197 154 278
565 4 2 3 1 86 87 83 285
566 4 2 3 1 244 71 233 276
567 4 2 3 1 130 129 132 268
568 4 2 3 1 221 269 219 272
569 4 2 3 1 236 256 241 286
570 4 2 3 1 86 285 83 297
571 4 2 3 1 138 277 140 298
572 4 2 3 1 94 92 93 284
573 4 2 3 1 232 212 217 287
574 4 2 3 1 261 273 267 285
575 4 2 3 1 78 72 272 307
576 4 2 3 1 183 169 164 287
577 4 2 3 1 78 272 100 279
578 4 2 3 1 265 269 257 274
579 4 2 3 1 260 299 267 301
580 4 2 3 1 136 286 152 294
581 4 2 3 1 143 268 136 294
582 4 2 3 1 223 209 219 272
583 4 2 3 1 97 233 71 276
584 4 2 3 1 165 170 153 267
585 4 2 3 1 266 285 260 304
586 4 2 3 1 282 82 297 302
587 4 2 3 1 217 265 222 305
588 4 2 3 1 75 97 92 276
589 4 2 3 1 138 140 278 298
590 4 2 3 1 258 282 297 302
591 4 2 3 1 152 286 236 294
592 4 2 3 1 257 269 265 272
593 4 2 3 1 285 299 260 304
594 4 2 3 1 260 285 267 299
595 4 2 3 1 140 277 199 278
596 4 2 3 1 92 276 91 284
597 4 2 3 1 264 272 257 279
598 4 2 3 1 87 273 90 290
599 4 2 3 1 98 84 91 297
600 4 2 3 1 162 110 172 273
601 4 2 3 1 127 147 124 283
602 4 2 3 1 78 100 81 279
603 4 2 3 1 240 237 117 294
604 4 2 3 1 282 290 80 307
605 4 2 3 1 192 188 191 288
606 4 2 3 1 192 200 208 275
607 4 2 3 1 258 276 263 284
608 4 2 3 1 144 240 117 294
609 4 2 3 1 135 156 115 296
610 4 2 3 1 241 294 260 304
611 4 2 3 1 258 282 271 297
612 4 2 3 1 103 300 292 302
613 4 2 3 1 209 220 221 272
614 4 2 3 1 277 298 138 306
615 4 2 3 1 104 72 79 265
616 4 2 3 1 128 271 130 295
617 4 2 3 1 184 286 163 301
618 4 2 3 1 165 153 115 267
619 4 2 3 1 292 300 262 302
620 4 2 3 1 267 268 261 285
621 4 2 3 1 263 258 284 298
622 4 2 3 1 95 80 282 290
623 4 2 3 1 284 295 258 302
624 4 2 3 1 266 294 246 304
625 4 2 3 1 152 236 240 294
626 4 2 3 1 265 290 79 305
627 4 2 3 1 198 278 196 292
628 4 2 3 1 152 240 144 294
629 4 2 3 1 219 231 223 275
630 4 2 3 1 264 279 257 283
631 4 2 3 1 171 299 260 301
632 4 2 3 1 119 277 138 306
633 4 2 3 1 183 176 169 281
634 4 2 3 1 257 282 271 302
635 4 2 3 1 207 196 199 277
636 4 2 3 1 258 263 276 298
637 4 2 3 1 85 92 91 284
638 4 2 3 1 69 172 110 273
639 4 2 3 1 241 246 294 304
640 4 2 3 1 141 129 126 274
641 4 2 3 1 122 149 291 303
642 4 2 3 1 80 290 95 307
643 4 2 3 1 42 123 213 118
644 4 2 3 1 185 140 199 278
645 4 2 3 1 269 274 265 293
646 4 2 3 1 242 117 237 270
647 4 2 3 1 213 218 123 42
648 4 2 3 1 213 118 123 269
649 4 2 3 1 284 295 278 298
650 4 2 3 1 266 268 260 285
651 4 2 3 1 269 272 264 303
652 4 2 3 1 218 213 123 269
653 4 2 3 1 150 274 125 293
654 4 2 3 1 213 269 222 293
655 4 2 3 1 72 104 17 220
656 4 2 3 1 170 153 267 301
657 4 2 3 1 80 81 282 307
658 4 2 3 1 221 222 213 269
659 4 2 3 1 98 71 99 266
660 4 2 3 1 242 142 117 270
661 4 2 3 1 171 184 163 301
662 4 2 3 1 265 290 274 307
663 4 2 3 1 234 244 246 266
664 4 2 3 1 117 54 242 237
665 4 2 3 1 53 117 240 237
666 4 2 3 1 268 271 261 297
667 4 2 3 1 107 69 88 299
668 4 2 3 1 243 245 276 306
669 4 2 3 1 240 144 117 53
670 4 2 3 1 95 87 90 290
671 4 2 3 1 263 278 277 298
672 4 2 3 1 96 79 290 305
673 4 2 3 1 109 94 93 292
674 4 2 3 1 257 272 265 307
675 4 2 3 1 132 136 143 268
676 4 2 3 1 194 193 292 300
677 4 2 3 1 94 75 92 289
678 4 2 3 1 123 269 124 303
679 4 2 3 1 124 118 125 269
680 4 2 3 1 194 193 198 292
681 4 2 3 1 150 141 274 296
682 4 2 3 1 102 108 101 300
683 4 2 3 1 263 284 278 298
684 4 2 3 1 72 18 77 209
685 4 2 3 1 210 17 104 220
686 4 2 3 1 220 210 222 265
687 4 2 3 1 117 54 142 242
688 4 2 3 1 125 269 118 293
689 4 2 3 1 72 79 265 307
690 4 2 3 1 140 185 154 278
691 4 2 3 1 257 265 274 307
692 4 2 3 1 175 280 184 299
693 4 2 3 1 262 295 284 302
694 4 2 3 1 270 276 245 306
695 4 2 3 1 99 71 29 234
696 4 2 3 1 103 292 284 302
697 4 2 3 1 245 237 246 270
698 4 2 3 1 18 72 220 209
699 4 2 3 1 71 244 29 234
700 4 2 3 1 216 40 148 120
701 4 2 3 1 265 274 259 293
702 4 2 3 1 77 78 72 272
703 4 2 3 1 233 245 244 276
704 4 2 3 1 268 285 266 297
705 4 2 3 1 77 76 100 272
706 4 2 3 1 243 245 233 276
707 4 2 3 1 175 184 171 299
708 4 2 3 1 262 278 284 295
709 4 2 3 1 244 30 233 71
710 4 2 3 1 101 100 102 279
711 4 2 3 1 40 216 212 120
712 4 2 3 1 131 128 130 295
713 4 2 3 1 218 219 269 303
714 4 2 3 1 258 271 268 297
715 4 2 3 1 97 233 30 71
716 4 2 3 1 185 199 196 278
717 4 2 3 1 122 147 149 303
718 4 2 3 1 257 279 272 307
719 4 2 3 1 89 280 299 304
720 4 2 3 1 123 124 147 303
721 4 2 3 1 103 279 300 302
722 4 2 3 1 117 137 143 270
723 4 2 3 1 104 265 79 305
724 4 2 3 1 221 218 219 269
725 4 2 3 1 209 19 77 76
726 4 2 3 1 242 119 142 306
727 4 2 3 1 115 267 133 296
728 4 2 3 1 266 270 258 276
729 4 2 3 1 193 191 197 288
730 4 2 3 1 98 266 99 304
731 4 2 3 1 258 268 266 297
732 4 2 3 1 52 152 240 144
733 4 2 3 1 234 266 246 304
734 4 2 3 1 82 80 81 282
735 4 2 3 1 31 75 247 233
736 4 2 3 1 271 282 261 297
737 4 2 3 1 235 119 242 306
738 4 2 3 1 81 82 282 302
739 4 2 3 1 83 95 80 282
740 4 2 3 1 31 75 233 97
741 4 2 3 1 222 265 210 305
742 4 2 3 1 174 165 173 267
743 4 2 3 1 185 198 197 278
744 4 2 3 1 19 209 223 76
745 4 2 3 1 284 292 262 302
746 4 2 3 1 262 284 278 292
747 4 2 3 1 240 236 152 52
748 4 2 3 1 137 270 142 298
749 4 2 3 1 235 55 242 119
750 4 2 3 1 258 295 284 298
751 4 2 3 1 55 142 242 119
752 4 2 3 1 128 129 130 271
753 4 2 3 1 231 211 291 303
754 4 2 3 1 119 138 142 306
755 4 2 3 1 260 268 266 294
756 4 2 3 1 142 298 270 306
757 4 2 3 1 126 129 128 271
758 4 2 3 1 130 132 143 268
759 4 2 3 1 138 298 142 306
760 4 2 3 1 259 274 265 290
761 4 2 3 1 79 290 265 307
762 4 2 3 1 170 267 174 301
763 4 2 3 1 209 221 219 272
764 4 2 3 1 64 190 214 202
765 4 2 3 1 166 239 61 177
766 4 2 3 1 167 215 226 58
767 4 2 3 1 139 278 295 298
768 4 2 3 1 136 121 286 301
769 4 2 3 1 69 90 87 273
770 4 2 3 1 119 140 138 277
771 4 2 3 1 224 281 232 305
772 4 2 3 1 246 237 240 294
773 4 2 3 1 170 165 174 267
774 4 2 3 1 139 295 131 298
775 4 2 3 1 195 198 196 292
776 4 2 3 1 256 280 248 304
777 4 2 3 1 262 300 279 302
778 4 2 3 1 103 279 101 300
779 4 2 3 1 250 61 239 177
780 4 2 3 1 226 178 167 58
781 4 2 3 1 202 214 64 225
782 4 2 3 1 35 168 165 156
783 4 2 3 1 108 102 22 186
784 4 2 3 1 241 240 236 294
785 4 2 3 1 139 138 140 278
786 4 2 3 1 171 174 161 299
787 4 2 3 1 162 110 11 172
788 4 2 3 1 144 136 152 294
789 4 2 3 1 139 138 278 298
790 4 2 3 1 115 35 165 156
791 4 2 3 1 204 214 190 275
792 4 2 3 1 110 10 73 162
793 4 2 3 1 115 133 135 296
794 4 2 3 1 69 11 110 172
795 4 2 3 1 103 70 292 300
796 4 2 3 1 76 102 100 275
797 4 2 3 1 162 10 73 176
798 4 2 3 1 171 170 174 301
799 4 2 3 1 214 204 228 275
800 4 2 3 1 150 120 151 287
801 4 2 3 1 144 117 143 294
802 4 2 3 1 150 141 125 274
803 4 2 3 1 102 200 22 186
804 4 2 3 1 259 274 290 296
805 4 2 3 1 217 222 210 305
806 4 2 3 1 238 201 67 249
807 4 2 3 1 189 67 201 249
808 4 2 3 1 79 95 290 307
809 4 2 3 1 260 299 280 304
810 4 2 3 1 148 150 125 293
811 4 2 3 1 93 284 103 292
812 4 2 3 1 276 298 263 306
813 4 2 3 1 137 142 138 298
814 4 2 3 1 203 249 189 277
815 4 2 3 1 242 142 270 306
816 4 2 3 1 224 232 217 305
817 4 2 3 1 89 106 280 304
818 4 2 3 1 154 116 139 278
819 4 2 3 1 46 155 191 149
820 4 2 3 1 241 256 248 304
821 4 2 3 1 169 162 173 273
822 4 2 3 1 261 290 274 296
823 4 2 3 1 153 36 170 165
824 4 2 3 1 203 254 249 277
825 4 2 3 1 267 273 261 296
826 4 2 3 1 213 118 269 293
827 4 2 3 1 258 276 270 298
828 4 2 3 1 153 36 165 115
829 4 2 3 1 34 168 156 151
830 4 2 3 1 12 172 107 161
831 4 2 3 1 234 246 241 304
832 4 2 3 1 153 134 267 301
833 4 2 3 1 98 99 89 304
834 4 2 3 1 149 191 46 188
835 4 2 3 1 152 136 121 286
836 4 2 3 1 164 168 34 151
837 4 2 3 1 134 115 153 267
838 4 2 3 1 89 280 74 299
839 4 2 3 1 172 69 12 107
840 4 2 3 1 172 173 162 273
841 4 2 3 1 118 213 41 293
842 4 2 3 1 215 227 167 281
843 4 2 3 1 81 279 103 302
844 4 2 3 1 96 281 105 305
845 4 2 3 1 166 179 239 280
846 4 2 3 1 216 222 217 293
847 4 2 3 1 268 261 285 297
848 4 2 3 1 110 90 69 273
849 4 2 3 1 96 104 79 305
850 4 2 3 1 270 298 276 306
851 4 2 3 1 279 283 264 288
852 4 2 3 1 140 49 154 185
853 4 2 3 1 180 167 227 281
854 4 2 3 1 139 131 138 298
855 4 2 3 1 251 239 179 280
856 4 2 3 1 49 140 199 185
857 4 2 3 1 263 298 277 306
858 4 2 3 1 96 73 105 281
859 4 2 3 1 273 290 261 296
860 4 2 3 1 213 216 41 293
861 4 2 3 1 41 148 118 293
862 4 2 3 1 231 219 211 303
863 4 2 3 1 123 218 269 303
864 4 2 3 1 154 48 197 185
865 4 2 3 1 235 277 119 306
866 4 2 3 1 182 177 253 286
867 4 2 3 1 178 181 229 287
868 4 2 3 1 195 25 109 94
869 4 2 3 1 260 294 266 304
870 4 2 3 1 197 48 154 116
871 4 2 3 1 72 78 79 307
872 4 2 3 1 250 253 177 286
873 4 2 3 1 229 226 178 287
874 4 2 3 1 94 195 25 187
875 4 2 3 1 242 270 245 306
876 4 2 3 1 133 115 134 267
877 4 2 3 1 259 290 265 305
878 4 2 3 1 199 158 203 277
879 4 2 3 1 74 89 106 280
880 4 2 3 1 89 88 285 299
881 4 2 3 1 103 81 101 279
882 4 2 3 1 259 290 273 296
883 4 2 3 1 41 216 148 293
884 4 2 3 1 150 135 141 296
885 4 2 3 1 262 283 279 288
886 4 2 3 1 79 80 95 307
887 4 2 3 1 71 91 97 276
888 4 2 3 1 228 111 223 275
889 4 2 3 1 200 111 204 275
890 4 2 3 1 242 237 245 270
891 4 2 3 1 77 100 78 272
892 4 2 3 1 96 79 95 290
893 4 2 3 1 254 158 235 277
894 4 2 3 1 196 198 185 278
895 4 2 3 1 124 123 118 269
896 4 2 3 1 186 288 193 300
897 4 2 3 1 140 154 139 278
898 4 2 3 1 86 84 98 297
899 4 2 3 1 186 192 193 288
900 4 2 3 1 218 221 213 269
901 4 2 3 1 142 137 117 270
902 4 2 3 1 252 247 112 289
903 4 2 3 1 138 131 137 298
904 4 2 3 1 163 182 160 286
905 4 2 3 1 160 253 236 286
906 4 2 3 1 252 201 238 289
907 4 2 3 1 254 203 158 277
908 4 2 3 1 85 103 284 302
909 4 2 3 1 229 159 212 287
910 4 2 3 1 144 143 136 294
911 4 2 3 1 114 248 251 280
912 4 2 3 1 175 114 179 280
913 4 2 3 1 161 13 175 299
914 4 2 3 1 188 205 157 291
915 4 2 3 1 181 164 159 287
916 4 2 3 1 170 163 37 301
917 4 2 3 1 227 224 113 281
918 4 2 3 1 113 176 180 281
919 4 2 3 1 95 90 96 290
920 4 2 3 1 223 111 76 275
921 4 2 3 1 252 206 201 289
922 4 2 3 1 230 211 157 291
923 4 2 3 1 204 111 228 275
924 4 2 3 1 187 206 112 289
925 4 2 3 1 241 246 240 294
926 4 2 3 1 255 277 235 306
927 4 2 3 1 205 225 230 291
928 4 2 3 1 126 125 141 274
929 4 2 3 1 202 225 205 291
930 4 2 3 1 235 158 119 277
931 4 2 3 1 140 158 199 277
932 4 2 3 1 107 13 161 299
933 4 2 3 1 27 251 114 248
934 4 2 3 1 248 106 28 304
935 4 2 3 1 89 88 86 285
936 4 2 3 1 200 102 111 275
937 4 2 3 1 15 113 227 224
938 4 2 3 1 228 20 223 111
939 4 2 3 1 92 97 91 276
940 4 2 3 1 253 160 236 51
941 4 2 3 1 112 247 75 289
942 4 2 3 1 179 166 239 60
943 4 2 3 1 214 190 63 204
944 4 2 3 1 167 227 215 57
945 4 2 3 1 37 153 170 301
946 4 2 3 1 229 39 212 159
947 4 2 3 1 262 288 279 300
948 4 2 3 1 252 32 112 247
949 4 2 3 1 44 157 230 211
950 4 2 3 1 120 212 159 287
951 4 2 3 1 109 24 195 292
952 4 2 3 1 74 175 13 299
953 4 2 3 1 163 121 37 301
954 4 2 3 1 157 211 122 291
955 4 2 3 1 236 152 160 286
956 4 2 3 1 86 88 87 285
957 4 2 3 1 93 103 70 292
958 4 2 3 1 141 135 133 296
959 4 2 3 1 251 179 239 60
960 4 2 3 1 106 248 114 280
961 4 2 3 1 167 180 227 57
962 4 2 3 1 204 63 214 228
963 4 2 3 1 157 149 188 291
964 4 2 3 1 224 16 105 305
965 4 2 3 1 194 195 24 292
966 4 2 3 1 113 224 105 281
967 4 2 3 1 73 176 113 281
968 4 2 3 1 158 254 235 56
969 4 2 3 1 151 159 164 287
970 4 2 3 1 194 24 70 292
971 4 2 3 1 163 286 121 301
972 4 2 3 1 81 80 78 307
973 4 2 3 1 127 145 146 283
974 4 2 3 1 208 200 190 275
975 4 2 3 1 106 99 28 304
976 4 2 3 1 93 85 103 284
977 4 2 3 1 24 109 70 292
978 4 2 3 1 223 231 214 275
979 4 2 3 1 114 179 14 175
980 4 2 3 1 94 187 112 289
981 4 2 3 1 180 227 113 281
982 4 2 3 1 251 179 114 280
983 4 2 3 1 182 253 160 286
984 4 2 3 1 207 199 189 277
985 4 2 3 1 180 113 9 176
986 4 2 3 1 248 28 234 304
987 4 2 3 1 68 249 189 203
988 4 2 3 1 201 66 252 238
989 4 2 3 1 181 159 229 287
990 4 2 3 1 238 255 247 289
991 4 2 3 1 106 248 280 304
992 4 2 3 1 111 20 223 76
993 4 2 3 1 146 147 127 283
994 4 2 3 1 131 145 128 295
995 4 2 3 1 160 163 38 182
996 4 2 3 1 84 86 83 297
997 4 2 3 1 107 74 13 299
998 4 2 3 1 171 163 170 301
999 4 2 3 1 242 245 243 306
1000 4 2 3 1 203 68 249 254
1001 4 2 3 1 252 206 66 201
1002 4 2 3 1 182 177 62 253
1003 4 2 3 1 181 59 178 229
1004 4 2 3 1 99 234 28 304
1005 4 2 3 1 230 205 65 225
1006 4 2 3 1 204 200 21 111
1007 4 2 3 1 114 106 27 248
1008 4 2 3 1 211 122 291 303
1009 4 2 3 1 160 121 163 286
1010 4 2 3 1 39 120 212 159
1011 4 2 3 1 181 164 33 159
1012 4 2 3 1 177 250 62 253
1013 4 2 3 1 226 178 59 229
1014 4 2 3 1 166 184 175 280
1015 4 2 3 1 239 248 256 280
1016 4 2 3 1 202 65 205 225
1017 4 2 3 1 157 44 122 211
1018 4 2 3 1 215 232 224 281
1019 4 2 3 1 205 157 45 188
1020 4 2 3 1 176 183 167 281
1021 4 2 3 1 113 15 105 224
1022 4 2 3 1 177 163 184 286
1023 4 2 3 1 256 236 250 286
1024 4 2 3 1 105 281 224 305
1025 4 2 3 1 74 114 175 280
1026 4 2 3 1 232 226 212 287
1027 4 2 3 1 16 104 105 305
1028 4 2 3 1 83 80 82 282
1029 4 2 3 1 152 236 160 51
1030 4 2 3 1 32 75 112 247
1031 4 2 3 1 37 121 153 301
1032 4 2 3 1 183 164 178 287
1033 4 2 3 1 74 280 175 299
1034 4 2 3 1 103 101 70 300
1035 4 2 3 1 188 208 202 291
1036 4 2 3 1 224 210 16 305
1037 4 2 3 1 199 203 158 50
1038 4 2 3 1 255 249 235 277
1039 4 2 3 1 225 231 211 291
1040 4 2 3 1 189 199 203 277
1041 4 2 3 1 216 213 222 293
1042 4 2 3 1 161 175 171 299
1043 4 2 3 1 139 145 131 295
1044 4 2 3 1 210 104 16 305
1045 4 2 3 1 187 207 201 289
1046 4 2 3 1 228 223 214 275
1047 4 2 3 1 235 158 56 119
1048 4 2 3 1 190 200 204 275
1049 4 2 3 1 206 112 26 187
1050 4 2 3 1 100 101 81 279
1051 4 2 3 1 70 23 194 300
1052 4 2 3 1 125 118 148 293
1053 4 2 3 1 73 9 113 176
1054 4 2 3 1 85 93 92 284
1055 4 2 3 1 254 235 249 277
1056 4 2 3 1 211 43 122 303
1057 4 2 3 1 186 194 23 300
1058 4 2 3 1 192 191 193 288
1059 4 2 3 1 194 292 70 300
1060 4 2 3 1 111 200 21 102
1061 4 2 3 1 123 43 218 303
1062 4 2 3 1 151 33 164 159
1063 4 2 3 1 157 149 45 188
1064 4 2 3 1 186 23 108 300
1065 4 2 3 1 243 255 235 306
1066 4 2 3 1 206 252 112 289
1067 4 2 3 1 74 114 14 175
1068 4 2 3 1 180 176 167 281
1069 4 2 3 1 215 224 227 281
1070 4 2 3 1 205 230 157 291
1071 4 2 3 1 195 194 198 292
1072 4 2 3 1 140 199 158 50
1073 4 2 3 1 175 179 166 280
1074 4 2 3 1 239 251 248 280
1075 4 2 3 1 85 82 103 302
1076 4 2 3 1 123 122 43 303
1077 4 2 3 1 38 121 163 160
1078 4 2 3 1 194 186 193 300
1079 4 2 3 1 229 212 226 287
1080 4 2 3 1 236 253 250 286
1081 4 2 3 1 177 182 163 286
1082 4 2 3 1 181 178 164 287
1083 4 2 3 1 121 136 134 301
1084 4 2 3 1 112 94 26 187
1085 4 2 3 1 70 108 23 300
1086 4 2 3 1 218 43 211 303
1087 4 2 3 1 89 74 88 299
1088 4 2 3 1 89 99 106 304
1089 4 2 3 1 81 103 82 302
1090 4 2 3 1 234 241 248 304
1091 4 2 3 1 217 210 224 305
1092 4 2 3 1 211 219 218 303
1093 4 2 3 1 140 119 158 277
1094 4 2 3 1 17 18 72 220
1095 4 2 3 1 111 102 76 275
1096 4 2 3 1 238 247 252 289
1097 4 2 3 1 120 212 40 39
1098 4 2 3 1 41 42 213 118
1099 4 2 3 1 244 29 30 71
1100 4 2 3 1 96 105 104 305
1101 4 2 3 1 117 53 54 237
1102 4 2 3 1 75 32 31 247
1103 4 2 3 1 122 123 147 303
1104 4 2 3 1 188 202 205 291
1105 4 2 3 1 54 55 142 242
1106 4 2 3 1 157 122 149 291
1107 4 2 3 1 23 24 70 194
1108 4 2 3 1 20 19 223 76
1109 4 2 3 1 233 30 31 97
1110 4 2 3 1 56 55 235 119
1111 4 2 3 1 225 211 230 291
1112 4 2 3 1 211 44 122 43
1113 4 2 3 1 187 201 206 289
1114 4 2 3 1 43 123 218 42
1115 4 2 3 1 35 165 36 115
1116 4 2 3 1 235 242 243 306
1117 4 2 3 1 144 240 52 53
1118 4 2 3 1 29 28 99 234
1119 4 2 3 1 18 19 77 209
1120 4 2 3 1 69 12 11 172
1121 4 2 3 1 120 159 151 287
1122 4 2 3 1 73 113 105 281
1123 4 2 3 1 41 40 148 216
1124 4 2 3 1 75 94 112 289
1125 4 2 3 1 10 9 73 176
1126 4 2 3 1 200 22 21 102
1127 4 2 3 1 48 197 47 116
1128 4 2 3 1 28 27 106 248
1129 4 2 3 1 51 152 236 52
1130 4 2 3 1 17 16 210 104
1131 4 2 3 1 105 15 16 224
1132 4 2 3 1 46 45 149 188
1133 4 2 3 1 33 164 34 151
1134 4 2 3 1 160 152 121 286
1135 4 2 3 1 80 79 78 307
1136 4 2 3 1 50 140 199 49
1137 4 2 3 1 63 190 214 64
1138 4 2 3 1 61 239 166 60
1139 4 2 3 1 215 167 57 58
1140 4 2 3 1 74 14 13 175
1141 4 2 3 1 25 26 94 187
1142 4 2 3 1 163 37 121 38
1143 4 2 3 1 74 106 114 280
1144 4 2 3 1 109 93 70 292
1145 4 2 3 1 107 88 74 299
1146 4 2 3 1 153 121 134 301
1147 4 2 3 1 201 67 66 238
1148 4 2 3 1 249 189 67 68
1149 4 2 3 1 6 160 182 253
1150 4 2 3 1 2 251 179 114
1151 4 2 3 1 230 157 7 205
1152 4 2 3 1 229 181 5 159
1153 4 2 3 1 252 112 4 206
1154 4 2 3 1 254 203 8 158
1155 4 2 3 1 228 204 3 111
1156 4 2 3 1 227 113 1 180
1157 4 2 3 1 70 101 108 300
1158 4 2 3 1 202 64 65 225
1159 4 2 3 1 250 62 61 177
1160 4 2 3 1 59 178 226 58
1161 4 2 3 1 108 22 23 186
1162 4 2 3 1 48 154 49 185
1163 4 2 3 1 155 47 46 191
1164 4 2 3 1 24 25 109 195
1165 4 2 3 1 107 13 12 161
1166 4 2 3 1 153 170 36 37
1167 4 2 3 1 7 44 157 230
1168 4 2 3 1 229 5 39 159
1169 4 2 3 1 6 160 253 51
1170 4 2 3 1 156 35 168 34
1171 4 2 3 1 110 11 10 162
1172 4 2 3 1 228 3 20 111
1173 4 2 3 1 1 15 113 227
1174 4 2 3 1 2 27 251 114
1175 4 2 3 1 8 254 158 56
1176 4 2 3 1 4 32 112 252
1177 4 2 3 1 179 251 2 60
1178 4 2 3 1 1 227 180 57
1179 4 2 3 1 3 63 204 228
1180 4 2 3 1 160 38 6 182
1181 4 2 3 1 181 33 5 159
1182 4 2 3 1 179 14 2 114
1183 4 2 3 1 113 9 1 180
1184 4 2 3 1 4 252 206 66
1185 4 2 3 1 8 68 203 254
1186 4 2 3 1 182 62 6 253
1187 4 2 3 1 205 7 230 65
1188 4 2 3 1 5 59 181 229
1189 4 2 3 1 157 45 7 205
1190 4 2 3 1 204 21 3 111
1191 4 2 3 1 112 26 4 206
1192 4 2 3 1 158 203 8 50
1193 4 2 3 1 273 174 299 172
1194 4 2 3 1 273 299 174 267
1195 4 2 3 1 281 162 169 273
1196 4 2 3 1 281 169 162 176
1197 4 2 3 1 284 297 91 85
1198 4 2 3 1 91 297 284 258
1199 4 2 3 1 296 165 173 168
1200 4 2 3 1 296 173 165 267
1201 4 2 3 1 191 116 47 197
1202 4 2 3 1 191 47 116 155
1203 4 2 3 1 290 281 305 259
1204 4 2 3 1 290 305 281 96
1205 4 2 3 1 289 276 243 247
1206 4 2 3 1 289 306 277 255
1207 4 2 3 1 277 306 289 263
1208 4 2 3 1 165 156 296 115
1209 4 2 3 1 296 156 165 168
1210 4 2 3 1 289 306 276 263
1211 4 2 3 1 276 306 289 243
1212 4 2 3 1 303 124 283 269
1213 4 2 3 1 303 283 124 147
1214 4 2 3 1 303 149 264 147
1215 4 2 3 1 303 264 149 291
1216 4 2 3 1 297 82 83 84
1217 4 2 3 1 297 83 82 282
$EndElements
