$MeshFormat
2.2 0 8
$EndMeshFormat
$PhysicalNames
3
2 1 "Fixed"
2 2 "Load"
3 3 "Volume"
$EndPhysicalNames
$Nodes
335
1 -2.22044604925e-16 -19 20
2 -2.22044604925e-16 19 20
3 -2.22044604925e-16 -19 -20
4 -2.22044604925e-16 19 -20
5 1 -20 20
6 19 -20 20
7 20 -19 20
8 20 19 20
9 19 20 20
10 1 20 20
11 1 -20 -20
12 1 20 -20
13 19 -20 -20
14 20 -19 -20
15 20 19 -20
16 19 20 -20
17 0 -13.57142857142859 20
18 0 -8.142857142857178 20
19 0 -2.714285714285765 20
20 0 2.714285714285644 20
21 0 8.142857142857082 20
22 0 13.57142857142854 20
23 -2.22044604925e-16 -19 -14.2857142857143
24 -2.22044604925e-16 -19 -8.571428571428578
25 -2.22044604925e-16 -19 -2.857142857142865
26 -2.22044604925e-16 -19 2.857142857142854
27 -2.22044604925e-16 -19 8.571428571428566
28 -2.22044604925e-16 -19 14.28571428571428
29 0 -13.57142857142859 -20
30 0 -8.142857142857178 -20
31 0 -2.714285714285765 -20
32 0 2.714285714285644 -20
33 0 8.142857142857082 -20
34 0 13.57142857142854 -20
35 -2.22044604925e-16 19 -14.2857142857143
36 -2.22044604925e-16 19 -8.571428571428578
37 -2.22044604925e-16 19 -2.857142857142865
38 -2.22044604925e-16 19 2.857142857142854
39 -2.22044604925e-16 19 8.571428571428566
40 -2.22044604925e-16 19 14.28571428571428
41 0.2928932188134523 -19.70710678118655 20
42 7.000000000000004 -20 20
43 13 -20 20
44 19.70710678118655 -19.70710678118655 20
45 20 -13.57142857142859 20
46 20 -8.142857142857178 20
47 20 -2.714285714285765 20
48 20 2.714285714285644 20
49 20 8.142857142857082 20
50 20 13.57142857142854 20
51 19.70710678118655 19.70710678118655 20
52 7.000000000000004 20 20
53 13 20 20
54 0.2928932188134536 19.70710678118655 20
55 0.2928932188134523 -19.70710678118655 -20
56 1 -20 -14.2857142857143
57 1 -20 -8.571428571428578
58 1 -20 -2.857142857142865
59 1 -20 2.857142857142854
60 1 -20 8.571428571428566
61 1 -20 14.28571428571428
62 1 20 -14.2857142857143
63 1 20 -8.571428571428578
64 1 20 -2.857142857142865
65 1 20 2.857142857142854
66 1 20 8.571428571428566
67 1 20 14.28571428571428
68 0.2928932188134536 19.70710678118655 -20
69 7.000000000000004 -20 -20
70 13 -20 -20
71 19.70710678118655 -19.70710678118655 -20
72 20 -13.57142857142859 -20
73 20 -8.142857142857178 -20
74 20 -2.714285714285765 -20
75 20 2.714285714285644 -20
76 20 8.142857142857082 -20
77 20 13.57142857142854 -20
78 19.70710678118655 19.70710678118655 -20
79 7.000000000000004 20 -20
80 13 20 -20
81 19 -20 -14.2857142857143
82 19 -20 -8.571428571428578
83 19 -20 -2.857142857142865
84 19 -20 2.857142857142854
85 19 -20 8.571428571428566
86 19 -20 14.28571428571428
87 19 20 -14.2857142857143
88 19 20 -8.571428571428578
89 19 20 -2.857142857142865
90 19 20 2.857142857142854
91 19 20 8.571428571428566
92 19 20 14.28571428571428
93 20 -19 -14.2857142857143
94 20 -19 -8.571428571428578
95 20 -19 -2.857142857142865
96 20 -19 2.857142857142854
97 20 -19 8.571428571428566
98 20 -19 14.28571428571428
99 20 19 -14.2857142857143
100 20 19 -8.571428571428578
101 20 19 -2.857142857142865
102 20 19 2.857142857142854
103 20 19 8.571428571428566
104 20 19 14.28571428571428
105 0 0.2493093358750791 -14.81785338650533
106 0 0.1863004197162681 14.91130307212105
107 0 14.15656349238915 0.01970028953390468
108 0 -14.07527667936374 0.01585842297522433
109 0 14.46009031071176 11.43150187961061
110 0 14.61865871991529 -11.40306891430532
111 0 -14.23460287696733 11.20395280409139
112 0 -14.18139773691365 -11.11043760197859
113 0 -14.10226005833439 5.696581696922983
114 0 -9.213189780026735 2.927586442571659
115 0 -9.170676984306276 -2.769183271110265
116 0 -4.326568551219236 0.1101117580036686
117 0 -4.281916610603034 -5.543088053375435
118 0 0.5577193858710707 -2.714338464747282
119 0 0.5215564472772733 2.923948037650351
120 0 5.39601307281449 0.1000296075075582
121 0 5.383711486509149 5.686100908888822
122 0 5.382469617213822 -5.505686887232983
123 0 0.4281806873110625 8.693346081098333
124 0 5.358592319395147 11.23879322294307
125 0 -4.563128745229568 11.40971049689272
126 0 -9.169830660232021 -8.371387170772499
127 0 -4.238092889445261 -11.15559715700523
128 0 -4.42229368437625 5.871064592388525
129 0 14.34403948479406 5.710752614965195
130 0 14.35990686826536 -5.631229311028894
131 0 0.5191129135828874 -8.475300362003882
132 0 5.399056951715448 -11.27961048187792
133 0 -14.09953034346928 -5.610620174909595
134 0 -9.844429971783851 -14.60131983513796
135 0 -9.280717550401572 8.591480941127678
136 0 -9.956652543542409 14.71851741691187
137 0 10.54972297390367 15.13819234410997
138 0 10.56206312898437 -15.12123847188448
139 0 9.970332758111031 8.684659145381076
140 0 9.823810378901857 2.921717344904426
141 0 9.692201978793261 -2.670938496849981
142 0 10.00239287748126 -8.601962093863262
143 0 5.413514454743524 -16.24374046805355
144 0 5.390351714031564 16.25765772783482
145 0 -4.888527857914415 -16.02490763384419
146 0 -5.052726730044931 16.10910458802355
147 0 -14.84273349015828 15.77202538707893
148 0 -14.8427334901583 -15.77202538707895
149 0 15.09891629668373 16.01539905327812
150 0 15.09891629668374 -16.01539905327813
151 15.40939581007387 0.2460755409033553 20
152 9.809035257755664 -14.78755218836369 20
153 9.809035257755657 14.78755218836368 20
154 4.269141500395421 -5.666804770475293 20
155 4.390323607661769 5.945831357418388 20
156 16.47403942744905 16.28571428571427 20
157 3.525960572550948 16.28571428571427 20
158 16.47403942744908 -16.2857142857143 20
159 3.525960572550918 -16.2857142857143 20
160 14.99227092034089 10.40167749639095 20
161 14.56508103129436 -10.48233347797476 20
162 9.079807633209585 8.839395283393113 20
163 12.49401212437748 5.05308230364728 20
164 10.19925253425309 0.4430259420552574 20
165 12.09672688936809 -4.452693690824056 20
166 8.838253021586896 -8.510887270167366 20
167 5.09548525351865 0.3423160072367466 20
168 4.407065058714815 -11.16087403816774 20
169 4.165636431510372 10.85714285714281 20
170 16.3540571154001 -5.428571428571475 20
171 8.633908155411554 4.553739783493825 20
172 8.062604685856451 -3.226784455829844 20
173 16.84593796952039 5.398121670930141 20
174 4.590604189926112 -0.2460755409034583 -20
175 10.11970887668124 14.43648336122186 -20
176 10.19096474224434 -14.78755218836369 -20
177 15.60967639233822 -5.945831357418475 -20
178 15.64922081971913 5.481282963801476 -20
179 17.40417079233096 17.59385256335926 -20
180 2.595829207669047 17.59385256335926 -20
181 3.525960572550918 -16.2857142857143 -20
182 16.47403942744908 -16.2857142857143 -20
183 5.288442674438495 10.15532344836926 -20
184 5.007729079659087 -10.401677496391 -20
185 10.92019236679039 -8.839395283393163 -20
186 7.505987875622505 -5.053082303647361 -20
187 9.800747465746884 -0.4430259420553497 -20
188 8.052819926652015 4.315161713877927 -20
189 15.21175721588533 10.80995326922852 -20
190 14.89285222078342 -0.3688191224759514 -20
191 15.83436356848959 -10.85714285714288 -20
192 11.14025159720283 8.115594926810942 -20
193 3.645942884599873 5.42857142857136 -20
194 14.32846660743552 15.08481043320508 -20
195 5.671533392564488 15.08481043320508 -20
196 11.41903289929133 -4.49528163190001 -20
197 11.9587067556389 3.030554925666294 -20
198 3.154062030479596 -5.398121670930252 -20
199 5.948716593053932 -20 5.714285714285708
200 5.948716593053934 -20 -5.714285714285722
201 14.35251553277551 -20 -11.39550686416538
202 14.3525155327755 -20 11.39550686416537
203 14.05128340694607 -20 -3.552713678800501e-15
204 5.647484467224494 -20 -11.39550686416538
205 5.948716593053931 -20 -7.105427357601002e-15
206 5.647484467224496 -20 11.39550686416536
207 14.14222201317112 -20 5.712851218051235
208 14.14222201317112 -20 -5.712851218051252
209 10 -20 15.13785305708116
210 10 -20 -15.13785305708116
211 10 -20 -2.857142857142854
212 9.999999999999995 -20 2.857142857142858
213 9.999999999999996 -20 -8.571428571428584
214 9.999999999999996 -20 8.571428571428562
215 5.213233108302395 -20 15.86896237913963
216 5.213233108302381 -20 -15.86896237913965
217 14.78676689169761 -20 15.86896237913963
218 14.78676689169763 -20 -15.86896237913965
219 14.05128340694607 20 5.714285714285708
220 14.05128340694607 20 -5.714285714285722
221 5.647484467224493 20 -11.39550686416538
222 5.948716593053933 20 -3.552713678800501e-15
223 5.647484467224496 20 11.39550686416536
224 14.35251553277551 20 -11.39550686416538
225 14.05128340694607 20 -7.105427357601002e-15
226 14.3525155327755 20 11.39550686416537
227 5.857777986828869 20 5.712851218051242
228 5.857777986828872 20 -5.712851218051252
229 10 20 -15.13785305708116
230 10 20 15.13785305708115
231 10 20 2.857142857142854
232 9.999999999999998 20 -2.857142857142854
233 10 20 8.571428571428559
234 10 20 -8.571428571428582
235 14.78676689169761 20 15.86896237913964
236 14.78676689169762 20 -15.86896237913965
237 5.213233108302395 20 15.86896237913963
238 5.213233108302378 20 -15.86896237913965
239 20 0.2328253107126486 14.96433435946487
240 20 0.1690585509067901 -14.94511516247072
241 20 14.18857931441483 -0.05758515009690512
242 20 -14.07445434525573 -0.03567465292111649
243 20 14.41419868427788 11.49336439826692
244 20 14.45791812285818 -11.44514449817709
245 20 -14.16090296022766 11.09508680931863
246 20 -14.23851753747079 -11.2434243412713
247 20 -14.07085707743286 -5.748188306059465
248 20 -9.211520598266814 -2.982369256088894
249 20 -9.158629711419415 2.730384735278058
250 20 -4.32988991981868 -0.1762665435621358
251 20 -4.257569542623088 5.477482055504613
252 20 0.5637450607691292 2.627940691508588
253 20 0.4977267369480742 -3.008265212945773
254 20 5.383248325964594 -0.2052121285396105
255 20 5.361283779139807 5.481852994752796
256 20 5.299192240747693 -5.785204813855259
257 20 0.3847323803314033 -8.769269088975122
258 20 5.291652454781374 -11.33408664381597
259 20 -4.587340683194993 -11.47800475222421
260 20 -9.138196556813787 8.331871203448898
261 20 -4.185257990075607 11.08674585478589
262 20 -4.457247287992768 -5.94573554989792
263 20 14.33708227382056 -5.759645259592403
264 20 14.26527365918807 5.735375509565191
265 20 -9.814358239296705 14.57552645012234
266 20 -14.0886972622861 5.591706587282644
267 20 0.571477021445947 8.34657944116903
268 20 5.195619966642369 11.91182091411979
269 20 -9.255141984420016 -8.714327861222387
270 20 -9.96072214883467 -14.75767163240903
271 20 10.54320771234492 -15.15849261734679
272 20 10.50625470864275 15.26752527410092
273 20 9.899545373701436 8.738758400289129
274 20 9.933930535668431 -8.751483400755104
275 20 9.799445689155647 -3.002753240318356
276 20 9.816229356927394 2.781739397608703
277 20 5.372212315035163 -16.2875388847267
278 20 -4.848885100404898 16.01607406526017
279 20 -5.072528997961637 -16.14702667411682
280 20 5.428571428571363 16.55596459522307
281 20 -14.8427334901583 -15.77202538707895
282 20 -14.84273349015828 15.77202538707893
283 20 15.09891629668374 -16.01539905327813
284 20 15.09891629668373 16.01539905327812
285 9.998206007567036 2.238835163074247 -0.03837544981547358
286 10.02099824150771 -7.455500262067387 5.437361030294329
287 10.07978515740965 1.790727779893309 -10.14092286542496
288 9.981760138365217 -7.230632102719692 -4.962544666083952
289 9.80339075558356 2.645678813186633 10.10070501521249
290 10.45713490121938 10.48231793849422 -5.461857671313842
291 9.416010048334357 10.58381205544004 4.695159544923249
292 11.79112725138432 -11.82291675131613 -11.99239441473195
293 11.9826024724779 -12.00894871787212 12.18368014764468
294 12.08848393322515 12.080033318604 12.40860825571224
295 7.552151148656171 12.34884435563434 -12.66259337034222
296 7.751129662854011 -4.5504001455398 12.31549346601974
297 11.0181504363691 -12.96919719378553 2.985139023186164e-15
298 7.619261209523996 -5.294744985044639 -12.0829827855356
299 13.5201276299057 -1.142499553594144 5.244550600395359
300 6.425765355091565 -1.337918791046823 5.295153825951683
301 6.304513608959075 -1.283159824975803 -5.119204961286361
302 13.3242526854936 8.085468431970458 -11.6680897019892
303 13.53644487299905 -1.245553366628402 -4.916791859307578
304 6.819985965719523 -13.14638957359283 -7.159576765870471
305 6.409159570229972 7.92079630006956 13.4658212495826
306 13.68629121334656 7.994713557617967 0.02637290727018435
307 6.207479028906934 -13.27725770700658 7.752608866314333
308 6.283243379003753 7.908176814845648 -0.7315970708482604
309 13.8677446826731 -4.19961137818719 -13.88416041136777
310 5.956220677507598 -8.703139431193204 0.0828492665097218
311 12.74901123260011 -1.118702638287447 14.34792965073932
312 13.53528729912161 -5.332347236608284 0.2058604350602529
313 5.869138750814131 6.643883983487702 -8.389048717935717
314 5.829746309347249 14.16194463647834 -2.809229435217486
315 6.306912146175451 13.66770868235818 9.638970743541181
316 13.65480803215768 5.016333819352572 -5.993681648754908
317 13.52696954345997 -13.53536256996026 -5.968300468091326
318 11.71384199135839 14.06213904146009 -0.3208153835172299
319 13.89195815163851 -13.72469995282654 5.729743301525127
320 6.35015065571881 5.032680157053607 5.308234146011954
321 14.35851131156624 14.33239664537706 -8.603778546838509
322 5.94510416638775 -13.95422561497557 -13.43506417139091
323 13.62825301524438 5.939433303836427 6.118241365744986
324 5.778051357352344 4.069337512779194 -14.13416819919606
325 6.122692096298382 -13.90056923801853 14.04170590082753
326 13.64943167309399 -6.102616074631887 10.49049300728199
327 13.88091726137288 6.035139855474975 13.77618471549351
328 14.42673805954291 2.689050311045607 -14.38605766954702
329 13.99544194157886 13.99373120565247 6.911890067731257
330 5.358406773812432 14.65677512582132 3.114104798634393
331 5.79303409230489 -14.86761473874928 0.8077218847141732
332 14.7538272470655 -5.991160688994992 -8.284874755587637
333 14.63732417060731 13.17086552163965 -14.4041901529977
334 8.092796919954896 -3.263984063710673 0.05758849090009992
335 7.61932268187269 1.813993900525785 15.20560285859231
$EndNodes
$Elements
1302
1 2 2 1 1 1 17 147
2 2 2 1 1 28 1 147
3 2 2 1 1 22 2 149
4 2 2 1 1 2 40 149
5 2 2 1 1 3 23 148
6 2 2 1 1 29 3 148
7 2 2 1 1 4 34 150
8 2 2 1 1 35 4 150
9 2 2 1 1 17 18 136
10 2 2 1 1 17 136 147
11 2 2 1 1 18 19 146
12 2 2 1 1 136 18 146
13 2 2 1 1 19 20 106
14 2 2 1 1 19 106 146
15 2 2 1 1 20 21 144
16 2 2 1 1 106 20 144
17 2 2 1 1 21 22 137
18 2 2 1 1 21 137 144
19 2 2 1 1 137 22 149
20 2 2 1 1 23 24 112
21 2 2 1 1 23 112 148
22 2 2 1 1 24 25 133
23 2 2 1 1 112 24 133
24 2 2 1 1 25 26 108
25 2 2 1 1 25 108 133
26 2 2 1 1 26 27 113
27 2 2 1 1 108 26 113
28 2 2 1 1 27 28 111
29 2 2 1 1 27 111 113
30 2 2 1 1 111 28 147
31 2 2 1 1 30 29 134
32 2 2 1 1 134 29 148
33 2 2 1 1 31 30 145
34 2 2 1 1 30 134 145
35 2 2 1 1 32 31 105
36 2 2 1 1 105 31 145
37 2 2 1 1 33 32 143
38 2 2 1 1 32 105 143
39 2 2 1 1 34 33 138
40 2 2 1 1 138 33 143
41 2 2 1 1 34 138 150
42 2 2 1 1 36 35 110
43 2 2 1 1 110 35 150
44 2 2 1 1 37 36 130
45 2 2 1 1 36 110 130
46 2 2 1 1 38 37 107
47 2 2 1 1 107 37 130
48 2 2 1 1 39 38 129
49 2 2 1 1 38 107 129
50 2 2 1 1 40 39 109
51 2 2 1 1 109 39 129
52 2 2 1 1 40 109 149
53 2 2 1 1 105 127 131
54 2 2 1 1 127 105 145
55 2 2 1 1 105 131 132
56 2 2 1 1 105 132 143
57 2 2 1 1 123 106 124
58 2 2 1 1 106 123 125
59 2 2 1 1 124 106 144
60 2 2 1 1 106 125 146
61 2 2 1 1 129 107 140
62 2 2 1 1 107 130 141
63 2 2 1 1 140 107 141
64 2 2 1 1 108 113 114
65 2 2 1 1 108 114 115
66 2 2 1 1 108 115 133
67 2 2 1 1 109 129 139
68 2 2 1 1 137 109 139
69 2 2 1 1 109 137 149
70 2 2 1 1 130 110 142
71 2 2 1 1 110 138 142
72 2 2 1 1 138 110 150
73 2 2 1 1 113 111 135
74 2 2 1 1 135 111 136
75 2 2 1 1 136 111 147
76 2 2 1 1 126 112 133
77 2 2 1 1 112 126 134
78 2 2 1 1 112 134 148
79 2 2 1 1 114 113 135
80 2 2 1 1 115 114 116
81 2 2 1 1 116 114 128
82 2 2 1 1 128 114 135
83 2 2 1 1 115 116 117
84 2 2 1 1 115 117 126
85 2 2 1 1 115 126 133
86 2 2 1 1 117 116 118
87 2 2 1 1 118 116 119
88 2 2 1 1 119 116 128
89 2 2 1 1 117 118 131
90 2 2 1 1 126 117 127
91 2 2 1 1 127 117 131
92 2 2 1 1 118 119 120
93 2 2 1 1 118 120 122
94 2 2 1 1 118 122 131
95 2 2 1 1 120 119 121
96 2 2 1 1 121 119 123
97 2 2 1 1 123 119 128
98 2 2 1 1 120 121 140
99 2 2 1 1 122 120 141
100 2 2 1 1 120 140 141
101 2 2 1 1 121 123 124
102 2 2 1 1 121 124 139
103 2 2 1 1 121 139 140
104 2 2 1 1 131 122 132
105 2 2 1 1 132 122 142
106 2 2 1 1 122 141 142
107 2 2 1 1 125 123 128
108 2 2 1 1 124 137 139
109 2 2 1 1 137 124 144
110 2 2 1 1 125 128 135
111 2 2 1 1 125 135 136
112 2 2 1 1 125 136 146
113 2 2 1 1 126 127 134
114 2 2 1 1 134 127 145
115 2 2 1 1 139 129 140
116 2 2 1 1 141 130 142
117 2 2 1 1 138 132 142
118 2 2 1 1 132 138 143
119 2 2 2 10 7 282 45
120 2 2 2 10 98 282 7
121 2 2 2 10 50 284 8
122 2 2 2 10 8 284 104
123 2 2 2 10 72 281 14
124 2 2 2 10 14 281 93
125 2 2 2 10 15 283 77
126 2 2 2 10 99 283 15
127 2 2 2 10 45 265 46
128 2 2 2 10 45 282 265
129 2 2 2 10 46 278 47
130 2 2 2 10 265 278 46
131 2 2 2 10 47 239 48
132 2 2 2 10 47 278 239
133 2 2 2 10 48 280 49
134 2 2 2 10 239 280 48
135 2 2 2 10 49 272 50
136 2 2 2 10 49 280 272
137 2 2 2 10 272 284 50
138 2 2 2 10 73 270 72
139 2 2 2 10 270 281 72
140 2 2 2 10 74 279 73
141 2 2 2 10 73 279 270
142 2 2 2 10 75 240 74
143 2 2 2 10 240 279 74
144 2 2 2 10 76 277 75
145 2 2 2 10 75 277 240
146 2 2 2 10 77 271 76
147 2 2 2 10 271 277 76
148 2 2 2 10 77 283 271
149 2 2 2 10 93 246 94
150 2 2 2 10 93 281 246
151 2 2 2 10 94 247 95
152 2 2 2 10 246 247 94
153 2 2 2 10 95 242 96
154 2 2 2 10 95 247 242
155 2 2 2 10 96 266 97
156 2 2 2 10 242 266 96
157 2 2 2 10 97 245 98
158 2 2 2 10 97 266 245
159 2 2 2 10 245 282 98
160 2 2 2 10 100 244 99
161 2 2 2 10 244 283 99
162 2 2 2 10 101 263 100
163 2 2 2 10 100 263 244
164 2 2 2 10 102 241 101
165 2 2 2 10 241 263 101
166 2 2 2 10 103 264 102
167 2 2 2 10 102 264 241
168 2 2 2 10 104 243 103
169 2 2 2 10 243 264 103
170 2 2 2 10 104 284 243
171 2 2 2 10 261 267 239
172 2 2 2 10 239 278 261
173 2 2 2 10 267 268 239
174 2 2 2 10 268 280 239
175 2 2 2 10 240 258 257
176 2 2 2 10 257 259 240
177 2 2 2 10 240 277 258
178 2 2 2 10 259 279 240
179 2 2 2 10 241 275 263
180 2 2 2 10 264 276 241
181 2 2 2 10 241 276 275
182 2 2 2 10 247 248 242
183 2 2 2 10 248 249 242
184 2 2 2 10 249 266 242
185 2 2 2 10 243 273 264
186 2 2 2 10 272 273 243
187 2 2 2 10 243 284 272
188 2 2 2 10 263 274 244
189 2 2 2 10 244 274 271
190 2 2 2 10 271 283 244
191 2 2 2 10 260 265 245
192 2 2 2 10 245 266 260
193 2 2 2 10 265 282 245
194 2 2 2 10 246 269 247
195 2 2 2 10 246 270 269
196 2 2 2 10 246 281 270
197 2 2 2 10 247 269 248
198 2 2 2 10 248 250 249
199 2 2 2 10 248 262 250
200 2 2 2 10 248 269 262
201 2 2 2 10 250 251 249
202 2 2 2 10 251 260 249
203 2 2 2 10 260 266 249
204 2 2 2 10 250 252 251
205 2 2 2 10 250 253 252
206 2 2 2 10 250 262 253
207 2 2 2 10 252 267 251
208 2 2 2 10 251 261 260
209 2 2 2 10 251 267 261
210 2 2 2 10 253 254 252
211 2 2 2 10 254 255 252
212 2 2 2 10 255 267 252
213 2 2 2 10 253 256 254
214 2 2 2 10 253 257 256
215 2 2 2 10 253 262 257
216 2 2 2 10 254 276 255
217 2 2 2 10 256 275 254
218 2 2 2 10 275 276 254
219 2 2 2 10 255 268 267
220 2 2 2 10 255 273 268
221 2 2 2 10 255 276 273
222 2 2 2 10 257 258 256
223 2 2 2 10 258 274 256
224 2 2 2 10 274 275 256
225 2 2 2 10 257 262 259
226 2 2 2 10 271 274 258
227 2 2 2 10 258 277 271
228 2 2 2 10 262 269 259
229 2 2 2 10 269 270 259
230 2 2 2 10 270 279 259
231 2 2 2 10 261 265 260
232 2 2 2 10 261 278 265
233 2 2 2 10 263 275 274
234 2 2 2 10 273 276 264
235 2 2 2 10 268 273 272
236 2 2 2 10 272 280 268
237 4 2 3 1 228 130 295 314
238 4 2 3 1 228 130 110 295
239 4 2 3 1 228 110 221 295
240 4 2 3 1 128 296 286 300
241 4 2 3 1 187 298 287 324
242 4 2 3 1 288 298 117 301
243 4 2 3 1 135 286 128 296
244 4 2 3 1 253 252 254 285
245 4 2 3 1 120 119 118 285
246 4 2 3 1 252 299 285 303
247 4 2 3 1 253 285 254 316
248 4 2 3 1 287 298 131 324
249 4 2 3 1 252 254 285 306
250 4 2 3 1 253 252 285 303
251 4 2 3 1 119 285 120 320
252 4 2 3 1 117 288 126 298
253 4 2 3 1 285 306 254 316
254 4 2 3 1 252 306 285 323
255 4 2 3 1 187 174 298 324
256 4 2 3 1 299 303 252 312
257 4 2 3 1 118 285 119 334
258 4 2 3 1 120 285 118 308
259 4 2 3 1 253 303 285 316
260 4 2 3 1 252 285 299 323
261 4 2 3 1 115 288 117 310
262 4 2 3 1 131 298 287 301
263 4 2 3 1 285 301 118 308
264 4 2 3 1 115 126 117 288
265 4 2 3 1 251 249 286 312
266 4 2 3 1 287 298 187 309
267 4 2 3 1 114 128 286 310
268 4 2 3 1 135 286 296 307
269 4 2 3 1 114 128 135 286
270 4 2 3 1 251 286 249 326
271 4 2 3 1 135 307 296 325
272 4 2 3 1 123 296 289 335
273 4 2 3 1 118 301 122 308
274 4 2 3 1 149 237 157 315
275 4 2 3 1 290 318 275 321
276 4 2 3 1 289 296 123 300
277 4 2 3 1 285 308 120 320
278 4 2 3 1 115 304 288 310
279 4 2 3 1 126 288 115 304
280 4 2 3 1 285 303 299 312
281 4 2 3 1 118 301 285 334
282 4 2 3 1 122 308 301 313
283 4 2 3 1 285 300 119 334
284 4 2 3 1 285 301 313 316
285 4 2 3 1 263 275 318 321
286 4 2 3 1 114 286 135 307
287 4 2 3 1 249 248 297 312
288 4 2 3 1 114 286 307 310
289 4 2 3 1 288 301 117 310
290 4 2 3 1 287 313 301 316
291 4 2 3 1 126 298 288 304
292 4 2 3 1 200 304 133 331
293 4 2 3 1 252 254 306 323
294 4 2 3 1 297 312 248 317
295 4 2 3 1 187 287 309 328
296 4 2 3 1 251 249 260 326
297 4 2 3 1 289 291 305 323
298 4 2 3 1 234 295 290 314
299 4 2 3 1 119 300 285 320
300 4 2 3 1 248 242 249 297
301 4 2 3 1 128 300 286 310
302 4 2 3 1 169 149 157 315
303 4 2 3 1 157 237 153 315
304 4 2 3 1 288 248 312 317
305 4 2 3 1 295 313 290 314
306 4 2 3 1 234 228 295 314
307 4 2 3 1 174 145 198 298
308 4 2 3 1 290 306 275 318
309 4 2 3 1 105 131 298 324
310 4 2 3 1 253 252 303 312
311 4 2 3 1 285 301 308 313
312 4 2 3 1 187 324 287 328
313 4 2 3 1 135 296 136 325
314 4 2 3 1 130 142 295 314
315 4 2 3 1 251 286 299 312
316 4 2 3 1 249 312 297 319
317 4 2 3 1 257 309 287 328
318 4 2 3 1 63 110 221 228
319 4 2 3 1 169 305 149 315
320 4 2 3 1 149 305 137 315
321 4 2 3 1 58 205 200 331
322 4 2 3 1 110 63 130 228
323 4 2 3 1 142 313 295 314
324 4 2 3 1 220 263 89 318
325 4 2 3 1 174 105 298 324
326 4 2 3 1 285 313 308 316
327 4 2 3 1 220 263 318 321
328 4 2 3 1 249 286 312 319
329 4 2 3 1 294 305 153 315
330 4 2 3 1 248 317 288 332
331 4 2 3 1 294 305 291 323
332 4 2 3 1 292 298 185 322
333 4 2 3 1 153 305 169 315
334 4 2 3 1 289 305 291 320
335 4 2 3 1 289 305 294 323
336 4 2 3 1 248 288 312 332
337 4 2 3 1 174 105 145 298
338 4 2 3 1 289 311 267 327
339 4 2 3 1 63 36 110 130
340 4 2 3 1 289 299 267 311
341 4 2 3 1 251 299 286 326
342 4 2 3 1 293 296 166 326
343 4 2 3 1 201 246 281 292
344 4 2 3 1 287 301 298 303
345 4 2 3 1 115 108 133 310
346 4 2 3 1 157 153 169 315
347 4 2 3 1 136 296 168 325
348 4 2 3 1 225 318 241 329
349 4 2 3 1 232 318 290 321
350 4 2 3 1 267 323 289 327
351 4 2 3 1 242 297 248 317
352 4 2 3 1 288 312 297 317
353 4 2 3 1 115 133 304 310
354 4 2 3 1 187 174 186 298
355 4 2 3 1 298 304 126 322
356 4 2 3 1 89 225 220 318
357 4 2 3 1 123 289 124 335
358 4 2 3 1 120 118 122 308
359 4 2 3 1 241 263 275 318
360 4 2 3 1 297 304 211 331
361 4 2 3 1 201 281 218 292
362 4 2 3 1 249 297 242 319
363 4 2 3 1 168 136 154 296
364 4 2 3 1 267 299 289 323
365 4 2 3 1 135 128 125 296
366 4 2 3 1 123 106 296 335
367 4 2 3 1 290 295 234 321
368 4 2 3 1 153 237 230 315
369 4 2 3 1 203 297 242 317
370 4 2 3 1 298 301 288 303
371 4 2 3 1 225 241 90 329
372 4 2 3 1 203 242 297 319
373 4 2 3 1 131 313 287 324
374 4 2 3 1 167 154 146 296
375 4 2 3 1 166 168 296 325
376 4 2 3 1 165 166 296 326
377 4 2 3 1 140 291 139 320
378 4 2 3 1 131 301 287 313
379 4 2 3 1 198 145 134 298
380 4 2 3 1 140 139 291 330
381 4 2 3 1 89 241 225 318
382 4 2 3 1 123 124 289 320
383 4 2 3 1 234 290 232 314
384 4 2 3 1 287 303 298 332
385 4 2 3 1 234 228 221 295
386 4 2 3 1 287 303 257 316
387 4 2 3 1 130 142 110 295
388 4 2 3 1 106 167 146 296
389 4 2 3 1 234 232 290 321
390 4 2 3 1 287 316 257 328
391 4 2 3 1 232 314 290 318
392 4 2 3 1 170 278 265 326
393 4 2 3 1 136 146 154 296
394 4 2 3 1 308 313 290 316
395 4 2 3 1 174 198 186 298
396 4 2 3 1 275 306 290 316
397 4 2 3 1 168 154 166 296
398 4 2 3 1 165 293 166 326
399 4 2 3 1 276 318 306 329
400 4 2 3 1 296 307 293 325
401 4 2 3 1 105 131 127 298
402 4 2 3 1 289 300 123 320
403 4 2 3 1 139 315 291 330
404 4 2 3 1 281 182 218 292
405 4 2 3 1 117 301 116 310
406 4 2 3 1 289 299 296 300
407 4 2 3 1 276 241 318 329
408 4 2 3 1 192 302 295 324
409 4 2 3 1 169 137 149 305
410 4 2 3 1 298 303 288 332
411 4 2 3 1 184 185 298 322
412 4 2 3 1 166 296 293 325
413 4 2 3 1 253 250 252 312
414 4 2 3 1 116 300 128 310
415 4 2 3 1 165 161 293 326
416 4 2 3 1 153 230 294 315
417 4 2 3 1 139 291 315 320
418 4 2 3 1 289 323 294 327
419 4 2 3 1 291 289 320 323
420 4 2 3 1 246 292 201 317
421 4 2 3 1 287 301 303 316
422 4 2 3 1 293 296 286 307
423 4 2 3 1 170 311 278 326
424 4 2 3 1 124 289 305 335
425 4 2 3 1 297 312 286 319
426 4 2 3 1 165 170 161 326
427 4 2 3 1 245 202 282 293
428 4 2 3 1 124 305 289 320
429 4 2 3 1 315 329 291 330
430 4 2 3 1 296 299 286 300
431 4 2 3 1 285 303 301 316
432 4 2 3 1 284 235 243 294
433 4 2 3 1 106 167 296 335
434 4 2 3 1 116 310 301 334
435 4 2 3 1 302 324 192 328
436 4 2 3 1 217 282 202 293
437 4 2 3 1 128 125 296 300
438 4 2 3 1 305 315 291 320
439 4 2 3 1 196 187 298 309
440 4 2 3 1 116 300 310 334
441 4 2 3 1 296 299 289 326
442 4 2 3 1 167 172 154 296
443 4 2 3 1 161 170 265 326
444 4 2 3 1 90 219 225 329
445 4 2 3 1 139 315 305 320
446 4 2 3 1 134 298 126 322
447 4 2 3 1 290 316 302 321
448 4 2 3 1 232 220 318 321
449 4 2 3 1 226 243 235 294
450 4 2 3 1 166 165 161 293
451 4 2 3 1 149 109 237 315
452 4 2 3 1 294 305 289 327
453 4 2 3 1 118 119 116 334
454 4 2 3 1 186 196 187 298
455 4 2 3 1 308 313 141 314
456 4 2 3 1 276 241 306 318
457 4 2 3 1 117 298 127 301
458 4 2 3 1 140 308 291 320
459 4 2 3 1 172 296 167 335
460 4 2 3 1 127 117 126 298
461 4 2 3 1 224 321 229 333
462 4 2 3 1 229 321 295 333
463 4 2 3 1 135 125 136 296
464 4 2 3 1 127 298 131 301
465 4 2 3 1 114 310 307 331
466 4 2 3 1 267 311 299 326
467 4 2 3 1 241 275 306 318
468 4 2 3 1 231 329 233 330
469 4 2 3 1 223 237 109 315
470 4 2 3 1 286 299 296 326
471 4 2 3 1 295 313 138 324
472 4 2 3 1 233 329 315 330
473 4 2 3 1 291 308 140 330
474 4 2 3 1 285 308 306 316
475 4 2 3 1 125 123 106 296
476 4 2 3 1 306 323 276 329
477 4 2 3 1 290 306 308 316
478 4 2 3 1 134 184 198 298
479 4 2 3 1 192 295 183 324
480 4 2 3 1 150 238 110 295
481 4 2 3 1 185 298 292 309
482 4 2 3 1 202 293 245 319
483 4 2 3 1 285 320 299 323
484 4 2 3 1 266 242 96 319
485 4 2 3 1 288 298 292 304
486 4 2 3 1 218 182 176 292
487 4 2 3 1 123 296 125 300
488 4 2 3 1 291 305 294 315
489 4 2 3 1 296 311 165 326
490 4 2 3 1 291 308 306 320
491 4 2 3 1 192 324 188 328
492 4 2 3 1 268 267 311 327
493 4 2 3 1 161 265 293 326
494 4 2 3 1 287 298 309 332
495 4 2 3 1 302 316 274 321
496 4 2 3 1 289 299 320 323
497 4 2 3 1 306 308 285 320
498 4 2 3 1 142 141 313 314
499 4 2 3 1 270 309 292 332
500 4 2 3 1 134 184 298 322
501 4 2 3 1 221 110 238 295
502 4 2 3 1 297 310 304 331
503 4 2 3 1 285 300 299 320
504 4 2 3 1 292 304 298 322
505 4 2 3 1 268 323 267 327
506 4 2 3 1 109 149 137 315
507 4 2 3 1 211 304 297 317
508 4 2 3 1 248 312 262 332
509 4 2 3 1 299 300 289 320
510 4 2 3 1 170 165 311 326
511 4 2 3 1 197 192 188 328
512 4 2 3 1 242 247 95 317
513 4 2 3 1 285 306 320 323
514 4 2 3 1 191 182 281 292
515 4 2 3 1 296 289 311 326
516 4 2 3 1 253 303 250 312
517 4 2 3 1 291 320 306 323
518 4 2 3 1 217 158 282 293
519 4 2 3 1 186 198 184 298
520 4 2 3 1 191 292 270 309
521 4 2 3 1 299 311 289 326
522 4 2 3 1 229 224 234 321
523 4 2 3 1 269 292 246 317
524 4 2 3 1 290 313 308 314
525 4 2 3 1 252 255 254 323
526 4 2 3 1 229 234 295 321
527 4 2 3 1 156 235 284 294
528 4 2 3 1 114 116 128 310
529 4 2 3 1 106 123 124 335
530 4 2 3 1 115 117 116 310
531 4 2 3 1 150 195 238 295
532 4 2 3 1 151 173 280 327
533 4 2 3 1 276 264 241 329
534 4 2 3 1 269 270 292 332
535 4 2 3 1 118 116 301 334
536 4 2 3 1 184 185 186 298
537 4 2 3 1 212 307 319 331
538 4 2 3 1 185 292 191 309
539 4 2 3 1 136 125 146 296
540 4 2 3 1 119 300 116 334
541 4 2 3 1 223 230 237 315
542 4 2 3 1 294 323 273 327
543 4 2 3 1 138 313 132 324
544 4 2 3 1 183 295 138 324
545 4 2 3 1 302 313 295 324
546 4 2 3 1 273 323 294 329
547 4 2 3 1 131 122 301 313
548 4 2 3 1 178 277 271 302
549 4 2 3 1 287 324 302 328
550 4 2 3 1 219 318 225 329
551 4 2 3 1 145 105 127 298
552 4 2 3 1 291 323 306 329
553 4 2 3 1 153 294 162 305
554 4 2 3 1 234 220 232 321
555 4 2 3 1 268 311 239 327
556 4 2 3 1 212 319 297 331
557 4 2 3 1 301 310 288 334
558 4 2 3 1 196 298 185 309
559 4 2 3 1 258 257 316 328
560 4 2 3 1 295 302 192 333
561 4 2 3 1 262 312 303 332
562 4 2 3 1 218 176 210 292
563 4 2 3 1 306 318 291 329
564 4 2 3 1 281 246 270 292
565 4 2 3 1 243 294 226 329
566 4 2 3 1 268 267 239 311
567 4 2 3 1 249 242 266 319
568 4 2 3 1 277 302 178 328
569 4 2 3 1 288 304 297 310
570 4 2 3 1 135 111 307 325
571 4 2 3 1 269 292 317 332
572 4 2 3 1 204 112 304 322
573 4 2 3 1 94 247 246 317
574 4 2 3 1 286 296 293 326
575 4 2 3 1 228 234 232 314
576 4 2 3 1 292 298 288 332
577 4 2 3 1 146 125 106 296
578 4 2 3 1 281 270 191 292
579 4 2 3 1 152 158 217 293
580 4 2 3 1 270 246 269 292
581 4 2 3 1 261 311 267 326
582 4 2 3 1 196 186 185 298
583 4 2 3 1 286 310 300 334
584 4 2 3 1 245 293 260 319
585 4 2 3 1 113 114 307 331
586 4 2 3 1 269 317 248 332
587 4 2 3 1 161 282 158 293
588 4 2 3 1 150 138 195 295
589 4 2 3 1 124 139 305 320
590 4 2 3 1 242 248 247 317
591 4 2 3 1 176 292 185 322
592 4 2 3 1 140 129 139 330
593 4 2 3 1 218 210 201 292
594 4 2 3 1 287 313 302 324
595 4 2 3 1 248 250 262 312
596 4 2 3 1 227 231 233 330
597 4 2 3 1 250 299 252 312
598 4 2 3 1 138 295 142 313
599 4 2 3 1 238 150 110 62
600 4 2 3 1 275 263 274 321
601 4 2 3 1 213 304 292 322
602 4 2 3 1 129 315 139 330
603 4 2 3 1 246 93 201 281
604 4 2 3 1 200 204 57 304
605 4 2 3 1 107 308 314 330
606 4 2 3 1 237 109 67 223
607 4 2 3 1 110 150 35 62
608 4 2 3 1 107 140 308 330
609 4 2 3 1 253 254 256 316
610 4 2 3 1 203 211 297 317
611 4 2 3 1 203 297 212 319
612 4 2 3 1 243 226 235 92
613 4 2 3 1 176 182 191 292
614 4 2 3 1 227 233 315 330
615 4 2 3 1 201 292 213 317
616 4 2 3 1 124 305 144 335
617 4 2 3 1 282 161 265 293
618 4 2 3 1 221 238 110 62
619 4 2 3 1 217 209 152 293
620 4 2 3 1 294 323 291 329
621 4 2 3 1 251 299 250 312
622 4 2 3 1 153 162 169 305
623 4 2 3 1 81 218 201 281
624 4 2 3 1 201 93 81 281
625 4 2 3 1 126 304 112 322
626 4 2 3 1 133 24 112 304
627 4 2 3 1 250 303 262 312
628 4 2 3 1 251 252 250 299
629 4 2 3 1 254 306 256 316
630 4 2 3 1 142 130 141 314
631 4 2 3 1 260 319 293 326
632 4 2 3 1 189 178 271 302
633 4 2 3 1 185 191 177 309
634 4 2 3 1 276 323 273 329
635 4 2 3 1 156 284 160 294
636 4 2 3 1 113 114 135 307
637 4 2 3 1 275 256 306 316
638 4 2 3 1 175 295 192 333
639 4 2 3 1 240 309 257 328
640 4 2 3 1 213 292 210 322
641 4 2 3 1 308 291 318 330
642 4 2 3 1 202 217 86 282
643 4 2 3 1 297 310 286 312
644 4 2 3 1 308 318 314 330
645 4 2 3 1 293 307 214 325
646 4 2 3 1 128 123 125 300
647 4 2 3 1 288 310 297 312
648 4 2 3 1 213 292 304 317
649 4 2 3 1 153 235 156 294
650 4 2 3 1 254 275 256 306
651 4 2 3 1 135 136 111 325
652 4 2 3 1 266 97 245 319
653 4 2 3 1 177 191 270 309
654 4 2 3 1 272 160 284 294
655 4 2 3 1 95 247 208 317
656 4 2 3 1 278 170 151 311
657 4 2 3 1 297 286 310 331
658 4 2 3 1 124 144 106 335
659 4 2 3 1 151 280 239 327
660 4 2 3 1 60 199 113 307
661 4 2 3 1 219 231 318 329
662 4 2 3 1 305 327 171 335
663 4 2 3 1 297 304 288 317
664 4 2 3 1 122 141 308 313
665 4 2 3 1 287 302 313 316
666 4 2 3 1 252 299 255 323
667 4 2 3 1 213 201 210 292
668 4 2 3 1 212 307 214 319
669 4 2 3 1 131 122 118 301
670 4 2 3 1 140 139 121 320
671 4 2 3 1 207 203 212 319
672 4 2 3 1 120 308 140 320
673 4 2 3 1 233 294 230 315
674 4 2 3 1 259 257 309 332
675 4 2 3 1 270 279 177 309
676 4 2 3 1 203 208 211 317
677 4 2 3 1 66 129 227 315
678 4 2 3 1 133 126 115 304
679 4 2 3 1 238 195 229 295
680 4 2 3 1 307 310 286 331
681 4 2 3 1 274 256 275 316
682 4 2 3 1 187 309 190 328
683 4 2 3 1 292 288 304 317
684 4 2 3 1 213 304 211 317
685 4 2 3 1 206 307 111 325
686 4 2 3 1 245 265 260 293
687 4 2 3 1 230 235 153 294
688 4 2 3 1 113 27 60 307
689 4 2 3 1 288 317 292 332
690 4 2 3 1 290 313 302 316
691 4 2 3 1 129 227 315 330
692 4 2 3 1 199 307 212 331
693 4 2 3 1 257 303 253 316
694 4 2 3 1 126 134 127 298
695 4 2 3 1 162 171 305 327
696 4 2 3 1 214 293 202 319
697 4 2 3 1 94 208 247 317
698 4 2 3 1 214 209 293 325
699 4 2 3 1 295 302 290 313
700 4 2 3 1 258 316 302 328
701 4 2 3 1 151 239 311 327
702 4 2 3 1 144 305 155 335
703 4 2 3 1 290 302 295 321
704 4 2 3 1 162 305 294 327
705 4 2 3 1 141 107 308 314
706 4 2 3 1 259 309 270 332
707 4 2 3 1 195 138 183 295
708 4 2 3 1 113 111 27 307
709 4 2 3 1 138 142 132 313
710 4 2 3 1 154 172 166 296
711 4 2 3 1 188 192 183 324
712 4 2 3 1 175 229 295 333
713 4 2 3 1 199 60 206 307
714 4 2 3 1 141 107 140 308
715 4 2 3 1 264 219 90 329
716 4 2 3 1 272 284 243 294
717 4 2 3 1 217 202 209 293
718 4 2 3 1 219 231 225 318
719 4 2 3 1 167 144 155 335
720 4 2 3 1 119 123 300 320
721 4 2 3 1 134 145 127 298
722 4 2 3 1 265 260 293 326
723 4 2 3 1 161 158 152 293
724 4 2 3 1 272 294 273 327
725 4 2 3 1 66 39 129 315
726 4 2 3 1 172 165 166 296
727 4 2 3 1 131 132 313 324
728 4 2 3 1 176 210 292 322
729 4 2 3 1 292 309 298 332
730 4 2 3 1 214 307 293 319
731 4 2 3 1 290 308 306 318
732 4 2 3 1 306 308 291 318
733 4 2 3 1 282 265 245 293
734 4 2 3 1 266 207 97 319
735 4 2 3 1 192 178 302 328
736 4 2 3 1 271 189 302 333
737 4 2 3 1 117 118 116 301
738 4 2 3 1 113 307 199 331
739 4 2 3 1 256 257 253 316
740 4 2 3 1 128 116 119 300
741 4 2 3 1 189 192 178 302
742 4 2 3 1 120 140 121 320
743 4 2 3 1 164 163 311 335
744 4 2 3 1 261 278 311 326
745 4 2 3 1 209 202 214 293
746 4 2 3 1 206 214 307 325
747 4 2 3 1 255 306 254 323
748 4 2 3 1 229 195 175 295
749 4 2 3 1 119 120 121 320
750 4 2 3 1 276 241 275 306
751 4 2 3 1 134 126 112 322
752 4 2 3 1 233 294 315 329
753 4 2 3 1 269 246 247 317
754 4 2 3 1 251 250 249 312
755 4 2 3 1 119 121 123 320
756 4 2 3 1 172 311 296 335
757 4 2 3 1 152 166 293 325
758 4 2 3 1 233 230 223 315
759 4 2 3 1 123 121 124 320
760 4 2 3 1 124 121 139 320
761 4 2 3 1 233 226 230 294
762 4 2 3 1 117 127 131 301
763 4 2 3 1 268 273 323 327
764 4 2 3 1 269 247 248 317
765 4 2 3 1 302 316 287 328
766 4 2 3 1 229 234 221 295
767 4 2 3 1 32 193 143 324
768 4 2 3 1 299 285 312 334
769 4 2 3 1 233 226 294 329
770 4 2 3 1 226 235 230 294
771 4 2 3 1 273 294 243 329
772 4 2 3 1 212 199 214 307
773 4 2 3 1 269 259 270 332
774 4 2 3 1 240 259 257 309
775 4 2 3 1 262 250 253 303
776 4 2 3 1 184 176 185 322
777 4 2 3 1 243 273 272 294
778 4 2 3 1 167 106 144 335
779 4 2 3 1 163 327 311 335
780 4 2 3 1 278 151 239 311
781 4 2 3 1 172 165 296 311
782 4 2 3 1 162 163 171 327
783 4 2 3 1 314 318 222 330
784 4 2 3 1 286 300 299 334
785 4 2 3 1 231 222 318 330
786 4 2 3 1 162 294 160 327
787 4 2 3 1 213 204 304 322
788 4 2 3 1 151 311 163 327
789 4 2 3 1 303 312 285 334
790 4 2 3 1 255 299 267 323
791 4 2 3 1 109 137 139 315
792 4 2 3 1 255 252 267 299
793 4 2 3 1 59 113 199 331
794 4 2 3 1 290 314 308 318
795 4 2 3 1 214 206 209 325
796 4 2 3 1 249 250 248 312
797 4 2 3 1 151 163 173 327
798 4 2 3 1 249 266 260 319
799 4 2 3 1 176 191 185 292
800 4 2 3 1 137 305 139 315
801 4 2 3 1 286 293 307 319
802 4 2 3 1 175 183 192 295
803 4 2 3 1 211 213 200 304
804 4 2 3 1 174 193 32 324
805 4 2 3 1 303 312 288 332
806 4 2 3 1 239 267 261 311
807 4 2 3 1 244 224 87 333
808 4 2 3 1 110 142 138 295
809 4 2 3 1 152 293 209 325
810 4 2 3 1 288 303 301 334
811 4 2 3 1 153 156 160 294
812 4 2 3 1 107 314 222 330
813 4 2 3 1 299 300 285 334
814 4 2 3 1 189 192 302 333
815 4 2 3 1 143 138 132 324
816 4 2 3 1 222 107 64 314
817 4 2 3 1 166 161 152 293
818 4 2 3 1 286 299 312 334
819 4 2 3 1 293 319 286 326
820 4 2 3 1 187 196 190 309
821 4 2 3 1 110 138 150 295
822 4 2 3 1 154 19 167 146
823 4 2 3 1 266 245 260 319
824 4 2 3 1 213 210 204 322
825 4 2 3 1 280 48 173 151
826 4 2 3 1 32 143 105 324
827 4 2 3 1 286 312 310 334
828 4 2 3 1 295 321 302 333
829 4 2 3 1 187 188 174 324
830 4 2 3 1 232 222 314 318
831 4 2 3 1 301 303 285 334
832 4 2 3 1 238 229 221 295
833 4 2 3 1 171 327 163 335
834 4 2 3 1 66 223 109 315
835 4 2 3 1 276 254 255 306
836 4 2 3 1 310 312 288 334
837 4 2 3 1 224 244 321 333
838 4 2 3 1 279 190 177 309
839 4 2 3 1 66 227 223 315
840 4 2 3 1 240 190 279 309
841 4 2 3 1 106 167 19 146
842 4 2 3 1 160 294 272 327
843 4 2 3 1 256 258 257 316
844 4 2 3 1 291 315 294 329
845 4 2 3 1 164 163 151 311
846 4 2 3 1 276 306 255 323
847 4 2 3 1 195 238 180 150
848 4 2 3 1 64 107 37 314
849 4 2 3 1 192 197 178 328
850 4 2 3 1 39 109 129 315
851 4 2 3 1 262 303 257 332
852 4 2 3 1 155 167 20 144
853 4 2 3 1 256 274 258 316
854 4 2 3 1 225 232 220 318
855 4 2 3 1 107 222 65 330
856 4 2 3 1 277 178 271 76
857 4 2 3 1 66 109 39 315
858 4 2 3 1 236 229 194 333
859 4 2 3 1 155 144 137 305
860 4 2 3 1 59 205 108 331
861 4 2 3 1 274 302 258 316
862 4 2 3 1 187 190 197 328
863 4 2 3 1 228 64 130 314
864 4 2 3 1 105 174 32 324
865 4 2 3 1 88 263 220 321
866 4 2 3 1 289 327 305 335
867 4 2 3 1 264 91 219 329
868 4 2 3 1 274 302 321 333
869 4 2 3 1 170 47 278 151
870 4 2 3 1 247 95 208 94
871 4 2 3 1 122 142 141 313
872 4 2 3 1 203 211 212 297
873 4 2 3 1 208 201 213 317
874 4 2 3 1 113 60 59 199
875 4 2 3 1 231 219 233 329
876 4 2 3 1 112 126 133 304
877 4 2 3 1 274 321 244 333
878 4 2 3 1 232 231 222 318
879 4 2 3 1 278 239 261 311
880 4 2 3 1 268 255 267 323
881 4 2 3 1 288 312 303 334
882 4 2 3 1 264 276 273 329
883 4 2 3 1 172 164 311 335
884 4 2 3 1 106 20 167 144
885 4 2 3 1 214 202 207 319
886 4 2 3 1 160 162 153 294
887 4 2 3 1 64 222 65 107
888 4 2 3 1 261 265 278 326
889 4 2 3 1 258 302 277 328
890 4 2 3 1 122 141 120 308
891 4 2 3 1 107 65 38 330
892 4 2 3 1 226 219 91 329
893 4 2 3 1 59 25 26 108
894 4 2 3 1 175 194 229 333
895 4 2 3 1 97 96 207 266
896 4 2 3 1 236 87 224 333
897 4 2 3 1 108 310 114 331
898 4 2 3 1 90 264 91 219
899 4 2 3 1 27 26 113 60
900 4 2 3 1 26 113 60 59
901 4 2 3 1 177 196 185 309
902 4 2 3 1 85 84 207 97
903 4 2 3 1 82 208 95 94
904 4 2 3 1 90 225 89 241
905 4 2 3 1 57 25 133 24
906 4 2 3 1 236 179 283 333
907 4 2 3 1 132 131 105 324
908 4 2 3 1 213 211 208 317
909 4 2 3 1 64 37 130 314
910 4 2 3 1 193 33 143 138
911 4 2 3 1 111 113 135 307
912 4 2 3 1 114 108 115 310
913 4 2 3 1 49 280 173 272
914 4 2 3 1 212 214 207 319
915 4 2 3 1 240 190 309 328
916 4 2 3 1 271 277 258 302
917 4 2 3 1 268 272 273 327
918 4 2 3 1 74 177 279 190
919 4 2 3 1 270 259 279 309
920 4 2 3 1 96 207 84 97
921 4 2 3 1 208 95 83 82
922 4 2 3 1 88 224 244 321
923 4 2 3 1 227 129 65 330
924 4 2 3 1 263 88 100 321
925 4 2 3 1 220 89 263 88
926 4 2 3 1 296 311 289 335
927 4 2 3 1 65 38 37 107
928 4 2 3 1 65 37 64 107
929 4 2 3 1 21 137 155 144
930 4 2 3 1 279 240 74 190
931 4 2 3 1 101 102 90 241
932 4 2 3 1 236 224 229 333
933 4 2 3 1 188 183 193 324
934 4 2 3 1 213 204 200 304
935 4 2 3 1 201 94 93 246
936 4 2 3 1 183 175 195 295
937 4 2 3 1 129 227 65 66
938 4 2 3 1 176 216 210 322
939 4 2 3 1 88 244 100 321
940 4 2 3 1 178 189 271 76
941 4 2 3 1 101 90 89 241
942 4 2 3 1 311 327 289 335
943 4 2 3 1 239 278 47 151
944 4 2 3 1 163 162 160 327
945 4 2 3 1 64 130 63 228
946 4 2 3 1 48 280 239 151
947 4 2 3 1 271 302 274 333
948 4 2 3 1 257 262 253 303
949 4 2 3 1 283 87 236 333
950 4 2 3 1 236 194 179 333
951 4 2 3 1 31 198 174 145
952 4 2 3 1 171 155 305 335
953 4 2 3 1 273 276 255 323
954 4 2 3 1 103 90 264 91
955 4 2 3 1 90 103 264 102
956 4 2 3 1 268 273 255 323
957 4 2 3 1 216 176 181 322
958 4 2 3 1 177 73 279 270
959 4 2 3 1 175 192 189 333
960 4 2 3 1 65 129 38 330
961 4 2 3 1 179 194 283 333
962 4 2 3 1 136 18 154 146
963 4 2 3 1 122 131 132 313
964 4 2 3 1 164 171 163 335
965 4 2 3 1 280 268 239 327
966 4 2 3 1 113 108 114 331
967 4 2 3 1 271 274 244 333
968 4 2 3 1 269 248 262 332
969 4 2 3 1 198 30 134 145
970 4 2 3 1 243 226 92 91
971 4 2 3 1 97 86 202 85
972 4 2 3 1 93 82 94 201
973 4 2 3 1 128 119 123 300
974 4 2 3 1 93 82 201 81
975 4 2 3 1 148 184 134 322
976 4 2 3 1 88 87 244 224
977 4 2 3 1 88 89 263 100
978 4 2 3 1 89 101 263 100
979 4 2 3 1 129 65 38 66
980 4 2 3 1 39 129 38 66
981 4 2 3 1 277 178 75 328
982 4 2 3 1 24 56 204 57
983 4 2 3 1 60 27 61 206
984 4 2 3 1 169 155 137 305
985 4 2 3 1 199 206 214 307
986 4 2 3 1 61 215 206 325
987 4 2 3 1 228 222 64 314
988 4 2 3 1 260 261 251 326
989 4 2 3 1 66 67 109 223
990 4 2 3 1 145 174 31 105
991 4 2 3 1 64 36 63 130
992 4 2 3 1 64 36 130 37
993 4 2 3 1 259 262 257 332
994 4 2 3 1 267 252 251 299
995 4 2 3 1 116 114 115 310
996 4 2 3 1 103 243 92 91
997 4 2 3 1 46 265 170 278
998 4 2 3 1 275 254 276 306
999 4 2 3 1 33 193 183 138
1000 4 2 3 1 117 131 118 301
1001 4 2 3 1 92 104 243 103
1002 4 2 3 1 140 120 141 308
1003 4 2 3 1 75 178 190 328
1004 4 2 3 1 99 88 87 244
1005 4 2 3 1 37 107 130 314
1006 4 2 3 1 67 39 109 40
1007 4 2 3 1 265 161 46 170
1008 4 2 3 1 265 261 260 326
1009 4 2 3 1 277 75 240 328
1010 4 2 3 1 62 110 221 63
1011 4 2 3 1 136 154 18 168
1012 4 2 3 1 75 190 240 328
1013 4 2 3 1 162 171 155 305
1014 4 2 3 1 160 49 173 272
1015 4 2 3 1 99 100 88 244
1016 4 2 3 1 184 30 134 198
1017 4 2 3 1 216 148 56 322
1018 4 2 3 1 216 56 204 322
1019 4 2 3 1 39 67 109 66
1020 4 2 3 1 147 215 61 325
1021 4 2 3 1 137 124 139 305
1022 4 2 3 1 257 258 240 328
1023 4 2 3 1 139 129 109 315
1024 4 2 3 1 215 152 209 325
1025 4 2 3 1 217 152 43 158
1026 4 2 3 1 152 168 166 325
1027 4 2 3 1 159 152 215 325
1028 4 2 3 1 271 258 274 302
1029 4 2 3 1 59 199 205 331
1030 4 2 3 1 181 184 148 322
1031 4 2 3 1 165 151 170 311
1032 4 2 3 1 216 69 181 176
1033 4 2 3 1 53 153 235 156
1034 4 2 3 1 264 273 243 329
1035 4 2 3 1 88 220 224 321
1036 4 2 3 1 229 80 236 194
1037 4 2 3 1 233 223 227 315
1038 4 2 3 1 43 209 152 217
1039 4 2 3 1 21 137 169 155
1040 4 2 3 1 196 177 190 309
1041 4 2 3 1 141 130 107 314
1042 4 2 3 1 176 216 69 210
1043 4 2 3 1 235 230 153 53
1044 4 2 3 1 124 137 144 305
1045 4 2 3 1 233 219 226 329
1046 4 2 3 1 184 181 176 322
1047 4 2 3 1 79 238 195 229
1048 4 2 3 1 263 100 244 321
1049 4 2 3 1 172 164 165 311
1050 4 2 3 1 215 159 42 152
1051 4 2 3 1 177 73 270 191
1052 4 2 3 1 176 218 70 182
1053 4 2 3 1 237 52 157 153
1054 4 2 3 1 189 283 194 333
1055 4 2 3 1 232 222 228 314
1056 4 2 3 1 168 147 136 325
1057 4 2 3 1 35 110 62 63
1058 4 2 3 1 231 232 225 318
1059 4 2 3 1 163 160 173 327
1060 4 2 3 1 283 77 189 194
1061 4 2 3 1 259 240 279 309
1062 4 2 3 1 216 181 148 322
1063 4 2 3 1 110 35 36 63
1064 4 2 3 1 161 45 282 265
1065 4 2 3 1 205 199 212 331
1066 4 2 3 1 80 229 175 194
1067 4 2 3 1 280 272 268 327
1068 4 2 3 1 147 159 215 325
1069 4 2 3 1 215 42 209 152
1070 4 2 3 1 229 195 79 175
1071 4 2 3 1 129 140 107 330
1072 4 2 3 1 70 218 176 210
1073 4 2 3 1 153 237 52 230
1074 4 2 3 1 160 284 50 272
1075 4 2 3 1 193 174 188 324
1076 4 2 3 1 227 65 222 330
1077 4 2 3 1 238 180 150 62
1078 4 2 3 1 179 283 87 236
1079 4 2 3 1 284 156 160 50
1080 4 2 3 1 162 155 169 305
1081 4 2 3 1 189 271 283 333
1082 4 2 3 1 107 38 129 330
1083 4 2 3 1 143 132 105 324
1084 4 2 3 1 222 231 227 330
1085 4 2 3 1 244 274 263 321
1086 4 2 3 1 189 271 77 283
1087 4 2 3 1 204 210 216 322
1088 4 2 3 1 175 189 194 333
1089 4 2 3 1 45 158 161 282
1090 4 2 3 1 147 111 136 325
1091 4 2 3 1 147 168 159 325
1092 4 2 3 1 215 209 206 325
1093 4 2 3 1 197 190 178 328
1094 4 2 3 1 29 148 184 134
1095 4 2 3 1 220 234 224 321
1096 4 2 3 1 151 165 164 311
1097 4 2 3 1 171 167 155 335
1098 4 2 3 1 148 134 112 322
1099 4 2 3 1 258 277 240 328
1100 4 2 3 1 77 283 179 194
1101 4 2 3 1 45 161 46 265
1102 4 2 3 1 168 152 159 325
1103 4 2 3 1 19 20 167 106
1104 4 2 3 1 240 75 74 190
1105 4 2 3 1 172 167 164 335
1106 4 2 3 1 281 81 218 182
1107 4 2 3 1 148 181 29 184
1108 4 2 3 1 61 147 159 215
1109 4 2 3 1 149 40 2 157
1110 4 2 3 1 142 122 132 313
1111 4 2 3 1 180 34 195 150
1112 4 2 3 1 158 86 217 282
1113 4 2 3 1 56 181 148 216
1114 4 2 3 1 174 32 31 105
1115 4 2 3 1 284 156 8 104
1116 4 2 3 1 40 10 2 157
1117 4 2 3 1 79 80 229 175
1118 4 2 3 1 184 30 29 134
1119 4 2 3 1 34 33 183 138
1120 4 2 3 1 149 22 169 157
1121 4 2 3 1 81 13 218 182
1122 4 2 3 1 47 48 239 151
1123 4 2 3 1 61 159 5 215
1124 4 2 3 1 147 136 17 168
1125 4 2 3 1 259 269 262 332
1126 4 2 3 1 169 137 22 149
1127 4 2 3 1 77 271 189 76
1128 4 2 3 1 152 42 209 43
1129 4 2 3 1 70 176 69 210
1130 4 2 3 1 52 153 230 53
1131 4 2 3 1 86 217 6 158
1132 4 2 3 1 56 11 181 216
1133 4 2 3 1 18 17 136 168
1134 4 2 3 1 270 72 281 191
1135 4 2 3 1 50 49 160 272
1136 4 2 3 1 283 271 244 333
1137 4 2 3 1 171 164 167 335
1138 4 2 3 1 72 281 191 182
1139 4 2 3 1 168 17 147 159
1140 4 2 3 1 179 87 16 236
1141 4 2 3 1 180 238 12 62
1142 4 2 3 1 155 20 21 144
1143 4 2 3 1 74 177 73 279
1144 4 2 3 1 72 270 73 191
1145 4 2 3 1 179 236 80 194
1146 4 2 3 1 195 238 79 180
1147 4 2 3 1 137 22 21 169
1148 4 2 3 1 16 179 236 80
1149 4 2 3 1 79 238 12 180
1150 4 2 3 1 76 277 178 75
1151 4 2 3 1 18 19 154 146
1152 4 2 3 1 15 77 283 179
1153 4 2 3 1 52 157 10 237
1154 4 2 3 1 42 5 159 215
1155 4 2 3 1 70 218 13 182
1156 4 2 3 1 47 46 170 278
1157 4 2 3 1 31 30 198 145
1158 4 2 3 1 180 4 34 150
1159 4 2 3 1 53 235 9 156
1160 4 2 3 1 217 43 6 158
1161 4 2 3 1 69 181 11 216
1162 4 2 3 1 32 33 143 193
1163 4 2 3 1 2 22 149 157
1164 4 2 3 1 2 10 40 54
1165 4 2 3 1 99 15 16 78
1166 4 2 3 1 67 40 10 54
1167 4 2 3 1 16 87 99 78
1168 4 2 3 1 48 49 280 173
1169 4 2 3 1 281 72 14 182
1170 4 2 3 1 147 17 1 159
1171 4 2 3 1 8 156 284 50
1172 4 2 3 1 29 3 181 148
1173 4 2 3 1 7 158 45 282
1174 4 2 3 1 326 249 319 286
1175 4 2 3 1 326 319 249 260
1176 4 2 3 1 263 89 241 101
1177 4 2 3 1 263 241 89 318
1178 4 2 3 1 331 133 310 304
1179 4 2 3 1 331 310 133 108
1180 4 2 3 1 241 90 264 102
1181 4 2 3 1 241 264 90 329
1182 4 2 3 1 331 200 211 205
1183 4 2 3 1 331 211 200 304
1184 4 2 3 1 321 316 275 290
1185 4 2 3 1 321 275 316 274
1186 4 2 3 1 95 208 242 317
1187 4 2 3 1 203 242 208 317
1188 4 2 3 1 332 287 257 309
1189 4 2 3 1 332 257 287 303
1190 4 2 3 1 330 329 318 231
1191 4 2 3 1 330 318 329 291
1192 4 2 3 1 317 94 201 246
1193 4 2 3 1 319 202 97 245
1194 4 2 3 1 188 328 187 197
1195 4 2 3 1 187 328 188 324
1196 4 2 3 1 304 24 204 57
1197 4 2 3 1 304 204 24 112
1198 4 2 3 1 109 40 237 67
1199 4 2 3 1 109 237 40 149
1200 4 2 3 1 157 40 237 149
1201 4 2 3 1 243 104 235 284
1202 4 2 3 1 243 235 104 92
1203 4 2 3 1 156 235 104 284
1204 4 2 3 1 307 27 206 111
1205 4 2 3 1 307 206 27 60
1206 4 2 3 1 282 86 245 98
1207 4 2 3 1 282 245 86 202
1208 4 2 3 1 97 245 86 98
1209 4 2 3 1 97 86 245 202
1210 4 2 3 1 304 57 133 24
1211 4 2 3 1 304 133 57 200
1212 4 2 3 1 331 108 58 205
1213 4 2 3 1 59 58 108 205
1214 4 2 3 1 59 108 58 25
1215 4 2 3 1 195 138 34 183
1216 4 2 3 1 34 138 195 150
1217 4 2 3 1 96 319 207 266
1218 4 2 3 1 267 326 251 261
1219 4 2 3 1 251 326 267 299
1220 4 2 3 1 331 211 212 205
1221 4 2 3 1 331 212 211 297
1222 4 2 3 1 329 243 91 226
1223 4 2 3 1 94 208 201 82
1224 4 2 3 1 201 208 94 317
1225 4 2 3 1 319 331 286 297
1226 4 2 3 1 286 331 319 307
1227 4 2 3 1 207 97 202 85
1228 4 2 3 1 207 202 97 319
1229 4 2 3 1 59 113 108 26
1230 4 2 3 1 59 108 113 331
1231 4 2 3 1 87 244 283 99
1232 4 2 3 1 283 244 87 333
1233 4 2 3 1 111 325 61 206
1234 4 2 3 1 111 27 61 28
1235 4 2 3 1 61 27 111 206
1236 4 2 3 1 173 272 327 160
1237 4 2 3 1 327 272 173 280
1238 4 2 3 1 264 91 243 103
1239 4 2 3 1 264 243 91 329
1240 4 2 3 1 322 112 56 204
1241 4 2 3 1 24 112 56 23
1242 4 2 3 1 24 56 112 204
1243 4 2 3 1 193 138 324 183
1244 4 2 3 1 324 138 193 143
1245 4 2 3 1 148 56 112 23
1246 4 2 3 1 148 112 56 322
1247 4 2 3 1 61 147 111 28
1248 4 2 3 1 61 111 147 325
1249 4 2 3 1 283 15 16 99
1250 4 2 3 1 16 15 283 179
1251 4 2 3 1 16 87 283 99
1252 4 2 3 1 283 87 16 179
1253 4 2 3 1 35 68 12 4
1254 4 2 3 1 35 12 68 62
1255 4 2 3 1 98 44 6 86
1256 4 2 3 1 6 44 98 7
1257 4 2 3 1 148 3 56 23
1258 4 2 3 1 55 3 56 11
1259 4 2 3 1 55 56 3 23
1260 4 2 3 1 71 14 81 93
1261 4 2 3 1 71 81 14 13
1262 4 2 3 1 281 81 14 93
1263 4 2 3 1 108 58 200 331
1264 4 2 3 1 200 133 108 331
1265 4 2 3 1 108 58 133 200
1266 4 2 3 1 108 133 58 25
1267 4 2 3 1 57 133 58 200
1268 4 2 3 1 57 58 133 25
1269 4 2 3 1 207 96 242 319
1270 4 2 3 1 242 203 207 319
1271 4 2 3 1 207 96 203 242
1272 4 2 3 1 207 203 96 84
1273 4 2 3 1 83 96 203 84
1274 4 2 3 1 95 208 203 242
1275 4 2 3 1 203 208 95 83
1276 4 2 3 1 203 96 95 242
1277 4 2 3 1 95 96 203 83
1278 4 2 3 1 40 237 10 157
1279 4 2 3 1 40 10 237 67
1280 4 2 3 1 41 28 5 61
1281 4 2 3 1 41 5 28 1
1282 4 2 3 1 62 150 12 180
1283 4 2 3 1 62 12 150 35
1284 4 2 3 1 4 12 150 180
1285 4 2 3 1 4 150 12 35
1286 4 2 3 1 104 235 9 92
1287 4 2 3 1 9 51 104 92
1288 4 2 3 1 104 51 9 8
1289 4 2 3 1 86 282 6 98
1290 4 2 3 1 86 6 282 158
1291 4 2 3 1 7 6 282 98
1292 4 2 3 1 7 282 6 158
1293 4 2 3 1 3 56 181 148
1294 4 2 3 1 3 181 56 11
1295 4 2 3 1 81 14 182 281
1296 4 2 3 1 81 182 14 13
1297 4 2 3 1 147 61 5 28
1298 4 2 3 1 5 61 147 159
1299 4 2 3 1 5 1 147 28
1300 4 2 3 1 147 1 5 159
1301 4 2 3 1 9 104 156 235
1302 4 2 3 1 156 104 9 8
$EndElements
