$MeshFormat
2.2 0 8
$EndMeshFormat
$PhysicalNames
3
2 1 "Fixed"
2 2 "Load"
3 3 "Volume"
$EndPhysicalNames
$Nodes
335
1 0 -39 -55
2 0 -117 -55
3 95 -117 -55
4 95 -39 -55
5 0 -39 55
6 0 -117 55
7 95 -117 -40.7
8 95 -39 -40.7
9 54.15 -39 -40.7
10 35.984219138631 -39 7.456931535541
11 44.15 -39 -38.7
12 81 -39 -47
13 12 -39 -47
14 12 -39 41
15 23.331086729363 -39 41
16 18.05 -39 55
17 54.15 -117 -40.7
18 18.05 -117 55
19 23.331086729363 -93 41
20 35.984219138631 -93 7.456931535541
21 12 -93 41
22 12 -93 -47
23 81 -93 -47
24 44.15 -93 -38.7
25 0 -54.59999999999998 -55
26 0 -70.19999999999996 -55
27 0 -85.80000000000001 -55
28 0 -101.4000000000001 -55
29 15.83333333333336 -117 -55
30 31.66666666666668 -117 -55
31 47.50000000000001 -117 -55
32 63.33333333333334 -117 -55
33 79.16666666666667 -117 -55
34 95 -54.59999999999998 -55
35 95 -70.19999999999996 -55
36 95 -85.80000000000001 -55
37 95 -101.4000000000001 -55
38 15.83333333333336 -39 -55
39 31.66666666666668 -39 -55
40 47.50000000000001 -39 -55
41 63.33333333333334 -39 -55
42 79.16666666666667 -39 -55
43 0 -54.59999999999998 55
44 0 -70.19999999999996 55
45 0 -85.80000000000001 55
46 0 -101.4000000000001 55
47 0 -117 39.28571428571431
48 0 -117 23.57142857142864
49 0 -117 7.857142857142918
50 0 -117 -7.857142857142819
51 0 -117 -23.57142857142854
52 0 -117 -39.28571428571426
53 0 -39 39.28571428571431
54 0 -39 23.57142857142864
55 0 -39 7.857142857142918
56 0 -39 -7.857142857142819
57 0 -39 -23.57142857142854
58 0 -39 -39.28571428571426
59 95 -54.59999999999998 -40.7
60 95 -70.19999999999996 -40.7
61 95 -85.80000000000001 -40.7
62 95 -101.4000000000001 -40.7
63 81.38333333333334 -39 -40.7
64 67.76666666666662 -39 -40.7
65 49.60855478466329 -39 -28.66076711611266
66 45.06710956932658 -39 -16.62153423222532
67 40.52566435398987 -39 -4.582301348337971
68 38.70614609241213 -39 -7.928712309640844
69 41.42807304620985 -39 -23.31435615481975
70 56.43333333333393 -39 -41.46666666666398
71 68.71666666666648 -39 -44.23333333333402
72 67.19999999999999 -39 -47
73 53.39999999999995 -39 -47
74 39.59999999999995 -39 -47
75 25.8 -39 -47
76 12 -39 -32.3333333333333
77 12 -39 -17.66666666666659
78 12 -39 -2.999999999999888
79 12 -39 11.66666666666682
80 12 -39 26.33333333333345
81 9.025000000000006 -39 55
82 81.38333333333334 -117 -40.7
83 67.76666666666662 -117 -40.7
84 48.99285714286349 -117 -27.02857142856908
85 43.83571428572699 -117 -13.35714285713816
86 38.67857142859048 -117 0.3142857142927582
87 33.52142857145398 -117 13.98571428572367
88 28.36428571431746 -117 27.65714285715464
89 23.2071428571809 -117 41.3285714285857
90 9.025000000000006 -117 55
91 18.05 -54.59999999999998 55
92 18.05 -70.19999999999996 55
93 18.05 -85.80000000000001 55
94 18.05 -101.4000000000001 55
95 54.15 -54.59999999999998 -40.7
96 54.15 -70.19999999999996 -40.7
97 54.15 -85.80000000000001 -40.7
98 54.15 -101.4000000000001 -40.7
99 23.331086729363 -52.49999999999996 41
100 23.331086729363 -65.99999999999997 41
101 23.331086729363 -79.49999999999999 41
102 31.76650833556524 -93 18.63795435703622
103 27.54879753248103 -93 29.81897717852449
104 35.984219138631 -79.50000000000003 7.456931535542
105 35.984219138631 -66.00000000000003 7.456931535542
106 35.984219138631 -52.50000000000001 7.456931535542
107 12 -52.49999999999996 41
108 12 -65.99999999999997 41
109 12 -79.49999999999999 41
110 12 -93 26.3333333333333
111 12 -93 11.66666666666659
112 12 -93 -3.000000000000114
113 12 -93 -17.66666666666682
114 12 -93 -32.33333333333346
115 12 -52.49999999999996 -47
116 12 -65.99999999999997 -47
117 12 -79.49999999999999 -47
118 25.80000000000001 -93 -47
119 39.60000000000005 -93 -47
120 53.40000000000005 -93 -47
121 67.2 -93 -47
122 81 -52.49999999999996 -47
123 81 -65.99999999999997 -47
124 81 -79.49999999999999 -47
125 68.71666666666744 -93 -44.23333333332995
126 56.43333333333489 -93 -41.46666666665991
127 44.15 -52.49999999999996 -38.7
128 44.15 -65.99999999999997 -38.7
129 44.15 -79.49999999999999 -38.7
130 41.4280730462023 -93 -23.31435615482113
131 38.70614609240459 -93 -7.928712309642265
132 82.26209399027731 -77.24452226991005 -55
133 12.74551851105698 -77.24446781168005 -55
134 39.60872054420636 -103.2906258273794 -55
135 40.294151991498 -51.92669174902819 -55
136 71.16846864419385 -103.757184924352 -55
137 70.20472929727418 -54.0501464556267 -55
138 55.41024700734565 -103.3835499375532 -55
139 47.51760327800065 -89.62167804204901 -55
140 31.31864522810014 -91.04009845679201 -55
141 38.280256741745 -76.60554115505931 -55
142 56.5268017982347 -76.48855987223773 -55
143 23.8372542983502 -103.8469486459306 -55
144 54.68703771096069 -52.01176561036857 -55
145 24.9181346944919 -53.9467424840855 -55
146 63.88362854197977 -91.23291603119378 -55
147 82.19301724530705 -62.96032483369502 -55
148 80.20859878948151 -92.30402912011911 -55
149 14.82836608919777 -92.28370218696583 -55
150 12.90009899241353 -62.99830727273998 -55
151 24.8220969058242 -69.31139587449346 -55
152 70.19944158452941 -69.29427736072412 -55
153 47.55556536079678 -64.333653954165 -55
154 11.66694608936482 -105.3936266543128 -55
155 83.37043945669843 -50.56842861410591 -55
156 83.37043945669845 -105.4315713858941 -55
157 11.62956054330158 -50.56842861410594 -55
158 35.68023653967308 -63.65954982729468 -55
159 59.39070119422624 -63.62359045258793 -55
160 24.23019849751228 -81.26077374004539 -55
161 70.77556089322132 -81.26200922948379 -55
162 0 -77.24429265626932 42.28567656314424
163 0 -77.24377967349284 -42.28473653952234
164 0 -103.3929779181922 -0.000888120388033542
165 0 -52.60897063089833 4.973799150320701e-14
166 0 -103.8338619436629 31.34069916549287
167 0 -54.00976375482303 30.36329103401649
168 0 -103.8320248129862 -31.33932828146629
169 0 -54.00946904604019 -30.36205807285391
170 0 -103.4684413466937 15.69949231704133
171 0 -89.80242268676076 7.855195448472948
172 0 -89.78848631498921 -7.851345841550973
173 0 -76.18745481730016 0.004261755044389304
174 0 -76.45922174197059 -16.94453534413539
175 0 -76.46658731533765 16.9509474650616
176 0 -91.26499537744135 -24.09493391898688
177 0 -91.28141564975171 24.09285792148926
178 0 -103.7130807372681 -15.78584459849392
179 0 -52.1053975594632 14.85660854812735
180 0 -52.10401220751496 -14.85603244622737
181 0 -62.89204290327469 42.35888426224259
182 0 -92.33222583518945 40.2841626676006
183 0 -62.89192476966893 -42.35786259738791
184 0 -92.32913102780465 -40.28423894590237
185 0 -69.24689287298517 -30.37053254690922
186 0 -69.24907003885401 30.37237582031666
187 0 -64.22932037031691 7.238236252974033
188 0 -64.20170916719673 -7.339756896841308
189 0 -50.49256944084701 -43.47714275248902
190 0 -50.49256944084698 43.47714275248905
191 0 -105.507430559153 -43.477142752489
192 0 -105.507430559153 43.47714275248905
193 0 -63.21202780775896 19.95629182409923
194 0 -63.20426100714153 -19.97458306139343
195 0 -81.25858003748908 30.79276227058872
196 0 -81.25568677155914 -30.79353112885229
197 95 -93.60000000000005 -47.85
198 95 -77.99999999999997 -47.85
199 95 -46.79999999999999 -47.85
200 95 -62.39999999999997 -47.85
201 95 -109.2 -47.85
202 6.912500000006801 -39 47.7857053571443
203 13.86371734588283 -39 47.9571410714322
204 6.925170068027196 -39 33.66666666666673
205 34.60852533834458 -117 -26.2955991812985
206 23.94113382865375 -117 2.822904451036957
207 14.31936653715194 -117 -13.39169819501952
208 24.07897636094865 -117 -39.35874512694831
209 11.98022296647338 -117 13.81913417909071
210 39.82229810984786 -117 -40.87310017098695
211 29.67932292042419 -117 -12.2288753486724
212 14.03795210115076 -117 30.07604483845595
213 12.8640189916752 -117 44.13806611055455
214 12.11696128686926 -117 -30.41572124077054
215 10.04814466645581 -117 0.6500680870216531
216 11.17167899498238 -117 -43.56334014870453
217 22.69262610407742 -117 -23.46600202390791
218 87.6375 -117 -47.84999999999999
219 23.09505255948926 -117 17.90443938007786
220 9.025 -93.60000000000005 55
221 9.025000000000004 -107.9 55
222 9.025000000000002 -77.99999999999997 55
223 9.025 -62.39999999999998 55
224 9.025000000000004 -48.09999999999999 55
225 74.57499999999999 -105.2076207518019 -40.7
226 74.57499999999999 -50.79237924819809 -40.7
227 68.46132847264113 -77.99999999999999 -40.7
228 66.14542267184336 -94.93176414798593 -40.7
229 81.82491460827603 -92.38592140847854 -40.7
230 66.14542267184336 -61.06823585201406 -40.7
231 81.82491460827602 -63.61407859152148 -40.7
232 83.27209251866834 -78 -40.7
233 85.43870704985697 -49.20295727236487 -40.7
234 63.71129295014303 -106.7970427276351 -40.7
235 85.43870704985694 -106.7970427276351 -40.7
236 63.71129295014302 -49.20295727236486 -40.7
237 40.04782803019098 -87.07808271670403 -3.315571814054934
238 49.4361849666879 -61.57911963842637 -28.20381998092517
239 46.43610550881944 -104.8795109105786 -20.25070075326827
240 42.82322333623729 -49.8354506392456 -10.67306020156199
241 39.98374705044159 -97.87641335937045 -3.145695089345089
242 25.61915086768905 -104.9925510531241 34.93441168880858
243 49.44501360784457 -77.42693123330432 -28.22722443961477
244 44.92892843052677 -70.19999999999996 -16.25522024377213
245 44.66310959874594 -83.12924785747595 -15.55054262046295
246 40.21763147541543 -73.87193475394145 -3.765715573279387
247 49.0111299327338 -93.51062092679953 -27.07701203772673
248 33.87536373711105 -103.3490708189103 13.04744294629349
249 47.17331364790452 -49.55416402236197 -22.20501706657967
250 29.65765293402684 -103.3490708189102 24.22846576778173
251 40.42301752293405 -60.00862192553789 -4.310187726951376
252 44.95693358085811 -58.23547124511436 -16.32946104395807
253 21.65147609087183 -106.6785102106248 45.45259662348838
254 50.43982440672117 -106.1969196041807 -30.86443755464594
255 37.43558321300473 -106.6294676802482 3.609409598828037
256 41.69392964893146 -106.5211881387091 -7.679337047120988
257 43.7938564070055 -95.74173688205705 -13.24617889609517
258 39.26810657995846 -48.4860767555325 -1.248554008310968
259 50.90361067985114 -48.74665673215767 -32.09392083272351
260 20.69054336472242 -46.01785714285712 48.00000000001546
261 17.6655433646815 -86.25 41
262 17.6655433646815 -72.74999999999997 41
263 17.6655433646815 -59.24999999999997 41
264 17.6655433646815 -45.74999999999999 41
265 12 -79.82157304295428 -10.1860735627038
266 12 -52.71651237269762 4.165499663454753
267 12 -79.49744221866662 19.50987094960407
268 12 -52.48731571762909 -25.52709875638156
269 12 -59.55797263849691 30.44183501910188
270 12 -72.44201217070082 -36.44136022775996
271 12 -52.07647070118729 -10.45267774213887
272 12 -66.43576469994541 -16.84748532018916
273 12 -80.13267842339401 4.442855120038871
274 12 -66.24207148784519 10.84002272350997
275 12 -66.23751178800396 -3.006309853004701
276 12 -53.06044422184185 19.46312299513144
277 12 -79.11324367356198 -25.46665341749353
278 12 -72.36328648812875 30.79670287343373
279 12 -59.63415544531791 -36.79902025133106
280 12 -83.41105116885257 -37.64826939571739
281 12 -48.62368337206775 31.64765826951336
282 12 -83.4257146030306 31.38245020454071
283 12 -48.57246905714718 -37.38444461114021
284 12 -66.02249834143103 -28.21632359463105
285 12 -66.14424341099587 22.21031091215622
286 46.50029164499137 -51.14661081105056 -47
287 32.79667821691648 -81.62519709576746 -47
288 60.19609422378922 -81.62831824815757 -47
289 70.24882938675411 -58.46136415473914 -47
290 22.74986483032981 -58.45990577204408 -47
291 46.49905104377815 -81.26405424093161 -47
292 53.61358864227117 -71.05126277069752 -47
293 39.42982992155042 -71.36577862258805 -47
294 61.27017393178389 -49.53240444367827 -47
295 31.72839986981113 -49.53070299720071 -47
296 24.18644707411487 -71.81709727842836 -47
297 68.81552453842995 -71.79514494456282 -47
298 21.86968352053286 -83.13609206129415 -47
299 71.12993339296938 -83.13471952620114 -47
300 21.91308161464448 -48.8300389838588 -47
301 71.08691838535552 -48.8300389838588 -47
302 46.50717510226332 -63.01354546660163 -47
303 34.50946059060644 -60.81974289672772 -47
304 58.6897149489231 -60.78446520979744 -47
305 62.85971424488527 -48.50202827704172 -42.91412831024028
306 62.82256584387542 -81.9947621565203 -42.905761099158
307 54.21520425809666 -73.04444179658051 -40.96706093193804
308 56.09710896583135 -59.24320854640606 -41.39093634779199
309 66.08083207880351 -67.03098931387626 -43.63964467446161
310 71.00590317320241 -57.03125964584859 -44.74895512449046
311 71.6905195836348 -76.21638681580723 -44.9031563784008
312 52.97550180130851 -83.68415614316051 -40.68783351290534
313 52.85434338676906 -47.97564156492624 -40.66054410067525
314 72.91591334645372 -47.32141913002326 -45.17916094370366
315 73.04595041883553 -84.74222979446552 -45.20845016217775
316 40.06934758996272 -80.65965018690883 -15.63418460432697
317 37.9815894498929 -59.68296741940446 -3.833168734606232
318 42.15785173691892 -59.68296741940447 -27.43941726474591
319 42.11327202832651 -72.74999999999997 -27.18743125234846
320 37.97540284327158 -72.56689887674906 -3.798199050370933
321 40.06705177750963 -66.20822191346124 -15.62120756514179
322 40.06784732021929 -51.4938007777012 -15.62570435620281
323 42.38395310996497 -48.44122434581918 -28.71745126699524
324 42.38395310996497 -83.55877565418078 -28.71745126699524
325 37.75026602864175 -83.55877565418109 -2.525617197467199
326 37.75026602864176 -48.44122434581897 -2.525617197467213
327 34.20634534482151 -93 -31.49636541552598
328 26.54060083214916 -93 -19.64610304249391
329 26.30052365880003 -93 -4.127556562300107
330 24.34076625362324 -93 9.450797500594135
331 21.34029510215687 -93 21.09098804855412
332 24.4612313434328 -93 -36.20433565137958
333 19.24403587280694 -93 31.84865971208493
334 19.2102811227373 -93 -11.11008156786524
335 33.64351533765133 -93 -40.08014021337908
$EndNodes
$Elements
1028
1 2 2 1 2 1 25 189
2 2 2 1 2 58 1 189
3 2 2 1 2 28 2 191
4 2 2 1 2 2 52 191
5 2 2 1 2 43 5 190
6 2 2 1 2 5 53 190
7 2 2 1 2 6 46 192
8 2 2 1 2 47 6 192
9 2 2 1 2 25 26 183
10 2 2 1 2 25 183 189
11 2 2 1 2 26 27 163
12 2 2 1 2 26 163 183
13 2 2 1 2 27 28 184
14 2 2 1 2 163 27 184
15 2 2 1 2 184 28 191
16 2 2 1 2 44 43 181
17 2 2 1 2 181 43 190
18 2 2 1 2 45 44 162
19 2 2 1 2 162 44 181
20 2 2 1 2 46 45 182
21 2 2 1 2 45 162 182
22 2 2 1 2 46 182 192
23 2 2 1 2 48 47 166
24 2 2 1 2 166 47 192
25 2 2 1 2 49 48 170
26 2 2 1 2 48 166 170
27 2 2 1 2 50 49 164
28 2 2 1 2 164 49 170
29 2 2 1 2 51 50 178
30 2 2 1 2 50 164 178
31 2 2 1 2 52 51 168
32 2 2 1 2 168 51 178
33 2 2 1 2 52 168 191
34 2 2 1 2 53 54 167
35 2 2 1 2 53 167 190
36 2 2 1 2 54 55 179
37 2 2 1 2 167 54 179
38 2 2 1 2 55 56 165
39 2 2 1 2 55 165 179
40 2 2 1 2 56 57 180
41 2 2 1 2 165 56 180
42 2 2 1 2 57 58 169
43 2 2 1 2 57 169 180
44 2 2 1 2 169 58 189
45 2 2 1 2 162 181 186
46 2 2 1 2 182 162 195
47 2 2 1 2 162 186 195
48 2 2 1 2 183 163 185
49 2 2 1 2 163 184 196
50 2 2 1 2 185 163 196
51 2 2 1 2 164 170 171
52 2 2 1 2 164 171 172
53 2 2 1 2 164 172 178
54 2 2 1 2 179 165 187
55 2 2 1 2 165 180 188
56 2 2 1 2 187 165 188
57 2 2 1 2 170 166 177
58 2 2 1 2 177 166 182
59 2 2 1 2 182 166 192
60 2 2 1 2 167 179 193
61 2 2 1 2 181 167 186
62 2 2 1 2 167 181 190
63 2 2 1 2 186 167 193
64 2 2 1 2 176 168 178
65 2 2 1 2 168 176 184
66 2 2 1 2 168 184 191
67 2 2 1 2 180 169 194
68 2 2 1 2 169 183 185
69 2 2 1 2 183 169 189
70 2 2 1 2 169 185 194
71 2 2 1 2 171 170 177
72 2 2 1 2 172 171 173
73 2 2 1 2 173 171 175
74 2 2 1 2 175 171 177
75 2 2 1 2 172 173 174
76 2 2 1 2 172 174 176
77 2 2 1 2 172 176 178
78 2 2 1 2 174 173 188
79 2 2 1 2 173 175 187
80 2 2 1 2 173 187 188
81 2 2 1 2 176 174 196
82 2 2 1 2 185 174 194
83 2 2 1 2 174 185 196
84 2 2 1 2 174 188 194
85 2 2 1 2 175 177 195
86 2 2 1 2 175 186 193
87 2 2 1 2 186 175 195
88 2 2 1 2 187 175 193
89 2 2 1 2 184 176 196
90 2 2 1 2 177 182 195
91 2 2 1 2 179 187 193
92 2 2 1 2 188 180 194
93 2 2 2 3 7 3 201
94 2 2 2 3 3 37 201
95 2 2 2 3 4 8 199
96 2 2 2 3 34 4 199
97 2 2 2 3 62 7 201
98 2 2 2 3 8 59 199
99 2 2 2 3 35 34 200
100 2 2 2 3 59 34 199
101 2 2 2 3 34 59 200
102 2 2 2 3 36 35 198
103 2 2 2 3 35 60 198
104 2 2 2 3 60 35 200
105 2 2 2 3 37 36 197
106 2 2 2 3 36 61 197
107 2 2 2 3 61 36 198
108 2 2 2 3 62 37 197
109 2 2 2 3 37 62 201
110 2 2 2 3 59 60 200
111 2 2 2 3 60 61 198
112 2 2 2 3 61 62 197
113 4 2 3 1 327 210 208 335
114 4 2 3 1 24 327 335 254
115 4 2 3 1 325 237 246 104
116 4 2 3 1 335 327 210 254
117 4 2 3 1 134 143 210 335
118 4 2 3 1 211 329 334 206
119 4 2 3 1 208 332 327 335
120 4 2 3 1 166 333 21 242
121 4 2 3 1 227 307 306 97
122 4 2 3 1 143 208 210 335
123 4 2 3 1 333 166 110 242
124 4 2 3 1 335 210 24 254
125 4 2 3 1 112 334 329 206
126 4 2 3 1 119 210 24 335
127 4 2 3 1 211 217 207 334
128 4 2 3 1 113 207 217 334
129 4 2 3 1 119 134 210 335
130 4 2 3 1 111 331 219 330
131 4 2 3 1 209 212 219 110
132 4 2 3 1 334 207 211 206
133 4 2 3 1 217 211 328 334
134 4 2 3 1 217 328 113 334
135 4 2 3 1 112 207 334 206
136 4 2 3 1 111 209 215 206
137 4 2 3 1 111 215 112 206
138 4 2 3 1 211 256 239 328
139 4 2 3 1 209 170 110 111
140 4 2 3 1 21 333 166 110
141 4 2 3 1 143 134 118 335
142 4 2 3 1 192 253 213 166
143 4 2 3 1 118 22 143 332
144 4 2 3 1 334 113 178 112
145 4 2 3 1 205 210 208 327
146 4 2 3 1 327 205 210 254
147 4 2 3 1 211 329 328 334
148 4 2 3 1 329 211 256 255
149 4 2 3 1 212 213 253 166
150 4 2 3 1 22 216 154 143
151 4 2 3 1 209 170 212 110
152 4 2 3 1 253 192 21 166
153 4 2 3 1 113 178 207 334
154 4 2 3 1 208 22 216 332
155 4 2 3 1 327 332 217 328
156 4 2 3 1 209 215 164 111
157 4 2 3 1 111 219 209 330
158 4 2 3 1 130 327 239 328
159 4 2 3 1 216 22 208 143
160 4 2 3 1 112 164 215 111
161 4 2 3 1 239 205 327 254
162 4 2 3 1 256 241 329 255
163 4 2 3 1 178 214 168 113
164 4 2 3 1 22 208 143 332
165 4 2 3 1 170 166 212 110
166 4 2 3 1 327 217 205 328
167 4 2 3 1 334 178 207 112
168 4 2 3 1 110 166 212 242
169 4 2 3 1 327 205 239 328
170 4 2 3 1 96 129 128 307
171 4 2 3 1 332 22 216 114
172 4 2 3 1 329 256 211 328
173 4 2 3 1 205 211 239 328
174 4 2 3 1 217 214 113 114
175 4 2 3 1 330 111 112 206
176 4 2 3 1 219 330 248 206
177 4 2 3 1 330 331 219 250
178 4 2 3 1 207 112 215 206
179 4 2 3 1 209 111 330 206
180 4 2 3 1 209 164 170 111
181 4 2 3 1 257 239 256 328
182 4 2 3 1 110 331 333 250
183 4 2 3 1 217 214 207 113
184 4 2 3 1 250 110 212 242
185 4 2 3 1 332 216 208 114
186 4 2 3 1 248 330 219 250
187 4 2 3 1 330 219 209 206
188 4 2 3 1 255 329 211 206
189 4 2 3 1 214 178 207 113
190 4 2 3 1 113 328 217 114
191 4 2 3 1 333 110 250 242
192 4 2 3 1 330 112 329 206
193 4 2 3 1 216 214 208 114
194 4 2 3 1 328 332 217 114
195 4 2 3 1 113 214 168 114
196 4 2 3 1 134 119 118 335
197 4 2 3 1 112 164 207 215
198 4 2 3 1 256 241 131 329
199 4 2 3 1 216 191 168 114
200 4 2 3 1 211 205 217 328
201 4 2 3 1 191 216 22 114
202 4 2 3 1 143 210 30 134
203 4 2 3 1 178 164 207 112
204 4 2 3 1 216 168 214 114
205 4 2 3 1 212 166 170 48
206 4 2 3 1 330 255 248 206
207 4 2 3 1 255 330 329 206
208 4 2 3 1 329 131 256 328
209 4 2 3 1 239 327 130 254
210 4 2 3 1 208 210 30 143
211 4 2 3 1 98 24 210 254
212 4 2 3 1 170 212 48 209
213 4 2 3 1 154 216 22 191
214 4 2 3 1 256 85 211 239
215 4 2 3 1 257 130 239 328
216 4 2 3 1 315 229 232 227
217 4 2 3 1 49 215 164 209
218 4 2 3 1 164 50 207 215
219 4 2 3 1 253 21 192 221
220 4 2 3 1 261 109 21 93
221 4 2 3 1 134 210 31 98
222 4 2 3 1 256 131 257 328
223 4 2 3 1 49 164 170 209
224 4 2 3 1 178 164 50 207
225 4 2 3 1 253 192 213 221
226 4 2 3 1 264 107 260 203
227 4 2 3 1 98 31 134 138
228 4 2 3 1 205 211 85 239
229 4 2 3 1 230 309 231 227
230 4 2 3 1 68 67 10 326
231 4 2 3 1 51 214 168 178
232 4 2 3 1 308 309 310 230
233 4 2 3 1 210 17 31 98
234 4 2 3 1 192 213 47 166
235 4 2 3 1 20 131 325 237
236 4 2 3 1 235 23 197 156
237 4 2 3 1 212 47 213 166
238 4 2 3 1 21 253 94 221
239 4 2 3 1 109 45 21 220
240 4 2 3 1 178 51 214 207
241 4 2 3 1 36 23 197 61
242 4 2 3 1 107 108 263 223
243 4 2 3 1 21 220 192 221
244 4 2 3 1 120 119 134 98
245 4 2 3 1 62 23 197 235
246 4 2 3 1 109 262 92 93
247 4 2 3 1 212 88 250 242
248 4 2 3 1 255 211 256 86
249 4 2 3 1 88 219 212 250
250 4 2 3 1 222 45 109 220
251 4 2 3 1 222 162 108 109
252 4 2 3 1 21 45 109 182
253 4 2 3 1 257 131 241 237
254 4 2 3 1 262 109 101 93
255 4 2 3 1 98 17 31 138
256 4 2 3 1 89 213 253 212
257 4 2 3 1 168 191 216 52
258 4 2 3 1 212 253 89 242
259 4 2 3 1 44 162 108 222
260 4 2 3 1 124 36 198 61
261 4 2 3 1 124 198 123 232
262 4 2 3 1 19 21 333 242
263 4 2 3 1 198 123 132 124
264 4 2 3 1 168 178 113 176
265 4 2 3 1 214 168 216 52
266 4 2 3 1 220 21 94 221
267 4 2 3 1 154 216 29 143
268 4 2 3 1 260 107 99 263
269 4 2 3 1 202 224 107 203
270 4 2 3 1 208 29 216 143
271 4 2 3 1 329 241 20 255
272 4 2 3 1 121 138 136 234
273 4 2 3 1 134 120 98 138
274 4 2 3 1 62 197 37 235
275 4 2 3 1 93 109 21 220
276 4 2 3 1 109 45 162 182
277 4 2 3 1 100 91 99 263
278 4 2 3 1 156 235 82 218
279 4 2 3 1 263 108 92 223
280 4 2 3 1 235 197 37 156
281 4 2 3 1 123 132 35 198
282 4 2 3 1 330 329 20 255
283 4 2 3 1 255 20 330 248
284 4 2 3 1 198 60 123 232
285 4 2 3 1 147 34 122 200
286 4 2 3 1 222 109 93 220
287 4 2 3 1 162 108 181 44
288 4 2 3 1 23 36 124 61
289 4 2 3 1 44 108 223 222
290 4 2 3 1 269 108 107 181
291 4 2 3 1 116 25 183 115
292 4 2 3 1 206 211 255 86
293 4 2 3 1 60 123 35 198
294 4 2 3 1 260 107 224 203
295 4 2 3 1 181 108 107 223
296 4 2 3 1 321 322 252 318
297 4 2 3 1 17 32 138 234
298 4 2 3 1 107 264 14 203
299 4 2 3 1 122 123 147 200
300 4 2 3 1 162 278 108 109
301 4 2 3 1 98 210 17 254
302 4 2 3 1 224 43 107 223
303 4 2 3 1 177 171 267 111
304 4 2 3 1 34 59 122 200
305 4 2 3 1 126 120 121 98
306 4 2 3 1 21 19 253 242
307 4 2 3 1 228 97 306 126
308 4 2 3 1 181 107 190 223
309 4 2 3 1 121 98 138 234
310 4 2 3 1 82 225 235 156
311 4 2 3 1 162 222 45 109
312 4 2 3 1 206 248 219 87
313 4 2 3 1 186 278 108 162
314 4 2 3 1 284 185 272 194
315 4 2 3 1 254 205 210 84
316 4 2 3 1 172 265 113 174
317 4 2 3 1 150 25 116 115
318 4 2 3 1 21 19 261 93
319 4 2 3 1 204 281 107 190
320 4 2 3 1 183 26 25 116
321 4 2 3 1 232 231 311 227
322 4 2 3 1 101 261 19 93
323 4 2 3 1 254 239 205 84
324 4 2 3 1 277 113 265 174
325 4 2 3 1 101 92 262 93
326 4 2 3 1 278 285 175 186
327 4 2 3 1 68 69 66 322
328 4 2 3 1 171 170 164 111
329 4 2 3 1 108 269 186 181
330 4 2 3 1 166 170 177 110
331 4 2 3 1 136 138 32 234
332 4 2 3 1 118 119 134 140
333 4 2 3 1 116 26 25 150
334 4 2 3 1 122 59 34 199
335 4 2 3 1 35 123 60 200
336 4 2 3 1 180 268 272 194
337 4 2 3 1 234 121 125 225
338 4 2 3 1 107 43 190 223
339 4 2 3 1 163 183 270 116
340 4 2 3 1 175 278 186 195
341 4 2 3 1 176 113 168 114
342 4 2 3 1 98 120 121 138
343 4 2 3 1 138 98 17 234
344 4 2 3 1 176 172 113 174
345 4 2 3 1 178 164 112 172
346 4 2 3 1 282 109 195 182
347 4 2 3 1 113 277 176 174
348 4 2 3 1 265 275 272 188
349 4 2 3 1 37 62 235 201
350 4 2 3 1 263 91 107 223
351 4 2 3 1 166 182 21 110
352 4 2 3 1 202 107 14 203
353 4 2 3 1 177 171 175 267
354 4 2 3 1 120 134 119 139
355 4 2 3 1 240 326 68 322
356 4 2 3 1 269 107 167 181
357 4 2 3 1 278 175 285 267
358 4 2 3 1 223 181 108 44
359 4 2 3 1 163 117 26 116
360 4 2 3 1 194 272 180 188
361 4 2 3 1 80 54 276 281
362 4 2 3 1 109 261 101 93
363 4 2 3 1 284 185 277 174
364 4 2 3 1 183 185 270 279
365 4 2 3 1 167 276 54 281
366 4 2 3 1 17 32 31 138
367 4 2 3 1 136 234 83 225
368 4 2 3 1 273 267 171 111
369 4 2 3 1 58 169 283 76
370 4 2 3 1 175 278 195 267
371 4 2 3 1 108 269 278 186
372 4 2 3 1 110 170 177 111
373 4 2 3 1 265 275 188 173
374 4 2 3 1 78 55 165 266
375 4 2 3 1 112 113 178 172
376 4 2 3 1 37 235 156 201
377 4 2 3 1 14 204 107 190
378 4 2 3 1 21 45 182 220
379 4 2 3 1 274 175 173 273
380 4 2 3 1 107 190 224 202
381 4 2 3 1 190 43 107 224
382 4 2 3 1 174 265 272 188
383 4 2 3 1 156 82 33 218
384 4 2 3 1 117 184 280 163
385 4 2 3 1 220 46 192 221
386 4 2 3 1 31 30 210 134
387 4 2 3 1 83 33 136 225
388 4 2 3 1 173 187 175 274
389 4 2 3 1 266 187 274 179
390 4 2 3 1 231 309 311 227
391 4 2 3 1 118 134 143 140
392 4 2 3 1 27 184 117 163
393 4 2 3 1 262 100 92 101
394 4 2 3 1 270 117 163 116
395 4 2 3 1 185 284 272 174
396 4 2 3 1 276 274 193 179
397 4 2 3 1 220 182 21 192
398 4 2 3 1 188 174 265 173
399 4 2 3 1 260 91 107 263
400 4 2 3 1 278 162 195 109
401 4 2 3 1 331 333 250 103
402 4 2 3 1 208 30 29 143
403 4 2 3 1 276 266 274 179
404 4 2 3 1 13 189 157 115
405 4 2 3 1 173 172 265 273
406 4 2 3 1 76 169 283 268
407 4 2 3 1 267 171 175 273
408 4 2 3 1 187 193 274 179
409 4 2 3 1 179 276 79 54
410 4 2 3 1 78 56 271 165
411 4 2 3 1 284 270 185 279
412 4 2 3 1 182 282 21 110
413 4 2 3 1 24 119 120 98
414 4 2 3 1 291 119 287 141
415 4 2 3 1 204 167 281 190
416 4 2 3 1 182 195 282 177
417 4 2 3 1 139 120 134 138
418 4 2 3 1 282 21 109 182
419 4 2 3 1 180 57 77 268
420 4 2 3 1 193 285 276 269
421 4 2 3 1 282 182 177 110
422 4 2 3 1 188 275 271 165
423 4 2 3 1 279 270 183 116
424 4 2 3 1 233 59 122 199
425 4 2 3 1 193 285 269 186
426 4 2 3 1 234 136 121 225
427 4 2 3 1 172 173 171 273
428 4 2 3 1 174 272 185 194
429 4 2 3 1 263 92 91 223
430 4 2 3 1 181 186 108 162
431 4 2 3 1 148 37 36 197
432 4 2 3 1 272 284 277 174
433 4 2 3 1 183 279 116 115
434 4 2 3 1 108 92 223 222
435 4 2 3 1 181 190 43 223
436 4 2 3 1 267 110 177 111
437 4 2 3 1 180 268 271 272
438 4 2 3 1 165 275 271 266
439 4 2 3 1 218 156 235 201
440 4 2 3 1 147 35 34 200
441 4 2 3 1 183 163 26 116
442 4 2 3 1 164 112 171 111
443 4 2 3 1 56 78 55 165
444 4 2 3 1 32 136 234 83
445 4 2 3 1 109 195 278 282
446 4 2 3 1 190 107 14 202
447 4 2 3 1 225 82 33 156
448 4 2 3 1 92 222 109 93
449 4 2 3 1 55 165 266 179
450 4 2 3 1 117 26 27 163
451 4 2 3 1 36 23 124 148
452 4 2 3 1 54 276 79 80
453 4 2 3 1 112 265 172 273
454 4 2 3 1 14 204 281 107
455 4 2 3 1 79 55 266 179
456 4 2 3 1 162 195 109 182
457 4 2 3 1 77 180 271 56
458 4 2 3 1 166 212 47 48
459 4 2 3 1 167 54 204 281
460 4 2 3 1 22 27 184 117
461 4 2 3 1 198 132 36 124
462 4 2 3 1 57 169 76 268
463 4 2 3 1 225 136 23 156
464 4 2 3 1 271 180 272 188
465 4 2 3 1 171 112 172 273
466 4 2 3 1 184 280 22 117
467 4 2 3 1 155 4 12 199
468 4 2 3 1 76 58 169 57
469 4 2 3 1 114 22 191 184
470 4 2 3 1 187 275 165 266
471 4 2 3 1 49 170 48 209
472 4 2 3 1 3 156 218 201
473 4 2 3 1 100 92 91 263
474 4 2 3 1 33 83 82 225
475 4 2 3 1 235 225 23 156
476 4 2 3 1 88 212 89 242
477 4 2 3 1 242 250 333 103
478 4 2 3 1 2 216 154 191
479 4 2 3 1 180 271 56 165
480 4 2 3 1 163 183 185 270
481 4 2 3 1 132 36 35 198
482 4 2 3 1 247 239 130 254
483 4 2 3 1 1 13 189 157
484 4 2 3 1 148 36 23 197
485 4 2 3 1 117 27 26 133
486 4 2 3 1 282 195 278 267
487 4 2 3 1 186 269 167 181
488 4 2 3 1 192 213 221 90
489 4 2 3 1 305 308 310 230
490 4 2 3 1 165 271 78 266
491 4 2 3 1 124 198 232 61
492 4 2 3 1 192 182 21 166
493 4 2 3 1 51 178 50 207
494 4 2 3 1 314 226 63 64
495 4 2 3 1 116 117 26 133
496 4 2 3 1 54 179 276 167
497 4 2 3 1 185 284 279 169
498 4 2 3 1 193 285 274 276
499 4 2 3 1 195 282 177 267
500 4 2 3 1 276 79 266 179
501 4 2 3 1 162 186 278 195
502 4 2 3 1 255 248 206 87
503 4 2 3 1 21 93 220 94
504 4 2 3 1 92 100 108 263
505 4 2 3 1 77 180 268 271
506 4 2 3 1 193 175 285 186
507 4 2 3 1 182 166 177 110
508 4 2 3 1 77 57 180 56
509 4 2 3 1 114 191 168 184
510 4 2 3 1 288 146 120 139
511 4 2 3 1 231 122 59 200
512 4 2 3 1 251 321 252 244
513 4 2 3 1 99 91 260 263
514 4 2 3 1 136 32 33 83
515 4 2 3 1 55 78 79 266
516 4 2 3 1 12 4 8 199
517 4 2 3 1 240 326 322 317
518 4 2 3 1 274 173 275 273
519 4 2 3 1 75 38 39 300
520 4 2 3 1 167 193 276 269
521 4 2 3 1 175 274 267 273
522 4 2 3 1 119 140 287 141
523 4 2 3 1 272 268 284 194
524 4 2 3 1 231 123 122 200
525 4 2 3 1 54 80 204 281
526 4 2 3 1 285 175 193 274
527 4 2 3 1 34 155 122 199
528 4 2 3 1 275 188 187 165
529 4 2 3 1 129 324 24 312
530 4 2 3 1 246 251 320 105
531 4 2 3 1 305 9 236 70
532 4 2 3 1 13 189 115 283
533 4 2 3 1 170 171 177 111
534 4 2 3 1 76 77 57 268
535 4 2 3 1 187 173 275 274
536 4 2 3 1 225 33 136 156
537 4 2 3 1 164 50 215 49
538 4 2 3 1 196 280 163 270
539 4 2 3 1 93 21 19 94
540 4 2 3 1 232 198 60 61
541 4 2 3 1 204 53 54 167
542 4 2 3 1 234 125 228 225
543 4 2 3 1 268 169 284 194
544 4 2 3 1 183 185 279 169
545 4 2 3 1 171 173 175 273
546 4 2 3 1 239 85 205 84
547 4 2 3 1 138 146 121 136
548 4 2 3 1 185 284 169 194
549 4 2 3 1 79 55 179 54
550 4 2 3 1 269 167 193 186
551 4 2 3 1 56 271 77 78
552 4 2 3 1 141 291 119 139
553 4 2 3 1 120 146 121 138
554 4 2 3 1 279 183 189 115
555 4 2 3 1 110 177 282 267
556 4 2 3 1 180 169 57 268
557 4 2 3 1 131 20 241 237
558 4 2 3 1 147 123 35 200
559 4 2 3 1 251 317 105 106
560 4 2 3 1 124 132 36 148
561 4 2 3 1 272 275 271 188
562 4 2 3 1 213 18 253 221
563 4 2 3 1 224 190 5 202
564 4 2 3 1 174 172 265 173
565 4 2 3 1 182 220 46 192
566 4 2 3 1 120 291 288 139
567 4 2 3 1 291 141 142 139
568 4 2 3 1 233 12 8 199
569 4 2 3 1 275 187 274 266
570 4 2 3 1 189 183 25 115
571 4 2 3 1 278 269 285 186
572 4 2 3 1 245 324 243 247
573 4 2 3 1 34 4 155 199
574 4 2 3 1 185 277 196 270
575 4 2 3 1 172 113 178 176
576 4 2 3 1 291 141 293 292
577 4 2 3 1 115 189 279 283
578 4 2 3 1 41 42 301 137
579 4 2 3 1 211 85 256 86
580 4 2 3 1 253 19 21 94
581 4 2 3 1 145 39 38 300
582 4 2 3 1 280 196 277 270
583 4 2 3 1 122 155 34 147
584 4 2 3 1 266 165 187 179
585 4 2 3 1 66 67 68 240
586 4 2 3 1 185 196 163 270
587 4 2 3 1 196 176 277 174
588 4 2 3 1 238 319 128 243
589 4 2 3 1 224 107 91 223
590 4 2 3 1 271 180 188 165
591 4 2 3 1 270 185 277 284
592 4 2 3 1 90 47 192 213
593 4 2 3 1 230 310 226 231
594 4 2 3 1 173 265 275 273
595 4 2 3 1 177 175 195 267
596 4 2 3 1 237 325 20 104
597 4 2 3 1 243 128 238 96
598 4 2 3 1 189 25 1 157
599 4 2 3 1 274 285 175 267
600 4 2 3 1 146 120 139 138
601 4 2 3 1 229 23 197 62
602 4 2 3 1 141 291 142 292
603 4 2 3 1 52 214 168 51
604 4 2 3 1 221 6 192 90
605 4 2 3 1 187 193 175 274
606 4 2 3 1 204 80 14 281
607 4 2 3 1 22 27 28 184
608 4 2 3 1 119 140 141 139
609 4 2 3 1 87 248 219 250
610 4 2 3 1 96 95 128 238
611 4 2 3 1 146 288 142 139
612 4 2 3 1 190 167 107 181
613 4 2 3 1 140 119 134 139
614 4 2 3 1 204 14 53 190
615 4 2 3 1 238 244 319 243
616 4 2 3 1 196 280 184 163
617 4 2 3 1 254 210 17 84
618 4 2 3 1 164 112 172 171
619 4 2 3 1 61 229 197 62
620 4 2 3 1 60 231 59 200
621 4 2 3 1 324 129 243 312
622 4 2 3 1 319 321 316 244
623 4 2 3 1 229 23 124 61
624 4 2 3 1 167 281 107 269
625 4 2 3 1 283 189 279 169
626 4 2 3 1 117 149 27 133
627 4 2 3 1 153 293 141 292
628 4 2 3 1 191 2 216 52
629 4 2 3 1 167 204 53 190
630 4 2 3 1 95 9 236 305
631 4 2 3 1 135 40 39 74
632 4 2 3 1 98 97 24 247
633 4 2 3 1 73 40 41 144
634 4 2 3 1 319 129 128 243
635 4 2 3 1 118 143 22 149
636 4 2 3 1 108 100 92 262
637 4 2 3 1 72 41 42 301
638 4 2 3 1 229 197 23 61
639 4 2 3 1 13 1 189 58
640 4 2 3 1 45 182 220 46
641 4 2 3 1 287 160 296 151
642 4 2 3 1 294 144 41 137
643 4 2 3 1 185 196 277 174
644 4 2 3 1 13 189 283 58
645 4 2 3 1 169 284 279 268
646 4 2 3 1 169 283 189 58
647 4 2 3 1 156 3 37 201
648 4 2 3 1 295 145 39 135
649 4 2 3 1 194 174 272 188
650 4 2 3 1 268 180 169 194
651 4 2 3 1 224 91 107 260
652 4 2 3 1 142 153 141 292
653 4 2 3 1 190 53 5 202
654 4 2 3 1 121 148 23 136
655 4 2 3 1 264 107 99 260
656 4 2 3 1 272 277 265 174
657 4 2 3 1 22 28 154 191
658 4 2 3 1 17 32 234 83
659 4 2 3 1 35 132 123 147
660 4 2 3 1 296 116 290 151
661 4 2 3 1 107 281 167 190
662 4 2 3 1 96 129 243 128
663 4 2 3 1 296 133 116 151
664 4 2 3 1 132 123 297 124
665 4 2 3 1 193 276 179 167
666 4 2 3 1 150 290 116 151
667 4 2 3 1 189 183 279 169
668 4 2 3 1 150 116 26 133
669 4 2 3 1 223 43 181 44
670 4 2 3 1 127 128 95 238
671 4 2 3 1 154 28 2 191
672 4 2 3 1 133 150 116 151
673 4 2 3 1 47 90 192 6
674 4 2 3 1 14 53 190 202
675 4 2 3 1 28 27 22 149
676 4 2 3 1 171 112 273 111
677 4 2 3 1 240 68 66 322
678 4 2 3 1 218 235 7 201
679 4 2 3 1 257 130 245 247
680 4 2 3 1 113 112 265 172
681 4 2 3 1 96 312 243 129
682 4 2 3 1 59 233 8 199
683 4 2 3 1 235 62 7 201
684 4 2 3 1 149 27 22 117
685 4 2 3 1 29 2 216 154
686 4 2 3 1 131 20 329 241
687 4 2 3 1 222 44 162 45
688 4 2 3 1 293 151 296 158
689 4 2 3 1 158 296 293 303
690 4 2 3 1 158 290 151 303
691 4 2 3 1 156 33 3 218
692 4 2 3 1 280 117 163 270
693 4 2 3 1 281 167 276 269
694 4 2 3 1 133 116 117 296
695 4 2 3 1 280 277 196 114
696 4 2 3 1 289 297 304 159
697 4 2 3 1 88 87 219 250
698 4 2 3 1 289 297 159 152
699 4 2 3 1 71 314 63 64
700 4 2 3 1 58 283 13 76
701 4 2 3 1 291 142 288 139
702 4 2 3 1 191 22 28 184
703 4 2 3 1 260 16 15 203
704 4 2 3 1 143 118 140 149
705 4 2 3 1 275 188 173 187
706 4 2 3 1 325 131 316 237
707 4 2 3 1 123 132 297 152
708 4 2 3 1 320 246 105 104
709 4 2 3 1 277 176 196 114
710 4 2 3 1 190 5 43 224
711 4 2 3 1 277 113 176 114
712 4 2 3 1 320 325 316 246
713 4 2 3 1 257 131 130 328
714 4 2 3 1 144 41 73 294
715 4 2 3 1 245 316 130 131
716 4 2 3 1 148 121 146 136
717 4 2 3 1 286 302 144 304
718 4 2 3 1 258 10 326 106
719 4 2 3 1 297 124 161 132
720 4 2 3 1 75 39 295 300
721 4 2 3 1 158 151 290 145
722 4 2 3 1 303 302 158 135
723 4 2 3 1 69 323 11 65
724 4 2 3 1 196 280 114 184
725 4 2 3 1 224 202 81 203
726 4 2 3 1 135 302 158 153
727 4 2 3 1 229 23 62 235
728 4 2 3 1 131 130 245 257
729 4 2 3 1 15 264 99 260
730 4 2 3 1 63 12 8 233
731 4 2 3 1 287 160 151 141
732 4 2 3 1 302 144 304 153
733 4 2 3 1 232 229 124 61
734 4 2 3 1 143 154 22 149
735 4 2 3 1 123 289 122 147
736 4 2 3 1 137 289 152 147
737 4 2 3 1 116 290 150 115
738 4 2 3 1 25 150 157 115
739 4 2 3 1 23 299 148 121
740 4 2 3 1 39 295 135 74
741 4 2 3 1 151 150 290 145
742 4 2 3 1 123 309 311 231
743 4 2 3 1 94 253 18 221
744 4 2 3 1 144 302 286 153
745 4 2 3 1 297 304 159 292
746 4 2 3 1 286 73 294 144
747 4 2 3 1 286 135 295 74
748 4 2 3 1 123 152 289 147
749 4 2 3 1 289 137 122 147
750 4 2 3 1 316 245 324 319
751 4 2 3 1 245 316 246 244
752 4 2 3 1 151 296 287 141
753 4 2 3 1 135 303 302 286
754 4 2 3 1 311 123 231 232
755 4 2 3 1 158 151 296 303
756 4 2 3 1 290 296 151 303
757 4 2 3 1 260 224 16 203
758 4 2 3 1 120 119 291 139
759 4 2 3 1 320 316 321 244
760 4 2 3 1 74 286 40 73
761 4 2 3 1 323 249 318 259
762 4 2 3 1 322 323 249 318
763 4 2 3 1 141 296 287 293
764 4 2 3 1 202 5 224 81
765 4 2 3 1 318 127 323 259
766 4 2 3 1 86 255 206 87
767 4 2 3 1 297 132 161 152
768 4 2 3 1 128 127 318 238
769 4 2 3 1 124 148 299 161
770 4 2 3 1 146 121 288 120
771 4 2 3 1 12 4 155 42
772 4 2 3 1 229 228 125 225
773 4 2 3 1 95 259 127 238
774 4 2 3 1 136 148 23 156
775 4 2 3 1 192 46 6 221
776 4 2 3 1 213 253 18 89
777 4 2 3 1 73 286 40 144
778 4 2 3 1 39 145 295 300
779 4 2 3 1 252 321 318 244
780 4 2 3 1 40 135 286 74
781 4 2 3 1 286 135 40 144
782 4 2 3 1 245 131 257 237
783 4 2 3 1 115 157 13 300
784 4 2 3 1 59 233 122 231
785 4 2 3 1 148 124 299 23
786 4 2 3 1 1 38 13 157
787 4 2 3 1 279 283 169 268
788 4 2 3 1 98 247 24 254
789 4 2 3 1 302 135 286 153
790 4 2 3 1 117 298 149 133
791 4 2 3 1 161 288 142 146
792 4 2 3 1 144 137 304 159
793 4 2 3 1 137 289 159 152
794 4 2 3 1 157 189 25 115
795 4 2 3 1 176 196 114 184
796 4 2 3 1 141 151 296 293
797 4 2 3 1 114 168 176 184
798 4 2 3 1 292 142 159 297
799 4 2 3 1 298 160 149 133
800 4 2 3 1 303 158 290 145
801 4 2 3 1 144 286 135 153
802 4 2 3 1 244 318 252 238
803 4 2 3 1 140 118 119 287
804 4 2 3 1 125 23 229 225
805 4 2 3 1 301 42 155 137
806 4 2 3 1 145 38 157 300
807 4 2 3 1 122 42 301 12
808 4 2 3 1 249 69 323 322
809 4 2 3 1 123 132 152 147
810 4 2 3 1 235 7 82 218
811 4 2 3 1 301 294 41 137
812 4 2 3 1 242 333 19 103
813 4 2 3 1 288 142 297 161
814 4 2 3 1 317 251 258 106
815 4 2 3 1 122 42 155 301
816 4 2 3 1 124 132 148 161
817 4 2 3 1 259 318 127 238
818 4 2 3 1 123 231 60 200
819 4 2 3 1 137 294 144 304
820 4 2 3 1 293 141 151 158
821 4 2 3 1 7 3 218 201
822 4 2 3 1 64 314 226 236
823 4 2 3 1 295 303 135 286
824 4 2 3 1 319 245 324 243
825 4 2 3 1 286 294 304 144
826 4 2 3 1 145 303 158 135
827 4 2 3 1 244 319 318 238
828 4 2 3 1 297 124 299 161
829 4 2 3 1 324 245 130 247
830 4 2 3 1 316 245 319 244
831 4 2 3 1 153 302 293 292
832 4 2 3 1 319 318 321 244
833 4 2 3 1 71 70 305 64
834 4 2 3 1 316 320 246 244
835 4 2 3 1 297 152 289 123
836 4 2 3 1 117 298 133 296
837 4 2 3 1 140 160 287 141
838 4 2 3 1 159 142 152 297
839 4 2 3 1 81 16 224 203
840 4 2 3 1 123 311 124 232
841 4 2 3 1 323 127 11 259
842 4 2 3 1 15 264 260 203
843 4 2 3 1 65 323 11 259
844 4 2 3 1 133 298 160 296
845 4 2 3 1 249 240 66 322
846 4 2 3 1 326 67 10 258
847 4 2 3 1 249 318 259 238
848 4 2 3 1 142 152 297 161
849 4 2 3 1 249 69 66 65
850 4 2 3 1 319 128 318 238
851 4 2 3 1 313 11 127 259
852 4 2 3 1 303 145 295 135
853 4 2 3 1 322 249 252 318
854 4 2 3 1 245 319 244 243
855 4 2 3 1 115 290 145 300
856 4 2 3 1 16 91 224 260
857 4 2 3 1 23 229 225 235
858 4 2 3 1 236 70 64 305
859 4 2 3 1 63 233 226 314
860 4 2 3 1 249 66 69 322
861 4 2 3 1 154 28 22 149
862 4 2 3 1 250 102 331 103
863 4 2 3 1 309 306 311 227
864 4 2 3 1 292 142 297 288
865 4 2 3 1 233 12 122 314
866 4 2 3 1 251 317 320 105
867 4 2 3 1 102 330 20 248
868 4 2 3 1 233 63 12 314
869 4 2 3 1 321 251 317 320
870 4 2 3 1 60 231 123 232
871 4 2 3 1 24 324 130 247
872 4 2 3 1 287 140 118 298
873 4 2 3 1 241 256 131 257
874 4 2 3 1 159 304 144 153
875 4 2 3 1 232 311 315 227
876 4 2 3 1 161 297 288 299
877 4 2 3 1 294 137 289 304
878 4 2 3 1 155 122 137 147
879 4 2 3 1 304 137 289 159
880 4 2 3 1 296 160 133 151
881 4 2 3 1 239 130 257 247
882 4 2 3 1 74 39 295 75
883 4 2 3 1 65 11 9 259
884 4 2 3 1 41 72 73 294
885 4 2 3 1 72 12 301 42
886 4 2 3 1 124 315 229 232
887 4 2 3 1 294 41 72 301
888 4 2 3 1 122 233 226 231
889 4 2 3 1 75 13 38 300
890 4 2 3 1 318 249 252 238
891 4 2 3 1 324 245 316 130
892 4 2 3 1 298 149 22 117
893 4 2 3 1 114 280 22 184
894 4 2 3 1 157 38 13 300
895 4 2 3 1 315 124 311 232
896 4 2 3 1 287 160 140 298
897 4 2 3 1 314 63 12 71
898 4 2 3 1 313 9 11 259
899 4 2 3 1 125 126 228 306
900 4 2 3 1 322 252 240 251
901 4 2 3 1 121 288 299 146
902 4 2 3 1 122 42 12 155
903 4 2 3 1 288 161 299 146
904 4 2 3 1 221 213 18 90
905 4 2 3 1 293 158 302 153
906 4 2 3 1 227 307 309 306
907 4 2 3 1 153 304 302 292
908 4 2 3 1 317 258 326 106
909 4 2 3 1 158 293 141 153
910 4 2 3 1 309 123 310 231
911 4 2 3 1 122 226 233 314
912 4 2 3 1 149 22 118 298
913 4 2 3 1 249 252 240 322
914 4 2 3 1 115 145 157 300
915 4 2 3 1 251 240 322 317
916 4 2 3 1 298 287 160 296
917 4 2 3 1 258 326 67 240
918 4 2 3 1 291 142 292 288
919 4 2 3 1 159 153 142 292
920 4 2 3 1 302 158 293 303
921 4 2 3 1 155 122 301 137
922 4 2 3 1 65 249 323 259
923 4 2 3 1 264 15 14 203
924 4 2 3 1 315 23 124 229
925 4 2 3 1 226 236 310 230
926 4 2 3 1 230 309 310 231
927 4 2 3 1 141 287 291 293
928 4 2 3 1 153 159 304 292
929 4 2 3 1 229 315 23 125
930 4 2 3 1 249 323 69 65
931 4 2 3 1 145 290 303 295
932 4 2 3 1 245 316 131 237
933 4 2 3 1 324 129 319 243
934 4 2 3 1 71 314 64 305
935 4 2 3 1 246 320 325 104
936 4 2 3 1 24 120 126 98
937 4 2 3 1 122 301 137 289
938 4 2 3 1 236 64 314 305
939 4 2 3 1 310 236 305 230
940 4 2 3 1 310 122 226 231
941 4 2 3 1 122 310 123 231
942 4 2 3 1 326 68 67 240
943 4 2 3 1 236 314 310 305
944 4 2 3 1 137 301 294 289
945 4 2 3 1 295 145 290 300
946 4 2 3 1 314 236 310 226
947 4 2 3 1 259 127 313 95
948 4 2 3 1 314 310 122 226
949 4 2 3 1 311 306 315 227
950 4 2 3 1 96 312 129 307
951 4 2 3 1 97 227 228 306
952 4 2 3 1 127 308 95 128
953 4 2 3 1 96 95 230 308
954 4 2 3 1 11 70 9 313
955 4 2 3 1 128 307 308 96
956 4 2 3 1 9 95 259 313
957 4 2 3 1 305 9 70 313
958 4 2 3 1 313 308 305 95
959 4 2 3 1 127 308 313 95
960 4 2 3 1 97 96 312 243
961 4 2 3 1 98 97 126 24
962 4 2 3 1 307 97 312 306
963 4 2 3 1 98 97 228 126
964 4 2 3 1 227 307 97 96
965 4 2 3 1 312 126 97 24
966 4 2 3 1 126 306 312 97
967 4 2 3 1 96 95 308 128
968 4 2 3 1 96 97 312 307
969 4 2 3 1 9 64 236 70
970 4 2 3 1 95 9 305 313
971 4 2 3 1 219 110 250 331
972 4 2 3 1 250 110 219 212
973 4 2 3 1 111 219 110 209
974 4 2 3 1 111 110 219 331
975 4 2 3 1 242 166 253 21
976 4 2 3 1 242 253 166 212
977 4 2 3 1 327 208 217 332
978 4 2 3 1 327 217 208 205
979 4 2 3 1 230 227 307 309
980 4 2 3 1 307 227 230 96
981 4 2 3 1 307 308 230 309
982 4 2 3 1 230 308 307 96
983 4 2 3 1 143 332 335 118
984 4 2 3 1 335 332 143 208
985 4 2 3 1 210 119 98 134
986 4 2 3 1 98 119 210 24
987 4 2 3 1 95 230 305 236
988 4 2 3 1 305 230 95 308
989 4 2 3 1 208 114 217 332
990 4 2 3 1 217 114 208 214
991 4 2 3 1 330 250 102 331
992 4 2 3 1 102 250 330 248
993 4 2 3 1 109 92 108 222
994 4 2 3 1 109 108 92 262
995 4 2 3 1 156 197 148 23
996 4 2 3 1 156 148 197 37
997 4 2 3 1 229 125 227 315
998 4 2 3 1 229 227 125 228
999 4 2 3 1 306 227 125 315
1000 4 2 3 1 306 125 227 228
1001 4 2 3 1 234 125 98 228
1002 4 2 3 1 234 98 125 121
1003 4 2 3 1 126 98 125 228
1004 4 2 3 1 126 125 98 121
1005 4 2 3 1 225 121 23 136
1006 4 2 3 1 225 23 121 125
1007 4 2 3 1 97 243 324 247
1008 4 2 3 1 324 243 97 312
1009 4 2 3 1 324 24 97 247
1010 4 2 3 1 97 24 324 312
1011 4 2 3 1 199 122 12 155
1012 4 2 3 1 199 12 122 233
1013 4 2 3 1 246 237 316 245
1014 4 2 3 1 246 316 237 325
1015 4 2 3 1 251 321 322 252
1016 4 2 3 1 322 321 251 317
1017 4 2 3 1 130 24 254 327
1018 4 2 3 1 254 24 130 247
1019 4 2 3 1 299 146 148 121
1020 4 2 3 1 148 146 299 161
1021 4 2 3 1 115 145 150 157
1022 4 2 3 1 115 150 145 290
1023 4 2 3 1 298 140 149 160
1024 4 2 3 1 298 149 140 118
1025 4 2 3 1 320 244 251 246
1026 4 2 3 1 251 244 320 321
1027 4 2 3 1 258 317 240 251
1028 4 2 3 1 240 317 258 326
$EndElements
