$MeshFormat
2.2 0 8
$EndMeshFormat
$PhysicalNames
3
2 1 "Fixed"
2 2 "Load"
3 3 "Volume"
$EndPhysicalNames
$Nodes
371
1 95 12 -40
2 55.344086021505 104.2 -40
3 95 12 40
4 55.344086021505 104.2 40
5 55.316088890274 104.26509333011 39.934906669888
6 55.316088890274 104.26509333011 -39.93490666988
7 1.110223024625e-16 104.2 -40
8 0 0 -40
9 100 0 -40
10 100 18 -40
11 95 18 -40
12 54.2 105 -39.2
13 0.8 105 -39.2
14 95 18 40
15 54.2 105 39.2
16 -1.110223024625e-16 104.2 40
17 0 0 40
18 100 0 40
19 100 18 40
20 0.8 105 39.2
21 89.33486943163855 25.1714285714264 -40
22 83.66973886327709 38.3428571428528 -40
23 78.00460829491566 51.51428571427916 -40
24 72.33947772655421 64.68571428570553 -40
25 66.67434715819276 77.85714285713193 -40
26 61.00921658983128 91.02857142855838 -40
27 95 12 -24.00000000000003
28 95 12 -8.000000000000068
29 95 12 7.999999999999901
30 95 12 23.99999999999986
31 89.33486943163855 25.1714285714264 40
32 83.66973886327709 38.3428571428528 40
33 78.00460829491566 51.51428571427916 40
34 72.33947772655421 64.68571428570553 40
35 66.67434715819276 77.85714285713193 40
36 61.00921658983128 91.02857142855838 40
37 55.316088890274 104.26509333011 -23.96094400192635
38 55.316088890274 104.26509333011 -7.9869813339727
39 55.316088890274 104.26509333011 7.986981333980872
40 55.316088890274 104.26509333011 23.96094400193443
41 41.50806451612875 104.2 -40
42 27.6720430107525 104.2 -40
43 13.83602150537625 104.2 -40
44 0 89.31428571428573 -40
45 0 74.42857142857146 -40
46 0 59.54285714285721 -40
47 0 44.65714285714299 -40
48 0 29.77142857142869 -40
49 0 14.88571428571434 -40
50 14.28571428571431 0 -40
51 28.57142857142864 0 -40
52 42.85714285714297 0 -40
53 57.14285714285731 0 -40
54 71.4285714285716 0 -40
55 85.71428571428579 0 -40
56 100 9.000000000000021 -40
57 40.85000000000004 105 -39.2
58 27.50000000000003 105 -39.2
59 14.15000000000002 105 -39.2
60 95 18 -24.00000000000003
61 95 18 -8.000000000000068
62 95 18 7.999999999999901
63 95 18 23.99999999999986
64 54.2 105 -23.51999999999998
65 54.2 105 -7.839999999999954
66 54.2 105 7.840000000000046
67 54.2 105 23.52000000000006
68 41.50806451612875 104.2 40
69 27.6720430107525 104.2 40
70 13.83602150537625 104.2 40
71 0 89.31428571428573 40
72 0 74.42857142857146 40
73 0 59.54285714285721 40
74 0 44.65714285714299 40
75 0 29.77142857142869 40
76 0 14.88571428571434 40
77 14.28571428571431 0 40
78 28.57142857142864 0 40
79 42.85714285714297 0 40
80 57.14285714285731 0 40
81 71.4285714285716 0 40
82 85.71428571428579 0 40
83 100 9.000000000000021 40
84 40.85000000000004 105 39.2
85 27.50000000000003 105 39.2
86 14.15000000000002 105 39.2
87 0 104.2 -24.00000000000003
88 0 104.2 -8.000000000000068
89 0 104.2 7.999999999999901
90 0 104.2 23.99999999999986
91 0 0 -24.00000000000003
92 0 0 -8.000000000000068
93 0 0 7.999999999999901
94 0 0 23.99999999999986
95 100 18 -24.00000000000003
96 100 18 -8.000000000000068
97 100 18 7.999999999999901
98 100 18 23.99999999999986
99 100 0 -24.00000000000003
100 100 0 -8.000000000000068
101 100 0 7.999999999999901
102 100 0 23.99999999999986
103 0.8 105 -23.51999999999998
104 0.8 105 -7.839999999999954
105 0.8 105 7.840000000000046
106 0.8 105 23.52000000000006
107 74.95644274433687 58.60127061936731 -27.13607565331668
108 81.06375859375613 44.40176126948259 28.23007781980223
109 69.42925053246881 71.45199251194691 28.57983068353084
110 60.7819997099474 91.55685067428786 4.085620730620576e-12
111 90.12273954616771 23.33963055514803 1.318738411314918
112 63.76812683947378 84.6141050981464 -28.72977494189463
113 86.55467363699535 31.63538379396499 -27.76686573864333
114 58.17665130565055 97.61428571427159 32.12486384682136
115 60.88793203670216 91.31055801458329 17.90552809890903
116 66.23086593715774 78.88823669603723 8.44939395095836
117 66.20956626369109 78.93775843684716 -5.526369220895447
118 71.30164427531014 67.09867705984544 2.622824326613461
119 71.76735512641872 66.01589933101914 -13.00611217519565
120 76.46167060022324 55.1016158544352 -3.282337320356653
121 75.81713846532274 56.60015306807728 10.85248294409536
122 81.2270844027459 44.02202876358177 5.552167008662082
123 81.36596517046473 43.69913097863585 -9.813025929681039
124 89.59282576697782 24.57168009176321 16.24351800648981
125 69.5069124423735 71.27142857141871 -27.582867632719
126 75.34136206438446 57.70633320025762 25.83172208919332
127 81.02105085839754 44.50105675419121 -25.32434375898321
128 60.89188355462521 91.30137073541222 -16.56693047909168
129 89.75081656121797 24.20435149515525 -15.01087496323966
130 86.413542104367 31.96351460732552 27.7125698552243
131 63.82090026126788 84.49140689247524 29.74732625707243
132 83.85524316227608 37.91155964768059 16.9523662969296
133 71.03999841508134 67.70700368487675 15.85974087211175
134 77.11449689996822 53.58379470752975 -15.71237896750664
135 58.17696713059236 97.61355142128188 -31.94792533590318
136 66.42876884531645 78.42811243456873 -18.28241088995928
137 85.70621300510724 33.60805476310272 -4.343973498552053
138 91.06824746059668 21.14132465410303 29.59121757234281
139 90.98298799860979 21.33955290322234 -29.313622877999
140 85.3004497266529 34.55145438550807 -16.61918513829456
141 79.46091733769707 48.12836718981597 17.48376323173651
142 86.10082117665496 32.69059076425527 7.144563244968872
143 66.28178943653559 78.76983955998389 20.10836397251649
144 64.26486515106562 52.65227235248942 -40
145 35.60068940687967 12.16248684544495 -40
146 53.56272394680528 79.74712868654491 -40
147 12.84441926082017 52.16667711361843 -40
148 64.28571428571445 12.3717914826348 -40
149 13.76987205849364 82.38224841335327 -40
150 34.14348828437778 92.62448613946333 -40
151 14.31048327125209 22.16848214011893 -40
152 85.57891465887081 13.08374666404432 -40
153 93.57277554828131 5.682014965718821 -40
154 74.64015796848743 25.56640103262613 -40
155 12.96210925766017 67.10079934146722 -40
156 25.62472464136763 59.65534654846906 -40
157 25.70582156293924 44.91931300377554 -40
158 38.35088532186901 52.40691307022662 -40
159 38.64499675550979 38.07973625307602 -40
160 37.80876654030259 66.29254146648823 -40
161 26.62641059951582 31.21555951800772 -40
162 51.02551025658832 45.23654530274181 -40
163 50.91348242770115 30.71126680428556 -40
164 62.844169226223 36.93634046707091 -40
165 13.24785578242122 37.48310053401539 -40
166 25.77974373394895 73.3071717104616 -40
167 50.02931384214573 58.98382876909717 -40
168 50.42972387519019 15.09932876764493 -40
169 21.11616005258548 93.68137921138801 -40
170 22.01405670381021 10.88585393137643 -40
171 47.11548677538705 91.9212388207678 -40
172 39.02124105132424 24.69095365344995 -40
173 39.15560046912721 79.78897070094104 -40
174 61.60242586447374 24.87152105947175 -40
175 59.98231231529572 67.34839852973238 -40
176 10.51406820143328 10.49233529858034 -40
177 9.814684741770108 94.38388155340674 -40
178 73.13202159920623 41.40039326225651 -40
179 75.12149839675577 10.06180929446004 -40
180 27.23284965015131 84.59946761994435 -40
181 27.51457620655641 20.2246672176796 -40
182 48.29134539090852 69.94538025992478 -40
183 64.26486515106562 52.6522723524894 40
184 35.60068940687967 12.16248684544495 40
185 53.56272394680528 79.74712868654491 40
186 12.84441926082017 52.16667711361843 40
187 64.28571428571445 12.3717914826348 40
188 13.76987205849364 82.38224841335327 40
189 34.14348828437778 92.62448613946333 40
190 14.31048327125209 22.16848214011893 40
191 85.57891465887081 13.08374666404432 40
192 93.5727755482813 5.682014965718821 40
193 74.64015796848742 25.56640103262611 40
194 12.96210925766017 67.10079934146722 40
195 25.62472464136764 59.65534654846905 40
196 25.70582156293924 44.91931300377554 40
197 38.35088532186901 52.40691307022659 40
198 38.64499675550979 38.079736253076 40
199 37.8087665403026 66.29254146648822 40
200 26.62641059951581 31.21555951800771 40
201 51.02551025658832 45.23654530274178 40
202 50.91348242770113 30.71126680428554 40
203 62.844169226223 36.93634046707088 40
204 13.24785578242122 37.48310053401538 40
205 25.77974373394896 73.3071717104616 40
206 50.02931384214574 58.98382876909715 40
207 50.42972387519018 15.09932876764492 40
208 21.11616005258548 93.68137921138802 40
209 22.01405670381021 10.88585393137642 40
210 47.11548677538705 91.9212388207678 40
211 39.02124105132422 24.69095365344994 40
212 39.15560046912722 79.78897070094104 40
213 61.60242586447373 24.87152105947171 40
214 59.98231231529572 67.34839852973238 40
215 10.51406820143328 10.49233529858034 40
216 9.814684741770108 94.38388155340675 40
217 73.13202159920621 41.40039326225649 40
218 75.12149839675577 10.06180929446003 40
219 27.23284965015132 84.59946761994436 40
220 27.5145762065564 20.22466721767959 40
221 48.29134539090854 69.94538025992476 40
222 0 52.49550076869718 -25.98044837619297
223 0 67.4151491770542 27.43615391525015
224 0 37.03457477657992 27.38835300760043
225 0 13.63834831773855 0.2188437597400537
226 0 91.21059083504457 -1.080772425973265
227 0 80.53853333052255 -26.38968213319363
228 0 22.63203893426581 -28.48766594943518
229 0 14.91190316580304 16.44968839312679
230 0 27.93625184132233 7.054896061859537
231 0 27.67283826763045 -6.817733559586564
232 0 40.79938845193179 0.03846936657670597
233 0 40.29367633746334 -14.46593516190599
234 0 53.65409387176243 -7.141237784684627
235 0 52.84302005022965 8.407113179669608
236 0 66.60082803741579 0.9594687331402199
237 0 66.26232490757866 -16.87466675128401
238 0 89.82334428499301 15.18858498750849
239 0 52.18859078319824 24.74140662703498
240 0 78.52950753011895 -9.382742064735947
241 0 14.47121866006142 -16.0019146032913
242 0 22.88721021055315 28.57489224857682
243 0 92.03191777929517 -16.30581147185669
244 0 81.42794857624241 27.36463656969549
245 0 74.42311334435732 14.47317817128625
246 0 36.7964314444948 -28.02680526299716
247 0 40.43939927940649 14.29521568285676
248 0 66.65355751564542 -29.84895945213412
249 0 62.69414027845104 15.20346412527624
250 0 79.67317931940374 3.682899183823096
251 0 93.26777061645036 28.75363761178424
252 0 10.70876778267015 29.31028261104092
253 0 10.53950734445247 -29.34710277014945
254 0 93.51287498008492 -28.98167220723717
255 0 28.37324072878316 -18.76001090744324
256 0 28.64186785473298 18.75260907880406
257 50.82818314313774 0 27.93823810827047
258 64.28571428571446 0 -27.6282085173652
259 35.72618722474844 0 -28.14607076155447
260 86.18589666752668 0 -0.3576946217389576
261 12.60761335204049 0 0.2086978459936262
262 78.01197864266915 0 28.39246703533384
263 21.16230405287016 0 28.10203428479771
264 85.50742759275528 0 -16.62791299518004
265 72.60177055466758 0 -7.285088273233647
266 72.56812596213814 0 6.568950436568898
267 59.9805468328433 0 -0.4181448162178469
268 58.78637432272622 0 14.97559976014678
269 46.75944006499726 0 6.305066416444902
270 48.8099560449574 0 -5.538306471838389
271 35.44449276497622 0 -1.876464073606179
272 35.09935237594068 0 12.87075818829193
273 13.75871824986376 0 -15.70023109990739
274 50.43678446680315 0 -28.12105471967128
275 64.28571428571448 0 27.72261266412865
276 85.43120428533001 0 16.37006340049025
277 13.24825352352789 0 16.23995691892773
278 21.8450304809466 0 -28.03373144173079
279 28.85109372934267 0 -15.83998700633871
280 58.62443286856124 0 -15.22461230044268
281 35.42910578841357 0 26.27145864677446
282 78.01721957951271 0 -28.75818790863688
283 24.15180357430996 0 6.690470107972317
284 42.90270225683511 0 -17.53216730944392
285 71.8166794997156 0 18.80593865933369
286 89.84778657731076 0 -29.87722018076339
287 10.11644539089119 0 29.3450104928267
288 89.83149372845699 0 29.7525060871648
289 10.02922710404661 0 -29.47865122711065
290 45.30676937432909 0 17.66161829153228
291 71.6906849938301 0 -19.08942645109778
292 24.14824487354372 0 -4.654204717435626
293 25.81816386301245 0 18.03493562935283
294 100 9 -16.00000000000005
295 100 9.000000000000004 -30.66666666666669
296 100 9 -8.526512829121202e-14
297 100 9 15.99999999999989
298 100 9.000000000000002 30.6666666666666
299 14.37927833134 105 4.263256414560601e-14
300 40.4459840506 105 16.40467763684553
301 40.44555602407001 105 -16.40722612133204
302 21.20326708693852 105 28.12420082612084
303 21.20326708693852 105 -28.12466620622595
304 40.67061865241116 105 -0.003100108664611412
305 27.38512630551007 105 7.020961146436896
306 27.36591768221977 105 -7.159405060228373
307 34.17500000000004 105 27.63856085947774
308 34.17500000000004 105 -27.63856085947776
309 14.589734120306 105 -16.37871331494362
310 14.59247820934747 105 16.35847023286834
311 44.77419681012002 105 29.19264769926467
312 44.77411120481402 105 -29.19315739616196
313 10.30914905925719 105 29.28053421179786
314 10.3086002414489 105 -29.28467590423391
315 27.56037113047922 105 19.10937414034986
316 27.55589498270687 105 -19.14171431244155
317 38.73561148742627 45.24820361284345 -1.637851094954989
318 33.94801633695113 73.4932291100554 10.12744634536188
319 58.24841859137524 27.91818929552833 9.858615029704271
320 29.76528578531427 25.9378774807704 14.20652113180988
321 32.23296357104721 79.8117457084619 -14.98673184446279
322 25.38221540771311 25.58368491330184 -14.81379158429836
323 60.21133368665693 30.74368046886979 -15.31719910712287
324 52.90644171326512 51.76796505929993 16.81396896744791
325 22.71544978836998 49.1189344773476 16.23845147878794
326 22.74748516111404 57.2435904794733 -15.79555712125672
327 48.60310262170398 64.37625543929195 -17.99593708577689
328 43.99907544085001 21.04529132322623 -4.846712395217639
329 20.42098911133931 85.97096409946211 20.82367683677128
330 42.71274853625394 45.3298471560303 -21.53681856413723
331 19.61235712095649 36.78001893234618 0.76432072947925
332 19.62779264098345 84.42442628264389 0.4450824551051262
333 49.31012167003961 70.06134560761505 20.93416742021958
334 58.93113386939793 45.26123640488753 -1.333143949502735
335 51.46910606806096 64.83764806997176 1.77121261828112
336 44.97429217590834 34.93634734710567 22.01776080970187
337 17.85117410078283 87.76644414800812 -23.0064171523649
338 71.44199480311855 19.41602523374336 21.63977922867338
339 71.01274164561137 19.41706021665238 -2.923240117846222
340 42.61288088861192 88.18326019315658 23.03034861132505
341 18.71309968151346 17.88451463062752 1.130759090462051
342 21.148454221389 66.5329681742128 23.10344639340499
343 41.89664530406491 16.6189225578191 23.72035270762115
344 42.15274983266514 27.01204331480402 -22.08459352789004
345 19.20331684374659 62.87891331086988 2.677494825009608
346 73.07617388414546 18.56882870407657 -21.57604102381861
347 60.92718136367838 47.77259226767766 -22.22437073883193
348 46.69310331172569 83.90331244720346 -24.26765771865286
349 19.71269359334361 40.8060765137098 -23.21753185785677
350 64.58906860421976 39.25628128596585 22.26968564471405
351 18.50175541646487 16.75896251507369 23.91854220379388
352 37.09201325758358 57.25115865593052 22.90560986572685
353 16.30944270885897 33.92509433440957 21.87486960841239
354 47.01635566193015 83.45664887193925 -2.583575716857033
355 35.1587779427231 64.95059296653895 -5.514985089610237
356 15.43484682295094 15.12601870482085 -24.64879032021606
357 55.20689468849217 15.56862650713167 -22.10219162118693
358 15.37680590807774 70.77212201051714 -23.39367348628157
359 33.54174687841326 66.29892934422733 -24.1730956319522
360 42.34326917698538 32.05944390266485 6.559532572364704
361 31.02582588498866 15.66019142478164 -25.47800782568771
362 38.89324655811166 14.55832195087672 8.476207276798421
363 56.01738248212916 23.87186968243055 25.10915638272725
364 37.16427329303276 92.21453578240289 7.167201105725926
365 32.79347248306286 90.19572954652611 -27.22267444581614
366 34.93729004995405 73.2392533750476 26.26650127259373
367 30.51567847734126 38.3596306191692 26.7100213949936
368 54.05837740315842 13.7528188707638 4.676744668050364
369 33.442893493677 56.67824035371774 7.679644580053065
370 71.33094884884434 32.73938613736727 4.125295955217671
371 46.61288907746246 35.18134763790123 -9.984084266177877
$EndNodes
$Elements
1288
1 2 2 1 8 7 44 254
2 2 2 1 8 87 7 254
3 2 2 1 8 49 8 253
4 2 2 1 8 8 91 253
5 2 2 1 8 71 16 251
6 2 2 1 8 16 90 251
7 2 2 1 8 17 76 252
8 2 2 1 8 94 17 252
9 2 2 1 8 44 45 227
10 2 2 1 8 44 227 254
11 2 2 1 8 45 46 248
12 2 2 1 8 227 45 248
13 2 2 1 8 46 47 222
14 2 2 1 8 46 222 248
15 2 2 1 8 47 48 246
16 2 2 1 8 222 47 246
17 2 2 1 8 48 49 228
18 2 2 1 8 48 228 246
19 2 2 1 8 228 49 253
20 2 2 1 8 72 71 244
21 2 2 1 8 244 71 251
22 2 2 1 8 73 72 223
23 2 2 1 8 223 72 244
24 2 2 1 8 74 73 239
25 2 2 1 8 73 223 239
26 2 2 1 8 75 74 224
27 2 2 1 8 224 74 239
28 2 2 1 8 76 75 242
29 2 2 1 8 75 224 242
30 2 2 1 8 76 242 252
31 2 2 1 8 88 87 243
32 2 2 1 8 243 87 254
33 2 2 1 8 89 88 226
34 2 2 1 8 226 88 243
35 2 2 1 8 90 89 238
36 2 2 1 8 89 226 238
37 2 2 1 8 90 238 251
38 2 2 1 8 91 92 241
39 2 2 1 8 91 241 253
40 2 2 1 8 92 93 225
41 2 2 1 8 92 225 241
42 2 2 1 8 93 94 229
43 2 2 1 8 225 93 229
44 2 2 1 8 229 94 252
45 2 2 1 8 222 233 234
46 2 2 1 8 233 222 246
47 2 2 1 8 222 234 237
48 2 2 1 8 222 237 248
49 2 2 1 8 239 223 249
50 2 2 1 8 223 244 245
51 2 2 1 8 223 245 249
52 2 2 1 8 224 239 247
53 2 2 1 8 242 224 256
54 2 2 1 8 224 247 256
55 2 2 1 8 225 229 230
56 2 2 1 8 225 230 231
57 2 2 1 8 225 231 241
58 2 2 1 8 238 226 250
59 2 2 1 8 240 226 243
60 2 2 1 8 226 240 250
61 2 2 1 8 227 237 240
62 2 2 1 8 237 227 248
63 2 2 1 8 227 240 243
64 2 2 1 8 227 243 254
65 2 2 1 8 241 228 253
66 2 2 1 8 228 241 255
67 2 2 1 8 246 228 255
68 2 2 1 8 230 229 256
69 2 2 1 8 242 229 252
70 2 2 1 8 229 242 256
71 2 2 1 8 231 230 232
72 2 2 1 8 232 230 247
73 2 2 1 8 247 230 256
74 2 2 1 8 231 232 233
75 2 2 1 8 231 233 255
76 2 2 1 8 241 231 255
77 2 2 1 8 233 232 234
78 2 2 1 8 234 232 235
79 2 2 1 8 235 232 247
80 2 2 1 8 233 246 255
81 2 2 1 8 234 235 236
82 2 2 1 8 234 236 237
83 2 2 1 8 236 235 249
84 2 2 1 8 239 235 247
85 2 2 1 8 235 239 249
86 2 2 1 8 237 236 240
87 2 2 1 8 240 236 250
88 2 2 1 8 245 236 249
89 2 2 1 8 236 245 250
90 2 2 1 8 244 238 245
91 2 2 1 8 238 244 251
92 2 2 1 8 245 238 250
93 2 2 2 11 9 56 295
94 2 2 2 11 99 9 295
95 2 2 2 11 56 10 295
96 2 2 2 11 10 95 295
97 2 2 2 11 83 18 298
98 2 2 2 11 18 102 298
99 2 2 2 11 19 83 298
100 2 2 2 11 98 19 298
101 2 2 2 11 95 96 294
102 2 2 2 11 95 294 295
103 2 2 2 11 96 97 296
104 2 2 2 11 294 96 296
105 2 2 2 11 97 98 297
106 2 2 2 11 296 97 297
107 2 2 2 11 297 98 298
108 2 2 2 11 100 99 294
109 2 2 2 11 294 99 295
110 2 2 2 11 101 100 296
111 2 2 2 11 100 294 296
112 2 2 2 11 102 101 297
113 2 2 2 11 101 296 297
114 2 2 2 11 102 297 298
115 4 2 3 1 322 317 330 349
116 4 2 3 1 320 341 331 360
117 4 2 3 1 320 328 341 360
118 4 2 3 1 328 322 341 360
119 4 2 3 1 214 109 324 333
120 4 2 3 1 331 341 322 360
121 4 2 3 1 317 322 331 349
122 4 2 3 1 321 345 332 358
123 4 2 3 1 245 332 329 342
124 4 2 3 1 279 322 328 361
125 4 2 3 1 158 326 330 359
126 4 2 3 1 156 326 158 359
127 4 2 3 1 332 342 245 345
128 4 2 3 1 233 326 331 349
129 4 2 3 1 214 109 183 324
130 4 2 3 1 322 330 317 371
131 4 2 3 1 164 127 323 346
132 4 2 3 1 327 334 119 335
133 4 2 3 1 266 338 29 339
134 4 2 3 1 271 328 322 341
135 4 2 3 1 279 322 271 328
136 4 2 3 1 29 338 124 339
137 4 2 3 1 271 322 292 341
138 4 2 3 1 317 331 326 349
139 4 2 3 1 317 330 327 334
140 4 2 3 1 336 367 352 369
141 4 2 3 1 119 334 327 347
142 4 2 3 1 271 279 292 322
143 4 2 3 1 183 109 126 324
144 4 2 3 1 306 321 354 364
145 4 2 3 1 322 317 331 360
146 4 2 3 1 317 334 327 335
147 4 2 3 1 233 322 255 349
148 4 2 3 1 240 332 345 358
149 4 2 3 1 164 154 127 346
150 4 2 3 1 321 326 345 358
151 4 2 3 1 214 324 206 333
152 4 2 3 1 301 348 321 365
153 4 2 3 1 127 154 113 346
154 4 2 3 1 29 124 111 339
155 4 2 3 1 322 317 360 371
156 4 2 3 1 255 233 231 322
157 4 2 3 1 326 330 317 349
158 4 2 3 1 233 331 322 349
159 4 2 3 1 320 331 325 360
160 4 2 3 1 220 343 320 367
161 4 2 3 1 109 133 324 333
162 4 2 3 1 255 228 349 356
163 4 2 3 1 324 336 352 369
164 4 2 3 1 159 344 330 349
165 4 2 3 1 292 341 322 356
166 4 2 3 1 283 341 320 362
167 4 2 3 1 323 330 163 344
168 4 2 3 1 136 348 327 354
169 4 2 3 1 121 334 324 335
170 4 2 3 1 352 367 325 369
171 4 2 3 1 233 231 322 331
172 4 2 3 1 127 140 323 346
173 4 2 3 1 322 360 328 371
174 4 2 3 1 164 178 127 154
175 4 2 3 1 321 345 326 355
176 4 2 3 1 206 214 183 324
177 4 2 3 1 292 322 279 356
178 4 2 3 1 317 325 360 369
179 4 2 3 1 161 344 159 349
180 4 2 3 1 127 113 140 346
181 4 2 3 1 163 330 323 347
182 4 2 3 1 301 321 348 354
183 4 2 3 1 231 255 322 356
184 4 2 3 1 276 29 266 338
185 4 2 3 1 320 360 325 367
186 4 2 3 1 112 125 136 348
187 4 2 3 1 256 351 230 353
188 4 2 3 1 327 334 330 347
189 4 2 3 1 333 340 115 354
190 4 2 3 1 317 325 331 360
191 4 2 3 1 304 306 354 364
192 4 2 3 1 320 341 328 362
193 4 2 3 1 323 328 357 368
194 4 2 3 1 118 334 121 335
195 4 2 3 1 293 351 343 362
196 4 2 3 1 164 323 127 347
197 4 2 3 1 220 211 343 367
198 4 2 3 1 174 164 323 346
199 4 2 3 1 321 332 306 337
200 4 2 3 1 234 233 326 331
201 4 2 3 1 126 109 133 324
202 4 2 3 1 151 349 228 356
203 4 2 3 1 140 137 123 323
204 4 2 3 1 329 332 318 342
205 4 2 3 1 306 332 321 364
206 4 2 3 1 220 320 351 367
207 4 2 3 1 125 327 136 348
208 4 2 3 1 255 349 322 356
209 4 2 3 1 292 273 341 356
210 4 2 3 1 234 331 326 345
211 4 2 3 1 121 350 334 370
212 4 2 3 1 140 137 323 339
213 4 2 3 1 230 351 341 353
214 4 2 3 1 243 309 332 337
215 4 2 3 1 324 334 121 350
216 4 2 3 1 175 125 327 347
217 4 2 3 1 318 342 332 345
218 4 2 3 1 325 331 235 345
219 4 2 3 1 271 328 341 362
220 4 2 3 1 320 343 220 351
221 4 2 3 1 228 246 255 349
222 4 2 3 1 166 180 337 365
223 4 2 3 1 301 321 306 365
224 4 2 3 1 280 339 357 368
225 4 2 3 1 323 357 339 368
226 4 2 3 1 166 337 321 365
227 4 2 3 1 270 357 328 368
228 4 2 3 1 116 333 115 354
229 4 2 3 1 118 119 334 335
230 4 2 3 1 161 322 349 356
231 4 2 3 1 134 120 119 334
232 4 2 3 1 134 334 119 347
233 4 2 3 1 332 337 321 358
234 4 2 3 1 161 322 344 349
235 4 2 3 1 324 336 201 352
236 4 2 3 1 279 328 284 361
237 4 2 3 1 186 325 196 353
238 4 2 3 1 197 201 336 352
239 4 2 3 1 322 344 330 371
240 4 2 3 1 162 330 163 347
241 4 2 3 1 321 359 166 365
242 4 2 3 1 231 241 255 356
243 4 2 3 1 121 334 122 370
244 4 2 3 1 128 301 348 354
245 4 2 3 1 321 332 345 355
246 4 2 3 1 226 243 309 332
247 4 2 3 1 266 338 339 368
248 4 2 3 1 292 279 273 356
249 4 2 3 1 317 335 327 355
250 4 2 3 1 167 175 327 347
251 4 2 3 1 239 325 186 353
252 4 2 3 1 120 118 119 334
253 4 2 3 1 330 344 322 349
254 4 2 3 1 324 333 133 335
255 4 2 3 1 174 154 164 346
256 4 2 3 1 250 332 245 345
257 4 2 3 1 234 235 232 331
258 4 2 3 1 280 357 270 368
259 4 2 3 1 186 195 196 325
260 4 2 3 1 189 329 307 340
261 4 2 3 1 240 337 332 358
262 4 2 3 1 186 325 239 342
263 4 2 3 1 123 323 137 370
264 4 2 3 1 158 330 327 359
265 4 2 3 1 328 344 284 361
266 4 2 3 1 321 358 166 359
267 4 2 3 1 147 326 156 358
268 4 2 3 1 319 328 323 368
269 4 2 3 1 240 345 237 358
270 4 2 3 1 230 341 331 353
271 4 2 3 1 116 335 333 354
272 4 2 3 1 318 340 333 354
273 4 2 3 1 276 124 29 338
274 4 2 3 1 117 136 327 354
275 4 2 3 1 181 161 356 361
276 4 2 3 1 280 267 339 368
277 4 2 3 1 256 229 230 351
278 4 2 3 1 323 339 137 370
279 4 2 3 1 140 339 323 346
280 4 2 3 1 195 325 186 342
281 4 2 3 1 197 352 336 367
282 4 2 3 1 166 321 337 358
283 4 2 3 1 204 224 186 353
284 4 2 3 1 234 235 331 345
285 4 2 3 1 161 349 151 356
286 4 2 3 1 147 156 326 349
287 4 2 3 1 322 356 161 361
288 4 2 3 1 343 351 320 362
289 4 2 3 1 327 330 317 355
290 4 2 3 1 322 331 231 341
291 4 2 3 1 173 180 166 365
292 4 2 3 1 326 317 330 355
293 4 2 3 1 124 339 338 370
294 4 2 3 1 167 327 158 330
295 4 2 3 1 196 325 195 352
296 4 2 3 1 123 323 334 347
297 4 2 3 1 284 344 328 357
298 4 2 3 1 161 344 322 361
299 4 2 3 1 158 327 167 359
300 4 2 3 1 319 324 334 360
301 4 2 3 1 163 323 164 347
302 4 2 3 1 273 241 341 356
303 4 2 3 1 140 123 127 323
304 4 2 3 1 309 299 226 332
305 4 2 3 1 247 235 325 331
306 4 2 3 1 220 351 200 367
307 4 2 3 1 268 343 363 368
308 4 2 3 1 123 334 134 347
309 4 2 3 1 197 336 198 367
310 4 2 3 1 115 354 340 364
311 4 2 3 1 186 196 204 353
312 4 2 3 1 317 330 334 371
313 4 2 3 1 249 342 325 345
314 4 2 3 1 266 268 338 368
315 4 2 3 1 127 178 164 347
316 4 2 3 1 38 65 301 354
317 4 2 3 1 229 341 230 351
318 4 2 3 1 259 274 145 361
319 4 2 3 1 341 351 320 353
320 4 2 3 1 29 260 266 339
321 4 2 3 1 331 341 320 353
322 4 2 3 1 326 355 330 359
323 4 2 3 1 319 323 339 368
324 4 2 3 1 275 338 268 363
325 4 2 3 1 250 329 245 332
326 4 2 3 1 128 348 136 354
327 4 2 3 1 194 223 244 342
328 4 2 3 1 306 332 309 337
329 4 2 3 1 198 197 201 336
330 4 2 3 1 330 355 327 359
331 4 2 3 1 147 157 156 349
332 4 2 3 1 284 344 357 361
333 4 2 3 1 268 363 338 368
334 4 2 3 1 188 194 244 342
335 4 2 3 1 128 38 301 354
336 4 2 3 1 320 328 360 362
337 4 2 3 1 264 339 28 346
338 4 2 3 1 237 345 326 358
339 4 2 3 1 183 324 126 350
340 4 2 3 1 194 186 223 342
341 4 2 3 1 188 244 329 342
342 4 2 3 1 173 166 359 365
343 4 2 3 1 275 268 257 363
344 4 2 3 1 281 343 293 351
345 4 2 3 1 123 334 323 370
346 4 2 3 1 319 336 324 360
347 4 2 3 1 302 315 307 329
348 4 2 3 1 264 265 339 346
349 4 2 3 1 266 268 285 338
350 4 2 3 1 290 343 268 368
351 4 2 3 1 244 245 329 342
352 4 2 3 1 239 325 249 342
353 4 2 3 1 279 356 322 361
354 4 2 3 1 240 243 332 337
355 4 2 3 1 186 224 239 353
356 4 2 3 1 317 324 334 335
357 4 2 3 1 266 285 276 338
358 4 2 3 1 125 119 327 347
359 4 2 3 1 317 334 324 360
360 4 2 3 1 163 174 323 357
361 4 2 3 1 175 107 125 347
362 4 2 3 1 272 293 343 362
363 4 2 3 1 245 342 249 345
364 4 2 3 1 325 196 353 367
365 4 2 3 1 307 329 315 340
366 4 2 3 1 310 329 238 332
367 4 2 3 1 268 343 257 363
368 4 2 3 1 327 348 182 359
369 4 2 3 1 201 324 183 350
370 4 2 3 1 28 339 129 346
371 4 2 3 1 131 333 185 340
372 4 2 3 1 265 291 280 346
373 4 2 3 1 189 219 208 329
374 4 2 3 1 147 155 248 358
375 4 2 3 1 324 333 335 369
376 4 2 3 1 201 206 324 352
377 4 2 3 1 316 301 306 365
378 4 2 3 1 325 331 345 369
379 4 2 3 1 163 323 344 357
380 4 2 3 1 339 346 280 357
381 4 2 3 1 247 232 235 331
382 4 2 3 1 319 323 328 371
383 4 2 3 1 222 326 147 358
384 4 2 3 1 327 330 167 347
385 4 2 3 1 127 323 123 347
386 4 2 3 1 184 220 343 351
387 4 2 3 1 201 336 324 350
388 4 2 3 1 324 352 333 369
389 4 2 3 1 319 339 338 368
390 4 2 3 1 263 209 281 351
391 4 2 3 1 196 325 352 367
392 4 2 3 1 277 293 283 351
393 4 2 3 1 321 318 332 355
394 4 2 3 1 168 274 357 361
395 4 2 3 1 324 335 317 369
396 4 2 3 1 234 232 233 331
397 4 2 3 1 262 191 138 338
398 4 2 3 1 184 281 209 351
399 4 2 3 1 167 144 175 347
400 4 2 3 1 168 145 274 361
401 4 2 3 1 302 208 313 329
402 4 2 3 1 235 249 325 345
403 4 2 3 1 327 335 117 354
404 4 2 3 1 184 343 281 351
405 4 2 3 1 138 30 262 338
406 4 2 3 1 107 175 144 347
407 4 2 3 1 321 332 318 354
408 4 2 3 1 244 223 245 342
409 4 2 3 1 147 156 155 358
410 4 2 3 1 279 271 284 328
411 4 2 3 1 247 331 325 353
412 4 2 3 1 216 313 208 329
413 4 2 3 1 273 225 261 341
414 4 2 3 1 220 200 211 367
415 4 2 3 1 239 223 186 342
416 4 2 3 1 115 340 39 364
417 4 2 3 1 290 257 268 343
418 4 2 3 1 238 329 250 332
419 4 2 3 1 264 265 28 339
420 4 2 3 1 325 342 195 352
421 4 2 3 1 317 355 326 369
422 4 2 3 1 319 334 324 350
423 4 2 3 1 183 201 206 324
424 4 2 3 1 173 359 348 365
425 4 2 3 1 219 329 189 340
426 4 2 3 1 301 65 304 354
427 4 2 3 1 126 324 121 350
428 4 2 3 1 163 174 164 323
429 4 2 3 1 173 182 348 359
430 4 2 3 1 29 111 260 339
431 4 2 3 1 162 163 164 347
432 4 2 3 1 250 238 245 329
433 4 2 3 1 273 241 225 341
434 4 2 3 1 206 333 324 352
435 4 2 3 1 157 161 159 349
436 4 2 3 1 321 327 348 354
437 4 2 3 1 217 108 130 350
438 4 2 3 1 151 181 161 356
439 4 2 3 1 147 326 222 349
440 4 2 3 1 193 130 338 350
441 4 2 3 1 126 121 141 350
442 4 2 3 1 265 280 339 346
443 4 2 3 1 116 133 333 335
444 4 2 3 1 221 212 185 333
445 4 2 3 1 330 347 334 371
446 4 2 3 1 277 283 341 351
447 4 2 3 1 319 334 323 371
448 4 2 3 1 39 340 300 364
449 4 2 3 1 174 346 323 357
450 4 2 3 1 187 275 257 363
451 4 2 3 1 280 270 267 368
452 4 2 3 1 184 209 220 351
453 4 2 3 1 333 335 318 354
454 4 2 3 1 117 327 119 335
455 4 2 3 1 222 326 233 349
456 4 2 3 1 133 121 126 324
457 4 2 3 1 343 360 319 362
458 4 2 3 1 132 338 130 350
459 4 2 3 1 201 197 206 352
460 4 2 3 1 240 236 237 345
461 4 2 3 1 305 329 310 332
462 4 2 3 1 348 359 321 365
463 4 2 3 1 324 336 319 350
464 4 2 3 1 318 335 333 369
465 4 2 3 1 229 277 341 351
466 4 2 3 1 185 131 109 333
467 4 2 3 1 270 284 328 357
468 4 2 3 1 282 27 139 346
469 4 2 3 1 216 251 313 329
470 4 2 3 1 211 336 343 367
471 4 2 3 1 132 338 350 370
472 4 2 3 1 118 120 121 334
473 4 2 3 1 123 120 134 334
474 4 2 3 1 323 334 319 370
475 4 2 3 1 306 299 309 332
476 4 2 3 1 28 265 260 339
477 4 2 3 1 213 350 338 363
478 4 2 3 1 338 363 319 368
479 4 2 3 1 320 336 360 367
480 4 2 3 1 185 333 212 340
481 4 2 3 1 319 343 336 360
482 4 2 3 1 168 357 344 361
483 4 2 3 1 201 202 336 350
484 4 2 3 1 199 221 206 333
485 4 2 3 1 116 143 115 333
486 4 2 3 1 125 107 119 347
487 4 2 3 1 39 300 66 364
488 4 2 3 1 249 239 235 325
489 4 2 3 1 167 330 162 347
490 4 2 3 1 226 240 243 332
491 4 2 3 1 261 225 277 341
492 4 2 3 1 318 321 354 355
493 4 2 3 1 284 274 259 361
494 4 2 3 1 158 167 160 359
495 4 2 3 1 283 293 272 362
496 4 2 3 1 316 306 309 337
497 4 2 3 1 343 362 319 368
498 4 2 3 1 322 344 328 361
499 4 2 3 1 332 354 321 364
500 4 2 3 1 325 331 320 353
501 4 2 3 1 117 128 136 354
502 4 2 3 1 175 182 167 327
503 4 2 3 1 139 152 282 346
504 4 2 3 1 217 130 193 350
505 4 2 3 1 163 330 159 344
506 4 2 3 1 318 354 332 364
507 4 2 3 1 187 338 275 363
508 4 2 3 1 325 317 331 369
509 4 2 3 1 351 353 200 367
510 4 2 3 1 284 357 274 361
511 4 2 3 1 320 343 336 367
512 4 2 3 1 320 353 351 367
513 4 2 3 1 214 185 109 333
514 4 2 3 1 230 331 247 353
515 4 2 3 1 276 262 30 338
516 4 2 3 1 222 147 248 358
517 4 2 3 1 264 28 129 346
518 4 2 3 1 336 343 319 363
519 4 2 3 1 326 355 345 369
520 4 2 3 1 173 160 182 359
521 4 2 3 1 221 212 333 366
522 4 2 3 1 119 117 136 327
523 4 2 3 1 305 329 332 364
524 4 2 3 1 281 272 293 343
525 4 2 3 1 318 345 332 355
526 4 2 3 1 161 165 151 349
527 4 2 3 1 262 218 191 338
528 4 2 3 1 193 338 213 350
529 4 2 3 1 334 350 319 370
530 4 2 3 1 281 293 263 351
531 4 2 3 1 239 247 325 353
532 4 2 3 1 277 225 229 341
533 4 2 3 1 323 319 339 370
534 4 2 3 1 340 354 318 364
535 4 2 3 1 85 208 302 307
536 4 2 3 1 305 310 299 332
537 4 2 3 1 131 115 143 333
538 4 2 3 1 156 358 326 359
539 4 2 3 1 115 333 131 340
540 4 2 3 1 321 327 354 355
541 4 2 3 1 246 165 147 349
542 4 2 3 1 267 265 280 339
543 4 2 3 1 140 129 339 346
544 4 2 3 1 343 319 363 368
545 4 2 3 1 234 326 237 345
546 4 2 3 1 212 340 333 366
547 4 2 3 1 310 313 251 329
548 4 2 3 1 139 27 282 152
549 4 2 3 1 172 344 161 361
550 4 2 3 1 124 276 30 338
551 4 2 3 1 315 340 329 364
552 4 2 3 1 285 262 276 338
553 4 2 3 1 208 85 69 307
554 4 2 3 1 206 199 333 352
555 4 2 3 1 162 159 163 330
556 4 2 3 1 219 329 340 366
557 4 2 3 1 318 333 352 369
558 4 2 3 1 134 127 123 347
559 4 2 3 1 290 362 343 368
560 4 2 3 1 283 271 341 362
561 4 2 3 1 223 239 249 342
562 4 2 3 1 336 350 202 363
563 4 2 3 1 172 168 344 361
564 4 2 3 1 196 195 197 352
565 4 2 3 1 326 358 321 359
566 4 2 3 1 285 268 275 338
567 4 2 3 1 140 129 137 339
568 4 2 3 1 236 250 245 345
569 4 2 3 1 159 161 172 344
570 4 2 3 1 189 208 69 307
571 4 2 3 1 201 203 202 350
572 4 2 3 1 319 360 334 371
573 4 2 3 1 264 291 265 346
574 4 2 3 1 125 119 136 327
575 4 2 3 1 323 330 344 371
576 4 2 3 1 122 120 123 334
577 4 2 3 1 207 187 257 363
578 4 2 3 1 116 133 143 333
579 4 2 3 1 216 188 251 329
580 4 2 3 1 28 260 111 339
581 4 2 3 1 196 352 197 367
582 4 2 3 1 122 334 123 370
583 4 2 3 1 222 234 233 326
584 4 2 3 1 231 331 230 341
585 4 2 3 1 233 232 231 331
586 4 2 3 1 30 138 262 191
587 4 2 3 1 338 339 319 370
588 4 2 3 1 205 188 329 342
589 4 2 3 1 319 328 360 371
590 4 2 3 1 221 185 214 333
591 4 2 3 1 247 235 239 325
592 4 2 3 1 131 143 109 333
593 4 2 3 1 121 120 122 334
594 4 2 3 1 320 325 353 367
595 4 2 3 1 271 270 284 328
596 4 2 3 1 323 346 339 357
597 4 2 3 1 231 225 241 341
598 4 2 3 1 108 132 130 350
599 4 2 3 1 172 145 168 361
600 4 2 3 1 271 292 283 341
601 4 2 3 1 326 321 355 359
602 4 2 3 1 264 28 265 260
603 4 2 3 1 218 262 275 338
604 4 2 3 1 301 64 128 348
605 4 2 3 1 312 348 301 365
606 4 2 3 1 322 328 344 371
607 4 2 3 1 315 310 305 329
608 4 2 3 1 315 329 305 364
609 4 2 3 1 116 115 110 354
610 4 2 3 1 104 226 309 299
611 4 2 3 1 280 346 291 357
612 4 2 3 1 27 282 264 346
613 4 2 3 1 312 64 301 348
614 4 2 3 1 270 328 362 368
615 4 2 3 1 266 29 276 260
616 4 2 3 1 219 205 329 366
617 4 2 3 1 321 348 327 359
618 4 2 3 1 172 161 181 361
619 4 2 3 1 141 132 350 370
620 4 2 3 1 307 311 189 340
621 4 2 3 1 335 354 327 355
622 4 2 3 1 204 242 224 353
623 4 2 3 1 129 27 264 346
624 4 2 3 1 199 333 352 366
625 4 2 3 1 115 300 39 340
626 4 2 3 1 251 188 244 329
627 4 2 3 1 108 183 126 350
628 4 2 3 1 292 273 261 341
629 4 2 3 1 245 223 249 342
630 4 2 3 1 317 335 355 369
631 4 2 3 1 108 217 183 350
632 4 2 3 1 261 273 92 225
633 4 2 3 1 230 232 247 331
634 4 2 3 1 193 213 203 350
635 4 2 3 1 211 343 336 363
636 4 2 3 1 319 350 338 370
637 4 2 3 1 109 143 133 333
638 4 2 3 1 167 158 162 330
639 4 2 3 1 190 242 204 353
640 4 2 3 1 171 348 312 365
641 4 2 3 1 257 343 207 363
642 4 2 3 1 266 339 267 368
643 4 2 3 1 221 333 199 366
644 4 2 3 1 216 208 188 329
645 4 2 3 1 291 346 258 357
646 4 2 3 1 273 241 92 225
647 4 2 3 1 214 206 221 333
648 4 2 3 1 329 205 342 366
649 4 2 3 1 258 282 179 346
650 4 2 3 1 166 180 149 337
651 4 2 3 1 285 275 262 338
652 4 2 3 1 138 124 30 338
653 4 2 3 1 336 343 320 360
654 4 2 3 1 219 205 188 329
655 4 2 3 1 282 152 179 346
656 4 2 3 1 116 118 133 335
657 4 2 3 1 251 238 310 329
658 4 2 3 1 319 362 360 368
659 4 2 3 1 270 362 269 368
660 4 2 3 1 226 238 250 332
661 4 2 3 1 111 129 28 339
662 4 2 3 1 110 304 65 354
663 4 2 3 1 118 117 119 335
664 4 2 3 1 205 194 188 342
665 4 2 3 1 270 328 271 362
666 4 2 3 1 202 211 336 363
667 4 2 3 1 261 93 277 225
668 4 2 3 1 236 245 249 345
669 4 2 3 1 320 360 343 362
670 4 2 3 1 234 237 236 345
671 4 2 3 1 246 147 222 349
672 4 2 3 1 42 169 150 365
673 4 2 3 1 328 344 323 357
674 4 2 3 1 314 169 303 337
675 4 2 3 1 310 302 313 329
676 4 2 3 1 239 224 247 353
677 4 2 3 1 244 245 238 329
678 4 2 3 1 334 347 323 371
679 4 2 3 1 195 186 194 342
680 4 2 3 1 147 165 246 47
681 4 2 3 1 27 286 282 152
682 4 2 3 1 237 326 222 358
683 4 2 3 1 311 210 189 340
684 4 2 3 1 156 166 358 359
685 4 2 3 1 242 351 256 353
686 4 2 3 1 163 344 168 357
687 4 2 3 1 305 332 306 364
688 4 2 3 1 73 223 194 186
689 4 2 3 1 202 350 203 363
690 4 2 3 1 303 337 169 365
691 4 2 3 1 314 243 254 337
692 4 2 3 1 200 351 190 353
693 4 2 3 1 169 314 177 337
694 4 2 3 1 300 307 315 340
695 4 2 3 1 190 351 242 353
696 4 2 3 1 166 337 149 358
697 4 2 3 1 258 346 148 357
698 4 2 3 1 330 323 347 371
699 4 2 3 1 300 115 67 340
700 4 2 3 1 212 219 189 340
701 4 2 3 1 261 277 283 341
702 4 2 3 1 220 190 200 351
703 4 2 3 1 204 74 186 224
704 4 2 3 1 199 352 195 366
705 4 2 3 1 110 65 38 354
706 4 2 3 1 148 346 174 357
707 4 2 3 1 204 353 196 367
708 4 2 3 1 42 150 308 365
709 4 2 3 1 193 138 191 338
710 4 2 3 1 128 110 38 354
711 4 2 3 1 219 340 212 366
712 4 2 3 1 229 277 93 225
713 4 2 3 1 201 183 203 350
714 4 2 3 1 318 340 329 366
715 4 2 3 1 150 171 312 365
716 4 2 3 1 287 277 252 351
717 4 2 3 1 230 247 256 353
718 4 2 3 1 223 194 244 72
719 4 2 3 1 227 337 240 358
720 4 2 3 1 138 193 130 338
721 4 2 3 1 116 117 335 354
722 4 2 3 1 187 218 275 338
723 4 2 3 1 265 266 260 339
724 4 2 3 1 195 352 342 366
725 4 2 3 1 304 66 300 364
726 4 2 3 1 309 243 314 337
727 4 2 3 1 288 30 262 191
728 4 2 3 1 281 209 263 78
729 4 2 3 1 317 334 360 371
730 4 2 3 1 230 231 232 331
731 4 2 3 1 280 291 258 357
732 4 2 3 1 291 282 258 346
733 4 2 3 1 141 122 132 370
734 4 2 3 1 193 203 217 350
735 4 2 3 1 300 340 315 364
736 4 2 3 1 188 244 194 72
737 4 2 3 1 229 225 230 341
738 4 2 3 1 211 198 336 367
739 4 2 3 1 327 355 321 359
740 4 2 3 1 75 224 204 242
741 4 2 3 1 323 344 328 371
742 4 2 3 1 318 332 329 364
743 4 2 3 1 318 352 342 369
744 4 2 3 1 246 233 255 349
745 4 2 3 1 264 282 291 346
746 4 2 3 1 114 115 131 340
747 4 2 3 1 318 329 340 364
748 4 2 3 1 48 246 228 165
749 4 2 3 1 258 179 148 346
750 4 2 3 1 342 345 318 369
751 4 2 3 1 144 167 162 347
752 4 2 3 1 124 130 132 338
753 4 2 3 1 144 178 107 347
754 4 2 3 1 223 73 239 186
755 4 2 3 1 114 210 311 340
756 4 2 3 1 185 212 210 340
757 4 2 3 1 312 308 150 365
758 4 2 3 1 306 305 299 332
759 4 2 3 1 184 209 281 78
760 4 2 3 1 48 228 151 165
761 4 2 3 1 37 64 312 348
762 4 2 3 1 270 280 284 357
763 4 2 3 1 74 239 186 224
764 4 2 3 1 213 203 350 363
765 4 2 3 1 163 168 174 357
766 4 2 3 1 237 234 222 326
767 4 2 3 1 252 242 215 351
768 4 2 3 1 190 75 204 242
769 4 2 3 1 214 34 183 109
770 4 2 3 1 30 29 276 124
771 4 2 3 1 128 301 38 64
772 4 2 3 1 45 248 155 358
773 4 2 3 1 310 313 106 251
774 4 2 3 1 270 271 269 362
775 4 2 3 1 52 145 259 274
776 4 2 3 1 220 211 184 343
777 4 2 3 1 318 329 342 366
778 4 2 3 1 127 107 178 347
779 4 2 3 1 325 345 342 369
780 4 2 3 1 28 27 264 129
781 4 2 3 1 193 191 218 338
782 4 2 3 1 254 177 314 337
783 4 2 3 1 172 168 163 344
784 4 2 3 1 318 355 335 369
785 4 2 3 1 148 274 258 357
786 4 2 3 1 134 119 107 347
787 4 2 3 1 128 64 37 348
788 4 2 3 1 149 45 155 358
789 4 2 3 1 248 147 46 155
790 4 2 3 1 243 240 227 337
791 4 2 3 1 316 337 303 365
792 4 2 3 1 171 135 312 348
793 4 2 3 1 112 146 25 175
794 4 2 3 1 51 170 278 361
795 4 2 3 1 40 114 311 340
796 4 2 3 1 229 256 242 351
797 4 2 3 1 318 354 335 355
798 4 2 3 1 34 126 183 109
799 4 2 3 1 177 254 149 337
800 4 2 3 1 238 251 244 329
801 4 2 3 1 160 156 158 359
802 4 2 3 1 67 300 39 115
803 4 2 3 1 266 267 268 368
804 4 2 3 1 208 219 188 329
805 4 2 3 1 318 352 333 366
806 4 2 3 1 155 156 166 358
807 4 2 3 1 338 350 319 363
808 4 2 3 1 229 252 277 351
809 4 2 3 1 173 166 160 359
810 4 2 3 1 139 154 152 346
811 4 2 3 1 215 242 190 351
812 4 2 3 1 318 342 352 366
813 4 2 3 1 290 269 362 368
814 4 2 3 1 159 162 158 330
815 4 2 3 1 184 79 281 343
816 4 2 3 1 342 352 325 369
817 4 2 3 1 180 169 337 365
818 4 2 3 1 312 135 37 348
819 4 2 3 1 278 356 279 361
820 4 2 3 1 246 222 147 47
821 4 2 3 1 311 307 189 84
822 4 2 3 1 308 57 312 150
823 4 2 3 1 129 139 27 346
824 4 2 3 1 79 257 281 343
825 4 2 3 1 51 145 170 361
826 4 2 3 1 173 171 150 365
827 4 2 3 1 207 343 211 363
828 4 2 3 1 302 310 315 329
829 4 2 3 1 182 146 173 348
830 4 2 3 1 198 201 202 336
831 4 2 3 1 206 197 199 352
832 4 2 3 1 108 126 141 350
833 4 2 3 1 225 231 230 341
834 4 2 3 1 328 360 362 368
835 4 2 3 1 154 139 113 346
836 4 2 3 1 172 163 159 344
837 4 2 3 1 319 350 336 363
838 4 2 3 1 204 200 190 353
839 4 2 3 1 51 278 259 361
840 4 2 3 1 137 129 111 339
841 4 2 3 1 79 184 207 343
842 4 2 3 1 209 263 215 351
843 4 2 3 1 333 340 318 366
844 4 2 3 1 45 227 248 358
845 4 2 3 1 173 348 171 365
846 4 2 3 1 267 266 265 339
847 4 2 3 1 125 112 25 175
848 4 2 3 1 36 131 185 114
849 4 2 3 1 68 311 189 84
850 4 2 3 1 57 41 312 150
851 4 2 3 1 40 311 67 340
852 4 2 3 1 311 300 67 340
853 4 2 3 1 328 319 360 368
854 4 2 3 1 198 202 211 336
855 4 2 3 1 138 130 124 338
856 4 2 3 1 145 52 168 274
857 4 2 3 1 199 197 195 352
858 4 2 3 1 79 207 257 343
859 4 2 3 1 107 175 24 144
860 4 2 3 1 200 353 204 367
861 4 2 3 1 103 314 309 243
862 4 2 3 1 304 66 110 65
863 4 2 3 1 286 264 27 282
864 4 2 3 1 187 213 338 363
865 4 2 3 1 142 137 111 370
866 4 2 3 1 149 227 45 358
867 4 2 3 1 185 210 36 114
868 4 2 3 1 146 112 135 348
869 4 2 3 1 195 342 205 366
870 4 2 3 1 179 152 154 346
871 4 2 3 1 189 311 68 210
872 4 2 3 1 312 41 171 150
873 4 2 3 1 146 135 171 348
874 4 2 3 1 106 238 310 251
875 4 2 3 1 202 207 211 363
876 4 2 3 1 51 259 145 361
877 4 2 3 1 215 287 252 351
878 4 2 3 1 175 24 125 107
879 4 2 3 1 226 250 240 332
880 4 2 3 1 272 343 290 362
881 4 2 3 1 215 263 287 351
882 4 2 3 1 148 168 274 357
883 4 2 3 1 248 237 222 358
884 4 2 3 1 199 195 205 366
885 4 2 3 1 289 253 91 356
886 4 2 3 1 154 174 148 346
887 4 2 3 1 149 337 227 358
888 4 2 3 1 40 67 115 340
889 4 2 3 1 26 135 146 112
890 4 2 3 1 235 236 249 345
891 4 2 3 1 258 148 53 274
892 4 2 3 1 246 222 233 349
893 4 2 3 1 200 204 196 367
894 4 2 3 1 165 157 147 349
895 4 2 3 1 278 273 279 356
896 4 2 3 1 169 59 314 303
897 4 2 3 1 254 227 149 337
898 4 2 3 1 313 302 86 208
899 4 2 3 1 171 26 135 146
900 4 2 3 1 181 356 170 361
901 4 2 3 1 40 115 114 340
902 4 2 3 1 111 28 29 260
903 4 2 3 1 289 91 273 356
904 4 2 3 1 222 147 46 248
905 4 2 3 1 262 276 30 288
906 4 2 3 1 290 272 281 343
907 4 2 3 1 203 183 217 350
908 4 2 3 1 108 32 217 130
909 4 2 3 1 210 212 189 340
910 4 2 3 1 257 187 80 275
911 4 2 3 1 308 316 303 365
912 4 2 3 1 144 23 107 178
913 4 2 3 1 144 164 178 347
914 4 2 3 1 170 356 278 361
915 4 2 3 1 132 108 141 350
916 4 2 3 1 242 256 224 353
917 4 2 3 1 290 268 269 368
918 4 2 3 1 117 110 128 354
919 4 2 3 1 116 117 118 335
920 4 2 3 1 241 91 253 356
921 4 2 3 1 193 217 32 130
922 4 2 3 1 144 162 164 347
923 4 2 3 1 309 303 316 337
924 4 2 3 1 312 301 308 365
925 4 2 3 1 213 193 187 338
926 4 2 3 1 94 252 287 277
927 4 2 3 1 137 339 111 370
928 4 2 3 1 307 300 311 340
929 4 2 3 1 180 150 169 365
930 4 2 3 1 196 197 198 367
931 4 2 3 1 116 110 117 354
932 4 2 3 1 236 235 234 345
933 4 2 3 1 228 255 241 356
934 4 2 3 1 241 273 91 356
935 4 2 3 1 228 253 176 356
936 4 2 3 1 155 166 149 358
937 4 2 3 1 128 112 136 348
938 4 2 3 1 242 252 229 351
939 4 2 3 1 113 129 140 346
940 4 2 3 1 127 107 23 178
941 4 2 3 1 148 179 154 346
942 4 2 3 1 303 309 314 337
943 4 2 3 1 157 165 161 349
944 4 2 3 1 149 180 169 337
945 4 2 3 1 65 38 301 64
946 4 2 3 1 277 263 293 351
947 4 2 3 1 53 148 168 274
948 4 2 3 1 218 187 193 338
949 4 2 3 1 211 200 198 367
950 4 2 3 1 304 305 306 364
951 4 2 3 1 170 181 151 356
952 4 2 3 1 169 177 149 337
953 4 2 3 1 15 5 114 40
954 4 2 3 1 228 176 151 356
955 4 2 3 1 71 188 251 216
956 4 2 3 1 318 345 355 369
957 4 2 3 1 283 272 271 362
958 4 2 3 1 177 44 149 254
959 4 2 3 1 67 39 300 66
960 4 2 3 1 207 187 80 257
961 4 2 3 1 170 50 278 289
962 4 2 3 1 259 279 284 361
963 4 2 3 1 129 113 139 346
964 4 2 3 1 50 170 176 289
965 4 2 3 1 156 160 166 359
966 4 2 3 1 107 127 134 347
967 4 2 3 1 281 257 290 343
968 4 2 3 1 150 180 173 365
969 4 2 3 1 128 37 135 348
970 4 2 3 1 195 194 205 342
971 4 2 3 1 148 174 168 357
972 4 2 3 1 252 94 229 277
973 4 2 3 1 6 37 12 135
974 4 2 3 1 251 244 188 71
975 4 2 3 1 213 202 203 363
976 4 2 3 1 287 263 277 351
977 4 2 3 1 173 146 171 348
978 4 2 3 1 261 283 292 341
979 4 2 3 1 218 81 275 262
980 4 2 3 1 221 199 212 366
981 4 2 3 1 66 38 110 65
982 4 2 3 1 138 193 31 130
983 4 2 3 1 209 77 215 263
984 4 2 3 1 54 179 258 282
985 4 2 3 1 254 243 227 337
986 4 2 3 1 27 286 152 153
987 4 2 3 1 90 238 106 251
988 4 2 3 1 227 240 237 358
989 4 2 3 1 316 308 301 365
990 4 2 3 1 190 220 209 351
991 4 2 3 1 252 76 215 242
992 4 2 3 1 278 279 259 361
993 4 2 3 1 300 315 305 364
994 4 2 3 1 66 38 39 110
995 4 2 3 1 153 27 286 295
996 4 2 3 1 227 149 44 254
997 4 2 3 1 122 123 137 370
998 4 2 3 1 219 212 205 366
999 4 2 3 1 76 190 215 242
1000 4 2 3 1 89 238 310 106
1001 4 2 3 1 287 215 77 263
1002 4 2 3 1 228 49 176 253
1003 4 2 3 1 154 21 113 139
1004 4 2 3 1 211 207 184 343
1005 4 2 3 1 135 112 128 348
1006 4 2 3 1 30 288 192 191
1007 4 2 3 1 69 189 307 84
1008 4 2 3 1 150 308 57 42
1009 4 2 3 1 138 31 193 191
1010 4 2 3 1 187 207 213 363
1011 4 2 3 1 154 21 139 152
1012 4 2 3 1 247 224 256 353
1013 4 2 3 1 176 151 49 228
1014 4 2 3 1 274 280 258 357
1015 4 2 3 1 274 284 280 357
1016 4 2 3 1 190 209 215 351
1017 4 2 3 1 289 176 253 356
1018 4 2 3 1 30 288 298 192
1019 4 2 3 1 145 172 181 361
1020 4 2 3 1 82 288 262 191
1021 4 2 3 1 142 132 122 370
1022 4 2 3 1 258 179 54 148
1023 4 2 3 1 187 218 81 275
1024 4 2 3 1 272 290 269 362
1025 4 2 3 1 286 282 152 55
1026 4 2 3 1 145 181 170 361
1027 4 2 3 1 304 300 305 364
1028 4 2 3 1 289 273 278 356
1029 4 2 3 1 243 309 103 88
1030 4 2 3 1 192 3 30 191
1031 4 2 3 1 152 1 27 153
1032 4 2 3 1 91 241 92 273
1033 4 2 3 1 298 3 30 192
1034 4 2 3 1 153 1 27 295
1035 4 2 3 1 253 228 241 356
1036 4 2 3 1 299 104 226 105
1037 4 2 3 1 202 213 207 363
1038 4 2 3 1 59 169 58 303
1039 4 2 3 1 208 302 86 85
1040 4 2 3 1 244 188 71 72
1041 4 2 3 1 268 267 269 368
1042 4 2 3 1 176 170 151 356
1043 4 2 3 1 73 74 239 186
1044 4 2 3 1 212 199 205 366
1045 4 2 3 1 272 269 271 362
1046 4 2 3 1 227 237 248 358
1047 4 2 3 1 269 267 270 368
1048 4 2 3 1 82 262 218 191
1049 4 2 3 1 94 229 277 93
1050 4 2 3 1 149 44 45 227
1051 4 2 3 1 85 69 307 84
1052 4 2 3 1 42 308 57 58
1053 4 2 3 1 193 32 31 130
1054 4 2 3 1 142 122 137 370
1055 4 2 3 1 88 309 103 104
1056 4 2 3 1 310 105 89 106
1057 4 2 3 1 152 282 179 55
1058 4 2 3 1 38 37 128 64
1059 4 2 3 1 190 76 75 242
1060 4 2 3 1 33 34 126 183
1061 4 2 3 1 200 196 198 367
1062 4 2 3 1 151 49 228 48
1063 4 2 3 1 40 67 39 115
1064 4 2 3 1 79 207 80 257
1065 4 2 3 1 278 50 170 51
1066 4 2 3 1 82 192 288 191
1067 4 2 3 1 53 168 52 274
1068 4 2 3 1 281 79 184 78
1069 4 2 3 1 55 152 286 153
1070 4 2 3 1 222 147 47 46
1071 4 2 3 1 113 22 21 154
1072 4 2 3 1 224 204 74 75
1073 4 2 3 1 264 27 28 294
1074 4 2 3 1 209 77 263 78
1075 4 2 3 1 287 17 215 252
1076 4 2 3 1 92 93 261 225
1077 4 2 3 1 289 176 8 253
1078 4 2 3 1 72 223 194 73
1079 4 2 3 1 146 25 26 112
1080 4 2 3 1 165 48 246 47
1081 4 2 3 1 148 54 258 53
1082 4 2 3 1 276 29 101 260
1083 4 2 3 1 187 81 80 275
1084 4 2 3 1 297 30 29 276
1085 4 2 3 1 104 88 226 89
1086 4 2 3 1 107 24 23 144
1087 4 2 3 1 52 145 51 259
1088 4 2 3 1 89 226 104 105
1089 4 2 3 1 260 264 28 100
1090 4 2 3 1 260 28 29 296
1091 4 2 3 1 218 81 262 82
1092 4 2 3 1 90 20 16 251
1093 4 2 3 1 125 25 24 175
1094 4 2 3 1 138 30 3 191
1095 4 2 3 1 46 45 248 155
1096 4 2 3 1 35 36 131 185
1097 4 2 3 1 89 238 106 90
1098 4 2 3 1 169 58 42 59
1099 4 2 3 1 85 86 208 69
1100 4 2 3 1 177 43 13 314
1101 4 2 3 1 282 54 179 55
1102 4 2 3 1 189 69 68 84
1103 4 2 3 1 57 41 150 42
1104 4 2 3 1 101 297 276 102
1105 4 2 3 1 139 1 27 152
1106 4 2 3 1 294 100 264 99
1107 4 2 3 1 215 77 17 287
1108 4 2 3 1 286 27 264 99
1109 4 2 3 1 50 176 8 289
1110 4 2 3 1 192 288 18 82
1111 4 2 3 1 71 251 16 216
1112 4 2 3 1 55 286 9 153
1113 4 2 3 1 298 288 18 192
1114 4 2 3 1 288 276 30 102
1115 4 2 3 1 153 286 9 295
1116 4 2 3 1 23 22 127 178
1117 4 2 3 1 294 264 27 99
1118 4 2 3 1 100 264 28 294
1119 4 2 3 1 297 29 101 276
1120 4 2 3 1 17 76 215 252
1121 4 2 3 1 49 8 176 253
1122 4 2 3 1 8 289 253 91
1123 4 2 3 1 252 287 17 94
1124 4 2 3 1 100 260 101 296
1125 4 2 3 1 210 4 36 114
1126 4 2 3 1 42 169 59 43
1127 4 2 3 1 86 70 208 69
1128 4 2 3 1 44 177 7 254
1129 4 2 3 1 276 297 30 102
1130 4 2 3 1 103 87 243 88
1131 4 2 3 1 214 35 34 109
1132 4 2 3 1 171 26 2 135
1133 4 2 3 1 29 101 260 296
1134 4 2 3 1 99 9 286 295
1135 4 2 3 1 102 288 18 298
1136 4 2 3 1 13 103 87 314
1137 4 2 3 1 13 7 43 177
1138 4 2 3 1 100 28 260 296
1139 4 2 3 1 297 29 97 296
1140 4 2 3 1 96 296 28 294
1141 4 2 3 1 114 311 15 40
1142 4 2 3 1 30 14 3 298
1143 4 2 3 1 60 1 295 27
1144 4 2 3 1 15 311 68 84
1145 4 2 3 1 41 12 57 312
1146 4 2 3 1 37 12 312 64
1147 4 2 3 1 67 15 311 40
1148 4 2 3 1 295 9 153 56
1149 4 2 3 1 83 298 18 192
1150 4 2 3 1 217 33 32 108
1151 4 2 3 1 86 20 313 70
1152 4 2 3 1 43 59 13 314
1153 4 2 3 1 11 95 295 10
1154 4 2 3 1 60 1 11 295
1155 4 2 3 1 63 19 298 98
1156 4 2 3 1 30 63 14 298
1157 4 2 3 1 12 37 312 135
1158 4 2 3 1 28 60 294 27
1159 4 2 3 1 95 11 295 60
1160 4 2 3 1 60 28 294 61
1161 4 2 3 1 28 62 296 61
1162 4 2 3 1 63 14 298 19
1163 4 2 3 1 3 31 138 191
1164 4 2 3 1 62 29 28 296
1165 4 2 3 1 297 62 29 63
1166 4 2 3 1 297 29 30 63
1167 4 2 3 1 97 297 98 63
1168 4 2 3 1 297 101 29 296
1169 4 2 3 1 296 100 28 294
1170 4 2 3 1 61 97 296 96
1171 4 2 3 1 21 1 139 152
1172 4 2 3 1 294 61 96 60
1173 4 2 3 1 61 97 62 296
1174 4 2 3 1 96 294 60 95
1175 4 2 3 1 294 27 95 295
1176 4 2 3 1 297 97 62 63
1177 4 2 3 1 30 297 98 298
1178 4 2 3 1 99 286 27 295
1179 4 2 3 1 30 288 102 298
1180 4 2 3 1 27 294 99 295
1181 4 2 3 1 3 298 83 192
1182 4 2 3 1 297 30 102 298
1183 4 2 3 1 295 153 1 56
1184 4 2 3 1 298 19 3 83
1185 4 2 3 1 295 1 10 56
1186 4 2 3 1 10 11 1 295
1187 4 2 3 1 14 19 3 298
1188 4 2 3 1 60 294 27 95
1189 4 2 3 1 98 297 30 63
1190 4 2 3 1 61 96 28 294
1191 4 2 3 1 96 28 296 61
1192 4 2 3 1 97 62 29 297
1193 4 2 3 1 29 62 97 296
1194 4 2 3 1 95 27 60 295
1195 4 2 3 1 30 98 63 298
1196 4 2 3 1 5 4 15 114
1197 4 2 3 1 12 2 6 135
1198 4 2 3 1 369 367 360 336
1199 4 2 3 1 369 360 367 325
1200 4 2 3 1 306 354 301 304
1201 4 2 3 1 301 354 306 321
1202 4 2 3 1 351 320 283 341
1203 4 2 3 1 360 369 324 317
1204 4 2 3 1 324 369 360 336
1205 4 2 3 1 306 365 337 316
1206 4 2 3 1 337 365 306 321
1207 4 2 3 1 362 351 283 293
1208 4 2 3 1 362 283 351 320
1209 4 2 3 1 326 369 331 317
1210 4 2 3 1 331 369 326 345
1211 4 2 3 1 121 335 133 118
1212 4 2 3 1 133 335 121 324
1213 4 2 3 1 370 141 121 350
1214 4 2 3 1 370 121 141 122
1215 4 2 3 1 356 231 341 322
1216 4 2 3 1 356 341 231 241
1217 4 2 3 1 307 208 329 189
1218 4 2 3 1 307 329 208 302
1219 4 2 3 1 165 228 349 246
1220 4 2 3 1 165 349 228 151
1221 4 2 3 1 127 154 22 113
1222 4 2 3 1 22 154 127 178
1223 4 2 3 1 330 158 349 326
1224 4 2 3 1 156 158 349 157
1225 4 2 3 1 156 349 158 326
1226 4 2 3 1 370 124 132 338
1227 4 2 3 1 370 132 124 142
1228 4 2 3 1 359 182 167 160
1229 4 2 3 1 359 167 182 327
1230 4 2 3 1 348 327 175 125
1231 4 2 3 1 348 112 175 146
1232 4 2 3 1 175 112 348 125
1233 4 2 3 1 115 364 110 354
1234 4 2 3 1 115 110 364 39
1235 4 2 3 1 66 364 110 39
1236 4 2 3 1 345 250 240 236
1237 4 2 3 1 345 240 250 332
1238 4 2 3 1 109 185 35 131
1239 4 2 3 1 35 185 109 214
1240 4 2 3 1 226 88 309 243
1241 4 2 3 1 226 309 88 104
1242 4 2 3 1 42 169 308 58
1243 4 2 3 1 42 308 169 365
1244 4 2 3 1 303 308 169 58
1245 4 2 3 1 303 169 308 365
1246 4 2 3 1 111 370 124 142
1247 4 2 3 1 124 370 111 339
1248 4 2 3 1 299 226 310 105
1249 4 2 3 1 89 226 310 238
1250 4 2 3 1 89 310 226 105
1251 4 2 3 1 108 183 33 126
1252 4 2 3 1 33 183 108 217
1253 4 2 3 1 114 185 340 131
1254 4 2 3 1 114 340 185 210
1255 4 2 3 1 289 170 356 278
1256 4 2 3 1 289 356 170 176
1257 4 2 3 1 169 43 314 59
1258 4 2 3 1 314 43 169 177
1259 4 2 3 1 208 70 313 216
1260 4 2 3 1 208 313 70 86
1261 4 2 3 1 243 87 314 254
1262 4 2 3 1 243 314 87 103
1263 4 2 3 1 106 251 20 90
1264 4 2 3 1 20 251 106 313
1265 4 2 3 1 68 4 114 15
1266 4 2 3 1 114 4 68 210
1267 4 2 3 1 114 311 68 15
1268 4 2 3 1 68 311 114 210
1269 4 2 3 1 41 312 135 12
1270 4 2 3 1 135 312 41 171
1271 4 2 3 1 135 2 41 12
1272 4 2 3 1 41 2 135 171
1273 4 2 3 1 314 87 177 254
1274 4 2 3 1 314 177 87 13
1275 4 2 3 1 7 177 87 254
1276 4 2 3 1 7 87 177 13
1277 4 2 3 1 251 16 70 20
1278 4 2 3 1 70 16 251 216
1279 4 2 3 1 70 313 251 20
1280 4 2 3 1 251 313 70 216
1281 4 2 3 1 158 349 159 330
1282 4 2 3 1 158 159 349 157
1283 4 2 3 1 175 348 182 327
1284 4 2 3 1 182 348 175 146
1285 4 2 3 1 364 110 304 66
1286 4 2 3 1 364 304 110 354
1287 4 2 3 1 226 310 332 299
1288 4 2 3 1 226 332 310 238
$EndElements
